<?xml version="1.0" encoding="utf-8"?>
<!-- Generator: Adobe Illustrator 16.0.0, SVG Export Plug-In . SVG Version: 6.00 Build 0)  -->
<!DOCTYPE svg PUBLIC "-//W3C//DTD SVG 1.1//EN" "http://www.w3.org/Graphics/SVG/1.1/DTD/svg11.dtd">
<svg version="1.1" id="Layer_1" xmlns="http://www.w3.org/2000/svg" xmlns:xlink="http://www.w3.org/1999/xlink" x="0px" y="0px"
	 width="64.3px" height="63.8px" viewBox="0 0 64.3 63.8" style="enable-background:new 0 0 64.3 63.8;" xml:space="preserve">
<style type="text/css">
<![CDATA[
	.st0{fill:#E31666;}
	.st1{fill:none;stroke:#E31666;stroke-width:3;stroke-linecap:round;stroke-miterlimit:10;}
]]>
</style>
<path class="st1" d="M62,34.9"/>
<path class="st1" d="M61.4,34.9"/>
<g>
	<path class="st0" d="M61.9,37.2c-0.8-0.2-1.6,0.3-1.8,1.1c-3,13.3-15.2,22.8-28.8,22.5C15.4,60.5,2.7,47.3,3,31.3
		C3.3,15.6,16.2,3,31.9,3c0.2,0,0.4,0,0.6,0c13.2,0.3,24.6,9.4,27.6,22.3c0.2,0.8,1,1.3,1.8,1.1c0.8-0.2,1.3-1,1.1-1.8
		C59.7,10.4,47.2,0.3,32.6,0c-0.2,0-0.4,0-0.6,0C14.6,0,0.4,13.9,0,31.3c-0.4,17.6,13.7,32.2,31.3,32.5c0.2,0,0.4,0,0.6,0
		c14.8,0,27.9-10.4,31.1-24.9C63.2,38.2,62.7,37.4,61.9,37.2z"/>
	<path class="st0" d="M61.5,29.1h-9.1c-0.2,0-0.3,0-0.5,0c-1.4-10.1-10-17.9-20.5-17.9c-11.4,0-20.7,9.3-20.7,20.7
		c0,11.4,9.3,20.7,20.7,20.7c10.5,0,19.1-7.8,20.5-17.9c0.2,0,0.3,0,0.5,0h9.1c1.5,0,2.8-1.3,2.8-2.8S63,29.1,61.5,29.1z M31.4,48.6
		c-9.2,0-16.7-7.5-16.7-16.7c0-9.2,7.5-16.7,16.7-16.7s16.7,7.5,16.7,16.7C48.1,41.1,40.6,48.6,31.4,48.6z"/>
	<path class="st0" d="M31.4,18.6C24,18.6,18,24.6,18,32c0,3.4,1.2,6.4,3.3,8.8C18.7,36,19,30.4,22.2,26.3c4.3-5.5,9.8-4.9,12-4.3
		c4.4,1.1,7.1,4.9,7.7,7.9c0.7,3.5-0.6,6.3-1.5,7.6c-1.9,3-5.5,4.7-8.5,4.2c-2.6-0.4-5-2.1-5.9-4.2c-1-2.2-0.5-5,1.2-6.6
		c1.4-1.4,3.2-1.8,4.8-1.2c1.5,0.6,2.6,2,2.8,3.5c0.1,1.3-0.5,2.5-1.8,3.3c-0.4,0.3-1,0.1-1.3-0.3s-0.1-1,0.3-1.3
		c0.6-0.4,0.9-0.9,0.9-1.5c-0.1-0.8-0.7-1.6-1.6-1.9c-1-0.4-2-0.1-2.9,0.8c-1.1,1.1-1.5,3-0.8,4.5c0.7,1.6,2.5,2.8,4.6,3.2
		c2.3,0.4,5.2-1.1,6.7-3.4c0.7-1.1,1.9-3.4,1.3-6.2c-0.4-1.8-2.2-5.5-6.4-6.5c-2.3-0.6-6.6-0.8-10.1,3.7c-2.5,3.2-2.9,7.6-1.2,11.4
		c0.3,0.8,0.9,1.8,1.5,2.5c2.4,2.8,5.8,3.9,7.7,3.9C39,45.4,44.9,39.4,44.9,32C44.9,24.6,38.9,18.6,31.4,18.6z"/>
</g>
</svg>
