<?xml version="1.0" encoding="utf-8"?>
<!-- Generator: Adobe Illustrator 16.0.0, SVG Export Plug-In . SVG Version: 6.00 Build 0)  -->
<!DOCTYPE svg PUBLIC "-//W3C//DTD SVG 1.1//EN" "http://www.w3.org/Graphics/SVG/1.1/DTD/svg11.dtd">
<svg version="1.1" id="Layer_1" xmlns="http://www.w3.org/2000/svg" xmlns:xlink="http://www.w3.org/1999/xlink" x="0px" y="0px"
	 width="101.7px" height="20.7px" viewBox="0 0 101.7 20.7" style="enable-background:new 0 0 101.7 20.7;" xml:space="preserve">
<style type="text/css">
<![CDATA[
	.st0{fill:#E50E63;}
]]>
</style>
<rect y="12.6" class="st0" width="33.5" height="0.7"/>
<rect x="68.2" y="12.6" class="st0" width="33.5" height="0.7"/>
<path class="st0" d="M57.1,8c-0.4-1.1-1.3-2.1-1.9-2.6l-0.1-0.1C55,5.1,54.9,5,54.7,4.8c-0.6-0.6-1.6-1.5-1.9-2
	c-0.4-0.6-0.9-1.2-1.4-1.4c-0.5-0.2-1-0.2-1.3-0.3l-0.1,0c-0.4,0-1.3,0.3-1.6,0.6c-0.2,0.1-0.4,0.4-0.5,0.8
	c-0.1,0.2-0.2,0.4-0.3,0.6c0,0,0,0.1,0,0.1c0,0.1-0.1,0.3-0.1,0.4c0,0.2,0,0.8,0.6,1c0.3,0.2,0.6,0.3,0.9,0.2c0.1,0,0.3-0.1,0.4-0.4
	c0,0,0,0,0,0c0,0,0,0,0,0c0,0,0-0.1,0.1-0.1c0,0,0-0.1,0-0.1c0,0-0.1,0-0.1,0c0,0.1-0.1,0.1-0.1,0.1c0,0,0,0,0,0
	C49,4.1,49,3.9,49,3.9c0,0,0.2-0.1,0.4-0.1c0.2,0,0.2,0.1,0.2,0.1c0.1,0.4,0,0.8-0.2,1.1c-0.2,0.2-0.9,0.6-1.5,1
	c-0.2,0.1-0.5,0.3-0.6,0.4l-0.1,0.1c-0.6,0.4-1.5,0.9-2.6,2.1c-0.6,0.6-1.1,2.2-1.2,2.3l-0.1,0.8c0,0,0,0.1,0,0.1l2.8,7
	c0,0.1,0.1,0.1,0.2,0.1c0,0,0,0,0.1,0l0,0l0,0c0.1,0,0.1,0,0.2,0.1c0,0,0.1,0,0.1,0c0.4,0.1,0.9,0.3,1.1,0.3
	c0.7,0.2,1.8,0.4,2.5,0.4c0.1,0,0.1,0,0.2,0c3.2-0.3,4.4-0.9,4.7-1.1c0,0,0,0,0,0c0.1,0,0.1-0.1,0.2-0.1l0-0.1c0,0,0,0,0,0l1.7-7.8
	C57.2,10.3,57.6,9.4,57.1,8z M56,6.9c0.4,0.9,0.6,1.9,0.3,2.8c0,0,0,0,0,0l-0.1,0.1c-0.2,0-0.3,0.1-0.5,0.2c-0.1,0-0.2,0.1-0.3,0.1
	l-0.1-0.2c0.7-1.1,0.9-2,0.5-3.3C55.9,6.7,55.9,6.8,56,6.9z M50,3.7c-0.1-0.3-0.3-0.5-0.7-0.5c-0.3,0-0.8,0.2-0.9,0.5
	c0,0.1,0,0.3,0,0.4c0,0,0,0,0,0c0-0.1-0.1-0.1-0.1-0.2c-0.1-0.4,0.2-0.9,0.8-1l0,0C49.6,2.8,49.9,3,50,3.2c0.3,0.5,0.1,1.8-0.3,2.2
	l0,0c-0.1,0.1-0.1,0.1-0.2,0.2c-0.4,0.4-0.7,0.8-1.2,1.1c-0.2,0.1-0.4,0.2-0.6,0.3c-0.6,0.3-1.2,0.6-1.7,1.1l-0.1,0.1
	c-0.5,0.5-1.1,1.5-1.4,2.4c-0.2,0-0.5,0-0.6,0c0.2-0.5,0.6-1.4,0.9-1.8c1-1.2,1.9-1.7,2.5-2l0.1-0.1c0.2-0.1,0.4-0.2,0.6-0.4
	c0.6-0.4,1.4-0.8,1.6-1.1C50.1,4.8,50.2,4.3,50,3.7z M48.2,4.1c-0.2-0.3-0.2-0.6,0-1l0-0.1c0,0,0-0.1,0-0.1c0.4-0.6,0.7-0.5,1.2-0.5
	l0.1,0c0.5,0.1,0.8,0.5,0.9,1.2c0.2,1.3-0.7,2.5-1.5,3.2c-0.3,0.3-0.6,0.4-0.9,0.6c-0.3,0.2-0.6,0.3-1,0.7c-0.7,0.6-1.4,1.4-1.6,2.6
	c-0.3,0-0.6,0-0.8,0c0.3-0.8,0.9-1.8,1.3-2.3l0.1-0.1c0.5-0.5,1-0.8,1.6-1.1C48,7.1,48.2,7,48.4,6.9c0.6-0.3,0.9-0.7,1.3-1.1
	c0.1-0.1,0.1-0.1,0.2-0.2l0,0c0.4-0.5,0.6-1.8,0.3-2.4c-0.1-0.3-0.4-0.5-0.8-0.5c0,0-0.1,0-0.1,0l0,0c-0.7,0.1-1,0.7-1,1.3
	C48.3,4,48.3,4,48.2,4.1C48.3,4.1,48.3,4.1,48.2,4.1z M55,6.2L55,6.2c0.4,1.5,0,2.1-0.5,2.7c-0.3,0.3-0.5,0.7-0.8,1.2c0,0,0,0,0,0
	l-0.2,0.3c-0.2,0-0.5,0-0.7,0.1l-0.1-0.1c0.1-0.5,0.4-0.9,0.8-1.3c0.6-0.7,1.3-1.4,1.1-2.9l0-0.1c-0.1-0.4-0.1-0.6-0.2-0.9
	c0,0,0,0,0,0C54.5,5.5,54.8,5.8,55,6.2z M50.7,3.6c-0.1-0.8-0.5-1.3-1-1.4l-0.1,0c-0.1,0-0.3,0-0.4,0h0c0.5-0.1,0.9,0,1.2,0.2
	c0.2,0.1,0.3,0.3,0.4,0.5c0.6,2.1-0.8,3.8-2.1,4.9l-0.1,0.1c-1.2,1-1.4,1.5-1.8,2.7l0,0c-0.3,0-0.7,0-1,0c0.1-1.1,0.8-1.8,1.5-2.4
	c0.4-0.3,0.7-0.5,1-0.7c0.3-0.2,0.6-0.3,0.9-0.6C50,6.3,50.9,5,50.7,3.6z M55.9,10.7c0.2-0.1,0.4-0.1,0.6-0.2l0,0c0,0,0,0,0,0
	l-0.4,1.8l-1.3,5.8c-0.1,0.1-0.6,0.3-1.6,0.6l1.1-7.7c0,0,0,0,0-0.1l0,0C55.1,10.9,55.6,10.8,55.9,10.7z M43.8,11.5l0-0.2
	c0.4,0,1,0,1.7,0l0.2,0.3l2,7.1c-0.4-0.1-0.9-0.3-1.2-0.4L43.8,11.5z M48.6,11.3l0.2,0.4l0.5,7.3L49,19c-0.1,0-0.2,0-0.2,0l0-0.2
	l0,0.2c-0.2,0-0.4-0.1-0.6-0.1v0c0,0,0,0,0,0l-2-7.2l0.3-0.2C47,11.3,47.8,11.3,48.6,11.3z M51.4,11.2L51.4,11.2l-0.2,7.9
	c-0.3,0-0.5,0.1-0.8,0.1c-0.1,0-0.2,0-0.4,0c0,0,0,0,0,0l0,0l0,0l-0.4-0.1l-0.5-7.4c0,0,0,0,0,0l0.2-0.3
	C50,11.3,50.7,11.2,51.4,11.2z M54,11L54,11C54.1,11.1,54.1,11.1,54,11L53,18.8c-0.4,0.1-0.9,0.2-1.4,0.2l0.2-7.7l0.1-0.1
	c0.4,0,0.8-0.1,1.2-0.1c0,0,0,0,0,0v0C53.4,11.1,53.7,11,54,11z M51.2,10.5L51.2,10.5L51.2,10.5C51.2,10.5,51.2,10.5,51.2,10.5z
	 M55.1,10.1L55.1,10.1l0.1,0C55.1,10.1,55.1,10.1,55.1,10.1z M53.7,10.3L53.7,10.3C53.7,10.3,53.7,10.3,53.7,10.3L53.7,10.3
	C53.7,10.3,53.7,10.3,53.7,10.3z M54.2,6l0,0.1c0.2,1.4-0.5,2.1-1,2.7c-0.4,0.4-0.7,0.8-0.8,1.3c0,0,0,0,0,0l-0.2,0.2
	c-0.2,0-0.5,0-0.7,0l-0.1-0.1c0.3-0.8,0.8-1.4,1.2-1.9c0.8-1,1.5-2,1-3.5l0-0.1c0-0.1-0.2-0.5-0.4-0.8c0.2,0.2,0.3,0.3,0.5,0.5
	C54,5.1,54.1,5.3,54.2,6z M53.1,4.4c0.1,0.2,0.2,0.4,0.2,0.5l0,0.1c0.5,1.5-0.1,2.3-0.9,3.4c-0.4,0.6-0.9,1.2-1.2,1.9c0,0,0,0,0,0
	l-0.3,0.3c-0.2,0-0.5,0-0.7,0c0,0,0-0.1,0-0.1c0.1-0.5,0.2-0.6,0.7-1.2c0.2-0.3,0.5-0.6,0.7-0.8c0.2-0.3,0.5-0.6,0.8-0.9l0-0.1
	c0.7-0.8,0.8-1.7,0.8-2.7C53.2,4.7,53.2,4.6,53.1,4.4z M52.2,7.4L52.2,7.4c-0.3,0.4-0.6,0.7-0.8,1c-0.2,0.2-0.5,0.5-0.7,0.8
	c-0.5,0.6-0.6,0.8-0.7,1.2c0,0.1,0,0.1-0.1,0.2c-0.3,0-0.5,0-0.8,0c0.3-1.1,1.1-2,1.9-2.9l0.2-0.2c1.3-1.4,1.7-2.9,1.1-4.4
	c0.1,0.1,0.2,0.2,0.2,0.2C52.7,3.6,53,4.3,53,4.8C53,5.8,52.8,6.6,52.2,7.4z M51.1,7.4l-0.2,0.2c-0.8,0.9-1.7,1.8-2,3
	c-0.2,0-0.3,0-0.5,0c0,0,0,0,0,0h0c-0.1,0-0.2,0-0.3,0c0.5-1,1.1-1.8,1.9-2.7c0.2-0.2,0.3-0.4,0.5-0.6l0.1-0.1
	c1.4-1.6,1.4-3.9,0.6-5c-0.3-0.4-0.8-0.6-1.3-0.6c0,0,0,0-0.1,0c0.1,0,0.2,0,0.3,0h0l0.1,0c0.2,0,0.5,0,0.8,0.1
	c0.5,0.2,1,0.6,1.2,1.2C53,4.9,51.9,6.5,51.1,7.4z M48.7,2.2c0.9-0.5,1.8-0.4,2.3,0.3c0.8,1,0.8,3.2-0.6,4.7l-0.1,0.1
	c-0.2,0.2-0.3,0.4-0.5,0.6c-0.8,0.9-1.5,1.7-1.9,2.8c-0.3,0-0.7,0-1,0C47.3,9.4,47.5,9,48.7,8L48.7,8c1.3-1.1,2.8-2.9,2.1-5.1
	c-0.1-0.2-0.2-0.4-0.4-0.6c-0.3-0.3-0.8-0.4-1.3-0.2c-0.2,0-0.4,0.1-0.6,0.2c0,0,0,0,0,0C48.6,2.2,48.6,2.2,48.7,2.2z M56.7,8.1
	c0.2,0.7,0.2,1.2,0.2,1.6l-0.1-0.1l0,0.2l-0.1-0.2l-0.1,0c0,0,0,0-0.1,0l0,0c0.2-0.6,0.2-1.4,0-2C56.5,7.8,56.6,8,56.7,8.1z
	 M55.1,9.8C55.1,9.8,55.1,9.8,55.1,9.8l-0.3,0.4c-0.2,0-0.5,0.1-0.8,0.1l-0.1-0.1C54,9.7,54.3,9.3,54.6,9c0.5-0.7,1-1.3,0.6-2.8
	l0-0.1C55.1,6,55,5.9,55,5.8c0.2,0.2,0.3,0.3,0.5,0.5C56,7.7,55.9,8.6,55.1,9.8z"/>
</svg>
