<?xml version="1.0" encoding="utf-8"?>
<!-- Generator: Adobe Illustrator 16.0.0, SVG Export Plug-In . SVG Version: 6.00 Build 0)  -->
<!DOCTYPE svg PUBLIC "-//W3C//DTD SVG 1.1//EN" "http://www.w3.org/Graphics/SVG/1.1/DTD/svg11.dtd">
<svg version="1.1" id="Layer_1" xmlns="http://www.w3.org/2000/svg" xmlns:xlink="http://www.w3.org/1999/xlink" x="0px" y="0px"
	 width="254.1px" height="64.5px" viewBox="0 0 254.1 64.5" style="enable-background:new 0 0 254.1 64.5;" xml:space="preserve">
<style type="text/css">
<![CDATA[
	.st0{fill:#E50E63;stroke:#E50E63;stroke-width:0.3817;stroke-miterlimit:10;}
	.st1{fill:#EE232F;}
	.st2{display:none;}
]]>
</style>
<g id="RZVxik_1_" class="st2">
	
		<image style="display:inline;overflow:visible;" width="179" height="27" id="RZVxik_2_" xlink:href="B123C656E839ECC4.jpg"  transform="matrix(1.4198 0 0 1.4198 0.1909 13.75)">
	</image>
</g>
<rect x="0.2" y="31" class="st0" width="80.4" height="0.8"/>
<rect x="173.2" y="31" class="st0" width="80.4" height="0.8"/>
<g>
	<path class="st1" d="M137.8,30.4c1.8-0.4,6.5-3.2,7.8-4.3c1.7-1.5,0.8-5.7-0.4-7.2c-0.6-0.8-1.6-1.3-2.8-1.3c-1.9,0-4.1,1-6.3,2
		c-1.7,0.8-3.3,1.5-4.5,1.6c-0.1,0-0.2,0-0.3,0c0.2-0.2,0.4-0.5,0.6-0.7c0.5-0.5,0.9-1.1,1.2-1.6c0.6-1.5,1.5-4.3,0.9-6.5
		c-1.1-4.6-4.4-7.2-9-7.2c0,0-0.2,0-0.2,0c-3,0-7.6,3.3-8.4,6.2c-0.6,2-0.3,4.5,0.2,6.2c0.4,1.6,1.4,2.3,2.3,3
		c0.1,0.1,0.2,0.1,0.2,0.2c-0.2,0-0.4,0-0.5,0c-5.7-0.4-11.6,3.4-12.7,7.9c-0.6,2.5,0.5,4.5,2.9,5.6c1.2,0.5,3-0.6,4.9-1.8
		c1.2-0.7,2.5-1.6,3.2-1.7c0,0.7-0.2,1.2-0.5,1.8c-0.2,0.5-0.5,1-0.6,1.7c-0.2,0.7-0.3,1.3-0.4,1.9c-0.2,1.2-0.4,2.3-0.9,3.4
		c-0.5,1.1-0.7,2.2-0.9,3.3c-0.1,0.7-0.3,1.4-0.5,2.1c-0.5,1.5-0.9,3.6-0.7,5.6c0.5,3.3,2.9,5.9,5.6,5.9c1,0,2.4-0.4,3.8-2
		c1-1.2,2-2.7,3.1-4.6c0.5-0.9,0.9-1.9,1.1-3c0-0.3,0.1-0.6,0.1-0.9c0-0.4,0-0.8,0.2-1.2c0.3,0.3,0.8,1.3,1.5,3.9
		c0.1,0.3,0.1,0.5,0.2,0.6c0.1,0.4,0.2,0.7,0.3,1.1c0.4,1.6,0.9,3.3,2.1,4.6c1.1,1.2,2.6,1.9,4.2,1.9c2.7,0,5-1.9,5.4-4.6
		c0.3-1.9-0.2-3.9-0.6-5.6l-0.2-0.8c-0.5-2.1-0.9-4.2-1.3-6.2c-0.3-1.8-0.9-3.6-1.5-5.4l-0.2-0.6c-0.4-1.3-0.5-2.1-0.2-2.5
		C136.4,30.8,136.9,30.5,137.8,30.4z M144.1,19.6c1,1.3,1.5,4.6,0.6,5.4c-0.5,0.4-1.4,1-2.4,1.6c-0.1-0.2-0.1-0.5-0.2-0.8
		c0-0.5-0.1-1-0.5-1.3c-0.2-0.2-0.5-0.3-1-0.3c0-0.2,0.1-0.4,0.3-0.6c0.2-0.2,0.4-0.5,0.5-0.9c0-0.7-0.2-0.9-0.5-1.2
		c-0.1-0.1-0.2-0.2-0.3-0.3c-0.7-1-0.7-1.3-0.3-2.1c0.7-0.2,1.4-0.4,2-0.4C143.2,18.9,143.8,19.1,144.1,19.6z M109.4,33.2
		c-1.3-0.6-2.8-1.8-2.2-4.1c0.3-1.3,1.1-2.4,2.2-3.5c0.2,0.1,0.4,0.2,0.6,0.2c0.4,0.1,0.6,0.1,0.7,0.7c0.1,0.4-0.1,0.6-0.2,0.8
		c-0.3,0.5-0.3,0.8,0.5,1.3c0.2,0.2,0.5,0.2,0.7,0.1c0.3,0,0.3,0,0.4,0.1c0.1,0.2,0.1,0.3-0.1,0.6c-0.1,0.2-0.3,0.3-0.3,0.6
		c-0.2,0.9,0.1,1.3,0.3,1.7c0.1,0.1,0.2,0.3,0.2,0.4c-1,0.6-2,1.2-2.6,1.2C109.5,33.2,109.5,33.2,109.4,33.2z M121,53.7
		c-0.9,1-1.8,1.6-2.8,1.6c-2,0-3.9-2.1-4.3-4.7c-0.1-0.9-0.1-1.9,0.1-2.7h0.3c0.5,0,1,0,1.5,0c0.1,0.5,0.2,0.9,0.2,1.4
		c0,0.1,0,0.2,0.1,0.2c0.6,0.6,1.2,0.3,1.6,0.1c0.2-0.1,0.4-0.2,0.5-0.1c0.5,0.2,0.5,0.3,0.5,0.5c0,0.2,0.1,0.6,0.6,1
		c0.7,0.5,1.4,0.3,2.1,0.1c0.5-0.1,1-0.2,1.3,0c0.1,0.1,0.2,0.2,0.2,0.3C122.2,52.2,121.6,53,121,53.7z M138.2,46.3l0.2,0.8
		c0.1,0.6,0.3,1.2,0.4,1.8c-0.5-0.2-1-0.3-1.6-0.5c-0.1,0-0.2,0-0.3,0.1c-0.4,0.4-0.6,1-0.8,1.5c-0.3,0.1-0.5-0.1-0.8-0.3
		c-0.2-0.2-0.4-0.4-0.8-0.4c0,0,0,0,0,0c-0.8,0-1,0.3-1.1,0.6c-0.1,0.2-0.2,0.3-0.5,0.5c-0.5,0.2-1.1-0.1-1.6-0.5
		c-0.5-0.3-1-0.6-1.6-0.5c0,0-0.1,0-0.1,0.1c0-0.1-0.1-0.3-0.1-0.4c0-0.1-0.1-0.4-0.2-0.6c-0.1-0.3-0.2-0.6-0.3-0.9
		c0.5-0.1,0.9,0.1,1.4,0.4c0.5,0.2,1,0.5,1.6,0.5c0.1,0,0.2,0,0.2,0c0.1,0,0.2-0.1,0.2-0.2c0.5-1.3,0.8-1.3,1.5-1.1
		c0.5,0.1,1.1,0.3,1.8,0c0.4-0.2,0.8-0.5,1.1-0.8c0.4-0.4,0.8-0.6,1.2-0.5C138.1,45.9,138.1,46.1,138.2,46.3z M139,52.1
		c-0.4,2.4-2.4,3.5-4.1,3.5c-1.2,0-2.4-0.5-3.2-1.5c-1-1.1-1.4-2.6-1.8-4.1c0-0.1,0-0.2-0.1-0.2c0,0,0.1,0,0.1-0.1
		c0.3-0.1,0.7,0.2,1.2,0.4c0.5,0.3,1,0.6,1.6,0.6c0.2,0,0.3,0,0.5-0.1c0.6-0.2,0.7-0.5,0.9-0.7c0.1-0.2,0.2-0.3,0.7-0.3h0
		c0.1,0,0.2,0.1,0.4,0.3c0.3,0.3,0.7,0.7,1.5,0.4c0.1,0,0.1-0.1,0.2-0.2c0.1-0.5,0.3-0.9,0.6-1.3c0.5,0.1,0.9,0.3,1.4,0.4l0.2,0.1
		C139,50.3,139.1,51.3,139,52.1z M135.2,34.2l0.2,0.6c0.6,1.7,1.2,3.5,1.5,5.2c0.3,1.7,0.7,3.4,1.1,5.2c-0.6,0-1,0.4-1.5,0.7
		c-0.3,0.3-0.6,0.5-1,0.7c-0.6,0.2-1,0.1-1.4,0c-0.8-0.2-1.5-0.2-2,1.3c0,0,0,0,0,0c-0.5,0-0.9-0.2-1.4-0.4
		c-0.5-0.3-1.1-0.5-1.8-0.4c-0.6-1.9-1.1-3.1-1.9-3.4c-0.1-0.1-0.1-0.2-0.2-0.2c-0.2-0.2-0.6-0.2-0.8,0c-0.8,0.6-0.9,1.7-1,2.5
		c0,0.3,0,0.5-0.1,0.8c-0.1,0.7-0.3,1.3-0.6,1.9c-0.6-0.4-1.3-0.3-1.8-0.2c-0.5,0.1-1,0.2-1.5,0c-0.1-1.6-0.7-1.8-1.6-1.8
		c-0.4,0-0.9-0.1-1.4-0.5c-0.3-0.3-0.5-0.6-0.7-0.9c-0.5-0.8-1-1.7-2.7-0.9l0.2,0.5c1.2-0.6,1.5-0.1,2,0.7c0.2,0.3,0.4,0.7,0.8,1.1
		c0.6,0.5,1.2,0.6,1.7,0.6c0.7,0,1,0.1,1.1,1.5c0,0.1,0.1,0.2,0.2,0.2c0.7,0.3,1.3,0.2,1.9,0.1c0.6-0.1,1-0.2,1.5,0.1
		c0,0.1-0.1,0.2-0.1,0.2c-0.3,0.5-0.6,1.1-0.9,1.5c-0.1-0.1-0.1-0.2-0.2-0.3c-0.5-0.3-1.1-0.2-1.7,0c-0.6,0.2-1.2,0.3-1.7,0
		c-0.3-0.2-0.3-0.4-0.4-0.6c-0.1-0.4-0.2-0.7-0.9-1c-0.3-0.1-0.6,0-0.9,0.2c-0.4,0.2-0.6,0.3-0.9,0.1c0-0.6-0.1-1.2-0.3-1.7
		c0-0.1-0.1-0.2-0.2-0.2c-0.6,0-1.1,0-1.7,0h-0.2c0.1-0.6,0.3-1.2,0.4-1.8c0.2-0.7,0.4-1.5,0.5-2.2c0.2-1.1,0.4-2.1,0.8-3
		c0.6-1.2,0.8-2.5,1-3.7c0.1-0.6,0.2-1.2,0.4-1.9c0.1-0.6,0.3-1,0.5-1.5c0.3-0.8,0.7-1.6,0.6-2.9c0-0.2-0.1-0.4-0.3-0.5
		c-1.1-0.7-2.9,0.4-4.9,1.7c-0.2,0.1-0.3,0.2-0.5,0.3c-0.1-0.1-0.1-0.3-0.2-0.4c-0.2-0.4-0.4-0.7-0.3-1.3c0-0.1,0.1-0.2,0.2-0.4
		c0.2-0.2,0.5-0.6,0.2-1.2c-0.2-0.4-0.6-0.4-0.9-0.4c-0.1,0-0.3,0-0.3,0c-0.5-0.3-0.4-0.4-0.3-0.6c0.1-0.2,0.3-0.6,0.2-1.2
		c-0.1-0.9-0.7-1-1.2-1.1c-0.1,0-0.2,0-0.3-0.1c2.1-1.8,5.1-3,8-3c0.2,0,0.4,0,0.7,0c0.1,0,0.4,0,0.7,0c0.4,0,0.9,0,1.2-0.1
		c0.3,0.1,0.6,0,0.7-0.3c0.2-0.2,0.1-0.5,0-0.8c-0.5-0.6-1-1-1.5-1.4c-0.8-0.6-1.5-1.2-1.8-2.3c-0.4-1.5-0.7-3.8-0.2-5.6
		c0.7-2.3,4.6-5.2,7.3-5.2c0,0,0,0,0,0c4,0,6.8,2.2,7.7,6.2c0.5,2-0.4,4.7-0.8,5.7c-0.1,0.3-0.5,0.8-0.9,1.2c-0.7,0.8-1.3,1.5-1,2.2
		c0.3,0.6,1,0.7,1.6,0.7l0.2,0c1.3,0,3-0.8,4.9-1.7c1-0.5,2-0.9,3-1.3c-0.3,0.7-0.1,1.1,0.5,2.1c0.1,0.2,0.3,0.4,0.4,0.5
		c0.2,0.2,0.3,0.3,0.3,0.7c0,0.2-0.1,0.3-0.3,0.5c-0.3,0.3-0.6,0.7-0.4,1.4c0,0.2,0.2,0.3,0.3,0.2c0.4-0.1,0.7,0,0.8,0.1
		c0.2,0.2,0.2,0.5,0.2,0.9c0,0.4,0.1,0.7,0.2,1.1c-1.6,0.9-3.5,1.9-4.3,2c-1.2,0.3-2,0.8-2.4,1.5C134.5,31.6,134.8,33,135.2,34.2z"
		/>
	<path class="st1" d="M121.8,14.3c0.6,0,1.2-0.5,1.2-1.2c0-0.6-0.5-1.2-1.2-1.2c-0.6,0-1.2,0.5-1.2,1.2
		C120.6,13.8,121.1,14.3,121.8,14.3z"/>
	<circle class="st1" cx="128.9" cy="13.2" r="1.2"/>
	<circle class="st1" cx="126.3" cy="36.6" r="2"/>
	<circle class="st1" cx="126.3" cy="30" r="2"/>
	<path class="st1" d="M129.8,16.7c-0.9,1.5-2.5,2.4-4.3,2.4c-1.8,0-3.4-0.9-4.3-2.5l-0.4,0.2c1,1.6,2.8,2.7,4.7,2.7
		c1.9,0,3.7-1,4.6-2.6L129.8,16.7z"/>
</g>
</svg>
