<?xml version="1.0" encoding="utf-8"?>
<!-- Generator: Adobe Illustrator 16.0.0, SVG Export Plug-In . SVG Version: 6.00 Build 0)  -->
<!DOCTYPE svg PUBLIC "-//W3C//DTD SVG 1.1//EN" "http://www.w3.org/Graphics/SVG/1.1/DTD/svg11.dtd">
<svg version="1.1" id="Layer_1" xmlns="http://www.w3.org/2000/svg" xmlns:xlink="http://www.w3.org/1999/xlink" x="0px" y="0px"
	 width="57.4px" height="13.7px" viewBox="22.2 0.3 57.4 13.7" style="enable-background:new 22.2 0.3 57.4 13.7;"
	 xml:space="preserve">
<style type="text/css">
<![CDATA[
	.st0{fill:#57C5CD;}
]]>
</style>
<g>
	<rect x="22.2" y="6.8" class="st0" width="18.9" height="0.4"/>
	<rect x="60.6" y="6.8" class="st0" width="18.9" height="0.4"/>
	<path class="st0" d="M56.1,3.5c-0.5,0-1.1,0.3-1.7,0.6c-0.5,0.2-0.9,0.4-1.2,0.4h-0.1c0.1-0.1,0.1-0.1,0.2-0.2
		c0.1-0.1,0.2-0.3,0.3-0.5c0.2-0.4,0.4-1.1,0.2-1.7c-0.3-1.2-1.1-1.9-2.4-1.9h-0.1c-0.8,0-2,0.9-2.2,1.6c-0.2,0.5-0.1,1.2,0.1,1.6
		c0.1,0.4,0.4,0.6,0.6,0.8L50,4.4c-0.1,0-0.1,0-0.1,0c-1.6-0.1-3.1,0.9-3.4,2.1c-0.2,0.7,0.1,1.2,0.8,1.5c0.3,0.1,0.8-0.2,1.3-0.5
		c0.3-0.2,0.7-0.4,0.8-0.5c0,0.2-0.1,0.3-0.1,0.5c-0.1,0.1-0.1,0.3-0.2,0.5c-0.1,0.2-0.1,0.3-0.1,0.5c-0.1,0.3-0.1,0.6-0.2,0.9
		c-0.1,0.3-0.2,0.6-0.2,0.9c-0.1,0.2-0.1,0.4-0.1,0.6c-0.1,0.4-0.2,1-0.2,1.5c0.1,0.8,0.8,1.5,1.5,1.5c0.3,0,0.6-0.1,1-0.6
		c0.3-0.3,0.5-0.7,0.8-1.2c0.1-0.2,0.2-0.5,0.3-0.8c0-0.1,0-0.2,0-0.2c0-0.1,0-0.2,0.1-0.3c0.1,0.1,0.2,0.3,0.4,1
		c0,0.1,0.1,0.1,0.1,0.2c0.1,0.1,0.1,0.2,0.1,0.3c0.1,0.4,0.2,0.9,0.6,1.2c0.3,0.3,0.7,0.5,1.1,0.5c0.7,0,1.4-0.5,1.4-1.2
		c0.1-0.5-0.1-1-0.2-1.5L55.4,11c-0.1-0.6-0.2-1.1-0.3-1.6c-0.1-0.5-0.2-1-0.4-1.4l-0.1-0.2c-0.1-0.3-0.1-0.6-0.1-0.7
		c0-0.1,0.1-0.1,0.3-0.2c0.5-0.1,1.7-0.8,2.1-1.1c0.5-0.4,0.2-1.5-0.1-1.9C56.7,3.7,56.5,3.5,56.1,3.5z M47.4,7.7
		c-0.3-0.2-0.7-0.5-0.6-1.1c0.1-0.3,0.3-0.6,0.6-0.9c0.1,0,0.1,0,0.2,0c0.1,0,0.2,0,0.2,0.2c0,0.1,0,0.2-0.1,0.2
		c-0.1,0.1-0.1,0.2,0.1,0.3c0.1,0.1,0.2,0.1,0.2,0.1c0.1,0,0.1,0,0.1,0.1c0.1,0.1,0,0.1-0.1,0.2C48,6.8,48,6.8,47.9,6.9
		c-0.1,0.2,0,0.3,0.1,0.5c0,0.1,0.1,0.1,0.1,0.1C47.8,7.6,47.6,7.7,47.4,7.7z M50.5,13.1c-0.2,0.3-0.5,0.4-0.7,0.4
		c-0.5,0-1-0.6-1.1-1.2c-0.1-0.2,0-0.5,0-0.7h0.1c0.1,0,0.3,0,0.4,0c0.1,0.1,0.1,0.2,0.1,0.4V12c0.2,0.2,0.3,0.1,0.4,0
		c0.1-0.1,0.1-0.1,0.1-0.1c0.2,0.1,0.2,0.2,0.2,0.2s0,0.2,0.2,0.2c0.2,0.1,0.4,0.1,0.6,0.1c0.1-0.1,0.3-0.1,0.3,0l0.1,0.1
		C50.8,12.7,50.6,12.9,50.5,13.1z M51.2,11.9c-0.1,0.2-0.2,0.3-0.2,0.4l-0.1-0.1c-0.1-0.1-0.3-0.1-0.5,0c-0.2,0.1-0.3,0.1-0.5,0
		c-0.1-0.1-0.1-0.1-0.1-0.2c0-0.1-0.1-0.2-0.2-0.2c-0.1-0.1-0.2,0-0.2,0.1c-0.1,0.1-0.2,0.1-0.2,0c0-0.2,0-0.3-0.1-0.5l-0.1-0.1
		c-0.2,0-0.3,0-0.5,0h-0.1c0.1-0.2,0.1-0.3,0.1-0.5c0-0.1,0.1-0.2,0.1-0.3l0,0.1c0.3-0.2,0.4-0.1,0.5,0.2c0.1,0.1,0.1,0.2,0.2,0.3
		c0.2,0.2,0.3,0.2,0.5,0.2c0.2,0,0.3,0,0.3,0.4c0,0,0,0.1,0.1,0.1c0.2,0.1,0.3,0.1,0.5,0C51,11.8,51.2,11.7,51.2,11.9
		C51.3,11.8,51.3,11.9,51.2,11.9z M55.2,12.7c-0.1,0.6-0.6,1-1.1,1c-0.3,0-0.6-0.1-0.8-0.4c-0.3-0.3-0.4-0.7-0.5-1.1v-0.1
		c0.1,0,0.2,0.1,0.3,0.1c0.1,0.1,0.3,0.2,0.4,0.2c0.1,0,0.1,0,0.1,0c0.2-0.1,0.2-0.1,0.2-0.2c0-0.1,0.1-0.1,0.2-0.1
		c0.1,0,0.1,0,0.1,0.1c0.1,0.1,0.2,0.2,0.4,0.1c0,0,0.1,0,0.1-0.1c0.1-0.1,0.1-0.2,0.2-0.3C54.9,12,55,12,55.2,12h0.1
		C55.2,12.2,55.2,12.5,55.2,12.7z M55.1,11.4c0.1,0.2,0.1,0.3,0.1,0.5c-0.1-0.1-0.3-0.1-0.4-0.1h-0.1c-0.1,0.1-0.2,0.2-0.2,0.4
		c-0.1,0-0.2,0-0.2-0.1C54.2,12,54.1,12,54,12c-0.2,0-0.3,0.1-0.3,0.2c0,0.1-0.1,0.1-0.2,0.1c-0.2,0.1-0.3-0.1-0.5-0.1
		C53,12.1,52.9,12,52.7,12c0-0.1,0-0.1-0.1-0.1c0-0.1,0-0.1-0.1-0.2c0-0.1-0.1-0.2-0.1-0.2c0.1,0,0.2,0.1,0.4,0.1
		c0.1,0.1,0.3,0.1,0.5,0.1h0.1c0,0,0.1,0,0.1-0.1c0.1-0.3,0.2-0.3,0.4-0.3c0.1,0.1,0.3,0.1,0.5,0c0.1-0.1,0.2-0.1,0.3-0.2
		C54.8,11,54.9,11,55,11c0,0,0,0.1,0,0.1L55.1,11.4z M56.7,5.6c-0.1,0.1-0.3,0.3-0.6,0.5c0-0.1-0.1-0.1-0.1-0.2s0-0.3-0.1-0.3
		c0,0,0,0,0,0c0,0,0,0.1,0,0.2c0,0.1,0,0.2,0.1,0.3c-0.5,0.2-0.9,0.5-1.1,0.6c-0.3,0.1-0.5,0.2-0.6,0.4c-0.2,0.4-0.2,0.7-0.1,1.1
		l0.1,0.2c0.2,0.5,0.3,1,0.4,1.4c0.1,0.5,0.2,0.9,0.3,1.4c-0.2,0-0.3,0.1-0.4,0.2c-0.1,0.1-0.2,0.1-0.2,0.2c-0.2,0.1-0.3,0.1-0.4,0
		c-0.2-0.1-0.4-0.1-0.6,0.3c-0.1,0-0.2-0.1-0.3-0.1c-0.1-0.1-0.3-0.2-0.5-0.1c-0.2-0.5-0.3-0.8-0.5-0.9L52,10.3
		c-0.1-0.1-0.2-0.1-0.2,0c-0.2,0.2-0.2,0.5-0.2,0.7c0,0.1,0,0.2,0,0.2c-0.1,0.2-0.1,0.3-0.2,0.5c-0.2-0.1-0.3-0.1-0.5-0.1
		c-0.1,0-0.3,0.1-0.4,0c0-0.5-0.2-0.5-0.4-0.5c-0.1,0-0.2,0-0.3-0.1c-0.1-0.1-0.1-0.2-0.2-0.2c-0.2-0.2-0.3-0.4-0.8-0.2
		c0-0.1,0-0.2,0-0.2c0.1-0.3,0.1-0.6,0.2-0.8c0.2-0.3,0.2-0.7,0.3-1c0-0.2,0.1-0.3,0.1-0.5c0.1-0.2,0.1-0.3,0.2-0.4
		c0.1-0.2,0.2-0.4,0.2-0.8c0-0.1-0.1-0.1-0.1-0.1c-0.3-0.2-0.8,0.1-1.3,0.5c-0.1,0-0.1,0.1-0.1,0.1c0-0.1-0.1-0.1-0.1-0.1
		c-0.2-0.1-0.2-0.2-0.2-0.3c0-0.1,0.1-0.1,0.1-0.1c0.1-0.1,0.1-0.2,0.1-0.3c-0.1-0.1-0.2-0.1-0.2-0.1c-0.1,0-0.1,0-0.1,0
		c-0.1-0.1-0.1-0.1-0.1-0.2c0.1-0.1,0.1-0.2,0.1-0.3c-0.1-0.3-0.2-0.3-0.3-0.3c-0.1,0-0.1,0-0.1,0c0.6-0.5,1.4-0.8,2.1-0.8
		c0.1,0,0.1,0,0.2,0c0,0,0.1,0,0.2,0c0.1,0,0.2,0,0.3,0c0.1,0,0.2,0,0.2-0.1c0.1-0.1,0.1-0.2,0-0.2c-0.1-0.2-0.2-0.3-0.4-0.4
		c-0.2-0.2-0.4-0.3-0.5-0.6c-0.1-0.4-0.2-1-0.1-1.5c0.2-0.6,1.2-1.4,1.9-1.4c1.1,0,1.8,0.6,2,1.6c0.1,0.5-0.1,1.2-0.2,1.5
		c-0.1,0.1-0.2,0.2-0.2,0.3c-0.2,0.2-0.3,0.4-0.3,0.6c0.1,0.2,0.3,0.2,0.5,0.2h0.1c0.3,0,0.8-0.2,1.3-0.5c0.3-0.1,0.6-0.2,0.8-0.3
		c-0.1,0.2,0,0.3,0.2,0.6c0.1,0.1,0.1,0.1,0.1,0.1c0.1,0.1,0.1,0.1,0.1,0.2C55.7,5,55.7,5,55.7,5c-0.1,0.1-0.2,0.2-0.1,0.3
		c0,0.1,0.1,0.1,0.1,0.1c0.1,0,0.2,0,0.2,0c-0.1,0-0.1-0.1-0.2-0.1c0-0.1,0.1-0.1,0.1-0.2c0.1-0.1,0.1-0.1,0.1-0.2
		c0-0.2-0.1-0.2-0.1-0.3c0,0-0.1-0.1-0.1-0.1c-0.2-0.3-0.2-0.3-0.1-0.6c0.2-0.1,0.3-0.1,0.5-0.1c0.1,0.1,0.3,0.1,0.4,0.3
		C56.9,4.4,57,5.4,56.7,5.6z"/>
	<path class="st0" d="M55.9,5.4C55.9,5.4,55.9,5.4,55.9,5.4C55.9,5.4,55.9,5.4,55.9,5.4C55.9,5.4,55.9,5.4,55.9,5.4z"/>
	<circle class="st0" cx="51.8" cy="8.6" r="0.5"/>
	<circle class="st0" cx="51.8" cy="6.8" r="0.5"/>
	<circle class="st0" cx="50.7" cy="2.4" r="0.3"/>
	<circle class="st0" cx="52.5" cy="2.4" r="0.3"/>
	<path class="st0" d="M52.8,3.3c-0.2,0.4-0.7,0.6-1.1,0.6c-0.5,0-0.9-0.2-1.1-0.6l-0.1,0.1c0.3,0.5,0.7,0.7,1.2,0.7s1-0.3,1.2-0.7
		L52.8,3.3z"/>
</g>
</svg>
