<?xml version="1.0" encoding="utf-8"?>
<!-- Generator: Adobe Illustrator 16.0.0, SVG Export Plug-In . SVG Version: 6.00 Build 0)  -->
<!DOCTYPE svg PUBLIC "-//W3C//DTD SVG 1.1//EN" "http://www.w3.org/Graphics/SVG/1.1/DTD/svg11.dtd">
<svg version="1.1" id="Layer_1" xmlns="http://www.w3.org/2000/svg" xmlns:xlink="http://www.w3.org/1999/xlink" x="0px" y="0px"
	 width="57.4px" height="11.5px" viewBox="22.2 2 57.4 11.5" style="enable-background:new 22.2 2 57.4 11.5;" xml:space="preserve"
	>
<style type="text/css">
<![CDATA[
	.st0{fill:#00AF99;stroke:#FFFFFF;stroke-width:0.1;stroke-miterlimit:10;}
]]>
</style>
<g>
	<rect x="22.2" y="6.8" class="st0" width="18.9" height="0.4"/>
	<rect x="60.6" y="6.8" class="st0" width="18.9" height="0.4"/>
	<path class="st0" d="M51,6.7c0,0-0.8-1.6-1.5-1.4c-2.1,0.5,1.2,4.5,1.4,4.9c0.4-0.8,3.1-3.6,2.3-4.6C52.7,5,51.4,5.7,51,6.7z"/>
	<path class="st0" d="M47.5,4.4C47.5,4.4,47.5,4.4,47.5,4.4c0.1-0.1,0.2-0.2,0.2-0.2c0,0,0-0.1,0-0.2c0,0-0.1,0-0.2,0
		c-0.1,0.1-0.1,0.1-0.1,0.2C47.3,4.3,47.4,4.4,47.5,4.4C47.4,4.4,47.4,4.4,47.5,4.4z"/>
	<path class="st0" d="M47.5,5.8c0-0.1-0.1-0.1-0.1-0.1c-0.1,0-0.1,0.1-0.1,0.1c0,0.1,0,0.1,0.1,0.2c0,0,0.1,0.1,0.1,0.1c0,0,0,0,0,0
		c0.1,0,0.1-0.1,0.1-0.1C47.5,6,47.5,5.9,47.5,5.8z"/>
	<path class="st0" d="M47.3,5.3c0.1,0,0.1-0.1,0.1-0.1l0-0.1c0-0.1,0-0.1,0-0.2c0-0.1,0-0.1-0.1-0.1c-0.1,0-0.1,0-0.1,0.1
		c0,0.1,0,0.1,0,0.2v0.1C47.2,5.3,47.2,5.3,47.3,5.3L47.3,5.3z"/>
	<path class="st0" d="M48.9,9c0-0.1-0.1-0.1-0.2,0c-0.1,0-0.1,0.1,0,0.2c0,0.1,0.1,0.1,0.1,0.2c0,0,0.1,0.1,0.1,0.1c0,0,0,0,0.1,0
		c0.1,0,0.1-0.1,0-0.2C49,9.1,49,9.1,48.9,9z"/>
	<path class="st0" d="M47.7,6.7c0-0.1-0.1-0.1-0.1-0.1c-0.1,0-0.1,0.1-0.1,0.1c0,0.1,0.1,0.1,0.1,0.2c0,0,0.1,0.1,0.1,0.1
		c0,0,0,0,0,0c0.1,0,0.1-0.1,0.1-0.1C47.8,6.8,47.8,6.7,47.7,6.7z"/>
	<path class="st0" d="M48.1,7.5c0-0.1-0.1-0.1-0.1-0.1c-0.1,0-0.1,0.1-0.1,0.1c0,0.1,0.1,0.1,0.1,0.2c0,0,0.1,0.1,0.1,0.1
		c0,0,0,0,0.1,0c0.1,0,0.1-0.1,0-0.1C48.1,7.6,48.1,7.5,48.1,7.5z"/>
	<path class="st0" d="M48.5,8.3c0-0.1-0.1-0.1-0.2,0c-0.1,0-0.1,0.1,0,0.2c0,0.1,0.1,0.1,0.1,0.2c0,0,0.1,0.1,0.1,0.1c0,0,0,0,0.1,0
		c0.1,0,0.1-0.1,0-0.2C48.6,8.4,48.5,8.3,48.5,8.3z"/>
	<path class="st0" d="M52,4.7C52,4.7,52,4.7,52,4.7c0.1-0.1,0.2-0.1,0.2-0.2c0,0,0.1-0.1,0-0.2c0,0-0.1-0.1-0.2,0
		c-0.1,0-0.1,0.1-0.2,0.1C51.8,4.6,51.8,4.6,52,4.7C51.9,4.7,51.9,4.7,52,4.7z"/>
	<path class="st0" d="M51.3,5.4C51.4,5.4,51.4,5.3,51.3,5.4c0.1-0.1,0.2-0.2,0.2-0.2c0,0,0-0.1,0-0.2c0,0-0.1,0-0.2,0
		c-0.1,0.1-0.1,0.1-0.1,0.2C51.2,5.2,51.2,5.3,51.3,5.4C51.3,5.4,51.3,5.4,51.3,5.4z"/>
	<path class="st0" d="M48.1,3.9C48.1,3.9,48.2,3.9,48.1,3.9c0.1,0,0.2-0.1,0.2-0.1c0.1,0,0.1-0.1,0.1-0.1c0-0.1-0.1-0.1-0.1-0.1
		c-0.1,0-0.2,0-0.2,0.1C48,3.7,48,3.7,48,3.8C48,3.8,48.1,3.9,48.1,3.9z"/>
	<path class="st0" d="M50.7,5.9C50.7,5.9,50.8,6,50.7,5.9c0,0.1,0.1,0.2,0.1,0.2c0,0,0,0,0,0c0,0,0.1,0,0.1-0.1
		C51,6,51,5.9,51.1,5.9c0-0.1,0-0.1,0-0.2c0,0-0.1,0-0.1,0c0,0,0-0.1-0.1-0.1c0-0.1-0.1-0.1-0.1,0c-0.1,0-0.1,0.1,0,0.2
		C50.7,5.8,50.7,5.9,50.7,5.9z"/>
	<path class="st0" d="M52.7,4.2C52.7,4.2,52.7,4.2,52.7,4.2c0.1,0,0.2-0.1,0.2-0.1C53,4.1,53,4,53,4c0-0.1-0.1-0.1-0.1-0.1
		c-0.1,0-0.1,0.1-0.2,0.1C52.6,4,52.6,4.1,52.7,4.2C52.6,4.2,52.7,4.2,52.7,4.2z"/>
	<path class="st0" d="M48.9,3.8c0.1,0,0.1,0.1,0.2,0.1c0,0,0,0,0.1,0c0,0,0.1,0,0.1-0.1c0-0.1,0-0.1,0-0.2c-0.1,0-0.1-0.1-0.2-0.1
		c-0.1,0-0.1,0-0.1,0.1C48.9,3.7,48.9,3.8,48.9,3.8z"/>
	<path class="st0" d="M50.3,5.1C50.3,5.2,50.4,5.2,50.3,5.1c0.1,0,0.1,0,0.2,0c0.1,0,0.1-0.1,0-0.2c0-0.1-0.1-0.1-0.1-0.2
		c0-0.1-0.1-0.1-0.2,0c0,0-0.1,0.1,0,0.2C50.2,5,50.3,5.1,50.3,5.1z"/>
	<path class="st0" d="M49.8,4.4C49.8,4.5,49.8,4.5,49.8,4.4c0.1,0,0.1,0,0.2,0c0,0,0-0.1,0-0.2c-0.1-0.1-0.1-0.1-0.2-0.2
		c0,0-0.1,0-0.2,0c0,0,0,0.1,0,0.2C49.7,4.3,49.7,4.4,49.8,4.4z"/>
	<path class="st0" d="M51.9,10l-0.1,0.2c0,0,0,0.1,0,0.2c0,0,0,0,0.1,0c0,0,0.1,0,0.1,0l0.1-0.2c0,0,0-0.1,0-0.2
		C52,10,51.9,10,51.9,10z"/>
	<path class="st0" d="M53.9,7.1c0,0.1-0.1,0.1-0.1,0.2c0,0.1,0,0.1,0,0.2c0,0,0,0,0.1,0c0,0,0.1,0,0.1-0.1c0-0.1,0.1-0.1,0.1-0.2
		c0-0.1,0-0.1,0-0.2C54,7.1,54,7.1,53.9,7.1z"/>
	<path class="st0" d="M53.9,3.8c0-0.1-0.1-0.1-0.1-0.1c-0.1,0-0.2,0-0.2,0c-0.1,0-0.1,0.1-0.1,0.1c0,0.1,0.1,0.1,0.1,0.1
		c0,0,0,0,0,0c0.1,0,0.1,0,0.2,0C53.8,3.9,53.9,3.8,53.9,3.8z"/>
	<path class="st0" d="M54.3,6.3c0,0.1-0.1,0.1-0.1,0.2c0,0.1,0,0.1,0,0.1c0,0,0,0,0,0c0,0,0.1,0,0.1-0.1c0-0.1,0.1-0.1,0.1-0.2
		c0-0.1,0-0.1-0.1-0.1C54.4,6.3,54.4,6.3,54.3,6.3z"/>
	<path class="st0" d="M54.6,4c-0.1-0.1-0.1-0.1-0.2-0.2c-0.1,0-0.1,0-0.2,0c0,0.1,0,0.1,0,0.2c0.1,0,0.1,0.1,0.1,0.1
		c0,0,0.1,0,0.1,0c0,0,0.1,0,0.1,0C54.7,4.1,54.7,4.1,54.6,4z"/>
	<path class="st0" d="M53.5,7.9c0,0.1-0.1,0.1-0.1,0.2c0,0,0,0.1,0,0.2c0,0,0,0,0.1,0c0,0,0.1,0,0.1,0c0-0.1,0.1-0.1,0.1-0.2
		c0-0.1,0-0.1,0-0.2C53.6,7.8,53.5,7.8,53.5,7.9z"/>
	<path class="st0" d="M54.8,4.6c-0.1,0-0.1,0.1-0.1,0.1c0,0.1,0,0.1,0,0.2c0,0.1,0,0.1,0.1,0.1S55,5,55,4.9c0-0.1,0-0.2,0-0.2
		C54.9,4.6,54.9,4.6,54.8,4.6z"/>
	<path class="st0" d="M54.8,5.5c-0.1,0-0.1,0-0.1,0.1c0,0.1,0,0.1-0.1,0.2c0,0.1,0,0.1,0.1,0.1c0,0,0,0,0,0c0,0,0.1,0,0.1-0.1
		c0-0.1,0-0.1,0.1-0.2C54.9,5.5,54.8,5.5,54.8,5.5z"/>
	<path class="st0" d="M53,8.6c0,0.1-0.1,0.1-0.1,0.2c0,0,0,0.1,0,0.2c0,0,0,0,0.1,0c0,0,0.1,0,0.1,0c0-0.1,0.1-0.1,0.1-0.2
		c0,0,0-0.1,0-0.2C53.1,8.6,53,8.6,53,8.6z"/>
	<path class="st0" d="M49.4,9.8c0-0.1-0.1-0.1-0.2,0c-0.1,0-0.1,0.1,0,0.2l0.1,0.2c0,0,0.1,0,0.1,0c0,0,0,0,0.1,0
		c0.1,0,0.1-0.1,0-0.2L49.4,9.8z"/>
	<path class="st0" d="M49.9,10.5c0-0.1-0.1-0.1-0.2,0c0,0-0.1,0.1,0,0.2l0.1,0.2c0,0,0.1,0,0.1,0c0,0,0,0,0.1,0c0,0,0.1-0.1,0-0.2
		L49.9,10.5z"/>
	<path class="st0" d="M50.8,11.5c0,0.1-0.1,0.1-0.1,0.2c0,0.1,0,0.1,0,0.2c0,0,0,0,0.1,0c0,0,0.1,0,0.1-0.1c0-0.1,0.1-0.1,0.1-0.2
		c0-0.1,0-0.1,0-0.2C50.9,11.4,50.9,11.4,50.8,11.5z"/>
	<path class="st0" d="M50.4,11.2c0-0.1-0.1-0.1-0.2,0c-0.1,0-0.1,0.1,0,0.2c0,0.1,0.1,0.1,0.1,0.2c0,0,0.1,0,0.1,0c0,0,0,0,0.1,0
		c0,0,0.1-0.1,0-0.2C50.5,11.4,50.5,11.3,50.4,11.2z"/>
	<path class="st0" d="M51.4,10.8l-0.1,0.2c0,0,0,0.1,0,0.2c0,0,0,0,0.1,0c0,0,0.1,0,0.1,0l0.1-0.2c0,0,0-0.1,0-0.2
		C51.5,10.7,51.4,10.7,51.4,10.8z"/>
	<path class="st0" d="M52.4,9.3l-0.1,0.2c0,0,0,0.1,0,0.2c0,0,0,0,0.1,0c0,0,0.1,0,0.1,0l0.1-0.2c0,0,0-0.1,0-0.2S52.5,9.3,52.4,9.3
		z"/>
	<path class="st0" d="M54.4,2.2c-1.2,0-2.7,0.8-3.5,2.2C50.6,3.2,49.4,2,48.1,2c-0.2,0-0.4,0-0.6,0.1c-0.8,0.2-1.3,0.6-1.5,1.2
		c-0.9,2.3,2.3,6.8,3.8,9c0.4,0.5,0.6,0.9,0.7,1.1c0,0,0.1,0.1,0.1,0.1c0,0,0,0,0,0c0,0,0.1,0,0.1-0.1c0.3-0.5,0.8-1.2,1.5-2.1
		c2.2-2.8,5.1-6.7,3.7-8.5C55.6,2.4,55.1,2.2,54.4,2.2z M52,11.1c-0.6,0.8-1.1,1.5-1.4,2c-0.1-0.2-0.3-0.5-0.6-0.9
		c-1.5-2.1-4.6-6.6-3.8-8.8c0.2-0.6,0.7-0.9,1.4-1.1c0.2,0,0.3-0.1,0.5-0.1c1.3,0,2.5,1.3,2.7,2.5c0,0.1,0.1,0.1,0.1,0.1
		c0.1,0,0.1,0,0.1-0.1c0.7-1.6,2.3-2.4,3.4-2.4c0.6,0,1,0.2,1.3,0.5C57,4.5,54,8.5,52,11.1z"/>
</g>
</svg>
