<?xml version="1.0" encoding="utf-8"?>
<!-- Generator: Adobe Illustrator 16.0.0, SVG Export Plug-In . SVG Version: 6.00 Build 0)  -->
<!DOCTYPE svg PUBLIC "-//W3C//DTD SVG 1.1//EN" "http://www.w3.org/Graphics/SVG/1.1/DTD/svg11.dtd">
<svg version="1.1" id="Layer_1" xmlns="http://www.w3.org/2000/svg" xmlns:xlink="http://www.w3.org/1999/xlink" x="0px" y="0px"
	 width="297px" height="96.8px" viewBox="0 0 297 96.8" style="enable-background:new 0 0 297 96.8;" xml:space="preserve">
<style type="text/css">
<![CDATA[
	.st0{fill:#ED1164;}
	.st1{fill:#70002E;}
]]>
</style>
<g>
	<path class="st0" d="M64.1,82.5h2c0.3,0,0.4,0.5,0.4,2.2v3.8l1.2-1.3l3.3-4.8l1.7,0.1l-3.8,5.2c1.7,3,2.7,4.5,3.1,4.5
		c0.3,0,0.9-0.2,0.9-0.2l0.2,1.1c0,0-0.9,0.4-1.7,0.4c-0.7,0-1.9-1.7-3.5-4.7L66.5,90v3.4l-1.6,0.1v-8.6c0-0.8,0-1.2-0.1-1.2
		c-0.2-0.1-0.7-0.1-0.7-0.1V82.5z"/>
	<path class="st0" d="M77.5,84.8c2,0,3.7,1.6,3.7,4.4c0,2.7-1.6,4.5-3.7,4.5c-2,0-3.6-1.6-3.6-4.4C73.9,86.6,75.5,84.8,77.5,84.8z
		 M77.5,92.5c1.2,0,2.1-1.2,2.1-3.2c0-2-1-3.3-2.2-3.3c-1.2,0-2.1,1.2-2.1,3.2C75.3,91.2,76.3,92.5,77.5,92.5z"/>
	<path class="st0" d="M82.4,85c0,0,1.3-0.1,1.8-0.1c0.4,0,0.4,0.3,0.4,1.5c0,0.7,0,1.4,0,2.1c0.8-0.1,1.9-0.2,3.2-0.2
		c0-1.1,0-2.2,0-3.3l1.5-0.1c0,2.2-0.1,4.3-0.1,6.5c0,0.8,0.1,1,0.4,1c0.1,0,0.6-0.1,0.6-0.1v0.8c0,0-0.6,0.4-1.2,0.4
		c-0.9,0-1.1-0.5-1.1-1.9v-2.3c-0.8,0.1-1.9,0.2-3.2,0.2c0,1.3,0,2.6,0,3.8l-1.5,0.1c0-2.3,0-4.6,0-6.9c0-0.3,0-0.6-0.1-0.6
		C82.9,86,82.4,86,82.4,86L82.4,85z"/>
	<path class="st0" d="M92.2,92.3c0.6-1.7,1-3.5,1.2-6c-0.5,0-0.9-0.3-0.9-0.3l0-1l3.6-0.1c1.6,0,2.1,0.5,2.1,1.4l0.4,5.9h1.2l0,0h0
		c0,2.4-0.3,4.4-0.3,4.4l-1.2,0c0,0,0.2-1.6,0.2-3.3h-5.8v2.8c-0.4,0.1-1.2,0.2-1.2,0.2l-0.1-4.2H92.2z M97.1,92.3l-0.4-5.5
		c0-0.4-0.2-0.6-0.9-0.6c-0.5,0-0.8,0-1.1,0c-0.3,2.4-0.6,4.2-1.2,6.1H97.1z"/>
	<path class="st0" d="M100.6,85c0,0,1.3-0.1,1.8-0.1c0.4,0,0.4,0.3,0.4,1.5l-0.1,4.7c0.5-0.8,1.1-1.6,1.3-2l2.7-4.1l0.7,0
		c0,0-0.1,4.3-0.1,6.5c0,0.8,0.1,1,0.4,1c0.1,0,0.6-0.1,0.6-0.1v0.8c0,0-0.6,0.4-1.2,0.4c-0.9,0-1.1-0.5-1.1-1.9
		c0-1.4,0.1-2.7,0.1-4.1c-0.4,0.7-0.9,1.4-1.3,2l-2.7,3.8l-0.8,0.1c0-2.3,0-4.6,0-6.9c0-0.3,0-0.6-0.1-0.6c-0.2-0.1-0.7-0.1-0.7-0.1
		L100.6,85z"/>
	<path class="st0" d="M109.2,85h6.4v1c0,0-1,0.2-2.6,0.2c0,1.8-0.1,3.5-0.1,5.3c0,0.7,0.1,1,0.3,1c0.2,0,0.6-0.1,0.6-0.1v0.8
		c0,0-0.6,0.4-1.2,0.4c-0.8,0-1.1-0.5-1.1-1.9c0-1.8,0-3.7,0-5.5c-1.2,0-2.3-0.2-2.3-0.2L109.2,85z"/>
	<path class="st0" d="M120,84.8c1.4,0,2.7,0.8,2.7,2.4c0,1.7-1.4,2.8-3.8,2.8c-0.6,0-1-0.1-1.2-0.2c0,1.6,1.1,2.6,2.4,2.6
		c1.2,0,2.1-0.7,2.1-0.7l0.4,0.9c0,0-0.9,1-2.7,1c-2.1,0-3.6-1.6-3.6-4.1C116.2,86.7,118,84.8,120,84.8z M118.5,89.1
		c1.8,0,2.8-0.6,2.8-1.8c0-0.9-0.6-1.5-1.4-1.5c-1.2,0-2.2,1.2-2.2,3.2C117.8,89.1,118.1,89.1,118.5,89.1z"/>
	<path class="st0" d="M123.8,86l0-0.9c0,0,1.6-0.1,1.9-0.1c0.3,0,0.3,0.4,0.3,0.9v0.7h0.1c0,0,0.6-1.7,2.4-1.7
		c1.7,0,2.8,1.7,2.8,4.2c0,2.6-1.4,4.6-4.2,4.6c-0.5,0-0.8,0-1.2-0.1c0,1.3,0,2.7,0,4l-1.5,0.1c0-3.7,0.1-7.4,0.1-11.1
		C124.6,85.8,124.6,86.1,123.8,86z M127.5,92.6c1.7,0,2.5-1.4,2.5-3.3c0-1.9-0.8-3-1.9-3c-1.2,0-1.9,1.2-1.9,1.2l-0.1,4.9
		C126.5,92.5,127,92.6,127.5,92.6z"/>
	<path class="st0" d="M136.5,84.8c1,0,1.9,0.4,1.9,0.4c0,0.4-0.1,1.2-0.1,1.2s-0.8-0.3-1.7-0.3c-1.6,0-2.6,1.2-2.6,3.2
		c0,2,1.1,3.3,2.4,3.3c1.2,0,2.1-0.8,2.1-0.8l0.4,0.8c0,0-1,1.2-2.8,1.2c-2,0-3.6-1.6-3.6-4.2C132.5,86.6,134.2,84.8,136.5,84.8z"/>
	<path class="st0" d="M139.9,85c0,0,1.2-0.1,1.7-0.1c0.5,0,0.6,0.6,0.6,1.5c0,0.9,0,1.8,0,2.6l0.9-0.8l2.7-3.4l1.6,0.1l-3.2,3.7
		c1.2,2.3,2.2,3.9,2.7,3.9c0.2,0,0.6-0.1,0.6-0.1v0.8c0,0-0.5,0.3-1.3,0.3c-0.8,0-1.8-1.4-3.1-4l-0.9,0.6v3.2l-1.5,0.1
		c0-2.3,0-4.6,0-6.9c0-0.4,0-0.6-0.1-0.6c-0.2-0.1-0.7-0.1-0.7-0.1L139.9,85z"/>
	<path class="st0" d="M151.2,88.4c0.7,0,1.3,0.1,1.8,0.2v-0.8c0-1.2-0.4-1.8-1.8-1.8c-0.9,0-2,0.2-2,0.2l0-1c0,0,1.1-0.4,2.4-0.4
		c2.3,0,2.8,1.2,2.8,2.8c0,1.6-0.1,2.4-0.1,3.9c0,0.7,0.1,1,0.3,1c0.2,0,0.6-0.1,0.6-0.1v0.8c0,0-0.6,0.4-1.2,0.4
		c-0.8,0-1.1-0.5-1.1-1.9h0c0,0-0.5,1.9-2.4,1.9c-1.2,0-2.3-0.8-2.3-2.5C148.3,89.4,149.6,88.4,151.2,88.4z M151.1,92.5
		c1.1,0,1.7-1,1.9-1.7c0-0.6,0-1.1,0-1.6c-0.5-0.1-1.1-0.2-1.5-0.2c-1.1,0-1.8,0.7-1.8,1.8C149.7,91.9,150.3,92.5,151.1,92.5z"/>
	<path class="st0" d="M158.9,89.9c-1-0.3-1.7-1.1-1.7-2.3c0-1.7,1.2-2.8,3.4-2.8c1.1,0,2.6,0.2,2.6,0.2s-0.1,4.3-0.1,6.5
		c0,0.8,0.1,1,0.4,1c0.1,0,0.6-0.1,0.6-0.1v0.8c0,0-0.7,0.4-1.2,0.4c-0.9,0-1.1-0.5-1.1-1.9v-1.8c-0.5,0.1-1,0.2-1.5,0.2H160
		l-1.5,3.4l-1.5-0.1L158.9,89.9z M160.1,89.2c0.4,0,1-0.1,1.5-0.1c0-1,0-2.1,0-3.1c-0.4-0.1-0.8-0.1-1.2-0.1c-1.2,0-1.9,0.8-1.9,1.7
		C158.5,88.6,159.1,89.2,160.1,89.2z"/>
	<g>
		<path class="st0" d="M175.5,84.8c0.2,0,0.3,0,0.5,0c0-1.3,0-2.6,0-4l1.4-0.1c0,1.6,0,3.2,0,4.9h0.1c0,0,0.3-0.8,1.3-0.8
			c1.5,0,2.8,1.6,2.8,4.3c0,3-1.8,4.6-3.8,4.6c-0.2,0-0.3,0-0.4,0v4l-1.4,0.1v-4.8h0c0,0-0.3,0.8-1.4,0.8c-1.5,0-2.8-1.6-2.8-4.2
			C171.8,86.4,173.5,84.8,175.5,84.8z M175.2,92.3c0.3,0,0.6-0.1,0.7-0.2c0-2.1,0-4.1,0-6.2c-0.2,0-0.3-0.1-0.5-0.1
			c-1.4,0-2.3,1.2-2.3,3.3C173.2,91.2,174.1,92.3,175.2,92.3z M177.8,92.6c1.4,0,2.4-1.2,2.4-3.3c0-1.9-0.9-3.1-2.1-3.1
			c-0.3,0-0.6,0.1-0.7,0.2l-0.1,6.2C177.5,92.6,177.6,92.6,177.8,92.6z"/>
		<path class="st0" d="M185.7,88.4c0.7,0,1.3,0.1,1.8,0.2v-0.8c0-1.2-0.4-1.8-1.8-1.8c-0.9,0-2,0.2-2,0.2l0-1c0,0,1.1-0.4,2.4-0.4
			c2.3,0,2.8,1.2,2.8,2.8c0,1.6-0.1,2.4-0.1,3.9c0,0.7,0.1,1,0.3,1c0.2,0,0.6-0.1,0.6-0.1v0.8c0,0-0.6,0.4-1.2,0.4
			c-0.8,0-1.1-0.5-1.1-1.9h0c0,0-0.5,1.9-2.4,1.9c-1.2,0-2.3-0.8-2.3-2.5C182.7,89.4,184,88.4,185.7,88.4z M185.6,92.5
			c1.1,0,1.7-1,1.9-1.7c0-0.6,0-1.1,0-1.6c-0.5-0.1-1.1-0.2-1.5-0.2c-1.1,0-1.8,0.7-1.8,1.8C184.1,91.9,184.8,92.5,185.6,92.5z"/>
		<path class="st0" d="M195.2,81.8c1.8-0.2,2.2-1,2.2-1l1,0.2c0,0-0.5,2-3,2.2c-1.5,0.2-2.6,1.3-2.8,4.3h0.1c0,0,0.7-1.5,2.7-1.5
			c1.6,0,2.8,1.4,2.8,3.5c0,2.2-1.4,4.2-3.7,4.2c-2.1,0-3.4-1.9-3.4-4.9C191.1,84.3,193,82.1,195.2,81.8z M194.7,92.4
			c1.2,0,1.9-1.2,1.9-2.8c0-1.6-0.8-2.4-1.9-2.4c-1,0-1.8,0.6-2.1,0.9v0.2C192.6,91.2,193.5,92.4,194.7,92.4z"/>
		<path class="st0" d="M199.4,86l0-0.9c0,0,1.6-0.1,1.9-0.1c0.3,0,0.3,0.4,0.3,0.9v0.7h0.1c0,0,0.6-1.7,2.4-1.7
			c1.7,0,2.8,1.7,2.8,4.2c0,2.6-1.4,4.6-4.2,4.6c-0.5,0-0.8,0-1.2-0.1c0,1.3,0,2.7,0,4l-1.5,0.1c0-3.7,0.1-7.4,0.1-11.1
			C200.2,85.8,200.2,86.1,199.4,86z M203,92.6c1.7,0,2.5-1.4,2.5-3.3c0-1.9-0.8-3-1.9-3c-1.2,0-1.9,1.2-1.9,1.2l-0.1,4.9
			C202,92.5,202.5,92.6,203,92.6z"/>
		<path class="st0" d="M208.2,85c0,0,1.3-0.1,1.8-0.1c0.4,0,0.4,0.3,0.4,1.5l-0.1,4.7c0.5-0.8,1.1-1.6,1.3-2l2.7-4.1l0.7,0
			c0,0-0.1,4.3-0.1,6.5c0,0.8,0.1,1,0.4,1c0.1,0,0.6-0.1,0.6-0.1v0.8c0,0-0.6,0.4-1.2,0.4c-0.9,0-1.1-0.5-1.1-1.9
			c0-1.4,0.1-2.7,0.1-4.1c-0.4,0.7-0.9,1.4-1.3,2l-2.7,3.8l-0.8,0.1c0-2.3,0-4.6,0-6.9c0-0.3,0-0.6-0.1-0.6
			c-0.2-0.1-0.7-0.1-0.7-0.1L208.2,85z"/>
		<path class="st0" d="M217.5,85c0,0,1.2-0.1,1.7-0.1c0.5,0,0.6,0.6,0.6,1.5c0,0.9,0,1.8,0,2.6l0.9-0.8l2.7-3.4l1.6,0.1l-3.2,3.7
			c1.2,2.3,2.2,3.9,2.7,3.9c0.2,0,0.6-0.1,0.6-0.1v0.8c0,0-0.5,0.3-1.3,0.3c-0.8,0-1.8-1.4-3.1-4l-0.9,0.6v3.2l-1.5,0.1
			c0-2.3,0-4.6,0-6.9c0-0.4,0-0.6-0.1-0.6c-0.2-0.1-0.7-0.1-0.7-0.1L217.5,85z"/>
		<path class="st0" d="M228.8,88.4c0.7,0,1.3,0.1,1.8,0.2v-0.8c0-1.2-0.4-1.8-1.8-1.8c-0.9,0-2,0.2-2,0.2l0-1c0,0,1.1-0.4,2.4-0.4
			c2.3,0,2.8,1.2,2.8,2.8c0,1.6-0.1,2.4-0.1,3.9c0,0.7,0.1,1,0.3,1c0.2,0,0.6-0.1,0.6-0.1v0.8c0,0-0.6,0.4-1.2,0.4
			c-0.8,0-1.1-0.5-1.1-1.9h0c0,0-0.5,1.9-2.4,1.9c-1.2,0-2.3-0.8-2.3-2.5C225.8,89.4,227.1,88.4,228.8,88.4z M228.7,92.5
			c1.1,0,1.7-1,1.9-1.7c0-0.6,0-1.1,0-1.6c-0.5-0.1-1.1-0.2-1.5-0.2c-1.1,0-1.8,0.7-1.8,1.8C227.2,91.9,227.9,92.5,228.7,92.5z"/>
	</g>
</g>
<g>
	<path class="st1" d="M60.1,15.3c-0.9-2.8-3.8-4.9-6.8-4.9h-1.7c-3,0-5.9,2.1-6.8,4.9L38,36.7c-0.5,1.5,0.3,3.1,1.8,3.5
		c0.3,0.1,0.6,0.1,0.9,0.1c1.2,0,2.3-0.8,2.7-2L50.2,17c0.2-0.5,0.9-1,1.4-1h1.7c0.5,0,1.3,0.6,1.4,1l6.8,21.4
		c0.5,1.5,2.1,2.3,3.5,1.8c1.5-0.5,2.3-2.1,1.8-3.5L60.1,15.3z"/>
	<path class="st1" d="M131.7,34.8h-1.4l-6.2-19.4c-0.9-2.8-3.8-4.9-6.8-4.9h-1.7c-3,0-5.9,2.1-6.8,4.9l-6.2,19.4h-1.4
		c-1.6,0-2.8,1.3-2.8,2.8v4.3c0,1.6,1.3,2.8,2.8,2.8s2.8-1.3,2.8-2.8v-1.5h24.2c0,0,0,0,0,0s0,0,0,0h0.6v1.5c0,1.6,1.3,2.8,2.8,2.8
		c1.6,0,2.8-1.3,2.8-2.8v-4.3C134.5,36,133.2,34.8,131.7,34.8z M114.2,17c0.2-0.5,0.9-1,1.4-1h1.7c0.5,0,1.3,0.6,1.4,1l5.7,17.7
		h-15.9L114.2,17z"/>
	<path class="st1" d="M264.9,34.8h-1.3V16.9c0-1.2,0.1-2.4,0.9-3.2c0.9-0.9,1.6-1.3,1.3-2.2c-0.3-0.7-1.3-1-3.1-0.4
		c-0.5-0.5-1.2-0.8-1.9-0.8s-1.4,0.3-1.9,0.8c-1.7-0.6-2.8-0.3-3.1,0.4c-0.4,0.9,0.4,1.3,1.3,2.2c0.8,0.8,0.9,2,0.9,3.2v17.9h-15.6
		v-18c0-1.1,0.1-2.3,0.9-3c0.9-0.9,1.6-1.3,1.3-2.2c-0.3-0.7-1.3-1-3.1-0.4c-0.5-0.5-1.2-0.8-1.9-0.8c-0.7,0-1.4,0.3-1.9,0.8
		c-1.7-0.6-2.8-0.3-3.1,0.4c-0.4,0.9,0.4,1.3,1.3,2.2c0.9,0.9,0.9,2.4,0.9,3.7h0v20.1c0,1.6,1.3,2.8,2.8,2.8h21.2h1.3v1.5
		c0,1.6,1.3,2.8,2.8,2.8s2.8-1.3,2.8-2.8v-4.3C267.7,36,266.5,34.8,264.9,34.8z"/>
	<path class="st1" d="M193.9,11.1c-0.5-0.5-1.2-0.8-1.9-0.8s-1.4,0.3-1.9,0.8c-1.7-0.6-2.8-0.3-3.1,0.4c-0.4,0.9,0.4,1.3,1.3,2.2
		c0.8,0.8,0.9,2,0.9,3.2v6.5h-15.6v-6.6c0-1.1,0.1-2.4,0.9-3.1c0.9-0.9,1.6-1.3,1.3-2.2c-0.3-0.7-1.3-1-3.1-0.4
		c-0.5-0.5-1.2-0.8-1.9-0.8c-0.7,0-1.4,0.3-1.9,0.8c-1.7-0.6-2.8-0.3-3.1,0.4c-0.4,0.9,0.4,1.3,1.3,2.2c0.9,0.9,0.9,2.4,0.9,3.7h0
		v20.1c0,1.6,1.3,2.8,2.8,2.8c1.6,0,2.8-1.3,2.8-2.8v-8.5h15.6v8.5c0,1.6,1.3,2.8,2.8,2.8c1.5,0,2.8-1.3,2.8-2.8V16.9
		c0-1.2,0.1-2.4,0.9-3.2c0.9-0.9,1.6-1.3,1.3-2.2C196.7,10.8,195.7,10.5,193.9,11.1z"/>
	<path class="st1" d="M35.8,28.3c-1.2-0.9-3-0.7-3.9,0.6c-2.8,3.7-7,5.9-11.7,5.9c-8,0-14.6-6.5-14.6-14.6S12.2,5.6,20.2,5.6
		c3.4,0,6.5,1.1,9.1,3.2c0.9,0.8,1.8,1.8,1.8,3c0,1.3-0.2,2.1,0.7,2.5c0.6,0.3,1.6-0.2,2.3-1.7c0.6,0,1.2-0.2,1.7-0.5
		c0.8-0.6,1.2-1.5,1.1-2.4C38.5,8.9,39,8,38.7,7.3c-0.4-0.9-1.2-0.7-2.5-0.7c-1.2,0-2.2-1.1-3.1-1.9c0,0,0,0,0,0c0,0,0,0-0.1,0l0,0
		C29.5,1.6,25,0,20.2,0C9.1,0,0,9.1,0,20.2c0,11.1,9.1,20.2,20.2,20.2c6.3,0,12.4-3,16.2-8.1C37.3,31,37,29.3,35.8,28.3z"/>
	<path class="st1" d="M160.6,11.1c-0.3-0.3-0.8-0.5-1.2-0.7c-0.2,0-0.4-0.1-0.6-0.1c-0.1,0-0.1,0-0.2,0c-0.1,0-0.2,0-0.4,0
		c-0.6,0.1-1.1,0.3-1.5,0.7c-1.8-0.6-2.8-0.3-3.1,0.3c-0.4,0.9,0.4,1.4,1.3,2.2c0.4,0.4,0.4,1.2,0.2,2.1l-4.3,18.1v0l-0.2,0.9h-4.8
		c-0.5,0-1.3-0.6-1.4-1l-5.2-16.3h0c-0.3-1.3-1.2-3-0.5-3.7c0.9-0.9,1.6-1.3,1.3-2.2c-0.3-0.7-1.4-1-3.2-0.3c-0.7-0.7-1.8-1-2.8-0.7
		c-0.4,0.1-0.7,0.3-1,0.6c-1.7-0.6-2.7-0.3-3,0.4c-0.4,0.9,0.4,1.3,1.3,2.2c0.9,0.9,1.4,1.8,2,3.7l5.8,18c0.9,2.8,3.8,4.9,6.8,4.9
		h3.5l-1.7,6.9c-0.4,1.5,0.6,3,2.1,3.4c0.2,0.1,0.4,0.1,0.7,0.1c1.4,0,2.4-0.9,2.7-2.2l7.5-31.2l0,0c0.5-1.9,0.8-2.8,1.8-3.7
		c0.9-0.9,1.6-1.3,1.3-2.2C163.4,10.8,162.3,10.5,160.6,11.1z"/>
	<path class="st1" d="M82.9,10.4c-8.3,0-15,6.7-15,15c0,8.3,6.7,15,15,15c3.5,0,6.4-1.3,7.8-2.6c0,1.1,1.1,2.6,2.8,2.6
		c1.6,0,2.8-1.3,2.8-2.8V19.4c0-0.5-0.1-1-0.4-1.4C93.4,13.3,88.3,10.4,82.9,10.4z M90.8,31c0,0-3,3.7-7.8,3.7
		c-5.2,0-9.4-4.2-9.4-9.4c0-5.2,4.2-9.4,9.4-9.4c3.2,0,6.1,1.6,7.8,4.2V31z"/>
	<path class="st1" d="M283.6,10.4c-8.3,0-15,6.7-15,15c0,8.3,6.7,15,15,15c3.5,0,6.4-1.3,7.8-2.6c0,1.1,1.1,2.6,2.8,2.6
		c1.6,0,2.8-1.3,2.8-2.8V19.4c0-0.5-0.1-1-0.4-1.4C294,13.3,289,10.4,283.6,10.4z M291.4,31c0,0-3,3.7-7.8,3.7
		c-5.2,0-9.4-4.2-9.4-9.4c0-5.2,4.2-9.4,9.4-9.4c3.2,0,6.1,1.6,7.8,4.2V31z"/>
	<path class="st1" d="M224.5,31c0,0-3,3.7-7.8,3.7c-5.2,0-9.4-4.2-9.4-9.4v-8.5c0-1.1,0.1-2.4,0.9-3.1c0.9-0.9,1.6-1.3,1.3-2.2
		c-0.3-0.7-1.3-1-3.1-0.4c-0.5-0.5-1.2-0.8-1.9-0.8s-1.4,0.3-1.9,0.8c-1.7-0.6-2.8-0.3-3.1,0.4c-0.4,0.9,0.4,1.3,1.3,2.2
		c0.9,0.9,0.9,2.4,0.9,3.7h0v7.9c0,8.3,6.7,15,15,15c3.5,0,6.4-1.3,7.8-2.6c0,1.1,1.1,2.6,2.8,2.6c1.6,0,2.8-1.3,2.8-2.8l0-20.8
		c0-1.1,0.1-2.3,0.9-3.1c0.9-0.9,1.6-1.3,1.3-2.2c-0.3-0.7-1.3-1-3.1-0.4c-0.5-0.5-1.2-0.8-1.9-0.8s-1.4,0.3-1.9,0.8
		c-1.7-0.6-2.8-0.3-3.1,0.4c-0.4,0.9,0.4,1.3,1.3,2.2c0.9,0.9,0.9,2.4,0.9,3.7V31z"/>
</g>
</svg>
