<?xml version="1.0" encoding="utf-8"?>
<!-- Generator: Adobe Illustrator 16.0.0, SVG Export Plug-In . SVG Version: 6.00 Build 0)  -->
<!DOCTYPE svg PUBLIC "-//W3C//DTD SVG 1.1//EN" "http://www.w3.org/Graphics/SVG/1.1/DTD/svg11.dtd">
<svg version="1.1" id="Layer_1" xmlns="http://www.w3.org/2000/svg" xmlns:xlink="http://www.w3.org/1999/xlink" x="0px" y="0px"
	 width="14.7px" height="14.7px" viewBox="0 0 14.7 14.7" style="enable-background:new 0 0 14.7 14.7;" xml:space="preserve">
<style type="text/css">
<![CDATA[
	.st0{fill:#E50E63;}
]]>
</style>
<path class="st0" d="M13.6,3.5C12.6,1.9,11,0.7,9,0.2C7-0.3,5.1,0.1,3.5,1.1c-1.6,1-2.8,2.6-3.3,4.6c-0.5,2-0.1,3.9,0.9,5.5
	c1,1.6,2.6,2.8,4.6,3.3c2,0.5,3.9,0.1,5.5-0.9c1.6-1,2.8-2.6,3.3-4.6C15,7,14.6,5.1,13.6,3.5z M9.1,6.7C9,6.2,8.8,6,8.6,5.8
	C8.4,5.7,8.1,5.6,7.9,5.6c-0.2,0-0.5,0.1-0.7,0.2C7,6,6.9,6.1,6.7,6.3C6.8,6,7.1,5.7,7.4,5.5C7.6,5.4,7.8,5.4,8,5.3
	c0.2,0,0.4,0,0.6,0.2c0.2,0.2,0.4,0.4,0.5,0.8c0,0.1,0,0.2,0,0.3c0,0.2,0,0.4-0.1,0.7c0-0.1,0-0.2,0-0.3C9.2,6.8,9.1,6.8,9.1,6.7z
	 M10.4,7.3c0,0.6-0.1,1.1-0.4,1.5c-0.2,0.5-0.6,0.9-1,1.3c-0.3,0.3-0.6,0.5-0.9,0.6C7.4,11,6.6,11,5.9,10.8C5.2,10.6,4.5,10.1,4,9.5
	C3.6,9.1,3.3,8.7,3.1,8.2C2.7,7.3,2.6,6.5,2.7,5.7c0.1-0.8,0.4-1.5,0.9-2c0.2-0.3,0.5-0.6,0.8-0.8C4.2,3.1,4,3.2,3.9,3.4
	C3.4,4,3.1,4.7,3,5.4C2.9,6.2,3,7,3.4,7.8c0.2,0.5,0.5,0.9,0.8,1.3c0.5,0.6,1.2,1,1.9,1.2c0.7,0.2,1.4,0.2,2.1-0.1
	C8.5,10.1,8.8,9.9,9,9.7c0.4-0.4,0.8-0.8,1-1.2c0.2-0.4,0.3-0.8,0.3-1.3C10.4,7.2,10.4,7.3,10.4,7.3z M5.6,6.8C5.7,7,5.8,7.2,6,7.3
	c0.2,0.1,0.4,0.2,0.6,0.3c0.2,0,0.5,0,0.7,0c0.2,0,0.3-0.1,0.3-0.2c0.1-0.1,0.1-0.1,0.1-0.2c0,0.2-0.1,0.4-0.2,0.6
	C7.5,7.8,7.3,7.9,7.2,8C7,8,6.7,8,6.5,8C6.3,7.9,6,7.8,5.8,7.7C5.7,7.6,5.5,7.4,5.4,7.1c-0.1-0.2-0.1-0.4,0-0.7
	c0-0.3,0.2-0.6,0.4-0.9C5.7,5.8,5.6,6,5.6,6.1C5.6,6.4,5.6,6.6,5.6,6.8z M5.5,3.5c0.7-0.6,1.6-0.9,2.6-0.7c1.1,0.2,1.9,0.5,2.5,1.1
	c0.6,0.6,1,1.4,1.1,2.5c0,0.1,0,0.2,0,0.2c-0.2-1.1-0.5-1.9-1.1-2.5C9.9,3.5,9.1,3.1,8,3C7,2.8,6.1,3.1,5.3,3.7C5.2,3.8,5,4,4.8,4.2
	C5,3.9,5.3,3.7,5.5,3.5z M0.5,5.7c0.4-1.9,1.6-3.4,3.2-4.4c0,0,0,0,0.1,0C2.3,2.2,1.2,3.7,0.8,5.4C0.6,6.2,0.6,7,0.7,7.7
	c0,0,0,0,0,0.1c0.1,0.6,0.4,1.1,0.7,1.6C1.8,10,2.2,10.6,2.7,11c1.1,1,2.3,1.6,3.5,1.8c1.2,0.2,2.5,0,3.6-0.6h0
	c1.2-0.7,2.2-1.8,2.6-3.1c0.3-0.9,0.4-1.9,0.2-2.9c0.3,1.1,0.2,2.3-0.1,3.3c-0.5,1.4-1.4,2.6-2.7,3.2h0c-1.2,0.6-2.5,0.8-3.7,0.6
	c-1.3-0.2-2.6-0.9-3.6-1.9c-0.5-0.5-1-1-1.4-1.7C0.7,9.3,0.5,8.8,0.4,8.2c0,0,0,0,0-0.1C0.2,7.3,0.3,6.5,0.5,5.7z M14.2,9
	c-0.4,1.9-1.6,3.4-3.2,4.4c-1.5,1-3.4,1.3-5.3,0.9c-1.9-0.4-3.4-1.6-4.4-3.2c-0.3-0.4-0.5-0.9-0.6-1.3c0,0.1,0.1,0.2,0.1,0.3
	c0.4,0.6,0.9,1.2,1.4,1.7c1.1,1.1,2.4,1.7,3.8,1.9c1.3,0.2,2.7,0,3.9-0.6c1.3-0.7,2.3-2,2.8-3.4c0.5-1.4,0.5-3-0.2-4.4
	c-0.4-1-1.1-1.8-1.8-2.4c-0.8-0.6-1.6-1-2.6-1.2c-1-0.1-2,0-2.9,0.4C4.6,2.4,3.9,2.9,3.4,3.5c-0.5,0.6-0.9,1.4-1,2.2
	c-0.1,0.8,0,1.7,0.4,2.7c0.2,0.5,0.5,1,0.9,1.4c0.6,0.6,1.3,1.1,2,1.4c0.8,0.2,1.6,0.2,2.4-0.1c0.3-0.1,0.7-0.4,1-0.6
	C9.6,9.9,10,9.5,10.2,9c0.2-0.5,0.4-1,0.4-1.7c0-0.9-0.2-1.6-0.6-2.2C9.8,4.9,9.5,4.7,9.2,4.5c-0.3-0.2-0.6-0.3-1-0.3
	c-0.2,0-0.3,0-0.5,0c-0.2,0-0.4,0-0.6,0.1c-0.5,0.1-1,0.5-1.3,0.8C5.5,5.5,5.2,6,5.2,6.4c0,0.3,0,0.5,0,0.8c0.1,0.3,0.3,0.5,0.5,0.7
	c0.2,0.2,0.5,0.3,0.8,0.3c0.3,0,0.6,0,0.8,0C7.5,8.1,7.6,8,7.8,7.9C8,7.6,8.1,7.3,8,7C8,6.9,8,6.8,7.9,6.7c0,0,0,0,0,0
	c0-0.1,0-0.1-0.1-0.1C7.7,6.4,7.7,6.4,7.6,6.4c-0.2,0-0.4,0-0.6,0.1c0.1-0.2,0.2-0.3,0.4-0.4C7.5,6,7.7,5.9,7.9,5.9
	c0.2,0,0.4,0,0.5,0.1c0.2,0.1,0.4,0.3,0.4,0.7c0,0.1,0,0.2,0,0.2c0,0.5-0.1,1-0.4,1.4C8.4,8.5,8.3,8.6,8.2,8.7C8,8.8,7.7,9,7.5,9
	c-0.1,0-0.2,0-0.3,0c-0.3,0-0.6,0-0.9-0.1C6,8.9,5.7,8.8,5.5,8.6C4.7,8.1,4.3,7.3,4.2,6.6c0,0,0-0.1,0-0.1c0-0.4,0.1-0.8,0.3-1.2
	c0.2-0.5,0.6-1,1-1.3C6.2,3.4,7,3.1,7.9,3.2c1.1,0.2,1.9,0.5,2.4,1c0.6,0.5,0.9,1.3,1.1,2.4c0.1,0.8,0,1.8-0.4,2.6
	c-0.1,0.3-0.3,0.7-0.5,1c-0.2,0.3-0.5,0.6-0.8,0.8c-0.4,0.2-0.7,0.4-1.1,0.6c-1.1,0.4-2.2,0.3-3.2-0.2c-1-0.5-1.9-1.2-2.5-2.2
	c-0.3-0.5-0.6-1-0.8-1.5C1.9,7.1,1.7,6.5,1.7,6c0-0.4,0-0.8,0.1-1.2c0-0.1,0.1-0.2,0.1-0.3c0.4-1,0.9-2,1.7-2.7
	C4.2,1.1,5.1,0.6,6,0.4c0,0,0.1,0,0.1-0.1C7,0.2,8,0.2,9,0.4c1.9,0.4,3.4,1.6,4.4,3.2C14.3,5.1,14.7,7.1,14.2,9z"/>
</svg>
