<?xml version="1.0" encoding="utf-8"?>
<!-- Generator: Adobe Illustrator 16.0.0, SVG Export Plug-In . SVG Version: 6.00 Build 0)  -->
<!DOCTYPE svg PUBLIC "-//W3C//DTD SVG 1.1//EN" "http://www.w3.org/Graphics/SVG/1.1/DTD/svg11.dtd">
<svg version="1.1" id="Layer_1" xmlns="http://www.w3.org/2000/svg" xmlns:xlink="http://www.w3.org/1999/xlink" x="0px" y="0px"
	 width="101.7px" height="14.7px" viewBox="0 0 101.7 14.7" style="enable-background:new 0 0 101.7 14.7;" xml:space="preserve">
<style type="text/css">
<![CDATA[
	.st0{fill:#E50E63;}
	.st1{fill:#D70036;}
]]>
</style>
<rect y="6.6" class="st0" width="33.5" height="0.7"/>
<rect x="68.2" y="6.6" class="st0" width="33.5" height="0.7"/>
<g>
	<path class="st1" d="M56.9,10c-0.1-0.7-0.2-1.4-0.3-2.1c0,0,0,0,0-0.1c0.1-0.1,0.3-0.2,0.3-0.3C56.9,7.3,57,7.2,57,7c0,0,0,0,0,0
		l0,0c0-0.3-0.1-0.6-0.1-0.9c0-0.1-0.1-0.3-0.1-0.4c0,0,0,0,0,0c0-0.1-0.1-0.2-0.1-0.3c-0.1-0.2-0.1-0.4-0.2-0.5c0,0,0-0.1,0-0.1
		c-0.1-0.2-0.1-0.3-0.1-0.5c-0.1-0.8-0.4-1.2-0.7-1.5c0,0-0.1-0.1-0.1-0.1c-0.5-0.4-1-0.3-1-0.3s-0.6,0-0.9,0.1s-0.7,0.1-1.1,0.1
		c-0.3,0-0.7,0-1,0c-0.1,0-0.2,0-0.3,0l0,0c0-0.3,0-0.6,0.1-0.8c0-0.4,0.1-0.8-0.1-1.1C50.9,0.2,50.6,0,50.1,0
		c-0.4,0-0.6,0.1-0.8,0.3c0,0,0,0.1-0.1,0.2c-0.1,0.1-0.1,0.2-0.1,0.3c0,0.1,0,0.1,0,0.2c0,0.3,0,0.7,0,1.1c0,0.1,0,0.2,0,0.2
		c-0.6,0-1.1,0.2-1.4,0.5l0,0c-0.1,0.1-0.1,0.2-0.2,0.3l0,0c-0.4,1.2-0.9,3.3-1.2,4.8c0,0.2,0,0.4,0.1,0.5c0,0,0.1,0.1,0.1,0.1l0,0
		c0,0,0.1,0.1,0.1,0.1c0,0,0.1,0,0.1,0c0,0.6-0.1,1.1-0.1,1.7c-0.1,1.4-0.3,2.8,0.4,3.6c0.4,0.5,1,0.7,1.8,0.8
		c0.7,0,1.5,0.1,2.4,0.1c0.4,0,0.9,0,1.4,0c1.2,0,2.2-0.2,2.9-0.3c0.4-0.1,0.8-0.2,1.1-0.5C57.4,13.3,57.2,11.7,56.9,10z M47.3,7.8
		L47.3,7.8L47.3,7.8z M47.1,5.4c0.1,0.2,0.3,0.2,0.4,0.2c0.1,0.5,0.4,0.8,0.7,0.8l0,0c0.2,0,0.5-0.2,0.6-0.7c0,0,0.1,0.1,0.1,0.1
		C48.8,6.3,48.5,7,48,7l0,0C47.4,7,47.2,6,47.1,5.4z M50.9,2.9c0,0,0,0.2,0,0.2c0,0.2,0,0.4-0.1,0.6c0,0,0,0,0,0
		c-0.1,0.2-0.1,0.4-0.3,0.5c0,0-0.1,0.1-0.1,0.1c0,0-0.1,0-0.1,0.1c-0.2,0.1-0.3,0.1-0.5,0c-0.3-0.1-0.5-0.4-0.6-0.7
		c0-0.2,0.1-0.3,0.1-0.5c0.1,0.4,0.4,0.5,0.7,0.5c0.4-0.1,0.7-0.6,0.7-1.2l0,0h0c0,0,0,0,0.1,0c0,0,0,0,0,0
		C50.9,2.6,50.9,2.7,50.9,2.9z M53,5.1L53,5.1c0.3,0,0.5-0.2,0.5-0.6c0.1,0,0.1,0,0.2,0h0v0.1c-0.1,0.8-0.5,1.1-0.8,1.1
		c0,0-0.1,0-0.1,0c-0.3-0.1-0.6-0.5-0.7-1c0,0,0,0,0,0V4.5c0.1,0,0.1-0.1,0.2-0.1C52.3,4.8,52.7,5.1,53,5.1z M54.7,5.1
		c0.3,0,0.4-0.4,0.5-0.9c0,0,0.1,0,0.1,0s0.1,0,0.1,0c0,0.3-0.2,0.8-0.5,1.1l-0.1,0.1c0,0-0.1,0.1-0.2,0.1c-0.4,0.1-0.7-0.6-0.8-1.1
		c0,0,0-0.1,0-0.2c0.1,0,0.1-0.1,0.2-0.2C54.2,4.9,54.5,5.1,54.7,5.1z M55.4,6.8c-0.4,0-0.6-0.4-0.7-1l0,0c0,0,0-0.1,0-0.2v0
		c0,0,0,0,0.1,0c0.1,0,0.1,0,0.2-0.1c0,0.4,0.3,0.8,0.6,0.8c0.3,0,0.5-0.2,0.7-0.5c0.1,0,0.2,0,0.4-0.1C56.3,6.5,55.8,6.8,55.4,6.8z
		 M56.4,8c0.1,0.7,0.2,1.4,0.3,2c0.3,1.7,0.5,3.1-0.1,3.8c-0.1,0.1-0.2,0.2-0.3,0.2c0-0.2,0-0.3-0.1-0.3c0-0.1-0.1-0.1-0.2-0.1
		c0,0,0,0,0-0.1c-0.1-0.7-0.1-1.6-0.4-2.4c0,0,0,0,0-0.1c0.1,0,0.3-0.1,0.3-0.3c0.1-0.3,0-0.7-0.2-1.1c-0.2-0.3-0.5-0.5-0.8-0.6
		c0,0-0.2-0.1-0.2-0.1c-0.1,0-0.3,0-0.4,0c-0.1,0-0.1,0-0.2,0.1l-0.1,0.1c-0.2,0.1-0.4,0.3-0.6,0.5c0,0,0,0-0.1,0c0,0,0,0,0,0.1
		c-0.3,0.3-0.4,0.6-0.4,0.9c0,0.3,0,0.6,0.4,0.8c-0.2,0.9-0.1,2,0,2.6c-0.1,0-0.1,0.1-0.1,0.2c-0.1,0.1-0.1,0.3,0,0.5
		c-0.1,0-0.3,0-0.5,0c-1.2,0-2.5,0-3.7,0c-0.8,0-1.3-0.3-1.6-0.7c-0.6-0.8-0.5-2.1-0.3-3.5C47,9.9,47,9.3,47,8.7
		c0.1,0,0.3,0,0.4,0.1l0,0l0,0c0.2,0,0.4,0,0.6,0c0.6,0,1.1,0,1.7-0.1c0.4,0,0.7,0,0.9,0c1.3,0,3.2-0.1,4.9-0.5
		C55.8,8.2,56.1,8.1,56.4,8C56.3,8,56.3,8,56.4,8z M54.6,13.8c-0.1,0-0.3,0-0.5,0c-0.3,0-0.5,0-0.7,0.1c-0.1-1.1-0.1-2.7,0.4-3.4
		c0.3-0.4,0.5-0.6,0.8-0.5c0.2,0,0.5,0.3,0.7,0.6l0,0c0,0.1,0.1,0.2,0.1,0.3c0,0,0.1,0.2,0.1,0.3c0.2,0.8,0.3,1.7,0.3,2.4
		c0,0,0,0,0,0c-0.3,0-0.6,0.1-0.8,0.2C54.7,13.8,54.7,13.8,54.6,13.8z M54.6,9.4c0,0.1,0,0.3,0,0.4c0,0,0,0-0.1,0c0,0-0.1,0-0.1,0
		c0,0-0.1,0-0.1,0c0,0,0-0.1,0-0.2c0-0.1-0.1-0.2-0.1-0.3c0,0,0-0.1,0-0.1c0,0,0.1,0,0.1,0c0.1,0,0.2,0,0.3,0v0V9.4L54.6,9.4z
		 M53.8,10.1c-0.1-0.2-0.2-0.3-0.3-0.4c0.1-0.2,0.3-0.3,0.4-0.4c0,0,0,0.1,0,0.2s0,0.1,0,0.1c0,0,0,0.1,0,0.2c0,0,0,0.1,0,0.2
		C54,9.9,53.9,10,53.8,10.1z M53.1,10.3c0.1-0.1,0.1-0.3,0.3-0.4c0.1,0.1,0.2,0.3,0.3,0.4c0,0-0.1,0.1-0.1,0.2c0,0-0.1,0.1-0.1,0.2
		C53.4,10.4,53.2,10.3,53.1,10.3z M54.8,9.3c0.2,0.1,0.4,0.2,0.6,0.4l0,0c-0.1,0.1-0.2,0.2-0.3,0.3C55,10,54.9,10,54.8,9.9
		c0,0,0-0.1,0-0.1C54.8,9.6,54.8,9.5,54.8,9.3z M55.3,10.5c0-0.1-0.1-0.2-0.1-0.3c0.1-0.1,0.2-0.2,0.4-0.3l0,0
		c0.1,0.1,0.1,0.3,0.2,0.4C55.6,10.3,55.4,10.4,55.3,10.5z M55.4,10.7c0.1,0,0.2-0.1,0.3-0.2c0,0.1,0,0.1,0,0.2
		c0,0.1-0.1,0.2-0.2,0.2C55.4,10.8,55.4,10.7,55.4,10.7z M53.4,10.7c-0.1,0.2-0.1,0.3-0.1,0.5C53,11.1,53,10.9,53,10.6
		c0,0,0-0.1,0-0.2C53.1,10.5,53.3,10.6,53.4,10.7z M47.9,7.1c0,0,0.1,0,0.1,0c0.1,0,0.1,0,0.2,0c0,0,0,0.1,0,0.1
		c0,0.4,0.1,0.9,0.3,1.1c0.1,0,0.2,0,0.3,0c0.3-0.2,0.5-0.9,0.5-1.3c0,0,0.1,0,0.1,0s0,0,0.1,0c0,0,0,0.1,0,0.2l0,0l0,0
		c0,0,0,0,0,0.1c-0.1,0.5-0.3,1.3-0.7,1.4c-0.1,0.1-0.3,0.1-0.4,0c-0.1-0.1-0.2-0.2-0.3-0.5c0,0,0-0.2-0.1-0.2
		C48,7.8,47.9,7.4,47.9,7.1z M48.4,7L48.4,7L48.4,7L48.4,7z M49.6,6.5c0.1,0,0.3,0,0.4-0.1c0.3-0.2,0.5-0.5,0.6-0.8
		c0,0,0.1,0.1,0.1,0.1c0,0,0,0,0,0v0l0,0c-0.1,0.3-0.4,0.7-0.6,0.9c0,0-0.1,0.1-0.2,0.1c-0.1,0.1-0.3,0.1-0.4,0.1
		c-0.3,0-0.5-0.4-0.5-1.1c0,0,0.1,0,0.1,0c0.1,0,0.1,0,0.2,0l0,0c0,0,0,0.1,0,0.1C49.4,6.2,49.4,6.4,49.6,6.5z M52.2,5.2L52.2,5.2
		L52.2,5.2L52.2,5.2z M51.6,6.7c0.1,0.1,0.3,0.1,0.4,0c0.3-0.2,0.4-0.9,0.5-1.1c0.1,0,0.1,0.1,0.2,0.1v0v0c-0.1,0.5-0.3,1.3-0.9,1.4
		c-0.2,0-0.4,0-0.6-0.2c-0.3-0.3-0.4-0.9-0.4-1.3c0.1,0,0.2,0.1,0.3,0.1C51.2,6.2,51.3,6.6,51.6,6.7z M53.5,6.5
		c0.1,0.1,0.3,0.1,0.4,0c0.3-0.2,0.4-0.6,0.5-0.9c0,0,0.1,0,0.1,0v0l0,0l0,0c0,0.1,0,0.1,0,0.2c0,0,0,0,0,0c0,0.4-0.2,1.1-0.8,1.2
		c-0.2,0-0.3,0-0.4-0.1c-0.3-0.2-0.4-0.8-0.5-1.3l0,0h0c0.1,0,0.1,0,0.2,0l0,0C53.1,6,53.2,6.4,53.5,6.5z M55.3,6.9
		c-0.1,0.5-0.3,1.1-0.8,1.3c-0.2,0.1-0.4,0-0.6-0.1c-0.1,0-0.2-0.3-0.2-0.3c-0.1-0.2-0.1-0.4-0.1-0.6c0.1,0,0.1,0,0.2,0
		c0,0,0.1,0,0.1,0c0,0.6,0.3,0.7,0.4,0.7l0,0c0.4,0,0.7-0.5,0.8-0.9C55.2,6.9,55.3,6.9,55.3,6.9L55.3,6.9L55.3,6.9z M51.3,8.6
		C51.3,8.6,51.3,8.6,51.3,8.6C51.3,8.6,51.3,8.6,51.3,8.6C51.3,8.6,51.3,8.6,51.3,8.6z M49,8.7C49,8.7,49,8.7,49,8.7
		C49,8.7,49,8.7,49,8.7C49,8.7,49,8.7,49,8.7z M49.3,8.3L49.3,8.3c0-0.1,0.1-0.2,0.1-0.3c0,0.2,0.1,0.2,0.2,0.2c0.1,0,0.2,0,0.3-0.2
		c0,0.1,0.1,0.2,0.1,0.3l0,0c-0.1,0.2-0.2,0.3-0.3,0.3l0,0C49.6,8.6,49.4,8.5,49.3,8.3z M49.9,8.7L49.9,8.7L49.9,8.7L49.9,8.7z
		 M50.4,8.5C50.4,8.5,50.4,8.5,50.4,8.5C50.4,8.5,50.3,8.5,50.4,8.5c-0.3-0.2-0.5-0.8-0.6-1.2c0-0.1,0-0.2-0.1-0.3
		c0.1,0,0.2-0.1,0.3-0.1c0,0.1,0,0.1,0,0.2c0,0.1,0,0.2,0.1,0.3c0,0.1,0,0.2,0.1,0.2c0.1,0.3,0.3,0.5,0.6,0.5c0.4,0,0.4-0.6,0.5-0.9
		c0,0,0,0,0,0c0.1,0,0.1,0.1,0.2,0.1c0,0,0,0,0,0.1c0,0,0,0.1,0,0.2l0,0l0,0c-0.1,0.4-0.3,0.9-0.7,1C50.6,8.6,50.5,8.6,50.4,8.5z
		 M50.8,8.6C50.8,8.6,50.8,8.6,50.8,8.6L50.8,8.6L50.8,8.6L50.8,8.6z M51.3,8.4L51.3,8.4c0-0.1-0.1-0.1-0.1-0.1c0,0,0.1-0.1,0.1-0.2
		c0.1,0.1,0.2,0.2,0.3,0.2c0.1,0,0.1-0.1,0.2-0.2c0,0.1,0.1,0.2,0.2,0.3c-0.1,0.2-0.2,0.3-0.4,0.3C51.4,8.6,51.3,8.5,51.3,8.4z
		 M51.8,7.9C51.8,7.8,51.8,7.8,51.8,7.9c0-0.2-0.1-0.3-0.1-0.4c0,0,0-0.1,0-0.2v0c0.1,0,0.1,0,0.3,0c0,0,0.1,0,0.1,0c0,0,0,0,0,0
		c0.1,0.5,0.3,0.9,0.6,0.9l0,0c0.3,0,0.7-0.4,0.7-1c0,0,0.1,0,0.1,0.1c0,0.2-0.1,0.5-0.3,0.7c-0.1,0.2-0.2,0.3-0.3,0.4
		c-0.1,0.1-0.1,0.1-0.3,0.1C52.2,8.6,51.9,8.2,51.8,7.9z M52.7,8.5L52.7,8.5L52.7,8.5L52.7,8.5z M53.2,8.1c0.1-0.1,0.1-0.2,0.1-0.3
		C53.4,7.9,53.5,8,53.5,8c0.1,0,0.1,0,0.2-0.1c0,0.1,0.1,0.2,0.2,0.2c-0.1,0.2-0.2,0.2-0.4,0.2C53.4,8.4,53.2,8.3,53.2,8.1z M55.7,8
		L55.7,8L55.7,8L55.7,8z M49,6.1L49,6.1L49,6.1C48.9,6.1,49,6.1,49,6.1z M55.7,7.9c-0.1,0.2-0.2,0.2-0.4,0.2c-0.1,0-0.2,0-0.3-0.2
		c0-0.1,0.1-0.2,0.1-0.2c0.1,0.1,0.1,0.1,0.2,0.1s0.1,0,0.2-0.1C55.6,7.8,55.7,7.8,55.7,7.9L55.7,7.9z M52,4.8L52,4.8L52,4.8L52,4.8
		z M51.3,5.7c0,0-0.3,0.1-0.7-0.2c0,0-0.1-0.1-0.1-0.1c-0.2-0.2-0.4-0.5-0.5-0.9l0,0c0,0,0,0,0,0c0.1,0,0.2,0,0.3-0.1
		c0.2,0.5,0.5,0.8,0.8,0.8c0.3,0,0.5-0.3,0.6-0.8c0.1,0,0.1,0,0.2,0c0,0,0,0.1,0,0.2C51.9,5.2,51.7,5.6,51.3,5.7z M50.6,4.1
		L50.6,4.1L50.6,4.1L50.6,4.1L50.6,4.1z M50.1,0.3c0.2,0,0.3,0,0.4,0.1l0,0h-0.9C49.7,0.3,49.9,0.2,50.1,0.3z M49.3,2.1
		c0-0.3,0-0.6,0-0.9c0.1,0,0.1,0.1,0.2,0.1h1c0.2,0,0.4-0.1,0.4-0.3c0,0.2,0,0.3,0,0.5c0,0.2-0.1,0.5-0.1,0.8c-0.5,0-1,0-1.5,0
		L49.3,2.1z M49.1,3.7L49.1,3.7L49.1,3.7L49.1,3.7z M48.6,4.6c0,0.1,0,0.2,0.1,0.2c0.1,0.3,0.3,0.5,0.5,0.5c0.4-0.1,0.5-0.6,0.5-0.8
		h0c0.1,0,0.1,0,0.2,0c-0.1,0.4-0.3,1.3-0.8,1.3l0,0c-0.6,0-0.7-0.9-0.8-1.3c0,0,0,0,0.1,0c0.1,0,0.1,0,0.2-0.1c0,0,0,0,0,0.1
		C48.6,4.5,48.6,4.5,48.6,4.6z M47.8,8.4c0.1,0,0.2,0,0.3-0.1c0,0.1,0.1,0.2,0.1,0.3c-0.1,0.2-0.2,0.2-0.4,0.2
		c-0.2,0-0.3-0.2-0.4-0.3c0.1-0.1,0.1-0.2,0.2-0.2C47.6,8.2,47.7,8.3,47.8,8.4z M56.9,7c0,0.5-0.3,0.7-0.4,0.8l0,0l0,0
		c0,0-0.1,0-0.1,0.1c0,0-0.1,0-0.1,0c-0.1,0-0.2,0-0.3,0c-0.3-0.1-0.5-0.5-0.5-1l0,0c0.1,0,0.2,0,0.3,0l0,0c0.1,0.4,0.3,0.6,0.6,0.6
		C56.5,7.5,56.8,7.3,56.9,7C56.9,7,56.9,7,56.9,7z M56.5,5.3c0,0.1,0.1,0.2,0.1,0.3l0,0l0,0c-0.2,0.2-0.4,0.2-0.6,0.1
		c-0.4-0.2-0.5-1.1-0.5-1.5c0.1,0,0.1,0,0.2,0c0,0,0,0.1,0,0.1c0.1,0.3,0.1,0.8,0.4,0.9c0.1,0,0.2,0,0.3-0.1
		C56.4,5.2,56.5,5.3,56.5,5.3z M56.4,5.1L56.4,5.1L56.4,5.1L56.4,5.1z M55.4,3.7c0.1,0,0.3,0,0.5-0.3C55.9,3.5,56,3.7,56,3.8l0,0
		c-0.2,0.3-0.5,0.3-0.6,0.3c-0.1,0-0.1,0-0.2,0l0,0c-0.1-0.1-0.3-0.2-0.4-0.3c-0.1-0.1-0.1-0.2-0.2-0.2l0,0c0-0.1-0.1-0.1-0.1-0.2
		c0-0.1,0.1-0.2,0.1-0.4C54.7,3.3,55.1,3.7,55.4,3.7z M52.9,2.9L52.9,2.9C52.9,3,52.9,3,52.9,2.9L52.9,2.9z M53.6,3.7
		C54,3.7,54.4,3,54.4,2.3c0.1,0,0.1,0,0.2,0c0,0.3,0,0.6-0.1,0.9c0,0,0,0.2,0,0.2c-0.1,0.2-0.2,0.4-0.3,0.5c0,0-0.1,0.1-0.1,0.2
		c-0.1,0.1-0.1,0.1-0.2,0.2l0,0c0,0,0,0,0,0s0,0-0.1,0c-0.3,0.1-0.7-0.2-0.9-0.7l0,0c0,0,0,0,0,0c0-0.1,0.1-0.3,0.1-0.4
		C53.1,3.7,53.3,3.8,53.6,3.7z M52.8,2.4c0,0.7-0.2,1.3-0.5,1.7c0,0-0.1,0.2-0.3,0.3l0,0l0,0l0,0c-0.3,0.1-0.7-0.2-1-0.7
		c0-0.2,0-0.3,0-0.5c0.2,0.5,0.5,0.7,0.8,0.6c0.4-0.1,0.7-0.6,0.6-1.3C52.6,2.4,52.7,2.4,52.8,2.4z M48.9,2.5L48.9,2.5L48.9,2.5
		L48.9,2.5z M47.6,3.1c0-0.1,0-0.1,0.1-0.2c0.1,0.3,0.3,0.6,0.4,0.7c0.1,0.1,0.3,0.1,0.4,0c0.3-0.1,0.4-0.8,0.5-1.1c0,0,0-0.1,0-0.1
		c0,0,0.1,0,0.1,0v0l0.1,0l0,0c0,0,0,0,0,0c0,0,0,0,0,0l0.1,0v0l0,0c0,0.7-0.3,1.4-0.7,1.7c0,0-0.1,0-0.1,0s-0.2,0.1-0.3,0.1
		c-0.4,0-0.6-0.3-0.8-1C47.5,3.2,47.5,3.2,47.6,3.1z M47.1,4.6L47.1,4.6L47.1,4.6L47.1,4.6L47.1,4.6z M47.1,4.8
		c0.1,0.3,0.3,0.3,0.4,0.3C47.8,5,48,4.7,48,4.3c0.1,0,0.1,0,0.2,0.1c0,0.1,0,0.2,0,0.3v0c-0.1,0.4-0.3,0.7-0.6,0.8
		c-0.2,0-0.4,0-0.6-0.3l0,0l0,0C47,5,47.1,4.9,47.1,4.8z M46.7,8.6c-0.1,0-0.1-0.1-0.2-0.1c-0.1-0.1-0.2-0.3-0.1-0.7l0,0
		c0-0.1,0-0.2,0.1-0.3c0,0.2,0.1,0.4,0.2,0.6c0.1,0.1,0.1,0.2,0.3,0.2c0.1,0,0.2,0,0.3-0.1c0.3-0.2,0.4-0.9,0.4-1.2
		C47.7,7,47.7,7,47.8,7.1c0,0.3-0.1,0.6-0.3,0.9c0,0-0.2,0.4-0.6,0.6C46.9,8.6,46.8,8.6,46.7,8.6z"/>
	<path class="st1" d="M53.8,11.7C53.8,11.7,53.8,11.7,53.8,11.7c0,0.2,0,0.4,0,0.5c0,0,0,0,0,0l0,0c0,0,0,0,0,0
		C53.9,12.1,53.9,11.9,53.8,11.7L53.8,11.7z"/>
	<path class="st1" d="M49.6,9.7c-0.1,0-0.3-0.1-0.4-0.1c-0.1,0-0.2,0-0.3,0.1c-0.1,0.1-0.3,0.2-0.3,0.6c0,0.3,0,0.6,0.3,0.7
		c0.1,0,0.3,0,0.4,0c0.2,0,0.3,0,0.4-0.1c0.1-0.1,0.1-0.2,0.1-0.3v-0.1C49.8,10.1,49.9,9.8,49.6,9.7z M49.6,10.4L49.6,10.4
		c0,0.1,0,0.1-0.1,0.2c0,0-0.1,0.1-0.3,0.1c-0.1,0-0.2,0-0.3,0c-0.1,0-0.1-0.2-0.1-0.5c0-0.2,0.1-0.3,0.2-0.4c0.1,0,0.1,0,0.2,0
		c0.1,0,0.3,0,0.3,0.1C49.6,10,49.6,10.2,49.6,10.4z"/>
	<path class="st1" d="M49.6,11.1c-0.1,0-0.3-0.1-0.4-0.1c-0.1,0-0.2,0-0.3,0.1c-0.1,0.1-0.3,0.2-0.3,0.6c0,0.3,0,0.6,0.3,0.7
		c0.1,0,0.3,0,0.4,0c0.2,0,0.3,0,0.4-0.1c0.1-0.1,0.1-0.2,0.1-0.3v-0.1C49.8,11.6,49.8,11.2,49.6,11.1z M49.5,11.9L49.5,11.9
		c0,0.1,0,0.1-0.1,0.2c-0.1,0.1-0.3,0.1-0.6,0c-0.1,0-0.1-0.2-0.1-0.5c0-0.2,0.1-0.3,0.2-0.4c0.1,0,0.1,0,0.2,0c0.1,0,0.3,0,0.3,0.1
		C49.6,11.4,49.5,11.6,49.5,11.9z"/>
	<path class="st1" d="M50.9,9.8c-0.1,0-0.3-0.1-0.4-0.1c-0.1,0-0.2,0-0.3,0.1c-0.1,0.1-0.3,0.2-0.3,0.6c0,0.3,0,0.6,0.3,0.7
		c0.1,0,0.3,0,0.4,0c0.2,0,0.3,0,0.4-0.1c0.1-0.1,0.1-0.2,0.1-0.3v-0.1C51.1,10.3,51.2,9.9,50.9,9.8z M50.9,10.6L50.9,10.6
		c0,0.1,0,0.2-0.1,0.2c0,0-0.1,0.1-0.3,0.1c-0.1,0-0.2,0-0.3,0c-0.1,0-0.1-0.2-0.1-0.5c0-0.2,0.1-0.3,0.2-0.4c0.1,0,0.1,0,0.2,0
		c0.1,0,0.3,0,0.3,0.1C50.9,10,50.9,10.3,50.9,10.6z"/>
	<path class="st1" d="M50.9,11.2c-0.1,0-0.3-0.1-0.4-0.1c-0.1,0-0.2,0-0.3,0.1c-0.1,0.1-0.3,0.2-0.3,0.6c0,0.3,0,0.6,0.3,0.7
		c0.1,0,0.3,0,0.4,0c0.2,0,0.3,0,0.4-0.1c0.1-0.1,0.1-0.2,0.1-0.3V12C51.1,11.7,51.1,11.4,50.9,11.2z M50.8,12L50.8,12
		c0,0.1,0,0.1-0.1,0.2c0,0-0.1,0.1-0.3,0.1c-0.1,0-0.2,0-0.3,0c-0.1,0-0.1-0.2-0.1-0.5c0-0.2,0.1-0.3,0.2-0.4c0.1,0,0.1,0,0.2,0
		c0.1,0,0.3,0,0.3,0.1C50.9,11.5,50.8,11.7,50.8,12z"/>
</g>
</svg>
