<?xml version="1.0" encoding="utf-8"?>
<!-- Generator: Adobe Illustrator 16.0.0, SVG Export Plug-In . SVG Version: 6.00 Build 0)  -->
<!DOCTYPE svg PUBLIC "-//W3C//DTD SVG 1.1//EN" "http://www.w3.org/Graphics/SVG/1.1/DTD/svg11.dtd">
<svg version="1.1" id="Layer_1" xmlns="http://www.w3.org/2000/svg" xmlns:xlink="http://www.w3.org/1999/xlink" x="0px" y="0px"
	 width="254.1px" height="64.5px" viewBox="0 0 254.1 64.5" style="enable-background:new 0 0 254.1 64.5;" xml:space="preserve">
<style type="text/css">
<![CDATA[
	.st0{fill:#E50E63;stroke:#E50E63;stroke-width:0.3817;stroke-miterlimit:10;}
	.st1{fill-rule:evenodd;clip-rule:evenodd;fill:#E50E63;}
	.st2{display:none;}
]]>
</style>
<g id="RZVxik_1_" class="st2">
	
		<image style="display:inline;overflow:visible;" width="179" height="27" id="RZVxik_2_" xlink:href="4038F61B804B7C42.jpg"  transform="matrix(1.4198 0 0 1.4198 0.1909 13.75)">
	</image>
</g>
<rect x="0.2" y="31" class="st0" width="80.4" height="0.8"/>
<rect x="173.2" y="31" class="st0" width="80.4" height="0.8"/>
<g>
	<path class="st1" d="M144.2,37.2c-3.1-5.3-10.2-13.8-13.4-16.7l0.1,0c1.8-0.7,4.9-1.8,7.2-3.1c1.4-0.7,2.4-1.5,3-2.2
		c0.8-0.9,0.9-1.8,0.5-2.6c-0.9-1.7-2.3-2.2-4-1.5c0.5-1.3,0.3-2.3-0.5-3c-1.7-1.3-3.3-1-4.7,0.9c0,0.1-0.1,0.1-0.1,0.2
		c0-2-0.7-3.1-2-3.3c-0.2,0-0.5-0.1-0.7-0.1c-1.2,0-2.6,0.5-3,2.9c-0.9-1.5-1.9-2.1-3.1-1.7c-1.7,0.6-2.5,1.8-2.2,3.5
		c-1.2-0.6-2.1-0.6-2.9,0.1c-0.8,0.8-1.2,1.6-1.2,2.5c0,0.8,0.4,1.5,1.2,2.3c2.2,2.3,6.9,4.1,9.4,5.1c-3.9,4.1-14.8,18.4-13.2,25
		c0.4,1.7,1.7,2.9,3.6,3.3c2.4,0.6,8,1.2,13.4,1.2c8.3,0,13.2-1.3,14.7-4C147.4,44.3,146.7,41.4,144.2,37.2z M135.9,12.1
		c-2,1.5-4,4.1-5.5,6c0.5-2.6,1.5-6.5,2.9-8.4c0.9-1.3,1.9-1.5,3.1-0.6C137.2,9.6,136.6,10.9,135.9,12.1z M140.5,43.2
		c-0.2-0.2-0.4-0.4-0.7-0.4c-0.5,0-0.9,0.4-0.9,0.9c0,0,0,0,0,0c-1.4,0.4-2.8,0.7-4.3,0.9c-0.1-0.3-0.4-0.5-0.8-0.5
		c-0.4,0-0.7,0.3-0.8,0.6c-1.4,0.1-2.7,0.1-4.1,0.1c-0.1-0.4-0.4-0.7-0.8-0.7c-0.4,0-0.7,0.3-0.8,0.6c-1.2-0.1-2.4-0.2-3.5-0.4
		c0-0.5-0.4-0.9-0.9-0.9c-0.4,0-0.7,0.2-0.8,0.5c-1.4-0.3-2.6-0.7-3.6-1.2c0-0.1,0.1-0.2,0.1-0.3c0-0.5-0.4-0.9-0.9-0.9
		c-0.3,0-0.5,0.1-0.7,0.3c-0.2-0.1-0.3-0.2-0.5-0.4c0.3-1.2,0.8-2.5,1.5-3.9c0.3,0.3,0.9,0.6,1.7,1c3.1,1.7,6.4,2.3,9.6,2.3
		c5.9,0,11.1-2.1,13.4-3.3c0.8,1.3,1.4,2.5,1.8,3.6C143.3,42.1,141.9,42.7,140.5,43.2z M129.3,21.5l0-0.2c0,0,0,0,0-0.1
		c1,0.9,3.5,3.5,6.2,6.7c-0.3,0.2-0.8,0.5-1.3,0.7c-0.1-0.3-0.4-0.6-0.8-0.6c-0.5,0-0.9,0.4-0.9,0.9c0,0.1,0,0.1,0,0.2
		c-0.8,0.2-1.8,0.4-2.7,0.4c-0.1-0.4-0.4-0.8-0.8-0.8c-0.5,0-0.8,0.4-0.9,0.8c-0.8,0-1.6-0.1-2.5-0.4c0,0,0-0.1,0-0.1
		c0-0.5-0.4-0.9-0.9-0.9c-0.3,0-0.5,0.1-0.7,0.3c-0.2-0.1-0.3-0.2-0.5-0.3C126,25.2,128.1,22.6,129.3,21.5L129.3,21.5z M124.1,29.1
		C124.1,29.1,124.1,29.1,124.1,29.1c0,0.5,0.4,0.9,0.9,0.9c0.2,0,0.5-0.1,0.6-0.3c1,0.3,1.9,0.4,2.8,0.4c0.2,0.2,0.4,0.4,0.7,0.4
		c0.3,0,0.6-0.2,0.8-0.5c1.1-0.1,2.1-0.3,3.1-0.5c0.2,0.1,0.3,0.2,0.5,0.2c0.4,0,0.7-0.3,0.8-0.6c0.7-0.3,1.2-0.5,1.6-0.8
		c1.7,2,3.4,4.3,5,6.5l0.1,3.1c0,0-0.1,0-0.1,0l-2.9-2.6l-0.4,3.7c-0.1,0-0.1,0-0.2,0.1l-2.7-2.7l-1.7,3.7c0,0-0.1,0-0.1,0L131,37
		l-1.8,3.5c-0.1,0-0.1,0-0.2,0l-1.5-3.7l-2.7,3.2c-0.1,0-0.1,0-0.2,0L124,36l-3.2,2.5c-0.1,0-0.2-0.1-0.3-0.1l0.1-3.6l-1.6,1.2
		c1.3-2.4,2.9-4.9,4.5-7.2C123.7,28.9,123.9,29,124.1,29.1z M131,19.2c1.6-2.1,4.2-5.6,6.5-6.8c0.5-0.3,1-0.4,1.4-0.4
		c0.7,0,1.2,0.4,1.6,1.2c0.1,0.2,0.3,0.6-0.5,1.5c-0.5,0.5-1.4,1.1-2.5,1.8C135.5,17.5,132.9,18.5,131,19.2z M131,11.4
		c0,0.2-0.1,0.4-0.1,0.6l0,0c-0.8,2-1.3,4.3-1.6,6.1c-0.8-2.5-1.9-6.6-1.5-9.1c0.2-1.6,1-2.2,2.4-2c0.2,0,0.4,0.1,0.6,0.3
		C131.1,7.8,131.4,8.8,131,11.4z M128.1,18.3c-1.8-1.9-4.6-5-5.4-7.3c-0.5-1.5-0.1-2.4,1.2-2.9c0.1,0,0.2-0.1,0.3-0.1
		c0.5,0,1.4,0.6,2.4,3.4C126.8,13.7,127.5,16.4,128.1,18.3z M127.1,18.9c-2.5-1-6-2.6-7.7-4.3c-0.5-0.5-0.8-1.1-0.8-1.6
		c0-0.5,0.2-1.1,0.8-1.6c0.2-0.2,0.4-0.2,0.6-0.2c0.4,0,1.1,0.3,2.1,1.2C123.2,14.6,125.4,17.2,127.1,18.9z M116.4,42.1
		c0.1,0.1,0.3,0.2,0.4,0.3c0,0,0,0,0,0c0,0.5,0.4,0.9,0.9,0.9c0.2,0,0.3-0.1,0.5-0.2c1.1,0.5,2.4,1,3.9,1.3c0.1,0.4,0.4,0.7,0.8,0.7
		c0.3,0,0.5-0.2,0.7-0.4c1.2,0.2,2.4,0.4,3.6,0.5c0.1,0.3,0.4,0.6,0.8,0.6c0.3,0,0.6-0.2,0.8-0.5c0.4,0,0.9,0,1.4,0
		c0.8,0,1.8,0,2.8-0.1c0.1,0.3,0.4,0.6,0.8,0.6c0.4,0,0.8-0.3,0.8-0.7c1.4-0.2,2.9-0.5,4.4-0.9c0.2,0.2,0.4,0.3,0.7,0.3
		c0.5,0,0.9-0.4,0.9-0.9c1.4-0.5,2.8-1.1,4.1-2c0,0.1,0.1,0.3,0.2,0.4c0.5,1.4,0.5,2.6,0.2,3.2c-1.1,2-6,3.2-13.3,3.2
		c-5.3,0-10.6-0.6-13-1.2c-1.4-0.3-2.1-1-2.4-2.2C116.1,44.3,116.2,43.3,116.4,42.1z"/>
	<circle class="st1" cx="139" cy="13.3" r="1.1"/>
	<circle class="st1" cx="135" cy="10.6" r="1.1"/>
	<circle class="st1" cx="129.4" cy="8.6" r="1.1"/>
	<circle class="st1" cx="124.1" cy="9.6" r="1.1"/>
	<circle class="st1" cx="120.4" cy="13" r="1.1"/>
	<path class="st1" d="M122,35.2C122,35.2,122.1,35.2,122,35.2c0.2,0,0.2,0,0.3,0c1.4-1.1,2.8-2.6,1.9-4.9c0-0.1-0.1-0.1-0.2-0.2
		c-0.1,0-0.2,0-0.2,0c-2.1,1.1-2.5,1.6-2,4.8C121.9,35.1,121.9,35.2,122,35.2z M123.8,30.8c0.4,1.5-0.3,2.6-1.5,3.7
		C122,32,122.3,31.6,123.8,30.8z"/>
	<path class="st1" d="M129.8,36.5L129.8,36.5c0.1,0,0.2,0,0.2-0.1c0.9-1.6,1.7-3.4,0.1-5.2C130,31,130,31,129.9,31
		c-0.1,0-0.2,0-0.2,0.1c-1.6,1.8-1.7,2.4-0.1,5.2C129.6,36.4,129.7,36.5,129.8,36.5z M129.9,31.7c1,1.3,0.7,2.5-0.1,4
		C128.6,33.4,128.8,33,129.9,31.7z"/>
	<path class="st1" d="M137.2,34.9C137.2,34.9,137.2,34.9,137.2,34.9c0.2,0,0.2-0.1,0.3-0.2c0.5-1.8,0.7-3.8-1.4-5.1
		c-0.1,0-0.1-0.1-0.2,0c-0.1,0-0.1,0.1-0.2,0.1c-1,2.1-1,2.7,1.3,5.1C137,34.9,137.1,34.9,137.2,34.9z M136,30.3
		c1.3,0.9,1.4,2.2,1,3.8C135.3,32.3,135.3,31.8,136,30.3z"/>
	<circle class="st1" cx="126.2" cy="33.4" r="0.9"/>
	<circle class="st1" cx="133" cy="33.2" r="0.9"/>
</g>
</svg>
