<?xml version="1.0" encoding="utf-8"?>
<!-- Generator: Adobe Illustrator 16.0.0, SVG Export Plug-In . SVG Version: 6.00 Build 0)  -->
<!DOCTYPE svg PUBLIC "-//W3C//DTD SVG 1.1//EN" "http://www.w3.org/Graphics/SVG/1.1/DTD/svg11.dtd">
<svg version="1.1" id="Isolation_Mode" xmlns="http://www.w3.org/2000/svg" xmlns:xlink="http://www.w3.org/1999/xlink" x="0px"
	 y="0px" width="20.1px" height="26.3px" viewBox="0 0 20.1 26.3" style="enable-background:new 0 0 20.1 26.3;"
	 xml:space="preserve">
<style type="text/css">
<![CDATA[
	.st0{fill:#E50E63;}
]]>
</style>
<path class="st0" d="M19.7,9.8c-0.5-1.6-1.8-2.9-2.6-3.7l-0.2-0.2c-0.2-0.2-0.4-0.3-0.6-0.6c-0.9-0.9-2.2-2.2-2.6-2.8
	c-0.6-0.8-1.2-1.7-2-2c-0.7-0.3-1.4-0.3-1.9-0.4l-0.2,0C9,0.2,7.8,0.6,7.3,1C7.1,1.2,6.8,1.6,6.6,2.1C6.4,2.3,6.3,2.6,6.2,2.9
	c0,0,0,0.1,0,0.1C6.1,3.3,6,3.4,6,3.6c0,0.3,0,1.2,0.8,1.4c0.4,0.2,0.9,0.4,1.3,0.3c0.2-0.1,0.4-0.2,0.5-0.5c0,0,0,0,0-0.1
	c0,0,0,0,0,0c0-0.1,0.1-0.1,0.1-0.2c0-0.1,0-0.1-0.1-0.2s-0.1,0-0.2,0C8.5,4.4,8.5,4.5,8.4,4.5c0,0,0,0-0.1,0C8.3,4.4,8.2,4.1,8.2,4
	c0-0.1,0.3-0.2,0.6-0.2C9,3.8,9,3.9,9,3.9c0.2,0.6,0,1.2-0.3,1.6C8.4,5.8,7.3,6.4,6.6,6.9C6.2,7.1,5.9,7.2,5.7,7.4L5.5,7.5
	c-0.9,0.5-2.1,1.3-3.7,3c-0.8,0.9-1.6,3.1-1.6,3.3l-0.1,1.1c0,0.1,0,0.1,0,0.2l3.9,9.9c0,0.1,0.1,0.2,0.2,0.2c0,0,0,0,0.1,0l0,0l0,0
	c0.1,0,0.2,0.1,0.3,0.1c0,0,0.1,0,0.2,0c0.5,0.2,1.3,0.4,1.5,0.5C7.4,26,9,26.3,10,26.3c0.1,0,0.2,0,0.3,0c4.6-0.4,6.2-1.2,6.7-1.6
	c0,0,0,0,0,0c0.1,0,0.2-0.1,0.2-0.2l0-0.1c0,0,0,0,0,0l2.5-11C19.8,13.1,20.4,11.8,19.7,9.8z M18.1,8.3c0.6,1.2,0.8,2.7,0.4,3.9
	c0,0,0,0,0,0l-0.1,0.2c-0.2,0.1-0.5,0.1-0.8,0.2c-0.1,0-0.3,0.1-0.5,0.1l-0.1-0.2c1-1.6,1.3-2.9,0.8-4.6C17.9,8,18,8.2,18.1,8.3z
	 M9.7,3.8C9.6,3.3,9.2,3.1,8.8,3.1c-0.5,0-1.1,0.3-1.2,0.7C7.5,4,7.5,4.2,7.5,4.3c0,0,0,0,0,0C7.5,4.2,7.4,4.1,7.4,4
	C7.3,3.4,7.7,2.7,8.6,2.5l0.1,0c0.4-0.1,0.8,0.2,1,0.6C10,3.8,9.8,5.6,9.3,6.2l0,0C9.1,6.3,9.1,6.4,9,6.5C8.4,7.1,8,7.7,7.2,8.1
	C7,8.2,6.7,8.4,6.4,8.5C5.5,8.9,4.7,9.3,4,10.1l-0.1,0.1c-0.7,0.7-1.6,2.2-2,3.4c-0.3,0-0.6,0-0.9,0c0.3-0.7,0.8-2,1.3-2.6
	c1.5-1.6,2.7-2.4,3.5-2.9L6,8c0.2-0.1,0.5-0.3,0.9-0.5C7.8,7,8.9,6.4,9.2,6C9.7,5.4,9.9,4.6,9.7,3.8z M7.1,4.3
	c-0.3-0.4-0.3-0.8,0-1.4l0-0.1c0,0,0-0.1,0.1-0.1C7.8,1.9,8.2,1.9,9,2l0.1,0c0.7,0.1,1.1,0.6,1.2,1.7c0.2,1.8-1,3.5-2.1,4.5
	C7.8,8.5,7.4,8.8,7,9c-0.5,0.2-0.9,0.5-1.4,1c-0.9,0.9-2,2-2.2,3.6c-0.4,0-0.8,0-1.1,0c0.4-1.1,1.2-2.6,1.9-3.2l0.1-0.1
	c0.7-0.7,1.5-1.1,2.3-1.5c0.3-0.1,0.6-0.3,0.9-0.4c0.8-0.4,1.3-1,1.8-1.6c0.1-0.1,0.2-0.2,0.3-0.3l0,0c0.6-0.7,0.8-2.6,0.4-3.4
	C9.7,2.6,9.2,2.2,8.8,2.2c-0.1,0-0.1,0-0.2,0l-0.1,0c-1,0.2-1.5,1-1.4,1.8c0,0.1,0.1,0.2,0.1,0.2C7.2,4.3,7.2,4.3,7.1,4.3z
	 M16.6,7.3L16.6,7.3c0.6,2.2,0,2.9-0.7,3.8c-0.4,0.4-0.8,0.9-1.1,1.6c0,0,0,0-0.1,0l-0.4,0.4c-0.3,0-0.7,0.1-1,0.1l-0.2-0.2
	c0.1-0.7,0.6-1.2,1.1-1.8c0.8-0.9,1.8-2,1.5-4.1l0-0.2c-0.1-0.6-0.2-0.9-0.3-1.2c0,0,0,0,0,0C16,6.2,16.5,6.7,16.6,7.3z M10.6,3.7
	C10.5,2.5,10,1.8,9.1,1.7L9,1.7c-0.2,0-0.4,0-0.6,0h0c0.6-0.1,1.3,0,1.6,0.3c0.2,0.2,0.4,0.5,0.5,0.7c0.9,3-1.1,5.4-2.9,6.9L7.6,9.7
	c-1.7,1.4-2,2.1-2.5,3.8L5,13.6c-0.5,0-0.9,0-1.4,0c0.2-1.5,1.2-2.6,2.1-3.4c0.5-0.5,0.9-0.7,1.4-0.9C7.5,9,7.9,8.8,8.4,8.4
	C9.6,7.4,10.9,5.6,10.6,3.7z M18,13.6c0.3-0.1,0.6-0.2,0.9-0.3l0,0.1c0,0,0,0,0,0L18.3,16l-1.8,8.1c-0.2,0.1-0.8,0.5-2.2,0.8
	l1.5-10.8c0,0,0-0.1,0-0.1l0,0C16.8,13.9,17.5,13.7,18,13.6z M0.8,14.8l0-0.3c0.5,0,1.4,0,2.4,0.1l0.3,0.4l2.8,10
	c-0.5-0.1-1.3-0.4-1.7-0.5L0.8,14.8z M7.6,14.5L7.9,15l0.7,10.4l-0.5,0c-0.1,0-0.2,0-0.3-0.1L7.8,25l-0.1,0.3
	c-0.3-0.1-0.6-0.1-0.9-0.2v0c0,0,0,0,0,0L4,14.9l0.4-0.3C5.4,14.6,6.5,14.5,7.6,14.5z M11.6,14.4L11.6,14.4l-0.3,11.1
	c-0.4,0-0.7,0.1-1.1,0.1c-0.1,0-0.3,0-0.5,0c0,0,0,0,0,0l0,0l0,0l-0.5-0.1L8.4,15c0,0,0,0,0,0l0.3-0.5C9.7,14.4,10.7,14.4,11.6,14.4
	z M15.3,14.1L15.3,14.1C15.4,14.1,15.4,14.1,15.3,14.1l-1.5,11c-0.6,0.1-1.2,0.2-2,0.3l0.3-10.9l0.2-0.2c0.6,0,1.1-0.1,1.7-0.1
	c0,0,0,0,0,0v0C14.4,14.2,14.9,14.1,15.3,14.1z M11.3,13.4L11.3,13.4L11.3,13.4C11.3,13.4,11.3,13.4,11.3,13.4z M16.8,12.9l0.1-0.1
	l0.1,0.1C16.9,12.8,16.8,12.8,16.8,12.9z M14.8,13.1L14.8,13.1C14.8,13.1,14.8,13.1,14.8,13.1L14.8,13.1
	C14.9,13.1,14.8,13.1,14.8,13.1z M15.6,7l0,0.2c0.3,1.9-0.7,3-1.5,3.9c-0.5,0.6-1,1.1-1.1,1.9c0,0,0,0,0,0l-0.2,0.3
	c-0.3,0-0.7,0-1.1,0.1l-0.1-0.2c0.4-1.1,1.1-1.9,1.7-2.7c1.1-1.4,2.2-2.8,1.4-5l0-0.1c-0.1-0.2-0.3-0.7-0.6-1.2
	c0.2,0.2,0.5,0.5,0.7,0.8C15.3,5.7,15.4,6,15.6,7z M14.1,4.8c0.2,0.3,0.3,0.5,0.3,0.6l0,0.1c0.8,2-0.2,3.3-1.3,4.7
	c-0.6,0.8-1.3,1.6-1.7,2.7c0,0,0,0,0,0l-0.4,0.4c-0.3,0-0.7,0-1.1,0c0-0.1,0-0.1,0-0.2c0.2-0.6,0.2-0.8,0.9-1.7
	c0.3-0.4,0.7-0.8,1-1.1c0.3-0.4,0.7-0.8,1.1-1.3l0.1-0.1c1-1.2,1.2-2.4,1.2-3.8C14.1,5.2,14.1,5,14.1,4.8z M12.7,8.9L12.7,8.9
	c-0.5,0.6-0.8,1-1.2,1.4c-0.3,0.4-0.6,0.7-1,1.1c-0.7,0.9-0.8,1.1-1,1.8c0,0.1,0,0.2-0.1,0.2c-0.4,0-0.7,0-1.1,0
	c0.4-1.6,1.6-2.9,2.7-4.1l0.3-0.3C13.2,7.2,13.7,5,13,2.9c0.1,0.2,0.2,0.3,0.3,0.3c0.2,0.4,0.6,1.3,0.6,2
	C13.8,6.7,13.6,7.8,12.7,8.9z M11.2,8.9l-0.3,0.3c-1.2,1.3-2.4,2.6-2.8,4.3c-0.2,0-0.5,0-0.7,0c0,0,0,0,0,0h0c-0.2,0-0.3,0-0.5,0
	c0.6-1.4,1.6-2.5,2.6-3.7c0.2-0.3,0.5-0.6,0.7-0.8l0.1-0.1c2-2.3,2-5.5,0.8-7c-0.5-0.6-1.1-0.9-1.9-0.9c0,0-0.1,0-0.1,0
	c0.2,0,0.3-0.1,0.4-0.1h0l0.1,0c0.3,0,0.7,0,1.1,0.1c0.7,0.3,1.4,0.9,1.8,1.7C13.9,5.5,12.3,7.8,11.2,8.9z M7.8,1.6
	C9.1,0.9,10.2,1,11,2c1.1,1.4,1.1,4.5-0.8,6.7l-0.1,0.1C9.9,9,9.6,9.3,9.4,9.6c-1.1,1.3-2.1,2.4-2.7,3.9c-0.5,0-0.9,0-1.4,0
	c0.6-1.8,0.8-2.3,2.5-3.7l0.1-0.1c1.9-1.5,3.9-4,3-7.1c-0.1-0.3-0.3-0.6-0.6-0.9C9.8,1.4,9.1,1.3,8.4,1.4C8.1,1.5,7.8,1.6,7.6,1.8
	c0,0,0,0,0-0.1C7.7,1.7,7.7,1.6,7.8,1.6z M19.1,10c0.3,1,0.3,1.8,0.2,2.3l-0.2-0.1l0.1,0.3L19,12.2l-0.1,0c0,0-0.1,0-0.1,0l0-0.1
	c0.3-0.9,0.2-1.9,0-2.9C18.9,9.6,19,9.8,19.1,10z M16.9,12.4C16.8,12.4,16.8,12.4,16.9,12.4l-0.5,0.5C16,13,15.6,13,15.2,13.1
	L15,12.9c0.3-0.7,0.7-1.2,1.1-1.6c0.8-0.9,1.4-1.8,0.8-4l0-0.1c0-0.2-0.1-0.3-0.2-0.5c0.2,0.2,0.5,0.5,0.7,0.7
	C18.1,9.4,18,10.7,16.9,12.4z"/>
</svg>
