<?xml version="1.0" encoding="utf-8"?>
<!-- Generator: Adobe Illustrator 16.0.0, SVG Export Plug-In . SVG Version: 6.00 Build 0)  -->
<!DOCTYPE svg PUBLIC "-//W3C//DTD SVG 1.1//EN" "http://www.w3.org/Graphics/SVG/1.1/DTD/svg11.dtd">
<svg version="1.1" id="Layer_1" xmlns="http://www.w3.org/2000/svg" xmlns:xlink="http://www.w3.org/1999/xlink" x="0px" y="0px"
	 width="101.7px" height="14.7px" viewBox="0 0 101.7 14.7" style="enable-background:new 0 0 101.7 14.7;" xml:space="preserve">
<style type="text/css">
<![CDATA[
	.st0{fill:#E50E63;}
]]>
</style>
<rect y="6.6" class="st0" width="33.5" height="0.7"/>
<rect x="68.2" y="6.6" class="st0" width="33.5" height="0.7"/>
<g>
	<path class="st0" d="M64.6,4.5c0-0.1,0-0.1-0.1-0.1c0,0-0.1,0-0.2,0c-0.5,0.1-4.7,1.7-6,2.1c0-0.1,0-0.2-0.1-0.3
		c-0.3-1-1.3-1.7-2.8-2.2c-1.2-0.4-2.8-0.6-4.5-0.6c-2.3,0-4.4,0.4-5.2,1c-0.6,0.4-1,1.1-1.2,1.7c-0.2-0.1-0.4-0.2-0.8-0.3l0,0
		c-0.5-0.2-1.2-0.5-1.7-0.8L42,4.9c-0.2-0.1-0.5-0.2-0.8-0.4l0,0c-0.6-0.3-0.8-0.4-0.9-0.4c-0.1,0-0.2,0.1-0.2,0.1
		c-0.1,0.2-0.1,0.7-0.1,1.6c0,0,0,0,0,0c0,0,0,0.1,0,0.2c0,0.5,0,1.1-0.1,1.6c0,0-0.1,0.1,0,0.2c0,0,0,0.1,0,0.1
		c0,0.9-0.1,1.7-0.1,2c0,0.1,0,0.1,0.1,0.2c0,0,0.1,0,0.1,0c0,0,0,0,0,0c0,0,0,0,0.1,0c1.9-1.2,3.4-2.1,3.5-2.1c0.1,0,0.1,0,0.1-0.1
		c0.1-0.1,0.6-0.3,0.9-0.4c0.1,0.4,0.2,0.8,0.5,1.2L45,8.7c1,1.4,4.7,1.9,7.6,1.9c1.4,0,2.7-0.1,3.5-0.3c0.9-0.2,1.6-0.8,2-1.6
		c0.1-0.2,0.2-0.4,0.2-0.6c0.1,0,0.2,0.1,0.5,0.1l0.1,0c0.2,0,0.6,0.2,1.1,0.3c2.8,0.8,3.3,1,3.4,1l0,0c0,0,0,0,0.1,0l0.1,0
		c0,0,0,0,0,0c0,0,0,0,0,0C63.9,9,64.7,5.1,64.6,4.5z M58,7.5l-3.8-0.1c0.2-0.3,0.4-0.7,0.6-1l3.2,0C58.1,6.7,58.1,7.1,58,7.5z
		 M56,9.9c-0.1,0-0.1,0-0.2,0l-3.5,0c0.1-0.1,0.2-0.3,0.4-0.5c0.1-0.2,0.3-0.4,0.5-0.6L57.4,9C57,9.4,56.5,9.7,56,9.9z M44.9,6.6
		l3.9-0.3c0.1,0.3,0.2,0.7,0.4,1l-4.3,0.2C44.9,7.2,44.9,6.9,44.9,6.6z M49.3,4.4c0-0.1,0.1-0.2,0.2-0.2C49.6,4.1,49.7,4,49.9,4l0,0
		c0.8,0,1.8,0.7,1.9,0.9C51.9,5,51.9,5,52,5c0.1,0,0.1,0,0.2-0.1c0.6-0.7,1.2-1.1,1.9-0.8c0.4,0.1,0.6,0.3,0.7,0.6
		c0.3,1.1-1.4,3.2-2.4,4.5c-0.3,0.3-0.5,0.6-0.7,0.8C49.7,8.3,48.7,5.5,49.3,4.4z M55.2,5.2l2,0.1c0.3,0.3,0.6,0.6,0.7,0.9l-3,0
		C55.1,5.8,55.2,5.5,55.2,5.2z M55.2,4.9c0-0.1,0-0.2,0-0.3c0-0.2-0.1-0.3-0.2-0.4c0.2,0,0.3,0.1,0.5,0.1c0.6,0.2,1,0.4,1.4,0.6
		L55.2,4.9z M52,4.5c-0.3-0.3-0.8-0.6-1.4-0.8c0.8,0,1.5,0,2.3,0.1C52.6,4,52.3,4.2,52,4.5z M49,4l-1.3,0c0.5-0.1,1-0.2,1.5-0.2
		C49.2,3.9,49.1,3.9,49,4z M48.9,4.3c-0.1,0.2-0.2,0.5-0.2,0.8l-3.1,0.1C45.7,5,45.9,4.9,46,4.7c0,0,0,0,0.1,0
		c0.2-0.1,0.5-0.3,0.8-0.4L48.9,4.3z M48.7,5.3c0,0.2,0,0.5,0.1,0.7L45,6.3c0.1-0.3,0.2-0.6,0.4-0.9L48.7,5.3z M49.3,7.5
		c0.2,0.3,0.3,0.7,0.6,1l-4.2,0.3c-0.1-0.1-0.2-0.2-0.3-0.3l-0.1-0.1C45.1,8.2,45,7.9,45,7.7L49.3,7.5z M50,8.7
		c0.2,0.3,0.5,0.6,0.7,0.9l-2.4,0.1C47.3,9.6,46.5,9.3,46,9L50,8.7z M50.9,9.9c0.1,0.1,0.2,0.2,0.3,0.3c-0.6,0-1.3-0.1-1.9-0.2
		L50.9,9.9z M52.1,10.2l2,0C53.5,10.2,52.8,10.2,52.1,10.2C52.1,10.2,52.1,10.2,52.1,10.2z M53.3,8.7c0.3-0.3,0.5-0.7,0.8-1.1
		L58,7.7c-0.1,0.2-0.1,0.5-0.3,0.7c-0.1,0.1-0.1,0.2-0.2,0.3L53.3,8.7z M40.2,7.9c1-0.1,2.1-0.3,3-0.5l0.1,0
		c0.3-0.1,0.6-0.1,0.9-0.2c-0.2,0.1-0.6,0.2-0.8,0.4c0,0,0,0,0,0c-0.4,0.2-2.4,1.4-3.2,2C40.1,9,40.2,8.5,40.2,7.9z M40.2,7.5
		c0-0.5,0-0.9,0.1-1.3c0.8,0.2,3,0.6,3.8,0.6c-0.3,0.1-0.6,0.1-0.9,0.2l0,0C42.1,7.2,41.2,7.4,40.2,7.5L40.2,7.5z M40.3,5.7
		c0-0.5,0.1-0.9,0.1-1.2c0.1,0.1,0.4,0.2,0.5,0.3l0,0c0.4,0.2,0.7,0.4,0.9,0.5l0.1,0c0.5,0.3,1.3,0.6,1.8,0.8l0,0
		c0.2,0.1,0.3,0.1,0.4,0.2c0,0,0,0-0.1,0c0,0,0,0-0.1,0C43.5,6.4,41.1,5.9,40.3,5.7z M58.7,7.7c0.6,0,1.6,0.1,2.6,0.2l0,0
		C62.2,7.9,63.1,8,63.6,8c0,0,0,0,0.1,0c-0.1,0.5-0.2,0.9-0.3,1c-0.4-0.1-2.1-0.6-3.3-0.9L59.6,8c-0.3-0.1-0.5-0.1-0.6-0.2l-0.1,0
		c-0.2,0-0.3-0.1-0.3-0.1C58.6,7.7,58.7,7.7,58.7,7.7z M61.4,7.5L61.4,7.5c-1.1-0.1-2-0.2-2.6-0.2c3-0.8,4.7-1.2,5.2-1.4
		c-0.1,0.5-0.2,1.2-0.3,1.7C63.4,7.6,62.4,7.6,61.4,7.5z M64.1,5.5c-0.1,0-2,0.5-5.6,1.5c0,0,0-0.1,0-0.1c1.2-0.4,4.7-1.7,5.7-2.1
		C64.2,5,64.2,5.2,64.1,5.5C64.1,5.5,64.1,5.5,64.1,5.5z"/>
	<path class="st0" d="M53.8,4.8c-0.5-0.5-1.8,0.7-1.9,1.1c0,0-0.8-1.3-1.4-1c-2,0.7,1.1,3.7,1.3,4.1C52.1,8.1,54.7,5.7,53.8,4.8z"/>
</g>
</svg>
