<?xml version="1.0" encoding="utf-8"?>
<!-- Generator: Adobe Illustrator 16.0.0, SVG Export Plug-In . SVG Version: 6.00 Build 0)  -->
<!DOCTYPE svg PUBLIC "-//W3C//DTD SVG 1.1//EN" "http://www.w3.org/Graphics/SVG/1.1/DTD/svg11.dtd">
<svg version="1.1" id="Layer_1" xmlns="http://www.w3.org/2000/svg" xmlns:xlink="http://www.w3.org/1999/xlink" x="0px" y="0px"
	 width="157.9px" height="81.6px" viewBox="0 0 157.9 81.6" style="enable-background:new 0 0 157.9 81.6;" xml:space="preserve">
<style type="text/css">
<![CDATA[
	.st0{fill:#84C98B;}
]]>
</style>
<path class="st0" d="M0,2.5c-0.1,0.3,0.1,2.1,2.8,4C7.6,10,16.2,15.4,17.7,25C20,40,29.5,63.6,45.4,73.1c15.8,9.5,32.1,9.1,39.5,7.8
	c-4.1-2.5-3.9-5.1-3.9-5.1s25.5,4.4,46.9-17c-2.2,0.8-3.5,0.2-5.4-1c12.7-2.9,23.3-20.5,35.4-19.6c-7.1-13.7-26.5-14.5-32.6-11.3
	c1-5.6,5.9-7.4,5.9-7.4s-18-12.8-41.7-6.2c0.3-3.4,1.8-5,3.8-6.3c-14.7-5.3-29.1,1.7-42,9.5c-11.2,6.8-23.6,7.2-34.2-2.6
	C8.5,6.1,7.2,4.6,6.5,0.8C6.4,0.5,6.3,0,5.8,0C4.4,0.2,1.9,1.2,0.6,1.7C0.1,1.9,0.1,2.2,0,2.5"/>
</svg>
