<?xml version="1.0" encoding="utf-8"?>
<!-- Generator: Adobe Illustrator 16.0.0, SVG Export Plug-In . SVG Version: 6.00 Build 0)  -->
<!DOCTYPE svg PUBLIC "-//W3C//DTD SVG 1.1//EN" "http://www.w3.org/Graphics/SVG/1.1/DTD/svg11.dtd">
<svg version="1.1" id="Isolation_Mode" xmlns="http://www.w3.org/2000/svg" xmlns:xlink="http://www.w3.org/1999/xlink" x="0px"
	 y="0px" width="28.4px" height="8.3px" viewBox="0 0 28.4 8.3" style="enable-background:new 0 0 28.4 8.3;" xml:space="preserve">
<style type="text/css">
<![CDATA[
	.st0{fill:#FFFFFF;}
	.st1{fill:#FFFFFF;stroke:#FFFFFF;stroke-width:0.2;stroke-miterlimit:10;}
	.st2{fill-rule:evenodd;clip-rule:evenodd;fill:#FFFFFF;}
]]>
</style>
<path class="st1" d="M28.2,1.2c0,0-0.1,0-0.1,0c-0.6,0.1-5.5,1.9-6.9,2.5c0-0.1-0.1-0.3-0.1-0.4c-0.3-1.1-1.4-1.9-3.1-2.5
	C14.3-0.4,8.6,0.1,7.1,1.2C6.4,1.7,5.9,2.5,5.7,3.3C5.5,3.2,5.1,3,4.7,2.9C4.1,2.6,3.3,2.3,2.7,2c0,0,0,0,0,0L2.5,1.9
	c-0.2-0.1-0.6-0.3-1-0.5c-0.6-0.3-0.9-0.5-1-0.5C0.5,0.9,0.5,1,0.4,1C0.4,1.2,0.3,1.9,0.3,2.8c0,0,0,0,0,0c0,0,0,0.1,0,0.1
	c0,0.6-0.1,1.3-0.1,1.9c0,0-0.1,0.1-0.1,0.1c0,0,0,0.1,0,0.1c0,1-0.1,2-0.1,2.3c0,0,0,0.1,0,0.1c0,0,0.1,0,0.1,0c0,0,0,0,0.1,0
	c1.8-1.1,3.8-2.4,4-2.4c0,0,0.1,0,0.1-0.1c0.1-0.1,0.9-0.4,1.1-0.5c0,0.5,0.2,1,0.5,1.4l0.1,0.1c1.6,2.3,9.9,2.5,12.5,1.7
	c0.9-0.3,1.7-0.9,2.2-1.8c0.1-0.2,0.2-0.5,0.3-0.8c0.1,0.1,0.3,0.1,0.6,0.2l0.1,0c0.2,0.1,0.7,0.2,1.3,0.4c2.9,0.8,3.8,1.1,3.8,1.1
	c0,0,0,0,0.1,0l0.1,0c0,0,0,0,0,0c0,0,0,0,0,0C27.5,6.4,28.4,2,28.2,1.2C28.3,1.3,28.2,1.3,28.2,1.2z M0.7,1.2
	c0.2,0.1,0.5,0.3,0.8,0.4c0.4,0.2,0.8,0.4,1,0.5l0.1,0.1c0.6,0.4,1.4,0.7,2,0.9c0.4,0.2,0.8,0.3,1,0.4c0,0,0,0,0,0c0,0,0,0,0,0
	c-0.1,0-0.2,0-0.2,0c-0.1,0-0.2,0-0.3,0C4.6,3.6,1.3,3,0.5,2.8C0.6,2.1,0.6,1.5,0.7,1.2z M0.5,3.1c0.9,0.2,4,0.8,4.6,0.7
	c0.1,0,0.1,0,0.2,0c0.1,0,0.2,0,0.3,0c0,0,0,0,0,0C5,4,4.5,4.1,3.9,4.2C2.8,4.5,1.6,4.7,0.4,4.8C0.5,4.2,0.5,3.6,0.5,3.1z M5.2,4.4
	c-0.1,0-0.7,0.2-0.9,0.4c0,0,0,0,0,0C3.8,5,1.5,6.4,0.4,7.2c0-0.6,0-1.4,0.1-2.1C1.6,5,2.8,4.7,3.9,4.5C4.5,4.4,5,4.2,5.5,4.1
	c0,0.1,0,0.1,0,0.2C5.5,4.3,5.4,4.3,5.2,4.4z M6.3,5.9L6.3,5.9C5.3,4.4,5.9,2.5,7.1,1.5c0,0,0,0,0.1-0.1c1.2-0.9,4.9-1.3,8.1-0.9
	c-0.5,0.1-0.9,0.5-1.4,1c-0.4-0.4-1.5-1.1-2.4-1.1c-0.5,0-0.8,0.2-1,0.6c-0.9,1.5,0.5,4.9,2.8,6.8C10.4,7.7,7.2,7.1,6.3,5.9z
	 M10.8,1.2C10.9,1.1,10.9,1,11,0.9c0.2-0.1,0.3-0.2,0.6-0.2c0.9,0,2.1,0.8,2.3,1.1c0,0,0.1,0.1,0.1,0.1c0,0,0.1,0,0.1,0
	c0.8-0.9,1.4-1.3,2.3-1c0.5,0.2,0.7,0.4,0.9,0.8c0.4,1.3-1.6,3.7-2.8,5.2c-0.4,0.4-0.6,0.8-0.8,1C11.3,5.8,10.1,2.5,10.8,1.2z
	 M20.6,5.9c-0.4,0.8-1.2,1.4-2.1,1.7c-1,0.3-2.8,0.4-4.7,0.4c0.2-0.2,0.4-0.6,0.8-1c1.3-1.6,3.2-4,2.8-5.4c-0.1-0.3-0.3-0.5-0.5-0.7
	c0.3,0.1,0.7,0.2,1,0.3c1.6,0.5,2.7,1.3,3,2.3C21.1,4.1,21,5.1,20.6,5.9z M27,6.6L27,6.6c-0.3-0.1-2.5-0.7-3.8-1.1
	c-0.6-0.2-1.1-0.3-1.3-0.4l-0.1,0C21.5,5.1,21.3,5,21.3,5c0,0,0,0-0.1,0c0,0,0,0,0-0.1c0.4-0.1,2,0.1,3.4,0.2
	c1.2,0.1,2.3,0.2,2.7,0.2C27.2,5.9,27,6.5,27,6.6z M27.4,5c-0.4,0-1.6-0.1-2.8-0.2c-1.4-0.1-2.8-0.2-3.4-0.2c0,0,0-0.1,0-0.1l0.2,0
	c4-1,6.1-1.6,6.4-1.7C27.7,3.5,27.6,4.3,27.4,5z M27.9,2.6C27.8,2.5,27.8,2.5,27.9,2.6c-0.2,0-1,0.2-6.5,1.7c0,0-0.1,0-0.1,0
	c0-0.1,0-0.2,0-0.3C22.5,3.5,27,1.9,28,1.5C28,1.7,28,2.1,27.9,2.6z"/>
<g>
	<path class="st2" d="M13.9,2.9c0.1-0.4,1.6-1.8,2.1-1.2c1,1-1.9,3.7-2.3,4.7c-0.2-0.4-3.7-3.8-1.5-4.6C13,1.5,13.9,2.9,13.9,2.9
		L13.9,2.9z"/>
</g>
<g>
	<path class="st0" d="M20.5,6.4C20.5,6.4,20.4,6.4,20.5,6.4l-5.4-0.1C15,6.3,15,6.3,15,6.2c0-0.1,0.1-0.1,0.1-0.1l5.3,0.1
		C20.5,6.2,20.5,6.2,20.5,6.4C20.5,6.3,20.5,6.4,20.5,6.4z M18.7,7.7C18.6,7.7,18.6,7.8,18.7,7.7l-4.7,0c-0.1,0-0.1-0.1-0.1-0.1
		c0-0.1,0.1-0.1,0.1-0.1l4.6,0c0.1,0,0.1,0.1,0.1,0.1C18.7,7.7,18.7,7.7,18.7,7.7z M21.2,5C21.1,5,21.1,5,21.2,5l-5-0.1
		c-0.1,0-0.1-0.1-0.1-0.1c0-0.1,0.1-0.1,0.1-0.1l4.9,0.2C21.1,4.8,21.2,4.8,21.2,5C21.2,4.9,21.2,5,21.2,5z M21.1,3.4
		C21.1,3.5,21.1,3.5,21.1,3.4l-4.1,0c-0.1,0-0.1-0.1-0.1-0.1c0-0.1,0.1-0.1,0.1-0.1l4,0c0.1,0,0.1,0.1,0.1,0.1
		C21.2,3.4,21.1,3.4,21.1,3.4z M20.1,2.1C20.1,2.1,20.1,2.2,20.1,2.1l-2.7-0.1c-0.1,0-0.1-0.1-0.1-0.1c0-0.1,0.1-0.1,0.1-0.1
		l2.6,0.1C20.1,1.9,20.2,2,20.1,2.1C20.2,2.1,20.2,2.1,20.1,2.1z M12.9,7.4C12.9,7.4,12.9,7.4,12.9,7.4L9.3,7.6
		c-0.1,0-0.1-0.1-0.1-0.1c0-0.1,0.1-0.1,0.1-0.1l3.5-0.2c0.1,0,0.1,0.1,0.1,0.1C13,7.3,12.9,7.4,12.9,7.4z M12,6.1
		C11.9,6.1,11.9,6.1,12,6.1L6.5,6.5c-0.1,0-0.1,0-0.1-0.1c0-0.1,0.1-0.1,0.1-0.1l5.4-0.3C11.9,5.9,12,5.9,12,6C12,6,12,6.1,12,6.1z
		 M11,4.7C11,4.7,11,4.7,11,4.7L5.8,4.9c-0.1,0-0.1-0.1-0.1-0.1c0-0.1,0.1-0.1,0.1-0.1l5.2-0.2c0.1,0,0.1,0.1,0.1,0.1
		C11.1,4.6,11.1,4.7,11,4.7z M10.6,3.3C10.6,3.3,10.6,3.3,10.6,3.3L5.8,3.7c-0.1,0-0.1,0-0.1-0.1s0-0.1,0.1-0.1l4.8-0.4
		c0.1,0,0.1,0,0.1,0.1C10.7,3.2,10.6,3.3,10.6,3.3z M10.4,2.2C10.4,2.2,10.4,2.2,10.4,2.2L6.3,2.4c-0.1,0-0.1-0.1-0.1-0.1
		c0-0.1,0.1-0.1,0.1-0.1l4-0.1c0.1,0,0.1,0.1,0.1,0.1C10.5,2.1,10.5,2.2,10.4,2.2z M10.9,1C10.9,1,10.8,1.1,10.9,1l-3,0
		C7.8,1.1,7.8,1,7.8,0.9c0-0.1,0.1-0.1,0.1-0.1l2.9,0c0.1,0,0.1,0.1,0.1,0.1C10.9,1,10.9,1,10.9,1z"/>
</g>
</svg>
