<?xml version="1.0" encoding="utf-8"?>
<!-- Generator: Adobe Illustrator 16.0.0, SVG Export Plug-In . SVG Version: 6.00 Build 0)  -->
<!DOCTYPE svg PUBLIC "-//W3C//DTD SVG 1.1//EN" "http://www.w3.org/Graphics/SVG/1.1/DTD/svg11.dtd">
<svg version="1.1" id="Layer_1" xmlns="http://www.w3.org/2000/svg" xmlns:xlink="http://www.w3.org/1999/xlink" x="0px" y="0px"
	 width="254.1px" height="64.5px" viewBox="0 0 254.1 64.5" style="enable-background:new 0 0 254.1 64.5;" xml:space="preserve">
<style type="text/css">
<![CDATA[
	.st0{fill:#E50E63;}
	.st1{fill:#E50E63;stroke:#E50E63;stroke-width:0.3817;stroke-miterlimit:10;}
	.st2{display:none;}
]]>
</style>
<g>
	<path class="st0" d="M142.3,40c-0.3-1.9-0.7-3.8-0.8-5.7c0.4-0.3,0.8-0.7,1-1.1c0.2-0.4,0.4-0.9,0.4-1.5l0-0.1
		c0-0.7-0.1-1.6-0.5-2.7c-0.1-0.4-0.2-0.7-0.4-1.1c0,0,0-0.1-0.1-0.1c-0.1-0.3-0.2-0.6-0.4-0.9c-0.1-0.2-0.2-0.4-0.3-0.7
		c-0.1-0.3-0.2-0.5-0.3-0.8c0-0.1-0.1-0.3-0.2-0.4c-0.2-0.5-0.3-0.9-0.4-1.3c-0.4-1.8-1-3.3-1.9-4.2c-0.2-0.2-0.4-0.4-0.6-0.6
		c-1.2-0.9-2.4-0.9-3-0.8c0,0-1.7,0.1-2.7,0.2c-1,0.1-2.1,0.2-3.3,0.2c-0.8,0-1.8,0-2.8,0l-0.8,0c0-0.7,0.1-1.4,0.2-2
		c0.1-1.2,0.3-2.2-0.2-3c-0.4-0.7-1.2-1.1-2.7-1.3c-1.1-0.1-1.8,0.2-2.3,0.8c-0.1,0.1-0.2,0.3-0.3,0.5c-0.1,0.1-0.2,0.2-0.2,0.3l0,0
		l0,0c-0.1,0.2-0.2,0.4-0.2,0.6c0,0.1,0,0.3,0.1,0.4c-0.1,1-0.1,2.1,0,3.2l0,0.5c-2.1,0.2-3.5,0.6-4.3,1.4c-0.2,0.2-0.4,0.5-0.5,0.7
		l0,0.1c-1.1,3.5-2.6,9.4-3.6,13.4c-0.2,0.7,0,1.2,0.3,1.7c0.1,0.1,0.2,0.2,0.3,0.3c0.1,0.1,0.1,0.1,0.2,0.1
		c0.2,0.1,0.3,0.2,0.5,0.3c0,0,0,0,0,0l0,0h0c0.1,0.1,0.3,0.1,0.5,0.2c0,1.5-0.2,3.1-0.4,4.6c-0.4,4-0.8,7.9,1.1,10.2
		c1.1,1.3,2.8,2,5.1,2.1c2.1,0.1,4.4,0.2,6.8,0.2c1.3,0,2.6,0,3.9-0.1c3.4-0.1,6.3-0.4,8.5-0.8c1.3-0.2,2.3-0.7,3.1-1.4
		C143.9,49.2,143.1,44.8,142.3,40z M135.6,50.6c-0.4,0.1-1,0.1-1.5,0.1c-0.7,0-1.4,0-2,0.2c-0.4-3.1-0.3-7.2,1.2-9.3
		c0.7-1,1.3-1.5,1.9-1.5c0.1,0,0.1,0,0.2,0c0.7,0.1,1.3,0.8,1.8,1.8l0,0.1c0.1,0.2,0.2,0.5,0.3,0.7c0,0.1,0.2,0.6,0.2,0.7
		c0.6,2.1,0.8,4.6,1,6.6c-0.8,0-1.7,0.2-2.4,0.4C136.1,50.5,135.8,50.5,135.6,50.6z M135.8,38.4c0,0.3,0,0.7-0.1,1.1
		c-0.1,0-0.1,0-0.2,0c-0.1,0-0.2,0-0.3,0c-0.1,0-0.1,0-0.2,0c0-0.1-0.1-0.3-0.1-0.4c-0.1-0.2-0.2-0.5-0.3-0.7c0-0.1-0.1-0.2-0.1-0.3
		c0.1,0,0.3-0.1,0.4-0.1c0.3,0,0.6,0,0.9,0.1c0,0,0,0.1,0,0.1l0,0.1L135.8,38.4z M133.5,40.3c-0.3-0.3-0.6-0.7-0.9-1
		c0.4-0.4,0.8-0.7,1.2-0.9c0,0.1,0.1,0.2,0.1,0.4c0,0.1,0.1,0.2,0.1,0.2c0,0.1,0.1,0.3,0.1,0.4c0,0.1,0.1,0.2,0.1,0.4
		C134.1,39.8,133.8,40,133.5,40.3z M131.5,40.8c0.2-0.3,0.4-0.7,0.7-1c0.3,0.3,0.6,0.7,0.9,1c-0.1,0.1-0.2,0.3-0.3,0.4
		c-0.1,0.1-0.2,0.2-0.2,0.4C132.2,41.3,131.9,41,131.5,40.8z M136.5,38.2c0.6,0.2,1.1,0.6,1.5,1l-0.1,0.1c-0.3,0.3-0.7,0.6-1,0.9
		c-0.2-0.2-0.3-0.3-0.5-0.4c0-0.1,0-0.2,0-0.3C136.5,39.1,136.5,38.7,136.5,38.2z M137.8,41.4c-0.1-0.2-0.3-0.5-0.4-0.7
		c0.3-0.3,0.6-0.6,1-0.9l0.1-0.1c0.2,0.3,0.4,0.7,0.5,1C138.5,41,138.2,41.2,137.8,41.4z M138.1,42c0.3-0.1,0.5-0.2,0.8-0.4
		c0,0.1-0.1,0.2-0.1,0.4c-0.1,0.3-0.3,0.5-0.5,0.5C138.2,42.3,138.1,42.1,138.1,42z M132.3,42.1c-0.2,0.4-0.3,0.8-0.4,1.2
		c-0.6-0.4-0.8-0.9-0.7-1.5c0-0.1,0.1-0.3,0.1-0.4C131.6,41.6,131.9,41.9,132.3,42.1z M140.2,50.4c-0.2-0.2-0.4-0.3-0.7-0.4
		c0,0,0,0,0,0c-0.2-2-0.4-4.5-1-6.8c0-0.1,0-0.1,0-0.2c0.3-0.1,0.7-0.3,0.9-0.9c0.4-1,0.1-2-0.6-3c-0.6-0.7-1.4-1.3-2.2-1.6
		c-0.1,0-0.6-0.2-0.6-0.2c-0.4-0.1-0.7-0.1-1.1-0.1c-0.2,0-0.4,0.1-0.6,0.2c0,0-0.4,0.2-0.5,0.2c-0.5,0.3-1.1,0.7-1.6,1.2
		c-0.1,0-0.1,0.1-0.2,0.1c0,0.1-0.1,0.1-0.1,0.2c-0.7,0.8-1.2,1.7-1.3,2.5c-0.1,1,0.3,1.8,1.2,2.3c-0.5,2.4-0.4,5.3-0.1,7.1
		c-0.2,0.1-0.4,0.3-0.5,0.5c-0.2,0.4-0.2,0.8,0,1.4c-0.4,0-0.8,0-1.2,0c-3.4,0.1-7.3,0.1-10.6-0.1c-2.2-0.1-3.7-0.7-4.7-1.9
		c-1.8-2.1-1.4-5.8-1-9.7c0.1-1.4,0.3-3,0.4-4.5c0.8,0.2,1.9,0.3,3.2,0.3c1.6,0,3.4-0.1,4.8-0.2c1-0.1,1.9-0.1,2.6-0.1
		c3.7-0.1,9.2-0.3,14.1-1.3c0.9-0.2,1.6-0.4,2.1-0.7c0,0,0.1,0,0.1,0c0.2,1.8,0.5,3.7,0.8,5.5c0.8,4.6,1.5,8.6-0.5,10.7
		c-0.2,0.2-0.4,0.4-0.7,0.6C140.5,51,140.4,50.6,140.2,50.4z M128,22.9c1-0.3,2-1.7,1.8-3.7c0.2,0,0.5,0,0.7,0
		c-0.1,1.8-0.6,3.4-1.4,4.3c-0.3,0.3-0.6,0.5-0.9,0.6l0,0c-0.8,0.2-1.8-0.4-2.7-1.8c0.1-0.2,0.1-0.4,0.1-0.6
		C126.2,22.6,127.1,23.1,128,22.9z M138,22.6c0.4,0,0.8-0.1,1.2-0.7c0.1,0.3,0.2,0.6,0.4,1c-0.3,0.4-0.7,0.6-1.2,0.6
		c-0.1,0-0.3,0-0.4,0c-0.2,0-0.3-0.1-0.5-0.1l0,0c-0.4-0.2-0.8-0.4-1.1-0.7c-0.2-0.2-0.3-0.4-0.4-0.6l-0.1-0.1
		c-0.1-0.1-0.1-0.2-0.1-0.3c0.1-0.2,0.1-0.3,0.2-0.5C136.3,21.9,137.1,22.6,138,22.6C137.9,22.6,137.9,22.6,138,22.6z M115.1,35.6
		c0.1-0.1,0.2-0.2,0.3-0.3c0.2,0.2,0.4,0.4,0.7,0.4c0.2,0,0.5,0,0.7-0.2c0.1,0.2,0.1,0.3,0.2,0.5c-0.2,0.3-0.5,0.4-0.8,0.4
		C115.7,36.3,115.3,36,115.1,35.6z M125.6,28.6c0.2,1,0.7,2.2,1.4,2.6c0.2,0.1,0.4,0.1,0.6,0.1c0.3,0,0.6-0.1,0.9-0.3
		c0.9-0.5,1.3-2,1.4-3c0.1,0,0.2,0.1,0.3,0.1l-0.1,0.3l0,0.2c-0.4,1.6-1,3.1-2.3,3.4c-0.6,0.1-1.2,0-1.6-0.3
		c-0.8-0.7-1.1-2.1-1.1-3.2C125.2,28.5,125.4,28.6,125.6,28.6z M124.4,28.1C124.4,28.1,124.4,28.1,124.4,28.1c-0.4,1-1,2-1.8,2.6
		c-0.1,0-0.4,0.3-0.5,0.3c-0.4,0.2-0.7,0.3-1,0.3c-0.9-0.1-1.2-1.5-1.3-2.7c0,0,0,0,0.1,0l0,0c0.1,0,0.2,0,0.3,0l0,0.2
		c0.2,0.8,0.3,1.5,0.9,1.7c0.4,0.2,0.8,0.1,1.5-0.3C123.4,29.8,124,28.9,124.4,28.1C124.4,28.1,124.4,28.1,124.4,28.1z M135.4,28.6
		c-0.1,0.7-0.3,2-1.2,2.7c0,0-0.1,0.1-0.1,0.1c-0.2,0.2-0.5,0.3-0.8,0.3c-0.5,0.1-0.9,0-1.2-0.2c-0.7-0.5-0.9-1.6-1.1-2.4l0-0.1
		c-0.1-0.3-0.1-0.6-0.1-0.8c0.1,0,0.2,0,0.3-0.1c0.2,0.9,0.4,2,1.2,2.4c0.2,0.1,0.4,0.2,0.7,0.2c0.2,0,0.5-0.1,0.8-0.2
		c1-0.4,1.3-1.5,1.5-2.2C135.4,28.4,135.4,28.5,135.4,28.6L135.4,28.6z M132.6,34.8c0.2,0,0.4,0,0.6-0.1c0.1,0.1,0.2,0.3,0.3,0.4
		c-0.2,0.3-0.5,0.4-0.9,0.4c0,0,0,0,0,0c-0.3,0-0.6-0.2-0.8-0.5c0.1-0.1,0.2-0.3,0.3-0.4C132.3,34.7,132.5,34.8,132.6,34.8z
		 M133.5,32.4C133.5,32.4,133.5,32.4,133.5,32.4c0.3,1.7,1.1,1.8,1.5,1.9c1.1,0,2.2-1.2,2.4-2.6c0,0,0.1,0,0.1,0
		c-0.2,1.4-1,2.9-2.1,3.3c-0.5,0.2-1.1,0.1-1.5-0.2c-0.1-0.1-0.6-0.7-0.6-0.8c-0.2-0.5-0.4-1-0.4-1.5
		C133.2,32.4,133.4,32.4,133.5,32.4z M126.3,28c-0.1,0-0.2,0-0.3,0c-0.3,0-0.9-0.1-1.5-0.6c0,0-0.3-0.3-0.4-0.4
		c-0.6-0.6-1-1.4-1.3-2.3c0.1,0,0.3-0.1,0.4-0.1c0.6,1.4,1.5,2.2,2.4,2.2l0.1,0c0.8,0,1.5-0.8,1.9-2.1c0.1,0,0.2,0,0.3,0
		c0,0.1,0,0.2,0,0.2C127.8,26.7,127.2,27.8,126.3,28z M137.9,34.6c-0.2,0-0.5-0.1-0.6-0.3c0.1-0.1,0.2-0.2,0.2-0.4
		c0.2,0.1,0.4,0.2,0.6,0.2c0.2,0,0.3-0.1,0.5-0.2c0.1,0.1,0.1,0.2,0.2,0.2C138.5,34.5,138.2,34.6,137.9,34.6z M136.1,26.5
		c0.8-0.1,1.4-1,1.5-2.4c0.1,0,0.1,0,0.2,0c0,0,0.1,0,0.1,0c-0.2,0.8-0.6,2.2-1.3,2.9c0,0-0.3,0.2-0.3,0.3c-0.1,0.1-0.3,0.1-0.4,0.2
		c-1,0.1-1.8-1.4-2.2-2.9c0,0,0-0.1,0-0.1c0,0,0-0.1,0-0.1c0.1-0.1,0.2-0.1,0.3-0.2C134.5,25.9,135.4,26.5,136.1,26.5z M130.8,27.6
		c-0.1,0-0.4,0-0.4-0.1c-0.8-0.3-1.4-1.3-1.8-2.8l0-0.1c0,0,0,0,0-0.1c0.1,0,0.2-0.1,0.3-0.2c0.3,1.3,1.3,2,2.1,2
		c0.8,0,1.4-0.7,1.6-1.8c0.1,0,0.3,0,0.4,0C132.7,26.7,131.7,27.6,130.8,27.6z M120,27c0.1,0,0.2,0,0.3,0c1.1-0.2,1.4-1.6,1.5-2.2
		c0.1,0,0.2,0.1,0.3,0.1c-0.3,1-0.9,3.2-2.2,3.2c-1.5,0-2-2.1-2.2-3.4c0.2,0,0.3-0.1,0.5-0.1l0,0c0,0.1,0.1,0.3,0.1,0.4
		c0,0.2,0.1,0.5,0.2,0.7C118.9,26.5,119.4,27,120,27z M117.3,30.2c0.7,0,1.5-0.5,1.8-1.8c0,0,0.1,0,0.1,0.1c-0.1,1.3-0.9,3-2.3,3
		c0,0,0,0,0,0c-1.4,0-2.1-2.4-2.5-3.8c0.3,0.2,0.5,0.3,0.8,0.3C115.5,29.5,116.5,30.2,117.3,30.2z M117.2,35c0,0-0.1-0.5-0.2-0.5
		c-0.2-0.6-0.3-1.4-0.3-2.3c0.1,0,0.1,0,0.2,0l0.1,0c0.1,0,0.3,0,0.4,0c0,0,0,0.1,0,0.1c0.1,1.1,0.2,2.6,1,3.1
		c0.3,0.2,0.7,0.2,1.1,0c1-0.5,1.5-2.5,1.6-3.5c0.1,0,0.1,0,0.2,0c0,0,0,0,0,0c0,0.1,0,0.1,0,0.2c0,0,0,0.1,0,0.1l-0.1,0.2
		c-0.3,1.4-0.8,3.5-1.9,3.8c-0.4,0.1-0.8,0.1-1.1-0.1C117.7,36,117.4,35.6,117.2,35z M121,35c0.2,0.2,0.4,0.2,0.5,0.2
		c0.3,0,0.5-0.1,0.7-0.3c0.1,0.2,0.2,0.4,0.3,0.5c-0.2,0.4-0.5,0.6-0.8,0.6c-0.3,0-0.7-0.2-0.9-0.6C120.9,35.2,120.9,35.1,121,35z
		 M123.6,35.7c-0.1,0-0.1-0.1-0.2-0.1c-0.7-0.6-1-1.9-1.3-3c-0.1-0.3-0.1-0.5-0.2-0.8c0.1,0,0.3-0.1,0.4-0.2c0,0.1,0.1,0.2,0.1,0.3
		l0,0.1c0.1,0.2,0.1,0.5,0.2,0.8c0.1,0.3,0.2,0.6,0.3,0.8c0.4,1.1,1,1.6,1.8,1.5c1.1-0.2,1.4-1.7,1.6-2.6c0.1,0,0.2,0.1,0.3,0.1l0,0
		c0,0.1-0.1,0.2-0.1,0.3c0,0,0,0.1,0,0.1c-0.3,0.9-0.9,2.5-1.9,2.7c-0.4,0.1-0.7,0.1-0.9,0L123.6,35.7z M126.3,35.2
		c0.2,0.2,0.6,0.4,0.9,0.3c0.2,0,0.4-0.2,0.5-0.3c0.1,0.1,0.2,0.2,0.2,0.4c-0.1,0.1-0.1,0.2-0.2,0.2c0,0-0.1,0.1-0.1,0.1
		c-0.2,0.1-0.3,0.2-0.5,0.2l-0.1,0c-0.3,0-0.5-0.1-0.7-0.3c0-0.1-0.1-0.1-0.1-0.2c0,0,0,0,0-0.1C126.2,35.3,126.2,35.2,126.3,35.2z
		 M127.8,34c-0.1-0.3-0.2-0.6-0.3-0.9l0-0.1c0-0.1-0.1-0.2-0.1-0.3c0.2,0,0.4,0,0.6-0.1c0,0,0,0,0.1,0c0.2,1.5,0.9,2.4,1.9,2.4
		c0.9,0,2-1,2.3-2.8c0,0,0.1,0,0.1,0c-0.2,0.6-0.4,1.3-0.7,1.8c-0.2,0.4-0.5,0.7-0.8,1.1l-0.1,0.1c-0.2,0.2-0.4,0.3-0.6,0.3
		c-1.1,0.3-1.7-0.1-2.3-1.5C127.8,34,127.8,34,127.8,34z M137.9,31c-1-0.1-1.6-1-1.8-2.5l0,0c0,0,0-0.1,0-0.2c0-0.1,0-0.1,0-0.2
		c0,0,0,0,0,0c0.1,0,0.3-0.1,0.4-0.1c0.2,1.2,0.9,2,1.7,2.1c0.8,0.2,1.6-0.4,2.2-1.4c0.2,0,0.4-0.1,0.6-0.1
		C140.3,30.3,138.9,31.1,137.9,31z M125,20.6c0,0.6-0.1,1.1-0.2,1.6c0,0,0,0.1,0,0.1c-0.2,0.6-0.5,1-0.8,1.3
		c-0.1,0.1-0.3,0.2-0.4,0.3c0,0-0.3,0.1-0.3,0.2c-0.4,0.2-0.9,0.2-1.3,0.1c-0.7-0.2-1.2-0.9-1.5-1.8c0.1-0.2,0.1-0.4,0.2-0.6
		c0-0.1,0.1-0.2,0.1-0.4c0.5,0.8,1.2,1.2,2,1.1c1.2-0.2,2.2-1.7,2.2-3.3l0.1,0c0,0.4,0,0.7,0,1.1C125,20.2,125,20.5,125,20.6z
		 M115.5,26.5c0.7-0.1,1.2-0.9,1.4-2c0,0,0.1,0,0.1,0c0,0.1,0,0.2,0,0.3c0,0.1,0,0.2,0,0.3c0,0,0,0.1,0,0.1
		c-0.2,0.9-0.7,1.9-1.4,2.1c-0.4,0.1-0.9-0.1-1.4-0.6l-0.1-0.1c0.1-0.2,0.1-0.5,0.2-0.7C114.7,26.5,115.2,26.5,115.5,26.5z
		 M141,33.9L141,33.9c-0.2,0.1-0.3,0.2-0.5,0.3c-0.3,0.1-0.5,0.1-0.8,0c-0.7-0.3-1.2-1.3-1.3-2.5c0.1,0,0.3,0,0.4-0.1
		c0.3,1.1,1,1.7,1.8,1.7c0.5,0,1.1-0.3,1.5-0.8C141.8,33.3,141.3,33.6,141,33.9z M139.9,28c-0.5-0.2-0.9-1-1.1-2.1c0,0,0,0,0,0
		s0,0,0,0l0,0l0,0c-0.1-0.5-0.2-1.1-0.2-1.6c0.1,0,0.1,0,0.2,0c0,0,0,0.1,0,0.1l0,0.1c0.2,0.9,0.5,2.4,1.3,2.7
		c0.1,0,0.2,0.1,0.3,0.1h0c0.2,0,0.3,0,0.5-0.1l0.3,0.8C140.7,28.1,140.3,28.2,139.9,28z M135.2,21.2c0,0.1-0.1,0.4-0.1,0.4
		c-0.2,0.6-0.5,1.1-0.8,1.5c0,0.1-0.3,0.3-0.3,0.4c-0.2,0.2-0.4,0.3-0.5,0.4c0,0-0.1,0-0.1,0c-0.1,0-0.1,0-0.2,0.1
		c-0.8,0.2-1.7-0.4-2.5-2l0,0c0,0,0,0,0,0c0.1-0.2,0.1-0.4,0.2-0.5c0.6,1.1,1.3,1.3,1.8,1.3c0.1,0,0.2,0,0.3,0
		c1.2-0.2,2.4-2.1,2.6-4c0.1,0,0.1,0,0.2,0C135.6,19.6,135.4,20.4,135.2,21.2z M124.9,16.3c-0.1,0.6-0.2,1.3-0.2,2.1
		c-0.6,0-1.1,0-1.7,0c-1,0-1.8,0-2.5,0.1c0-0.2,0-0.3,0-0.5c0-0.9-0.1-1.8-0.1-2.5c0.2,0.1,0.4,0.2,0.6,0.2h2.7c0.5,0,1-0.3,1.2-0.7
		C125.1,15.4,125,15.8,124.9,16.3z M123.9,13.2h-2.5c0.3-0.2,0.8-0.3,1.4-0.2C123.2,13,123.6,13.1,123.9,13.2
		C123.9,13.2,123.9,13.2,123.9,13.2z M117,22.5c0.4,0.2,0.8,0.3,1.2,0.1c0.9-0.3,1.4-2,1.6-3.2c0-0.1,0-0.1,0.1-0.2
		c0.2,0,0.4,0,0.5,0c0,1.9-0.9,3.6-1.9,4.4c-0.1,0-0.2,0.1-0.2,0.1c0,0-0.1,0-0.1,0.1c-0.1,0.1-0.5,0.2-0.6,0.2
		c-0.9,0.1-1.6-0.8-2.1-2.6l0.1-0.4c0,0,0,0,0-0.1C116,21.5,116.4,22.2,117,22.5z M112.2,33.9c0.1,0.2,0.1,0.5,0.3,0.7
		c0.2,0.3,0.5,0.5,0.8,0.6c0.4,0.1,0.7,0,1-0.3c0.9-0.7,1.2-2.4,1.3-3.2c0.1,0.1,0.3,0.2,0.4,0.3c-0.1,0.8-0.3,1.5-0.7,2.2
		c-0.1,0.3-0.7,1.2-1.6,1.6c-0.2,0.1-0.4,0.1-0.5,0.1c-0.1,0-0.2,0-0.2,0c-0.2-0.1-0.4-0.2-0.5-0.3C112.3,35.4,112,34.9,112.2,33.9z
		"/>
	<path class="st0" d="M133.5,44.7C133.5,44.7,133.5,44.7,133.5,44.7c-0.2,0-0.3,0.2-0.3,0.3c0,0.3,0,1.1,0,1.2
		c0,0.2,0.1,0.3,0.3,0.4h0c0.2,0,0.3-0.1,0.3-0.3c0-0.2,0-1,0-1.3C133.8,44.8,133.6,44.7,133.5,44.7z"/>
	<path class="st0" d="M121.5,39.2c-0.3-0.2-0.7-0.3-1.3-0.3c-0.3,0-0.6,0.1-0.9,0.2c-0.4,0.2-0.8,0.6-0.9,1.6c0,0.7-0.1,1.8,0.8,1.9
		c0.4,0.1,0.7,0.1,1.1,0.1c0.5,0,0.9-0.1,1.2-0.3c0.4-0.3,0.4-0.7,0.4-0.8l0-0.2C122.1,40.5,122.2,39.6,121.5,39.2z M120.2,39.6
		c0.4,0,0.7,0.1,0.9,0.2c0.3,0.2,0.2,1,0.1,1.6l0,0.2c0,0,0,0.1-0.2,0.2c-0.1,0.1-0.3,0.2-0.8,0.2c-0.3,0-0.6,0-0.9-0.1
		c-0.2,0-0.2-0.8-0.2-1.2c0-0.5,0.2-0.8,0.5-1C119.8,39.6,120,39.6,120.2,39.6z"/>
	<path class="st0" d="M121.3,43.2c-0.3-0.2-0.7-0.3-1.3-0.3c-0.3,0-0.6,0.1-0.9,0.2c-0.4,0.2-0.8,0.6-0.9,1.6c0,0.7-0.1,1.8,0.8,1.9
		c0.4,0.1,0.8,0.1,1.1,0.1c0.5,0,0.9-0.1,1.2-0.3c0.4-0.3,0.4-0.7,0.4-0.8l0-0.2C121.8,44.5,122,43.6,121.3,43.2z M120,43.6
		c0.4,0,0.7,0.1,0.9,0.2c0.3,0.2,0.2,1,0.1,1.6l0,0.2c0,0,0,0.1-0.2,0.2c-0.1,0.1-0.3,0.2-0.8,0.2c-0.3,0-0.6,0-0.9-0.1
		c-0.2-0.1-0.2-0.8-0.2-1.2c0-0.5,0.2-0.8,0.5-1C119.6,43.6,119.8,43.6,120,43.6z"/>
	<path class="st0" d="M125.3,39.5c-0.3-0.2-0.7-0.3-1.3-0.3c-0.3,0-0.6,0.1-0.9,0.2c-0.4,0.2-0.8,0.6-0.9,1.6c0,0.7-0.1,1.8,0.8,1.9
		c0.4,0.1,0.8,0.1,1.1,0.1c0.5,0,0.9-0.1,1.2-0.3c0.4-0.3,0.4-0.7,0.4-0.8l0-0.2C125.8,40.8,125.9,39.9,125.3,39.5z M124,39.9
		c0.4,0,0.7,0.1,0.9,0.2c0.3,0.2,0.2,1,0.1,1.6l0,0.2c0,0,0,0.2-0.2,0.3c-0.1,0.1-0.3,0.2-0.8,0.2c-0.3,0-0.6,0-0.9-0.1
		c-0.2,0-0.2-0.8-0.2-1.2c0-0.5,0.2-0.8,0.5-1C123.6,39.9,123.8,39.9,124,39.9z"/>
	<path class="st0" d="M125,43.4c-0.3-0.2-0.7-0.3-1.3-0.3c-0.3,0-0.6,0.1-0.9,0.2c-0.4,0.2-0.8,0.6-0.9,1.6c0,0.7-0.1,1.8,0.8,1.9
		c0.4,0.1,0.8,0.1,1.1,0.1c0.5,0,0.9-0.1,1.2-0.3c0.4-0.3,0.4-0.7,0.4-0.8l0-0.2C125.6,44.8,125.7,43.9,125,43.4z M123.8,43.8
		c0.4,0,0.7,0.1,0.9,0.2c0.3,0.2,0.2,1,0.1,1.6l0,0.2c0,0,0,0.1-0.2,0.2c-0.1,0.1-0.3,0.2-0.8,0.2c-0.3,0-0.6,0-0.9-0.1
		c-0.2-0.1-0.2-0.8-0.2-1.2c0-0.5,0.2-0.8,0.5-1C123.3,43.9,123.5,43.8,123.8,43.8z"/>
</g>
<g id="RZVxik_1_" class="st2">
	
		<image style="display:inline;overflow:visible;" width="179" height="27" id="RZVxik_2_" xlink:href="388FA2D73A6ECA6.jpg"  transform="matrix(1.4198 0 0 1.4198 0.1909 13.75)">
	</image>
</g>
<rect x="0.2" y="31" class="st1" width="80.4" height="0.8"/>
<rect x="173.2" y="31" class="st1" width="80.4" height="0.8"/>
</svg>
