<?xml version="1.0" encoding="utf-8"?>
<!-- Generator: Adobe Illustrator 16.0.0, SVG Export Plug-In . SVG Version: 6.00 Build 0)  -->
<!DOCTYPE svg PUBLIC "-//W3C//DTD SVG 1.1//EN" "http://www.w3.org/Graphics/SVG/1.1/DTD/svg11.dtd">
<svg version="1.1" id="Layer_1" xmlns="http://www.w3.org/2000/svg" xmlns:xlink="http://www.w3.org/1999/xlink" x="0px" y="0px"
	 width="14.7px" height="14.7px" viewBox="0 0 14.7 14.7" style="enable-background:new 0 0 14.7 14.7;" xml:space="preserve">
<style type="text/css">
<![CDATA[
	.st0{fill:#FFFFFF;}
	.st1{fill-rule:evenodd;clip-rule:evenodd;fill:#FFFFFF;}
]]>
</style>
<g>
	<path class="st1" d="M6.9,6.5c0,0-0.1,0-0.1,0c-0.1,0-0.1-0.1-0.1-0.2C6.8,6,7.1,5.7,7.4,5.5C7.6,5.4,7.8,5.4,8,5.3
		c0.2,0,0.4,0,0.6,0.2c0.2,0.2,0.4,0.4,0.5,0.8c0,0.1,0,0.2,0,0.3c0,0.5-0.1,1.1-0.4,1.5S8,8.9,7.5,9c-0.1,0-0.2,0-0.3,0
		c-0.3,0-0.6,0-0.9-0.1C6,8.9,5.7,8.8,5.5,8.6C4.7,8.1,4.3,7.3,4.2,6.6C4.1,6,4.2,5.4,4.4,4.9c0.2-0.5,0.6-1,1.1-1.4
		c0.7-0.6,1.6-0.9,2.6-0.7c1.1,0.2,1.9,0.5,2.5,1.1c0.6,0.6,1,1.4,1.1,2.5c0.1,0.8,0,1.8-0.4,2.7c-0.3,0.8-0.9,1.6-1.6,2.1
		c-0.4,0.2-0.7,0.4-1.1,0.6c-1.1,0.4-2.2,0.3-3.2-0.2c-1-0.5-1.9-1.2-2.5-2.2c-0.3-0.5-0.6-1-0.8-1.5C1.9,7.1,1.7,6.5,1.7,6
		c-0.1-0.6,0-1.2,0.2-1.8c0.4-1,0.9-2,1.7-2.7c0.1-0.1,0.2-0.2,0.3-0.3c0,0,0,0-0.1,0c-1.5,0.9-2.6,2.4-3,4.3C0.6,6.2,0.6,7,0.7,7.7
		c0,0,0,0,0,0.1c0.1,0.6,0.4,1.1,0.7,1.6C1.8,10,2.2,10.6,2.7,11c1.1,1,2.3,1.6,3.5,1.8c1.2,0.2,2.5,0,3.6-0.6h0
		c1.2-0.7,2.2-1.8,2.6-3.1c0.4-1.3,0.4-2.8-0.1-4.1c-0.4-0.9-1-1.7-1.7-2.3C10,2.2,9.2,1.8,8.3,1.7c-0.9-0.1-1.8,0-2.7,0.4
		C4.9,2.4,4.3,2.9,3.9,3.4C3.4,4,3.1,4.7,3,5.4C2.9,6.2,3,7,3.4,7.8c0.2,0.5,0.5,0.9,0.8,1.3c0.5,0.6,1.2,1,1.9,1.2
		c0.7,0.2,1.4,0.2,2.1-0.1C8.5,10.1,8.8,9.9,9,9.7c0.4-0.4,0.8-0.8,1-1.2C10.3,8,10.4,7.5,10.4,7c0-0.8-0.2-1.5-0.5-1.9
		C9.5,4.6,8.9,4.3,8.2,4.2c-0.3,0-0.6,0-0.8,0.1C6.9,4.3,6.5,4.6,6.2,5C5.9,5.3,5.7,5.7,5.6,6.1c0,0.2,0,0.4,0,0.6
		C5.7,7,5.8,7.2,6,7.3c0.2,0.1,0.4,0.2,0.6,0.3c0.2,0,0.5,0,0.7,0c0.2,0,0.3-0.1,0.3-0.2c0.2-0.2,0.3-0.5,0.2-0.6
		c0-0.1,0-0.2-0.1-0.2C7.7,6.4,7.7,6.4,7.6,6.4C7.4,6.3,7.2,6.4,6.9,6.5C7,6.5,6.9,6.5,6.9,6.5L6.9,6.5z"/>
</g>
<g>
	<path class="st0" d="M9,0.2c2,0.5,3.6,1.7,4.6,3.3C14.6,5.1,15,7,14.5,9c-0.5,2-1.7,3.6-3.3,4.6c-1.6,1-3.6,1.4-5.5,0.9
		c-2-0.5-3.6-1.7-4.6-3.3c-1-1.6-1.4-3.6-0.9-5.5c0.5-2,1.7-3.6,3.3-4.6C5.1,0.1,7-0.3,9,0.2L9,0.2z M13.4,3.6
		c-1-1.5-2.5-2.7-4.4-3.2C7,0,5.1,0.4,3.6,1.3c-1.5,1-2.7,2.5-3.2,4.4C0,7.6,0.4,9.5,1.3,11.1s2.5,2.7,4.4,3.2
		c1.9,0.4,3.8,0.1,5.3-0.9c1.5-1,2.7-2.5,3.2-4.4C14.7,7.1,14.3,5.1,13.4,3.6L13.4,3.6z"/>
</g>
<g>
	<path class="st0" d="M6.8,6.8c0,0.1-0.1,0.1-0.2,0.1c-0.1,0-0.1-0.1-0.1-0.2C6.7,6.3,6.9,6,7.2,5.8c0.2-0.1,0.4-0.2,0.7-0.2
		c0.2,0,0.5,0,0.7,0.2C8.8,6,9,6.2,9.1,6.7c0,0.1,0,0.2,0,0.3C9.2,7.5,9,8,8.7,8.5C8.4,8.9,7.9,9.3,7.4,9.4c-0.1,0-0.2,0-0.3,0.1
		c-0.3,0-0.7,0-1-0.1C5.8,9.3,5.5,9.2,5.3,9C4.4,8.4,4,7.7,3.9,6.9C3.9,6.3,4,5.7,4.2,5.1c0.2-0.6,0.6-1.1,1.1-1.4
		C6.1,3.1,7,2.8,8,3c1.1,0.2,2,0.5,2.6,1.1c0.6,0.6,1,1.4,1.2,2.6c0.1,0.9,0,1.9-0.4,2.8c-0.4,0.9-0.9,1.6-1.6,2.1
		c-0.4,0.3-0.7,0.4-1.1,0.6c-1.2,0.4-2.3,0.3-3.3-0.2c-1-0.5-1.9-1.3-2.6-2.3C2.3,9.2,2,8.6,1.8,8.1C1.6,7.5,1.4,6.9,1.4,6.3
		c-0.1-0.6,0-1.2,0.2-1.9c0.4-1.1,1-2,1.8-2.8C4.1,0.9,5,0.4,6,0.2c0.1,0,0.1,0,0.2,0.1s0,0.1-0.1,0.2c-1,0.2-1.8,0.7-2.5,1.3
		C2.8,2.5,2.2,3.4,1.8,4.5C1.6,5.1,1.6,5.7,1.6,6.3C1.7,6.8,1.8,7.4,2,8C2.2,8.5,2.5,9,2.8,9.5c0.6,0.9,1.5,1.7,2.5,2.2
		c1,0.4,2.1,0.6,3.2,0.2c0.4-0.1,0.7-0.3,1.1-0.5c0.7-0.5,1.2-1.2,1.5-2c0.4-0.9,0.5-1.8,0.4-2.6c-0.2-1.1-0.5-1.9-1.1-2.4
		C9.8,3.7,9,3.4,7.9,3.2C7,3.1,6.2,3.4,5.5,3.9C5,4.3,4.7,4.7,4.5,5.3C4.2,5.8,4.1,6.3,4.2,6.9c0.1,0.7,0.5,1.4,1.2,1.9
		C5.6,9,5.9,9.1,6.2,9.2c0.3,0.1,0.6,0.1,0.9,0.1c0.1,0,0.2,0,0.3,0c0.5-0.1,0.9-0.4,1.2-0.8C8.8,7.9,8.9,7.4,8.9,7
		c0-0.1,0-0.2,0-0.2C8.8,6.4,8.6,6.2,8.4,6C8.3,5.9,8.1,5.9,7.9,5.9C7.7,5.9,7.5,6,7.4,6.1C7.1,6.2,6.9,6.5,6.8,6.8L6.8,6.8z"/>
</g>
<g>
	<path class="st0" d="M6.8,6.8c-0.1,0-0.1,0-0.2-0.1c0-0.1,0-0.1,0.1-0.2C7,6.4,7.3,6.4,7.5,6.5c0.1,0,0.3,0.1,0.4,0.2
		C8,6.8,8,6.9,8,7c0,0.2-0.1,0.5-0.3,0.9C7.6,8,7.5,8.1,7.3,8.2C7,8.3,6.7,8.3,6.5,8.2c-0.3,0-0.6-0.2-0.8-0.3
		C5.4,7.7,5.3,7.5,5.2,7.2C5.1,7,5.1,6.7,5.2,6.4c0.1-0.5,0.3-1,0.7-1.4c0.3-0.4,0.8-0.7,1.3-0.8c0.3-0.1,0.6-0.1,1-0.1
		C9,4.3,9.6,4.6,10,5.2c0.4,0.5,0.6,1.3,0.6,2.2c0,0.6-0.1,1.2-0.4,1.7C10,9.5,9.6,9.9,9.2,10.3c-0.3,0.3-0.6,0.5-1,0.6
		c-0.8,0.4-1.6,0.4-2.4,0.1c-0.8-0.2-1.5-0.7-2-1.4C3.4,9.3,3.1,8.8,2.9,8.3C2.5,7.4,2.3,6.5,2.5,5.7c0.1-0.8,0.5-1.6,1-2.2
		c0.5-0.6,1.2-1.1,1.9-1.4c0.9-0.4,1.9-0.6,2.9-0.4c1,0.1,1.9,0.5,2.6,1.2c0.8,0.6,1.4,1.4,1.8,2.4c0.6,1.4,0.6,3,0.2,4.4
		c-0.5,1.4-1.5,2.7-2.8,3.4l0,0l0,0c-1.2,0.6-2.6,0.8-3.9,0.6c-1.3-0.2-2.6-0.9-3.8-1.9c-0.5-0.5-1-1.1-1.4-1.7
		C0.5,9.5,0.2,8.9,0.1,8.2c0-0.1,0-0.1,0.1-0.2c0.1,0,0.1,0,0.2,0.1C0.5,8.8,0.7,9.3,1,9.9c0.4,0.6,0.9,1.2,1.4,1.7
		c1.1,1,2.4,1.7,3.6,1.9c1.3,0.2,2.6,0,3.7-0.6h0c1.3-0.7,2.2-1.9,2.7-3.2C13,8.2,13,6.7,12.4,5.3c-0.4-0.9-1-1.7-1.7-2.3
		C9.9,2.4,9.1,2,8.2,1.9c-0.9-0.1-1.9,0-2.8,0.4C4.7,2.6,4.1,3.1,3.6,3.7c-0.5,0.6-0.8,1.3-0.9,2c-0.1,0.8,0,1.6,0.4,2.5
		C3.3,8.7,3.6,9.1,4,9.5c0.5,0.6,1.2,1.1,1.9,1.3C6.6,11,7.4,11,8.1,10.7c0.3-0.1,0.6-0.3,0.9-0.6c0.4-0.4,0.8-0.8,1-1.3
		c0.2-0.4,0.4-0.9,0.4-1.5c0-0.8-0.2-1.5-0.6-2C9.4,4.9,8.9,4.5,8.1,4.4c-0.3,0-0.6,0-0.9,0.1C6.7,4.6,6.3,4.9,6,5.3
		C5.7,5.6,5.5,6,5.4,6.5c0,0.2,0,0.5,0,0.7c0.1,0.2,0.2,0.4,0.4,0.6C6,7.8,6.3,7.9,6.5,8C6.7,8,7,8,7.2,8c0.2,0,0.3-0.1,0.4-0.2
		c0.2-0.2,0.3-0.5,0.2-0.7c0-0.1,0-0.2-0.1-0.2S7.6,6.7,7.5,6.7C7.3,6.7,7.1,6.7,6.8,6.8L6.8,6.8z"/>
</g>
</svg>
