<?xml version="1.0" encoding="utf-8"?>
<!-- Generator: Adobe Illustrator 16.0.0, SVG Export Plug-In . SVG Version: 6.00 Build 0)  -->
<!DOCTYPE svg PUBLIC "-//W3C//DTD SVG 1.1//EN" "http://www.w3.org/Graphics/SVG/1.1/DTD/svg11.dtd">
<svg version="1.1" id="Layer_1" xmlns="http://www.w3.org/2000/svg" xmlns:xlink="http://www.w3.org/1999/xlink" x="0px" y="0px"
	 width="254.1px" height="64.5px" viewBox="0 0 254.1 64.5" style="enable-background:new 0 0 254.1 64.5;" xml:space="preserve">
<style type="text/css">
<![CDATA[
	.st0{fill:#E50E63;stroke:#E50E63;stroke-width:0.3817;stroke-miterlimit:10;}
	.st1{display:none;}
	.st2{fill:#A71D44;}
]]>
</style>
<g id="RZVxik_1_" class="st1">
	
		<image style="display:inline;overflow:visible;" width="179" height="27" id="RZVxik_2_" xlink:href="4E6DB03382673D1E.jpg"  transform="matrix(1.4198 0 0 1.4198 0.1909 13.75)">
	</image>
</g>
<rect x="0.2" y="31" class="st0" width="80.4" height="0.8"/>
<rect x="173.2" y="31" class="st0" width="80.4" height="0.8"/>
<g>
	<path class="st2" d="M138.1,22.8c-2-2.5-8.2,0.6-10.3,5.3c0.1-0.2-3.5-7.3-6.8-6.5c-9.7,2.4,5.4,20.9,6.3,22.9
		C129.4,40.6,141.9,27.4,138.1,22.8z"/>
	<path class="st2" d="M145.6,22.2c-0.3-0.1-0.6,0.1-0.6,0.4c-0.1,0.3-0.2,0.6-0.3,1c-0.1,0.3,0.1,0.6,0.3,0.7c0.1,0,0.1,0,0.2,0
		c0.2,0,0.4-0.1,0.5-0.4c0.1-0.3,0.2-0.7,0.3-1C146.1,22.6,145.9,22.3,145.6,22.2z"/>
	<path class="st2" d="M137.2,36.9c-0.2,0.3-0.4,0.6-0.6,0.8c-0.2,0.2-0.1,0.6,0.1,0.7c0.1,0.1,0.2,0.1,0.3,0.1
		c0.2,0,0.3-0.1,0.4-0.2c0.2-0.3,0.4-0.6,0.6-0.8c0.2-0.2,0.1-0.6-0.1-0.7C137.6,36.6,137.3,36.7,137.2,36.9z"/>
	<path class="st2" d="M145.9,20.2c0.3,0,0.5-0.2,0.5-0.5c0-0.4,0-0.8-0.1-1.1c0-0.3-0.3-0.5-0.6-0.4c-0.3,0-0.5,0.3-0.4,0.6
		c0,0.3,0.1,0.6,0.1,1C145.4,19.9,145.7,20.2,145.9,20.2z"/>
	<path class="st2" d="M141.3,31.6c0.1,0,0.2,0.1,0.3,0.1c0.2,0,0.4-0.1,0.4-0.3c0.2-0.3,0.4-0.6,0.5-0.9c0.1-0.2,0.1-0.6-0.2-0.7
		c-0.2-0.1-0.6-0.1-0.7,0.2c-0.2,0.3-0.3,0.6-0.5,0.9C141,31.1,141.1,31.5,141.3,31.6z"/>
	<path class="st2" d="M143.6,15.6c0.2,0.2,0.5,0.4,0.7,0.6c0.1,0.1,0.2,0.2,0.4,0.2c0.1,0,0.2,0,0.3-0.1c0.2-0.2,0.2-0.5,0-0.7
		c-0.3-0.3-0.6-0.5-0.9-0.8c-0.2-0.1-0.6-0.1-0.7,0.2C143.3,15.1,143.3,15.4,143.6,15.6z"/>
	<path class="st2" d="M139.8,15.1C139.9,15.1,139.9,15.1,139.8,15.1c0.4-0.1,0.7-0.1,1-0.1c0.3,0,0.5-0.3,0.5-0.5
		c0-0.3-0.2-0.5-0.5-0.5c-0.3,0-0.7,0.1-1.1,0.1c-0.3,0-0.5,0.3-0.4,0.6C139.4,14.9,139.6,15.1,139.8,15.1z"/>
	<path class="st2" d="M143.3,28c0.1,0,0.2,0.1,0.2,0.1c0.2,0,0.4-0.1,0.5-0.3c0.2-0.3,0.3-0.6,0.5-0.9c0.1-0.3,0-0.6-0.3-0.7
		c-0.3-0.1-0.6,0-0.7,0.2c-0.1,0.3-0.3,0.6-0.4,0.9C143,27.6,143.1,27.9,143.3,28z"/>
	<path class="st2" d="M125.4,49.1c-0.2-0.2-0.5-0.3-0.7-0.1c-0.2,0.2-0.3,0.5-0.1,0.7c0.2,0.3,0.4,0.6,0.6,0.8
		c0.1,0.2,0.3,0.2,0.4,0.2c0.1,0,0.2,0,0.3-0.1c0.2-0.2,0.3-0.5,0.1-0.7C125.8,49.7,125.6,49.4,125.4,49.1z"/>
	<path class="st2" d="M120.7,42.3c-0.2-0.2-0.5-0.3-0.7-0.2c-0.2,0.2-0.3,0.5-0.1,0.7l0.6,0.9c0.1,0.1,0.3,0.2,0.4,0.2
		c0.1,0,0.2,0,0.3-0.1c0.2-0.2,0.3-0.5,0.1-0.7L120.7,42.3z"/>
	<path class="st2" d="M111.9,24.9c-0.1-0.3-0.2-0.7-0.2-1c-0.1-0.3-0.3-0.5-0.6-0.4c-0.3,0.1-0.5,0.3-0.4,0.6c0.1,0.3,0.2,0.7,0.3,1
		c0.1,0.2,0.3,0.4,0.5,0.4c0,0,0.1,0,0.1,0C111.8,25.5,111.9,25.2,111.9,24.9z"/>
	<path class="st2" d="M123,45.7c-0.2-0.2-0.5-0.3-0.7-0.1c-0.2,0.2-0.3,0.5-0.1,0.7l0.6,0.9c0.1,0.1,0.3,0.2,0.4,0.2
		c0.1,0,0.2,0,0.3-0.1c0.2-0.2,0.3-0.5,0.1-0.7L123,45.7z"/>
	<path class="st2" d="M139.3,35.2c0.2,0,0.3-0.1,0.4-0.2c0.2-0.3,0.4-0.6,0.6-0.9c0.2-0.2,0.1-0.6-0.1-0.7c-0.2-0.2-0.6-0.1-0.7,0.1
		c-0.2,0.3-0.4,0.6-0.6,0.9c-0.2,0.2-0.1,0.6,0.1,0.7C139.1,35.2,139.2,35.2,139.3,35.2z"/>
	<path class="st2" d="M132.2,43.6l-0.6,0.8c-0.2,0.2-0.1,0.6,0.1,0.7c0.1,0.1,0.2,0.1,0.3,0.1c0.2,0,0.3-0.1,0.4-0.2l0.6-0.8
		c0.2-0.2,0.1-0.6-0.1-0.7C132.7,43.3,132.4,43.4,132.2,43.6z"/>
	<path class="st2" d="M127.3,50.3c-0.2,0.3-0.4,0.6-0.6,0.9c-0.1,0.2-0.1,0.6,0.2,0.7c0.1,0.1,0.2,0.1,0.3,0.1
		c0.2,0,0.3-0.1,0.4-0.2c0.2-0.3,0.3-0.5,0.6-0.8c0.2-0.2,0.1-0.6-0.1-0.7C127.8,50,127.4,50,127.3,50.3z"/>
	<path class="st2" d="M134.7,40.3l-0.6,0.8c-0.2,0.2-0.1,0.6,0.1,0.7c0.1,0.1,0.2,0.1,0.3,0.1c0.2,0,0.3-0.1,0.4-0.2l0.6-0.8
		c0.2-0.2,0.1-0.6-0.1-0.7C135.2,40,134.9,40,134.7,40.3z"/>
	<path class="st2" d="M129.7,46.9l-0.6,0.8c-0.2,0.2-0.1,0.6,0.1,0.7c0.1,0.1,0.2,0.1,0.3,0.1c0.2,0,0.3-0.1,0.4-0.2l0.6-0.8
		c0.2-0.2,0.1-0.6-0.1-0.7C130.2,46.6,129.9,46.7,129.7,46.9z"/>
	<path class="st2" d="M114.7,14.8c0.1,0,0.1,0,0.2,0c0.3-0.1,0.6-0.2,0.9-0.3c0.3-0.1,0.4-0.4,0.3-0.6c-0.1-0.3-0.4-0.4-0.6-0.3
		c-0.4,0.1-0.7,0.2-1,0.4c-0.3,0.1-0.4,0.4-0.3,0.7C114.3,14.7,114.5,14.8,114.7,14.8z"/>
	<path class="st2" d="M115.7,35c-0.2,0.1-0.3,0.5-0.2,0.7c0.2,0.3,0.3,0.6,0.5,0.9c0.1,0.2,0.3,0.3,0.4,0.3c0.1,0,0.2,0,0.3-0.1
		c0.2-0.1,0.3-0.5,0.2-0.7c-0.2-0.3-0.3-0.6-0.5-0.9C116.3,35,115.9,34.9,115.7,35z"/>
	<path class="st2" d="M114,33c0.1,0.2,0.3,0.3,0.5,0.3c0.1,0,0.2,0,0.2-0.1c0.3-0.1,0.4-0.4,0.2-0.7c-0.2-0.3-0.3-0.6-0.5-0.9
		c-0.1-0.3-0.4-0.4-0.7-0.2c-0.3,0.1-0.4,0.4-0.2,0.7C113.7,32.4,113.8,32.7,114,33z"/>
	<path class="st2" d="M111.3,17.4c0.1,0,0.2,0.1,0.3,0.1c0.2,0,0.4-0.1,0.4-0.3c0.2-0.3,0.3-0.5,0.5-0.8c0.2-0.2,0.2-0.5-0.1-0.7
		c-0.2-0.2-0.6-0.2-0.7,0.1c-0.2,0.3-0.5,0.6-0.6,0.9C111,17,111.1,17.3,111.3,17.4z"/>
	<path class="st2" d="M112.2,27.5c-0.3,0.1-0.4,0.4-0.3,0.7c0.1,0.3,0.3,0.6,0.4,1c0.1,0.2,0.3,0.3,0.5,0.3c0.1,0,0.1,0,0.2,0
		c0.3-0.1,0.4-0.4,0.3-0.7c-0.1-0.3-0.3-0.6-0.4-0.9C112.7,27.6,112.4,27.4,112.2,27.5z"/>
	<path class="st2" d="M110.7,21.5L110.7,21.5c0.3,0,0.5-0.2,0.5-0.5l0-0.2c0-0.2,0-0.5,0-0.7c0-0.3-0.2-0.5-0.5-0.6
		c-0.3,0-0.5,0.2-0.6,0.5c0,0.3,0,0.5,0,0.8V21C110.2,21.3,110.4,21.5,110.7,21.5z"/>
	<path class="st2" d="M135.9,16.5c0.1,0,0.2,0,0.2-0.1c0.3-0.2,0.6-0.3,0.9-0.4c0.3-0.1,0.4-0.4,0.3-0.7c-0.1-0.3-0.4-0.4-0.7-0.3
		c-0.3,0.1-0.6,0.3-1,0.5c-0.3,0.1-0.3,0.4-0.2,0.7C135.6,16.4,135.8,16.5,135.9,16.5z"/>
	<path class="st2" d="M118.1,40.2c0.1,0.2,0.3,0.2,0.4,0.2c0.1,0,0.2,0,0.3-0.1c0.2-0.1,0.3-0.5,0.2-0.7c-0.2-0.3-0.4-0.6-0.5-0.9
		c-0.2-0.2-0.5-0.3-0.7-0.2c-0.2,0.1-0.3,0.5-0.2,0.7C117.8,39.6,118,39.9,118.1,40.2z"/>
	<path class="st2" d="M129.6,21.8c0.2,0,0.3-0.1,0.4-0.2c0.2-0.3,0.4-0.5,0.6-0.8c0.2-0.2,0.2-0.5,0-0.7c-0.2-0.2-0.5-0.2-0.7,0.1
		c-0.2,0.3-0.5,0.5-0.7,0.8c-0.2,0.2-0.1,0.6,0.1,0.7C129.4,21.7,129.5,21.8,129.6,21.8z"/>
	<path class="st2" d="M118.5,14.5c0.3,0.1,0.6,0.2,0.9,0.4c0.1,0,0.2,0.1,0.3,0.1c0.2,0,0.4-0.1,0.4-0.3c0.1-0.2,0.1-0.6-0.2-0.7
		c-0.3-0.2-0.7-0.4-1-0.5c-0.3-0.1-0.6,0-0.7,0.3C118.1,14.1,118.2,14.4,118.5,14.5z"/>
	<path class="st2" d="M132.5,18.8c0.1,0,0.2,0,0.3-0.1c0.3-0.2,0.5-0.4,0.8-0.6c0.2-0.2,0.3-0.5,0.1-0.7c-0.2-0.2-0.5-0.3-0.7-0.1
		c-0.3,0.2-0.6,0.4-0.8,0.7c-0.2,0.2-0.2,0.5-0.1,0.7C132.2,18.7,132.4,18.8,132.5,18.8z"/>
	<path class="st2" d="M126.8,24.3c0.1,0.1,0.1,0.2,0.2,0.2c-0.1,0.3,0,0.6,0.3,0.7c0.1,0,0.1,0,0.2,0c0.2,0,0.4-0.1,0.5-0.3
		c0.1-0.3,0.3-0.6,0.4-0.9c0.1-0.3,0-0.6-0.2-0.7c-0.2-0.1-0.5-0.1-0.6,0.1c-0.1-0.2-0.2-0.4-0.3-0.6c-0.1-0.3-0.4-0.4-0.7-0.2
		c-0.3,0.1-0.3,0.4-0.2,0.7C126.5,23.8,126.7,24.1,126.8,24.3z"/>
	<path class="st2" d="M122.3,17.5c0.1,0.1,0.2,0.2,0.4,0.2c0.1,0,0.2,0,0.3-0.1c0.2-0.2,0.2-0.5,0-0.7c-0.2-0.3-0.5-0.5-0.7-0.8
		c-0.2-0.2-0.5-0.2-0.7,0c-0.2,0.2-0.2,0.5,0,0.7C121.9,17,122.1,17.3,122.3,17.5z"/>
	<path class="st2" d="M124.8,20.8c0.1,0.1,0.3,0.2,0.4,0.2c0.1,0,0.2,0,0.3-0.1c0.2-0.2,0.3-0.5,0.2-0.7c-0.2-0.3-0.4-0.6-0.6-0.9
		c-0.2-0.2-0.5-0.3-0.7-0.1c-0.2,0.2-0.3,0.5-0.1,0.7C124.4,20.2,124.6,20.5,124.8,20.8z"/>
	<path class="st2" d="M150.9,9.7c-1.5-1.8-3.9-2.8-6.9-2.8c-5.1,0-12.4,3.2-16.3,10.3c-0.9-2.7-2.7-5.5-4.9-7.4
		c-3.2-2.8-6.3-3.4-8.4-3.4c-0.8,0-1.7,0.1-2.6,0.3c-3.6,0.9-6,2.8-7.1,5.7c-4,10.6,10.6,31.7,17.7,41.9l0.1,0.1
		c1.6,2.3,2.8,4.1,3.2,4.8c0.1,0.2,0.3,0.3,0.5,0.3h0c0.2,0,0.4-0.1,0.5-0.3c1.2-2.2,4.1-6,7.1-10C143.8,36,157.6,17.9,150.9,9.7z
		 M114.4,7.5c6.2,0,11.5,5.9,12.5,11.4c0,0.3,0.3,0.5,0.5,0.5c0.3,0,0.5-0.1,0.6-0.3c3.2-7.2,10.5-11,16-11c2.6,0,4.7,0.8,5.9,2.4
		c6.1,7.4-7.9,25.8-17.1,38l0,0.1c-2.8,3.7-5.2,6.9-6.6,9.2c-0.5-0.8-1.3-2-2.4-3.5l-0.4-0.6c-6.9-10-21.3-30.7-17.6-40.8
		c1-2.6,3-4.2,6.3-5C112.9,7.6,113.6,7.5,114.4,7.5z"/>
</g>
</svg>
