<?xml version="1.0" encoding="utf-8"?>
<!-- Generator: Adobe Illustrator 16.0.0, SVG Export Plug-In . SVG Version: 6.00 Build 0)  -->
<!DOCTYPE svg PUBLIC "-//W3C//DTD SVG 1.1//EN" "http://www.w3.org/Graphics/SVG/1.1/DTD/svg11.dtd">
<svg version="1.1" id="Isolation_Mode" xmlns="http://www.w3.org/2000/svg" xmlns:xlink="http://www.w3.org/1999/xlink" x="0px"
	 y="0px" width="20.1px" height="26.3px" viewBox="0 0 20.1 26.3" style="enable-background:new 0 0 20.1 26.3;"
	 xml:space="preserve">
<style type="text/css">
<![CDATA[
	.st0{fill:#FFFFFF;}
	.st1{fill:none;stroke:#FFFFFF;stroke-width:0.7;stroke-linejoin:round;stroke-miterlimit:10;}
	.st2{fill:#FFFFFF;stroke:#FFFFFF;stroke-width:0.2;stroke-miterlimit:10;}
	.st3{fill:none;stroke:#FFFFFF;stroke-linejoin:round;stroke-miterlimit:10;}
]]>
</style>
<path class="st0" d="M18.2,7.9L18.2,7.9C18.2,7.9,18.2,7.9,18.2,7.9c-0.5-0.8-1-1.5-1.7-2c0,0-0.1-0.1-0.1-0.1
	c-0.1-0.1-0.1-0.1-0.2-0.2s-1-0.8-1.5-1.1c0,0,0,0,0,0c-0.2-0.2-0.4-0.4-0.6-0.6c-0.2-0.2-0.4-0.4-0.5-0.6c0,0,0,0-0.1,0
	c0,0,0-0.1-0.1-0.1c-0.1-0.1-0.2-0.3-0.6-0.7c-0.2-0.2-0.3-0.4-0.4-0.5c0,0,0,0,0,0c-0.8-1.2-2.2-1.7-3.7-1.3C7.4,1,6.5,1.8,6.2,2.9
	C6,3.3,6,4.1,6.4,4.5c0,0,0.1,0.1,0.2,0.1c0,0,0,0,0,0c0.3,0.3,1,0.7,1.6,0.6c0.2-0.1,0.4-0.2,0.5-0.5c0,0,0,0,0-0.1c0,0,0,0,0,0
	c0-0.1,0.1-0.1,0.1-0.2c0-0.1,0-0.1-0.1-0.2s-0.1,0-0.2,0C8.5,4.4,8.5,4.5,8.4,4.5c-0.2,0-0.3,0-0.4-0.2C8,4.1,8.1,3.7,8.4,3.5
	C8.7,3.3,9,3.4,9.3,3.7C9.9,4.3,9.1,5.6,8.6,6C8.2,6.5,7.6,6.8,7,7.1L6.8,7.2C5.7,7.8,5.2,8.1,4.3,8.7L4,8.8
	C2.7,9.7,0.7,12,0.7,13.8c0,0,0,0,0,0l-0.4,1c0,0.1,0,0.1,0,0.2c0,0,0,0,0,0.1l4.2,10c0,0,0,0,0,0c0,0.1,0.1,0.1,0.1,0.1h0.9
	l1.1,0.2l0.9,0.3c0,0,0,0,0,0l1.2,0.2l1.3,0h0l1.4-0.1l1.2-0.2c0,0,0,0,0,0c0,0,0.1,0,0.1,0l1.1-0.1c0,0,0,0,0,0
	c0.1,0,0.1,0,0.1-0.1l1.3-0.4l1.4-0.4c0,0,0.1,0,0.1-0.1c0,0,0,0,0,0c0.1,0,0.1,0,0.2-0.1l2.1-11c0,0,0,0,0-0.1c0,0,0,0,0-0.1
	c0,0,0,0,0,0C20.4,11,19.3,9.4,18.2,7.9z M18.5,12.2C18.5,12.2,18.5,12.2,18.5,12.2l-1,1.4l-0.5-1.1c1.1-1.6,1.3-3,0.7-4.9
	C18.6,9,19,10.7,18.5,12.2z M16.4,6.1c0.4,0.3,0.8,0.7,0.9,1.1c0.8,2.1,0.7,3.4-0.4,5.2c0,0,0,0-0.1,0l-1.1,1.3L15,12.9
	c0.3-0.7,0.7-1.2,1.1-1.6c0.8-0.9,1.4-1.8,0.8-4l0-0.1c-0.1-0.5-0.5-0.9-0.9-1.3C16.1,5.9,16.2,6,16.4,6.1z M15.6,5.8
	c0.4,0.4,0.9,0.9,1.1,1.4l0,0.1c0.6,2.1,0,2.8-0.8,3.8c-0.4,0.4-0.8,0.9-1.1,1.6c0,0,0,0-0.1,0l-0.9,1l-0.7-0.7
	c0.1-0.7,0.6-1.2,1.1-1.8c0.8-0.9,1.8-2,1.5-4.1l0-0.2C15.8,6.4,15.7,6.1,15.6,5.8C15.5,5.8,15.6,5.8,15.6,5.8z M14.7,4.9
	C15.3,5.7,15.4,6,15.6,7l0,0.2c0.3,1.9-0.7,3-1.5,3.9c-0.5,0.6-1,1.1-1.1,1.9c0,0,0,0,0,0L12,14.1l-0.5-0.9c0.4-1.1,1.1-1.9,1.7-2.7
	c1.1-1.4,2.2-2.8,1.4-5l0-0.1c-0.1-0.2-0.3-0.7-0.6-1.2C14.3,4.4,14.5,4.7,14.7,4.9z M14.1,4.8c0.2,0.3,0.3,0.5,0.3,0.6l0,0.1
	c0.8,2-0.2,3.3-1.3,4.7c-0.6,0.8-1.3,1.6-1.7,2.7c0,0,0,0,0,0l-1.4,1.1l-0.2-0.4l0,0c0.1-0.2,0.1-0.4,0.2-0.5
	c0.2-0.6,0.2-0.8,0.9-1.7c0.3-0.4,0.7-0.8,1-1.1c0.3-0.4,0.7-0.8,1.1-1.3l0.1-0.1c1-1.2,1.2-2.4,1.2-3.8C14.1,5.2,14.1,5,14.1,4.8z
	 M13.2,3.3c0.2,0.4,0.6,1.3,0.6,2c0,1.3-0.2,2.5-1.1,3.6L12.7,9c-0.4,0.5-0.7,0.9-1.1,1.3c-0.3,0.4-0.6,0.7-1,1.1
	c-0.7,0.9-0.8,1.1-1,1.8c0,0.1-0.1,0.2-0.1,0.3l-0.1,0c0,0.2-0.1,0.1-0.1,0.1l-0.1,0.1c0,0.4-0.1-0.1-0.1-0.1l-0.8,0.9
	c0-2.1,1.5-3.7,2.8-5.1l0.3-0.3C13.2,7.2,13.7,5,13,2.9C13.1,3.1,13.2,3.2,13.2,3.3z M8.8,0.9c1.6-0.4,3,0.3,3.7,1.8
	c1.3,2.8-0.3,5.1-1.4,6.2l-0.3,0.3c-1.4,1.5-2.8,3-2.9,5.1l-0.5-0.7c0,0-0.1-0.1-0.1-0.1c0,0-0.1,0-0.1,0l-0.7,0.8
	c0.6-1.8,1.7-3.1,3-4.5c0.2-0.3,0.5-0.6,0.7-0.8l0.1-0.1c2-2.3,2-5.5,0.8-7c-0.5-0.6-1.1-0.9-1.9-0.9c-0.5,0-1,0.1-1.5,0.4
	C8.1,1.1,8.5,1,8.8,0.9z M6.7,4.4C6.4,4,6.4,3.6,6.5,3.3c0.1-0.7,0.6-1.4,1.3-1.7C9.1,0.9,10.2,1,11,2c1.1,1.4,1.1,4.5-0.8,6.7
	l-0.1,0.1C9.9,9,9.6,9.3,9.4,9.6c-1.2,1.3-2.2,2.5-2.9,4.2c-0.1,0.3-1.3-0.2-1.3-0.2c0.6-1.8,0.8-2.4,2.5-3.7l0.1-0.1
	c1.9-1.5,3.9-4,3-7.1c-0.1-0.3-0.3-0.6-0.6-0.9C9.8,1.4,9.1,1.3,8.4,1.4C7.7,1.6,7.1,2,6.8,2.5c0,0.1-0.1,0.2-0.1,0.2
	C6.5,3.2,6.5,3.2,6.6,3.8C6.7,4.1,6.8,4.4,7,4.6C6.9,4.6,6.8,4.5,6.7,4.4z M10.6,3.7C10.5,2.5,10,1.8,9.1,1.7L9,1.7
	c-0.2,0-0.4,0-0.6,0h0c0.6-0.1,1.3,0,1.6,0.3c0.2,0.2,0.4,0.5,0.5,0.7c0.9,3-1.1,5.4-2.9,6.9L7.6,9.7c-1.7,1.4-2,2.1-2.5,3.8
	l-1.2,1.1l-0.3-0.4c0,0,0,0,0,0c0-1.8,1.1-3,2.2-4c0.5-0.5,0.9-0.7,1.4-0.9C7.5,9,7.9,8.8,8.4,8.4C9.6,7.4,10.9,5.6,10.6,3.7z
	 M7.1,2.9L7.1,2.9c0.1-0.1,0.1-0.2,0.1-0.2C7.8,1.9,8.2,1.9,9,2l0.1,0c0.7,0.1,1.1,0.6,1.2,1.7c0.2,1.8-1,3.5-2.1,4.5
	C7.8,8.5,7.4,8.8,7,9c-0.5,0.2-0.9,0.5-1.4,1c-1,0.9-2.1,2.2-2.3,3.9l-0.2-0.1c0,0.1-0.4,0.2-0.3,0L2,14.4c0.1-1.2,1.3-3.2,2.1-4
	l0.1-0.1c0.7-0.7,1.5-1.1,2.3-1.5c0.3-0.1,0.6-0.3,0.9-0.4c0.8-0.4,1.3-1,1.8-1.6c0.1-0.1,0.2-0.2,0.3-0.3l0,0
	c0.6-0.7,0.8-2.6,0.4-3.4C9.7,2.6,9.2,2.2,8.8,2.2c-0.1,0-0.1,0-0.2,0l-0.1,0c-1,0.2-1.5,1-1.4,1.8c0,0.2,0.1,0.4,0.2,0.5
	C6.9,4,6.8,3.5,7.1,2.9z M4.2,9.1l0.2-0.1C5.3,8.3,5.8,8,6.9,7.4l0.2-0.1C7.7,7,8.3,6.7,8.8,6.2c0.6-0.6,1.4-1.9,0.7-2.7
	C8.9,3,8.5,3.2,8.3,3.3C7.9,3.5,7.7,4,7.8,4.4c0,0.2,0.1,0.3,0.3,0.3C7.7,4.7,7.5,4.4,7.4,4C7.3,3.4,7.7,2.7,8.6,2.5l0.1,0
	c0.4-0.1,0.8,0.2,1,0.6C10,3.8,9.8,5.6,9.3,6.2l0,0C9.1,6.3,9.1,6.4,9,6.5C8.4,7.1,8,7.7,7.2,8.1C7,8.2,6.7,8.4,6.4,8.5
	C5.5,8.9,4.7,9.3,4,10.1l-0.1,0.1c-0.8,0.8-2.1,3-2.1,4.2L1,13.6C1.1,12,2.9,9.9,4.2,9.1z M5.8,24.9C5.8,24.9,5.8,24.9,5.8,24.9
	l0,0.2c-0.1,0-0.2,0.1-0.3,0.1l0-0.3H4.8l-4.2-10c0,0,0,0,0-0.1l0.3-0.9l1,0.2c0,0,0,0,0,0l0,0c0.1,0,0.2-0.1,0.3-0.1l0-0.1L3,13.8
	l0.8,1c0,0,0,0,0,0l2.9,10.2L5.8,24.9z M8,25.7l-0.2-0.1c-0.1,0-0.3,0-0.4,0l-0.2-0.1l-0.7-0.3c0.5-0.1,0.5-0.1,0.5-0.1L4,14.8
	l1-0.9c0,0,0,0,0,0c0,0,0.1,0,0.1,0l1,0.2c0,0,0,0,0.1,0l0,0.1c0.1,0,0.2,0,0.3,0l0-0.2c0,0,0,0,0,0l1-0.1l0.7,1.1c0,0,0,0,0,0
	l0.7,10.5C8.8,25.4,8.1,26,8,25.7z M11.5,25.6l-1.1,0.1c-0.2,0.2-0.6,0.2-0.8-0.1l-0.6-0.1L8.4,14.9c0,0,0,0,0,0l0.9-1.2l0.5,0.8
	c0.1,0,0.2,0,0.3,0l1.3-1.1l0.5,1c0,0,0,0,0,0L11.5,25.6z M14,25.2L13,25.4l0-0.1c-0.1,0-0.2,0.1-0.3,0.1l0,0.1l-1,0.1l0.3-11.1
	l0.9-1.1c0,0,0,0,0.1,0c0,0,0,0,0,0l0.7,0.7l0,0l0,0.1c0.1,0,0.2,0,0.3,0l0-0.1c0,0,0-0.1,0-0.1l0.8-0.9c0,0,0,0,0,0l0.7,1
	c0,0,0,0,0,0L14,25.2z M19,13.3l-2.1,11c0,0,0,0-0.1,0l-1.2,0.3l0,0.2c0,0,0,0.1-0.1,0.1l-0.1-0.3l-1.1,0.4L15.8,14c0,0,0-0.1,0-0.1
	l1-1.2l0.6,0.5c0,0,0,0,0,0l-0.1,0.3c0.1,0,0.2,0,0.3,0l0.1-0.3c0,0,0.9-0.7,0.9-0.7L19,13.3C19,13.3,19,13.3,19,13.3z M19.2,13
	l-0.4-0.8c0.3-1,0.2-2.1-0.1-3.2C19.4,10.2,19.9,11.4,19.2,13z"/>
<path class="st0" d="M15.8,5.7C15.8,5.7,15.8,5.7,15.8,5.7C15.9,5.7,15.9,5.7,15.8,5.7C15.8,5.7,15.8,5.7,15.8,5.7z"/>
<path class="st1" d="M0.6,13.8l-0.1,1.1l3.9,9.9c0,0,1.7,0.5,2.1,0.6c1,0.3,2.9,0.6,3.7,0.5c5.4-0.5,6.6-1.6,6.6-1.6l2.5-11.1
	c0,0,0.8-1.2,0.1-3.3c-0.6-1.7-2-3-2.8-3.8s-2.7-2.6-3.3-3.4s-1.2-1.6-1.9-1.9s-1.3-0.3-1.8-0.3S8,0.9,7.5,1.3S6.4,3.2,6.4,3.5
	s0,1,0.6,1.1s1.1,0.1,1.1,0.1S7.8,4.2,7.9,3.9s1.3-0.7,1.5,0s0,1.4-0.4,1.9S6.7,7.2,5.9,7.7s-2.2,1.3-3.8,3
	C1.4,11.6,0.6,13.8,0.6,13.8z"/>
<path class="st3" d="M0.4,14c1.7,0.2,14.8,0,17.4-0.9c1-0.3,1.6-0.5,1.3-0.4"/>
<g>
	<path class="st0" d="M13.7,14.2c0.1,0,0.2,0,0.3,0l0-0.1c0,0,0,0,0,0C13.9,14.1,13.8,14.1,13.7,14.2L13.7,14.2z"/>
	<path class="st0" d="M17.8,13.2l-0.3,0.5l-0.2-0.4c-0.1,0-0.2,0-0.3,0.1l0.3-0.1c0,0,0,0,0,0l-0.1,0.3c0.1,0,0.2,0,0.3,0l0.1-0.3
		c0,0,0,0,0-0.1l0.6-0.2C18.1,13.1,17.9,13.1,17.8,13.2z"/>
	<path class="st2" d="M1.2,14c-0.2,0-0.4-0.1-0.6-0.1l-0.4,1c0,0.1,0,0.1,0,0.2c0,0,0,0,0,0.1l4.2,10c-0.1-0.2,0.2,0,0.2,0
		c0,0.1,0.2,0.1,0.2,0.1l0.5,0.1l1.1,0.2l0.9,0.3c0,0,0,0,0,0l1.3,0l1.3,0.2h0l1.4-0.1l1.2-0.2c0,0,0,0,0,0c0,0,0.1,0,0.1,0l1.1-0.1
		c0,0,0,0,0,0c0.1,0,0.1,0,0.1-0.1l1.3-0.4l1.4-0.4c0,0,0.1,0,0.1-0.1c0,0,0,0,0,0c0.1,0,0.1,0,0.2-0.1l2.1-11c0,0,0,0,0-0.1
		c0,0,0,0,0-0.1c0,0,0,0,0,0c0.1-0.2,0.2-0.5,0.3-0.7c-0.1,0-0.2,0.1-0.3,0.1c0,0.1-0.1,0.2-0.1,0.3l-0.1-0.3
		c-0.1,0-0.2,0.1-0.2,0.1l0.3,0.5c0,0,0,0,0,0l-2.1,11c0,0,0,0-0.1,0l-1.2,0.3l0,0.1c-0.1,0.1-0.1,0-0.2,0l-0.1,0l-1.1,0.4l1.6-11.1
		c0,0,0-0.1,0-0.1l0.3-0.4c-0.1,0-0.3,0.1-0.4,0.1l-0.1,0.1l0,0c-0.1,0-0.2,0-0.3,0.1l0.2,0.3c0,0,0,0,0,0l-1.6,11.2l-0.9,0.1l0,0
		c-0.1,0-0.2,0-0.3,0l0-0.1l-1,0.1L12,14.5l0.1-0.2c-0.1,0-0.3,0-0.4,0l0,0.1c0,0,0,0,0,0l-0.3,11.2l-1.1,0.1
		c-0.2,0.2-0.6,0.2-0.8-0.1L9,25.5L8.3,15c0,0,0,0,0,0l0.3-0.4c-0.1,0-0.2,0-0.3,0l0,0c0,0,0,0,0,0c-0.1,0-0.2,0-0.3,0
		c0,0-0.1,0-0.1,0L8,15c0,0,0,0,0,0l0.7,10.5l-1,0c0,0,0,0.1,0,0.1l0,0.1c-0.1,0-0.1-0.2-0.2-0.2l0,0l-0.7-0.3c0,0,0,0,0,0L3.9,14.9
		l0.5-0.5c-0.1,0-0.2,0-0.4,0l-0.3,0.3l-0.3-0.3c-0.1,0-0.2,0-0.4,0l0.5,0.6c0,0,0,0,0,0l2.9,10.4l-0.8-0.1c0-0.1-0.1,0-0.1,0l0,0.1
		c-0.1,0-0.3-0.2-0.3-0.2H4.7l-4.2-10c0,0,0,0,0-0.1L0.8,14"/>
</g>
</svg>
