<?xml version="1.0" encoding="utf-8"?>
<!-- Generator: Adobe Illustrator 16.0.0, SVG Export Plug-In . SVG Version: 6.00 Build 0)  -->
<!DOCTYPE svg PUBLIC "-//W3C//DTD SVG 1.1//EN" "http://www.w3.org/Graphics/SVG/1.1/DTD/svg11.dtd">
<svg version="1.1" id="Layer_1" xmlns="http://www.w3.org/2000/svg" xmlns:xlink="http://www.w3.org/1999/xlink" x="0px" y="0px"
	 width="254.1px" height="64.5px" viewBox="0 0 254.1 64.5" style="enable-background:new 0 0 254.1 64.5;" xml:space="preserve">
<style type="text/css">
<![CDATA[
	.st0{fill:#7A1316;}
	.st1{fill:#E50E63;stroke:#E50E63;stroke-width:0.3817;stroke-miterlimit:10;}
	.st2{display:none;}
]]>
</style>
<g id="RZVxik_1_" class="st2">
	
		<image style="display:inline;overflow:visible;" width="179" height="27" id="RZVxik_2_" xlink:href="556561A21D755800.jpg"  transform="matrix(1.4198 0 0 1.4198 0.1909 13.75)">
	</image>
</g>
<rect x="0.2" y="31" class="st1" width="80.4" height="0.8"/>
<rect x="173.2" y="31" class="st1" width="80.4" height="0.8"/>
<g>
	<path class="st0" d="M121.6,33.9c0.1,0,0.2,0,0.2,0c0.9,0,2-0.9,2.3-1.8c0,0,0,0,0-0.1c0,0,0-0.1-0.1-0.1c-0.1,0-0.1,0-0.2,0.1
		c0,0,0,0,0,0c-0.3,0.8-1.4,1.7-2.3,1.6c-0.7-0.1-1.1-0.9-1.1-2.3c0,0,0-0.1,0-0.1c0-0.1-0.1-0.1-0.1-0.1s-0.1,0.1-0.1,0.1
		c0,0,0,0,0,0C120.3,33.3,121,33.8,121.6,33.9z"/>
	<path class="st0" d="M126.4,34.6C126.4,34.6,126.4,34.6,126.4,34.6c0.7,0,1.2-0.5,1.7-1.6c0,0,0.2-0.5,0.3-0.6c0,0,0,0,0,0
		c0-0.1,0-0.1-0.1-0.2c-0.1,0-0.1,0-0.2,0.1c0,0,0,0.1,0,0.1c-0.1,0.2-0.2,0.4-0.2,0.5c-0.5,1-1,1.5-1.4,1.4c-0.6,0-1.2-0.9-1.6-2.2
		c0-0.1,0-0.1-0.1-0.2c0,0,0-0.1-0.1-0.1c0,0,0,0-0.1,0c0,0,0,0,0,0c-0.1,0-0.1,0.1-0.1,0.2c0,0,0,0.1,0,0.1
		C125,33.6,125.7,34.6,126.4,34.6z"/>
	<path class="st0" d="M134.7,33.7c0.2,0,0.3,0,0.5-0.1c0.9-0.3,1.4-1.3,1.3-2.4c0,0,0,0,0,0c0-0.1-0.1-0.1-0.1-0.1
		c-0.1,0-0.1,0.1-0.1,0.2c0,0,0,0,0,0c0.1,1-0.3,1.9-1.1,2.1c-0.8,0.3-1.6-0.3-2.2-1.4c0,0,0,0,0,0c0-0.1-0.1-0.1-0.2-0.1
		c0,0-0.1,0.1-0.1,0.1c0,0,0,0,0,0.1C133.2,33.3,134,33.7,134.7,33.7z"/>
	<path class="st0" d="M130.6,34.2C130.6,34.2,130.7,34.2,130.6,34.2c0.7,0,1.5-0.6,1.6-1.9c0,0,0,0,0-0.1c0,0,0,0,0,0
		c0,0,0-0.1,0-0.1c0,0,0-0.1,0-0.1c-0.1,0-0.1,0-0.2,0c0,0-0.1,0.1-0.1,0.1c0,0,0,0.1,0,0.1c-0.1,1.2-0.8,1.7-1.3,1.7
		c-0.6,0-1.3-0.5-1.5-1.5c0-0.1,0-0.1,0-0.2c0,0,0-0.1-0.1-0.1c0,0,0,0-0.1,0c0,0,0,0,0,0c0,0-0.1,0.1-0.1,0.1c0,0,0,0.1,0,0.1
		C129.1,33.6,129.9,34.2,130.6,34.2z"/>
	<path class="st0" d="M140.3,59.8c-1-0.7-1.6-1.2-1.9-1.6c-1.9-3.3-2.2-3.5-3.3-3.4c-0.3,0-0.8,0-1.3-0.1c0.1-0.1,0.1-0.3,0.2-0.4
		c0-0.1,0-0.1,0-0.2c0,0,0-0.1,0-0.1l0.6,0c0.1,0,0.2-0.1,0.2-0.3c0-0.1-0.1-0.2-0.2-0.2h0l-11.4,0.1c-0.1,0-0.2,0.1-0.2,0.3
		c0,0.1,0.1,0.2,0.2,0.2c0,0,0,0,0,0l0.1,0c-0.1,0.1-0.1,0.1-0.1,0.2c0,0.1,0.1,0.3,0.2,0.4c-0.5,0.1-0.9,0.1-1.3,0.1
		c-1.1-0.1-1.4,0-3.3,3.4c-0.2,0.3-0.6,0.8-1.9,1.6c-0.1,0.1-0.3,0.2-0.3,0.4c0,0.1,0.1,0.3,0.2,0.3c0.1,0,0.1,0.1,0.2,0.1
		c0,0,0,0,0,0l0.1,0l0.9,0c1.1,0,3.7,0,4.2-1.7c0.1,0,0.2,0,0.3,0c0.5,0,1.2-0.2,1.7-1c0.1-0.2,0.2-0.4,0.2-0.5c0.1,0,0.3,0,0.5,0
		l0.6,0l6.8,0c0.1,0,0.3,0,0.5,0c0,0.1,0.1,0.3,0.2,0.5c0.4,0.9,1.1,1,1.7,1c0.1,0,0.2,0,0.3,0c0.5,1.7,3.1,1.7,4.2,1.7l0.9,0l0.2,0
		c0.1,0,0.1,0,0.2-0.1c0.1-0.1,0.2-0.2,0.2-0.3C140.6,60,140.4,59.9,140.3,59.8z M133.2,54c0,0.1,0,0.1,0,0.2c0,0,0,0,0,0.1
		c-0.1,0.1-0.2,0.2-0.3,0.2c-0.1,0-0.1,0-0.2,0c-0.6,0-2.2,0.1-4.1,0.1c-1.8,0-3.4,0-4.1-0.1c-0.1,0-0.1,0-0.2,0
		c-0.1,0-0.3-0.1-0.3-0.2c0,0,0,0,0-0.1c0,0,0,0,0,0c0,0,0-0.1,0-0.1L133.2,54z M135.6,58.4c0-0.3-0.3-0.4-0.3-0.4
		c-0.1,0-0.1,0-0.2,0c-0.1,0-0.3,0.1-0.5,0.1c-0.5,0-0.8-0.2-1-0.6c-0.1-0.2-0.1-0.3-0.1-0.4c0-0.2-0.1-0.4-0.3-0.5
		c-0.2-0.1-0.5-0.1-1.1-0.1h-6.9c-0.6,0-0.9,0-1.1,0.1c-0.3,0.1-0.3,0.3-0.3,0.5c0,0.1-0.1,0.2-0.1,0.4c-0.3,0.5-0.8,0.7-1.5,0.5
		c0,0-0.1,0-0.2,0c-0.1,0-0.3,0-0.3,0.4c-0.1,1.2-1.7,1.4-3.4,1.4c0.6-0.5,1-0.9,1.3-1.3c1.9-3.2,1.9-3.1,2.6-3c0.2,0,0.3,0,0.5,0
		c0.6,0,1.1-0.1,1.8-0.3c0,0,0,0,0,0c0.7,0,2.7,0.1,4.2,0.1c1.5,0,3.5,0,4.2-0.1c0,0,0,0,0,0c0.7,0.2,1.2,0.3,1.8,0.3
		c0.2,0,0.4,0,0.5,0c0.6,0,0.7-0.2,2.6,3c0.2,0.4,0.6,0.8,1.3,1.3C137.4,59.8,135.7,59.6,135.6,58.4z"/>
	<path class="st0" d="M123.8,40.2c-0.6,0-1.2,0.3-1.6,0.8c-0.2,0.3-0.4,0.6-0.5,0.9c-0.6,0.1-1.2,0.1-1.8,0.1c0-0.1-0.1-0.3-0.1-0.3
		c-0.1-0.4-0.1-0.7-0.1-0.9c0-0.2,0-0.4,0-0.5c0-0.1-0.1-0.2-0.1-0.2c0.2-0.2,0.3-0.4,0.5-0.6c0.7-0.8,1.2-1.4,0.6-2.7
		c0-0.1-0.1-0.2-0.1-0.2c-0.2-0.2-0.4-0.2-0.6-0.2c-0.2,0.1-0.4,0.2-0.6,0.3c-0.3,0.2-0.5,0.5-0.6,0.6c-0.3-0.2-0.7-0.4-1.1-0.5
		c-0.2-0.1-0.5-0.1-0.7-0.1c-0.2,0.1-0.4,0.2-0.5,0.4c-0.1,0.2-0.1,0.4-0.1,0.6c0,0.6,1,1.6,1.8,2.3c0.2,0.1,0.3,0.2,0.4,0.3
		c0,0.3,0,0.8,0.1,1.2c0,0.2,0.1,0.4,0.1,0.5c-0.2,0-0.4,0-0.6,0c-0.8,0-1.5,0.2-1.9,0.7c-0.4,0.6-0.4,1.5-0.1,3.3
		c0,0.2,0.3,0.5,0.7,0.6c0.2,0.1,0.4,0.1,0.6,0c0.2,0,0.4-0.1,0.6-0.2c0.4-0.3,0.6-1,0.6-2.2c0-0.2,0.3-0.3,0.7-0.3
		c0.4,0,1,0,1.6,0.1c0.3,0,0.5,0,0.8,0.1c0.1,0.2,0.2,0.4,0.4,0.6c0.4,0.5,1,0.8,1.6,0.8c0.6,0,1.2-0.3,1.6-0.8
		c0.4-0.5,0.6-1.1,0.6-1.8c0-0.7-0.2-1.4-0.6-1.9C125,40.5,124.4,40.2,123.8,40.2z M118.5,39.7c-0.7-0.6-1.7-1.5-1.7-2.1
		c0-0.2,0-0.4,0.1-0.5c0.1-0.2,0.2-0.3,0.3-0.3c0.2,0,0.4,0,0.6,0.1c0.4,0.1,0.8,0.4,1.1,0.6c0.1,0,0.1,0,0.2,0
		c0.1-0.1,0.3-0.4,0.6-0.7c0.2-0.1,0.3-0.2,0.5-0.3c0.1,0,0.2,0,0.3,0.1c0,0,0.1,0.1,0.1,0.1c0.5,1.2,0,1.7-0.6,2.4
		c-0.3,0.3-0.6,0.6-0.8,1c0,0-0.1-0.1-0.2-0.1C118.9,40,118.7,39.8,118.5,39.7z M119.6,41.9c0,0-0.1,0-0.1,0c-0.1,0-0.2,0-0.3,0
		c0-0.1,0-0.3-0.1-0.5c-0.1-0.4-0.1-0.8-0.1-1c0.1,0.1,0.3,0.1,0.3,0.1l0,0c0,0,0.1,0,0.1-0.1l0,0c0-0.1,0.1-0.1,0.1-0.2
		c0,0,0,0,0,0c0,0.1,0,0.2,0,0.4c0,0.2,0,0.6,0.1,0.9C119.6,41.7,119.6,41.8,119.6,41.9z M121,43.7c-0.6,0-1.2-0.1-1.6-0.1
		c-0.6,0-0.9,0.2-0.9,0.6c0,1.1-0.2,1.7-0.5,1.9c-0.1,0.1-0.3,0.2-0.4,0.2c-0.2,0-0.3,0-0.4,0c-0.3-0.1-0.5-0.2-0.5-0.4
		c-0.3-1.7-0.3-2.6,0-3.1c0.3-0.5,0.9-0.6,1.6-0.6c0.2,0,0.4,0,0.7,0c0,0,0,0,0.1,0h0.8v0c0,0,0,0,0.1,0c0.6,0,1.3,0,1.9-0.1
		c0.1,0,0.2,0,0.3,0c0.6-0.1,1.9-0.3,2.1,0.2c0.4,0.7,0.2,1.1-0.2,1.3C123.3,43.9,122.1,43.8,121,43.7z M124.4,42.1
		c-0.2-0.5-1.2-0.5-1.9-0.4c0.2-0.3,0.6-0.4,1-0.4c0.4,0,0.7,0.2,1,0.4c0.3,0.3,0.4,0.7,0.4,1.1c0,0.4-0.2,0.8-0.4,1.1
		c-0.2,0.3-0.6,0.4-1,0.4c-0.3,0-0.6-0.1-0.8-0.3c0.6,0,1.1-0.1,1.4-0.2C124.6,43.6,124.8,43.1,124.4,42.1z M125.1,44.5
		c-0.4,0.4-0.8,0.7-1.4,0.7c-0.5,0-1-0.3-1.4-0.7c-0.1-0.1-0.2-0.3-0.3-0.4c0,0,0.1,0,0.1,0c0,0,0,0,0,0.1c0.3,0.3,0.7,0.5,1.2,0.5
		c0.5,0,0.9-0.2,1.2-0.5c0.3-0.3,0.5-0.8,0.5-1.3c0-0.5-0.2-0.9-0.5-1.3c-0.3-0.3-0.7-0.5-1.2-0.5c-0.5,0-0.9,0.2-1.2,0.5
		c-0.1,0.1-0.1,0.1-0.2,0.2c0,0,0,0-0.1,0c0,0,0,0-0.1,0c0.1-0.3,0.2-0.5,0.4-0.7c0.4-0.4,0.8-0.7,1.4-0.7c0.5,0,1,0.3,1.4,0.7
		c0.4,0.4,0.6,1,0.6,1.7S125.5,44,125.1,44.5z"/>
	<path class="st0" d="M145.9,32.6c-0.2-0.3-0.5-0.5-0.8-0.6c-0.3-0.1-0.7-0.1-1,0.1c-0.3,0.2-0.5,0.4-0.6,0.8c0,0.1-0.1,0.2-0.1,0.4
		c0,0,0,0,0,0.1l-0.6,0.6c0,0,0-0.1,0-0.1c0-0.1-0.1-0.4-0.2-0.8c-0.5-1.9-0.8-2.9-1.1-3.4c0,0,0,0,0,0c0.1-0.3-0.2-0.7-0.5-0.7
		c-1-0.2-6-2.9-7.2-4.2c0,0,0,0-0.1-0.1c-0.1-0.3-0.2-0.5-0.2-0.7c-0.2-0.5-0.3-0.7,0-1.1c0.1-0.2,0.3-0.4,0.5-0.7
		c0.5-0.6,1.1-1.2,1.2-2c0,0,0-0.1,0-0.1c0.3-0.2,0.6-0.4,0.9-0.7c1.1-0.9,2.5-2.4,3-3.9c0-0.1,0-0.1,0-0.2c1-0.7,1.5-2,2.1-3.5
		c0.7-1.8,1.4-3.7,3.2-5.2c0.1-0.1,0.2-0.2,0.1-0.4s-0.1-0.2-0.2-0.3c-0.2-0.1-1.1-0.3-1.9-0.3c-1.1,0-1.4,0.6-1.5,0.9
		c-0.3,1.3-1.5,2-2.8,2.7l-1.4-1.3l0,0l-0.2-0.2c-0.2-0.3-0.5-0.5-0.7-0.8c-0.2-0.2-0.4-0.3-0.6-0.5c-0.3-0.2-0.5-0.3-0.6-0.6
		c-0.3-0.6-0.9-0.9-1.4-1.2l-0.3-0.2c-0.8-0.5-1.7-0.9-2.7-1.1c0,0,0-0.1,0-0.1c0-0.2,0-0.5,0-0.7c-0.2-0.7-0.6-1.2-1.2-1.3
		c-0.6-0.1-1.2,0.2-1.6,0.7c-0.1,0.2-0.2,0.5-0.2,0.7c0,0.2,0,0.4,0,0.6c-1,0.3-2,0.6-2.9,1.2l-0.3,0.2c-0.5,0.3-1.1,0.6-1.4,1.2
		c-0.1,0.3-0.3,0.4-0.6,0.6c-0.2,0.1-0.4,0.3-0.6,0.5c-0.3,0.3-0.6,0.7-0.9,1c-0.1,0.1-0.1,0.1-0.2,0.2l-0.7,0.7c0,0-0.1,0-0.1,0
		c-0.6,0.2-1.4,0-2.3-0.2c-0.7-0.1-1.3-0.3-2-0.3c-1.2,0-2.8,0.4-3.6,4c-0.3,1.2,0,2.4,0.8,3.4c0.8,1.1,2.1,1.7,3.3,1.7l0.2,0
		c1,0,2.3-0.8,2.9-1.1c0,0,0,0,0,0c0.5,0.9,1.7,2.3,2.6,3c0.3,0.2,0.6,0.5,0.9,0.7c0,0,0,0.1,0,0.1c0.1,0.8,0.7,1.5,1.2,2
		c0.2,0.2,0.4,0.4,0.5,0.7c0.3,0.4,0.2,0.6,0,1.1c-0.1,0.2-0.2,0.5-0.2,0.7c0,0,0,0,0,0c-0.1,0-0.1,0.1-0.2,0.1
		c-1.4,1.4-6.4,4.3-7.3,4.5c-0.2,0-0.3,0.2-0.4,0.4c0,0.1-0.1,0.2,0,0.3c-0.7,1.4-1.3,2.7-1.8,4l-0.6-0.6c0,0,0,0,0-0.1
		c0-0.1,0-0.3-0.1-0.4c-0.1-0.3-0.3-0.6-0.6-0.8c-0.3-0.2-0.7-0.2-1-0.1c-0.3,0.1-0.6,0.3-0.8,0.6c-0.2,0.3-0.2,0.7-0.1,1
		c0.1,0.3,0.3,0.6,0.6,0.8c0.2,0.1,0.4,0.2,0.7,0.2l1.3,1.4c-0.3,1.2-0.4,2.3-0.5,3.4c-0.1,2.3,0.5,4.4,1.5,6.2
		c1,1.7,2.5,3.1,4.4,4.1c0.9,0.5,1.9,0.9,3,1.2c-0.1,0.1-0.1,0.2-0.1,0.3c0,0.1,0,0.3,0,0.4c0.1,0.3,0.3,0.5,0.7,0.6
		c0,0-0.1,0.1-0.1,0.1c-0.2,0.2-0.3,0.4-0.4,0.6c-0.1,0.2,0,0.5,0.2,0.7c0.1,0.1,0.3,0.2,0.6,0.2c0-0.1,0.1-0.2,0.2-0.2c0,0,0,0,0,0
		c-0.3,0-0.5-0.1-0.7-0.2c-0.2-0.1-0.2-0.3-0.1-0.5c0-0.2,0.2-0.3,0.3-0.5c0.1-0.1,0.3-0.2,0.4-0.2c1.9,0.3,9.4,0.3,11.3,0
		c0.1,0,0.3,0.1,0.4,0.2c0.1,0.1,0.2,0.3,0.3,0.5c0,0.2,0,0.3-0.1,0.5c0,0-0.1,0.1-0.1,0.1c0.1,0,0.2,0.1,0.2,0.2c0,0,0.1,0,0.1-0.1
		c0.3-0.2,0.3-0.5,0.2-0.7c-0.1-0.2-0.2-0.4-0.4-0.6c0,0-0.1-0.1-0.1-0.1c0.4-0.1,0.6-0.4,0.7-0.6c0-0.1,0-0.3,0-0.4
		c0-0.1-0.1-0.2-0.2-0.3c0,0,0,0,0,0c0.1,0,0.2-0.1,0.3-0.1c3-0.9,5.3-2.4,6.6-4.5c1-1.5,1.6-3.5,1.7-5.7c0.1-1.5-0.1-3-0.4-4.5
		l1.3-1.3c0.2,0,0.5-0.1,0.7-0.2c0.3-0.2,0.5-0.4,0.6-0.8C146.1,33.3,146,32.9,145.9,32.6z M112.5,33.4c0,0.1,0,0.1,0,0.2
		c0,0-0.1,0-0.1,0s-0.2,0-0.2,0c-0.1,0-0.1,0-0.2,0c-0.1,0-0.1-0.1-0.1-0.2c0-0.1,0-0.2,0-0.2c0-0.1,0.1-0.1,0.2-0.2
		c0,0,0.1,0,0.1,0c0.1,0,0.1,0,0.2,0C112.4,33,112.5,33.1,112.5,33.4C112.5,33.3,112.5,33.4,112.5,33.4z M142.1,35.8
		C142.1,35.8,142.2,35.8,142.1,35.8c0.1,0.1,0.1,0.1,0.1,0.2c0,0.1-0.1,0.1-0.1,0.1l0.1,0.2c0,0,0,0,0,0c0,0,0,0,0,0l-0.2-0.2
		c-0.1,0-0.1-0.1-0.1-0.1c0,0,0-0.1,0-0.1c0,0,0-0.1,0.1-0.1C142,35.8,142,35.8,142.1,35.8L142.1,35.8z M141.6,6.6
		c0-0.1,0.1-0.3,0.8-0.3c0.3,0,0.7,0.1,1,0.1c-1.6,1.6-2.3,3.4-2.9,5.1c-0.4,0.9-0.7,1.7-1.1,2.4c0,0,0-0.1,0-0.1c0,0,0-0.1,0-0.1
		c0-0.2,0-0.3,0-0.5c0-0.2,0-0.3,0-0.5c0,0,0-0.1,0-0.1c0-0.1,0-0.3,0-0.4c0,0,0-0.1,0-0.1c0-0.1,0-0.3-0.1-0.4l-0.4,0.1l0.3-0.2
		c0-0.1-0.1-0.3-0.1-0.4l0-0.1c0-0.1-0.1-0.3-0.1-0.4l0-0.1c0-0.1-0.1-0.2-0.2-0.4l-0.1-0.1c0-0.1-0.1-0.1-0.1-0.2
		C139.7,9.1,141.2,8.3,141.6,6.6z M128.4,2.4c0.1-0.1,0.2-0.3,0.5-0.3c0.2,0,0.3,0.3,0.4,0.5c0,0.1,0,0.3,0,0.4c0,0.1,0,0.2-0.1,0.3
		l-0.1,0.1l-0.1,0l0,0l-0.1,0c0,0-0.1,0-0.1,0l-0.2,0c0,0,0,0-0.1,0l0,0l0,0l-0.2-0.2c0,0-0.1-0.1-0.1-0.1c0-0.1,0-0.2,0-0.4
		C128.3,2.7,128.3,2.5,128.4,2.4z M124.2,5.4c0.1-0.1,0.2-0.1,0.3-0.2l0.3-0.2c0.7-0.4,1.4-0.7,2.1-0.9c0.2,0,0.5-0.1,0.7-0.1
		c0,0,0,0,0.1,0.1c0,0,0.1,0.1,0.1,0.1l0.1,0c0.1,0,0.1,0.1,0.2,0.1l0.1,0c0,0,0.1,0,0.2,0.1l0.1,0c0.1,0,0.1,0,0.2,0.1l0.1,0
		c0.1,0,0.2,0,0.3,0l0.2,0l0.5-0.1c0,0,0.1,0,0.1,0l0.1,0c0.1,0,0.1-0.1,0.1-0.1c0.1-0.1,0.2-0.2,0.2-0.3c0.2,0,0.4,0.1,0.5,0.1
		c0.7,0.2,1.4,0.5,2,0.9l0.3,0.2c0.3,0.2,0.6,0.4,0.9,0.6c0,0,0,0,0,0c0,0,0.1,0.1,0.1,0.1c-0.1,0-0.2,0.1-0.3,0.1
		c-0.1,0-0.2,0.1-0.3,0.1l-0.1,0c-0.1,0-0.1,0.1-0.2,0.1c-0.1,0-0.2,0.1-0.4,0.1l-0.3,0.1c-0.1,0-0.2,0.1-0.4,0.1l-0.1,0
		c-0.1,0-0.1,0-0.2,0.1c-0.2,0.1-0.4,0.1-0.7,0.1c-0.2,0-0.4,0.1-0.7,0.1c-0.2,0-0.4,0-0.7,0.1c-0.5,0-0.9,0-1.4,0
		c-0.2,0-0.4,0-0.7-0.1c-0.2,0-0.4-0.1-0.7-0.1c-0.2,0-0.4-0.1-0.7-0.1l-0.3-0.1c-0.1,0-0.3-0.1-0.4-0.1c-0.1,0-0.2-0.1-0.3-0.1
		c-0.1,0-0.2-0.1-0.4-0.1c-0.1,0-0.1-0.1-0.2-0.1l-0.1,0c-0.1,0-0.2-0.1-0.3-0.1c-0.1,0-0.2-0.1-0.2-0.1l-0.1,0
		C123.8,5.8,124,5.6,124.2,5.4z M131.1,7.5L131.1,7.5C131.1,7.5,131.1,7.5,131.1,7.5L131.1,7.5z M130.4,7.6L130.4,7.6
		C130.4,7.6,130.4,7.6,130.4,7.6L130.4,7.6z M126.8,7.6L126.8,7.6L126.8,7.6C126.8,7.6,126.8,7.6,126.8,7.6z M121.8,7.6
		c0.4-0.3,0.8-0.6,1.3-0.9c0.2,0.1,0.3,0.2,0.5,0.3c0.9,0.4,1.8,0.7,2.8,0.9c0.1,0,0.2,0,0.3,0.1l0-0.3l0,0.3l1.5,0.1
		c0.3,0,0.5,0,0.8,0L130,8l0-0.3L130,8l0.4,0c0.1,0,0.2,0,0.3,0l0.4-0.1L131,7.5l0.1,0.3c0.1,0,0.2,0,0.3-0.1c1-0.2,2-0.6,2.9-1.1
		c0.1,0.1,0.3,0.2,0.4,0.3c0.2,0.1,0.3,0.2,0.5,0.4c0.2,0.2,0.4,0.4,0.6,0.6c-4,3.9-10.7,2-14.5,0.1C121.5,7.9,121.7,7.7,121.8,7.6z
		 M118.4,14.2c-0.6,0.2-1.5,0.4-2.3,0.4c-0.8,0-1.3-0.2-1.7-0.6c-0.4-0.6-0.4-1.6,0-2.9c0.3-1.1,1.9-1,4.1,0.2
		c-0.1,0.3-0.2,1.2-0.2,1.6C118.4,13,118.4,13.8,118.4,14.2z M118.8,10c0,0.1-0.1,0.2-0.1,0.3c-2.7-1.2-4.4-1-4.9,0.4
		c-0.5,1.6-0.5,2.8,0.1,3.6c0.4,0.6,1.2,0.9,2.3,0.9c0.8,0,1.6-0.2,2.2-0.3l0.2,0.5c0,0,0,0,0,0c-1.4,0.8-2.1,1-2.6,1l-0.1,0
		c-1,0-2-0.5-2.7-1.4c-0.6-0.8-0.9-1.9-0.7-2.8c0.7-3,1.8-3.4,2.9-3.4c0.6,0,1.2,0.1,1.9,0.3c0.6,0.1,1.2,0.3,1.8,0.3c0,0,0,0,0,0
		c0,0-0.1,0.1-0.1,0.1L118.8,10z M119.5,15.9c-0.1-0.1-0.1-0.2-0.2-0.2c0-0.1,0-0.2,0-0.2l-0.2-0.7c0-0.1,0-0.2-0.1-0.3
		c0,0,0-0.1,0-0.1c0,0,0,0,0,0c0,0-0.1-1.2,0-1.6c0-0.4,0.2-1.7,0.2-1.7c0,0,0-0.1,0-0.1c0.1-0.1,0.1-0.1,0.1-0.2l0.1-0.2
		c0-0.1,0.1-0.2,0.1-0.3l0.2-0.4c0,0,0-0.1,0.1-0.1l0.1-0.1c0.5-0.4,0.9-0.9,1.4-1.4c0,0,0,0,0,0c2.2,1.1,5.4,2.3,8.5,2.3
		c2.3,0,4.6-0.6,6.3-2.3c0,0,0.1,0.1,0.1,0.1c0.5,0.5,1,1.1,1.5,1.5l0-0.1l0.1,0.1c0.1,0.1,0.1,0.2,0.2,0.3l0.1,0.1
		c0.1,0.1,0.1,0.2,0.1,0.3l0.3-0.1l-0.3,0.3c0,0.1,0.1,0.2,0.1,0.3l0,0.1c0,0.1,0.1,0.2,0.1,0.4l0.4-0.1l-0.3,0.2
		c0,0.1,0,0.2,0.1,0.4l0.4-0.1l-0.3,0.2c0,0.1,0,0.2,0,0.4l0,0.1c0,0.2,0,0.3,0,0.5c0,0.1,0,0.3,0,0.5c0,0.1,0,0.2,0,0.3l0.4,0
		l-0.4,0.1c0,0.1-0.1,0.5-0.1,0.6c0,0,0,0.1,0,0.1c0,0,0,0.1,0,0.1h0c0,0,0,0.1,0,0.1c0,0,0,0.1-0.1,0.1c0,0.1-0.1,0.3-0.2,0.4
		c-1.4,1.1-3.9,2.3-6.4,2.7c-1.3,0.3-2.7,0.4-4,0.4c-2.5,0-5.7-1-8-2.4C119.7,16.1,119.6,16,119.5,15.9z M121.9,18.7
		c-0.5-0.4-1.2-1.2-1.7-1.8c2.2,1.3,5.1,2.1,7.5,2.1c1.3,0,2.7-0.1,4.1-0.4c2.3-0.4,4.5-1.4,6-2.4c-0.6,1-1.5,1.9-2.2,2.5
		c-1.8,1.5-4.2,2.3-6.8,2.3C126.2,21,123.7,20.2,121.9,18.7z M124.3,21.4c-0.2-0.2-0.4-0.5-0.6-0.7c1.5,0.7,3.2,1.1,5,1.1
		c1.8,0,3.6-0.4,5.1-1.1c-0.2,0.3-0.4,0.5-0.6,0.8c-0.2,0.2-0.5,0.5-0.6,0.8c-0.6,0.9-0.3,1.6-0.1,2.1c0.1,0.2,0.1,0.3,0.2,0.5
		c-0.3,0.9-2.2,0.8-3.3,0.8l-0.4,0c-1.5,0-3,0-4.1-0.8c0-0.1,0.1-0.3,0.2-0.4c0.2-0.5,0.5-1.2-0.1-2.1
		C124.8,21.9,124.5,21.6,124.3,21.4z M115.8,32.3c0,0,0-0.1,0-0.1c0-0.1,0-0.3,0-0.4c0.1,0,0.2-0.1,0.3-0.2c0.2-0.3,0.3-0.7,0.5-1
		c0,0,0,0,0,0c-0.3,1.4,0.1,2.1,0.6,2.3c0.1,0,0.2,0.1,0.4,0.1c0.6,0,1.4-0.5,2-1.8c0,0,0,0,0,0c0-0.1,0-0.1-0.1-0.2
		c-0.1,0-0.1,0-0.2,0.1c0,0,0,0,0,0c-0.7,1.3-1.6,1.7-2,1.5c-0.4-0.2-0.7-0.9-0.4-2.1l0.2-0.1c0.1,0,0.1-0.1,0.1-0.1
		c1.8-0.8,5.8-3.2,7.2-4.6c1.3,0.9,3,0.9,4.4,0.9l0.4,0c0.2,0,0.4,0,0.5,0c1.1,0,2.4-0.1,3.2-0.8c1.6,1.4,5.8,3.7,7.3,4.2
		c0.1,0,0.1,0,0.2,0c0,0,0,0,0,0.1c0,0,0,0.1,0,0.1c-0.2,1-0.7,1.7-1.4,1.9c-0.7,0.2-1.4-0.2-1.9-1.1c0,0,0,0,0,0
		c0-0.1-0.1-0.1-0.2,0c0,0-0.1,0.1-0.1,0.1c0,0,0,0,0,0.1c0.5,0.8,1.2,1.3,1.8,1.3c0.1,0,0.3,0,0.4,0c0.7-0.2,1.3-0.8,1.5-1.7
		c0,0.1,0.1,0.2,0.1,0.4c0,0.1,0.1,0.1,0.1,0.2c0,0,0,0,0,0c0,0.1,0,0.1,0,0.2c0,0,0,0,0,0.1c-0.3,0.7-0.7,1.2-1.4,1.4
		c-1.2,0.3-2.5-0.3-2.6-0.4c0,0-0.1-0.1-0.1,0s-0.1,0-0.1,0.1c-0.4,1-0.9,1.5-1.5,1.7c-0.7,0.2-1.6-0.1-2.6-0.8
		c-0.1-0.1-0.1-0.1-0.1-0.1c-0.1,0-0.1,0-0.2,0.1c-0.3,1-0.9,1.6-1.6,1.7c-1,0.1-2.1-0.9-2.3-1.2c0,0-0.1-0.1-0.1-0.1
		s-0.1,0-0.1,0.1c-0.8,1.2-1.7,1.6-2.4,1.4c-0.9-0.2-1.6-1.4-1.6-1.7c0-0.1,0-0.1-0.1-0.1s-0.1,0-0.1,0c-0.8,1.1-1.9,1.6-2.9,1.2
		c-0.9-0.3-1.5-1.2-1.5-2c0-0.1,0-0.1-0.1-0.1c-0.1,0-0.1,0-0.2,0.1c-0.4,0.7-1.9,1.3-2.9,1c-0.5-0.2-0.7-0.6-0.8-1.1
		C115.8,32.4,115.8,32.4,115.8,32.3z M114.8,35.9c0,0,0.1,0,0.1,0c0,0,0.1,0,0.1,0.1c0,0.1,0,0.1,0,0.1c0,0,0,0.1-0.1,0.1
		c0,0-0.1,0-0.1,0c0,0-0.1,0-0.1-0.2c0,0,0-0.1,0-0.1C114.7,35.8,114.8,35.9,114.8,35.9z M135.1,51.4c-0.1,0.2-0.3,0.4-0.7,0.5
		c-0.1,0-0.2,0-0.2,0h0c0,0,0,0-0.1,0c-2.1,0.3-9.1,0.2-11.1,0c0,0,0,0-0.1,0h0c-0.1,0-0.2,0-0.2,0c-0.4-0.1-0.6-0.3-0.7-0.5
		c0-0.1,0-0.2,0-0.2c0-0.1,0.1-0.2,0.1-0.2c0,0,0,0,0,0c0,0,0,0,0,0c0.1,0,0.1,0,0.2,0c0,0,0.1,0,0.1,0c0,0.1,0.1,0.2,0.2,0.2
		c1.3,0.3,2.7,0.5,4.1,0.5c0.4,0,0.8,0,1.1,0c2.4,0,4.6-0.2,6.4-0.6c0.1,0,0.2-0.1,0.2-0.1c0,0,0,0,0.1,0c0.1,0,0.1,0,0.2,0
		c0,0,0,0,0,0c0,0,0.1,0.1,0.1,0.1c0.1,0.1,0.1,0.1,0.1,0.2C135.2,51.3,135.2,51.4,135.1,51.4z M141.3,45.6
		c-1.2,1.9-3.3,3.3-6.1,4.1c-2,0.6-4.5,0.9-7.2,0.9c-0.4,0-0.7,0-1.1,0c-1.3,0-2.5-0.2-3.7-0.4c-0.1,0-0.1,0-0.1,0
		c0,0-0.1-0.1-0.1-0.1c-1.3-0.3-2.5-0.7-3.5-1.3c-1.7-0.9-3.1-2.2-4-3.7c-1-1.6-1.4-3.5-1.4-5.7c0-0.7,0.1-1.5,0.3-2.3
		c0.2,0.1,0.3,0.1,0.5,0.1c0.1,0,0.2,0,0.3-0.1c0.3-0.1,0.6-0.3,0.7-0.6c0.2-0.3,0.2-0.6,0.1-0.9c-0.1-0.3-0.3-0.5-0.5-0.6
		c-0.2-0.1-0.3-0.2-0.5-0.2l-0.1-0.1c0.2-0.6,0.4-1.2,0.7-1.8c0.2,0.6,0.6,0.8,0.9,0.9c1,0.3,2.3-0.1,2.9-0.8
		c0.1,0.8,0.8,1.6,1.6,1.9c0.5,0.2,1.8,0.4,3.1-1.1c0.2,0.5,0.8,1.4,1.7,1.6c0.1,0,0.3,0.1,0.4,0.1c0.7,0,1.5-0.5,2.2-1.4
		c0.4,0.5,1.4,1.3,2.4,1.2c0.6,0,1.3-0.4,1.8-1.7c1,0.8,2,1.1,2.7,0.8c0.7-0.2,1.2-0.8,1.6-1.7c0.5,0.3,1.7,0.7,2.7,0.4
		c0.7-0.2,1.2-0.6,1.5-1.2c0.1,0.5,0.3,0.9,0.4,1.3l0,0.2c0.1,0.4,0.2,0.7,0.2,0.8c0.1,0.2,0.1,0.4,0.2,0.6l-0.1,0.1
		c-0.2,0-0.4,0.1-0.5,0.2c-0.2,0.2-0.4,0.4-0.5,0.6c-0.1,0.3-0.1,0.6,0.1,0.9c0.1,0.3,0.4,0.5,0.7,0.6c0.1,0,0.2,0.1,0.3,0.1
		c0.2,0,0.4,0,0.5-0.1c0.2,1.1,0.3,2.3,0.2,3.4C142.7,42.4,142.2,44.3,141.3,45.6z M144.8,33.5c0,0-0.1,0-0.2,0c0,0-0.1,0-0.1,0
		c0,0-0.1,0-0.1,0c0-0.1,0-0.2,0-0.3c0,0,0-0.1,0-0.1c0-0.1,0.1-0.1,0.2-0.2c0.1,0,0.2,0,0.2,0c0.1,0,0.1,0.1,0.2,0.2
		c0,0.1,0,0.2,0,0.2C145,33.4,144.9,33.5,144.8,33.5z"/>
	<path class="st0" d="M119.2,39.6C119.2,39.6,119.3,39.6,119.2,39.6L119.2,39.6c0.2-0.3,0.4-0.5,0.5-0.6c0.4-0.4,0.7-0.8,0.3-1.5
		c0-0.1-0.1-0.1-0.1-0.1c-0.1-0.1-0.2-0.1-0.4-0.1c-0.1,0-0.2,0.1-0.3,0.2c-0.1,0.1-0.2,0.2-0.3,0.3c-0.2-0.1-0.3-0.2-0.5-0.3
		c-0.1,0-0.3-0.1-0.4,0c-0.1,0-0.3,0.1-0.3,0.3c0,0.1-0.1,0.2-0.1,0.3c0,0.3,0.6,0.9,1,1.2l0,0c0.1,0.1,0.2,0.2,0.3,0.2
		C119,39.6,119.1,39.6,119.2,39.6L119.2,39.6z M119.1,39.3c-0.1,0-0.2-0.1-0.3-0.2l0,0c-0.4-0.3-0.9-0.8-0.9-1c0-0.1,0-0.2,0-0.2
		c0-0.1,0.1-0.1,0.1-0.1c0.1,0,0.2,0,0.3,0c0.2,0.1,0.4,0.2,0.6,0.3c0.1,0,0.1,0,0.2,0c0,0,0.2-0.2,0.3-0.3c0.1-0.1,0.2-0.1,0.2-0.1
		c0,0,0.1,0,0.1,0c0,0,0,0,0,0.1c0.3,0.6,0,0.9-0.3,1.2C119.4,39,119.2,39.1,119.1,39.3C119.1,39.3,119.1,39.3,119.1,39.3z"/>
</g>
</svg>
