<?xml version="1.0" encoding="utf-8"?>
<!-- Generator: Adobe Illustrator 16.0.0, SVG Export Plug-In . SVG Version: 6.00 Build 0)  -->
<!DOCTYPE svg PUBLIC "-//W3C//DTD SVG 1.1//EN" "http://www.w3.org/Graphics/SVG/1.1/DTD/svg11.dtd">
<svg version="1.1" id="Layer_1" xmlns="http://www.w3.org/2000/svg" xmlns:xlink="http://www.w3.org/1999/xlink" x="0px" y="0px"
	 width="57.4px" height="9.2px" viewBox="22.2 2.3 57.4 9.2" style="enable-background:new 22.2 2.3 57.4 9.2;"
	 xml:space="preserve">
<style type="text/css">
<![CDATA[
	.st0{fill:#E50E63;}
]]>
</style>
<g>
	<path class="st0" d="M56.7,67.8c-0.3-1.8-0.6-3.6-0.8-5.4c0-0.1,0-0.1-0.1-0.2c0.4-0.3,0.7-0.6,0.9-0.9c0.2-0.4,0.3-0.8,0.4-1.3
		c0,0,0,0,0-0.1l0,0c0-0.8-0.2-1.6-0.4-2.5c-0.1-0.3-0.2-0.7-0.3-1c0,0,0,0,0-0.1c-0.1-0.3-0.2-0.6-0.4-0.9c-0.2-0.5-0.4-1-0.6-1.4
		c0-0.1-0.1-0.2-0.1-0.3c-0.2-0.4-0.3-0.9-0.4-1.3c-0.4-2-1.1-3.2-1.9-4c-0.1-0.1-0.2-0.2-0.3-0.3c-1.4-1.1-2.8-0.8-2.8-0.8
		s-1.6,0.1-2.5,0.2c-0.9,0.1-2,0.2-3.1,0.2c-0.8,0-1.8,0-2.8,0c-0.2,0-0.5,0-0.7,0l0,0c0-0.7,0.1-1.5,0.2-2.1c0.1-1.1,0.3-2-0.2-2.8
		c-0.4-0.7-1.2-1.1-2.5-1.2c-1-0.1-1.7,0.2-2.2,0.8c-0.1,0.1-0.2,0.3-0.3,0.4c-0.3,0.2-0.4,0.5-0.4,0.9c0,0.2,0,0.3,0.1,0.5
		c-0.1,0.9,0,1.9,0,3c0,0.2,0,0.4,0,0.6c-1.7,0.2-3.1,0.5-3.9,1.2l0,0c-0.2,0.2-0.3,0.4-0.4,0.6l0,0c-1.1,3.3-2.5,8.8-3.4,12.6
		c-0.1,0.6,0,1.1,0.3,1.4c0.1,0.1,0.2,0.2,0.3,0.2l0.1,0.1c0.1,0.1,0.3,0.2,0.4,0.2s0.3,0.1,0.4,0.1c0,1.5-0.2,3-0.3,4.5
		c-0.4,3.8-0.8,7.4,1.1,9.6c1,1.2,2.6,1.8,4.8,2c2,0.1,4.2,0.2,6.4,0.2c1.2,0,2.5,0,3.7-0.1c3.2-0.1,5.9-0.4,8-0.7
		c1.2-0.2,2.2-0.6,2.9-1.3C58.2,76.5,57.5,72.5,56.7,67.8z M30.6,62L30.6,62L30.6,62z M30.1,55.8c0.4,0.4,0.8,0.5,1.2,0.5
		c0.3,1.4,1.1,2.1,1.8,2.1l0,0c0.6,0,1.3-0.5,1.5-1.8c0.1,0.1,0.3,0.2,0.4,0.2c-0.1,1.3-0.9,3.2-2.3,3.2l0,0
		C31.1,59.9,30.5,57.4,30.1,55.8z M40.6,49.1c0,0.1,0,0.4,0,0.4c0,0.5-0.1,1.1-0.2,1.5c0,0,0,0,0,0.1c-0.2,0.5-0.4,1-0.9,1.3
		c-0.1,0.1-0.3,0.2-0.4,0.3c0,0-0.3,0.1-0.3,0.2c-0.5,0.2-0.9,0.2-1.3,0.1c-0.7-0.2-1.3-1-1.5-1.9c0.1-0.5,0.3-0.9,0.4-1.3
		c0.4,1,1.1,1.4,1.9,1.3c1.1-0.2,2-1.6,1.9-3.1l0,0h0.1c0.1,0.1,0.1,0.1,0.2,0.1c0,0,0.1,0,0.1-0.1C40.6,48.3,40.6,48.7,40.6,49.1z
		 M46.1,54.9L46.1,54.9c0.8,0,1.3-0.6,1.4-1.7c0.2,0,0.4,0,0.6,0h0.1v0.2c-0.4,2-1.4,3-2.3,3c-0.1,0-0.4-0.1-0.4-0.1
		c-0.8-0.3-1.5-1.2-1.8-2.7c0,0,0,0,0-0.1v-0.2c0.2-0.1,0.4-0.2,0.6-0.3C44.4,54.1,45.3,54.9,46.1,54.9z M50.8,54.9
		c0.7-0.1,1.2-1,1.3-2.3c0.1,0,0.3,0.1,0.4,0.1c0.1,0,0.2,0,0.3,0c-0.1,0.7-0.6,2.2-1.3,3L51.2,56c-0.1,0.1-0.3,0.2-0.5,0.2
		c-1.2,0.2-1.9-1.7-2.2-2.8c0-0.1,0-0.3-0.1-0.4c0.2-0.1,0.4-0.2,0.6-0.4C49.4,54.3,50.2,54.9,50.8,54.9z M52.5,59.5
		c-1-0.1-1.7-1-1.9-2.6l0,0c0,0,0-0.3,0-0.5v-0.1c0.1,0,0.1,0,0.2,0c0.2,0,0.4-0.1,0.5-0.2c0.1,1.1,0.7,2,1.5,2.1
		c0.7,0.1,1.4-0.4,1.9-1.3c0.3,0,0.6-0.1,1-0.3C55.2,58.6,53.7,59.6,52.5,59.5z M55.3,62.6c0.2,1.8,0.5,3.6,0.8,5.4
		c0.8,4.4,1.4,8.1-0.4,10c-0.2,0.2-0.5,0.4-0.8,0.6c0.1-0.4,0-0.7-0.2-0.9c-0.1-0.2-0.4-0.2-0.6-0.3c0-0.1,0.1-0.1,0-0.2
		c-0.2-1.9-0.4-4.3-1-6.4c0-0.1,0-0.1-0.1-0.2c0.2-0.1,0.7-0.3,0.9-0.8c0.3-0.9,0.1-1.9-0.6-2.8c-0.5-0.7-1.3-1.2-2.1-1.5
		c-0.1,0-0.5-0.2-0.6-0.2c-0.4-0.1-0.7-0.1-1,0c-0.2,0-0.4,0.1-0.6,0.2l-0.4,0.2c-0.5,0.3-1,0.7-1.5,1.2c-0.1,0-0.1,0-0.2,0.1
		c0,0-0.1,0.1-0.1,0.2c-0.7,0.8-1.1,1.6-1.2,2.4c-0.1,0.7,0,1.6,1.1,2.1c-0.5,2.3-0.4,5.2-0.1,6.9c-0.2,0.1-0.3,0.2-0.4,0.4
		c-0.2,0.3-0.2,0.7,0,1.2c-0.4,0-0.8,0-1.3,0.1c-3.2,0.1-6.9,0.1-10-0.1c-2.1-0.1-3.5-0.7-4.4-1.8c-1.7-2-1.3-5.4-0.9-9.1
		c0.2-1.4,0.3-2.9,0.3-4.4c0.4,0.1,0.8,0.1,1.2,0.2l0,0l0,0c0.6,0,1.1,0.1,1.7,0.1c1.5,0,3.1-0.1,4.5-0.2c1-0.1,1.8-0.1,2.4-0.1
		c3.5-0.1,8.6-0.3,13.3-1.2c0.8-0.2,1.5-0.4,2-0.6C55.2,62.7,55.2,62.6,55.3,62.6z M50.5,77.9C50,78,49.6,78,49,78
		c-0.7,0-1.4,0-1.9,0.2c-0.4-2.9-0.3-7,1.1-9c0.7-1,1.4-1.5,2.1-1.4c0.6,0.1,1.3,0.7,1.8,1.7l0,0c0.1,0.2,0.2,0.4,0.3,0.7
		c0,0.1,0.2,0.6,0.2,0.7c0.6,2.1,0.8,4.4,0.9,6.3c0,0,0,0,0,0.1c-0.7,0-1.6,0.2-2.3,0.4C50.9,77.8,50.6,77.9,50.5,77.9z M50.6,66.3
		c0,0.3,0,0.7-0.1,1c-0.1,0-0.1,0-0.2,0s-0.2,0-0.3,0c-0.1,0-0.2,0-0.2,0c0-0.1-0.1-0.3-0.1-0.4c-0.1-0.2-0.2-0.5-0.3-0.7
		c0-0.1-0.1-0.2-0.1-0.3c0.1-0.1,0.3-0.1,0.4-0.1c0.3,0,0.6,0,0.9,0.1V66v0.1V66.3z M48.4,68.1c-0.3-0.4-0.6-0.7-0.9-1
		c0.4-0.4,0.8-0.7,1.2-1c0,0.1,0.1,0.3,0.1,0.4c0,0.1,0.1,0.2,0.1,0.2c0,0.1,0.1,0.2,0.1,0.4c0,0.1,0.1,0.2,0.1,0.4
		C49,67.6,48.7,67.8,48.4,68.1z M46.5,68.5c0.2-0.3,0.4-0.7,0.7-1c0.3,0.3,0.6,0.7,0.9,1c-0.1,0.1-0.2,0.3-0.3,0.4s-0.2,0.2-0.2,0.4
		C47.2,69,46.8,68.8,46.5,68.5z M51.2,66.1c0.6,0.2,1.1,0.6,1.5,1.1l-0.1,0.1c-0.3,0.3-0.6,0.5-0.9,0.8c-0.2-0.2-0.3-0.3-0.5-0.4
		c0-0.1,0-0.2,0-0.3C51.2,66.9,51.2,66.5,51.2,66.1z M52.4,69.2c-0.1-0.3-0.3-0.5-0.4-0.7c0.3-0.3,0.6-0.6,1-0.9l0.1-0.1
		c0.2,0.3,0.4,0.7,0.5,1C53.2,68.8,52.8,69,52.4,69.2z M52.6,69.6c0.3-0.1,0.6-0.3,0.9-0.4c0,0.2-0.1,0.3-0.1,0.4
		c-0.1,0.3-0.4,0.5-0.5,0.5C52.8,70,52.7,69.8,52.6,69.6z M47.3,69.8c-0.2,0.4-0.3,0.8-0.4,1.2c-0.6-0.3-0.8-0.8-0.7-1.5
		c0-0.1,0.1-0.3,0.1-0.5C46.6,69.3,47,69.5,47.3,69.8z M32.4,60.2c0.1,0,0.2,0,0.3,0c0.2,0,0.4,0,0.6-0.1c0,0.1,0,0.2,0,0.3
		c0.1,1,0.2,2.4,0.8,2.8c0.2,0.1,0.5,0.1,0.8,0c0.9-0.4,1.3-2.4,1.4-3.4c0.1,0.1,0.2,0.1,0.3,0.1s0.1,0,0.2,0c0,0.1-0.1,0.3-0.1,0.5
		l0,0l0,0c0,0.1,0,0.1-0.1,0.2c-0.3,1.3-0.8,3.4-1.9,3.7c-0.5,0.1-0.9,0.1-1.2-0.1c-0.3-0.2-0.6-0.6-0.8-1.2c0,0-0.1-0.5-0.2-0.5
		C32.5,61.9,32.4,61.1,32.4,60.2z M33.6,60.1L33.6,60.1L33.6,60.1L33.6,60.1z M37,58.7c0.3,0.1,0.7,0,1.2-0.3
		c0.7-0.4,1.3-1.3,1.5-2.2c0.1,0.1,0.2,0.2,0.4,0.3c0,0,0,0,0,0.1v0.1l0,0c-0.3,0.9-1,1.9-1.7,2.5c-0.1,0-0.4,0.3-0.5,0.3
		c-0.3,0.2-0.7,0.3-1,0.3c-0.8-0.1-1.3-1.1-1.4-2.9c0.1,0,0.2,0,0.3,0c0.2,0,0.3,0,0.5-0.1l0,0c0,0.1,0,0.2,0.1,0.3
		C36.4,57.9,36.5,58.5,37,58.7z M44.1,55.4L44.1,55.4L44.1,55.4L44.1,55.4z M42.4,59.3c0.4,0.2,0.8,0.2,1.2-0.1
		c0.9-0.5,1.2-2.3,1.3-3c0.2,0.1,0.4,0.2,0.6,0.3v0.1v0.1c-0.4,1.4-0.9,3.4-2.5,3.8c-0.6,0.1-1.2,0-1.6-0.4
		c-0.9-0.7-1.2-2.3-1.1-3.4c0.3,0.1,0.5,0.2,0.8,0.3C41.2,57.8,41.7,59,42.4,59.3z M47.5,58.8c0.3,0.2,0.7,0.2,1.2,0
		c0.9-0.4,1.2-1.5,1.4-2.5c0.1,0,0.2,0.1,0.3,0.1v0.1l0,0l0,0c0,0.2,0,0.3,0,0.5c0,0,0,0,0,0.1c-0.1,1-0.5,2.8-2.1,3.1
		c-0.5,0.1-0.9,0-1.2-0.2c-0.9-0.6-1.1-2.2-1.3-3.4l0,0h0.1c0.2,0,0.4,0,0.6-0.1l0,0C46.6,57.3,46.8,58.4,47.5,58.8z M52.5,59.8
		c-0.2,1.4-0.9,3-2.1,3.4c-0.6,0.2-1.1,0.1-1.6-0.2c-0.2-0.1-0.6-0.8-0.6-0.8c-0.3-0.5-0.4-1.1-0.3-1.6c0.2,0,0.3,0,0.5,0
		c0.1,0,0.2,0,0.2-0.1c0.1,1.6,0.9,1.8,1.2,1.8l0,0c1,0,2-1.2,2.2-2.5C52.2,59.7,52.4,59.8,52.5,59.8L52.5,59.8L52.5,59.8z
		 M41.6,64.2L41.6,64.2L41.6,64.2L41.6,64.2z M35.3,64.5L35.3,64.5L35.3,64.5L35.3,64.5z M36.2,63.5C36.2,63.4,36.2,63.4,36.2,63.5
		c0.1-0.3,0.2-0.5,0.3-0.8c0.1,0.4,0.4,0.4,0.5,0.5c0.3,0,0.5-0.1,0.7-0.4c0.1,0.3,0.3,0.6,0.4,0.8l0,0c-0.2,0.4-0.5,0.7-0.9,0.7
		l0,0C36.8,64.2,36.4,63.9,36.2,63.5z M37.7,64.4L37.7,64.4L37.7,64.4L37.7,64.4z M39.1,64C39,64,39,64,39.1,64
		c-0.1-0.1-0.2-0.1-0.2-0.1c-0.7-0.5-1.1-1.9-1.3-3c-0.1-0.3-0.1-0.6-0.2-0.9c0.2-0.1,0.5-0.2,0.8-0.3c0,0.2,0.1,0.3,0.1,0.5
		c0.1,0.3,0.1,0.6,0.2,0.8c0,0.2,0.1,0.4,0.2,0.6c0.3,0.8,0.8,1.4,1.5,1.3c1-0.1,1.2-1.7,1.4-2.5c0,0,0,0,0-0.1
		c0.2,0.1,0.4,0.2,0.6,0.2c0,0.1,0,0.1,0.1,0.2c0,0.1-0.1,0.3-0.1,0.4l0,0l0,0c-0.3,1-0.9,2.4-1.9,2.7C39.7,64.1,39.4,64.1,39.1,64z
		 M40.2,64.2L40.2,64.2L40.2,64.2C40.2,64.3,40.2,64.3,40.2,64.2L40.2,64.2z M41.5,63.7l-0.1-0.1c0-0.1-0.1-0.1-0.1-0.2
		c0.1-0.1,0.2-0.3,0.3-0.5c0.2,0.3,0.5,0.5,0.8,0.4c0.2,0,0.4-0.2,0.5-0.5c0.1,0.3,0.3,0.5,0.5,0.7c-0.2,0.4-0.6,0.7-1.1,0.7
		C41.9,64.1,41.6,64,41.5,63.7z M42.9,62.3C42.9,62.2,42.9,62.2,42.9,62.3c-0.1-0.4-0.2-0.7-0.4-1c0-0.1-0.1-0.3-0.1-0.4v-0.1
		c0.2,0,0.4,0,0.7-0.1c0.1,0,0.2,0,0.3-0.1c0,0,0,0,0,0.1c0.2,1.4,0.8,2.3,1.6,2.3l0,0c0.8,0,1.8-1,2-2.7c0.1,0.1,0.3,0.1,0.4,0.2
		c-0.1,0.6-0.4,1.3-0.7,1.9c-0.2,0.4-0.6,0.8-0.9,1.1c-0.2,0.2-0.4,0.3-0.7,0.3C43.9,64.1,43.3,63.3,42.9,62.3z M45.4,64L45.4,64
		L45.4,64L45.4,64z M46.7,63c0.2-0.2,0.3-0.4,0.4-0.7c0.2,0.2,0.4,0.3,0.5,0.4c0.2,0,0.4,0,0.6-0.2c0.1,0.2,0.3,0.4,0.5,0.6
		c-0.2,0.4-0.6,0.6-1.1,0.6C47.2,63.7,46.8,63.4,46.7,63z M53.5,62.7L53.5,62.7L53.5,62.7L53.5,62.7z M35.2,57.7L35.2,57.7
		L35.2,57.7L35.2,57.7z M53.5,62.3c-0.2,0.4-0.6,0.6-1,0.6c-0.3,0-0.6-0.1-0.8-0.4c0.1-0.2,0.3-0.4,0.4-0.6c0.2,0.2,0.4,0.2,0.6,0.2
		c0.2,0,0.3-0.1,0.5-0.3C53.3,62,53.4,62.2,53.5,62.3L53.5,62.3z M43.6,54.1L43.6,54.1L43.6,54.1L43.6,54.1z M41.7,56.6
		c-0.1,0-0.8,0.2-1.8-0.6c0,0-0.3-0.3-0.4-0.3c-0.5-0.6-1-1.4-1.3-2.3l0,0c0,0,0,0,0-0.1c0.2,0,0.5-0.1,0.7-0.2
		c0.6,1.4,1.4,2.2,2.2,2.2c0.7,0,1.3-0.8,1.7-2c0.2,0,0.4,0,0.6,0c0,0.1,0,0.3,0,0.4C43.2,55.3,42.6,56.4,41.7,56.6z M39.8,52.5
		L39.8,52.5L39.8,52.5C39.8,52.5,39.8,52.4,39.8,52.5C39.8,52.4,39.8,52.4,39.8,52.5z M38.2,42.3c0.5,0,0.8,0.1,1.1,0.2l0,0h-2.4
		C37.2,42.3,37.7,42.2,38.2,42.3z M36.1,47.1c0-0.9-0.1-1.7,0-2.4c0.2,0.1,0.4,0.2,0.6,0.2h2.6c0.5,0,1-0.3,1.2-0.7
		c0,0.4-0.1,0.8-0.1,1.3c-0.1,0.6-0.2,1.4-0.2,2.2c-1.3,0-2.7,0-4,0.1L36.1,47.1z M35.7,51.2L35.7,51.2L35.7,51.2L35.7,51.2z
		 M34.3,53.6c0,0.2,0.1,0.4,0.2,0.6c0.3,0.7,0.7,1.3,1.4,1.2c1-0.2,1.3-1.7,1.3-2.2h0.1c0.2,0.1,0.4,0.1,0.6,0.1
		c-0.3,1.1-0.9,3.3-2.3,3.3l0,0c-1.6,0-2-2.3-2.3-3.5c0.1,0,0.1,0,0.2,0c0.2,0,0.4-0.1,0.6-0.2c0,0.1,0,0.1,0.1,0.2
		C34.2,53.3,34.2,53.4,34.3,53.6z M32,63.5c0.3,0,0.5-0.1,0.7-0.3c0.1,0.3,0.2,0.5,0.4,0.8c-0.3,0.4-0.6,0.6-1,0.5
		c-0.5,0-0.9-0.4-1.2-0.9c0.2-0.2,0.4-0.4,0.5-0.6C31.4,63.3,31.7,63.5,32,63.5z M56.8,60.1c-0.1,1.3-0.8,1.8-1.2,2.1l0,0l0,0
		c-0.1,0-0.2,0.1-0.2,0.2c-0.1,0-0.2,0.1-0.3,0.1c-0.3,0.1-0.6,0.1-0.9,0c-0.7-0.3-1.3-1.4-1.4-2.6l0,0c0.2,0,0.5-0.1,0.7-0.1l0,0
		c0.3,1,0.9,1.7,1.6,1.6c0.7,0,1.4-0.6,1.7-1.4C56.8,59.9,56.8,60,56.8,60.1z M55.6,55.6c0.1,0.2,0.2,0.5,0.3,0.7l0,0l0,0
		c-0.6,0.4-1.1,0.5-1.5,0.3c-1-0.5-1.3-2.8-1.3-3.9c0.2,0,0.3,0,0.5-0.1c0,0.1,0,0.2,0.1,0.3c0.2,0.8,0.4,2.1,1.1,2.4
		c0.2,0.1,0.5,0,0.8-0.2C55.5,55.3,55.6,55.4,55.6,55.6z M55.4,55L55.4,55L55.4,55L55.4,55z M52.5,51.2c0.4,0,0.9-0.1,1.3-0.9
		c0.2,0.4,0.4,0.9,0.5,1.4l0,0c-0.5,0.8-1.3,0.7-1.7,0.7c-0.2,0-0.3-0.1-0.5-0.1l0,0c-0.4-0.2-0.8-0.4-1.1-0.7
		c-0.2-0.2-0.3-0.4-0.5-0.6l0,0c-0.1-0.2-0.2-0.3-0.2-0.5c0.1-0.3,0.2-0.6,0.3-1C50.9,50.3,51.7,51.2,52.5,51.2z M45.8,49.3
		L45.8,49.3C45.8,49.4,45.8,49.3,45.8,49.3L45.8,49.3z M47.7,51.3c1.1-0.2,2.2-2,2.3-3.7c0.2,0,0.4,0,0.5,0c0.1,0.8-0.1,1.7-0.3,2.5
		c0,0.1-0.1,0.4-0.1,0.4c-0.2,0.5-0.5,1-0.8,1.4c0,0.1-0.3,0.3-0.3,0.4c-0.2,0.2-0.4,0.3-0.6,0.4l0,0c0,0,0,0-0.1,0
		s-0.1,0.1-0.2,0.1c-0.9,0.3-1.8-0.4-2.5-1.9l0,0c0,0,0-0.1-0.1-0.1c0.1-0.3,0.2-0.7,0.3-1.1C46.4,51.2,47.1,51.4,47.7,51.3z
		 M45.7,47.9c-0.1,1.9-0.6,3.5-1.3,4.4c0,0-0.4,0.5-0.9,0.7l0,0l0,0l0,0c-0.9,0.2-1.8-0.4-2.8-1.9c0.1-0.4,0.2-0.8,0.2-1.2
		c0.6,1.2,1.4,1.8,2.3,1.6c1-0.3,1.8-1.6,1.5-3.5C45,48,45.4,47.9,45.7,47.9z M35.1,48.1L35.1,48.1L35.1,48.1L35.1,48.1z M31.5,49.7
		c0.1-0.1,0.1-0.3,0.2-0.4c0.2,0.7,0.7,1.5,1.2,1.8c0.3,0.2,0.7,0.2,1,0.1c0.8-0.3,1.2-1.9,1.4-2.9c0-0.1,0-0.2,0-0.3
		c0.1,0,0.2,0,0.3,0v0.1l0.2-0.1l0,0c0,0,0,0,0.1,0c0,0,0,0,0.1,0l0.2,0.1V48l0,0c0.1,1.8-0.8,3.7-1.8,4.5c-0.1,0-0.2,0.1-0.2,0.1
		s-0.5,0.3-0.7,0.3c-1,0.1-1.7-0.8-2.2-2.6C31.4,50.1,31.4,49.9,31.5,49.7z M30.3,53.7L30.3,53.7L30.3,53.7L30.3,53.7L30.3,53.7z
		 M30.2,54.1c0.4,0.8,0.9,0.9,1.2,0.8c0.6-0.1,1.1-0.9,1.2-1.9c0.2,0.1,0.3,0.1,0.5,0.2C33,53.4,33,53.7,33,53.9V54
		c-0.3,1-0.8,1.9-1.5,2.1c-0.5,0.1-1-0.1-1.5-0.7l0,0l-0.1-0.1C30,54.8,30.1,54.4,30.2,54.1z M29,64.1c-0.2-0.1-0.4-0.2-0.5-0.3
		c-0.3-0.2-0.6-0.7-0.4-1.8l0,0c0.1-0.3,0.1-0.6,0.2-0.9c0,0.6,0.1,1.1,0.4,1.5c0.2,0.3,0.4,0.4,0.7,0.5c0.3,0.1,0.6,0,0.8-0.2
		c0.8-0.6,1.1-2.4,1.2-3.2c0.2,0.2,0.4,0.4,0.7,0.5c-0.1,0.8-0.3,1.6-0.7,2.3c0,0.1-0.6,1.1-1.6,1.6C29.6,64.1,29.3,64.1,29,64.1z"
		/>
	<path class="st0" d="M48.4,72.4C48.3,72.4,48.3,72.5,48.4,72.4c-0.1,0.4-0.1,1.1-0.1,1.3c0,0.1,0,0.1,0.1,0.1l0,0
		c0.1,0,0.1,0,0.1-0.1C48.5,73.5,48.5,72.8,48.4,72.4C48.5,72.4,48.4,72.4,48.4,72.4z"/>
	<path class="st0" d="M37.1,67.1c-0.2-0.1-0.7-0.3-1.2-0.3c-0.3,0-0.6,0.1-0.8,0.2c-0.3,0.2-0.8,0.6-0.8,1.5c0,0.7-0.1,1.6,0.7,1.8
		c0.4,0.1,0.7,0.1,1,0.1c0.5,0,0.8-0.1,1.1-0.3c0.3-0.3,0.4-0.6,0.4-0.7v-0.2C37.6,68.3,37.7,67.4,37.1,67.1z M36.9,69.1v0.2
		c0,0,0,0.1-0.2,0.3c-0.1,0.1-0.3,0.2-0.7,0.2c-0.2,0-0.5,0-0.9-0.1c-0.2-0.1-0.2-0.6-0.2-1.2c0-0.5,0.2-0.8,0.5-1
		c0.2-0.1,0.3-0.1,0.6-0.1c0.3,0,0.7,0.1,0.9,0.2C37.1,67.7,37,68.5,36.9,69.1z"/>
	<path class="st0" d="M36.9,70.8c-0.2-0.1-0.7-0.3-1.2-0.3c-0.3,0-0.6,0.1-0.8,0.2c-0.3,0.2-0.8,0.6-0.8,1.5c0,0.7-0.1,1.6,0.7,1.8
		c0.4,0.1,0.7,0.1,1,0.1c0.5,0,0.8-0.1,1.1-0.3c0.4-0.3,0.4-0.6,0.4-0.7v-0.2C37.4,72.1,37.5,71.2,36.9,70.8z M36.7,72.8V73
		c0,0,0,0.1-0.2,0.3c-0.3,0.2-0.8,0.2-1.6,0.1c-0.2-0.1-0.2-0.6-0.2-1.2c0-0.5,0.2-0.8,0.5-1c0.2-0.1,0.3-0.1,0.6-0.1
		c0.4,0,0.7,0.1,0.9,0.2C36.8,71.5,36.8,72.2,36.7,72.8z"/>
	<path class="st0" d="M40.6,67.3c-0.2-0.1-0.7-0.3-1.2-0.3c-0.3,0-0.6,0.1-0.8,0.2c-0.3,0.2-0.8,0.6-0.8,1.5c0,0.7-0.1,1.6,0.7,1.8
		c0.4,0.1,0.7,0.1,1,0.1c0.5,0,0.8-0.1,1.1-0.3c0.3-0.3,0.4-0.6,0.4-0.7v-0.2C41.1,68.6,41.2,67.7,40.6,67.3z M40.4,69.4v0.2
		c0,0.1,0,0.2-0.2,0.3c-0.1,0.1-0.3,0.2-0.7,0.2c-0.2,0-0.5,0-0.9-0.1c-0.2-0.1-0.2-0.6-0.2-1.2c0-0.5,0.2-0.8,0.5-1
		c0.2-0.1,0.3-0.1,0.6-0.1c0.3,0,0.7,0.1,0.9,0.2C40.6,68,40.5,68.8,40.4,69.4z"/>
	<path class="st0" d="M40.4,71.1c-0.2-0.1-0.7-0.3-1.2-0.3c-0.3,0-0.6,0.1-0.8,0.2c-0.3,0.2-0.8,0.6-0.8,1.5c0,0.7-0.1,1.6,0.7,1.8
		c0.4,0.1,0.7,0.1,1,0.1c0.5,0,0.8-0.1,1.1-0.3c0.3-0.3,0.4-0.6,0.4-0.7v-0.2C40.9,72.3,41,71.5,40.4,71.1z M40.2,73.1v0.2
		c0,0,0,0.1-0.2,0.3c-0.1,0.1-0.3,0.2-0.7,0.2c-0.2,0-0.5,0-0.9-0.1c-0.2-0.1-0.2-0.6-0.2-1.2c0-0.5,0.2-0.8,0.5-1
		c0.2-0.1,0.3-0.1,0.6-0.1c0.4,0,0.7,0.1,0.9,0.2C40.4,71.8,40.3,72.5,40.2,73.1z"/>
</g>
<g>
	<rect x="22.2" y="6.8" class="st0" width="18.9" height="0.4"/>
	<rect x="60.6" y="6.8" class="st0" width="18.9" height="0.4"/>
	<path class="st0" d="M46.4,6.4c0,0.2,0.1,0.4,0.3,0.4c0.2,0,0.4-0.1,0.4-0.3c0,0,0-0.1,0-0.1c0.2,0,0.2-0.2-0.1-0.1
		c0-0.1-0.1-0.1-0.2-0.1c0.1-0.3-0.1-0.4-0.1,0c-0.1,0-0.1,0-0.2,0.1C46.4,6,46.3,6,46.5,6.3C46.5,6.3,46.4,6.3,46.4,6.4z M46.8,6.1
		c0.2,0,0.3,0.2,0.3,0.4c0,0.2-0.2,0.3-0.4,0.3s-0.3-0.2-0.3-0.4C46.5,6.2,46.7,6.1,46.8,6.1z"/>
	<circle class="st0" cx="46.8" cy="6.4" r="0.1"/>
	<path class="st0" d="M45.6,6.3c0,0,0,0.1,0.1,0.1C45.6,6.4,45.6,6.3,45.6,6.3C45.6,6.3,45.6,6.3,45.6,6.3z"/>
	<path class="st0" d="M55.2,6.2l0.3-0.1c0,0,0,0,0,0s0,0,0,0L55.2,6.2L55.2,6.2C55.1,6.2,55.1,6.3,55.2,6.2l0.3,0.2c0,0,0,0,0,0
		L55.2,6.2z"/>
	<path class="st0" d="M57.8,5.2c0.1-0.1,0.1-0.2,0.2-0.2C58,4.8,58,4.7,58,4.6c-0.2-0.3-0.4-0.4-0.6-0.3c0,0-0.1,0-0.1,0v0
		c0.1-0.1,0.1-0.2,0.1-0.4c-0.1-0.3-0.2-0.4-0.4-0.4c0,0,0,0,0,0c-0.2-0.1-0.4,0-0.6,0.1c0.1-0.2,0-0.4,0-0.5
		c-0.1-0.2-0.2-0.3-0.5-0.4c-0.1,0-0.3,0.1-0.4,0.2c0,0-0.1,0.1-0.1,0.1c0-0.1,0-0.3-0.1-0.5c-0.2-0.2-0.4-0.3-0.6-0.2
		c-0.7,0.2-1.2,1.9-1.2,2.5c0,0.2-0.1,0.4-0.1,0.6c-0.1,0.2-0.4,1.1-0.4,1.2c-0.1,0.1-0.1,0.1-0.2,0.2l0,0C50.5,8,49.7,7.3,48.9,7
		l0,0c-0.2-0.1-0.5-0.3-0.6-0.4c-0.1-0.1-0.1-0.1-0.2-0.2C48,6.1,47.9,6,47.7,5.9c-0.1,0-0.1-0.1-0.2-0.1c0.2-0.1,0.2-0.3,0.3-0.4
		c0-0.1,0.1-0.2,0.1-0.2c0.2-0.1,0.5-0.1,0.7-0.1c0.4,0,0.7,0,0.8-0.2c0.1-0.2,0.1-0.3,0-0.4c0,0-0.1-0.1-0.2-0.1h0
		c-0.1,0-0.2,0.1-0.2,0.2c0,0.1,0.1,0.2,0.2,0.2c0.1,0,0.2-0.1,0.2-0.2c0-0.1,0-0.1,0-0.1c0,0,0,0,0.1,0c0,0.1,0,0.2,0,0.4
		C49.3,5,49,5,48.6,5c-0.2,0-0.4,0-0.6,0c0,0,0,0,0,0s0,0-0.1,0c-0.3,0.1-0.5,0.2-0.6,0.6c-0.1,0-0.2-0.1-0.3-0.1
		c0,0,0.1-0.1,0.1-0.1c0.2-0.2,0.3-0.3,0.3-0.6c0,0,0-0.1,0-0.1c0-0.1,0-0.1,0-0.1v0c0.2-0.2,0.5-0.3,0.7-0.4C48.5,4.3,49,4,49,3.5
		c0-0.1-0.1-0.2-0.2-0.2c-0.1,0-0.3,0-0.3,0.1c0,0,0,0,0,0c0,0.1,0.1,0.2,0.2,0.2c0.1,0,0.2-0.1,0.2-0.2c0-0.1,0-0.1-0.1-0.2
		c0,0,0,0,0,0c0.1,0,0.1,0.1,0.1,0.2c0,0.5-0.5,0.7-0.9,0.8c-0.6,0.1-1.2,0.7-1.2,1.3c-0.1,0-0.1,0-0.2,0c0,0-0.1,0-0.1,0
		c0.2-0.2,0.2-0.4,0.2-0.6c0-0.2,0-0.4,0.1-0.5c0.1-0.1,0.2-0.2,0.3-0.3c0.1,0,0.1-0.1,0.2-0.1c0.5-0.3,1.1-0.7,1.2-1.1
		c0-0.4-0.2-0.5-0.3-0.5c-0.1,0-0.2,0-0.3,0.1c0,0,0,0,0,0c0,0-0.1,0.1-0.1,0.1c0,0,0,0,0,0c0,0.1,0,0.1,0.1,0.2h0c0,0,0,0,0,0
		c0.1,0,0.2,0,0.2-0.1c0,0,0,0,0-0.1c0-0.1-0.1-0.1-0.1-0.2c0,0,0.1,0,0.2,0c0.2,0,0.2,0.2,0.2,0.5c0,0.4-0.7,0.8-1.2,1.1
		c-0.1,0-0.1,0.1-0.2,0.1c-0.5,0.3-0.8,1-0.8,1.5c-0.2,0.1-0.5,0.2-0.7,0.4c-0.2,0.2-0.4,0.4-0.6,0.6v0c0,0,0,0.1,0,0.1
		c0.3,0.1,0.5,0.7,0.8,1.3c0.3,0.8,0.7,1.7,1.4,1.9c0.2,0.1,0.5,0.1,0.7,0.1c-0.1,0.3,0,0.7,0.2,0.9c0,0,0,0.1-0.1,0.4v0
		c0,0,0,0,0,0.1c0,0,0,0,0,0h0c0,0,0.1,0,0.1-0.1v0c0-0.1,0.1-0.2,0.1-0.3c0.1,0.1,0.1,0.1,0.2,0.2c0,0,0.1,0,0.1,0c0,0,0-0.1,0-0.1
		c-0.1,0-0.1-0.1-0.2-0.2l0.4,0c0,0,0.1,0,0.1-0.1c0,0,0-0.1-0.1-0.1l-0.5,0c-0.1-0.2-0.2-0.6-0.2-0.8c0.1,0,0.2,0,0.3,0
		c0.1,0,0.2,0,0.4,0c0.3,0,0.5-0.1,0.8-0.2c0,0.3,0.2,0.6,0.5,0.8c0,0,0,0.1,0,0.4v0c0,0,0,0.1,0.1,0.1c0,0,0,0,0,0c0,0,0,0,0,0v0
		c0-0.1,0-0.2,0-0.3c0.1,0.1,0.2,0.1,0.2,0.1h0c0,0,0.1,0,0.1,0c0,0,0,0,0-0.1s0,0,0,0c-0.1,0-0.1-0.1-0.2-0.1l0.4-0.1
		c0,0,0.1,0,0-0.1c0,0,0-0.1-0.1-0.1l-0.5,0.1c-0.2-0.2-0.4-0.5-0.4-0.8c0.2-0.1,0.3-0.1,0.5-0.2c1.1-0.6,1.8-1.6,2.2-2.1l0,0
		c0.1-0.1,0.2-0.2,0.2-0.4C52.7,7,52.8,7,52.8,6.9c0,0,0,0,0-0.1c0,0,0,0,0-0.1c0,0,0,0,0,0c0,0,0,0,0,0h0c0,0,0.1,0,0.1,0
		c0.1,0,0.2,0,0.3,0c0.1,0,0.1,0,0.2,0c0.3,0,0.8,0,1.4-0.1h0c0.2,0,0.5,0,0.7-0.1l0.1,0c0.6-0.1,1.1-0.1,1.3-0.1
		c0.8,0,1.1-0.3,1.2-0.5c0.1-0.1,0.1-0.4,0-0.5C58.1,5.3,57.9,5.3,57.8,5.2z M52,7.2L52,7.2L52,7.2c0.1,0,0.1,0.1,0.1,0.1h0
		C52,7.3,52,7.2,52,7.2z M51.6,7.4L51.6,7.4L51.6,7.4L51.6,7.4L51.6,7.4h0.1h0h0h0c0.1,0,0.1,0.1,0,0.1h0h0h0h0h0h0h0h0
		C51.6,7.4,51.6,7.4,51.6,7.4z M51.2,7.4L51.2,7.4L51.2,7.4L51.2,7.4h0.1h0h0h0c0.1,0,0.1,0.1,0,0.1h0h0h0h0h0h0h0h0
		C51.1,7.5,51.1,7.4,51.2,7.4z M50.8,7.5L50.8,7.5L50.8,7.5L50.8,7.5h0.1h0c0,0,0.1,0,0,0.1c0,0,0,0,0,0h0h0h0h0h0h0h0
		C50.7,7.6,50.7,7.5,50.8,7.5z M50.3,7.5L50.3,7.5L50.3,7.5L50.3,7.5h0.1h0c0,0,0,0,0.1,0c0,0,0,0.1-0.1,0.1h0h0h0h0h0h0h0
		C50.3,7.6,50.3,7.5,50.3,7.5z M49.9,7.5C49.9,7.5,49.9,7.5,49.9,7.5L49.9,7.5L49.9,7.5l0.1,0h0h0h0h0c0.1,0,0,0.1,0,0.1h0h0h0
		L49.9,7.5L49.9,7.5L49.9,7.5C49.8,7.6,49.8,7.5,49.9,7.5z M49.8,8L49.8,8L49.8,8L49.8,8L49.8,8h0.1h0h0h0h0c0,0,0,0.1,0,0.1h0h0h0
		h0h0h0h0c0,0,0,0,0,0C49.7,8.1,49.7,8,49.8,8z M49.4,7.5C49.4,7.4,49.5,7.4,49.4,7.5L49.4,7.5l0.1,0h0h0h0c0,0,0.1,0,0,0.1
		c0,0,0,0-0.1,0h0h0L49.4,7.5L49.4,7.5L49.4,7.5C49.4,7.5,49.4,7.5,49.4,7.5z M49.4,8L49.4,8L49.4,8L49.4,8L49.4,8h0.1h0h0h0
		c0,0,0,0.1-0.1,0.1h0h0h0h0h0l0,0h0c0,0,0,0,0,0C49.3,8.1,49.4,8,49.4,8z M49.1,7.3L49.1,7.3L49.1,7.3L49.1,7.3L49.1,7.3h0.1h0
		c0,0,0,0.1,0,0.1h0h0h0h0h0h0C49,7.4,49,7.3,49.1,7.3z M49,7.9L49,7.9L49,7.9L49,7.9L49,7.9h0.1h0h0c0,0,0.1,0.1,0,0.1c0,0,0,0,0,0
		h0h0h0h0h0h0h0h0h0C48.9,8,48.9,7.9,49,7.9z M48.7,7.2L48.7,7.2L48.7,7.2C48.8,7.2,48.8,7.2,48.7,7.2c0.1,0.1,0.1,0.1,0,0.1h0h0h0
		h0h0c0,0,0,0,0,0C48.6,7.3,48.6,7.2,48.7,7.2L48.7,7.2z M48.7,8L48.7,8L48.7,8L48.7,8L48.7,8h-0.1h0h0h0c0,0,0,0,0,0
		c0,0,0-0.1,0.1-0.1h0h0h0h0h0h0h0h0C48.8,7.9,48.7,8,48.7,8z M45.4,6.7c0.1,0,0.2,0,0.3-0.1c0,0.1,0,0.1,0,0.2c0,0.1,0,0.1-0.1,0.2
		C45.6,6.9,45.5,6.8,45.4,6.7z M51.9,8.1C51.9,8.1,51.8,8.1,51.9,8.1c0-0.1,0-0.1,0-0.1C51.9,8,51.9,8,51.9,8.1L52,8
		C52,8,51.9,8.1,51.9,8.1z M52.5,7.3c-0.4,0.5-1,0.8-1.7,1c-0.8,0.2-1.8,0.2-2.4-0.1c0,0,0,0,0,0c0.6,1.4,2.3,1.1,3.5,0
		c-0.5,0.6-1,1-1.6,1.3c-0.4,0.2-0.9,0.4-1.4,0.4c-0.2,0-0.5,0-0.7,0c0,0,0,0,0.1,0c0,0,0.1-0.1,0.1-0.3c0.1,0.1,0.2,0.1,0.2,0.1
		c0.1,0,0.1,0,0.2-0.1c0-0.1,0-0.2-0.1-0.4c0,0,0,0,0,0c0,0,0,0,0,0c0.1,0.2,0.1,0.3,0.1,0.4c0,0-0.1,0.1-0.1,0.1
		c-0.1,0-0.2-0.1-0.3-0.2c0,0,0,0,0,0c0,0,0,0,0,0c0,0.2,0,0.3-0.1,0.3c-0.1,0-0.2,0-0.3-0.1c0,0,0,0,0,0c0,0,0,0,0,0
		c0.1,0.1,0.1,0.1,0.2,0.1c-0.2,0-0.4-0.1-0.6-0.1c-0.7-0.2-1-1.1-1.3-1.8c-0.1-0.3-0.2-0.6-0.4-0.9c0-0.1,0.1-0.1,0.1-0.2
		c0-0.2,0-0.4,0-0.5c0,0.1,0,0.1,0,0.2c-0.1,0.1-0.2,0.1-0.4,0.1c0.1-0.1,0.2-0.3,0.3-0.4c0,0,0,0,0,0c0,0,0.1-0.1,0.1-0.1
		C46,6,46.3,5.8,46.6,5.8c0.3,0,0.6,0,0.9,0.2c0.2,0.1,0.3,0.2,0.5,0.4c0.1,0.1,0.1,0.1,0.2,0.2c0.1,0.1,0.3,0.2,0.5,0.4
		c-0.2,0-0.4,0.2-0.5,0.4c0,0,0,0,0,0c0,0.3,0.1,0.7,0.1,0.8h0c0,0,0,0,0.1,0C49,8.5,50,8.5,50.8,8.3c0.7-0.2,1.3-0.6,1.7-1.1
		C52.5,7.2,52.5,7.3,52.5,7.3L52.5,7.3z M51.7,8.3L51.7,8.3L51.7,8.3L51.7,8.3L51.7,8.3l-0.1,0h0c-0.1,0-0.1-0.1,0-0.1h0h0h0
		L51.7,8.3L51.7,8.3L51.7,8.3L51.7,8.3C51.7,8.2,51.7,8.3,51.7,8.3z M51.3,8.5L51.3,8.5L51.3,8.5L51.3,8.5L51.3,8.5h-0.1h0h0
		c-0.1,0-0.1-0.1,0-0.1h0h0h0h0h0h0h0C51.3,8.4,51.3,8.5,51.3,8.5z M50.9,8.6L50.9,8.6L50.9,8.6L50.9,8.6L50.9,8.6h-0.1h0h0
		c-0.1,0-0.1-0.1,0-0.1h0h0h0h0h0h0h0C50.9,8.5,50.9,8.6,50.9,8.6z M50.4,8.7L50.4,8.7L50.4,8.7L50.4,8.7L50.4,8.7h-0.1h0h0
		c-0.1,0,0-0.1,0-0.1h0h0h0h0h0h0h0C50.5,8.6,50.5,8.7,50.4,8.7z M50,8.8L50,8.8L50,8.8L50,8.8L50,8.8h-0.1h0c0,0-0.1,0-0.1-0.1
		c0,0,0,0,0,0h0h0h0h0h0h0h0C50.1,8.7,50.1,8.8,50,8.8z M49.6,8.8C49.6,8.8,49.6,8.8,49.6,8.8L49.6,8.8L49.6,8.8l-0.1,0h0h0h0
		c0,0-0.1,0,0-0.1c0,0,0,0,0,0h0h0h0h0h0h0C49.6,8.7,49.6,8.8,49.6,8.8z M49.1,8.8L49.1,8.8L49.1,8.8L49.1,8.8H49h0h0h0
		c0-0.1,0-0.1,0.1-0.1h0h0h0h0h0h0h0h0C49.2,8.8,49.2,8.8,49.1,8.8z M50.2,8L50.2,8L50.2,8L50.2,8L50.2,8h0.1h0h0h0c0,0,0.1,0,0,0.1
		c0,0,0,0,0,0h0h0h0h0h0h0h0h0h0C50.2,8.1,50.2,8,50.2,8z M50.7,8L50.7,8L50.7,8L50.7,8L50.7,8h0.1h0h0h0h0c0.1,0,0,0.1,0,0.1h0h0h0
		h0h0h0h0h0h0C50.6,8,50.6,8,50.7,8z M51.2,7.9L51.2,7.9c0.1,0,0.1,0.1,0,0.1h0h0C51.2,8,51.2,7.9,51.2,7.9z M51.6,7.7L51.6,7.7
		c0.1,0,0.1,0.1,0.1,0.1h0h0C51.6,7.8,51.6,7.7,51.6,7.7z M52,7.5C52,7.5,52,7.5,52,7.5C52.1,7.5,52.1,7.5,52,7.5L52,7.6
		c0,0,0,0,0,0C52,7.6,51.9,7.5,52,7.5z M50.6,7.9c-0.2,0-0.4,0-0.6,0C50.2,7.9,50.3,7.9,50.6,7.9c0.7-0.1,1.5-0.4,2-0.9l0,0
		C52,7.5,51.3,7.8,50.6,7.9z M53.5,6.6c-0.3,0-0.4,0-0.5,0l0.1-0.2L53,6.5c0-0.1,0.1-0.3,0.2-0.5c0.1,0.1,0.2,0.1,0.3,0.2
		C53.5,6.4,53.5,6.6,53.5,6.6z M53.6,6.6c0-0.1,0.1-0.5-0.3-0.7c0-0.1,0.1-0.2,0.1-0.3c0.6,0.2,0.6,0.7,0.6,0.9
		C53.8,6.6,53.7,6.6,53.6,6.6z M53.3,5.6l0.1-0.1l0,0.2C53.4,5.7,53.4,5.6,53.3,5.6z M53.6,5.7l0.2,0l0,0.2
		C53.7,5.8,53.6,5.8,53.6,5.7z M53.8,6L54,6l-0.1,0.1C53.9,6.1,53.9,6,53.8,6z M54,6.2l0.1,0.1L54,6.4C54,6.4,54,6.3,54,6.2z
		 M54,6.6C54,6.6,54,6.6,54,6.6L54,6.6C54,6.6,54,6.6,54,6.6z M54.1,6.6L54,6.5l0.1-0.1v0v0L54,6.2L54.1,6v0c0,0,0,0,0,0l-0.2-0.1
		l0.1-0.2v0h0l-0.3,0.1l0-0.2c0,0,0,0,0,0h0l-0.1,0.1c0,0,0,0,0-0.1c0-0.1,0-0.2,0.1-0.3c0.4,0.1,0.6,0.3,0.8,0.5
		c0.2,0.3,0.3,0.6,0.3,0.9C54.4,6.6,54.2,6.6,54.1,6.6z M54.8,6.6c-0.1,0-0.1,0-0.2,0c0-0.3-0.1-0.7-0.3-1c-0.1-0.2-0.4-0.4-0.8-0.5
		c0,0,0-0.1,0-0.1c0.1,0.1,0.2,0,0.2,0h0c0,0.2,0.2,0.2,0.3,0.1h0c0,0.2,0.2,0.2,0.3,0.1c-0.1,0.2,0.1,0.2,0.2,0.2
		c-0.1,0.2,0.1,0.3,0.2,0.2c0,0,0,0,0,0c-0.2,0.2,0,0.3,0.1,0.3c-0.1,0.1,0,0.2,0.1,0.3C54.7,6.4,54.7,6.5,54.8,6.6z M57.9,6.1
		c-0.2,0.1-0.5,0.2-0.9,0.2c-0.2,0-0.7,0-1.3,0.1h-0.1c-0.1,0-0.2,0-0.3,0c-0.1,0-0.3,0-0.4,0c0-0.4,0-0.8-0.2-1.1l0.4,0.1
		c0,0,0,0,0,0c0,0,0,0,0,0l-0.4-0.1L55,5c0,0,0,0,0,0c0,0,0,0,0,0l-0.2,0.3v0C54.6,5.2,54.3,5,54,4.9l0.3-0.2c0,0,0,0,0,0
		c0,0,0,0,0,0l-0.3,0.2l-0.1-0.3c0,0,0,0,0,0s0,0,0,0l0.1,0.3c-0.1,0-0.2-0.1-0.3-0.1c0.1-0.4,0.4-1.5,0.8-2c0.3-0.2,0.6-0.3,0.7,0
		c0.1,0.1,0,0.3,0,0.4C55,3.2,55,3.2,55,3.3c0,0,0,0,0,0c0,0,0,0,0,0c0,0,0.1,0,0.1,0c0.3-0.4,0.6-0.5,0.8-0.5c0.1,0,0.1,0,0.2,0
		c0,0,0.1,0.1,0.1,0.1c0,0.1,0.1,0.2,0.1,0.3c0,0.1,0,0.2-0.1,0.4c0,0,0,0.1,0,0.1c0,0,0.1,0,0.1,0c0.1-0.1,0.2-0.1,0.3-0.2
		c0.1,0,0.3-0.1,0.4,0c0.1,0,0.2,0.2,0.3,0.4c0,0.1,0,0.3-0.1,0.4c0,0,0,0.1,0,0.1c0,0,0.1,0,0.1,0c0.1,0,0.2-0.1,0.2-0.1
		c0,0,0.1,0,0.1,0c0,0,0,0,0,0c0.1,0,0.2,0.1,0.2,0.2c0,0,0,0.1,0,0.1c0,0,0,0.1,0,0.1c0,0.1,0,0.1,0,0.1c0,0.1-0.1,0.2-0.2,0.2
		c0,0,0,0,0,0.1c0,0,0,0,0.1,0c0.1,0,0.1,0,0.2,0C58.1,5.5,58.1,5.9,57.9,6.1z"/>
	<path class="st0" d="M55.9,4.7C55.9,4.7,55.9,4.7,55.9,4.7c0.1,0,0.9-0.3,1.1-0.6C57,4.1,57,4,57,4c0-0.1-0.2-0.2-0.3-0.2
		C56.4,3.8,56,4.1,55.9,4.7C55.9,4.7,55.9,4.7,55.9,4.7z M56.7,3.9C56.7,3.9,56.7,3.9,56.7,3.9c0.1,0,0.2,0.1,0.2,0.1s0,0.1,0,0.2
		c-0.2,0.2-0.8,0.4-1,0.5C56.1,4.2,56.5,3.9,56.7,3.9z"/>
	<path class="st0" d="M57.6,5.5c-0.2-0.1-0.7,0-1.2,0.5v0l0,0c0,0,0.9,0.1,1.2-0.1c0.1,0,0.1-0.1,0.1-0.2
		C57.8,5.7,57.7,5.6,57.6,5.5z M57.7,6c-0.2,0.1-0.9,0.1-1.1,0.1c0.4-0.4,0.7-0.5,0.9-0.5c0,0,0.1,0,0.1,0c0.1,0,0.1,0.1,0.1,0.2
		C57.7,5.9,57.7,5.9,57.7,6z"/>
	<path class="st0" d="M56.3,5.3L56.3,5.3L56.3,5.3c0.1,0,0.9-0.1,1.2-0.2c0.1,0,0.1-0.1,0.1-0.2c0-0.1-0.1-0.2-0.2-0.2
		C57.1,4.6,56.7,4.8,56.3,5.3z M57.3,4.7C57.3,4.7,57.3,4.7,57.3,4.7c0.1,0,0.2,0.1,0.2,0.2c0,0.1,0,0.1,0,0.2
		c-0.2,0.1-0.9,0.2-1.1,0.2C56.7,4.9,57.1,4.7,57.3,4.7z"/>
	<path class="st0" d="M56.2,6.1l0.2-0.2c0,0,0,0,0,0c0,0,0,0,0,0L56.2,6.1C56.1,6.1,56.1,6.1,56.2,6.1C56.1,6.1,56.1,6.2,56.2,6.1
		l0.3,0.2c0,0,0,0,0,0s0,0,0,0L56.2,6.1z"/>
	<path class="st0" d="M54.8,4.2C54.8,4.2,54.8,4.2,54.8,4.2l0,0.4v0c0,0,0,0,0,0l0.4-0.1c0,0,0,0,0,0c0,0,0,0,0,0l-0.4,0.1V4.2
		C54.9,4.2,54.8,4.2,54.8,4.2z"/>
	<path class="st0" d="M55.5,5.3C55.5,5.3,55.4,5.3,55.5,5.3l-0.4,0l0.1-0.3c0,0,0,0,0,0c0,0,0,0,0,0L55,5.3c0,0,0,0,0,0H55.5
		C55.5,5.3,55.5,5.3,55.5,5.3z"/>
	<path class="st0" d="M55,4.7l-0.4,0.1l0-0.3c0,0,0,0,0,0c0,0,0,0,0,0l0,0.4v0c0,0,0,0,0,0L55,4.7C55,4.7,55,4.7,55,4.7
		C55,4.7,55,4.7,55,4.7z"/>
	<path class="st0" d="M56.1,3.4c0-0.1,0-0.1,0-0.2C56,3.1,55.9,3,55.7,3c-0.2,0.1-0.5,0.4-0.6,1.1c0,0,0,0,0,0
		C55.2,4.1,56,3.6,56.1,3.4z M55.7,3.1c0,0,0.1,0,0.1,0c0.1,0,0.1,0,0.2,0.1c0,0.1,0,0.1,0,0.2c-0.1,0.2-0.7,0.6-0.8,0.7
		C55.3,3.5,55.5,3.1,55.7,3.1z"/>
	<path class="st0" d="M55.2,5.1L55.2,5.1l0.4,0c0,0,0,0,0,0c0,0,0,0,0,0L55.2,5.1l0.2-0.4c0,0,0,0,0,0c0,0,0,0,0,0L55.2,5.1
		L55.2,5.1z"/>
	<path class="st0" d="M56.4,5.6C56.4,5.6,56.4,5.6,56.4,5.6L56,5.4l0.2-0.2c0,0,0,0,0,0c0,0,0,0,0,0L56,5.4v0c0,0,0,0,0,0L56.4,5.6
		C56.4,5.6,56.4,5.6,56.4,5.6z"/>
	<path class="st0" d="M56,5.7C56,5.7,56,5.7,56,5.7l-0.4-0.2l0.2-0.2c0,0,0,0,0,0c0,0,0,0,0,0l-0.2,0.3v0c0,0,0,0,0,0L56,5.7
		C56,5.7,56,5.7,56,5.7z"/>
	<path class="st0" d="M55.7,4.5C55.6,4.5,55.6,4.5,55.7,4.5l-0.2,0.4v0l0,0l0.4,0c0,0,0,0,0,0c0,0,0,0,0,0l-0.4,0L55.7,4.5
		C55.7,4.5,55.7,4.5,55.7,4.5z"/>
	<path class="st0" d="M56.1,6C56.1,6,56.1,6,56.1,6C56.1,5.9,56.1,5.9,56.1,6l-0.3,0.1l0,0c0,0,0,0,0,0l0.3,0.2c0,0,0,0,0,0
		c0,0,0,0,0,0s0,0,0,0l-0.3-0.1L56.1,6z"/>
	<path class="st0" d="M55.3,5.7C55.3,5.7,55.3,5.7,55.3,5.7l0.4,0.2c0,0,0,0,0,0c0,0,0,0,0,0L55.3,5.7l0.3-0.3c0,0,0,0,0,0
		c0,0,0,0,0,0L55.3,5.7L55.3,5.7z"/>
	<path class="st0" d="M55.4,5.9l-0.3-0.1l0.2-0.2c0,0,0,0,0,0c0,0,0,0,0,0L55,5.8v0c0,0,0,0,0,0L55.4,5.9C55.4,6,55.4,6,55.4,5.9
		C55.4,6,55.4,6,55.4,5.9z"/>
	<path class="st0" d="M54.4,5l0-0.3c0,0,0,0,0,0c0,0,0,0,0,0L54.4,5L54.4,5C54.4,5,54.4,5,54.4,5l0.4,0c0,0,0,0,0,0s0,0,0,0L54.4,5z
		"/>
	<path class="st0" d="M54.1,4.4l0.3-0.2c0,0,0,0,0,0c0,0,0,0,0,0L54.1,4.4L54,4.1c0,0,0,0,0,0c0,0,0,0,0,0L54.1,4.4
		C54.1,4.4,54.1,4.4,54.1,4.4z"/>
	<path class="st0" d="M54.3,4.4L54,4.6l-0.1-0.3c0,0,0,0,0,0c0,0,0,0,0,0L54,4.7c0,0,0,0,0,0h0L54.3,4.4C54.3,4.5,54.3,4.5,54.3,4.4
		C54.3,4.4,54.3,4.4,54.3,4.4z"/>
	<path class="st0" d="M54.2,4.2L54.5,4c0,0,0,0,0,0c0,0,0,0,0,0L54.2,4.2l-0.1-0.4c0,0,0,0,0,0s0,0,0,0L54.2,4.2
		C54.2,4.2,54.2,4.2,54.2,4.2z"/>
	<path class="st0" d="M54.9,4.3L54.9,4.3C54.9,4.3,54.9,4.3,54.9,4.3l0.4-0.1c0,0,0,0,0,0s0,0,0,0L54.9,4.3L55,4c0,0,0,0,0,0
		c0,0,0,0,0,0L54.9,4.3z"/>
	<path class="st0" d="M54.3,3.9C54.3,3.9,54.3,3.9,54.3,3.9C54.3,3.9,54.3,3.9,54.3,3.9c0,0,0.6-0.7,0.7-1c0-0.1,0-0.1-0.1-0.2
		c-0.1-0.1-0.2-0.1-0.3,0C54.3,2.8,54.1,3.2,54.3,3.9C54.3,3.9,54.3,3.9,54.3,3.9z M54.6,2.7c0.1,0,0.1,0,0.2,0c0,0,0.1,0,0.1,0
		c0.1,0,0.1,0.1,0.1,0.1c0,0.2-0.5,0.8-0.6,0.9C54.2,3.2,54.4,2.8,54.6,2.7z"/>
	<path class="st0" d="M55.8,6.1C55.8,6.1,55.8,6,55.8,6.1C55.8,6,55.8,6,55.8,6.1l-0.3,0.1l0,0c0,0,0,0,0,0l0.3,0.2c0,0,0,0,0,0
		c0,0,0,0,0,0c0,0,0,0,0,0l-0.3-0.1L55.8,6.1z"/>
	<circle class="st0" cx="54.7" cy="2.9" r="0.1"/>
	<circle class="st0" cx="55.7" cy="3.3" r="0.1"/>
	<circle class="st0" cx="56.7" cy="4.1" r="0.1"/>
	<circle class="st0" cx="57.3" cy="4.9" r="0.1"/>
	<circle class="st0" cx="57.5" cy="5.8" r="0.1"/>
	<path class="st0" d="M46.8,8c0.2,0.2,0.3,0.3,0.4,0.2c0.1,0,0.2-0.3,0.2-0.5C47.5,8,47.7,8.1,47.8,8c0.1,0,0.2-0.1,0.1-0.5
		c0,0,0,0,0,0c0,0,0,0,0,0c0.1,0.2,0,0.4-0.1,0.4c-0.1,0-0.3-0.1-0.4-0.2c0,0,0,0,0,0c0,0,0,0,0,0v0c0,0.1,0,0.5-0.1,0.5
		c-0.1,0-0.2,0-0.4-0.3c0,0,0,0,0,0c0,0,0,0,0,0c0.1,0.1,0,0.3,0,0.4c0,0-0.1,0.1-0.2,0.1c-0.1,0-0.2-0.1-0.2-0.4c0,0,0,0,0,0
		c0,0,0,0,0,0c0.1,0.4,0.2,0.5,0.3,0.5h0c0.1,0,0.1,0,0.2-0.1C46.8,8.3,46.8,8.2,46.8,8z"/>
	<path class="st0" d="M47.5,8.7c0,0,0-0.1,0.1-0.2C47.6,8.6,47.6,8.7,47.5,8.7z"/>
	<path class="st0" d="M47.7,8.6c0.1,0.1,0.2,0.1,0.2,0.1c0.1,0,0.2-0.1,0.2-0.2c0-0.1,0-0.2,0-0.3c0,0,0,0,0,0c0,0,0,0,0,0
		c0.1,0.1,0.1,0.2,0,0.3c0,0.1-0.1,0.1-0.2,0.2C47.8,8.7,47.8,8.7,47.7,8.6c0-0.1,0-0.1,0-0.2v0c0,0,0,0,0,0c0,0,0,0,0,0
		c0,0,0,0.1,0,0.1c0,0,0,0,0,0C47.6,8.5,47.6,8.6,47.7,8.6z"/>
	<path class="st0" d="M47.1,8.7c0.1,0.1,0.2,0.2,0.3,0.2c0.1,0,0.1,0,0.2-0.1c0,0,0,0,0-0.1c0,0,0,0,0,0c0,0.1-0.1,0.1-0.1,0.1
		C47.3,8.8,47.2,8.7,47.1,8.7c0-0.2,0-0.2-0.1-0.2c0,0,0,0,0,0c0,0.2-0.1,0.4-0.2,0.4c-0.1,0-0.3-0.1-0.3-0.3c0,0,0,0,0,0
		c0,0,0,0,0,0c0,0.2,0.2,0.3,0.3,0.3c0,0,0,0,0,0C47,9,47.1,8.9,47.1,8.7z"/>
	<path class="st0" d="M48.3,8.7C48.3,8.7,48.3,8.7,48.3,8.7C48.2,8.7,48.2,8.7,48.3,8.7L48.3,8.7c0,0.2,0.1,0.4-0.1,0.5
		c0,0.1-0.1,0-0.3-0.2c0,0,0,0,0-0.1c0,0,0,0,0,0c0,0,0,0,0,0c0,0.2,0,0.4,0,0.5c0,0-0.1,0-0.1,0c-0.1,0-0.2-0.2-0.2-0.2
		c0,0,0,0,0,0c0,0,0,0,0,0l0,0c0,0.2-0.1,0.4-0.2,0.4c-0.1,0-0.2-0.1-0.2-0.3c0,0,0,0,0,0s0,0,0,0c0.1,0.2,0.2,0.3,0.3,0.3h0
		c0.1,0,0.2-0.1,0.2-0.4c0,0.1,0.1,0.2,0.2,0.2c0.1,0,0.1,0,0.2,0c0.1-0.1,0.1-0.2,0.1-0.4c0.1,0.1,0.2,0.3,0.4,0.1
		C48.5,9.1,48.4,8.9,48.3,8.7L48.3,8.7z"/>
	<path class="st0" d="M46.4,8.2c0,0.1,0,0.1,0.1,0.1s0.1-0.1,0.1-0.1c0-0.1-0.1-0.1-0.1-0.2C46.5,8.1,46.4,8.2,46.4,8.2z"/>
	<path class="st0" d="M47.2,8.1c0.1,0,0.1-0.1,0-0.1c0,0-0.1-0.1-0.1-0.2c0,0.1,0,0.2,0,0.2C47.1,8.1,47.1,8.1,47.2,8.1z"/>
	<path class="st0" d="M47.7,7.9c0.1,0,0.1-0.1,0-0.1c0-0.1-0.1-0.1-0.1-0.2c0,0.1,0,0.2,0,0.2C47.7,7.8,47.7,7.9,47.7,7.9z"/>
	<path class="st0" d="M47.2,8.6c0,0.1,0,0.1,0.1,0.1c0.1,0,0.1-0.1,0.1-0.1c0-0.1-0.1-0.1-0.1-0.2C47.3,8.5,47.2,8.6,47.2,8.6z"/>
	<path class="st0" d="M47.8,8.4c0,0.1,0,0.1,0.1,0.1C48,8.6,48,8.5,48,8.4c0-0.1-0.1-0.1-0.1-0.2C47.8,8.3,47.8,8.4,47.8,8.4z"/>
	<path class="st0" d="M46.7,8.8c0,0.1,0,0.1,0.1,0.1c0.1,0,0.1-0.1,0-0.1c0-0.1-0.1-0.1-0.1-0.2C46.7,8.6,46.7,8.7,46.7,8.8z"/>
	<path class="st0" d="M47.2,9.4c0.1,0,0.1-0.1,0-0.1c0-0.1-0.1-0.1-0.1-0.2c0,0.1,0,0.2,0,0.2C47.1,9.4,47.1,9.5,47.2,9.4z"/>
	<path class="st0" d="M47.6,9.2c0,0.1,0,0.1,0.1,0.1c0.1,0,0.1-0.1,0-0.1c0-0.1-0.1-0.1-0.1-0.2C47.6,9.1,47.6,9.1,47.6,9.2z"/>
	<path class="st0" d="M48.1,9c0,0.1,0,0.1,0.1,0.1c0.1,0,0.1-0.1,0-0.1c0-0.1-0.1-0.1-0.1-0.2C48.1,8.9,48.1,8.9,48.1,9z"/>
	<path class="st0" d="M48,9.5c0,0.1,0,0.2,0,0.2c0,0,0.1,0.1,0.1,0.1c0.1,0,0-0.1,0-0.1C48.1,9.6,48,9.6,48,9.5z"/>
	<path class="st0" d="M48.6,9.5c0.1,0,0-0.1,0-0.1c0-0.1-0.1-0.1-0.2-0.2c0,0.1,0,0.2,0,0.2C48.4,9.5,48.5,9.6,48.6,9.5z"/>
</g>
</svg>
