<?xml version="1.0" encoding="utf-8"?>
<!-- Generator: Adobe Illustrator 16.0.0, SVG Export Plug-In . SVG Version: 6.00 Build 0)  -->
<!DOCTYPE svg PUBLIC "-//W3C//DTD SVG 1.1//EN" "http://www.w3.org/Graphics/SVG/1.1/DTD/svg11.dtd">
<svg version="1.1" id="Layer_1" xmlns="http://www.w3.org/2000/svg" xmlns:xlink="http://www.w3.org/1999/xlink" x="0px" y="0px"
	 width="101.7px" height="14.7px" viewBox="0 0 101.7 14.7" style="enable-background:new 0 0 101.7 14.7;" xml:space="preserve">
<style type="text/css">
<![CDATA[
	.st0{fill:#E50E63;}
]]>
</style>
<g>
	<path class="st0" d="M52.6,0.2c-2-0.5-3.9-0.1-5.5,0.9c-1.6,1-2.8,2.6-3.3,4.6c-0.5,2-0.1,3.9,0.9,5.5c1,1.6,2.6,2.8,4.6,3.3
		c2,0.5,3.9,0.1,5.5-0.9c1.6-1,2.8-2.6,3.3-4.6c0.5-2,0.1-3.9-0.9-5.5C56.2,1.9,54.6,0.7,52.6,0.2z M47.3,1.3
		C47.3,1.3,47.3,1.3,47.3,1.3c-0.1,0.1-0.2,0.2-0.3,0.3C47.1,1.5,47.2,1.4,47.3,1.3z M43.9,8.1C43.9,8.1,43.9,8.1,43.9,8.1
		C44,8.1,44,8.1,43.9,8.1C44,8.1,44,8.1,43.9,8.1z M57.9,9c-0.4,1.9-1.6,3.4-3.2,4.4c-1.5,1-3.4,1.3-5.3,0.9
		c-1.9-0.4-3.4-1.6-4.4-3.2c-0.3-0.4-0.5-0.9-0.6-1.3c0,0.1,0.1,0.2,0.1,0.3c0.4,0.6,0.9,1.2,1.4,1.7c1.1,1.1,2.4,1.7,3.8,1.9
		c1.3,0.2,2.7,0,3.9-0.6c1.3-0.7,2.3-2,2.8-3.4c0.5-1.4,0.5-3-0.2-4.4c-0.4-1-1.1-1.8-1.8-2.4c-0.8-0.6-1.6-1-2.6-1.2
		c-1-0.1-2,0-2.9,0.4c-0.7,0.3-1.4,0.8-1.9,1.4c-0.5,0.6-0.9,1.4-1,2.2c-0.1,0.8,0,1.7,0.4,2.7c0.2,0.5,0.5,1,0.9,1.4
		c0.6,0.6,1.3,1.1,2,1.4c0.8,0.2,1.6,0.2,2.4-0.1c0.3-0.1,0.7-0.4,1-0.6c0.5-0.4,0.8-0.8,1.1-1.3c0.2-0.5,0.4-1,0.4-1.7
		c0-0.9-0.2-1.6-0.6-2.2c-0.4-0.5-1-0.9-1.9-1c-0.3,0-0.7,0-1,0.1c-0.5,0.1-1,0.5-1.3,0.8c-0.3,0.4-0.6,0.9-0.7,1.4
		c0,0.3,0,0.5,0,0.8c0.1,0.3,0.3,0.5,0.5,0.7c0.2,0.2,0.5,0.3,0.8,0.3c0.3,0,0.6,0,0.8,0c0.2-0.1,0.4-0.2,0.5-0.3
		c0.2-0.3,0.3-0.6,0.3-0.9c0-0.1-0.1-0.3-0.2-0.4c-0.1-0.1-0.2-0.2-0.4-0.2c-0.2,0-0.4,0-0.6,0.1c0.1-0.2,0.2-0.3,0.4-0.4
		c0.2-0.1,0.3-0.2,0.5-0.2c0.2,0,0.4,0,0.5,0.1c0.2,0.1,0.4,0.3,0.4,0.7c0,0.1,0,0.2,0,0.2c0,0.5-0.1,1-0.4,1.4
		c-0.3,0.4-0.7,0.7-1.2,0.8c-0.1,0-0.2,0-0.3,0c-0.3,0-0.6,0-0.9-0.1c-0.3-0.1-0.5-0.2-0.7-0.3c-0.8-0.5-1.1-1.2-1.2-1.9
		c-0.1-0.5,0-1.1,0.3-1.6c0.2-0.5,0.6-1,1-1.3c0.7-0.5,1.5-0.8,2.4-0.7c1.1,0.2,1.9,0.5,2.4,1c0.6,0.5,0.9,1.3,1.1,2.4
		c0.1,0.8,0,1.8-0.4,2.6c-0.3,0.8-0.9,1.6-1.5,2c-0.3,0.2-0.7,0.4-1.1,0.5c-1.1,0.4-2.2,0.3-3.2-0.2c-1-0.4-1.9-1.2-2.5-2.2
		c-0.3-0.5-0.6-1-0.8-1.5c-0.2-0.6-0.4-1.2-0.4-1.7c-0.1-0.6,0-1.2,0.2-1.8c0.4-1,0.9-2,1.7-2.7c0.7-0.7,1.5-1.1,2.5-1.3
		c0,0,0.1,0,0.1-0.1c0.9-0.2,1.9-0.1,2.8,0.1C54.5,0.9,56,2.1,57,3.6C57.9,5.1,58.3,7.1,57.9,9z M50.4,6.8
		C50.4,6.8,50.4,6.8,50.4,6.8C50.4,6.9,50.4,6.9,50.4,6.8C50.4,6.9,50.4,6.8,50.4,6.8C50.4,6.8,50.4,6.8,50.4,6.8z"/>
	<rect y="6.6" class="st0" width="33.5" height="0.7"/>
	<rect x="68.2" y="6.6" class="st0" width="33.5" height="0.7"/>
</g>
</svg>
