<?xml version="1.0" encoding="utf-8"?>
<!-- Generator: Adobe Illustrator 16.0.0, SVG Export Plug-In . SVG Version: 6.00 Build 0)  -->
<!DOCTYPE svg PUBLIC "-//W3C//DTD SVG 1.1//EN" "http://www.w3.org/Graphics/SVG/1.1/DTD/svg11.dtd">
<svg version="1.1" id="Layer_1" xmlns="http://www.w3.org/2000/svg" xmlns:xlink="http://www.w3.org/1999/xlink" x="0px" y="0px"
	 width="57.4px" height="13.3px" viewBox="22.2 0.5 57.4 13.3" style="enable-background:new 22.2 0.5 57.4 13.3;"
	 xml:space="preserve">
<style type="text/css">
<![CDATA[
	.st0{fill:#44843E;}
]]>
</style>
<g>
	<rect x="22.2" y="6.8" class="st0" width="18.9" height="0.4"/>
	<rect x="60.6" y="6.8" class="st0" width="18.9" height="0.4"/>
	<path class="st0" d="M48.9,7.9C48.9,7.9,48.9,7.9,48.9,7.9c0.3,0,0.5-0.2,0.6-0.4c0,0,0,0,0,0c0,0,0,0,0,0c0,0,0,0,0,0c0,0,0,0,0,0
		C49.4,7.6,49.1,7.8,48.9,7.9c-0.2-0.1-0.2-0.3-0.2-0.6c0,0,0,0,0,0c0,0,0,0,0,0c0,0,0,0,0,0c0,0,0,0,0,0
		C48.6,7.7,48.8,7.8,48.9,7.9z"/>
	<path class="st0" d="M50,8C50,8,50,8,50,8c0.2,0,0.3-0.1,0.4-0.4c0,0,0.1-0.1,0.1-0.1c0,0,0,0,0,0c0,0,0,0,0,0c0,0,0,0,0,0
		c0,0,0,0,0,0c0,0,0,0.1-0.1,0.1C50.2,7.9,50.1,8,50,8c-0.1-0.1-0.3-0.3-0.4-0.5c0,0,0,0,0,0c0,0,0,0,0,0c0,0,0,0,0,0c0,0,0,0,0,0
		c0,0,0,0,0,0c0,0,0,0,0,0C49.7,7.8,49.8,8,50,8z"/>
	<path class="st0" d="M51.9,7.8c0,0,0.1,0,0.1,0c0.2-0.1,0.3-0.3,0.3-0.5c0,0,0,0,0,0c0,0,0,0,0,0c0,0,0,0,0,0c0,0,0,0,0,0
		C52.3,7.5,52.1,7.7,51.9,7.8c-0.1,0-0.3-0.1-0.4-0.4c0,0,0,0,0,0c0,0,0,0,0,0c0,0,0,0,0,0c0,0,0,0,0,0C51.6,7.7,51.7,7.8,51.9,7.8z
		"/>
	<path class="st0" d="M51,7.9C51,7.9,51,7.9,51,7.9c0.2,0,0.3-0.1,0.4-0.4c0,0,0,0,0,0c0,0,0,0,0,0c0,0,0,0,0,0c0,0,0,0,0,0
		c0,0,0,0,0,0c0,0,0,0,0,0c0,0,0,0,0,0C51.2,7.8,51.1,7.9,51,7.9c-0.1-0.1-0.3-0.2-0.3-0.4c0,0,0,0,0,0c0,0,0,0,0,0c0,0,0,0,0,0
		c0,0,0,0,0,0c0,0,0,0,0,0c0,0,0,0,0,0C50.6,7.8,50.8,7.9,51,7.9z"/>
	<path class="st0" d="M52.7,13.3c-0.4-0.7-0.5-0.8-0.8-0.8c-0.1,0-0.2,0-0.3,0c0,0,0-0.1,0-0.1c0,0,0,0,0,0c0,0,0,0,0,0l0.1,0
		c0,0,0.1,0,0.1-0.1c0,0,0-0.1-0.1-0.1l-2.6,0c0,0-0.1,0-0.1,0.1c0,0,0,0.1,0.1,0.1c0,0,0,0,0,0l0,0c0,0,0,0,0,0c0,0,0,0.1,0,0.1
		c-0.1,0-0.2,0-0.3,0c-0.3,0-0.3,0-0.8,0.8c0,0.1-0.1,0.2-0.4,0.4c0,0-0.1,0-0.1,0.1c0,0,0,0.1,0,0.1c0,0,0,0,0,0h0l0.2,0
		c0.3,0,0.9,0,1-0.4c0,0,0.1,0,0.1,0c0.1,0,0.3,0,0.4-0.2c0-0.1,0-0.1,0-0.1c0,0,0.1,0,0.1,0l0.1,0l1.6,0c0,0,0.1,0,0.1,0
		c0,0,0,0.1,0,0.1c0.1,0.2,0.3,0.2,0.4,0.2c0,0,0.1,0,0.1,0c0.1,0.4,0.7,0.4,1,0.4l0.2,0h0c0,0,0,0,0,0c0,0,0,0,0-0.1
		c0,0,0-0.1-0.1-0.1C52.9,13.5,52.8,13.4,52.7,13.3z M51.6,12.4C51.6,12.4,51.6,12.4,51.6,12.4C51.6,12.4,51.6,12.4,51.6,12.4
		C51.5,12.5,51.5,12.5,51.6,12.4c-0.1,0.1-0.1,0.1-0.1,0.1c-0.1,0-0.5,0-0.9,0c-0.4,0-0.8,0-0.9,0c0,0,0,0,0,0c0,0-0.1,0-0.1,0
		c0,0,0,0,0,0c0,0,0,0,0,0c0,0,0,0,0,0L51.6,12.4z M52.1,13.4C52.1,13.3,52,13.3,52.1,13.4C52,13.3,52,13.3,52,13.3s-0.1,0-0.1,0
		c-0.1,0-0.2,0-0.2-0.1c0,0,0-0.1,0-0.1c0,0,0-0.1-0.1-0.1c0,0-0.1,0-0.3,0h-1.6c-0.1,0-0.2,0-0.3,0c-0.1,0-0.1,0.1-0.1,0.1
		c0,0,0,0,0,0.1c-0.1,0.1-0.2,0.2-0.3,0.1c0,0,0,0,0,0c0,0-0.1,0-0.1,0.1c0,0.3-0.4,0.3-0.8,0.3c0.1-0.1,0.2-0.2,0.3-0.3
		c0.4-0.7,0.4-0.7,0.6-0.7c0,0,0.1,0,0.1,0c0.1,0,0.3,0,0.4-0.1c0,0,0,0,0,0c0.2,0,0.6,0,1,0c0.3,0,0.8,0,1,0c0,0,0,0,0,0
		c0.2,0,0.3,0.1,0.4,0.1c0,0,0.1,0,0.1,0c0.1,0,0.2,0,0.6,0.7c0,0.1,0.1,0.2,0.3,0.3C52.5,13.7,52.1,13.6,52.1,13.4z"/>
	<path class="st0" d="M49.4,9.3c-0.1,0-0.3,0.1-0.4,0.2c0,0.1-0.1,0.1-0.1,0.2c-0.1,0-0.3,0-0.4,0c0,0,0-0.1,0-0.1
		c0-0.1,0-0.2,0-0.2c0,0,0-0.1,0-0.1c0,0,0,0,0,0c0-0.1,0.1-0.1,0.1-0.1c0.2-0.2,0.3-0.3,0.1-0.6c0,0,0,0,0,0c0,0-0.1,0-0.1,0
		c0,0-0.1,0-0.1,0.1c-0.1,0-0.1,0.1-0.1,0.1c-0.1,0-0.2-0.1-0.2-0.1c-0.1,0-0.1,0-0.2,0c-0.1,0-0.1,0-0.1,0.1c0,0,0,0.1,0,0.1
		c0,0.1,0.2,0.4,0.4,0.5c0,0,0.1,0.1,0.1,0.1c0,0.1,0,0.2,0,0.3c0,0,0,0.1,0,0.1c0,0-0.1,0-0.1,0c-0.2,0-0.3,0-0.4,0.2
		c-0.1,0.1-0.1,0.3,0,0.7c0,0,0.1,0.1,0.2,0.1c0,0,0.1,0,0.1,0c0,0,0.1,0,0.1-0.1c0.1-0.1,0.1-0.2,0.1-0.5c0,0,0.1-0.1,0.1-0.1
		c0.1,0,0.2,0,0.4,0c0.1,0,0.1,0,0.2,0c0,0,0.1,0.1,0.1,0.1c0.1,0.1,0.2,0.2,0.4,0.2c0.1,0,0.3-0.1,0.4-0.2c0.1-0.1,0.1-0.3,0.1-0.4
		s-0.1-0.3-0.1-0.4C49.7,9.3,49.5,9.3,49.4,9.3z M48.2,9.2C48,9,47.8,8.8,47.8,8.7c0,0,0-0.1,0-0.1c0,0,0-0.1,0.1-0.1
		c0,0,0.1,0,0.1,0c0.1,0,0.2,0.1,0.3,0.1c0,0,0,0,0,0c0,0,0.1-0.1,0.1-0.1c0,0,0.1-0.1,0.1-0.1c0,0,0.1,0,0.1,0c0,0,0,0,0,0
		c0.1,0.3,0,0.4-0.1,0.5c-0.1,0.1-0.1,0.1-0.2,0.2c0,0,0,0,0,0C48.3,9.2,48.2,9.2,48.2,9.2z M48.4,9.7C48.4,9.7,48.4,9.7,48.4,9.7
		c-0.1,0-0.1,0-0.1,0c0,0,0-0.1,0-0.1c0-0.1,0-0.2,0-0.2c0,0,0.1,0,0.1,0h0c0,0,0,0,0,0h0c0,0,0,0,0,0c0,0,0,0,0,0c0,0,0,0.1,0,0.1
		C48.4,9.4,48.4,9.5,48.4,9.7C48.4,9.6,48.4,9.6,48.4,9.7z M48.8,10.1c-0.1,0-0.3,0-0.4,0c-0.1,0-0.2,0-0.2,0.1c0,0.2,0,0.4-0.1,0.4
		c0,0-0.1,0-0.1,0c0,0-0.1,0-0.1,0c-0.1,0-0.1-0.1-0.1-0.1c-0.1-0.4-0.1-0.6,0-0.7c0.1-0.1,0.2-0.1,0.4-0.1c0,0,0.1,0,0.2,0
		c0,0,0,0,0,0h0.2c0,0,0,0,0,0c0.1,0,0.3,0,0.4,0c0,0,0,0,0.1,0c0.1,0,0.4-0.1,0.5,0c0.1,0.2,0,0.3,0,0.3
		C49.3,10.1,49,10.1,48.8,10.1z M49.5,9.7c-0.1-0.1-0.3-0.1-0.4-0.1c0.1-0.1,0.1-0.1,0.2-0.1C49.4,9.5,49.5,9.6,49.5,9.7
		c0.1,0,0.1,0.1,0.1,0.2c0,0.1,0,0.2-0.1,0.2c-0.1,0.1-0.1,0.1-0.2,0.1c-0.1,0-0.1,0-0.2-0.1c0.1,0,0.2,0,0.3,0
		C49.6,10,49.6,9.9,49.5,9.7z M49.7,10.2c-0.1,0.1-0.2,0.2-0.3,0.2c-0.1,0-0.2-0.1-0.3-0.2c0,0,0-0.1-0.1-0.1c0,0,0,0,0,0
		c0,0,0,0,0,0c0.1,0.1,0.2,0.1,0.3,0.1c0.1,0,0.2,0,0.3-0.1c0.1-0.1,0.1-0.2,0.1-0.3c0-0.1,0-0.2-0.1-0.3c-0.1-0.1-0.2-0.1-0.3-0.1
		c-0.1,0-0.2,0-0.3,0.1c0,0,0,0,0,0.1c0,0,0,0,0,0c0,0,0,0,0,0c0-0.1,0.1-0.1,0.1-0.2c0.1-0.1,0.2-0.2,0.3-0.2
		c0.1,0,0.2,0.1,0.3,0.2c0.1,0.1,0.1,0.2,0.1,0.4C49.8,10,49.8,10.1,49.7,10.2z"/>
	<path class="st0" d="M54.3,7.4c-0.1,0-0.2,0-0.2,0c-0.1,0-0.1,0.1-0.1,0.2c0,0,0,0.1,0,0.1c0,0,0,0,0,0l-0.1,0.1c0,0,0,0,0,0
		c0,0,0-0.1-0.1-0.2c-0.1-0.4-0.2-0.6-0.2-0.8c0,0,0,0,0,0c0-0.1,0-0.2-0.1-0.2c-0.2,0-1.4-0.6-1.7-0.9c0,0,0,0,0,0
		c0-0.1,0-0.1-0.1-0.2c0-0.1-0.1-0.1,0-0.2c0,0,0.1-0.1,0.1-0.1C51.8,5.1,52,4.9,52,4.8c0,0,0,0,0,0c0.1,0,0.1-0.1,0.2-0.1
		c0.3-0.2,0.6-0.5,0.7-0.9c0,0,0,0,0,0c0.2-0.2,0.3-0.4,0.5-0.8c0.2-0.4,0.3-0.8,0.7-1.2c0,0,0-0.1,0-0.1c0,0,0-0.1-0.1-0.1
		c-0.1,0-0.3-0.1-0.4-0.1c-0.3,0-0.3,0.1-0.3,0.2C53.2,2,53,2.2,52.6,2.3L52.3,2l0,0l0,0c-0.1-0.1-0.1-0.1-0.2-0.2
		c0,0-0.1-0.1-0.1-0.1c-0.1,0-0.1-0.1-0.1-0.1c-0.1-0.1-0.2-0.2-0.3-0.3l-0.1,0c-0.2-0.1-0.4-0.2-0.6-0.3c0,0,0,0,0,0
		c0-0.1,0-0.1,0-0.2c0-0.2-0.1-0.3-0.3-0.3c-0.1,0-0.3,0-0.4,0.2c0,0,0,0.1-0.1,0.2c0,0,0,0.1,0,0.1c-0.2,0.1-0.5,0.1-0.7,0.3
		l-0.1,0c-0.1,0.1-0.2,0.1-0.3,0.3c0,0.1-0.1,0.1-0.1,0.1c0,0-0.1,0.1-0.1,0.1c-0.1,0.1-0.1,0.1-0.2,0.2c0,0,0,0,0,0l-0.2,0.2
		c0,0,0,0,0,0c-0.1,0-0.3,0-0.5,0c-0.1,0-0.3-0.1-0.5-0.1c-0.3,0-0.6,0.1-0.8,0.9c-0.1,0.3,0,0.5,0.2,0.8C47,4,47.3,4.2,47.6,4.2
		l0,0c0.2,0,0.5-0.2,0.7-0.3c0,0,0,0,0,0c0.1,0.2,0.4,0.5,0.6,0.7c0.1,0.1,0.1,0.1,0.2,0.2c0,0,0,0,0,0c0,0.2,0.2,0.3,0.3,0.5
		c0,0.1,0.1,0.1,0.1,0.1c0.1,0.1,0,0.1,0,0.2c0,0,0,0.1-0.1,0.2c0,0,0,0,0,0c0,0,0,0,0,0c-0.3,0.3-1.5,1-1.7,1c0,0-0.1,0-0.1,0.1
		c0,0,0,0.1,0,0.1c-0.2,0.3-0.3,0.6-0.4,0.9L47,7.7c0,0,0,0,0,0c0,0,0-0.1,0-0.1c0-0.1-0.1-0.1-0.1-0.2c-0.1,0-0.2,0-0.2,0
		s-0.1,0.1-0.2,0.1c0,0.1,0,0.2,0,0.2c0,0.1,0.1,0.1,0.1,0.2c0,0,0.1,0,0.2,0L47,8.3c-0.1,0.3-0.1,0.5-0.1,0.8c0,0.5,0.1,1,0.3,1.4
		c0.2,0.4,0.6,0.7,1,0.9c0.2,0.1,0.4,0.2,0.7,0.3c0,0,0,0,0,0.1c0,0,0,0.1,0,0.1c0,0.1,0.1,0.1,0.2,0.1c0,0,0,0,0,0
		c0,0-0.1,0.1-0.1,0.1c0,0.1,0,0.1,0.1,0.2c0,0,0.1,0,0.1,0.1c0,0,0,0,0-0.1c0,0,0,0,0,0c-0.1,0-0.1,0-0.2,0c0,0,0-0.1,0-0.1
		c0,0,0-0.1,0.1-0.1c0,0,0.1,0,0.1,0c0.4,0.1,2.2,0.1,2.6,0c0,0,0.1,0,0.1,0c0,0,0.1,0.1,0.1,0.1c0,0,0,0.1,0,0.1c0,0,0,0,0,0
		c0,0,0,0,0,0c0,0,0,0,0,0c0.1,0,0.1-0.1,0.1-0.2c0-0.1,0-0.1-0.1-0.1c0,0,0,0,0,0c0.1,0,0.1-0.1,0.2-0.1c0,0,0-0.1,0-0.1
		s0-0.1,0-0.1c0,0,0,0,0,0c0,0,0,0,0.1,0c0.7-0.2,1.2-0.5,1.5-1c0.2-0.3,0.4-0.8,0.4-1.3c0-0.3,0-0.7-0.1-1L54.2,8
		c0.1,0,0.1,0,0.2,0c0.1,0,0.1-0.1,0.1-0.2c0-0.1,0-0.2,0-0.2C54.4,7.5,54.3,7.5,54.3,7.4z M46.8,7.7C46.8,7.8,46.8,7.8,46.8,7.7
		C46.8,7.8,46.8,7.8,46.8,7.7C46.8,7.8,46.7,7.8,46.8,7.7c-0.1,0.1-0.1,0-0.1,0c0,0,0,0,0,0c0,0,0,0,0-0.1
		C46.7,7.7,46.7,7.7,46.8,7.7C46.7,7.7,46.7,7.7,46.8,7.7C46.7,7.7,46.8,7.7,46.8,7.7C46.8,7.7,46.8,7.7,46.8,7.7L46.8,7.7z
		 M53.6,8.3C53.6,8.3,53.6,8.3,53.6,8.3C53.6,8.3,53.6,8.3,53.6,8.3C53.6,8.4,53.6,8.4,53.6,8.3l0,0.1c0,0,0,0,0,0c0,0,0,0,0,0
		L53.6,8.3C53.5,8.4,53.5,8.4,53.6,8.3C53.5,8.3,53.5,8.3,53.6,8.3C53.5,8.3,53.5,8.3,53.6,8.3C53.6,8.3,53.6,8.3,53.6,8.3L53.6,8.3
		z M53.5,1.7c0,0,0-0.1,0.2-0.1c0.1,0,0.2,0,0.2,0c-0.4,0.3-0.5,0.8-0.7,1.1C53.1,3,53,3.2,52.9,3.4c0,0,0,0,0,0c0,0,0,0,0,0
		c0,0,0-0.1,0-0.1c0,0,0-0.1,0-0.1c0,0,0,0,0,0c0,0,0-0.1,0-0.1c0,0,0,0,0,0c0,0,0-0.1,0-0.1l-0.1,0l0.1,0c0,0,0-0.1,0-0.1l0,0
		c0,0,0-0.1,0-0.1l0,0c0,0,0-0.1,0-0.1l0,0c0,0,0,0,0,0C53,2.3,53.4,2.1,53.5,1.7z M50.4,0.8c0,0,0-0.1,0.1-0.1c0,0,0.1,0.1,0.1,0.1
		c0,0,0,0.1,0,0.1c0,0,0,0,0,0.1l0,0l0,0l0,0l0,0c0,0,0,0,0,0l0,0c0,0,0,0,0,0l0,0l0,0c0,0,0,0,0,0C50.4,1,50.4,0.9,50.4,0.8
		C50.4,0.9,50.4,0.8,50.4,0.8z M49.5,1.5C49.5,1.5,49.5,1.5,49.5,1.5l0.1-0.1c0.2-0.1,0.3-0.2,0.5-0.2c0.1,0,0.1,0,0.2,0
		c0,0,0,0,0,0c0,0,0,0,0,0l0,0c0,0,0,0,0,0l0,0c0,0,0,0,0,0l0,0c0,0,0,0,0,0l0,0c0,0,0,0,0.1,0l0,0l0.1,0c0,0,0,0,0,0l0,0
		c0,0,0,0,0,0c0,0,0,0,0.1-0.1c0,0,0.1,0,0.1,0c0.2,0.1,0.3,0.1,0.5,0.2l0.1,0c0.1,0,0.1,0.1,0.2,0.1c0,0,0,0,0,0c0,0,0,0,0,0
		c0,0,0,0-0.1,0c0,0,0,0-0.1,0l0,0c0,0,0,0,0,0c0,0-0.1,0-0.1,0l-0.1,0c0,0-0.1,0-0.1,0l0,0c0,0,0,0-0.1,0c0,0-0.1,0-0.2,0
		c0,0-0.1,0-0.2,0c0,0-0.1,0-0.2,0c-0.1,0-0.2,0-0.3,0c0,0-0.1,0-0.2,0c0,0-0.1,0-0.2,0c0,0-0.1,0-0.2,0l-0.1,0c0,0-0.1,0-0.1,0
		c0,0,0,0-0.1,0c0,0-0.1,0-0.1,0c0,0,0,0,0,0l0,0c0,0-0.1,0-0.1,0c0,0,0,0-0.1,0l0,0C49.4,1.6,49.4,1.5,49.5,1.5z M51.1,2L51.1,2
		C51.1,2,51.1,2,51.1,2L51.1,2z M50.9,2L50.9,2L50.9,2L50.9,2z M48.9,2c0.1-0.1,0.2-0.1,0.3-0.2c0,0,0.1,0,0.1,0.1
		C49.6,1.9,49.8,2,50,2c0,0,0,0,0.1,0l0-0.1l0,0.1l0.4,0c0.1,0,0.1,0,0.2,0l0.2,0l0-0.1l0,0.1l0.1,0c0,0,0,0,0.1,0l0.1,0l0-0.1
		l0,0.1c0,0,0,0,0.1,0c0.2-0.1,0.5-0.1,0.7-0.2c0,0,0.1,0,0.1,0.1c0,0,0.1,0,0.1,0.1c0,0,0.1,0.1,0.1,0.1c-0.9,0.9-2.5,0.4-3.3,0
		C48.9,2,48.9,2,48.9,2z M48.2,3.4c-0.1,0-0.3,0.1-0.5,0.1c-0.2,0-0.3,0-0.4-0.1c-0.1-0.1-0.1-0.4,0-0.7c0.1-0.2,0.4-0.2,0.9,0
		c0,0.1,0,0.3-0.1,0.4C48.2,3.2,48.2,3.4,48.2,3.4z M48.3,2.5C48.2,2.5,48.2,2.6,48.3,2.5c-0.6-0.2-1-0.2-1.1,0.2
		C47,3,47,3.3,47.1,3.5c0.1,0.1,0.3,0.2,0.5,0.2c0.2,0,0.4,0,0.5-0.1l0,0.1c0,0,0,0,0,0C47.9,3.9,47.7,4,47.6,4l0,0
		c-0.2,0-0.5-0.1-0.6-0.3c-0.1-0.2-0.2-0.4-0.2-0.6c0.2-0.7,0.4-0.8,0.7-0.8c0.1,0,0.3,0,0.4,0.1c0.1,0,0.3,0.1,0.4,0.1c0,0,0,0,0,0
		C48.3,2.4,48.3,2.4,48.3,2.5L48.3,2.5z M48.4,3.8C48.4,3.8,48.4,3.8,48.4,3.8C48.4,3.8,48.4,3.7,48.4,3.8l-0.1-0.3c0,0,0,0,0-0.1
		c0,0,0,0,0,0c0,0,0,0,0,0c0,0,0-0.3,0-0.3c0-0.1,0.1-0.4,0.1-0.4c0,0,0,0,0,0c0,0,0,0,0,0l0,0c0,0,0,0,0-0.1l0-0.1c0,0,0,0,0,0l0,0
		c0.1-0.1,0.2-0.2,0.3-0.3c0,0,0,0,0,0c0.5,0.3,1.2,0.5,2,0.5c0.5,0,1-0.1,1.4-0.5c0,0,0,0,0,0c0.1,0.1,0.2,0.2,0.4,0.3l0,0l0,0
		c0,0,0,0,0,0.1l0,0c0,0,0,0,0,0.1l0.1,0l-0.1,0.1c0,0,0,0.1,0,0.1l0,0c0,0,0,0.1,0,0.1l0.1,0l-0.1,0c0,0,0,0.1,0,0.1l0.1,0l-0.1,0
		c0,0,0,0.1,0,0.1l0,0c0,0,0,0.1,0,0.1c0,0,0,0.1,0,0.1c0,0,0,0.1,0,0.1l0.1,0l-0.1,0c0,0,0,0.1,0,0.1c0,0,0,0,0,0c0,0,0,0,0,0
		c0,0,0,0,0,0c0,0,0,0,0,0c0,0,0,0.1,0,0.1c-0.3,0.3-0.9,0.5-1.5,0.6c-0.3,0.1-0.6,0.1-0.9,0.1C49.7,4.4,49,4.2,48.4,3.8
		C48.5,3.9,48.4,3.8,48.4,3.8z M49,4.5c-0.1-0.1-0.3-0.3-0.4-0.4c0.5,0.3,1.2,0.5,1.7,0.5c0.3,0,0.6,0,0.9-0.1
		c0.5-0.1,1-0.3,1.4-0.5c-0.1,0.2-0.3,0.4-0.5,0.6c-0.4,0.3-1,0.5-1.6,0.5S49.4,4.8,49,4.5z M49.5,5.1c0-0.1-0.1-0.1-0.1-0.2
		c0.3,0.2,0.7,0.2,1.2,0.2c0.4,0,0.8-0.1,1.2-0.3c0,0.1-0.1,0.1-0.1,0.2c-0.1,0.1-0.1,0.1-0.1,0.2c-0.1,0.2-0.1,0.3,0,0.5
		c0,0,0,0.1,0,0.1C51.3,6,50.9,6,50.7,6l-0.1,0c-0.3,0-0.7,0-0.9-0.2c0,0,0-0.1,0-0.1c0.1-0.1,0.1-0.3,0-0.5
		C49.6,5.2,49.6,5.1,49.5,5.1z M47.6,7.5C47.6,7.5,47.6,7.5,47.6,7.5c0-0.1,0-0.1,0-0.1c0,0,0.1,0,0.1,0c0-0.1,0.1-0.1,0.1-0.2
		c0,0,0,0,0,0c-0.1,0.3,0,0.5,0.1,0.5c0,0,0.1,0,0.1,0c0.1,0,0.3-0.1,0.5-0.4c0,0,0,0,0,0c0,0,0,0,0,0c0,0,0,0,0,0c0,0,0,0,0,0
		c-0.2,0.3-0.4,0.4-0.5,0.3c-0.1,0-0.2-0.2-0.1-0.5l0,0c0,0,0,0,0,0c0.4-0.2,1.3-0.7,1.6-1c0.3,0.2,0.7,0.2,1,0.2l0.1,0
		c0,0,0.1,0,0.1,0c0.2,0,0.6,0,0.7-0.2c0.4,0.3,1.3,0.8,1.7,0.9c0,0,0,0,0,0c0,0,0,0,0,0c0,0,0,0,0,0c0,0.2-0.2,0.4-0.3,0.4
		c-0.2,0-0.3-0.1-0.4-0.2c0,0,0,0,0,0c0,0,0,0,0,0c0,0,0,0,0,0c0,0,0,0,0,0c0.1,0.2,0.3,0.3,0.4,0.3c0,0,0.1,0,0.1,0
		c0.2,0,0.3-0.2,0.3-0.4c0,0,0,0.1,0,0.1c0,0,0,0,0,0c0,0,0,0,0,0c0,0,0,0,0,0c0,0,0,0,0,0c-0.1,0.2-0.2,0.3-0.3,0.3
		c-0.3,0.1-0.6-0.1-0.6-0.1c0,0,0,0,0,0c0,0,0,0,0,0c-0.1,0.2-0.2,0.3-0.3,0.4c-0.2,0-0.4,0-0.6-0.2c0,0,0,0,0,0c0,0,0,0,0,0
		C51.3,8,51.2,8.1,51,8.1c-0.2,0-0.5-0.2-0.5-0.3c0,0,0,0,0,0c0,0,0,0,0,0c-0.2,0.3-0.4,0.4-0.6,0.3c-0.2-0.1-0.4-0.3-0.4-0.4
		c0,0,0,0,0,0c0,0,0,0,0,0C49.3,8,49,8.1,48.8,8c-0.2-0.1-0.4-0.3-0.3-0.4c0,0,0,0,0,0c0,0,0,0,0,0c-0.1,0.2-0.4,0.3-0.7,0.2
		C47.6,7.8,47.6,7.7,47.6,7.5C47.6,7.5,47.6,7.5,47.6,7.5z M47.3,8.3C47.3,8.3,47.3,8.3,47.3,8.3C47.3,8.3,47.4,8.3,47.3,8.3
		C47.4,8.3,47.4,8.3,47.3,8.3C47.4,8.3,47.4,8.4,47.3,8.3C47.4,8.4,47.4,8.4,47.3,8.3C47.4,8.4,47.3,8.4,47.3,8.3
		C47.3,8.4,47.3,8.4,47.3,8.3C47.3,8.3,47.3,8.3,47.3,8.3z M52,11.8c0,0-0.1,0.1-0.2,0.1c0,0,0,0-0.1,0h0c0,0,0,0,0,0
		c-0.5,0.1-2.1,0.1-2.5,0c0,0,0,0,0,0h0c0,0,0,0-0.1,0c-0.1,0-0.1-0.1-0.2-0.1c0,0,0,0,0-0.1c0,0,0,0,0-0.1c0,0,0,0,0,0c0,0,0,0,0,0
		c0,0,0,0,0,0c0,0,0,0,0,0c0,0,0,0,0.1,0c0.3,0.1,0.6,0.1,0.9,0.1c0.1,0,0.2,0,0.3,0c0.5,0,1,0,1.5-0.1c0,0,0,0,0,0c0,0,0,0,0,0
		c0,0,0,0,0,0c0,0,0,0,0,0c0,0,0,0,0,0C52,11.7,52,11.7,52,11.8C52,11.8,52,11.8,52,11.8z M53.4,10.5c-0.3,0.4-0.8,0.7-1.4,0.9
		c-0.5,0.1-1,0.2-1.7,0.2c-0.1,0-0.2,0-0.3,0c-0.3,0-0.6,0-0.8-0.1c0,0,0,0,0,0c0,0,0,0,0,0c-0.3-0.1-0.6-0.2-0.8-0.3
		c-0.4-0.2-0.7-0.5-0.9-0.8c-0.2-0.4-0.3-0.8-0.3-1.3c0-0.2,0-0.3,0.1-0.5c0,0,0.1,0,0.1,0c0,0,0.1,0,0.1,0c0.1,0,0.1-0.1,0.2-0.1
		c0-0.1,0-0.1,0-0.2c0-0.1-0.1-0.1-0.1-0.1c0,0-0.1,0-0.1,0l0,0c0-0.1,0.1-0.3,0.2-0.4c0,0.1,0.1,0.2,0.2,0.2c0.2,0.1,0.5,0,0.7-0.2
		c0,0.2,0.2,0.3,0.4,0.4c0.1,0,0.4,0.1,0.7-0.2c0,0.1,0.2,0.3,0.4,0.4c0,0,0.1,0,0.1,0c0.2,0,0.3-0.1,0.5-0.3
		C50.5,8,50.8,8.2,51,8.2c0.1,0,0.3-0.1,0.4-0.4C51.6,8,51.9,8,52,8c0.2,0,0.3-0.2,0.4-0.4c0.1,0.1,0.4,0.2,0.6,0.1
		c0.2,0,0.3-0.1,0.3-0.3c0,0.1,0.1,0.2,0.1,0.3l0,0c0,0.1,0,0.1,0,0.2c0,0,0,0.1,0,0.1l0,0c0,0-0.1,0-0.1,0c-0.1,0-0.1,0.1-0.1,0.1
		c0,0.1,0,0.1,0,0.2c0,0.1,0.1,0.1,0.2,0.1c0,0,0.1,0,0.1,0c0,0,0.1,0,0.1,0c0,0.3,0.1,0.5,0.1,0.8C53.7,9.8,53.6,10.2,53.4,10.5z
		 M54.2,7.8C54.2,7.8,54.2,7.8,54.2,7.8C54.2,7.8,54.1,7.8,54.2,7.8c-0.1,0-0.1,0-0.1,0c0,0,0,0,0-0.1c0,0,0,0,0,0c0,0,0,0,0,0
		c0,0,0,0,0.1,0C54.2,7.6,54.2,7.7,54.2,7.8C54.3,7.7,54.3,7.7,54.2,7.8C54.2,7.8,54.2,7.8,54.2,7.8z"/>
	<path class="st0" d="M48.3,9.1C48.4,9.1,48.4,9.1,48.3,9.1L48.3,9.1c0-0.1,0.1-0.1,0.1-0.1c0.1-0.1,0.2-0.2,0.1-0.3c0,0,0,0,0,0
		c0,0-0.1,0-0.1,0c0,0-0.1,0-0.1,0c0,0,0,0-0.1,0.1c0,0-0.1,0-0.1-0.1c0,0-0.1,0-0.1,0c0,0-0.1,0-0.1,0.1c0,0,0,0,0,0.1
		c0,0.1,0.1,0.2,0.2,0.3l0,0C48.2,9.1,48.3,9.1,48.3,9.1C48.3,9.1,48.3,9.1,48.3,9.1L48.3,9.1z M48.3,9.1C48.3,9.1,48.3,9,48.3,9.1
		L48.3,9.1c-0.2-0.1-0.3-0.2-0.3-0.3c0,0,0,0,0-0.1c0,0,0,0,0,0c0,0,0,0,0.1,0c0,0,0.1,0,0.1,0.1c0,0,0,0,0,0c0,0,0,0,0.1-0.1
		c0,0,0,0,0.1,0c0,0,0,0,0,0c0,0,0,0,0,0c0.1,0.1,0,0.2-0.1,0.3C48.4,9,48.4,9,48.3,9.1C48.3,9.1,48.3,9.1,48.3,9.1z"/>
</g>
</svg>
