<?xml version="1.0" encoding="utf-8"?>
<!-- Generator: Adobe Illustrator 16.0.0, SVG Export Plug-In . SVG Version: 6.00 Build 0)  -->
<!DOCTYPE svg PUBLIC "-//W3C//DTD SVG 1.1//EN" "http://www.w3.org/Graphics/SVG/1.1/DTD/svg11.dtd">
<svg version="1.1" id="Layer_1" xmlns="http://www.w3.org/2000/svg" xmlns:xlink="http://www.w3.org/1999/xlink" x="0px" y="0px"
	 width="254.1px" height="64.5px" viewBox="0 0 254.1 64.5" style="enable-background:new 0 0 254.1 64.5;" xml:space="preserve">
<style type="text/css">
<![CDATA[
	.st0{fill:#E50E63;stroke:#E50E63;stroke-width:0.3817;stroke-miterlimit:10;}
	.st1{fill-rule:evenodd;clip-rule:evenodd;fill:#E50E63;}
	.st2{display:none;}
]]>
</style>
<g id="RZVxik_1_" class="st2">
	
		<image style="display:inline;overflow:visible;" width="179" height="27" id="RZVxik_2_" xlink:href="B7956F31B868DF4F.jpg"  transform="matrix(1.4198 0 0 1.4198 0.1909 13.75)">
	</image>
</g>
<rect x="0.2" y="31" class="st0" width="80.4" height="0.8"/>
<rect x="173.2" y="31" class="st0" width="80.4" height="0.8"/>
<g>
	<path class="st1" d="M98.7,28.8c-0.1,1.1,0.6,2.1,1.7,2.3c1.1,0.1,2.1-0.6,2.3-1.7c0-0.3,0-0.5,0-0.7c1.4-0.1,1.4-1.1-0.3-0.8
		c-0.2-0.3-0.6-0.6-1-0.7c0.5-1.5-0.5-1.9-0.8-0.1c-0.3,0-0.6,0.1-0.9,0.3c-0.9-1.2-1.8-0.7-0.6,0.6C98.9,28.1,98.7,28.4,98.7,28.8z
		 M100.9,27.3c0.9,0.1,1.6,1,1.5,1.9c-0.1,0.9-1,1.6-1.9,1.5c-0.9-0.1-1.6-1-1.5-1.9C99.1,27.9,100,27.2,100.9,27.3z"/>
	<circle class="st1" cx="100.5" cy="28.7" r="0.6"/>
	<path class="st1" d="M164.4,23.6c-0.5-0.8-1.3-1.3-2.3-1.4c0.5-0.4,0.7-0.9,0.9-1.4c0.4-0.8,0.6-1.8,0.2-2.4c-1-1.6-2-2-3.3-1.6
		c-0.1,0-0.3,0-0.4,0c0,0,0-0.1,0-0.1c0.5-0.5,0.7-1.1,0.4-2.1c-0.5-1.6-1.4-2.3-2.3-2.5c-1-0.3-2.2-0.1-3.5,0.8
		c0.3-1.1,0.3-2.1,0-2.8c-0.3-1.1-1.1-2.1-3-2.2c-0.8-0.1-1.7,0.7-2.5,1.4c-0.2,0.2-0.5,0.3-0.7,0.5c0.2-0.8,0.2-1.9-0.4-2.7
		c-1-1.2-2.1-1.7-3.2-1.3c-3.6,1.1-6.4,10.8-6.7,13.8c-0.1,1.2-0.3,2.4-0.7,3.6c-0.3,1.1-2.1,6.2-2.4,6.7c0,0,0,0,0,0
		c-0.4,0.4-0.8,0.7-1.2,1.1l0.1,0.2c-12,6.3-16.4,2.3-20.8,0.8l0.1-0.2c-1.3-0.7-2.5-1.6-3.5-2.5c-0.4-0.3-0.7-0.7-1-1.1
		c-0.8-1-1.8-1.9-2.7-2.5c-0.4-0.2-0.8-0.5-1.2-0.6c0.9-0.4,1.4-1.5,1.8-2.4c0.2-0.5,0.4-1,0.7-1.2c1.2-0.3,2.5-0.3,3.8-0.3
		c2,0,3.8,0.1,4.4-1.3c0.5-1.1,0.5-1.8,0.2-2.2c-0.2-0.3-0.6-0.4-1.1-0.3c0,0-0.1,0-0.1,0c-0.6-0.1-1.1,0.3-1.1,0.9
		c-0.1,0.6,0.3,1.1,0.9,1.1c0.6,0.1,1.1-0.3,1.1-0.9c0-0.3-0.1-0.6-0.2-0.8c0.1,0,0.2,0.1,0.3,0.2c0.3,0.3,0.2,1-0.2,1.9
		c-0.5,1.2-2.2,1.2-4.1,1.1c-1.1,0-2.4,0-3.6,0.2c0,0-0.1,0-0.1,0c-0.1,0-0.2,0.1-0.3,0.1c-1.4,0.4-2.7,1.4-3.2,3.6
		c-0.6-0.2-1.2-0.3-1.9-0.4c0.2-0.2,0.4-0.3,0.5-0.5c1.2-1.1,1.8-1.6,1.8-3.4c0-0.2,0-0.4,0-0.5c0-0.4,0-0.4,0.1-0.5
		c0,0,0-0.1,0-0.1c1.2-1,2.5-1.7,3.9-1.9c2.5-0.5,5.4-2,5.4-4.8c0-0.8-0.4-1.2-1.1-1.4c-0.7-0.1-1.6,0.2-1.8,0.8c0,0.1,0,0.1,0,0.2
		c0,0,0,0,0,0.1c-0.1,0.6,0.3,1.1,0.9,1.1c0.6,0.1,1.1-0.3,1.1-0.9c0.1-0.4-0.2-0.8-0.5-1c0.1,0,0.2,0,0.2,0
		c0.4,0.1,0.8,0.3,0.8,1.1c0,2.6-2.8,4.1-5.2,4.5c-3.2,0.6-6.7,3.8-6.8,7.2c-0.3,0-0.7,0-1,0c-0.2,0-0.5,0.1-0.7,0.1
		c1.1-1,1.1-2.2,1.1-3.4c0-1,0-2,0.7-3c0,0,0,0,0,0c0.6-0.7,1.2-1.2,1.9-1.6c0.3-0.2,0.8-0.4,1.2-0.7c2.5-1.5,6.3-3.7,6.6-6.2
		c0.3-2.6-1-3-1.5-3.1c0,0,0,0,0,0c-0.6-0.1-1.2,0.1-1.7,0.5c0,0-0.1,0-0.1,0.1c0,0,0,0,0,0c-0.2,0.2-0.4,0.4-0.4,0.7
		c0,0,0,0.1,0,0.1c0,0.4,0.2,0.8,0.6,1c0,0,0.1,0,0.1,0c0.1,0,0.1,0.1,0.2,0.1c0.5,0.1,0.9-0.2,1.1-0.6c0,0,0,0,0,0
		c0.1-0.1,0.1-0.3,0.1-0.4c0-0.5-0.3-0.9-0.8-0.9c0.3-0.1,0.6-0.2,0.9-0.1c0,0,0,0,0,0c1,0.1,1.4,1.1,1.2,2.8c-0.2,2.4-4,4.5-6.4,6
		c-0.4,0.3-0.9,0.5-1.2,0.7c-2.7,1.6-4.7,5.5-4.5,8.5c-1.3,0.4-2.6,1.1-3.8,2c-1.2,0.9-2.2,2.1-3.1,3.5l-0.1,0.1
		c-0.1,0.2,0,0.4,0.2,0.4c1.8,0.6,3,3.7,4.3,7c1.8,4.5,3.8,9.6,7.9,10.8c1.3,0.4,2.6,0.6,3.9,0.8c-0.4,1.6,0.2,3.8,1.1,5.2
		c-0.1,0.2-0.2,0.8-0.6,2.4l0,0.1c0,0.1,0,0.2,0,0.3c0,0.1,0.1,0.1,0.2,0.2l0.1,0c0.2,0,0.3-0.1,0.3-0.3l0-0.1
		c0.2-0.8,0.3-1.4,0.4-1.8c0.4,0.5,0.7,0.9,1.1,1.2c0.2,0.1,0.4,0.1,0.5-0.1c0.1-0.2,0.1-0.4-0.1-0.5c-0.3-0.2-0.7-0.6-1-1l2.3,0.2
		c0.2,0,0.3-0.1,0.4-0.3c0-0.2-0.1-0.4-0.3-0.4l-2.8-0.2c-0.8-1.4-1.4-3.4-1-4.8c0.6,0.1,1.3,0.1,1.9,0.1c0.7,0,1.3,0,2-0.1
		c1.6-0.1,3.1-0.4,4.5-0.9c0.1,1.7,1.3,3.4,2.6,4.6c0,0.2,0.1,0.8,0.2,2.4l0,0.2c0,0.2,0.1,0.3,0.3,0.3l0.1,0l0,0
		c0.1,0,0.2-0.1,0.2-0.1c0.1-0.1,0.1-0.2,0.1-0.2l0-0.2c0-0.4-0.1-1.1-0.1-1.7c0.5,0.3,1,0.6,1.4,0.8l0.1,0c0.2,0,0.3-0.1,0.3-0.2
		c0-0.1,0-0.2,0-0.3c0-0.1-0.1-0.1-0.2-0.2c-0.4-0.1-0.8-0.4-1.3-0.7l2.2-0.5c0.2,0,0.3-0.2,0.3-0.4c0-0.2-0.2-0.3-0.3-0.3l-2.8,0.7
		c-1.2-1.1-2.3-2.8-2.4-4.3c0.9-0.3,1.8-0.7,2.7-1.1c6-3.2,10.3-8.8,12.3-11.9l-0.2-0.1c0.6-0.8,1.1-1.6,1.5-2.4
		c0.2-0.3,0.4-0.6,0.6-1c0.1-0.1,0.1-0.3,0.2-0.4c0-0.1,0-0.2,0-0.2c0,0,0-0.1,0.1-0.1c0,0,0.1-0.1,0.1-0.1c0.1-0.1,0.1-0.1,0.1-0.2
		c0,0,0.1,0,0.1-0.1l0,0c0.2,0,0.4,0.1,0.6,0.1c0.4,0.1,0.9,0.1,1.4,0.1c0.4,0,0.8,0,1.3,0c1.8-0.1,4.2-0.2,7.7-0.5l0,0
		c0,0,0.1,0,0.1,0c1.4-0.1,2.7-0.2,4-0.4l0.7-0.1c3.3-0.3,6.2-0.6,7.2-0.6c4.4,0,5.9-1.6,6.4-2.6C165,25.7,165,24.6,164.4,23.6z
		 M129.9,33.3L129.9,33.3L129.9,33.3l0.1-0.1l0,0l0,0l0,0l0,0l0,0l0,0l0,0l0,0l0,0l0,0l0,0c0,0,0.1,0,0.1,0c0.3,0,0.5,0.4,0.2,0.6
		l0,0l0,0l0,0l0,0l0,0l0,0l0,0l0,0l0,0l0,0l0,0l0,0l0,0l0,0c0,0-0.1,0-0.1,0C129.7,33.9,129.6,33.5,129.9,33.3z M127.7,34.1
		L127.7,34.1l0.1,0l0.1,0l0.1,0l0.1,0l0.1,0l0.1,0l0.1,0l0,0c0,0,0.1,0,0.1,0c0.3,0,0.4,0.5,0.1,0.6l-0.1,0l-0.1,0l-0.1,0l-0.1,0
		l-0.1,0l-0.1,0l-0.1,0l-0.1,0l-0.1,0c0,0-0.1,0-0.1,0C127.4,34.6,127.4,34.2,127.7,34.1z M125.3,34.6L125.3,34.6l0.1,0l0.1,0l0.1,0
		l0.1,0l0.1,0l0.1,0l0.1,0c0,0,0.1,0,0.1,0c0.3,0.1,0.3,0.5,0,0.6l-0.1,0l-0.1,0l-0.1,0l-0.1,0l-0.1,0l-0.1,0l-0.1,0l0,0
		c0,0-0.1,0-0.1,0C125,35.1,125,34.6,125.3,34.6z M122.9,34.9L122.9,34.9l0.1,0l0.1,0l0.1,0l0.1,0l0.1,0l0.1,0l0,0
		c0.3,0,0.4,0.3,0.3,0.5c-0.1,0.1-0.1,0.1-0.2,0.1l0,0l-0.1,0l-0.1,0l-0.1,0l-0.1,0l-0.1,0l-0.1,0l0,0c0,0-0.1,0-0.1,0
		C122.6,35.3,122.6,34.9,122.9,34.9z M120.5,34.9L120.5,34.9h0.1l0.1,0l0.1,0l0.1,0h0.1l0.1,0l0,0c0.1,0,0.3,0.1,0.3,0.2
		c0,0.2-0.1,0.4-0.3,0.4h0l-0.1,0l-0.1,0l-0.1,0l-0.1,0l-0.1,0h-0.1l0,0c0,0-0.1,0-0.1,0C120.1,35.4,120.2,34.9,120.5,34.9z
		 M117.9,35c0.1-0.1,0.2-0.1,0.3-0.1l0.1,0l0.1,0l0.1,0l0.1,0l0.1,0l0.1,0c0,0,0.1,0,0.1,0c0.3,0.2,0.2,0.6-0.2,0.6l-0.1,0l-0.1,0
		l-0.1,0l-0.1,0l-0.1,0l-0.1,0C117.9,35.4,117.7,35.2,117.9,35z M115.4,34.7c0.1-0.1,0.2-0.2,0.3-0.2l0,0l0.1,0l0.1,0l0.1,0l0.1,0
		l0.1,0l0.1,0c0.2,0,0.3,0.3,0.2,0.5c-0.1,0.1-0.2,0.2-0.3,0.1l-0.1,0l-0.1,0l-0.1,0l-0.1,0l-0.1,0l-0.1,0l0,0
		C115.5,35.1,115.4,34.9,115.4,34.7z M113.5,34L113.5,34l0.1,0l0.1,0l0.1,0l0.1,0l0.1,0l0,0c0,0,0.1,0,0.1,0.1
		c0.3,0.2,0,0.6-0.3,0.5l0,0l-0.1,0l-0.1,0l-0.1,0l-0.1,0l-0.1,0l0,0c0,0-0.1,0-0.1,0C112.9,34.3,113.1,33.9,113.5,34z M111.4,33.2
		L111.4,33.2l0.2,0.1l0.1,0l0,0c0,0,0.1,0,0.1,0.1c0.2,0.2,0,0.6-0.3,0.5l0,0l-0.1,0l-0.1,0l-0.1,0l-0.1,0l-0.1,0l0,0c0,0,0,0-0.1,0
		c-0.3-0.2,0-0.7,0.3-0.5l0,0L111.4,33.2L111.4,33.2z M92.2,30.3c0.6-0.8,1.2-1.6,1.8-2.2c0.3,0.5,0.4,1.2,0.5,1.9c0,0,0,0,0,0
		C93.8,30.4,93.2,30.5,92.2,30.3z M92.7,30.7c0.7,0.1,1.2,0,1.8-0.4c0,0.4,0,0.8,0,1.1c-0.1,0.4-0.2,0.8-0.3,1
		C93.7,31.7,93.3,31.1,92.7,30.7z M129.9,37.7L129.9,37.7c-0.2,0.3-0.4,0.5-0.5,0.7c-0.3,0-0.4-0.3-0.2-0.5l0,0l0.1,0l0.1,0l0.1,0
		l0.1,0l0,0l0,0l0,0l0,0l0,0c0,0,0.1,0,0.1-0.1c0.2-0.1,0.3,0,0.4,0.1L129.9,37.7L129.9,37.7z M133.8,31.6c-3.1,3-7.3,5.1-11.9,5.6
		c-4.3,0.5-8.9-0.4-13.4-3c-0.3,1.7,0.6,4,0.7,4.2c0,0,0.1,0,0.1,0c0.1,0.1,0.3,0.1,0.4,0.2c3.7,1.8,8.8,1.9,13.4,0.6
		c4-1.1,7.7-3.3,9.9-6.3c-0.1,0.2-0.3,0.5-0.5,0.8l0.1,0.1c-2.3,2.7-5.8,4.7-9.5,5.7c-4.7,1.3-9.9,1.2-13.6-0.6
		c-0.1,0-0.2-0.1-0.2-0.1c3.6,7.9,12.9,5.9,19.5,0.1c-2.8,3.3-5.9,5.9-9,7.6c-2.2,1.2-4.8,1.9-7.6,2.2c-1.4,0.1-2.8,0.1-4.2,0
		c0.2,0,0.3,0,0.4-0.1c0.3-0.1,0.8-0.5,0.6-1.7c0.4,0.4,0.9,0.6,1.4,0.5c0.5,0,0.8-0.3,1-0.6c0.3-0.6,0.1-1.4-0.6-2.3
		c0-0.1-0.1-0.1-0.2,0s-0.1,0.1,0,0.2c0.8,1.1,0.7,1.8,0.5,2c-0.1,0.3-0.4,0.4-0.8,0.5c-0.6,0-1.2-0.3-1.6-0.9
		c0-0.1-0.1-0.1-0.2-0.1c-0.1,0-0.1,0.1-0.1,0.2c0.3,1,0.2,1.7-0.3,1.9c-0.5,0.3-1.3-0.1-1.9-0.8c-0.1-0.1-0.1-0.1-0.2,0
		c-0.1,0-0.1,0.1,0,0.2c0.3,0.4,0.7,0.7,1.1,0.8c-1.1-0.2-2.2-0.4-3.3-0.7c-3.8-1.1-5.7-6-7.5-10.3c-0.7-1.8-1.4-3.5-2.2-4.8
		c0.3-0.3,0.4-0.8,0.5-1.2c0.2-1.1,0-2.7-0.6-3.6c0.2-0.2,0.4-0.4,0.7-0.6c1.6-1.3,3.3-2,5.1-2.2c1.8-0.2,3.5,0.3,5.1,1.3
		c0.9,0.6,1.8,1.4,2.6,2.4c0.3,0.4,0.7,0.8,1,1.1c0.7,0.7,1.6,1.4,2.6,2c-1.2,0.1-2.4,0.9-2.7,2c4.4,2.6,9,3.4,13.3,3
		c4.4-0.5,8.4-2.4,11.4-5.2l0.1,0.2l0.1-0.1C133.7,31.7,133.7,31.6,133.8,31.6c0-0.1,0-0.1,0.1-0.1
		C133.9,31.5,133.9,31.6,133.8,31.6z M130.2,35.4L130.2,35.4L130.2,35.4L130.2,35.4L130.2,35.4L130.2,35.4L130.2,35.4L130.2,35.4
		l-0.1,0.1l0,0l0,0l0,0l0,0l0,0l0,0l0,0l0,0l0,0l0,0l0,0l0,0l0,0l0,0l0,0l0,0l0,0l0,0l0,0l0,0l0,0l0,0l0,0l0,0l0,0c0,0,0,0-0.1,0
		c-0.3,0.1-0.6-0.3-0.3-0.5l0,0l0,0l0,0l0,0l0,0l0,0l0,0l0,0l0,0l0,0l0,0l0,0l0,0l0,0l0,0l0,0l0,0l0,0l0,0l0,0l0,0l0,0l0,0l0,0l0,0
		l0,0l0,0l0,0l0,0l0,0l0,0l0,0l0,0c0,0,0.1-0.1,0.1-0.1C130.2,34.8,130.4,35.2,130.2,35.4z M128,36.7L128,36.7L128,36.7L128,36.7
		L128,36.7L128,36.7l-0.1,0.1l0,0l0,0l0,0l0,0l0,0l0,0l0,0l0,0l0,0l0,0l0,0l0,0l0,0l0,0l0,0l0,0l0,0l0,0l0,0c-0.1,0-0.1,0-0.2,0
		c-0.3,0-0.3-0.5-0.1-0.6l0,0l0,0l0,0l0,0l0,0l0,0l0,0l0,0l0,0l0,0l0,0l0,0l0,0l0,0l0,0l0,0l0,0l0,0l0,0l0,0l0,0l0,0l0,0l0,0v0
		c0,0,0.1,0,0.1,0C128.2,36.1,128.3,36.6,128,36.7z M125.7,37.6L125.7,37.6L125.7,37.6L125.7,37.6L125.7,37.6L125.7,37.6L125.7,37.6
		l-0.1,0l0,0l0,0l0,0l0,0l0,0l0,0l0,0l0,0l0,0l0,0l0,0l0,0l0,0l0,0l0,0l0,0l0,0l0,0l0,0l0,0l0,0l0,0l0,0l0,0c0,0-0.1,0-0.1,0
		c-0.3-0.1-0.3-0.5,0-0.6l0,0l0,0l0,0l0,0l0,0l0,0l0,0l0,0l0,0l0,0l0,0l0,0l0,0l0,0l0,0l0,0l0,0l0,0l0,0l0,0l0,0l0,0l0,0l0,0l0,0
		l0,0l0,0l0,0l0,0l0,0l0,0c0,0,0.1,0,0.1,0C126,37,126.1,37.5,125.7,37.6z M123.3,38.1L123.3,38.1L123.3,38.1l-0.2,0l-0.1,0l-0.1,0
		l-0.1,0l-0.1,0l-0.1,0l-0.1,0l-0.1,0l0,0c0,0-0.1,0-0.1,0c-0.3-0.1-0.3-0.6,0-0.6l0,0l0.1,0l0.1,0l0.1,0l0.1,0l0.1,0l0.1,0l0.1,0
		l0.1,0l0.1,0l0,0c0,0,0.1,0,0.1,0C123.7,37.6,123.6,38,123.3,38.1z M121.1,38.1c0,0.1-0.1,0.2-0.3,0.2l-0.1,0l-0.1,0l-0.1,0l-0.1,0
		l-0.1,0l-0.1,0l-0.1,0l-0.1,0l-0.1,0c0,0-0.1,0-0.1,0c-0.3-0.1-0.3-0.6,0.1-0.6l0.1,0l0.1,0l0.1,0l0.1,0l0.1,0l0.1,0l0.1,0l0.1,0
		l0.1,0C121.1,37.7,121.2,37.9,121.1,38.1z M118.4,38.3L118.4,38.3L118.4,38.3h-0.2l-0.1,0l-0.1,0l-0.1,0l-0.1,0l-0.1,0l-0.1,0l0,0
		c0,0-0.1,0-0.1,0c-0.3-0.1-0.2-0.6,0.1-0.6h0l0.1,0h0.1l0.1,0l0.1,0l0.1,0l0.1,0h0.1l0.1,0l0,0c0,0,0.1,0,0.1,0
		C118.9,37.9,118.8,38.3,118.4,38.3z M116,38.2L116,38.2l-0.1,0l-0.1,0l-0.1,0l-0.1,0l-0.1,0l-0.1,0l-0.1,0l0,0c0,0-0.1,0-0.1,0
		c-0.3-0.1-0.2-0.6,0.1-0.6l0,0l0.1,0l0.1,0l0.1,0l0.1,0l0.1,0l0.1,0l0.1,0l0.1,0c0,0,0.1,0,0.1,0C116.5,37.8,116.3,38.3,116,38.2z
		 M113.9,37.9c-0.1,0.1-0.2,0.1-0.3,0.1l0,0l-0.1,0l-0.1,0l-0.1,0l-0.1,0l-0.1,0l-0.1,0l-0.1,0l-0.1,0c0,0-0.1,0-0.1,0
		c-0.3-0.2-0.1-0.6,0.2-0.6l0.1,0l0.1,0l0.1,0l0.1,0l0.1,0l0.1,0l0.1,0l0.1,0l0,0C113.9,37.4,114,37.7,113.9,37.9z M111.2,37.5
		L111.2,37.5l-0.1,0l-0.1,0l-0.1,0l-0.1,0l-0.1,0l-0.1,0l-0.1,0l-0.1,0l0,0c-0.1,0-0.2-0.1-0.2-0.2c0-0.2,0.2-0.4,0.4-0.4l0.1,0
		l0.1,0l0.1,0l0.1,0l0.1,0l0.1,0l0.1,0l0.1,0l0.1,0c0,0,0,0,0,0C111.7,37.1,111.5,37.6,111.2,37.5z M127.9,39.4L127.9,39.4l-0.1,0.1
		l-0.1,0l-0.1,0l-0.1,0l-0.1,0l-0.1,0l0,0c0,0,0,0-0.1,0c-0.4,0.1-0.5-0.4-0.2-0.6l0,0l0.1,0l0.1,0l0.1,0l0.1,0l0.1,0l0.1,0l0.1,0
		c0,0,0.1,0,0.1,0C128.1,38.7,128.2,39.2,127.9,39.4z M125.7,40.4L125.7,40.4l-0.1,0l-0.1,0l-0.1,0l-0.1,0l-0.1,0l-0.1,0l0,0
		c0,0-0.1,0-0.1,0c-0.3,0-0.4-0.5-0.1-0.6l0,0l0.1,0l0.1,0l0.1,0l0.1,0l0.1,0l0.1,0l0,0c0,0,0.1,0,0.1,0
		C126,39.9,126,40.3,125.7,40.4z M123.4,41.3L123.4,41.3l-0.1,0l-0.1,0l-0.1,0l-0.1,0l-0.1,0l-0.1,0l0,0c0,0-0.1,0-0.1,0
		c-0.3,0-0.4-0.5-0.1-0.6l0,0l0.1,0l0.1,0l0.1,0l0.1,0l0.1,0l0.1,0l0,0c0,0,0.1,0,0.1,0C123.7,40.7,123.7,41.2,123.4,41.3z
		 M121.1,41.9L121.1,41.9l-0.1,0l-0.1,0l-0.1,0l-0.1,0l-0.1,0l-0.1,0c0,0-0.1,0-0.1,0c-0.3-0.1-0.3-0.5,0-0.6l0.1,0l0.1,0l0.1,0
		l0.1,0l0.1,0l0.1,0l0,0c0,0,0.1,0,0.1,0C121.4,41.3,121.4,41.8,121.1,41.9z M118.6,42.3L118.6,42.3l-0.1,0l-0.1,0l-0.1,0l-0.1,0
		l-0.1,0l-0.1,0c-0.2,0-0.4-0.2-0.3-0.4c0-0.1,0.1-0.2,0.3-0.3l0.1,0l0.1,0l0.1,0l0.1,0l0.1,0l0.1,0l0,0c0,0,0.1,0,0.1,0
		C119,41.8,119,42.2,118.6,42.3z M116.4,42.3c-0.1,0.1-0.1,0.1-0.3,0.1l-0.1,0l-0.1,0h-0.1l-0.1,0l-0.1,0l-0.1,0h-0.1
		c-0.2,0-0.4-0.2-0.3-0.4c0-0.1,0.2-0.2,0.3-0.2h0.1l0.1,0l0.1,0h0.1h0.1l0.1,0l0.1,0C116.4,41.8,116.6,42.1,116.4,42.3z
		 M113.7,42.3L113.7,42.3L113.7,42.3l-0.2,0l-0.1,0l-0.1,0l-0.1,0l-0.1,0l-0.1,0c0,0-0.1,0-0.1,0c-0.3-0.2-0.1-0.6,0.2-0.6l0.1,0
		l0.1,0l0.1,0l0.1,0l0.1,0l0.1,0l0.1,0l0,0c0,0,0.1,0,0.1,0C114.2,41.9,114.1,42.4,113.7,42.3z M137.3,24.4l0.8-0.6l0.1,1
		C137.9,24.7,137.6,24.6,137.3,24.4C137.2,24.5,137.2,24.4,137.3,24.4z M138.2,30.1c-0.4,0-0.8,0-1.1,0c0,0,0,0,0,0
		c-0.9,0-1.4-0.1-1.8-0.2c0,0,0,0,0,0l0.4-0.6l-0.2,0.2c0.3-0.7,0.7-1.8,1.1-2.9c0.7,0.3,1.3,0.7,1.5,1.4
		C138.4,28.8,138.3,29.7,138.2,30.1z M140.7,29.9c-0.8,0.1-1.5,0.1-2.1,0.1c0.1-0.6,0.3-2.8-1.9-3.7c0.2-0.6,0.4-1.1,0.6-1.6
		C140.7,25.6,140.7,29,140.7,29.9z M138.7,25.1l1.1-0.3l-0.2,1C139.4,25.5,139.1,25.3,138.7,25.1z M140,26.3l1,0.3l-0.4,0.7
		C140.4,26.9,140.2,26.6,140,26.3z M140.8,27.9l0.7,0.5l-0.5,0.5C140.9,28.6,140.9,28.3,140.8,27.9z M141,29.9c0-0.1,0-0.2,0-0.4
		l0.4,0.4C141.3,29.9,141.1,29.9,141,29.9z M143.8,29.7L143.8,29.7c-0.7,0.1-1.3,0.1-1.9,0.1l-0.8-0.6l0.7-0.7c0,0,0-0.1,0-0.1
		c0,0,0-0.1-0.1-0.1l-1-0.8l0.6-1c0,0,0-0.1,0-0.1c0,0-0.1-0.1-0.1-0.1l-1.4-0.4l0.3-1.3c0-0.1,0-0.1,0-0.1c0,0-0.1-0.1-0.1,0
		l-1.5,0.3l-0.1-1.3c0-0.1,0-0.1-0.1-0.1c-0.1,0-0.1,0-0.2,0l-0.7,0.5c0.1-0.2,0.1-0.3,0.1-0.4c0.2-0.5,0.3-1,0.4-1.5
		c2.2,0.3,3.6,1.5,4.4,2.6C143.5,26.1,144,28,143.8,29.7z M145.9,28.1c-1,0.5-0.8,1.1-0.4,1.5c-0.4,0-0.8,0.1-1.1,0.1
		c0.2-1.8-0.4-3.9-1.6-5.5c-0.8-1.1-2.4-2.5-4.8-2.8c0-0.2,0.1-0.5,0.1-0.7c0.4,0.6,1.2,0.3,1.5,0c0,0,0.1,0,0.1,0
		c0.1,1.3,1.2,1,1.6,0.6c0,0,0,0,0.1,0c0,1.3,1.1,1.1,1.5,0.8c0,0,0,0,0,0c-0.3,1.3,0.8,1.4,1.3,1.2c-0.5,1.2,0.5,1.5,1.1,1.4
		c0,0,0,0,0,0.1c-0.9,0.9-0.2,1.5,0.4,1.7C144.8,27.1,145.4,27.8,145.9,28.1C145.9,28,145.9,28,145.9,28.1z M163.1,27.3
		c-1,0.8-2.8,1.3-5,1.3c-1,0-3.8,0.3-7.2,0.6l-0.1,0c-0.6,0.1-1.2,0.1-1.8,0.2c0,0,0.1,0,0.1,0c0-0.1,0-0.2,0-0.2l-1.5-1.1l1.4-0.8
		c0.1,0,0.1-0.1,0.1-0.2c0-0.1-0.1-0.1-0.2-0.1l-1.7,0.9c0,0-0.1,0.1-0.1,0.1c0,0.1,0,0.1,0.1,0.1l1.7,1.2c0,0,0,0,0,0
		c-0.8,0.1-1.6,0.1-2.4,0.2c0.4-4-0.5-7.2-5.9-9.2l1.6-1c0.1,0,0.1-0.1,0-0.2c0-0.1-0.1-0.1-0.2-0.1l-1.7,1l-0.5-1.8
		c0-0.1-0.1-0.1-0.2-0.1c-0.1,0-0.1,0.1-0.1,0.2l0.5,1.7c-0.6-0.2-1.2-0.4-1.9-0.6c0.3-2.4,2.1-8.5,4.3-11.4
		c1.4-1.1,3.3-1.6,4.2,0.1c0.3,0.6,0.3,1.6,0.2,2.3c-0.1,0.4-0.3,0.7-0.3,0.7c-0.1,0.1-0.1,0.4,0,0.5c0.1,0.1,0.4,0.1,0.5,0
		c1.9-2.2,3.5-2.6,4.3-2.6c0.3,0,0.5,0.1,0.8,0.1c0.3,0.2,0.6,0.4,0.9,0.8c0.3,0.5,0.5,1.1,0.5,1.8c-0.1,0.6-0.2,1.2-0.6,1.9
		c-0.1,0.1,0,0.3,0.1,0.4c0.1,0.1,0.3,0.1,0.4,0c0.5-0.4,0.9-0.7,1.3-0.9c0.8-0.3,1.8-0.5,2.6-0.2c0.8,0.3,1.5,1.3,1.6,2.4
		c0,0,0,0,0,0.1c0,0,0,0,0,0c0,0.7-0.3,1.3-0.7,1.6c-0.1,0.1-0.2,0.3-0.1,0.5c0.1,0.1,0.3,0.2,0.4,0.1c0.5-0.2,0.9-0.3,1.4-0.3
		c0.1,0,0.2,0,0.2,0c0.5,0.1,1,0.3,1.4,0.6c0.3,0.2,0.4,0.5,0.6,0.7c0,0.1,0.1,0.2,0.1,0.3c0.1,0.3,0.1,0.6,0,1
		c-0.1,0.4-0.2,0.7-0.3,1c-0.2,0.4-0.6,0.8-1.2,1.1c-0.1,0.1-0.2,0.3-0.2,0.4c0,0.1,0.2,0.3,0.4,0.3c0.3,0,0.5,0,0.8,0
		c0,0,0,0,0.1,0C163.8,23.9,163.9,26,163.1,27.3z"/>
	<path class="st1" d="M153.9,22.7c0,0,0,0.1,0,0.2c0,0,0.1,0.1,0.1,0.1c0,0,0,0,0,0c0.2,0,5.2-0.5,6.6-1.5c0.4-0.2,0.5-0.7,0.4-1.2
		c-0.1-0.6-0.6-1.2-1.3-1.3C158.4,18.7,156,19.7,153.9,22.7z M159.6,19.3c0.1,0,0.1,0,0.2,0c0.6,0.1,1,0.7,1,1.1
		c0.1,0.4,0,0.7-0.3,0.9c-1.1,0.8-5,1.3-6.1,1.4C156.2,20.2,158.3,19.1,159.6,19.3z"/>
	<path class="st1" d="M144.6,17.5c-0.1,0-0.2,0.1-0.2,0.1l-0.1,2c0,0,0,0.1,0.1,0.1c0,0,0,0,0.1,0c0,0,0,0,0.1,0l2.1-0.5
		c0.1,0,0.1-0.1,0.1-0.2c0-0.1-0.1-0.1-0.2-0.1l-1.9,0.4l0.1-1.8C144.7,17.6,144.7,17.5,144.6,17.5z"/>
	<path class="st1" d="M147.5,16.2c0,0,0.1,0,0.1,0c0.2-0.1,4.4-2.9,5.1-4.4c0.2-0.4,0.1-0.8-0.2-1.2c-0.4-0.5-1.1-0.7-1.7-0.6
		c-1.4,0.4-3,2.4-3.4,6.1C147.4,16.1,147.4,16.1,147.5,16.2C147.5,16.2,147.5,16.2,147.5,16.2z M150.9,10.2c0.2-0.1,0.4-0.1,0.5,0
		c0.4,0.1,0.7,0.3,0.9,0.5c0.2,0.3,0.3,0.6,0.2,0.9c-0.6,1.2-3.8,3.5-4.8,4.1C148.1,12.6,149.6,10.6,150.9,10.2z"/>
	<path class="st1" d="M151.5,19.5C151.5,19.5,151.5,19.5,151.5,19.5c0.1,0,0.1,0,0.2,0c0.2-0.1,5-1.8,6-3.1c0.3-0.3,0.3-0.8,0.1-1.2
		c-0.3-0.6-0.9-1-1.6-0.9c-1.4,0-3.5,1.6-4.8,5.1C151.4,19.4,151.4,19.5,151.5,19.5z M156.2,14.6c0.1,0,0.2,0,0.2,0
		c0.5,0.1,0.9,0.4,1,0.8c0.2,0.3,0.1,0.7-0.1,0.9c-0.9,1-4.5,2.5-5.6,2.9C153,16.2,154.9,14.6,156.2,14.6z"/>
	<path class="st1" d="M150.3,21.5c0-0.1-0.1-0.2-0.1-0.2l-2-0.1l0.6-1.7c0-0.1,0-0.2-0.1-0.2c-0.1,0-0.2,0-0.2,0.1l-0.6,1.9
		c0,0,0,0.1,0,0.1c0,0,0.1,0.1,0.1,0.1c0,0,0,0,0,0l2.2,0.1C150.2,21.6,150.2,21.6,150.3,21.5z"/>
	<path class="st1" d="M152.3,24.9C152.3,24.9,152.3,24.9,152.3,24.9c0.1,0,0.2,0,0.2-0.1c0-0.1,0-0.2-0.1-0.2l-1.8-0.8l1.1-1.4
		c0.1-0.1,0-0.2,0-0.2c-0.1-0.1-0.2,0-0.2,0l-1.3,1.6c0,0,0,0.1,0,0.1c0,0,0,0.1,0.1,0.1L152.3,24.9z"/>
	<path class="st1" d="M150.4,18.2c-0.1,0-0.2,0-0.2,0.1l-0.6,1.9c0,0,0,0.1,0,0.1c0,0,0.1,0.1,0.1,0.1c0,0,0,0,0,0l2.2,0.1
		c0.1,0,0.2-0.1,0.2-0.1c0-0.1-0.1-0.2-0.1-0.2l-2-0.1l0.6-1.7C150.5,18.4,150.5,18.3,150.4,18.2z"/>
	<path class="st1" d="M154.4,24.3c0.1,0,0.1,0,0.2-0.1c0-0.1,0-0.2-0.1-0.2l-1.8-0.8l1.1-1.4c0.1-0.1,0-0.2,0-0.2
		c-0.1-0.1-0.2,0-0.2,0l-1.3,1.6c0,0,0,0.1,0,0.1c0,0,0,0.1,0.1,0.1L154.4,24.3C154.3,24.3,154.3,24.3,154.4,24.3z"/>
	<path class="st1" d="M146.9,22.4C146.9,22.4,146.9,22.4,146.9,22.4l2.2,0.1c0.1,0,0.2-0.1,0.2-0.1c0-0.1-0.1-0.2-0.1-0.2l-2-0.1
		l0.6-1.7c0-0.1,0-0.2-0.1-0.2c-0.1,0-0.2,0-0.2,0.1l-0.6,1.9c0,0,0,0.1,0,0.1C146.8,22.4,146.9,22.4,146.9,22.4z"/>
	<path class="st1" d="M161.3,24c-1.3-0.5-3.9,0.1-6.4,2.7c0,0-0.1,0.1,0,0.2c0,0.1,0.1,0.1,0.1,0.1c0,0,0,0,0,0
		c0.2,0,5.3,0.4,6.8-0.4c0.4-0.2,0.6-0.6,0.6-1.1C162.3,24.8,161.9,24.3,161.3,24z M161.6,26.3c-1.2,0.6-5.1,0.4-6.3,0.3
		c2-1.9,4-2.7,5.3-2.5c0.2,0,0.4,0.1,0.5,0.1c0.6,0.3,0.8,0.8,0.9,1.2C162.1,25.9,161.9,26.2,161.6,26.3z"/>
	<path class="st1" d="M153.2,27.2l1.2-1.1c0.1-0.1,0.1-0.2,0-0.2c-0.1-0.1-0.2-0.1-0.2,0l-1.4,1.2c0,0-0.1,0.1,0,0.1
		c0,0.1,0,0.1,0.1,0.1l1.9,0.8c0,0,0,0,0,0c0.1,0,0.1,0,0.2-0.1c0-0.1,0-0.2-0.1-0.2L153.2,27.2z"/>
	<path class="st1" d="M147.9,17.8c0-0.1-0.1-0.1-0.2-0.1l-1.9,0.4l0.1-1.8c0-0.1-0.1-0.2-0.1-0.2c-0.1,0-0.2,0.1-0.2,0.1l-0.1,2
		c0,0,0,0.1,0.1,0.1c0,0,0,0,0.1,0c0,0,0,0,0.1,0l2.1-0.5C147.9,18,148,17.9,147.9,17.8z"/>
	<path class="st1" d="M147.6,23.5c0.1,0,0.2,0,0.2-0.1c0-0.1,0-0.2-0.1-0.2l-2-0.4l0.8-1.6c0-0.1,0-0.2-0.1-0.2
		c-0.1,0-0.2,0-0.2,0.1l-0.9,1.8c0,0,0,0.1,0,0.1c0,0,0.1,0.1,0.1,0.1L147.6,23.5C147.6,23.5,147.6,23.5,147.6,23.5z"/>
	<path class="st1" d="M145.7,20.5c0-0.1-0.1-0.1-0.2-0.1l-1.9,0.4l0.1-1.8c0-0.1-0.1-0.2-0.1-0.2c-0.1,0-0.2,0.1-0.2,0.1l-0.1,2
		c0,0,0,0.1,0.1,0.1c0,0,0,0,0.1,0c0,0,0,0,0.1,0l2.1-0.5C145.7,20.7,145.8,20.6,145.7,20.5z"/>
	<path class="st1" d="M142.7,17.7l-1.7,1l-0.5-1.8c0-0.1-0.1-0.1-0.2-0.1c-0.1,0-0.1,0.1-0.1,0.2l0.5,2c0,0,0,0.1,0.1,0.1
		c0,0,0,0,0,0c0,0,0.1,0,0.1,0l1.9-1.1c0.1,0,0.1-0.1,0.1-0.2C142.9,17.7,142.8,17.6,142.7,17.7z"/>
	<path class="st1" d="M147.2,25.5l1.1-1.4c0.1-0.1,0-0.2,0-0.2c-0.1-0.1-0.2,0-0.2,0l-1.3,1.6c0,0,0,0.1,0,0.1c0,0,0,0.1,0.1,0.1
		l2,0.8c0,0,0,0,0,0c0.1,0,0.1,0,0.2-0.1c0-0.1,0-0.2-0.1-0.2L147.2,25.5z"/>
	<path class="st1" d="M151.4,27.3l1.4-0.8c0.1,0,0.1-0.1,0.1-0.2c0-0.1-0.1-0.1-0.2-0.1l-1.7,0.9c0,0-0.1,0.1-0.1,0.1
		c0,0.1,0,0.1,0.1,0.1l1.7,1.2c0,0,0,0,0.1,0c0.1,0,0.1,0,0.1-0.1c0-0.1,0-0.2,0-0.2L151.4,27.3z"/>
	<path class="st1" d="M149.4,27.7l1.4-0.8c0.1,0,0.1-0.1,0.1-0.2c0-0.1-0.1-0.1-0.2-0.1l-1.7,0.9c0,0-0.1,0.1-0.1,0.1
		c0,0.1,0,0.1,0.1,0.1l1.7,1.2c0,0,0,0,0.1,0c0.1,0,0.1,0,0.1-0.1c0-0.1,0-0.2,0-0.2L149.4,27.7z"/>
	<path class="st1" d="M150.7,25.8c0.1,0,0.1,0,0.2-0.1c0-0.1,0-0.2-0.1-0.2l-1.8-0.8l1.1-1.4c0.1-0.1,0-0.2,0-0.2
		c-0.1-0.1-0.2,0-0.2,0l-1.3,1.6c0,0,0,0.1,0,0.1c0,0,0,0.1,0.1,0.1L150.7,25.8C150.7,25.8,150.7,25.8,150.7,25.8z"/>
	<path class="st1" d="M146.5,15.1l-0.1,2c0,0,0,0.1,0.1,0.1c0,0,0.1,0,0.1,0c0,0,0,0,0.1,0l2.1-0.5c0.1,0,0.1-0.1,0.1-0.2
		c0-0.1-0.1-0.1-0.2-0.1l-2,0.4l0.1-1.8c0-0.1-0.1-0.2-0.1-0.2C146.5,14.9,146.5,15,146.5,15.1z"/>
	<path class="st1" d="M142,16.3C142,16.4,142,16.4,142,16.3c0.1,0,0.1,0,0.1,0l1.9-1.1c0.1,0,0.1-0.1,0-0.2c0-0.1-0.1-0.1-0.2,0
		l-1.7,1l-0.5-1.8c0-0.1-0.1-0.1-0.2-0.1c-0.1,0-0.1,0.1-0.1,0.2l0.5,2C141.9,16.3,141.9,16.3,142,16.3z"/>
	<path class="st1" d="M142.7,14.8C142.7,14.8,142.7,14.8,142.7,14.8c0.1,0,0.1,0,0.2,0c0.1-0.2,3.4-4,3.7-5.7
		c0.1-0.4-0.1-0.8-0.5-1.1c-0.5-0.4-1.3-0.4-1.8-0.1c-1.2,0.7-2.3,3.2-1.6,6.8C142.6,14.7,142.6,14.8,142.7,14.8z M144.4,8.1
		c0.3-0.2,0.6-0.2,0.9-0.2c0.2,0,0.5,0.1,0.6,0.2c0.3,0.2,0.5,0.5,0.4,0.8c-0.3,1.3-2.7,4.4-3.4,5.3C142.4,11.1,143.2,8.8,144.4,8.1
		z"/>
	<path class="st1" d="M141.4,17.8C141.4,17.8,141.4,17.8,141.4,17.8c0.1,0,0.1,0,0.1,0l1.9-1.1c0.1,0,0.1-0.1,0-0.2
		c0-0.1-0.1-0.1-0.2-0.1l-1.7,1l-0.5-1.8c0-0.1-0.1-0.1-0.2-0.1c-0.1,0-0.1,0.1-0.1,0.2l0.5,2C141.3,17.7,141.3,17.8,141.4,17.8z"/>
	<circle class="st1" cx="144.7" cy="9.4" r="0.8"/>
	<circle class="st1" cx="150.9" cy="11.5" r="0.8"/>
	<circle class="st1" cx="156.2" cy="15.7" r="0.8"/>
	<circle class="st1" cx="159.4" cy="20.4" r="0.8"/>
	<circle class="st1" cx="160.7" cy="25.3" r="0.8"/>
	<path class="st1" d="M102.1,41.2c0.4,0.6,1,1.5,1.8,1.5c0.3,0,0.7-0.2,0.9-0.6c0.3-0.4,0.4-0.8,0.4-1.7c0.1,0.2,0.3,0.5,0.4,0.7
		c0.4,0.6,0.9,0.7,1.2,0.7c0.5,0,1-0.5,1.3-1.1c0.3-0.6,0.2-1.3-0.2-1.8c-0.1-0.1-0.1-0.1-0.2,0c-0.1,0.1-0.1,0.1,0,0.2
		c0.3,0.4,0.3,0.9,0.1,1.5c-0.2,0.5-0.6,0.9-1,0.9c-0.3,0-0.7-0.2-0.9-0.5c-0.3-0.4-0.5-0.8-0.6-1.1l0-0.1c0-0.1-0.1-0.1-0.2-0.1
		c-0.1,0-0.1,0.1-0.1,0.1c0,1.3-0.1,1.7-0.4,2.1c-0.2,0.3-0.4,0.4-0.7,0.4c-0.6,0-1.2-0.9-1.5-1.4c-0.3-0.4-0.3-0.5-0.5-0.4
		c-0.1,0-0.1,0.1-0.1,0.2c0,1.3-0.4,2-0.9,2.1c-0.7,0-1.5-0.8-1.6-1.6c0-0.1-0.1-0.1-0.2-0.1c-0.1,0-0.1,0.1-0.1,0.2
		c0.1,0.9,0.9,1.7,1.7,1.8c0.1,0,0.1,0,0.2,0c0.4,0,1.1-0.3,1.2-2.1C102,41.1,102.1,41.1,102.1,41.2z"/>
	<path class="st1" d="M99.1,40.6c0.4,0,0.8-0.1,1.1-0.5c0.5-0.5,0.8-1.4,0.8-2.2c1,1.2,1.7,1.6,2.3,1.4c0.8-0.3,0.9-1.7,1-2.6
		c0.6,0.8,1.6,1.3,2.2,1.1c0.4-0.2,1.1-0.7,0.6-2.7c0-0.1-0.1-0.1-0.2-0.1c-0.1,0-0.1,0.1-0.1,0.2c0.3,1.3,0.1,2.1-0.4,2.3
		c-0.6,0.2-1.7-0.4-2.1-1.4c0-0.1-0.1-0.1-0.2-0.1c-0.1,0-0.1,0.1-0.1,0.1l0,0.1c0,0.6,0,2.5-0.8,2.7c-0.3,0.1-1-0.1-2.3-1.8
		c0-0.1-0.1-0.1-0.2,0c-0.1,0-0.1,0.1-0.1,0.2c0.3,0.9-0.1,2-0.6,2.5c-0.2,0.2-0.5,0.5-0.9,0.4c-0.3-0.1-0.9-0.5-1.3-2.4
		c0-0.1-0.1-0.1-0.2-0.1c-0.1,0-0.1,0.1-0.1,0.2c0.4,2,1.1,2.5,1.6,2.7C99,40.6,99.1,40.6,99.1,40.6z"/>
	<path class="st1" d="M107.2,43.6c-0.1-0.1-0.2-0.2-0.3-0.3c0,0-0.1-0.1-0.2,0c-0.1,0-0.1,0.1-0.1,0.2c0.3,1.2,0.1,2.2-0.3,2.5
		c-0.2,0.1-0.4,0.1-0.7,0c-0.5-0.3-1-1-1.2-1.3c-0.1-0.1-0.1-0.2-0.2-0.3c0,0-0.1-0.1-0.2,0c-0.1,0-0.1,0.1-0.1,0.1
		c-0.2,1.4-0.6,2.3-1.1,2.3c-0.5,0-1-0.7-1.4-1.7c0-0.1-0.1-0.1-0.2-0.1c-0.1,0-0.1,0.1-0.1,0.2c0.4,1.1,0.9,1.8,1.5,1.9
		c0.1,0,0.1,0,0.2,0c0.4,0,1-0.5,1.3-2.2c0.3,0.4,0.8,1.1,1.3,1.4c0.3,0.2,0.7,0.2,1,0c0.5-0.3,0.6-1.2,0.5-2.3
		c0.5,0.6,1.3,1.5,2.1,0.8c1.1-0.9,0.5-2.2,0.2-2.9l0-0.1c0-0.1-0.1-0.1-0.2-0.1c-0.1,0-0.1,0.1-0.1,0.2l0,0.1
		c0.3,0.7,0.8,1.8-0.1,2.5C108.5,44.9,107.9,44.3,107.2,43.6z"/>
	<path class="st1" d="M98.8,39.1c0,0.3,0.2,0.6,0.5,0.6c0.3,0,0.4-0.4,0.4-0.7c0-0.3-0.4-0.6-0.5-1.3C99.1,38.5,98.8,38.8,98.8,39.1
		z"/>
	<path class="st1" d="M102.3,37.9c0.1,0.3,0.3,0.6,0.6,0.5c0.3-0.1,0.3-0.4,0.2-0.8c-0.1-0.3-0.5-0.5-0.8-1.1
		C102.4,37.2,102.2,37.6,102.3,37.9z"/>
	<path class="st1" d="M105.4,36.5c0.1,0.3,0.3,0.6,0.6,0.5c0.3-0.1,0.3-0.4,0.2-0.7c-0.1-0.3-0.5-0.5-0.8-1.1
		C105.5,35.8,105.3,36.2,105.4,36.5z"/>
	<path class="st1" d="M103.3,41.1c0,0.3,0.2,0.6,0.5,0.6c0.3,0,0.4-0.4,0.3-0.7c0-0.3-0.4-0.6-0.6-1.2
		C103.5,40.5,103.3,40.8,103.3,41.1z"/>
	<path class="st1" d="M106.4,40.2c0,0.3,0.2,0.6,0.5,0.6c0.3,0,0.4-0.4,0.3-0.7c0-0.3-0.4-0.6-0.6-1.2
		C106.6,39.5,106.3,39.9,106.4,40.2z"/>
	<path class="st1" d="M100.3,42c0.1,0.3,0.3,0.6,0.6,0.5c0.3-0.1,0.3-0.4,0.3-0.7c-0.1-0.3-0.5-0.5-0.8-1.1
		C100.4,41.3,100.2,41.7,100.3,42z"/>
	<path class="st1" d="M102.4,45.4c0.1,0.3,0.3,0.6,0.6,0.5c0.3-0.1,0.3-0.4,0.3-0.7c-0.1-0.3-0.5-0.5-0.8-1.1
		C102.5,44.7,102.3,45.1,102.4,45.4z"/>
	<path class="st1" d="M105.3,44.4c0.1,0.3,0.3,0.6,0.6,0.5c0.3-0.1,0.3-0.4,0.3-0.7c-0.1-0.3-0.5-0.5-0.7-1.1
		C105.5,43.7,105.2,44.1,105.3,44.4z"/>
	<path class="st1" d="M108.1,43.2c0.1,0.3,0.3,0.6,0.6,0.5c0.3-0.1,0.3-0.4,0.3-0.7c-0.1-0.3-0.5-0.5-0.7-1.1
		C108.2,42.5,108,42.9,108.1,43.2z"/>
	<path class="st1" d="M107.1,46.1c0.2,0.6,0,1.1,0.2,1.4c0.1,0.3,0.4,0.5,0.7,0.4c0.3-0.1,0.3-0.5,0.1-0.8
		C108,46.8,107.5,46.6,107.1,46.1z"/>
	<path class="st1" d="M109.9,45.9c0.1,0.3,0.4,0.5,0.7,0.4c0.3-0.1,0.3-0.5,0.1-0.8c-0.1-0.3-0.6-0.4-1-1
		C109.9,45.2,109.7,45.6,109.9,45.9z"/>
</g>
</svg>
