<?xml version="1.0" encoding="utf-8"?>
<!-- Generator: Adobe Illustrator 16.0.0, SVG Export Plug-In . SVG Version: 6.00 Build 0)  -->
<!DOCTYPE svg PUBLIC "-//W3C//DTD SVG 1.1//EN" "http://www.w3.org/Graphics/SVG/1.1/DTD/svg11.dtd">
<svg version="1.1" id="Isolation_Mode" xmlns="http://www.w3.org/2000/svg" xmlns:xlink="http://www.w3.org/1999/xlink" x="0px"
	 y="0px" width="28.4px" height="8.3px" viewBox="0 0 28.4 8.3" style="enable-background:new 0 0 28.4 8.3;" xml:space="preserve">
<style type="text/css">
<![CDATA[
	.st0{fill:#E50E63;}
]]>
</style>
<g>
	<path class="st0" d="M28.4,1.3c0-0.1,0-0.1-0.1-0.2c-0.1,0-0.1,0-0.2,0c-0.6,0.2-5.4,1.9-6.8,2.4c0-0.1,0-0.2-0.1-0.3
		c-0.3-1.1-1.5-2-3.2-2.5C16.6,0.2,14.8,0,12.9,0C10.2,0,7.9,0.5,7,1.2c-0.6,0.5-1.1,1.2-1.4,2C5.4,3,5.1,2.9,4.8,2.8l0,0
		c-0.6-0.2-1.4-0.6-2-0.9L2.6,1.8C2.4,1.7,2,1.5,1.6,1.3l0,0c-0.7-0.4-0.9-0.5-1-0.5C0.5,0.8,0.4,0.9,0.3,1C0.3,1.2,0.2,1.8,0.2,2.8
		c0,0,0,0,0,0.1c0,0.1,0,0.1,0,0.2c0,0.6-0.1,1.2-0.1,1.8C0,4.9,0,4.9,0,5c0,0,0,0.1,0,0.1C0,6.2,0,7.1,0,7.4c0,0.1,0,0.1,0.1,0.2
		c0,0,0.1,0.1,0.1,0.1c0,0,0,0,0.1,0c0,0,0,0,0.1,0c2.2-1.4,3.8-2.4,4-2.4c0.1,0,0.1-0.1,0.1-0.1c0.1-0.1,0.7-0.3,1-0.4
		C5.5,5.2,5.7,5.6,6,6l0.1,0.1c1.1,1.6,5.4,2.2,8.6,2.2c1.6,0,3.1-0.1,4-0.4c1-0.3,1.8-0.9,2.3-1.9c0.1-0.2,0.2-0.4,0.3-0.7
		c0.1,0,0.3,0.1,0.5,0.2l0.1,0c0.2,0.1,0.7,0.2,1.3,0.4C26.3,6.8,26.9,7,26.9,7l0,0c0,0,0,0,0.1,0l0.1,0c0,0,0,0,0.1,0
		c0,0,0,0,0-0.1C27.5,6.4,28.5,2,28.4,1.3z M20.9,4.7l-4.3-0.1c0.3-0.4,0.5-0.8,0.7-1.2l3.6,0C20.9,3.9,20.9,4.3,20.9,4.7z
		 M18.5,7.4c-0.1,0-0.1,0-0.2,0.1l-4,0c0.1-0.2,0.3-0.3,0.4-0.5c0.2-0.2,0.3-0.4,0.5-0.6l4.8,0.1C19.7,6.9,19.1,7.3,18.5,7.4z
		 M6,3.7l4.4-0.4c0.1,0.4,0.2,0.8,0.4,1.1L5.9,4.7C5.9,4.3,5.9,4,6,3.7z M10.9,1.2C10.9,1.1,11,1.1,11.1,1c0.1-0.1,0.3-0.2,0.5-0.2
		l0.1,0c0.9,0,2,0.8,2.1,1c0,0.1,0.1,0.1,0.2,0.1c0.1,0,0.1,0,0.2-0.1c0.7-0.8,1.3-1.2,2.2-1C16.8,1,17,1.3,17.1,1.6
		c0.4,1.3-1.6,3.7-2.7,5.1c-0.3,0.4-0.6,0.7-0.7,0.9C11.3,5.7,10.2,2.5,10.9,1.2z M17.6,2.1l2.3,0.1c0.4,0.3,0.7,0.7,0.8,1.1l-3.4,0
		C17.5,2.8,17.6,2.4,17.6,2.1z M17.6,1.8c0-0.1,0-0.2,0-0.4c-0.1-0.2-0.1-0.3-0.3-0.5c0.2,0.1,0.4,0.1,0.6,0.2
		c0.6,0.2,1.2,0.5,1.6,0.7L17.6,1.8z M14,1.4c-0.3-0.3-1-0.7-1.6-0.9c0.9,0,1.7,0,2.6,0.1C14.7,0.7,14.4,1,14,1.4z M10.6,0.8l-1.4,0
		c0.5-0.1,1.1-0.2,1.7-0.3C10.8,0.6,10.7,0.7,10.6,0.8z M10.5,1.1c-0.1,0.3-0.2,0.6-0.2,0.9L6.7,2.1C6.9,1.9,7,1.7,7.2,1.6
		c0,0,0,0,0.1-0.1c0.2-0.2,0.5-0.3,0.9-0.5L10.5,1.1z M10.2,2.2c0,0.3,0,0.5,0.1,0.8L6,3.4C6.1,3,6.3,2.7,6.5,2.4L10.2,2.2z
		 M10.9,4.7c0.2,0.4,0.4,0.8,0.6,1.2L6.8,6.2C6.6,6.1,6.5,6,6.4,5.8L6.4,5.8C6.2,5.5,6.1,5.2,6,4.9L10.9,4.7z M11.7,6.1
		c0.3,0.4,0.5,0.7,0.8,1L9.8,7.3c-1.1-0.2-2-0.5-2.6-0.9L11.7,6.1z M12.8,7.4c0.1,0.1,0.2,0.2,0.3,0.3c-0.7,0-1.5-0.1-2.2-0.2
		L12.8,7.4z M14.1,7.8l2.3,0C15.7,7.8,14.9,7.8,14.1,7.8C14.1,7.8,14.1,7.8,14.1,7.8z M15.5,6.1c0.3-0.4,0.6-0.8,0.9-1.2L20.8,5
		c-0.1,0.3-0.2,0.5-0.3,0.8c-0.1,0.1-0.2,0.2-0.2,0.3L15.5,6.1z M0.5,5.2C1.7,5.1,2.9,4.8,4,4.6l0.1,0c0.3-0.1,0.7-0.1,1-0.2
		C4.9,4.4,4.4,4.6,4.2,4.8c0,0,0,0,0,0C3.7,5,1.4,6.4,0.5,7C0.5,6.5,0.5,5.8,0.5,5.2z M0.5,4.7c0-0.5,0-1,0.1-1.5
		c0.9,0.2,3.4,0.7,4.3,0.7C4.6,4,4.2,4,3.9,4.1l0,0C2.8,4.4,1.7,4.6,0.5,4.7L0.5,4.7z M0.6,2.7c0-0.6,0.1-1.1,0.1-1.4
		c0.2,0.1,0.4,0.2,0.6,0.3l0,0c0.5,0.3,0.8,0.4,1,0.5l0.1,0C3.2,2.6,4,3,4.6,3.2l0,0C4.8,3.3,5,3.4,5.1,3.4c0,0-0.1,0-0.1,0
		c0,0,0,0-0.1,0C4.3,3.4,1.5,2.9,0.6,2.7z M21.6,5c0.7,0,1.9,0.1,2.9,0.2l0,0c1,0.1,2,0.2,2.6,0.2c0,0,0,0,0.1,0
		c-0.1,0.6-0.2,1-0.3,1.2c-0.5-0.1-2.4-0.7-3.7-1.1l-0.6-0.2c-0.3-0.1-0.6-0.2-0.7-0.2l-0.1,0C21.7,5,21.6,5,21.5,5
		C21.5,5,21.6,5,21.6,5z M24.7,4.7L24.7,4.7c-1.2-0.1-2.3-0.2-3-0.2c3.4-0.9,5.4-1.4,5.9-1.6c-0.1,0.6-0.2,1.3-0.4,1.9
		C26.9,4.9,25.8,4.8,24.7,4.7z M27.8,2.5c-0.1,0-2.2,0.6-6.4,1.7c0,0,0-0.1,0-0.1c1.3-0.5,5.3-2,6.5-2.4C27.9,1.9,27.8,2.1,27.8,2.5
		C27.8,2.5,27.8,2.5,27.8,2.5z"/>
	<path class="st0" d="M16.1,1.7c-0.5-0.5-2.1,0.8-2.1,1.2c0-0.1-0.9-1.4-1.6-1.2c-2.2,0.8,1.2,4.2,1.5,4.6C14.1,5.4,17,2.7,16.1,1.7
		z"/>
</g>
</svg>
