<?xml version="1.0" encoding="utf-8"?>
<!-- Generator: Adobe Illustrator 16.0.0, SVG Export Plug-In . SVG Version: 6.00 Build 0)  -->
<!DOCTYPE svg PUBLIC "-//W3C//DTD SVG 1.1//EN" "http://www.w3.org/Graphics/SVG/1.1/DTD/svg11.dtd">
<svg version="1.1" id="Layer_1" xmlns="http://www.w3.org/2000/svg" xmlns:xlink="http://www.w3.org/1999/xlink" x="0px" y="0px"
	 width="297px" height="50.8px" viewBox="0 0 297 50.8" style="enable-background:new 0 0 297 50.8;" xml:space="preserve">
<style type="text/css">
<![CDATA[
	.st0{fill:#70002E;}
]]>
</style>
<g>
	<path class="st0" d="M60.1,15.3c-0.9-2.8-3.8-4.9-6.8-4.9h-1.7c-3,0-5.9,2.1-6.8,4.9L38,36.7c-0.5,1.5,0.3,3.1,1.8,3.5
		c0.3,0.1,0.6,0.1,0.9,0.1c1.2,0,2.3-0.8,2.7-2L50.2,17c0.2-0.5,0.9-1,1.4-1h1.7c0.5,0,1.3,0.6,1.4,1l6.8,21.4
		c0.5,1.5,2.1,2.3,3.5,1.8c1.5-0.5,2.3-2.1,1.8-3.5L60.1,15.3z"/>
	<path class="st0" d="M131.7,34.8h-1.4l-6.2-19.4c-0.9-2.8-3.8-4.9-6.8-4.9h-1.7c-3,0-5.9,2.1-6.8,4.9l-6.2,19.4h-1.4
		c-1.6,0-2.8,1.3-2.8,2.8v4.3c0,1.6,1.3,2.8,2.8,2.8s2.8-1.3,2.8-2.8v-1.5h24.2c0,0,0,0,0,0s0,0,0,0h0.6v1.5c0,1.6,1.3,2.8,2.8,2.8
		c1.6,0,2.8-1.3,2.8-2.8v-4.3C134.5,36,133.2,34.8,131.7,34.8z M108.6,34.8l5.7-17.7c0.2-0.5,0.9-1,1.4-1h1.7c0.5,0,1.3,0.6,1.4,1
		l5.7,17.7H108.6z"/>
	<path class="st0" d="M264.9,34.8h-1.3V16.9c0-1.2,0.1-2.4,0.9-3.2c0.9-0.9,1.6-1.3,1.3-2.2c-0.3-0.7-1.3-1-3.1-0.4
		c-0.5-0.5-1.2-0.8-1.9-0.8s-1.4,0.3-1.9,0.8c-1.7-0.6-2.8-0.3-3.1,0.4c-0.4,0.9,0.4,1.3,1.3,2.2c0.8,0.8,0.9,2,0.9,3.2v17.9h-15.6
		v-18c0-1.1,0.1-2.3,0.9-3c0.9-0.9,1.6-1.3,1.3-2.2c-0.3-0.7-1.3-1-3.1-0.4c-0.5-0.5-1.2-0.8-1.9-0.8c-0.7,0-1.4,0.3-1.9,0.8
		c-1.7-0.6-2.8-0.3-3.1,0.4c-0.4,0.9,0.4,1.3,1.3,2.2c0.9,0.9,0.9,2.4,0.9,3.7h0v20.1c0,1.6,1.3,2.8,2.8,2.8h21.2h1.3v1.5
		c0,1.6,1.3,2.8,2.8,2.8s2.8-1.3,2.8-2.8v-4.3C267.7,36,266.5,34.8,264.9,34.8z"/>
	<path class="st0" d="M193.9,11.1c-0.5-0.5-1.2-0.8-1.9-0.8s-1.4,0.3-1.9,0.8c-1.7-0.6-2.8-0.3-3.1,0.4c-0.4,0.9,0.4,1.3,1.3,2.2
		c0.8,0.8,0.9,2,0.9,3.2v6.5h-15.6v-6.6c0-1.1,0.1-2.4,0.9-3.1c0.9-0.9,1.6-1.3,1.3-2.2c-0.3-0.7-1.3-1-3.1-0.4
		c-0.5-0.5-1.2-0.8-1.9-0.8c-0.7,0-1.4,0.3-1.9,0.8c-1.7-0.6-2.8-0.3-3.1,0.4c-0.4,0.9,0.4,1.3,1.3,2.2c0.9,0.9,0.9,2.4,0.9,3.7h0
		v20.1c0,1.6,1.3,2.8,2.8,2.8c1.6,0,2.8-1.3,2.8-2.8v-8.5h15.6v8.5c0,1.6,1.3,2.8,2.8,2.8c1.5,0,2.8-1.3,2.8-2.8V16.9
		c0-1.2,0.1-2.4,0.9-3.2c0.9-0.9,1.6-1.3,1.3-2.2C196.7,10.8,195.7,10.5,193.9,11.1z"/>
	<path class="st0" d="M35.8,28.3c-1.2-0.9-3-0.7-3.9,0.6c-2.8,3.7-7,5.9-11.7,5.9c-8,0-14.6-6.5-14.6-14.6S12.2,5.6,20.2,5.6
		c3.4,0,6.5,1.1,9.1,3.2c0.9,0.8,1.8,1.8,1.8,3c0,1.3-0.2,2.1,0.7,2.5c0.6,0.3,1.6-0.2,2.3-1.7c0.6,0,1.2-0.2,1.7-0.5
		c0.8-0.6,1.2-1.5,1.1-2.4C38.5,8.9,39,8,38.7,7.3c-0.4-0.9-1.2-0.7-2.5-0.7c-1.2,0-2.2-1.1-3.1-1.9c0,0,0,0,0,0c0,0,0,0-0.1,0l0,0
		C29.5,1.6,25,0,20.2,0C9.1,0,0,9.1,0,20.2c0,11.1,9.1,20.2,20.2,20.2c6.3,0,12.4-3,16.2-8.1C37.3,31,37,29.3,35.8,28.3z"/>
	<path class="st0" d="M160.6,11.1c-0.3-0.3-0.8-0.5-1.2-0.7c-0.2,0-0.4-0.1-0.6-0.1c-0.1,0-0.1,0-0.2,0c-0.1,0-0.2,0-0.4,0
		c-0.6,0.1-1.1,0.3-1.5,0.7c-1.8-0.6-2.8-0.3-3.1,0.3c-0.4,0.9,0.4,1.4,1.3,2.2c0.4,0.4,0.4,1.2,0.2,2.1l-4.3,18.1v0l-0.2,0.9h-4.8
		c-0.5,0-1.3-0.6-1.4-1l-5.2-16.3h0c-0.3-1.3-1.2-3-0.5-3.7c0.9-0.9,1.6-1.3,1.3-2.2c-0.3-0.7-1.4-1-3.2-0.3c-0.7-0.7-1.8-1-2.8-0.7
		c-0.4,0.1-0.7,0.3-1,0.6c-1.7-0.6-2.7-0.3-3,0.4c-0.4,0.9,0.4,1.3,1.3,2.2c0.9,0.9,1.4,1.8,2,3.7l5.8,18c0.9,2.8,3.8,4.9,6.8,4.9
		h3.5l-1.7,6.9c-0.4,1.5,0.6,3,2.1,3.4c0.2,0.1,0.4,0.1,0.7,0.1c1.4,0,2.4-0.9,2.7-2.2l7.5-31.2c0.5-1.9,0.8-2.8,1.8-3.7
		c0.9-0.9,1.6-1.3,1.3-2.2C163.4,10.8,162.3,10.5,160.6,11.1z"/>
	<path class="st0" d="M82.9,10.4c-8.3,0-15,6.7-15,15c0,8.3,6.7,15,15,15c3.5,0,6.4-1.3,7.8-2.6c0,1.1,1.1,2.6,2.8,2.6
		c1.6,0,2.8-1.3,2.8-2.8V19.4c0-0.5-0.1-1-0.4-1.4C93.4,13.3,88.3,10.4,82.9,10.4z M90.8,31c0,0-3,3.7-7.8,3.7
		c-5.2,0-9.4-4.2-9.4-9.4c0-5.2,4.2-9.4,9.4-9.4c3.2,0,6.1,1.6,7.8,4.2V31z"/>
	<path class="st0" d="M296.6,18c-2.7-4.7-7.7-7.7-13.1-7.7c-8.3,0-15,6.7-15,15c0,8.3,6.7,15,15,15c3.5,0,6.4-1.3,7.8-2.6
		c0,1.1,1.1,2.6,2.8,2.6c1.6,0,2.8-1.3,2.8-2.8V19.4C297,18.9,296.9,18.5,296.6,18z M291.4,31c0,0-3,3.7-7.8,3.7
		c-5.2,0-9.4-4.2-9.4-9.4c0-5.2,4.2-9.4,9.4-9.4c3.2,0,6.1,1.6,7.8,4.2V31z"/>
	<path class="st0" d="M229.2,11.1c-0.5-0.5-1.2-0.8-1.9-0.8s-1.4,0.3-1.9,0.8c-1.7-0.6-2.8-0.3-3.1,0.4c-0.4,0.9,0.4,1.3,1.3,2.2
		c0.9,0.9,0.9,2.4,0.9,3.7V31c0,0-3,3.7-7.8,3.7c-5.2,0-9.4-4.2-9.4-9.4v-8.5c0-1.1,0.1-2.4,0.9-3.1c0.9-0.9,1.6-1.3,1.3-2.2
		c-0.3-0.7-1.3-1-3.1-0.4c-0.5-0.5-1.2-0.8-1.9-0.8s-1.4,0.3-1.9,0.8c-1.7-0.6-2.8-0.3-3.1,0.4c-0.4,0.9,0.4,1.3,1.3,2.2
		c0.9,0.9,0.9,2.4,0.9,3.7h0v7.9c0,8.3,6.7,15,15,15c3.5,0,6.4-1.3,7.8-2.6c0,1.1,1.1,2.6,2.8,2.6c1.6,0,2.8-1.3,2.8-2.8l0-20.8
		c0-1.1,0.1-2.3,0.9-3.1c0.9-0.9,1.6-1.3,1.3-2.2C232,10.8,230.9,10.5,229.2,11.1z"/>
</g>
</svg>
