<?xml version="1.0" encoding="utf-8"?>
<!-- Generator: Adobe Illustrator 16.0.0, SVG Export Plug-In . SVG Version: 6.00 Build 0)  -->
<!DOCTYPE svg PUBLIC "-//W3C//DTD SVG 1.1//EN" "http://www.w3.org/Graphics/SVG/1.1/DTD/svg11.dtd">
<svg version="1.1" id="Layer_1" xmlns="http://www.w3.org/2000/svg" xmlns:xlink="http://www.w3.org/1999/xlink" x="0px" y="0px"
	 width="74.4px" height="60.8px" viewBox="0 0 74.4 60.8" style="enable-background:new 0 0 74.4 60.8;" xml:space="preserve">
<style type="text/css">
<![CDATA[
	.st0{fill:#D70036;}
]]>
</style>
<g>
	<path class="st0" d="M47.9,25.4c0.3,0,0.7-0.1,1-0.3c0,0,0.7-0.4,1.7-0.4c0.5,0,1.1,0.1,1.7,0.5c0.3,0.2,0.7,0.3,1.1,0.3
		c1,0,2-0.9,2-2c0-2.2-3.3-2.8-4.8-2.8c-2.9,0-4.8,1.2-4.8,2.7C45.8,24.6,46.8,25.4,47.9,25.4z"/>
	<path class="st0" d="M53.3,28.9c-1.1,0-2.1,0.4-2.7,0.7c-0.6-0.3-1.6-0.7-2.7-0.7c-2.2,0-4,1.7-4,4c0,3.8,5.6,6.6,6.2,6.9
		c0.2,0.1,0.3,0.1,0.5,0.1c0.2,0,0.4,0,0.5-0.1c0.6-0.3,6.2-3.1,6.2-6.9C57.3,30.6,55.5,28.9,53.3,28.9z"/>
	<path class="st0" d="M46.6,8.3c0.1,0,0.2,0,0.3,0c1.2-0.3,2.4-0.5,3.7-0.5s2.5,0.2,3.7,0.5c0.1,0,0.2,0,0.3,0c0.4,0,0.8-0.3,1-0.7
		c0.7-2.3,3.3-3.1,3.3-5.1c0-2-2.2-2.3-5.1-1.3C52.9,0.5,51.8,0,50.6,0s-2.3,0.5-3.1,1.2c-2.9-1-5.1-0.7-5.1,1.3
		c0,2,2.5,2.8,3.3,5.1C45.8,8,46.2,8.3,46.6,8.3z"/>
	<path class="st0" d="M73.3,28.3l-6-3.9c-2.5-7.9-9.5-13-17.4-13c-2.7,0-5.5,0.5-8.3,1.6c-5.2,1.9-8.3,4.7-10.4,7.4
		c-5.4-4-12-7.1-17.3-7.6h-0.2c-1.3,0-2.5,1-2.5,2.3c-0.1,1.4-0.2,2.9-0.2,4.5c0,4.3,0.4,9.2,1.8,13.7C7.4,33,4,30.7,4,30.7
		c-0.4-0.3-0.9-0.4-1.4-0.4c-1.4,0-2.5,1.2-2.5,2.5c0,0.1,0,0.3,0,0.4C1.3,40.1,6,56.6,24.5,60c2.9,0.5,5.6,0.8,8.1,0.8
		c19.4,0,31.2-13.7,34.6-24.3c0,0,0,0,0-0.1l6-4c0.7-0.5,1.1-1.2,1.1-2.1C74.4,29.5,74,28.7,73.3,28.3z M30.4,26.2
		c3.9,3.4,6.2,7.2,6.2,11.3c0,2.8-1.2,4.7-3.6,5.8c-0.9,0.4-1.9,0.6-2.9,0.6c-3.8,0-7.6-3-9.6-5.8c-0.7-1-1.3-2-1.8-3.1
		c-0.1-0.3-0.2-0.6-0.4-0.9c-1.9-4.6-2.5-9.9-2.5-14.6c0-0.5,0-0.9,0-1.4c4.5,1.2,9.6,4,13.7,7.3L30.4,26.2z M62.4,35
		c-2.9,9-13,20.8-29.9,20.8c-17.1,0-23.8-10-26.4-18.6c2,0.6,4.5,1.1,7.5,1.1c0.4,0,0.7,0,1.1,0c0.5,1,1.1,1.9,1.7,2.8
		C19,44.7,24.1,49,30.1,49c6.9,0,11.5-5.3,11.5-11.4c0-3.6-1.3-7.5-3.7-10.7c-0.8-1.1-1.9-2.2-3-3.3c1.9-2.4,4.3-4.4,8.4-5.9
		c2.3-0.9,4.5-1.3,6.6-1.3c3.4,0,6.5,1.2,9,3.5c2.8,2.7,4.3,6.5,4.3,10.4C63.2,31.8,62.9,33.4,62.4,35z"/>
</g>
</svg>
