<?xml version="1.0" standalone="no"?>
<!DOCTYPE svg PUBLIC "-//W3C//DTD SVG 1.1//EN" "http://www.w3.org/Graphics/SVG/1.1/DTD/svg11.dtd" >
<svg xmlns="http://www.w3.org/2000/svg">
<metadata></metadata>
<defs>
<font id="oksana_text_narrowthin" horiz-adv-x="944" >
<font-face units-per-em="2048" ascent="1638" descent="-410" />
<missing-glyph horiz-adv-x="503" />
<glyph horiz-adv-x="2048" />
<glyph horiz-adv-x="2048" />
<glyph unicode="&#xd;" horiz-adv-x="2048" />
<glyph unicode=" "  horiz-adv-x="503" />
<glyph unicode="&#x09;" horiz-adv-x="503" />
<glyph unicode="&#xa0;" horiz-adv-x="503" />
<glyph unicode="!" horiz-adv-x="436" d="M188 68q0 13 9 22.5t20 9.5t19 -9.5t8 -22.5t-8 -22t-19 -9t-20 9t-9 22zM205 1536h24l-4 -981h-18z" />
<glyph unicode="&#x22;" horiz-adv-x="397" d="M76 1120v416h20l-2 -416h-18zM256 1120v416h20l-2 -416h-18z" />
<glyph unicode="#" horiz-adv-x="884" d="M104 514l2 16h189l53 265h-244l2 18h246l60 287l14 -2l-57 -285h204l58 277l16 -5l-55 -272h186v-18h-190l-56 -265h246v-16h-248l-59 -289l-14 4l57 285h-207l-55 -278l-14 4l55 274h-189zM311 530h205l53 265h-204z" />
<glyph unicode="$" horiz-adv-x="948" d="M152 199l6 16q4 -3 11.5 -9t34.5 -20.5t58.5 -25.5t84 -20t110.5 -9q152 0 229.5 73t77.5 177q0 68 -31.5 117t-81.5 77t-110 50t-120.5 44.5t-110.5 51.5t-81.5 80t-31.5 121q0 112 69 177t211 72v263h23l-2 -260h18q50 0 103.5 -10t81.5 -20l28 -9l-2 -19 q-100 41 -209 41q-153 0 -226 -61.5t-73 -173.5q0 -95 69 -157t214 -106q153 -48 218.5 -110t65.5 -166q0 -105 -73 -181.5t-215 -86.5l2 -217h-23v217h-18q-61 0 -115.5 8.5t-88 21t-58 25t-35.5 20.5z" />
<glyph unicode="%" horiz-adv-x="1630" d="M119 989q0 159 79.5 260t198.5 101q118 0 199.5 -101t81.5 -260q0 -158 -81.5 -257t-199.5 -99q-119 0 -198.5 98.5t-79.5 257.5zM137 989q0 -150 75 -244t185 -94t186 94t76 244q0 152 -76.5 247t-185.5 95q-110 0 -185 -94.5t-75 -247.5zM440 0l701 1331h24l-700 -1331 h-25zM952 338q0 160 81 261t200 101q118 0 198 -101t80 -261q0 -157 -80.5 -255.5t-199.5 -98.5t-199 98t-80 256zM971 338q0 -150 76 -244t186 -94q109 0 184.5 94t75.5 244q0 153 -76 248.5t-186 95.5q-109 0 -184.5 -95.5t-75.5 -248.5z" />
<glyph unicode="&#x26;" horiz-adv-x="1255" d="M119 358q0 143 80 247t200 114q-19 12 -37.5 26.5t-44.5 43t-45 61t-33 79.5t-14 99q0 142 87 230t239 88q60 0 115.5 -9t81.5 -19l26 -9v-17q-90 37 -221 37q-144 0 -223.5 -83t-79.5 -218q0 -53 15 -101.5t34.5 -80.5t46 -60.5t42.5 -41t30 -21.5h381v297l22 8v-305 h371v-16q-3 0 -93.5 -1t-125.5 -1h-152v-519q0 -99 36 -140.5t116 -41.5q59 0 116.5 20t84.5 40l28 20v-16q-4 -3 -11 -9t-30 -20.5t-48.5 -25.5t-65 -20t-80.5 -9q-88 0 -128 45t-40 155v6q-11 -22 -24 -43t-42 -52.5t-63.5 -54.5t-88.5 -39.5t-116 -16.5q-106 0 -186 53.5 t-120 137.5t-40 183zM143 360q0 -94 37.5 -174.5t113.5 -132t177 -51.5q55 0 103 13.5t82 36.5t60 47t43.5 52t26 44t13.5 30v480h-373q-119 0 -201 -101.5t-82 -243.5z" />
<glyph unicode="'" horiz-adv-x="217" d="M76 1120v416h20l-2 -416h-18z" />
<glyph unicode="(" horiz-adv-x="507" d="M182 557q0 164 22.5 318.5t54 258.5t63.5 184.5t54 118.5l23 38l19 -9q-9 -14 -23 -39.5t-51 -114.5t-65 -187t-51 -252.5t-23 -315.5q0 -160 22 -312t53.5 -253.5t62.5 -180.5t53 -116l22 -37l-19 -10q-9 13 -23.5 38.5t-52 112.5t-66 185t-52 253.5t-23.5 319.5z" />
<glyph unicode=")" horiz-adv-x="507" d="M90 -342q9 14 23 39.5t51 114.5t65 187t51 252.5t23 315.5q0 160 -22 312t-53.5 253.5t-62.5 180.5t-53 116l-22 37l19 11q9 -13 23.5 -38.5t52 -113t66 -185t52 -253.5t23.5 -320t-22.5 -318.5t-54.5 -258t-63.5 -184t-53.5 -118.5l-23 -38z" />
<glyph unicode="*" horiz-adv-x="741" d="M61 1114l7 21l297 -107l-5 361l19 2v-361l295 105l6 -19l-297 -102l199 -303l-19 -11l-192 304l-195 -304l-16 11l198 301z" />
<glyph unicode="+" horiz-adv-x="718" d="M76 627v18h274v354h19v-354h274v-18h-274v-355h-19v355h-274z" />
<glyph unicode="," horiz-adv-x="370" d="M57 -332q84 79 127 152t43 153q0 39 -12 86l-25 2q0 41 23 41q20 0 29.5 -41t9.5 -79q0 -151 -178 -322z" />
<glyph unicode="-" horiz-adv-x="514" d="M76 627v18h362v-18h-362z" />
<glyph unicode="." horiz-adv-x="374" d="M158 68q0 13 8.5 22.5t19.5 9.5t19 -9.5t8 -22.5t-8 -22t-19 -9t-19.5 9t-8.5 22z" />
<glyph unicode="/" horiz-adv-x="753" d="M-2 -512l766 2048h22l-766 -2048h-22z" />
<glyph unicode="0" horiz-adv-x="1120" d="M119 662q0 313 124 498.5t318 185.5t317 -185t123 -499q0 -313 -123.5 -495.5t-318.5 -182.5t-317.5 182.5t-122.5 495.5zM141 662q0 -303 117.5 -480.5t302.5 -177.5t301.5 176.5t116.5 481.5q0 304 -117.5 484.5t-302.5 180.5t-301.5 -180t-116.5 -485z" />
<glyph unicode="1" horiz-adv-x="667" d="M43 862l397 467l23 2v-1331h-23v1303l-387 -453z" />
<glyph unicode="2" horiz-adv-x="940" d="M106 0v20q13 12 36 33t89 88t126.5 135t134 164t126.5 184.5t89 188.5t36 184q0 151 -89.5 240.5t-276.5 89.5q-71 0 -131 -11.5t-84 -22.5l-25 -11v18q9 5 27 12.5t81 20.5t136 13q198 0 292.5 -93t94.5 -254q0 -79 -31 -171t-77 -174.5t-112 -172.5t-123.5 -158 t-123.5 -137.5t-101 -103t-67 -62.5h457l229 3l-2 -23h-711z" />
<glyph unicode="3" horiz-adv-x="913" d="M90 98l8 17q3 -5 9 -12.5t31.5 -27t57.5 -34.5t88.5 -27t123.5 -12q88 0 159 34t114 90t66 123t23 138q0 137 -102 234.5t-279 97.5l-8 14q46 73 93.5 151.5t87.5 148.5t68.5 121.5t55.5 101t31 55.5h-584v20h604l-2 -18q-152 -296 -336 -578q183 0 289.5 -100.5 t106.5 -245.5q0 -61 -15 -118.5t-46 -110t-75.5 -91.5t-108.5 -62t-140 -23q-70 0 -128.5 11.5t-92.5 28.5t-58 34t-33 28z" />
<glyph unicode="4" horiz-adv-x="839" d="M29 406l2 20q96 170 243.5 396.5t247.5 367.5l99 141h16v-905h160v-20h-160v-406h-23v406h-585zM49 424q4 0 79.5 1t143.5 1h342v870q-96 -133 -269.5 -395t-295.5 -477z" />
<glyph unicode="5" horiz-adv-x="882" d="M59 98l9 17q4 -5 11 -12.5t34 -27t59.5 -34.5t88 -27t118.5 -12q167 0 264.5 120t97.5 296q0 150 -101.5 253t-260.5 103q-44 0 -90 -7t-70 -15l-24 -7q6 174 13 320.5t11 206.5l4 59h490v-20h-473q-16 -191 -29 -545q91 27 174 27q169 0 274 -107t105 -266 q0 -185 -104.5 -310.5t-280.5 -125.5q-66 0 -123.5 11.5t-92 28.5t-59.5 34t-35 28z" />
<glyph unicode="6" horiz-adv-x="991" d="M119 496q0 158 37.5 292.5t95 226.5t137.5 165t155 114.5t156 69.5l9 -16q-72 -25 -137.5 -60t-136.5 -93.5t-125.5 -130t-97.5 -174.5t-60 -224q32 23 74 47.5t129.5 53t170.5 28.5q155 0 250.5 -103.5t95.5 -261.5q0 -92 -23.5 -170.5t-70 -141t-125 -98.5t-180.5 -36 q-167 0 -260.5 140.5t-93.5 371.5zM141 496q0 -222 88 -358t246 -136q78 0 141 22.5t106 62t72.5 94t42.5 116t13 131.5q0 150 -91 249t-237 99q-184 0 -372 -131q-9 -71 -9 -149z" />
<glyph unicode="7" horiz-adv-x="782" d="M45 1311v20h692v-18q-328 -771 -512 -1313h-24q78 233 203 553t202 504.5t109 255.5q-122 -4 -178 -4z" />
<glyph unicode="8" horiz-adv-x="985" d="M119 317q0 74 25 135.5t60.5 99t83.5 66t83.5 41t70.5 19.5q-30 11 -58 24t-69 42t-70.5 64t-51 90.5t-21.5 119.5q0 82 36 155.5t111.5 123t174.5 49.5q145 0 231 -93t86 -219q0 -72 -21 -132t-50.5 -96.5t-69.5 -65t-70.5 -41.5t-62.5 -21q36 -10 69.5 -22.5t84 -41.5 t86.5 -64.5t62.5 -92.5t26.5 -125q0 -61 -24 -121.5t-69 -111.5t-119.5 -83t-164.5 -32q-91 0 -163.5 29t-116.5 77.5t-67 106.5t-23 120zM141 319q0 -57 21.5 -112t63 -101.5t111 -75t155.5 -28.5q85 0 154.5 30t110.5 79t63 106t22 115q0 73 -32 133t-73 94.5t-96 61 t-84 35.5t-55 14h-8q-7 -1 -20 -2.5t-49.5 -11.5t-70 -23.5t-74 -41.5t-70 -63t-49.5 -89.5t-20 -119.5zM195 1018q0 -70 26.5 -129t61 -93t79.5 -61t70 -36.5t45 -14.5l8 2q6 1 17 2.5t42 11t59.5 23t63.5 40.5t60 61.5t42 88.5t17 119q0 119 -78.5 208t-215.5 89 q-93 0 -162.5 -47t-102 -116.5t-32.5 -147.5z" />
<glyph unicode="9" horiz-adv-x="991" d="M119 889q0 92 23.5 172.5t70 145t124.5 102t179 37.5q170 0 263 -140.5t93 -390.5q0 -152 -35 -282t-95 -223.5t-141.5 -163.5t-171.5 -109t-187 -53l-6 18q103 15 197.5 60t176 119t140.5 185.5t84 249.5q-33 -17 -81.5 -37t-140.5 -41.5t-176 -21.5q-151 0 -234 105 t-83 268zM141 891q0 -155 78.5 -255.5t220.5 -100.5q86 0 181 23t140 41.5t75 33.5q14 77 14 182q0 241 -87 376.5t-247 135.5q-96 0 -170 -36t-117.5 -98t-65.5 -138.5t-22 -163.5z" />
<glyph unicode=":" horiz-adv-x="380" d="M158 256q0 13 8.5 23t19.5 10t19 -10t8 -23t-8 -22t-19 -9t-19.5 9t-8.5 22zM158 707q0 13 8.5 22.5t19.5 9.5t19 -9.5t8 -22.5t-8 -22t-19 -9t-19.5 9t-8.5 22z" />
<glyph unicode=";" horiz-adv-x="374" d="M57 -332q84 79 127 152t43 153q0 39 -12 86l-25 2q0 41 23 41q20 0 29.5 -41t9.5 -79q0 -151 -178 -322zM158 707q0 13 8.5 22.5t19.5 9.5t19 -9.5t8 -22.5t-8 -22t-19 -9t-19.5 9t-8.5 22z" />
<glyph unicode="&#x3c;" horiz-adv-x="716" d="M147 655l482 353l14 -11l-469 -342l469 -340l-14 -14z" />
<glyph unicode="=" horiz-adv-x="751" d="M76 461v18h600l-2 -18h-598zM76 795v18h600l-2 -18h-598z" />
<glyph unicode="&#x3e;" horiz-adv-x="716" d="M76 299l467 340l-467 342l12 12l481 -352l-481 -354z" />
<glyph unicode="?" horiz-adv-x="675" d="M45 1491v18q8 4 24 10t73.5 15.5t125.5 9.5q161 0 247.5 -94.5t86.5 -249.5q0 -75 -21 -135.5t-54.5 -102.5t-74 -80t-80.5 -77t-73.5 -83t-54.5 -109.5t-21 -145.5h-18q0 83 20.5 150.5t53.5 113t72.5 85t79.5 76.5t73 77.5t53.5 98.5t20.5 130q0 147 -81.5 237.5 t-232.5 90.5q-64 0 -118.5 -9t-77.5 -17zM184 68q0 13 9 22.5t20 9.5t19 -9.5t8 -22.5t-8 -22t-19 -9t-20 9t-9 22z" />
<glyph unicode="@" horiz-adv-x="1601" d="M168 391q0 207 54 373.5t148.5 274.5t221 165.5t274.5 57.5q126 0 234 -52t185 -145.5t121 -230t44 -299.5q0 -128 -19 -227.5t-49 -159t-70.5 -98t-79 -52.5t-79.5 -14q-57 0 -77.5 44t-20.5 140v4q-11 -17 -33 -42t-60.5 -61t-90 -60.5t-101.5 -24.5q-127 0 -222 113.5 t-95 301.5q0 193 103.5 312.5t266.5 119.5q60 0 122 -5t94 -10l32 -5v-645q0 -89 17 -127.5t67 -38.5q38 0 74 13.5t74 50t65.5 94t45.5 154t18 220.5q0 319 -159.5 515t-408.5 196q-143 0 -266 -55t-215 -159.5t-144.5 -268t-52.5 -367.5q0 -189 51 -341.5t137.5 -247.5 t196 -145t232.5 -50v-19q-127 0 -240.5 51.5t-202 149t-140.5 252.5t-52 348zM471 401q0 -179 91.5 -290t211.5 -111q41 0 85 19.5t77.5 47.5t61.5 56t42 47l15 20v607q-111 18 -232 18q-156 0 -254 -114.5t-98 -299.5z" />
<glyph unicode="A" horiz-adv-x="1155" d="M82 0l434 1313h-12l-90 -2v20h94q93 0 134.5 -36.5t68.5 -137.5l237 -926q57 -221 90 -221q23 0 50 8t43 16l16 7l4 -16q-68 -33 -125 -33q-42 0 -100 233l-49 191h-637l-136 -416h-22zM246 434h626l-184 719q-22 85 -54.5 119.5t-98.5 38.5z" />
<glyph unicode="B" horiz-adv-x="1048" d="M115 1311v18q205 17 377 17q166 0 259 -87.5t93 -218.5q0 -181 -142 -362q228 -74 228 -305q0 -171 -106 -280t-281 -109q-73 0 -146.5 4t-110.5 8l-38 4v1319zM270 18q156 -16 273 -16q162 0 263 103t101 268t-117.5 242t-347.5 77q-91 0 -172 -8v-666zM270 702 q88 9 168 9q146 0 248 -29q137 185 137 354q0 125 -86.5 208t-244.5 83q-18 0 -222 -6v-619z" />
<glyph unicode="C" horiz-adv-x="1130" d="M119 662q0 155 43.5 285t118 216.5t174.5 134.5t213 48q93 0 171 -11.5t110 -22.5l32 -12l-16 -364h-19q13 276 15 350q-126 41 -293 41q-108 0 -203.5 -46.5t-167 -130.5t-113 -210.5t-41.5 -277.5q0 -302 145 -480t367 -178q68 0 135 17.5t114 42.5t84.5 50t55.5 42 l19 18l8 -14q-7 -7 -19.5 -19t-55 -42.5t-88 -53.5t-116 -42t-141.5 -19q-112 0 -209 46.5t-169 132t-113 214.5t-41 285z" />
<glyph unicode="D" horiz-adv-x="1273" d="M115 1311v18q255 17 452 17q127 0 235.5 -47.5t187 -134.5t123 -216t44.5 -286q0 -313 -164.5 -495.5t-423.5 -182.5q-64 0 -144.5 4t-128.5 8l-48 4v1317zM270 20q196 -16 299 -16q249 0 405 176.5t156 481.5q0 203 -73.5 355t-200.5 231t-289 79q-117 0 -297 -8v-1299z " />
<glyph unicode="E" d="M121 1313v16q16 0 58.5 1t72.5 1h598v-18q-430 -2 -598 -2h-2v-29t-0.5 -74t-1 -113t-0.5 -164.5v-209.5h502v-16q-191 -5 -355 -5q-106 0 -147 2v-354q0 -187 68.5 -266.5t246.5 -79.5q68 0 155 21.5t140 42.5l53 22l4 -18q-22 -10 -58.5 -24t-131.5 -38t-170 -24 q-187 0 -258.5 83t-71.5 279v370.5t0.5 274t1 175.5t0.5 107.5v37.5z" />
<glyph unicode="F" horiz-adv-x="901" d="M137 1313v16q16 0 58.5 1t72.5 1h613v-18q-443 -2 -611 -2v-611h523v-18q-158 -2 -314 -2q-154 0 -209 2v-682h-22v1311z" />
<glyph unicode="G" horiz-adv-x="1196" d="M119 662q0 156 45.5 285.5t125 216t188 134.5t233.5 48q88 0 163 -11.5t106 -22.5l30 -12v-20q-12 5 -35.5 12.5t-101.5 20t-162 12.5q-120 0 -223.5 -46t-180 -130t-120.5 -209.5t-44 -277.5q0 -309 149.5 -484.5t405.5 -175.5q173 0 293 51v547q0 42 -1.5 80.5t-3.5 58 t-3 19.5l-121 2v18h135q13 0 13 -176v-561q-12 -6 -36 -15.5t-106 -25.5t-174 -16q-263 0 -419 180.5t-156 497.5z" />
<glyph unicode="H" horiz-adv-x="1308" d="M135 1313v18h123q12 0 12 -176v-512h744v688h24v-1114q0 -205 11 -205q16 0 44.5 7t48.5 15l21 7v-18q-88 -31 -131 -31q-18 0 -18 225v408l-744 -2v-623h-22v1153q0 42 -1.5 80.5t-3.5 58t-3 19.5z" />
<glyph unicode="I" horiz-adv-x="610" d="M162 1313v18h248v-16q-12 0 -41 -1t-45 -1v-1295h112v-16q-49 -2 -117 -2h-131v18h113v1295h-139z" />
<glyph unicode="J" horiz-adv-x="520" d="M16 -346q35 5 68.5 27.5t68 72.5t60 122t41.5 185.5t16 253.5v998h-139v18h248v-16q-12 0 -40.5 -1t-43.5 -1v-998q0 -144 -17.5 -260.5t-45 -190.5t-64.5 -125.5t-73.5 -75.5t-74.5 -30z" />
<glyph unicode="K" horiz-adv-x="1159" d="M135 1313v18h123q12 0 12 -176v-719l228 240l530 663l23 -4l-535 -667q202 -315 332 -485.5t166 -170.5q19 0 48 8t48 16l20 7l7 -18q-78 -33 -133 -33q-40 0 -170 169t-334 488l-230 -239v-410h-22v1153q0 42 -1.5 80.5t-3.5 58t-3 19.5z" />
<glyph unicode="L" horiz-adv-x="1011" d="M135 1313v18h123q12 0 12 -176v-1139q57 2 191 2h350q69 0 96 21.5t27 64.5l2 160h14q2 -145 2 -174q0 -44 -29.5 -67t-107.5 -23h-651v16h84v1137q0 42 -1.5 80.5t-3.5 58t-3 19.5z" />
<glyph unicode="M" horiz-adv-x="1564" d="M137 0l187 1313l-101 -2l2 20h117q14 0 50 -99t103.5 -327.5t113 -388t136.5 -485.5q67 202 184 527t201 549l84 224h23l96 -1116q17 -205 49 -205q31 0 64 9t50 19l17 9l5 -16q-68 -39 -152 -39q-38 0 -57 223l-90 1071q-323 -858 -465 -1286h-21q-83 293 -128 449.5 t-108.5 373t-101.5 331t-55 146.5l-180 -1300h-23z" />
<glyph unicode="N" horiz-adv-x="1306" d="M127 1311v20h131q22 0 73.5 -67.5t137 -207t168 -281t212.5 -364.5t226 -382v1302h21v-1331l-6 2l2 -2h-21q-120 197 -333 560.5t-319 532.5t-151 205v-1298h-20v1309z" />
<glyph unicode="O" horiz-adv-x="1292" d="M119 662q0 155 42 285t114 216.5t167.5 134.5t202.5 48q108 0 204 -47.5t168 -134t114.5 -216.5t42.5 -286t-42.5 -285t-114.5 -214.5t-168 -132t-204 -46.5q-107 0 -202.5 46.5t-167.5 132t-114 214.5t-42 285zM143 662q0 -151 40.5 -277t109.5 -209t160.5 -128.5 t193.5 -45.5t192.5 45.5t159.5 128.5t109.5 209t40.5 277t-40.5 278t-109.5 210.5t-160.5 130t-193.5 46.5q-101 0 -192 -46.5t-160 -130t-109.5 -210.5t-40.5 -278z" />
<glyph unicode="P" horiz-adv-x="948" d="M115 1311v18q186 17 346 17q176 0 280.5 -111.5t104.5 -278.5q0 -108 -32.5 -190.5t-80 -128.5t-113.5 -74.5t-121 -37.5t-114 -9q-55 0 -115 10v-526h-22v1319zM270 543q40 -8 113 -8q57 0 110 8.5t115.5 35.5t108 70.5t76 122t30.5 182.5q0 161 -98.5 267t-265.5 106 q-12 0 -189 -6v-778z" />
<glyph unicode="Q" horiz-adv-x="1298" d="M119 662q0 155 42 285t114 216.5t167.5 134.5t202.5 48q108 0 203.5 -47t167 -133t113.5 -215t42 -283q0 -145 -40.5 -267.5t-106.5 -203t-143 -130.5t-158 -67q140 -7 267.5 -48t269.5 -147l-11 -16q-88 64 -173.5 105.5t-166.5 60t-141 24t-137 5.5q-102 0 -194.5 47 t-163.5 131.5t-112.5 214.5t-41.5 285zM143 662q0 -151 40 -277t108 -209t156.5 -128.5t185.5 -45.5q67 0 137 26t137.5 80.5t121 131t86 187.5t32.5 239q0 151 -40.5 277t-109.5 209.5t-159.5 129t-192.5 45.5t-193 -46.5t-160 -130t-109 -210.5t-40 -278z" />
<glyph unicode="R" horiz-adv-x="1097" d="M115 1311v18q217 17 391 17q196 0 306 -108t110 -290q0 -266 -326 -401q21 -37 52.5 -93.5t51 -90.5t46 -81.5t44 -76.5t38.5 -63.5t34.5 -55t27.5 -39.5t24 -27t16 -8q27 0 55.5 8t43.5 16l15 7l7 -18q-61 -33 -129 -33q-16 0 -43 30.5t-76.5 113t-81 137t-106.5 189.5 l-42 75q-154 -57 -303 -70v-467h-22v1319zM270 485q14 1 37 4t65 11t86 19.5t96.5 31.5t100 44t92.5 59.5t77.5 77t52.5 96.5t20 118q0 169 -103.5 275t-289.5 106q-90 0 -234 -8v-834z" />
<glyph unicode="S" horiz-adv-x="1003" d="M119 90l8 21q5 -4 14.5 -11.5t43 -26.5t72 -33t101 -26t129.5 -12q174 0 274.5 99.5t100.5 244.5q0 131 -83 210.5t-263 109.5q-183 32 -267.5 116.5t-84.5 227.5q0 155 105 245.5t304 90.5q68 0 129 -10t88 -20l27 -11l-12 -281h-17l9 268q-109 35 -222 35 q-191 0 -289 -85t-98 -232q0 -136 79 -215t259 -109q184 -32 271.5 -117t87.5 -223q0 -155 -106 -258.5t-292 -103.5q-70 0 -133.5 11t-104.5 26.5t-72 31t-45 26.5z" />
<glyph unicode="T" horiz-adv-x="868" d="M-29 1313l2 18h920v-18q-293 -2 -457 -2v-1094q0 -205 10 -205q16 0 45 7t49 15l21 7v-18q-86 -31 -131 -31q-16 0 -16 225v1094z" />
<glyph unicode="U" horiz-adv-x="1308" d="M135 1313v18h123q12 0 12 -176v-764q0 -175 67.5 -280t211.5 -105q65 0 126 22.5t106 58t84.5 79t66 87t46 79t28.5 58.5l8 22v919h24v-1114q0 -205 11 -205q16 0 44.5 7t48.5 15l21 7v-18q-86 -31 -131 -31q-18 0 -18 225v162q-8 -20 -18 -42.5t-33.5 -63t-49.5 -76.5 t-66.5 -76.5t-84 -69.5t-101.5 -48t-120 -19q-79 0 -137 30.5t-91.5 86.5t-49 127.5t-15.5 160.5v764q0 42 -1.5 80.5t-3.5 58t-3 19.5z" />
<glyph unicode="V" horiz-adv-x="1095" d="M-10 1331h80q32 0 79 -83t96.5 -220.5t96.5 -284t92 -307t70 -254.5t41 -159q115 217 269.5 633t209.5 675h25q-56 -261 -218.5 -690t-277.5 -641h-23l-93 344q-240 856 -354 957q-14 12 -26 12l-65 -2z" />
<glyph unicode="W" horiz-adv-x="1732" d="M-10 1331h80q126 0 440 -1306q86 208 220.5 688t156.5 620l18 -2l326 -1306q98 221 255.5 699.5t176.5 606.5h25q-21 -130 -187 -625.5t-262 -705.5h-22l-320 1286q-43 -210 -171 -655.5t-208 -630.5h-22l-89 357q-229 871 -333 949q-9 7 -17 7l-65 -2z" />
<glyph unicode="X" horiz-adv-x="1134" d="M68 1313v18h106q26 0 86.5 -84.5t134 -216t114.5 -207.5t73 -139l465 647h28l-479 -663q40 -70 108 -192.5t105 -187t82 -139t73 -107t44 -32.5q15 0 37.5 5t37.5 11l15 5l4 -17q-58 -22 -105 -22q-20 0 -49.5 33t-73 105t-82 139.5t-103.5 186t-109 195.5l-469 -651h-29 l483 668q-35 66 -71 133t-113 204.5t-136 222.5t-81 85h-96z" />
<glyph unicode="Y" horiz-adv-x="1013" d="M-10 1331h92q116 0 461 -1120q301 471 403 1120h21q-100 -652 -412 -1136q-99 -152 -231 -238t-230 -86l-4 20q92 0 216 81.5t218 222.5q-11 40 -59.5 191.5t-124 373.5t-152.5 387.5t-118 165.5l-78 -2z" />
<glyph unicode="Z" horiz-adv-x="1073" d="M106 0v16l820 1297h-680q-68 0 -95.5 -21.5t-27.5 -64.5v-164l-17 2v174q0 45 29.5 68.5t106.5 23.5h712v-16l-819 -1299q14 0 111 1t157 1h422q71 0 98 21.5t29 64.5v162l15 -2q2 -145 2 -174q0 -44 -30 -67t-108 -23h-725z" />
<glyph unicode="[" horiz-adv-x="565" d="M182 -127v1542h355l-2 -18h-332v-1503l334 -3l-2 -18h-353z" />
<glyph unicode="\" horiz-adv-x="753" d="M-33 1536h23l766 -2048h-23z" />
<glyph unicode="]" horiz-adv-x="565" d="M29 -109q167 3 333 3v1503h-333v18h354v-1542h-354v18z" />
<glyph unicode="^" horiz-adv-x="626" d="M76 1063l237 287l240 -287l-10 -10l-230 272l-227 -272z" />
<glyph unicode="_" horiz-adv-x="1136" d="M76 -174h985v-19h-985v19z" />
<glyph unicode="`" horiz-adv-x="344" d="M74 1487l14 10q9 -45 80.5 -171.5t99.5 -151.5l-10 -13q-28 24 -101 152t-83 174z" />
<glyph unicode="a" horiz-adv-x="976" d="M104 272q0 144 94 228t240 84q141 0 275 -29v195q0 137 -55 205.5t-191 68.5q-60 0 -122 -8t-94 -16l-32 -9l2 19q107 32 248 32q147 0 206.5 -73.5t59.5 -218.5q0 -136 -1 -303t-1 -295q0 -81 9 -112.5t28 -31.5q8 0 29.5 5t38.5 11l18 5v-15q-69 -22 -98 -22 q-24 0 -34.5 33.5t-10.5 124.5v71q-5 -10 -14.5 -26t-42.5 -56.5t-69 -72t-93 -57t-117 -25.5q-114 0 -193.5 75t-79.5 213zM125 276q0 -131 75.5 -202.5t184.5 -71.5q54 0 107 24t90.5 57t68 69.5t45 61t17.5 32.5v295q-152 26 -273 26q-139 0 -227 -78t-88 -213z" />
<glyph unicode="b" horiz-adv-x="1015" d="M111 1520l2 16q77 8 104 8q14 0 14 -117v-598q5 9 15 23t43.5 51t69 65t90.5 51t110 23q154 0 254 -137.5t100 -376.5q0 -246 -120 -395t-324 -149q-48 0 -92 7t-73.5 16.5t-51.5 19.5t-32 17l-11 7v1374q0 101 -8 101h-8zM231 59q102 -59 240 -59q192 0 305 144t113 382 q0 230 -95 363t-241 133q-60 0 -119.5 -28t-102.5 -69.5t-65.5 -68.5t-34.5 -45v-752z" />
<glyph unicode="c" horiz-adv-x="860" d="M102 498q0 243 124 393.5t321 150.5q47 0 99.5 -9.5t81.5 -18.5l28 -10l-2 -19q-103 39 -205 39q-190 0 -306 -144t-116 -378q0 -113 32 -208.5t85 -158.5t122 -98t144 -35q53 0 102 10.5t81.5 25t57.5 29t37 25.5l11 10l8 -14q-4 -4 -12 -11t-36 -25t-60 -32t-83.5 -25 t-107.5 -11q-80 0 -153 35.5t-129.5 100t-90 163t-33.5 215.5z" />
<glyph unicode="d" horiz-adv-x="1034" d="M102 477q0 246 126 405.5t329 159.5q133 0 229 -55v549h23q0 -232 -1 -693t-1 -691q0 -80 8.5 -112t26.5 -32q8 0 29.5 5t38.5 11l18 5v-15q-68 -22 -97 -22q-25 0 -36 34t-11 124v40q-5 -8 -15 -22t-43 -49.5t-69 -62.5t-90.5 -49.5t-109.5 -22.5q-156 0 -255.5 128 t-99.5 365zM127 479q0 -227 94.5 -351t241.5 -124q166 0 321 207q0 504 2 756q-98 57 -231 57q-127 0 -225 -70.5t-150.5 -194t-52.5 -280.5z" />
<glyph unicode="e" horiz-adv-x="901" d="M102 487q0 122 35.5 227t94.5 176t135.5 111.5t158.5 40.5q122 0 200.5 -71t78.5 -191q0 -154 -129.5 -233.5t-382.5 -79.5q-70 0 -166 12q0 -210 113.5 -343.5t271.5 -133.5q46 0 90 9t74 21.5t53.5 25t34.5 21.5l12 9l8 -16q-4 -4 -12 -9.5t-35 -21t-57 -27t-76.5 -21 t-95.5 -9.5q-81 0 -155 36t-129.5 100.5t-88.5 160t-33 206.5zM127 496q91 -13 162 -13q246 0 370.5 75t124.5 220q0 114 -72.5 181t-187.5 67q-77 0 -149 -39t-126.5 -107t-87.5 -168t-34 -216z" />
<glyph unicode="f" horiz-adv-x="686" d="M59 1008v16h203v225q0 155 44.5 225t154.5 70q54 0 103 -6t71 -12l22 -6v-19q-75 25 -192 25q-101 0 -140.5 -65t-39.5 -210v-227h372v-16q-155 -2 -315 -2h-57v-1006h-23v1006z" />
<glyph unicode="g" horiz-adv-x="854" d="M82 -164q0 78 21 146t54 111.5t55 65.5t42 36q-27 30 -27 71q0 75 52 121q-68 37 -106 114.5t-38 186.5q0 164 108.5 259t307.5 95q88 0 144 5t69 9l12 5q0 -1 2 -7t2 -10q-24 -16 -174 -18q16 -12 31.5 -30t36 -53t33 -93.5t12.5 -130.5q0 -164 -81.5 -263.5 t-221.5 -99.5q-65 0 -123 25q-47 -40 -47 -107q0 -38 24.5 -65.5t64 -42t90.5 -29.5t103.5 -27t103.5 -35.5t90.5 -54.5t64 -85t24.5 -125q0 -161 -107 -250.5t-272 -89.5t-257.5 98.5t-92.5 267.5zM100 -162q0 -161 89 -254.5t245 -93.5q154 0 254 82t100 235 q0 65 -22 114.5t-59.5 80t-83 52.5t-98 36t-99.5 26t-91 28.5t-69 37.5q-12 -8 -23.5 -18t-40 -42t-49 -68t-37 -94t-16.5 -122zM156 690q0 -151 71 -234t189 -83q130 0 206 93.5t76 252.5q0 73 -13 132.5t-34 95t-35 52t-28 27.5h-35q-191 0 -294 -90.5t-103 -245.5z" />
<glyph unicode="h" horiz-adv-x="1079" d="M111 1520l2 16q77 8 104 8q14 0 14 -117v-690q9 20 24 48t50 76t74 86t96.5 66.5t116.5 28.5q127 0 186.5 -94t59.5 -260v-536q0 -81 8 -112.5t26 -31.5q8 0 29.5 5t38.5 11l18 5v-15q-67 -22 -96 -22q-25 0 -36 34t-11 124v538q0 156 -56 245t-173 89q-44 0 -87.5 -17 t-78 -44t-65.5 -59.5t-53 -65.5t-38.5 -60t-24.5 -44l-8 -17v-715h-22v1425q0 101 -8 101h-8z" />
<glyph unicode="i" horiz-adv-x="501" d="M133 1008v16q80 8 107 8q14 0 14 -117q0 -128 -1 -381.5t-1 -381.5q0 -81 9 -112.5t28 -31.5q8 0 29.5 5t39.5 11l17 5v-15q-69 -22 -96 -22q-26 0 -37 33.5t-11 124.5v763q0 101 -8 101h-8zM219 1323q0 13 8 23t19 10q12 0 20 -9.5t8 -23.5t-8 -24.5t-20 -10.5 q-10 0 -18.5 10.5t-8.5 24.5z" />
<glyph unicode="j" horiz-adv-x="464" d="M-8 -512q43 7 85.5 40t82 92t64 158t24.5 222v913q0 26 -1.5 50.5t-3.5 37.5t-3 13h-9l-81 -6v16q79 8 106 8q14 0 14 -117q0 -152 -1 -456.5t-1 -456.5q0 -131 -26 -234.5t-68 -164t-86.5 -93.5t-89.5 -40zM238 1323q0 13 7.5 23t18.5 10q12 0 20.5 -9.5t8.5 -23.5 t-8.5 -24.5t-20.5 -10.5q-10 0 -18 10.5t-8 24.5z" />
<glyph unicode="k" horiz-adv-x="921" d="M111 1520l2 16q77 8 104 8q14 0 14 -117v-976l580 573h31l-443 -430q133 -224 260 -405t162 -181q11 0 26.5 4t25.5 8l10 5v-15q-39 -18 -72 -18q-37 0 -161.5 176.5t-266.5 409.5l-152 -148v-430h-22v1425q0 101 -8 101h-8z" />
<glyph unicode="l" horiz-adv-x="456" d="M113 1520v16q77 8 104 8q14 0 14 -117v-1275q0 -80 8.5 -112t26.5 -32q8 0 29.5 5t38.5 11l18 5v-15q-67 -22 -96 -22q-25 0 -36 34t-11 124q0 112 1 638t1 637q0 101 -10 101h-8z" />
<glyph unicode="m" horiz-adv-x="1509" d="M133 1008v16q80 8 107 8q14 0 14 -117v-145q6 20 17 45.5t36.5 68t56 75.5t76.5 58t97 25q101 0 161 -71t64 -201q7 20 17.5 45.5t35.5 68.5t54.5 75.5t75.5 57.5t97 25q107 0 166.5 -75t59.5 -213v-604q0 -79 8.5 -110.5t26.5 -31.5q8 0 29.5 5t39.5 11l17 5v-15 q-68 -22 -97 -22q-26 0 -36.5 33.5t-10.5 124.5v602q0 129 -56 199.5t-153 70.5q-43 0 -83 -19.5t-68.5 -51t-51.5 -64.5t-39 -67.5t-23 -52.5t-9 -26q0 -123 -1 -370.5t-1 -370.5h-23v752q0 129 -56 199.5t-151 70.5q-53 0 -100.5 -29t-78 -70t-54 -82.5t-33.5 -70.5 l-10 -29q0 -124 -1 -371t-1 -370h-21v913q0 101 -8 101h-8z" />
<glyph unicode="n" horiz-adv-x="1101" d="M133 1008v16q80 8 107 8q14 0 14 -117v-176q9 20 24 48t49.5 75.5t73.5 85t96.5 66t116.5 28.5q127 0 186.5 -94t59.5 -260v-536q0 -82 8 -113t27 -31q8 0 29.5 5t39.5 11l17 5v-15q-67 -22 -96 -22q-25 0 -36 34t-11 124v538q0 156 -56.5 245t-173.5 89 q-57 0 -112.5 -28t-94 -66t-73 -85t-50.5 -76t-24 -48q-2 -240 -2 -719h-21v913q0 101 -8 101h-8z" />
<glyph unicode="o" horiz-adv-x="1009" d="M102 512q0 239 116 384.5t288 145.5q171 0 286 -145t115 -385t-115 -384t-286 -144q-173 0 -288.5 143.5t-115.5 384.5zM127 512q0 -231 108.5 -370.5t270.5 -139.5t270.5 139.5t108.5 370.5t-108.5 371.5t-270.5 140.5t-270.5 -140.5t-108.5 -371.5z" />
<glyph unicode="p" horiz-adv-x="1032" d="M125 1008l2 16q81 8 106 8q13 0 13 -110v-88q5 8 15 22.5t43.5 50t69 63t90.5 50t111 22.5q153 0 253 -137.5t100 -376.5q0 -246 -119.5 -395t-323.5 -149q-141 0 -239 45v-541h-23v1425v35q0 49 -3.5 58.5t-20.5 9.5zM246 51q99 -51 241 -51q192 0 305 144t113 382 q0 230 -95.5 363t-242.5 133q-52 0 -104 -21.5t-89 -52t-67.5 -61.5t-45.5 -53l-15 -21v-762z" />
<glyph unicode="q" horiz-adv-x="1003" d="M102 477q0 246 126 405.5t329 159.5q74 0 136.5 -17t88.5 -33l25 -17v-1346q0 -79 8.5 -110t26.5 -31q8 0 29.5 5t38.5 10l18 5v-16q-70 -22 -97 -22q-26 0 -36.5 33.5t-10.5 123.5v563h-2q-5 -8 -15 -22t-42.5 -49.5t-68 -62.5t-90 -49.5t-109.5 -22.5 q-156 0 -255.5 128t-99.5 365zM127 479q0 -227 94.5 -351t241.5 -124q52 0 104 21.5t89 52t67.5 61.5t45.5 53l15 21v754q-98 57 -229 57q-127 0 -225 -70.5t-150.5 -194t-52.5 -280.5z" />
<glyph unicode="r" horiz-adv-x="675" d="M133 1008v16q82 8 107 8q12 0 12 -114v-222q9 40 25.5 84.5t44.5 93t62.5 86.5t82 62.5t98.5 24.5q17 0 33.5 -5.5t24.5 -11.5l8 -6v-25q-33 25 -70 25q-63 0 -119 -39.5t-93.5 -100t-61 -118.5t-33.5 -107q0 -87 -1 -333t-1 -326h-21v913q0 81 -8 101z" />
<glyph unicode="s" horiz-adv-x="843" d="M104 68l7 16q4 -3 11.5 -9t34.5 -20.5t58.5 -25.5t84 -20t110.5 -9q152 0 229.5 73t77.5 177q0 68 -31.5 117t-81.5 77t-110 50t-120.5 44.5t-110.5 51.5t-81.5 80t-31.5 121q0 120 78.5 185.5t240.5 65.5q50 0 103.5 -9.5t81.5 -18.5l28 -10l-2 -19q-100 41 -209 41 q-153 0 -226 -61.5t-73 -173.5q0 -95 69 -157t214 -106q153 -48 218.5 -110t65.5 -166q0 -112 -83 -190t-244 -78q-61 0 -115.5 8.5t-88 21t-58.5 25t-36 21.5z" />
<glyph unicode="t" horiz-adv-x="651" d="M37 1006l2 18h203v315l20 7v-322h379v-16q-217 -2 -379 -2v-764q0 -122 30.5 -181t100.5 -59q60 0 122 22.5t94 45.5l32 22v-18q-4 -4 -12.5 -10t-34.5 -21.5t-54 -27.5t-69 -21.5t-82 -9.5q-78 0 -113.5 63t-35.5 193q0 510 2 766h-205z" />
<glyph unicode="u" horiz-adv-x="1101" d="M127 1008v16q79 8 106 8q15 0 15 -112q0 -106 -1 -315.5t-1 -315.5q0 -131 61 -208t170 -77q61 0 119.5 32.5t99 78.5t72.5 92.5t48 78.5l15 33v705h23q-2 -291 -2 -872q0 -81 9 -112.5t28 -31.5q8 0 29.5 5t39.5 11l17 5v-15q-69 -22 -96 -22q-26 0 -37 33.5t-11 124.5 v145q-9 -21 -24 -49t-50 -77.5t-74 -88t-96 -67.5t-116 -29q-119 0 -183.5 81t-64.5 222q0 103 1 312t1 314q0 101 -8 101z" />
<glyph unicode="v" horiz-adv-x="880" d="M4 1008v16q47 8 88 8q37 0 89 -119.5t105.5 -309.5t86.5 -321t61 -255q111 206 239.5 535.5t139.5 461.5h23q-13 -134 -146.5 -470.5t-249.5 -553.5h-20l-70 293q-175 692 -263 722q-4 1 -7 1q-15 0 -34 -2t-30 -4z" />
<glyph unicode="w" horiz-adv-x="1400" d="M4 1008v16q47 8 88 8q39 0 91.5 -132t99 -321.5t77.5 -330t46 -225.5q93 179 211.5 528.5t130.5 472.5h16v-2l2 2q29 -166 215 -999q96 173 214.5 518t137.5 481h23q-20 -138 -144.5 -493.5t-222.5 -530.5l-20 -2v2q-176 772 -211 985q-31 -162 -145 -492t-201 -493h-19 l-63 295q-158 694 -244 720q-3 1 -6 1q-15 0 -34 -2t-30 -4z" />
<glyph unicode="x" horiz-adv-x="913" d="M45 0l399 516q-186 327 -242 408q-63 92 -91 92l-54 -6v14q39 8 66 8q34 0 97 -96t185 -311q36 -63 54 -95l383 494h22l-391 -504q149 -263 227.5 -387.5t106.5 -124.5q9 0 24 5t26 9l11 5v-17q-40 -18 -71 -18q-32 0 -112 125.5t-228 388.5l-385 -506h-27z" />
<glyph unicode="y" horiz-adv-x="872" d="M4 1008v16q47 8 88 8q37 0 96 -124t117.5 -302t103 -330t68.5 -251q95 196 201.5 519t124.5 480h22q-18 -160 -128.5 -488t-213.5 -536q-44 -90 -97.5 -177t-97.5 -146t-82 -105.5t-60 -69.5l-21 -22l-19 10q8 8 22.5 23t57.5 66t84.5 106.5t95 142t97.5 174.5l-83 292 q-204 690 -293 721q-4 1 -7 1q-15 0 -34 -2t-30 -4z" />
<glyph unicode="z" horiz-adv-x="886" d="M119 0v16l594 992q-30 0 -232 -1t-223 -1q-65 0 -81.5 -18.5t-16.5 -67.5v-136h-15v148q0 51 19 71.5t88 20.5h489v-16l-602 -992q22 0 148 0.5t244 1.5h118q64 0 83.5 20.5t19.5 65.5v129h16v-145q0 -23 -3 -36t-13.5 -26.5t-33.5 -19.5t-61 -6h-538z" />
<glyph unicode="{" horiz-adv-x="686" d="M152 569v19q69 0 133.5 72t64.5 171v412q0 131 58 198.5t204 67.5v-16q-136 0 -188.5 -63.5t-52.5 -184.5v-414q0 -88 -52.5 -159t-121.5 -94q69 -21 121 -91t53 -159v-398q0 -120 53.5 -182.5t187.5 -62.5v-19q-146 0 -204 68t-58 198v394q0 98 -64.5 170.5t-133.5 72.5 z" />
<glyph unicode="|" horiz-adv-x="481" d="M229 -512v2048h23v-2048h-23z" />
<glyph unicode="}" horiz-adv-x="686" d="M74 -317q136 0 188.5 63t52.5 184v414q0 88 52.5 159.5t121.5 94.5q-69 21 -121 91t-53 159v397q0 120 -53.5 183t-187.5 63v18q146 0 204 -68t58 -198v-393q0 -98 65 -171t134 -73v-18q-69 0 -134 -72.5t-65 -171.5v-412q0 -131 -58 -198.5t-204 -67.5v17z" />
<glyph unicode="~" horiz-adv-x="1097" d="M76 692q3 7 10 19t31 42t52 52.5t73.5 41.5t95.5 19q49 0 89.5 -16.5t69 -42.5t54 -57.5t50 -63.5t51 -58t63.5 -42.5t82 -16.5q43 0 81.5 12.5t62 30.5t41 35.5t24.5 30.5l8 12l8 -12q-3 -5 -8.5 -14t-26 -31.5t-45 -40t-65.5 -31.5t-86 -14q-53 0 -97 22t-71.5 54.5 t-58.5 71t-59 71t-72.5 54.5t-98.5 22q-48 0 -92 -16.5t-71.5 -40.5t-48.5 -48t-30 -41l-10 -16z" />
<glyph unicode="&#xa2;" horiz-adv-x="876" d="M131 629q0 221 104.5 367t276.5 171v267h23l-3 -263q7 0 21.5 1.5t21.5 1.5q47 0 99.5 -10t81.5 -20l28 -9l-2 -19q-102 39 -204 39q-190 0 -306 -144t-116 -378q0 -113 32 -208.5t85 -158.5t122 -98t144 -35q53 0 102 10.5t81 25t57 29t37 24.5l11 11l9 -14 q-4 -4 -12 -11t-36 -25t-60 -32t-83.5 -25t-107.5 -11h-5l3 -217h-23v217q-158 11 -269.5 151t-111.5 363z" />
<glyph unicode="&#xa3;" horiz-adv-x="1107" d="M104 655v19h193q-14 172 -14 323q0 161 95 255t292 94q74 0 138 -11.5t91 -22.5l27 -12v-18q-10 5 -30 12.5t-86 20t-138 12.5q-187 0 -277 -88.5t-90 -241.5q0 -148 14 -323h453v-19h-450q6 -72 21.5 -205t23.5 -234.5t8 -197.5h461q82 0 116.5 22t34.5 64v160l17 2 v-176q0 -43 -36.5 -66.5t-127.5 -23.5h-695v16q105 0 209 2q-1 96 -9.5 198t-23.5 232.5t-22 206.5h-195z" />
<glyph unicode="&#xa5;" horiz-adv-x="972" d="M70 1333q59 4 88 4q41 0 89.5 -63.5t87.5 -150.5t78 -196.5t60 -181t35 -124.5q20 36 63 112t66.5 118t60 108.5t59 110.5t47.5 95.5t41 91.5t25 72h23q-13 -45 -38.5 -103t-74 -149t-74 -137.5t-98 -173.5t-86.5 -152h316l-2 -16h-320v-262h322l-2 -19h-320v-317h-22 v317h-326v19h326v262h-326v16h324q-211 707 -342 707l-76 -4z" />
<glyph unicode="&#xa8;" horiz-adv-x="653" d="M145 1323q0 14 8.5 23.5t20.5 9.5q11 0 19 -10t8 -23q0 -14 -8.5 -24.5t-18.5 -10.5q-12 0 -20.5 10.5t-8.5 24.5zM383 1323q0 13 9 23t20 10t19.5 -10t8.5 -23t-8.5 -24t-19.5 -11t-20 11t-9 24z" />
<glyph unicode="&#xa9;" horiz-adv-x="1456" d="M178 662q0 155 44 288t118.5 223.5t175.5 141.5t213 51t212 -50.5t174.5 -141t118.5 -223.5t44 -289t-44 -288.5t-118.5 -221.5t-175 -139t-213.5 -50q-112 0 -212.5 50t-175 139t-118 221.5t-43.5 288.5zM197 662q0 -152 42.5 -281.5t114.5 -217.5t169 -137t206 -49 t206 49t169.5 136.5t115 217t42.5 282.5q0 152 -42.5 282t-115.5 218.5t-170.5 138t-206.5 49.5t-205.5 -49.5t-168.5 -138t-114 -218.5t-42 -282zM444 639q0 171 89.5 275t230.5 104q30 0 67.5 -4t59.5 -8l22 -5v-16q-77 16 -147 16q-137 0 -221 -99t-84 -263 q0 -158 80 -254t188 -96q61 0 116.5 23.5t80.5 47.5l26 23l6 -10q-4 -4 -10.5 -11t-29.5 -25t-48.5 -31.5t-64.5 -24.5t-80 -11q-113 0 -197 101.5t-84 267.5z" />
<glyph unicode="&#xab;" horiz-adv-x="862" d="M174 512l270 317l13 -12l-260 -305l260 -315l-13 -15zM453 512l270 317l12 -12l-260 -305l260 -315l-12 -15z" />
<glyph unicode="&#xad;" horiz-adv-x="514" d="M76 627v18h362v-18h-362z" />
<glyph unicode="&#xae;" horiz-adv-x="1130" d="M121 983q0 253 127.5 411t316.5 158q91 0 172.5 -41t141.5 -113.5t95.5 -180t35.5 -234.5q0 -167 -60.5 -297t-161.5 -199t-223 -69q-190 0 -317 156t-127 409zM137 983q0 -247 123 -398t305 -151t305 150.5t123 396.5q0 248 -123.5 401.5t-306.5 153.5 q-179 0 -302.5 -153.5t-123.5 -399.5zM434 653v660q31 2 133 2q97 0 152 -57.5t55 -147.5q0 -132 -158 -201l144 -258h-19l-137 254q-36 -15 -74.5 -24.5t-59.5 -12.5l-21 -2v-213h-15zM449 881q6 0 17.5 1.5t43.5 8t61 15.5t65 27t61.5 40.5t43 57.5t17.5 77 q0 84 -50.5 137t-140.5 53h-118v-417z" />
<glyph unicode="&#xb4;" horiz-adv-x="344" d="M74 1174q28 23 100.5 150.5t81.5 172.5l12 -8q-9 -48 -83 -176.5t-103 -149.5z" />
<glyph unicode="&#xb8;" horiz-adv-x="438" d="M74 -428l12 10q2 -3 6.5 -8.5t19.5 -20t32 -25t44 -19.5t56 -9q87 0 135.5 46t48.5 126q0 42 -22 72t-53 46.5t-62.5 31.5t-53.5 36.5t-22 51.5q0 16 6.5 36t13.5 32l7 12h12q-21 -43 -21 -76q0 -27 22 -47t53.5 -34.5t62.5 -32.5t53 -50t22 -76q0 -88 -53 -138t-145 -50 q-33 0 -63.5 9t-49.5 21.5t-33.5 25t-21.5 21.5z" />
<glyph unicode="&#xbb;" horiz-adv-x="862" d="M129 195l258 305l-258 315l12 14l269 -329l-269 -318zM408 195l258 305l-258 315l12 14l268 -329l-268 -318z" />
<glyph unicode="&#x2c6;" horiz-adv-x="626" d="M76 1282l237 234l240 -232l-10 -14l-232 221l-227 -221z" />
<glyph unicode="&#x2da;" horiz-adv-x="796" d="M166 1395q0 82 42 134t103 52t102.5 -52t41.5 -134q0 -83 -41.5 -134t-102.5 -51q-62 0 -103.5 51t-41.5 134zM178 1395q0 -75 39 -122.5t94 -47.5t93 47.5t38 122.5q0 76 -38.5 124t-92.5 48q-56 0 -94.5 -48t-38.5 -124z" />
<glyph unicode="&#x2dc;" horiz-adv-x="724" d="M74 1339q2 4 6 11t19.5 24.5t34 30.5t49.5 24t67 11q38 0 72 -18.5t56 -40t54.5 -40t67.5 -18.5q44 0 79.5 16.5t49.5 32.5l14 17l8 -11q-2 -3 -6 -8t-17.5 -17.5t-29.5 -22t-43 -17.5t-57 -8q-36 0 -70 18t-56 40t-55.5 40t-68.5 18q-34 0 -63.5 -9.5t-47 -23.5 t-30.5 -28t-18 -24l-5 -9z" />
<glyph unicode="&#x400;" d="M121 1313v16q16 0 58.5 1t72.5 1h598v-18q-430 -2 -598 -2h-2v-29t-0.5 -74t-1 -113t-0.5 -164.5v-209.5h502v-16q-191 -5 -355 -5q-106 0 -147 2v-354q0 -187 68.5 -266.5t246.5 -79.5q68 0 155 21.5t140 42.5l53 22l4 -18q-22 -10 -58.5 -24t-131.5 -38t-170 -24 q-187 0 -258.5 83t-71.5 279v370.5t0.5 274t1 175.5t0.5 107.5v37.5zM381 1794l14 10q9 -45 80.5 -171.5t99.5 -151.5l-10 -13q-28 24 -101 152t-83 174z" />
<glyph unicode="&#x401;" d="M121 1313v16q16 0 58.5 1t72.5 1h598v-18q-430 -2 -598 -2h-2v-29t-0.5 -74t-1 -113t-0.5 -164.5v-209.5h502v-16q-191 -5 -355 -5q-106 0 -147 2v-354q0 -187 68.5 -266.5t246.5 -79.5q68 0 155 21.5t140 42.5l53 22l4 -18q-22 -10 -58.5 -24t-131.5 -38t-170 -24 q-187 0 -258.5 83t-71.5 279v370.5t0.5 274t1 175.5t0.5 107.5v37.5zM322 1630q0 14 8 23.5t20 9.5q11 0 19 -10t8 -23q0 -14 -8.5 -24.5t-18.5 -10.5q-12 0 -20 10.5t-8 24.5zM559 1630q0 13 9 23t20 10t19.5 -10t8.5 -23t-8.5 -24t-19.5 -11t-20 11t-9 24z" />
<glyph unicode="&#x402;" horiz-adv-x="1323" d="M-29 1313l2 18h992v-18q-361 -2 -525 -2v-760q6 10 18 27t51 60t81 76t105 60t126 27q157 0 224 -79.5t67 -250.5v-463q0 -106 -18 -195.5t-46.5 -148.5t-66 -102.5t-74.5 -64.5t-73 -27l-3 22q42 6 85 39t82.5 92t64 159t24.5 224v461q0 164 -62.5 238.5t-209.5 74.5 q-61 0 -122 -25.5t-104.5 -62t-78.5 -73t-52 -61.5l-18 -26v-532h-22v1311z" />
<glyph unicode="&#x403;" horiz-adv-x="841" d="M137 1311v18q88 2 131 2h420q69 0 97 -20t28 -66l-4 -227l-14 2v211q0 43 -25.5 61.5t-85.5 18.5h-414v-1311h-22v1311h-111zM381 1450q28 23 100.5 151t81.5 173l12 -9q-9 -48 -83 -176t-103 -149z" />
<glyph unicode="&#x404;" horiz-adv-x="1103" d="M119 662q0 155 43.5 285t118 216.5t173.5 134.5t210 48q92 0 170 -13.5t110 -26.5l33 -14l-2 -20q-13 6 -37 15t-105.5 24.5t-170.5 15.5q-106 0 -200 -45.5t-165 -129t-113 -209.5t-43 -277h762v-19q-266 -2 -491 -2q-216 0 -271 2q3 -299 147 -471t365 -172 q68 0 135 17.5t114 42.5t84.5 50t55.5 42l19 18l6 -16q-7 -7 -19.5 -19t-54.5 -42t-87.5 -52.5t-115.5 -41.5t-141 -19q-112 0 -209 46.5t-168 132t-112 214.5t-41 285z" />
<glyph unicode="&#x405;" horiz-adv-x="1003" d="M119 90l8 21q5 -4 14.5 -11.5t43 -26.5t72 -33t101 -26t129.5 -12q174 0 274.5 99.5t100.5 244.5q0 131 -83 210.5t-263 109.5q-183 32 -267.5 116.5t-84.5 227.5q0 155 105 245.5t304 90.5q68 0 129 -10t88 -20l27 -11l-12 -281h-17l9 268q-109 35 -222 35 q-191 0 -289 -85t-98 -232q0 -136 79 -215t259 -109q184 -32 271.5 -117t87.5 -223q0 -155 -106 -258.5t-292 -103.5q-70 0 -133.5 11t-104.5 26.5t-72 31t-45 26.5z" />
<glyph unicode="&#x406;" horiz-adv-x="610" d="M162 1313v18h248v-16q-12 0 -41 -1t-45 -1v-1295h112v-16q-49 -2 -117 -2h-131v18h113v1295h-139z" />
<glyph unicode="&#x407;" horiz-adv-x="610" d="M162 1313v18h248v-16q-12 0 -41 -1t-45 -1v-1295h112v-16q-49 -2 -117 -2h-131v18h113v1295h-139zM172 1599q0 14 8.5 23.5t20.5 9.5q11 0 18.5 -10t7.5 -23q0 -14 -8 -24t-18 -10q-12 0 -20.5 10t-8.5 24zM410 1599q0 13 8.5 23t19.5 10t20 -10t9 -23t-9 -23.5 t-20 -10.5t-19.5 10.5t-8.5 23.5z" />
<glyph unicode="&#x408;" horiz-adv-x="520" d="M16 -346q35 5 68.5 27.5t68 72.5t60 122t41.5 185.5t16 253.5v998h-139v18h248v-16q-12 0 -40.5 -1t-43.5 -1v-998q0 -144 -17.5 -260.5t-45 -190.5t-64.5 -125.5t-73.5 -75.5t-74.5 -30z" />
<glyph unicode="&#x409;" horiz-adv-x="1693" d="M92 -10q144 266 254 649.5t123 671.5h-121l2 20h164q191 0 275.5 -18.5t87.5 -69.5l38 -596q174 121 308 121q52 0 102 -12.5t95.5 -39.5t79.5 -67t54.5 -99t20.5 -130q0 -192 -100.5 -314t-284.5 -122q-51 0 -94 23.5t-71 61.5t-50 83.5t-34 91t-19.5 83.5t-9.5 61 l-3 24l-57 819q-3 47 -81.5 63.5t-260.5 16.5h-21q-15 -295 -124 -682t-252 -647zM918 629l14 -217q1 -9 2.5 -23.5t9.5 -57t19 -81.5t31.5 -86t46.5 -81t65.5 -57.5t85.5 -23.5q170 0 265 116t95 300q0 83 -29 148.5t-77.5 104.5t-106.5 59t-120 20q-138 0 -301 -121z" />
<glyph unicode="&#x40a;" horiz-adv-x="1816" d="M135 1313v18h123q12 0 12 -176v-512h746v688h22v-684q6 5 17.5 13t46.5 29t70 37t83.5 29t92.5 13q52 0 102 -12.5t95.5 -39.5t79.5 -67t54.5 -99t20.5 -130q0 -193 -100 -314.5t-283 -121.5q-60 0 -109 26t-79.5 67.5t-53.5 92t-33.5 100.5t-17 91.5t-7.5 67.5l-1 26 v170l-746 -2v-623h-22v1153q0 42 -1.5 80.5t-3.5 58t-3 19.5zM1038 449q0 -14 1.5 -38t8.5 -68t18.5 -87.5t33 -90.5t49.5 -82t71.5 -58t96.5 -23q170 0 265 116t95 300q0 83 -29.5 148.5t-78 104.5t-106.5 59t-120 20q-42 0 -89 -12.5t-83.5 -30t-67.5 -35.5t-48 -30 l-17 -13v-180z" />
<glyph unicode="&#x40b;" horiz-adv-x="1368" d="M-29 1313l2 18h992v-18q-361 -2 -525 -2v-760q6 10 18 27t51 60t81 76t105 60t126 27q157 0 224 -79.5t67 -250.5v-254q0 -205 10 -205q16 0 45 9.5t49 19.5l21 10v-18q-88 -41 -133 -41q-17 0 -17 225v250q0 164 -62.5 238.5t-209.5 74.5q-61 0 -122 -25.5t-104.5 -62 t-78.5 -73t-52 -61.5l-18 -26v-532h-22v1311z" />
<glyph unicode="&#x40c;" horiz-adv-x="1159" d="M135 1313v18h123q12 0 12 -176v-719l228 240l530 663l23 -4l-535 -667q202 -315 332 -485.5t166 -170.5q19 0 48 8t48 16l20 7l7 -18q-78 -33 -133 -33q-40 0 -170 169t-334 488l-230 -239v-410h-22v1153q0 42 -1.5 80.5t-3.5 58t-3 19.5zM498 1481q28 23 100.5 150.5 t81.5 172.5l12 -8q-9 -48 -83 -176.5t-103 -149.5z" />
<glyph unicode="&#x40d;" horiz-adv-x="1316" d="M135 1313v18h123q12 0 12 -176v-1110l756 1286h12v-1116q0 -205 11 -205q17 0 45.5 10t48.5 20l20 11v-20q-86 -41 -129 -41q-18 0 -18 225v1067l-354 -608l-402 -674h-12v1153q0 42 -1.5 80.5t-3.5 58t-3 19.5zM489 1763l15 11q9 -45 80.5 -172t99.5 -152l-10 -12 q-28 24 -101.5 151.5t-83.5 173.5z" />
<glyph unicode="&#x40e;" horiz-adv-x="1013" d="M-10 1331h92q116 0 461 -1120q301 471 403 1120h21q-100 -652 -412 -1136q-99 -152 -231 -238t-230 -86l-4 20q92 0 216 81.5t218 222.5q-11 40 -59.5 191.5t-124 373.5t-152.5 387.5t-118 165.5l-78 -2zM309 1610l13 16q3 -5 8 -13.5t24 -30t40.5 -38t57 -30t74.5 -13.5 q44 0 85.5 14.5t69.5 35.5t50 41.5t33 35.5l10 14l8 -12q-4 -6 -11 -16t-32.5 -35t-53 -44.5t-71.5 -35.5t-90 -16q-42 0 -79.5 13t-61 31.5t-41.5 37.5t-26 32z" />
<glyph unicode="&#x40f;" horiz-adv-x="1259" d="M135 1313v18h123q12 0 12 -176v-1057q0 -20 2.5 -31t13.5 -21t25.5 -14t47.5 -7.5t70 -4t103 -0.5h451v1311h25v-1311h106l-2 -18q-30 0 -44 -1t-73 -1h-329q-1 -90 -8.5 -203.5t-15.5 -181.5l-7 -68l-19 -2q27 260 29 455h-119q-84 0 -129 2t-79.5 6t-47 15.5 t-17.5 25.5t-5 41v1063q0 42 -1.5 80.5t-3.5 58t-3 19.5z" />
<glyph unicode="&#x410;" horiz-adv-x="1155" d="M82 0l434 1313h-12l-90 -2v20h94q93 0 134.5 -36.5t68.5 -137.5l237 -926q57 -221 90 -221q23 0 50 8t43 16l16 7l4 -16q-68 -33 -125 -33q-42 0 -100 233l-49 191h-637l-136 -416h-22zM246 434h626l-184 719q-22 85 -54.5 119.5t-98.5 38.5z" />
<glyph unicode="&#x411;" horiz-adv-x="1071" d="M137 1311v18q76 2 131 2h586v-18q-416 -2 -586 -2v-502q70 20 166 20q518 0 518 -391q0 -94 -28 -175t-81.5 -144t-139.5 -99t-193 -36q-63 0 -128.5 4t-99.5 8l-34 4v1311h-111zM268 16q137 -14 242 -14q199 0 309.5 123.5t110.5 310.5q0 373 -502 373q-40 0 -80 -4 t-60 -8l-20 -4v-777z" />
<glyph unicode="&#x412;" horiz-adv-x="1048" d="M115 1311v18q205 17 377 17q166 0 259 -87.5t93 -218.5q0 -181 -142 -362q228 -74 228 -305q0 -171 -106 -280t-281 -109q-73 0 -146.5 4t-110.5 8l-38 4v1319zM270 18q156 -16 273 -16q162 0 263 103t101 268t-117.5 242t-347.5 77q-91 0 -172 -8v-666zM270 702 q88 9 168 9q146 0 248 -29q137 185 137 354q0 125 -86.5 208t-244.5 83q-18 0 -222 -6v-619z" />
<glyph unicode="&#x413;" horiz-adv-x="841" d="M137 1311v18q88 2 131 2h420q69 0 97 -20t28 -66l-4 -227l-14 2v211q0 43 -25.5 61.5t-85.5 18.5h-414v-1311h-22v1311h-111z" />
<glyph unicode="&#x414;" horiz-adv-x="1212" d="M78 20h117q95 311 161 660.5t78 630.5h-96v20h289q156 0 206.5 -18.5t53.5 -71.5l84 -1221h145q0 -92 -7 -210t-15 -190l-7 -73l-20 -2q25 260 27 455h-996l2 -414q-12 -4 -22 -4v438zM215 20h733l-86 1211q-2 33 -20 49t-69.5 24.5t-151.5 8.5q-25 0 -81 -1t-83 -1 q-13 -277 -80.5 -629.5t-161.5 -661.5z" />
<glyph unicode="&#x415;" d="M121 1313v16q16 0 58.5 1t72.5 1h598v-18q-430 -2 -598 -2h-2v-29t-0.5 -74t-1 -113t-0.5 -164.5v-209.5h502v-16q-191 -5 -355 -5q-106 0 -147 2v-354q0 -187 68.5 -266.5t246.5 -79.5q68 0 155 21.5t140 42.5l53 22l4 -18q-22 -10 -58.5 -24t-131.5 -38t-170 -24 q-187 0 -258.5 83t-71.5 279v370.5t0.5 274t1 175.5t0.5 107.5v37.5z" />
<glyph unicode="&#x416;" horiz-adv-x="1624" d="M61 0l512 623q-341 692 -446 692h-61l-3 16h74q107 0 453 -692l180 174v518h23v-788l184 180l502 608h26l-510 -614q175 -334 300 -519.5t180 -185.5q27 0 57 10t46 20l17 11v-18q-61 -43 -131 -43q-113 0 -485 708l-186 -182v-518h-23v791l-176 -175l-506 -616h-27z" />
<glyph unicode="&#x417;" horiz-adv-x="923" d="M59 109l11 16q5 -5 14 -13.5t40.5 -29.5t67.5 -37t93 -29.5t118 -13.5q113 0 201.5 54t133 136t44.5 175q0 141 -74.5 223t-195.5 82l-188 -2v20q90 2 190 2q8 6 21.5 16t48 44.5t60.5 72t47.5 95t21.5 116.5q0 134 -81 212.5t-237 78.5q-64 0 -122 -9.5t-83 -18.5 l-26 -9l2 19q9 4 26.5 10t78.5 16.5t130 10.5q163 0 248.5 -81t85.5 -225q0 -191 -200 -350q121 -6 196.5 -93t75.5 -228q0 -99 -48 -186t-141.5 -143t-211.5 -56q-64 0 -123.5 13t-98.5 31t-68.5 36.5t-43.5 31.5z" />
<glyph unicode="&#x418;" horiz-adv-x="1310" d="M135 1313v18h123q12 0 12 -176v-1110l756 1286h12v-1116q0 -205 11 -205q17 0 45.5 10t48.5 20l20 11v-20q-86 -41 -129 -41q-18 0 -18 225v1067l-354 -608l-402 -674h-12v1153q0 42 -1.5 80.5t-3.5 58t-3 19.5z" />
<glyph unicode="&#x419;" horiz-adv-x="1316" d="M135 1313v18h123q12 0 12 -176v-1110l756 1286h12v-1116q0 -205 11 -205q17 0 45.5 10t48.5 20l20 11v-20q-86 -41 -129 -41q-18 0 -18 225v1067l-354 -608l-402 -674h-12v1153q0 42 -1.5 80.5t-3.5 58t-3 19.5zM397 1610l13 16q3 -5 8 -13.5t24 -30t40.5 -38t57 -30 t74.5 -13.5q44 0 85.5 14.5t69.5 35.5t50 41.5t33 35.5l10 14l8 -12q-4 -6 -11 -16t-32.5 -35t-53 -44.5t-71.5 -35.5t-90 -16q-42 0 -79.5 13t-61 31.5t-41.5 37.5t-26 32z" />
<glyph unicode="&#x41a;" horiz-adv-x="1159" d="M135 1313v18h123q12 0 12 -176v-719l228 240l530 663l23 -4l-535 -667q202 -315 332 -485.5t166 -170.5q19 0 48 8t48 16l20 7l7 -18q-78 -33 -133 -33q-40 0 -170 169t-334 488l-230 -239v-410h-22v1153q0 42 -1.5 80.5t-3.5 58t-3 19.5z" />
<glyph unicode="&#x41b;" horiz-adv-x="1214" d="M92 -10q143 266 253.5 650.5t123.5 672.5l-121 -2v20h273q154 0 207.5 -19t56.5 -71l65 -1005q14 -226 60 -226q23 0 50 8t42 16l16 9l2 -18q-66 -33 -125 -33q-29 0 -45 59.5t-24 173.5l-66 1006q-3 48 -52 65t-196 17h-123q-15 -295 -124 -683t-252 -648z" />
<glyph unicode="&#x41c;" horiz-adv-x="1564" d="M137 0l187 1313l-101 -2l2 20h117q14 0 50 -99t103.5 -327.5t113 -388t136.5 -485.5q67 202 184 527t201 549l84 224h23l96 -1116q17 -205 49 -205q31 0 64 9t50 19l17 9l5 -16q-68 -39 -152 -39q-38 0 -57 223l-90 1071q-323 -858 -465 -1286h-21q-83 293 -128 449.5 t-108.5 373t-101.5 331t-55 146.5l-180 -1300h-23z" />
<glyph unicode="&#x41d;" horiz-adv-x="1308" d="M135 1313v18h123q12 0 12 -176v-512h744v688h24v-1114q0 -205 11 -205q16 0 44.5 7t48.5 15l21 7v-18q-88 -31 -131 -31q-18 0 -18 225v408l-744 -2v-623h-22v1153q0 42 -1.5 80.5t-3.5 58t-3 19.5z" />
<glyph unicode="&#x41e;" horiz-adv-x="1292" d="M119 662q0 155 42 285t114 216.5t167.5 134.5t202.5 48q108 0 204 -47.5t168 -134t114.5 -216.5t42.5 -286t-42.5 -285t-114.5 -214.5t-168 -132t-204 -46.5q-107 0 -202.5 46.5t-167.5 132t-114 214.5t-42 285zM143 662q0 -151 40.5 -277t109.5 -209t160.5 -128.5 t193.5 -45.5t192.5 45.5t159.5 128.5t109.5 209t40.5 277t-40.5 278t-109.5 210.5t-160.5 130t-193.5 46.5q-101 0 -192 -46.5t-160 -130t-109.5 -210.5t-40.5 -278z" />
<glyph unicode="&#x41f;" horiz-adv-x="1280" d="M115 1311v18q203 2 739 2q98 0 127 -15.5t29 -74.5v-1024q0 -205 8 -205q16 0 45 7t49 15l21 7v-18q-84 -31 -129 -31q-19 0 -19 225v1016q0 53 -24.5 65.5t-114.5 12.5h-576v-1311h-22v1311h-133z" />
<glyph unicode="&#x420;" horiz-adv-x="948" d="M115 1311v18q186 17 346 17q176 0 280.5 -111.5t104.5 -278.5q0 -108 -32.5 -190.5t-80 -128.5t-113.5 -74.5t-121 -37.5t-114 -9q-55 0 -115 10v-526h-22v1319zM270 543q40 -8 113 -8q57 0 110 8.5t115.5 35.5t108 70.5t76 122t30.5 182.5q0 161 -98.5 267t-265.5 106 q-12 0 -189 -6v-778z" />
<glyph unicode="&#x421;" horiz-adv-x="1130" d="M119 662q0 155 43.5 285t118 216.5t174.5 134.5t213 48q93 0 171 -11.5t110 -22.5l32 -12l-16 -364h-19q13 276 15 350q-126 41 -293 41q-108 0 -203.5 -46.5t-167 -130.5t-113 -210.5t-41.5 -277.5q0 -302 145 -480t367 -178q68 0 135 17.5t114 42.5t84.5 50t55.5 42 l19 18l8 -14q-7 -7 -19.5 -19t-55 -42.5t-88 -53.5t-116 -42t-141.5 -19q-112 0 -209 46.5t-169 132t-113 214.5t-41 285z" />
<glyph unicode="&#x422;" horiz-adv-x="868" d="M-29 1313l2 18h920v-18q-293 -2 -457 -2v-1094q0 -205 10 -205q16 0 45 7t49 15l21 7v-18q-86 -31 -131 -31q-16 0 -16 225v1094z" />
<glyph unicode="&#x423;" horiz-adv-x="1013" d="M-10 1331h92q116 0 461 -1120q301 471 403 1120h21q-100 -652 -412 -1136q-99 -152 -231 -238t-230 -86l-4 20q92 0 216 81.5t218 222.5q-11 40 -59.5 191.5t-124 373.5t-152.5 387.5t-118 165.5l-78 -2z" />
<glyph unicode="&#x424;" horiz-adv-x="1372" d="M119 653q0 308 148.5 466.5t408.5 160.5v174h20v-174q260 -2 409.5 -156.5t149.5 -459.5q0 -309 -150 -468t-409 -161v-168h-20v168q-261 0 -409 154.5t-148 463.5zM141 653q0 -300 142 -450t393 -150v1209q-251 -2 -393 -155t-142 -454zM696 53q250 2 393.5 155.5 t143.5 453.5q0 298 -143.5 448t-393.5 152v-1209z" />
<glyph unicode="&#x425;" horiz-adv-x="1134" d="M68 1313v18h106q26 0 86.5 -84.5t134 -216t114.5 -207.5t73 -139l465 647h28l-479 -663q40 -70 108 -192.5t105 -187t82 -139t73 -107t44 -32.5q15 0 37.5 5t37.5 11l15 5l4 -17q-58 -22 -105 -22q-20 0 -49.5 33t-73 105t-82 139.5t-103.5 186t-109 195.5l-469 -651h-29 l483 668q-35 66 -71 133t-113 204.5t-136 222.5t-81 85h-96z" />
<glyph unicode="&#x426;" horiz-adv-x="1282" d="M135 1313v18h123q12 0 12 -176v-1057q0 -20 2 -31t13 -21t25 -14t47.5 -7.5t70.5 -4t104 -0.5h451v1311h25v-1311h157q0 -92 -7 -210.5t-14 -190.5l-7 -72l-21 -2q25 262 27 457q-16 0 -43 -1t-68 -1h-506q-70 0 -110 1t-75 4.5t-50.5 8.5t-27 16.5t-13.5 24t-2 35.5 v1063q0 42 -1.5 80.5t-3.5 58t-3 19.5z" />
<glyph unicode="&#x427;" horiz-adv-x="1187" d="M113 1313v18h123q12 0 12 -176v-330q0 -165 62.5 -239t209.5 -74q58 0 117 20t99.5 45.5t78.5 58.5t53.5 50t24.5 29v616h25v-1114q0 -205 10 -205q16 0 44 7t48 15l20 7v-18q-86 -31 -129 -31q-18 0 -18 225v477q-11 -13 -25.5 -29.5t-53.5 -50.5t-80 -59.5t-101 -45.5 t-119 -20q-157 0 -223 79.5t-66 252.5v332q0 42 -1.5 80.5t-3.5 58t-3 19.5z" />
<glyph unicode="&#x428;" horiz-adv-x="1740" d="M135 1313v18h121q14 0 14 -176v-1057q0 -19 2.5 -30.5t13.5 -21.5t25 -14.5t46.5 -7.5t68.5 -3.5t100 -0.5h320v1311h24v-1311h576v1311h22v-1311h88l-2 -18q-37 0 -62 -1t-54 -1h-912q-70 0 -111.5 1t-75.5 5t-50 9t-26.5 16.5t-12.5 24t-2 34.5v1063q0 42 -1.5 80.5 t-3.5 58t-3 19.5z" />
<glyph unicode="&#x429;" horiz-adv-x="1742" d="M135 1313v18h121q14 0 14 -176v-1057q0 -19 2.5 -30.5t13.5 -21.5t25 -14.5t47 -7.5t69.5 -3.5t100.5 -0.5h318v1311h24v-1311h576v1311h22v-1311h158q0 -92 -7 -210t-15 -190l-7 -73l-20 -2q25 262 27 457q-18 0 -44 -1t-67 -1h-967q-70 0 -111.5 1t-75.5 5t-50 9 t-26.5 16.5t-12.5 24t-2 34.5v1063q0 42 -1.5 80.5t-3.5 58t-3 19.5z" />
<glyph unicode="&#x42a;" horiz-adv-x="1146" d="M29 1239q0 45 29.5 68.5t107.5 23.5h678v-16q-2 0 -40 -28.5t-101 -86.5t-129 -131t-131.5 -176.5t-102.5 -208.5q27 19 63 37.5t106 37.5t140 19q76 0 143.5 -22t120.5 -64.5t84 -112.5t31 -159q0 -94 -24 -172t-72 -138t-127 -93t-182 -33q-121 0 -202 58.5t-116 155 t-35 226.5q0 97 26 195t65 177t94 156.5t104.5 133t104.5 106.5t87 76.5t58 44.5h-641q-68 0 -94.5 -21.5t-28.5 -64.5v-162h-14q-2 145 -2 174zM293 426q0 -91 19 -166t57.5 -134t103.5 -91.5t152 -32.5q189 0 286 114.5t97 301.5q0 111 -53 190.5t-134 115.5t-178 36 q-162 0 -311 -96q-39 -119 -39 -238z" />
<glyph unicode="&#x42b;" horiz-adv-x="1490" d="M135 1313v18h123q12 0 12 -176v-397q135 30 246 30q189 0 302.5 -94t113.5 -272q0 -189 -116 -313.5t-304 -124.5q-77 0 -143 4t-93 8l-28 4v1153q0 42 -1.5 80.5t-3.5 58t-3 19.5zM270 16q86 -14 242 -14q175 0 285 118t110 298q0 169 -109 260.5t-288 91.5 q-51 0 -109 -7.5t-87.5 -13.5t-43.5 -10v-723zM1196 217v1114h25v-1114q0 -205 8 -205q16 0 44.5 7t48.5 15l21 7v-18q-86 -31 -129 -31q-18 0 -18 225z" />
<glyph unicode="&#x42c;" horiz-adv-x="1048" d="M135 1313v18h123q12 0 12 -176v-397q135 30 246 30q189 0 302.5 -94t113.5 -272q0 -189 -116 -313.5t-304 -124.5q-77 0 -143 4t-93 8l-28 4v1153q0 42 -1.5 80.5t-3.5 58t-3 19.5zM270 16q86 -14 242 -14q175 0 285 118t110 298q0 169 -109 260.5t-288 91.5 q-51 0 -109 -7.5t-87.5 -13.5t-43.5 -10v-723z" />
<glyph unicode="&#x42d;" horiz-adv-x="1118" d="M37 117l8 18q5 -5 15.5 -14t46.5 -32t77.5 -40.5t109 -32t140.5 -14.5q108 0 205 44.5t171 125t118.5 202.5t48.5 269h-762l2 16q333 5 571 5q45 0 109 -1t80 -1v4q0 310 -147.5 484.5t-397.5 174.5q-86 0 -167.5 -10.5t-120.5 -21.5l-38 -11v21q14 5 41 12t112 19 t173 12q262 0 415.5 -180.5t153.5 -497.5q0 -156 -45.5 -286t-123 -216.5t-179.5 -134t-217 -47.5q-76 0 -145 13.5t-113.5 33t-78 39.5t-47.5 34z" />
<glyph unicode="&#x42e;" horiz-adv-x="1792" d="M135 1313v18h123q12 0 12 -176v-493l355 2q0 155 42 285t112.5 216t164 133.5t197.5 47.5q231 0 382.5 -186t151.5 -498q0 -156 -41.5 -285t-113.5 -214.5t-169.5 -132t-209.5 -46.5q-102 0 -194.5 45t-163.5 127.5t-113.5 208.5t-44.5 278h-355v-643h-22v1153 q0 42 -1.5 80.5t-3.5 58t-3 19.5zM647 662q0 -151 40 -277t108.5 -209t158 -128.5t189.5 -45.5q107 0 199.5 45.5t161 128.5t108 208.5t39.5 277.5q0 302 -145 483.5t-365 181.5q-99 0 -188.5 -46.5t-157.5 -130t-108 -210.5t-40 -278z" />
<glyph unicode="&#x42f;" horiz-adv-x="1075" d="M121 922q0 193 108.5 308.5t317.5 115.5q62 0 126.5 -4t98.5 -8l33 -3v-1114q0 -205 8 -205q17 0 46.5 7t50.5 15l20 7v-18q-86 -31 -131 -31q-17 0 -17 225v363q-7 -2 -43 -5.5t-121 -7.5t-182 -4h-22l-240 -563h-24l243 565q-50 8 -97 34t-87 68.5t-64 109t-24 145.5z M143 924q0 -82 29 -150t73.5 -108.5t95 -62t97.5 -21.5q93 0 177 4t121 7t46 5v715q-137 14 -237 14q-195 0 -298.5 -110t-103.5 -293z" />
<glyph unicode="&#x430;" horiz-adv-x="976" d="M104 272q0 144 94 228t240 84q141 0 275 -29v195q0 137 -55 205.5t-191 68.5q-60 0 -122 -8t-94 -16l-32 -9l2 19q107 32 248 32q147 0 206.5 -73.5t59.5 -218.5q0 -136 -1 -303t-1 -295q0 -81 9 -112.5t28 -31.5q8 0 29.5 5t38.5 11l18 5v-15q-69 -22 -98 -22 q-24 0 -34.5 33.5t-10.5 124.5v71q-5 -10 -14.5 -26t-42.5 -56.5t-69 -72t-93 -57t-117 -25.5q-114 0 -193.5 75t-79.5 213zM125 276q0 -131 75.5 -202.5t184.5 -71.5q54 0 107 24t90.5 57t68 69.5t45 61t17.5 32.5v295q-152 26 -273 26q-139 0 -227 -78t-88 -213z" />
<glyph unicode="&#x431;" horiz-adv-x="970" d="M102 586q0 123 13.5 227t36.5 180.5t57 138t72.5 103t86 71t93.5 45t98 23.5q67 10 123 30t88 42t54 42.5t30 33.5l8 14l17 -6q-3 -6 -9 -15.5t-31 -36t-57.5 -48.5t-91 -45t-127.5 -33q-68 -10 -124.5 -33.5t-112 -72.5t-95 -120t-67.5 -181.5t-35 -252.5 q10 14 25.5 32.5t52.5 50t79.5 55.5t106.5 42.5t133 18.5q151 0 246.5 -111t95.5 -301q0 -128 -44 -239t-134 -183.5t-209 -72.5q-177 0 -278 155.5t-101 446.5zM127 590q0 -284 95 -436t259 -152q113 0 197.5 70t125 176t40.5 229q0 181 -91 287t-235 106 q-77 0 -148.5 -23.5t-121 -60t-76 -61.5t-43.5 -47q-2 -29 -2 -88z" />
<glyph unicode="&#x432;" horiz-adv-x="954" d="M133 1004l2 16q162 22 342 22q145 0 222 -73.5t77 -175.5q0 -58 -17.5 -106.5t-45.5 -79.5t-50 -48t-45 -29q107 -3 169.5 -66t62.5 -161q0 -48 -10 -90t-36.5 -85.5t-69 -74t-112.5 -50t-161 -19.5q-53 0 -110.5 4t-88.5 8l-31 4v1014zM252 16q124 -16 207 -16 q87 0 154 18.5t107 48t65.5 70.5t34.5 81t9 85q0 97 -62.5 156t-178.5 59q-180 0 -336 -8v-494zM252 524q214 11 338 11q7 2 18 7.5t39.5 26t50.5 46.5t40 72t18 101q0 44 -17.5 85.5t-50.5 76t-87.5 55.5t-121.5 21t-225 -10q0 -82 -1 -246t-1 -246z" />
<glyph unicode="&#x433;" horiz-adv-x="747" d="M133 1008v16h473q69 0 88 -22t19 -72v-211h-17v203q0 22 -2.5 34.5t-11 25.5t-29.5 18.5t-55 5.5h-344q0 -167 -1 -503t-1 -503h-21v1006z" />
<glyph unicode="&#x434;" horiz-adv-x="985" d="M53 18h86q69 222 111.5 443t77.5 543l-127 4v16h344q104 0 146.5 -28.5t47.5 -90.5l68 -887h129q0 -92 -6 -202t-12 -174l-5 -64h-18q18 229 20 422h-843v-375q-4 0 -11 -1t-8 -1v395zM158 18h626l-67 879q-5 58 -43.5 83.5t-132.5 25.5q-35 0 -98.5 -1t-94.5 -1 q-33 -321 -76.5 -543t-113.5 -443z" />
<glyph unicode="&#x435;" horiz-adv-x="901" d="M102 487q0 122 35.5 227t94.5 176t135.5 111.5t158.5 40.5q122 0 200.5 -71t78.5 -191q0 -154 -129.5 -233.5t-382.5 -79.5q-70 0 -166 12q0 -210 113.5 -343.5t271.5 -133.5q46 0 90 9t74 21.5t53.5 25t34.5 21.5l12 9l8 -16q-4 -4 -12 -9.5t-35 -21t-57 -27t-76.5 -21 t-95.5 -9.5q-81 0 -155 36t-129.5 100.5t-88.5 160t-33 206.5zM127 496q91 -13 162 -13q246 0 370.5 75t124.5 220q0 114 -72.5 181t-187.5 67q-77 0 -149 -39t-126.5 -107t-87.5 -168t-34 -216z" />
<glyph unicode="&#x436;" horiz-adv-x="1261" d="M45 0l387 436q-196 403 -246 486q-55 93 -84 94l-53 -2v14q39 4 62 4q40 0 108 -121t230 -460l149 127v446h23q0 -95 -1.5 -284t-1.5 -283l144 112l393 455h25l-400 -461q148 -254 245.5 -404.5t127.5 -150.5q9 0 25 5t28 11l11 5v-15q-45 -22 -70 -22q-19 0 -58.5 46.5 t-96.5 134.5t-108 173t-120 203l-146 -113v-436h-20v555l-145 -125l-381 -430h-27z" />
<glyph unicode="&#x437;" horiz-adv-x="806" d="M59 72l9 14q4 -3 11.5 -9t34.5 -21t58.5 -26t83.5 -20.5t109 -9.5q150 0 232.5 85t82.5 202q0 100 -65 170.5t-164 70.5l-166 -2q0 13 2 19q66 2 166 2h4q15 6 38.5 23t57 48t57 81t23.5 106q0 97 -70 158t-198 61q-59 0 -119 -8.5t-90 -17.5l-31 -9v19q103 34 244 34 q136 0 210 -63.5t74 -169.5q0 -53 -19.5 -100.5t-51 -80.5t-56.5 -52.5t-49 -32.5q90 -3 157.5 -77.5t67.5 -180.5q0 -122 -89 -211.5t-248 -89.5q-59 0 -112.5 9t-87 22t-59 26t-36.5 22z" />
<glyph unicode="&#x438;" horiz-adv-x="1107" d="M133 1008v16q80 8 107 8q14 0 14 -117l-2 -874l291 487l303 496h12v-872q0 -81 9 -112.5t28 -31.5q8 0 29 5t38 11l17 5v-15q-67 -22 -94 -22q-26 0 -37.5 34t-11.5 124q0 138 1 415.5t1 417.5l-594 -983h-13v913q0 101 -8 101z" />
<glyph unicode="&#x439;" horiz-adv-x="1107" d="M133 1008v16q80 8 107 8q14 0 14 -117l-2 -874l291 487l303 496h12v-872q0 -81 9 -112.5t28 -31.5q8 0 29 5t38 11l17 5v-15q-67 -22 -94 -22q-26 0 -37.5 34t-11.5 124q0 138 1 415.5t1 417.5l-594 -983h-13v913q0 101 -8 101zM305 1333l12 17q3 -5 8 -13.5t24 -30 t41 -38t57.5 -30t74.5 -13.5q44 0 85.5 14.5t69.5 35.5t50 41.5t33 35.5l10 14l8 -12q-4 -6 -11 -16t-32.5 -35.5t-53 -45t-71.5 -35.5t-90 -16q-42 0 -79.5 13t-61 32t-41.5 37.5t-26 31.5z" />
<glyph unicode="&#x43a;" d="M133 1008v16q80 8 107 8q14 0 14 -117q0 -306 -2 -460l141 114l441 455h30l-452 -461q370 -555 432 -555q11 0 26.5 5t25.5 9l9 5v-17q-36 -18 -69 -18q-72 0 -441 557l-143 -113v-436h-21v913q0 101 -8 101h-8z" />
<glyph unicode="&#x43b;" horiz-adv-x="1013" d="M61 2q92 39 184 308.5t165 699.5l-146 -4l2 18q228 8 279 8q103 0 146 -31t48 -96l56 -758q9 -139 34 -139q11 0 33.5 5t39.5 11l16 5v-15q-66 -22 -99 -22q-24 0 -32 33t-15 120l-55 752q-5 60 -45 88.5t-133 28.5q-7 0 -45.5 -1t-65.5 -1q-74 -440 -168 -714.5 t-192 -313.5q-7 10 -7 18z" />
<glyph unicode="&#x43c;" horiz-adv-x="1302" d="M127 0q115 608 168 1004l-96 4v16h112q13 0 37 -57t71.5 -216.5t85 -292t120.5 -429.5q76 193 167.5 441.5t145.5 401.5l53 152h23l76 -874q14 -142 49 -142q8 0 29.5 5t39.5 11l17 5v-15q-68 -22 -97 -22q-48 0 -59 155l-74 840q-43 -128 -152.5 -431t-209.5 -556h-21 q-216 770 -264 911q-24 68 -37 86q-23 -176 -64.5 -425.5t-71.5 -410.5l-30 -161h-18z" />
<glyph unicode="&#x43d;" horiz-adv-x="1107" d="M133 1008v16q80 8 107 8q14 0 14 -117q0 -63 -1 -186t-1 -184q222 4 586 4v475h22q0 -146 -1 -436.5t-1 -435.5q0 -81 9 -112.5t28 -31.5q8 0 29.5 5t39.5 11l17 5v-15q-69 -22 -96 -22q-26 0 -36.5 33.5t-10.5 124.5v382q-143 -4 -586 -4v-528h-21v913q0 101 -8 101z " />
<glyph unicode="&#x43e;" horiz-adv-x="1009" d="M102 512q0 239 116 384.5t288 145.5q171 0 286 -145t115 -385t-115 -384t-286 -144q-173 0 -288.5 143.5t-115.5 384.5zM127 512q0 -231 108.5 -370.5t270.5 -139.5t270.5 139.5t108.5 370.5t-108.5 371.5t-270.5 140.5t-270.5 -140.5t-108.5 -371.5z" />
<glyph unicode="&#x43f;" horiz-adv-x="1093" d="M133 1008v16h547q94 0 130 -18t36 -76q0 -95 -1 -388t-1 -390q0 -81 9 -112.5t28 -31.5q8 0 29 5t38 11l17 5v-15q-68 -22 -95 -22q-26 0 -36.5 33.5t-10.5 124.5v772q0 51 -34.5 67.5t-116.5 16.5h-418q0 -168 -1 -503t-1 -503h-21v1006z" />
<glyph unicode="&#x440;" horiz-adv-x="1032" d="M125 1008l2 16q81 8 106 8q13 0 13 -110v-88q5 8 15 22.5t43.5 50t69 63t90.5 50t111 22.5q153 0 253 -137.5t100 -376.5q0 -246 -119.5 -395t-323.5 -149q-141 0 -239 45v-541h-23v1425v35q0 49 -3.5 58.5t-20.5 9.5zM246 51q99 -51 241 -51q192 0 305 144t113 382 q0 230 -95.5 363t-242.5 133q-52 0 -104 -21.5t-89 -52t-67.5 -61.5t-45.5 -53l-15 -21v-762z" />
<glyph unicode="&#x441;" horiz-adv-x="860" d="M102 498q0 243 124 393.5t321 150.5q47 0 99.5 -9.5t81.5 -18.5l28 -10l-2 -19q-103 39 -205 39q-190 0 -306 -144t-116 -378q0 -113 32 -208.5t85 -158.5t122 -98t144 -35q53 0 102 10.5t81.5 25t57.5 29t37 25.5l11 10l8 -14q-4 -4 -12 -11t-36 -25t-60 -32t-83.5 -25 t-107.5 -11q-80 0 -153 35.5t-129.5 100t-90 163t-33.5 215.5z" />
<glyph unicode="&#x442;" horiz-adv-x="782" d="M29 1008v16h723v-16q-211 -2 -377 -2v-854q0 -80 8.5 -112t26.5 -32q8 0 29.5 5t38.5 11l18 5v-15q-68 -22 -97 -22q-25 0 -36 34t-11 124v856z" />
<glyph unicode="&#x443;" horiz-adv-x="872" d="M4 1008v16q47 8 88 8q37 0 96 -124t117.5 -302t103 -330t68.5 -251q95 196 201.5 519t124.5 480h22q-18 -160 -128.5 -488t-213.5 -536q-44 -90 -97.5 -177t-97.5 -146t-82 -105.5t-60 -69.5l-21 -22l-19 10q8 8 22.5 23t57.5 66t84.5 106.5t95 142t97.5 174.5l-83 292 q-204 690 -293 721q-4 1 -7 1q-15 0 -34 -2t-30 -4z" />
<glyph unicode="&#x444;" horiz-adv-x="1290" d="M102 504q0 252 111.5 395t306.5 143q45 0 115 -14v508h22v-578q5 8 15.5 18.5t32 27t55 27.5t71.5 11q149 0 253 -141.5t104 -380.5q0 -247 -114 -391.5t-308 -144.5q-63 0 -111 12v-508h-22v575q-6 -7 -17 -17t-33 -25.5t-56 -26t-72 -10.5q-149 0 -251 140.5 t-102 379.5zM125 506q0 -227 98 -364.5t240 -137.5q94 0 170 76q0 155 1 464.5t1 463.5q-48 16 -115 16q-186 0 -290.5 -138.5t-104.5 -379.5zM655 14q42 -12 111 -12q185 0 292 140t107 376q0 227 -100 365.5t-242 138.5q-43 0 -82 -17t-56 -32t-28 -29q0 -155 -1 -465.5 t-1 -464.5z" />
<glyph unicode="&#x445;" horiz-adv-x="913" d="M45 0l399 516q-186 327 -242 408q-63 92 -91 92l-54 -6v14q39 8 66 8q34 0 97 -96t185 -311q36 -63 54 -95l383 494h22l-391 -504q149 -263 227.5 -387.5t106.5 -124.5q9 0 24 5t26 9l11 5v-17q-40 -18 -71 -18q-32 0 -112 125.5t-228 388.5l-385 -506h-27z" />
<glyph unicode="&#x446;" horiz-adv-x="1093" d="M133 1008v16q80 8 107 8q14 0 14 -117v-811q0 -53 34.5 -69.5t125.5 -16.5h409v1006h23q0 -167 -1 -502.5t-1 -503.5h141q0 -91 -5 -201.5t-10 -175.5l-5 -65h-21q21 229 23 424h-564q-99 0 -135.5 17.5t-36.5 76.5v819q0 101 -8 101h-8z" />
<glyph unicode="&#x447;" d="M70 1008v16q77 8 106 8q12 0 12 -112v-248q0 -119 44.5 -176.5t148.5 -57.5q52 0 101.5 9.5t82.5 23t59 27t38 22.5l12 10v494h22v-872q0 -80 8.5 -112t26.5 -32q8 0 29.5 5t39.5 11l17 5v-15q-67 -22 -96 -22q-25 0 -36 34t-11 124v364q-5 -5 -16.5 -13.5t-39 -23.5 t-60 -27t-81.5 -21t-102 -9q-111 0 -159 60t-48 188v245q0 101 -8 101z" />
<glyph unicode="&#x448;" horiz-adv-x="1484" d="M133 1008v16q80 8 107 8q12 0 12 -117v-813q0 -49 36 -66.5t124 -17.5h311v1006h22v-1006h472v1006h20v-1006h102v-16q-133 -2 -141 -2h-795q-96 0 -134 19.5t-38 76.5v817q0 101 -8 101z" />
<glyph unicode="&#x449;" horiz-adv-x="1486" d="M133 1008v16q80 8 107 8q12 0 12 -117v-813q0 -49 36 -66.5t124 -17.5h311v1006h22v-1006h472v1006h20v-1006h141q0 -91 -5 -201.5t-10 -175.5l-5 -65h-21q21 233 23 426q-16 0 -89 -1l-73 -1h-795q-96 0 -134 19.5t-38 76.5v817q0 101 -8 101z" />
<glyph unicode="&#x44a;" horiz-adv-x="954" d="M45 774v158q0 50 28.5 71t108.5 21h406v-16q-9 -8 -24 -23.5t-57 -65.5t-78.5 -103.5t-76 -133t-61.5 -158.5q126 88 280 88q117 0 191 -69t74 -209q0 -153 -94 -251.5t-232 -98.5q-126 0 -196 95.5t-70 250.5q0 96 28 195t64.5 171t86.5 143t80.5 105.5t59.5 63.5 q-1 0 -132.5 -1t-244.5 -1q-76 0 -101.5 -19t-25.5 -67v-148zM266 336q0 -150 66 -243t182 -93q126 0 212.5 94t86.5 238q0 131 -70 197.5t-180 66.5q-49 0 -98 -11t-86 -27.5t-57 -27.5t-33 -20q-23 -90 -23 -174z" />
<glyph unicode="&#x44b;" horiz-adv-x="1300" d="M133 1008v16q80 8 107 8q14 0 14 -117q0 -7 -0.5 -57.5t-1 -127.5t-0.5 -150q4 4 13.5 12t36 24t57 29t78.5 23t98 10q124 0 204 -83t80 -237q0 -162 -98 -268t-266 -106q-53 0 -109 4t-86 8l-29 4v913q0 101 -8 101h-8zM252 14q122 -14 203 -14q158 0 250 102t92 254 q0 146 -77.5 223.5t-193.5 77.5q-49 0 -94.5 -9.5t-75 -21t-55.5 -26.5t-35 -22.5t-14 -12.5v-551zM1030 150v874h23v-872q0 -81 8 -112.5t26 -31.5q8 0 29.5 5t39.5 11l18 5v-15q-68 -22 -97 -22q-25 0 -36 34t-11 124z" />
<glyph unicode="&#x44c;" horiz-adv-x="937" d="M133 1008v16q80 8 107 8q14 0 14 -117q0 -7 -0.5 -57.5t-1 -127.5t-0.5 -150q4 4 13.5 12t36 24t57 29t78.5 23t98 10q124 0 204 -83t80 -237q0 -162 -98 -268t-266 -106q-53 0 -109 4t-86 8l-29 4v913q0 101 -8 101h-8zM252 14q122 -14 203 -14q158 0 250 102t92 254 q0 146 -77.5 223.5t-193.5 77.5q-49 0 -94.5 -9.5t-75 -21t-55.5 -26.5t-35 -22.5t-14 -12.5v-551z" />
<glyph unicode="&#x44d;" horiz-adv-x="888" d="M59 86l9 16q5 -4 13.5 -11t38 -24t61 -30t80.5 -24t99 -11q182 0 290.5 142t111.5 380q-160 -8 -483 -8v19q35 0 214.5 2t268.5 2q-1 109 -33.5 201.5t-86.5 153.5t-123.5 95.5t-145.5 34.5q-64 0 -121.5 -10t-83.5 -20l-25 -9v19q9 4 27 10.5t78 17t127 10.5 q167 0 288 -141t121 -364q0 -251 -115 -402t-307 -151q-52 0 -102.5 10.5t-85 25.5t-62 30t-40.5 26z" />
<glyph unicode="&#x44e;" horiz-adv-x="1400" d="M133 1008v16q80 8 107 8q14 0 14 -117q0 -62 -1 -184t-1 -182q145 10 229 10q12 225 123 354t285 129q183 0 296 -142.5t113 -387.5t-113 -386.5t-296 -141.5t-295.5 141.5t-112.5 386.5v27q-89 0 -229 -9v-530h-21v913q0 101 -8 101h-8zM502 512q0 -233 106.5 -371.5 t280.5 -138.5t280.5 138.5t106.5 371.5t-106.5 372.5t-280.5 139.5t-280.5 -139.5t-106.5 -372.5z" />
<glyph unicode="&#x44f;" horiz-adv-x="1013" d="M162 727q0 133 87.5 224t244.5 91q56 0 123.5 -4.5t106.5 -9.5l40 -4v-872q0 -81 9 -112.5t28 -31.5q8 0 29.5 5t39.5 11l17 5v-15q-69 -22 -96 -22q-26 0 -37 33.5t-11 124.5v344q-144 -37 -280 -37q-23 0 -35 2l-238 -459h-26l246 459q-119 12 -183.5 81t-64.5 187z M182 729q0 -123 74 -189.5t207 -66.5q121 0 280 37v498q-123 18 -251 18q-147 0 -228.5 -86.5t-81.5 -210.5z" />
<glyph unicode="&#x450;" horiz-adv-x="901" d="M102 487q0 122 35.5 227t94.5 176t135.5 111.5t158.5 40.5q122 0 200.5 -71t78.5 -191q0 -154 -129.5 -233.5t-382.5 -79.5q-70 0 -166 12q0 -210 113.5 -343.5t271.5 -133.5q46 0 90 9t74 21.5t53.5 25t34.5 21.5l12 9l8 -16q-4 -4 -12 -9.5t-35 -21t-57 -27t-76.5 -21 t-95.5 -9.5q-81 0 -155 36t-129.5 100.5t-88.5 160t-33 206.5zM127 496q91 -13 162 -13q246 0 370.5 75t124.5 220q0 114 -72.5 181t-187.5 67q-77 0 -149 -39t-126.5 -107t-87.5 -168t-34 -216zM338 1487l14 10q9 -45 80.5 -171.5t99.5 -151.5l-10 -13q-28 24 -101 152 t-83 174z" />
<glyph unicode="&#x451;" horiz-adv-x="901" d="M102 487q0 122 35.5 227t94.5 176t135.5 111.5t158.5 40.5q122 0 200.5 -71t78.5 -191q0 -154 -129.5 -233.5t-382.5 -79.5q-70 0 -166 12q0 -210 113.5 -343.5t271.5 -133.5q46 0 90 9t74 21.5t53.5 25t34.5 21.5l12 9l8 -16q-4 -4 -12 -9.5t-35 -21t-57 -27t-76.5 -21 t-95.5 -9.5q-81 0 -155 36t-129.5 100.5t-88.5 160t-33 206.5zM127 496q91 -13 162 -13q246 0 370.5 75t124.5 220q0 114 -72.5 181t-187.5 67q-77 0 -149 -39t-126.5 -107t-87.5 -168t-34 -216zM348 1323q0 14 8.5 23.5t20.5 9.5q11 0 18.5 -10t7.5 -23q0 -14 -8 -24.5 t-18 -10.5q-12 0 -20.5 10.5t-8.5 24.5zM586 1323q0 13 8.5 23t19.5 10t20 -10t9 -23t-9 -24t-20 -11t-19.5 11t-8.5 24z" />
<glyph unicode="&#x452;" horiz-adv-x="1079" d="M49 1286v19h205v231h22v-231h56q64 0 145.5 2t130.5 4l49 2v-19q-163 -8 -325 -8h-56v-651q9 19 24 44.5t50 71t74 80.5t96.5 62t116.5 27q125 0 185.5 -97.5t60.5 -267.5v-555q0 -130 -26 -233t-68.5 -163.5t-87.5 -93.5t-91 -40l-4 20q43 6 85.5 38.5t82 91.5t64 158 t24.5 222v555q0 157 -57 249.5t-174 92.5q-60 0 -118 -29t-97.5 -67t-73 -83.5t-47.5 -70t-19 -35.5v-612h-22v1286h-205z" />
<glyph unicode="&#x453;" horiz-adv-x="747" d="M133 1008v16h473q69 0 88 -22t19 -72v-211h-17v203q0 22 -2.5 34.5t-11 25.5t-29.5 18.5t-55 5.5h-344q0 -167 -1 -503t-1 -503h-21v1006zM338 1174q28 23 100.5 150.5t81.5 172.5l12 -8q-9 -48 -83 -176.5t-103 -149.5z" />
<glyph unicode="&#x454;" horiz-adv-x="851" d="M102 496q0 243 119.5 394.5t313.5 151.5q47 0 96.5 -9.5t75.5 -18.5l26 -10v-19q-98 39 -196 39q-184 0 -295.5 -140t-116.5 -366l487 2l2 -18q-66 -2 -170 -2q-138 0 -319 6v-8q0 -115 31 -210t83.5 -156.5t119.5 -95.5t141 -34q54 0 103 10.5t80.5 26t55.5 31t35 26.5 l10 10l9 -12l-11.5 -11.5t-35 -26.5t-59 -33.5t-83.5 -26.5t-108 -12q-80 0 -151 34.5t-125 98t-86 161.5t-32 218z" />
<glyph unicode="&#x455;" horiz-adv-x="843" d="M104 68l7 16q4 -3 11.5 -9t34.5 -20.5t58.5 -25.5t84 -20t110.5 -9q152 0 229.5 73t77.5 177q0 68 -31.5 117t-81.5 77t-110 50t-120.5 44.5t-110.5 51.5t-81.5 80t-31.5 121q0 120 78.5 185.5t240.5 65.5q50 0 103.5 -9.5t81.5 -18.5l28 -10l-2 -19q-100 41 -209 41 q-153 0 -226 -61.5t-73 -173.5q0 -95 69 -157t214 -106q153 -48 218.5 -110t65.5 -166q0 -112 -83 -190t-244 -78q-61 0 -115.5 8.5t-88 21t-58.5 25t-36 21.5z" />
<glyph unicode="&#x456;" horiz-adv-x="501" d="M133 1008v16q80 8 107 8q14 0 14 -117q0 -128 -1 -381.5t-1 -381.5q0 -81 9 -112.5t28 -31.5q8 0 29.5 5t39.5 11l17 5v-15q-69 -22 -96 -22q-26 0 -37 33.5t-11 124.5v763q0 101 -8 101h-8zM219 1323q0 13 8 23t19 10q12 0 20 -9.5t8 -23.5t-8 -24.5t-20 -10.5 q-10 0 -18.5 10.5t-8.5 24.5z" />
<glyph unicode="&#x457;" horiz-adv-x="501" d="M98 1323q0 14 8.5 23.5t20.5 9.5q11 0 19 -10t8 -23q0 -14 -8.5 -24.5t-18.5 -10.5q-12 0 -20.5 10.5t-8.5 24.5zM133 1008v16q80 8 107 8q14 0 14 -117q0 -128 -1 -381.5t-1 -381.5q0 -81 9 -112.5t28 -31.5q8 0 29.5 5t39.5 11l17 5v-15q-69 -22 -96 -22 q-26 0 -37 33.5t-11 124.5v763q0 101 -8 101h-8zM336 1323q0 13 9 23t20 10t19.5 -10t8.5 -23t-8.5 -24t-19.5 -11t-20 11t-9 24z" />
<glyph unicode="&#x458;" horiz-adv-x="464" d="M-8 -512q43 7 85.5 40t82 92t64 158t24.5 222v913q0 26 -1.5 50.5t-3.5 37.5t-3 13h-9l-81 -6v16q79 8 106 8q14 0 14 -117q0 -152 -1 -456.5t-1 -456.5q0 -131 -26 -234.5t-68 -164t-86.5 -93.5t-89.5 -40zM264 1323q0 13 8 23t19 10q12 0 20 -9.5t8 -23.5t-8 -24.5 t-20 -10.5q-10 0 -18.5 10.5t-8.5 24.5z" />
<glyph unicode="&#x459;" horiz-adv-x="1466" d="M61 2q92 39 183 306t164 698l-144 2l2 16h279q103 0 146 -28t48 -91l25 -356q5 6 17.5 17.5t41 32t61.5 37.5t81.5 29.5t97.5 12.5q124 0 204.5 -83t80.5 -237q0 -157 -87 -265.5t-223 -108.5q-57 0 -103 16t-74.5 41.5t-49 56.5t-30 62t-15 56.5t-6.5 41.5v16l-43 623 q-5 59 -44.5 84t-133.5 25h-111q-74 -438 -168 -710.5t-192 -311.5q-7 10 -7 18zM764 532l18 -258q0 -6 0.5 -15.5t5.5 -38t14 -54t28.5 -57t46 -54t69.5 -38t96 -15.5q122 0 202.5 103.5t80.5 250.5t-76.5 224t-193.5 77q-56 0 -109 -15.5t-91.5 -40.5t-57.5 -40t-33 -29z " />
<glyph unicode="&#x45a;" horiz-adv-x="1544" d="M133 1008v16q80 8 107 8q14 0 14 -117q0 -63 -1 -186t-1 -184q222 4 586 4q0 77 1 233t1 242h22v-442q12 11 29 22t53 30.5t88.5 31.5t110.5 12q123 0 203.5 -83.5t80.5 -236.5q0 -157 -87 -265.5t-222 -108.5q-57 0 -103.5 18t-75 47t-49.5 64t-30.5 70.5t-15 64.5 t-6.5 47v18v219q-143 -4 -586 -4v-528h-21v913q0 101 -8 101h-8zM862 315q0 -7 0.5 -18t5.5 -43.5t14 -62t28.5 -65.5t46 -62t69.5 -44t96 -18q123 0 203 103t80 251q0 147 -76.5 224t-193.5 77q-70 0 -136 -21.5t-93 -38.5t-44 -32v-250z" />
<glyph unicode="&#x45b;" horiz-adv-x="1124" d="M49 1286v19h205v231h22v-231h56q64 0 145.5 2t130.5 4l49 2v-19q-163 -8 -325 -8h-56v-670q9 20 24 48t50 76t74 85.5t96.5 66t116.5 28.5q121 0 182 -92t64 -250v-426q0 -81 9 -112.5t28 -31.5q8 0 29.5 5t38.5 11l18 5v-15q-70 -22 -97 -22q-26 0 -36.5 33.5 t-10.5 124.5v405q0 157 -57 249.5t-174 92.5q-60 0 -118 -31t-97 -71.5t-73.5 -90t-47.5 -74.5t-19 -38v-592h-22v1286h-205z" />
<glyph unicode="&#x45c;" d="M133 1008v16q80 8 107 8q14 0 14 -117q0 -306 -2 -460l141 114l441 455h30l-452 -461q370 -555 432 -555q11 0 26.5 5t25.5 9l9 5v-17q-36 -18 -69 -18q-72 0 -441 557l-143 -113v-436h-21v913q0 101 -8 101h-8zM408 1174q28 23 100.5 150.5t81.5 172.5l12 -8 q-9 -48 -83 -176.5t-103 -149.5z" />
<glyph unicode="&#x45d;" horiz-adv-x="1107" d="M133 1008v16q80 8 107 8q14 0 14 -117l-2 -874l291 487l303 496h12v-872q0 -81 9 -112.5t28 -31.5q8 0 29 5t38 11l17 5v-15q-67 -22 -94 -22q-26 0 -37.5 34t-11.5 124q0 138 1 415.5t1 417.5l-594 -983h-13v913q0 101 -8 101zM406 1487l14 10q9 -45 80.5 -171.5 t99.5 -151.5l-10 -13q-28 24 -101 152t-83 174z" />
<glyph unicode="&#x45e;" horiz-adv-x="872" d="M4 1008v16q47 8 88 8q37 0 96 -124t117.5 -302t103 -330t68.5 -251q95 196 201.5 519t124.5 480h22q-18 -160 -128.5 -488t-213.5 -536q-44 -90 -97.5 -177t-97.5 -146t-82 -105.5t-60 -69.5l-21 -22l-19 10q8 8 22.5 23t57.5 66t84.5 106.5t95 142t97.5 174.5l-83 292 q-204 690 -293 721q-4 1 -7 1q-15 0 -34 -2t-30 -4zM229 1333l13 17q3 -5 8 -13.5t24 -30t40.5 -38t57 -30t74.5 -13.5q44 0 85.5 14.5t69.5 35.5t50 41.5t33 35.5l10 14l8 -12q-4 -6 -11 -16t-32.5 -35.5t-53 -45t-71.5 -35.5t-90 -16q-42 0 -79.5 13t-61 32t-41.5 37.5 t-26 31.5z" />
<glyph unicode="&#x45f;" horiz-adv-x="1112" d="M133 1008v16q80 8 107 8q14 0 14 -117v-811q0 -52 33.5 -68t124.5 -16h428v1004h22v-1004h99v-18q-54 -2 -142 -2h-233q-1 -89 -6.5 -194.5t-11.5 -166.5l-5 -61h-20q18 229 20 422h-160q-99 0 -135.5 17.5t-36.5 74.5v821q0 101 -8 101h-8z" />
<glyph unicode="&#x462;" horiz-adv-x="1050" d="M-47 1313v18h295v205h22v-205h525l-2 -18q-359 -2 -523 -2v-578q6 4 17.5 10t46 22.5t69.5 29t84.5 22.5t94.5 10q65 0 126.5 -25t112 -71t81 -119t30.5 -161q0 -94 -26 -178t-74 -148.5t-124 -102.5t-169 -38q-59 0 -107 20.5t-77.5 50.5t-51.5 72t-32 77t-16 73 t-6.5 53t-0.5 24v957zM270 356q0 -7 0.5 -20t6 -49.5t15 -70t30 -74.5t48 -70.5t72.5 -49.5t101 -20q113 0 197.5 62.5t126.5 162t42 219.5q0 83 -29.5 153.5t-77 115t-106.5 69.5t-121 25q-67 0 -143 -23t-119 -46l-43 -23v-361z" />
<glyph unicode="&#x463;" horiz-adv-x="946" d="M33 1012l2 16h203v229l22 3v-232h381v-16q-162 -2 -324 -2h-57v-461q4 6 15 18t37 32.5t56.5 37t77 29t95.5 12.5q124 0 204 -83t80 -237q0 -157 -87 -265.5t-222 -108.5q-55 0 -100 14t-73.5 34.5t-49.5 50t-31 55.5t-16 56.5t-7 47t-1 32.5v736zM260 274q0 -15 1 -29.5 t6.5 -43.5t15 -53.5t29 -52.5t46 -47.5t68.5 -32.5t94 -13q123 0 203 103t80 251q0 147 -76 224t-192 77q-59 0 -111.5 -17t-88 -43.5t-50 -40t-25.5 -26.5v-256z" />
<glyph unicode="&#x490;" horiz-adv-x="776" d="M137 1311v18q15 0 58 1t73 1h363q58 0 85 20.5t27 63.5v305l17 2q2 -176 2 -323q0 -88 -127 -88h-365v-1311h-22v1311h-111z" />
<glyph unicode="&#x491;" horiz-adv-x="704" d="M133 1008v16h465q49 0 62.5 36.5t13.5 129.5v164l16 2q4 -121 4 -172q0 -99 -16 -138.5t-68 -39.5h-356q0 -167 -1 -503t-1 -503h-21v1006z" />
<glyph unicode="&#x2000;" horiz-adv-x="902" />
<glyph unicode="&#x2001;" horiz-adv-x="1804" />
<glyph unicode="&#x2002;" horiz-adv-x="902" />
<glyph unicode="&#x2003;" horiz-adv-x="1804" />
<glyph unicode="&#x2004;" horiz-adv-x="601" />
<glyph unicode="&#x2005;" horiz-adv-x="451" />
<glyph unicode="&#x2006;" horiz-adv-x="300" />
<glyph unicode="&#x2007;" horiz-adv-x="300" />
<glyph unicode="&#x2008;" horiz-adv-x="225" />
<glyph unicode="&#x2009;" horiz-adv-x="360" />
<glyph unicode="&#x200a;" horiz-adv-x="100" />
<glyph unicode="&#x2010;" horiz-adv-x="514" d="M76 627v18h362v-18h-362z" />
<glyph unicode="&#x2011;" horiz-adv-x="514" d="M76 627v18h362v-18h-362z" />
<glyph unicode="&#x2012;" horiz-adv-x="514" d="M76 627v18h362v-18h-362z" />
<glyph unicode="&#x2013;" horiz-adv-x="751" d="M76 627v18h600l-2 -18h-598z" />
<glyph unicode="&#x2014;" horiz-adv-x="1136" d="M76 627v18h985v-18h-985z" />
<glyph unicode="&#x2018;" horiz-adv-x="370" d="M133 958q0 109 35 204t102 198l17 -6q-64 -100 -95.5 -192t-31.5 -199l16 -39q0 -2 -11 -8.5t-15 -6.5q-17 0 -17 49z" />
<glyph unicode="&#x2019;" horiz-adv-x="370" d="M68 897q64 100 95.5 191.5t31.5 199.5l-15 37q0 2 10.5 9t14.5 7q16 0 16 -49q0 -109 -35 -203.5t-102 -199.5z" />
<glyph unicode="&#x201a;" horiz-adv-x="370" d="M57 -127q64 98 95.5 190t31.5 201l-14 37q0 2 10.5 8t14.5 6q16 0 16 -49q0 -108 -35 -202t-102 -199z" />
<glyph unicode="&#x201c;" horiz-adv-x="552" d="M133 958q0 109 35 204t102 198l17 -6q-64 -100 -95.5 -192t-31.5 -199l16 -39q0 -2 -11 -8.5t-15 -6.5q-17 0 -17 49zM315 958q0 109 35.5 204t102.5 198l16 -6q-64 -100 -95.5 -192t-31.5 -199l16 -39q0 -2 -11 -8.5t-15 -6.5q-17 0 -17 49z" />
<glyph unicode="&#x201d;" horiz-adv-x="552" d="M68 897q64 100 95.5 191.5t31.5 199.5l-15 37q0 2 10.5 9t14.5 7q16 0 16 -49q0 -109 -35 -203.5t-102 -199.5zM250 897q64 100 95.5 191.5t31.5 199.5l-15 37q0 2 10.5 9t14.5 7q16 0 16 -49q0 -109 -35 -203.5t-102 -199.5z" />
<glyph unicode="&#x201e;" horiz-adv-x="552" d="M57 -127q64 98 95.5 190t31.5 201l-14 37q0 2 10.5 8t14.5 6q16 0 16 -49q0 -108 -35 -202t-102 -199zM240 -127q64 98 95.5 190t31.5 201l-15 37q0 2 10.5 8t14.5 6q16 0 16 -49q0 -108 -35 -202t-102 -199z" />
<glyph unicode="&#x2026;" horiz-adv-x="1071" d="M158 68q0 13 8.5 22.5t19.5 9.5t19 -9.5t8 -22.5t-8 -22t-19 -9t-19.5 9t-8.5 22zM506 68q0 13 9 22.5t20 9.5t18.5 -9.5t7.5 -22.5t-7.5 -22t-18.5 -9t-20 9t-9 22zM854 68q0 13 9 22.5t20 9.5t18.5 -9.5t7.5 -22.5t-7.5 -22t-18.5 -9t-20 9t-9 22z" />
<glyph unicode="&#x202f;" horiz-adv-x="360" />
<glyph unicode="&#x2039;" horiz-adv-x="583" d="M174 512l270 317l13 -12l-260 -305l260 -315l-13 -15z" />
<glyph unicode="&#x203a;" horiz-adv-x="583" d="M129 195l258 305l-258 315l12 14l269 -329l-269 -318z" />
<glyph unicode="&#x205f;" horiz-adv-x="451" />
<glyph unicode="&#x20ac;" horiz-adv-x="1138" d="M104 514v18h127q-6 61 -6 127q0 69 6 134h-127v18h129q32 251 164.5 393t331.5 142q92 0 172.5 -13.5t114.5 -26.5l35 -14v-20q-14 6 -40 15t-110 24.5t-172 15.5q-190 0 -316 -137t-157 -379h516v-18h-518q-6 -65 -6 -131q0 -68 6 -130h518v-18h-516q29 -244 152.5 -378 t314.5 -134q65 0 127.5 17.5t105 42.5t76.5 50t50 42l16 18l4 -16q-6 -7 -17 -18.5t-48.5 -41t-79 -52.5t-106.5 -41.5t-132 -18.5q-199 0 -327 139.5t-159 390.5h-129z" />
<glyph unicode="&#x2122;" horiz-adv-x="1411" d="M115 1520v16h506l-3 -16h-266v-701h-16v701h-221zM674 819q61 424 98 699l-63 4v14h77q5 0 11 -9t13.5 -29.5t15 -45t19 -64.5t21.5 -78.5t24.5 -96.5t27.5 -109t32 -125.5t35 -136.5q54 136 114.5 309.5t94.5 278.5l33 106h16l60 -717h-15l-59 680q-134 -415 -238 -680 h-14q-27 103 -58.5 223.5t-49.5 190t-36 136.5t-29 100.5t-18 43.5l-98 -694h-14z" />
<glyph unicode="&#x25fc;" horiz-adv-x="1034" d="M0 0v1034h1034v-1034h-1034z" />
</font>
</defs>
</svg>
