<?xml version="1.0" standalone="no"?>
<!DOCTYPE svg PUBLIC "-//W3C//DTD SVG 1.1//EN" "http://www.w3.org/Graphics/SVG/1.1/DTD/svg11.dtd" >
<svg xmlns="http://www.w3.org/2000/svg">
<metadata></metadata>
<defs>
<font id="oksana_text_narrowLtIt" horiz-adv-x="817" >
<font-face units-per-em="2048" ascent="1638" descent="-410" />
<missing-glyph horiz-adv-x="518" />
<glyph horiz-adv-x="2048" />
<glyph horiz-adv-x="2048" />
<glyph unicode="&#xd;" horiz-adv-x="2048" />
<glyph unicode=" "  horiz-adv-x="518" />
<glyph unicode="&#x09;" horiz-adv-x="518" />
<glyph unicode="&#xa0;" horiz-adv-x="518" />
<glyph unicode="!" horiz-adv-x="454" d="M137 70q0 27 17 44t36 17q39 0 39 -41q0 -28 -16.5 -45.5t-36.5 -17.5q-17 0 -28 12t-11 31zM268 561q8 40 47.5 231.5t55 269t41.5 219t43 253.5l61 4q-18 -110 -45 -247t-48 -234t-56.5 -259.5t-51.5 -234.5z" />
<glyph unicode="&#x22;" horiz-adv-x="442" d="M264 1108l21 428h55l-31 -428h-45zM461 1108l20 428h56l-31 -428h-45z" />
<glyph unicode="#" horiz-adv-x="849" d="M143 494l4 43h164l56 254h-211l2 40h219l61 279l41 -2l-61 -277h172l61 279l41 -2l-61 -277h166l-2 -40h-174l-56 -254h221l-2 -43h-227l-61 -277l-39 4l59 273h-172l-59 -277l-41 4l59 273h-160zM354 537h170l56 254h-170z" />
<glyph unicode="$" horiz-adv-x="892" d="M164 201l24 41q4 -3 10.5 -9t31.5 -20.5t53 -25.5t74 -20t96 -9q124 0 201 74.5t77 175.5q0 58 -22 99.5t-57 65.5t-77 43.5t-84.5 40.5t-77.5 48t-57 74t-22 112q0 121 83 199t220 84l49 262h55l-53 -262q44 -2 91.5 -11t72.5 -17l25 -9l-3 -47q-112 38 -208 38 q-123 0 -196 -63t-73 -170q0 -56 22 -97.5t57 -66t77.5 -45t85 -42t77.5 -49t57 -74.5t22 -111q0 -114 -88 -202t-228 -97l-41 -215h-55l45 215q-52 2 -98.5 11.5t-75.5 22.5t-50.5 26t-30.5 21z" />
<glyph unicode="%" horiz-adv-x="1548" d="M281 915q0 182 98 308.5t221 126.5q105 0 164 -78.5t59 -216.5q0 -186 -99.5 -314.5t-221.5 -128.5q-104 0 -162.5 80t-58.5 223zM328 922q0 -127 47 -193.5t133 -66.5q101 0 183.5 112t82.5 273q0 122 -47.5 189t-132.5 67q-101 0 -183.5 -110.5t-82.5 -270.5zM387 -2 l897 1331l59 4l-897 -1331zM944 283q0 180 99.5 307t222.5 127q105 0 163 -79t58 -218q0 -93 -28.5 -176.5t-74 -140t-102.5 -90t-115 -33.5q-105 0 -164 79.5t-59 223.5zM993 289q0 -129 47.5 -195.5t133.5 -66.5q101 0 183.5 112t82.5 273q0 124 -47.5 190t-132.5 66 q-101 0 -184 -110.5t-83 -268.5z" />
<glyph unicode="&#x26;" horiz-adv-x="1507" d="M186 420q0 228 95.5 445t247 350t307.5 133h6q95 -1 146.5 -51t51.5 -140q0 -45 -15 -88.5t-36.5 -76t-51 -62.5t-53 -47.5t-46.5 -32.5q401 174 780 174l-2 -47q-176 0 -334 -35q-60 -250 -83.5 -353.5t-47 -234.5t-23.5 -202q0 -56 16.5 -86.5t65.5 -30.5 q53 0 115 15.5t97 31.5l36 16l-2 -41q-15 -9 -41 -21.5t-97 -34t-132 -21.5q-67 0 -93 39.5t-26 111.5q0 94 20 205q-15 -32 -34.5 -65t-67 -89.5t-102.5 -97.5t-142 -72.5t-184 -31.5q-168 0 -269.5 126t-101.5 314zM246 442q0 -111 39 -202t116 -147t177 -56q65 0 126 16 t107.5 40t90.5 58.5t73 65.5t56.5 67.5t40.5 58t24 42.5q23 126 125 543q-162 -38 -328.5 -109.5t-272.5 -134.5t-218.5 -133t-151.5 -90l-4 -4v-15zM246 489q2 1 30 22.5t37 28t40 29t47 33.5t49 33.5t56.5 37t58.5 35.5t65 38t66.5 36.5t72.5 36.5q9 5 24 15t54 42 t68.5 67t54 88t24.5 106q0 74 -42.5 117.5t-112.5 48.5h-15q-96 0 -196.5 -69t-181 -180t-136 -261.5t-63.5 -303.5z" />
<glyph unicode="'" horiz-adv-x="247" d="M264 1108l21 428h55l-31 -428h-45z" />
<glyph unicode="(" horiz-adv-x="518" d="M207 106q0 165 24 330t62 297t84.5 253t93 209t84.5 154t62 99l24 33l43 -19l-2 -3q-16 -22 -33 -48.5t-61.5 -104t-82 -156.5t-83.5 -200.5t-78 -242.5t-54 -274.5t-22 -305.5q0 -133 16.5 -250.5t33.5 -168.5l16 -52l-58 -16q-3 6 -7.5 18.5t-16.5 56t-21 93 t-16.5 130.5t-7.5 168z" />
<glyph unicode=")" horiz-adv-x="518" d="M-6 -338q9 12 24 34t58 96t82.5 153.5t87.5 202.5t82.5 247.5t58 283t23.5 314.5q0 134 -17 252t-34 169l-17 52l59 17q8 -18 19.5 -53t31 -158.5t19.5 -265.5q0 -163 -24 -327t-62 -294.5t-84.5 -251t-93 -208t-84.5 -152.5t-62 -98l-24 -33z" />
<glyph unicode="*" horiz-adv-x="708" d="M100 1102l19 51l282 -115l-16 336l49 2l-4 -336l281 113l16 -47l-287 -96l201 -267l-47 -28l-178 278l-187 -278l-34 30l196 263z" />
<glyph unicode="+" horiz-adv-x="712" d="M127 549l2 49h252l4 283l43 4l-2 -287h254l-2 -49h-252l-2 -283l-45 -2l2 285h-254z" />
<glyph unicode="," horiz-adv-x="385" d="M-20 -317q194 252 194 409l-29 12q0 2 4.5 11.5t14.5 19.5t22 10q16 0 30.5 -12t14.5 -27q0 -174 -227 -440z" />
<glyph unicode="-" horiz-adv-x="514" d="M129 551v47h352v-47h-352z" />
<glyph unicode="." horiz-adv-x="397" d="M137 70q0 27 17 44t36 17q39 0 39 -41q0 -28 -16.5 -45.5t-36.5 -17.5q-17 0 -28 12t-11 31z" />
<glyph unicode="/" horiz-adv-x="733" d="M-25 -514l824 2048l55 4l-821 -2048z" />
<glyph unicode="0" horiz-adv-x="1050" d="M184 438q0 167 49.5 334.5t127 293t179 204t199.5 78.5q159 0 241.5 -105.5t82.5 -351.5q0 -166 -50.5 -334t-129.5 -293.5t-180.5 -204.5t-198.5 -79q-159 0 -239.5 106t-80.5 352zM248 444q0 -93 12.5 -164t35.5 -117t57.5 -75t74 -41t90.5 -12q113 0 225.5 127 t184 326.5t71.5 398.5q0 116 -19.5 197t-57 126.5t-85.5 65.5t-112 20q-113 0 -225 -127.5t-182 -326.5t-70 -398z" />
<glyph unicode="1" horiz-adv-x="630" d="M170 977l4 53q29 0 85 30.5t115 74t113.5 87.5t89.5 74l35 31l64 6l-264 -1331l-62 -4l246 1251q-65 -56 -135 -110t-159 -108t-132 -54z" />
<glyph unicode="2" horiz-adv-x="884" d="M76 0v41q16 13 43.5 36t106.5 94.5t151 143.5t160 173t151 192.5t106.5 193t43.5 183.5q0 119 -70.5 179t-194.5 60q-63 0 -120 -11t-83 -21l-26 -11v47q11 5 30.5 13t83 21.5t130.5 13.5q144 0 229.5 -67.5t85.5 -209.5q0 -109 -65 -242.5t-157 -249t-205.5 -230 t-197 -186t-145.5 -116.5q11 0 34 1t34 1q78 0 218 -8t199 -8q84 0 130 151l30 -14q-57 -190 -157 -190q-80 0 -258.5 10t-286.5 10z" />
<glyph unicode="3" horiz-adv-x="845" d="M61 102l23 39q3 -4 8.5 -11.5t27.5 -26.5t49.5 -33.5t74.5 -26.5t102 -12q110 0 197 59t130.5 147t43.5 183q0 138 -77 199t-239 61l-6 41q183 219 527 563q-235 -10 -304 -10l-186 4v55q74 -2 197 -2l370 2l-2 -45q-321 -313 -557 -565q170 -3 255 -73t85 -226 q0 -82 -31.5 -161.5t-86.5 -142.5t-137.5 -101.5t-176.5 -38.5q-62 0 -114.5 12.5t-82.5 30.5t-52 36t-30 31z" />
<glyph unicode="4" horiz-adv-x="831" d="M78 389v47q76 120 182.5 256.5t203.5 245t183.5 199.5t138.5 141l52 51l51 4q-146 -612 -205 -891h150v-53h-160q-32 -157 -74 -387l-55 -4q29 188 71 391h-538zM121 434q23 0 95.5 2.5t121.5 3.5q172 0 289 2q75 369 180 805q-61 -60 -131.5 -134t-172 -186.5 t-203.5 -243t-179 -249.5z" />
<glyph unicode="5" horiz-adv-x="819" d="M59 129l23 41q3 -6 8.5 -15t27.5 -33t49 -42.5t73.5 -33.5t99.5 -15q86 0 159 36t120.5 95.5t73.5 135.5t26 157q0 133 -112 217t-304 84l-6 2q42 179 79 323t54 198l16 54q160 -2 238 -2q34 0 90.5 4.5t96.5 8.5l40 4l-2 -50q-145 -24 -231 -24h-199q-62 -217 -121 -473 q193 -7 307.5 -101.5t114.5 -242.5q0 -124 -52.5 -232t-153.5 -176.5t-228 -68.5q-61 0 -113.5 15.5t-83 37.5t-52 43.5t-29.5 37.5z" />
<glyph unicode="6" horiz-adv-x="935" d="M172 346q0 156 48 306.5t128 269t181 212t211 148.5t214 66v-48q-122 -16 -252 -99.5t-244.5 -228.5t-172.5 -317q166 154 333 154q132 0 206.5 -77t74.5 -220q0 -74 -20 -150t-59 -144.5t-91 -121.5t-122.5 -84.5t-147.5 -31.5q-146 0 -216.5 98.5t-70.5 267.5zM233 348 q0 -143 57.5 -229t176.5 -86q82 0 153 42t118 109.5t73.5 150t26.5 165.5q0 124 -66.5 195t-183.5 71q-50 0 -101.5 -16t-93.5 -41t-70 -46t-49 -42q-41 -131 -41 -273z" />
<glyph unicode="7" horiz-adv-x="772" d="M190 0q77 186 186 400.5t217.5 400.5t175.5 296t118 189q-31 -2 -86 -2q-67 0 -170 7t-160 7q-99 0 -137.5 -24t-40.5 -76l-6 -164l-37 -2l4 199q2 61 46 89t157 28q75 0 203 -8.5t223 -8.5h59l-2 -41q-18 -29 -50 -80.5t-122.5 -206t-171.5 -303t-178 -345.5t-162 -359z " />
<glyph unicode="8" horiz-adv-x="948" d="M160 285q0 77 25 142.5t60.5 108t85 77t89 52t80.5 29.5q-164 75 -164 273q0 106 53.5 195.5t136.5 137.5t172 48q118 0 196.5 -70.5t78.5 -183.5q0 -71 -21 -133t-52.5 -103t-74.5 -75t-79.5 -52.5t-75.5 -32.5q37 -14 69 -33.5t66 -52.5t54 -84.5t20 -115.5 q0 -108 -49 -206t-143.5 -162t-211.5 -64q-158 0 -236.5 85t-78.5 220zM215 293q0 -115 65.5 -189.5t198.5 -74.5q99 0 178 56t119.5 142t40.5 181q0 68 -26 120.5t-63 79t-74 43t-63 19.5l-26 4l2 4h-2l-2 -2h-6q-26 -6 -55 -15.5t-70.5 -28.5t-77.5 -49t-68.5 -69 t-51.5 -96.5t-19 -124.5zM391 971q0 -46 11.5 -85t30 -64.5t41 -45.5t44.5 -30.5t40.5 -17.5t29.5 -9l12 -2q6 -2 16 -4q35 10 67 23.5t78.5 44t79.5 68.5t57 100t24 136q0 97 -64 159.5t-166 62.5q-73 0 -142 -43t-114 -121.5t-45 -171.5zM582 694v2v-2z" />
<glyph unicode="9" horiz-adv-x="935" d="M174 -20v49q118 15 245.5 94t241.5 216.5t175 301.5q-67 -44 -160.5 -82.5t-188.5 -38.5q-128 0 -192 74.5t-64 216.5q0 129 54 251t157.5 204t229.5 82q146 0 216 -98t70 -267q0 -156 -48 -306.5t-128 -269t-181.5 -212t-212 -148.5t-214.5 -67zM293 823 q0 -125 56 -192.5t169 -67.5q158 0 330 111q51 148 51 307q0 143 -57.5 229t-175.5 86q-82 0 -153.5 -42t-118.5 -110t-74 -152t-27 -169z" />
<glyph unicode=":" horiz-adv-x="403" d="M143 242q0 27 17.5 44t36.5 17q39 0 39 -41q0 -28 -17 -45.5t-37 -17.5q-17 0 -28 12t-11 31zM233 719q0 27 17.5 44t36.5 17q39 0 39 -41q0 -28 -17 -45.5t-37 -17.5q-17 0 -28 12t-11 31z" />
<glyph unicode=";" horiz-adv-x="399" d="M-51 -317q194 252 194 409l-28 12q0 2 4.5 11.5t14.5 19.5t22 10q16 0 30.5 -12t14.5 -27q0 -172 -228 -440zM233 719q0 27 17.5 44t36.5 17q39 0 39 -41q0 -28 -17 -45.5t-37 -17.5q-17 0 -28 12t-11 31z" />
<glyph unicode="&#x3c;" horiz-adv-x="681" d="M238 653l505 365l27 -29l-473 -334l338 -336l-39 -32z" />
<glyph unicode="=" horiz-adv-x="743" d="M92 436l2 43h582l-2 -43h-582zM104 780l2 43h582l-2 -43h-582z" />
<glyph unicode="&#x3e;" horiz-adv-x="681" d="M106 305l467 332l-337 340l40 29l363 -367l-508 -363z" />
<glyph unicode="?" horiz-adv-x="657" d="M125 70q0 27 17 44t36 17q39 0 39 -41q0 -28 -16.5 -45.5t-36.5 -17.5q-17 0 -28 12t-11 31zM240 1460v47q10 4 29 10.5t83.5 17.5t134.5 11q151 0 230.5 -77t79.5 -230q0 -139 -41 -265.5t-103 -214t-135 -153t-139 -96.5t-113 -31l4 53q36 0 91.5 28.5t120 88.5 t120 140t92.5 197.5t37 246.5q0 134 -66.5 198t-197.5 64q-64 0 -120.5 -8.5t-81.5 -17.5z" />
<glyph unicode="@" horiz-adv-x="1499" d="M180 201q0 176 45.5 341.5t125 295t183 227.5t225.5 150.5t245 52.5q139 0 242 -73.5t153.5 -194.5t50.5 -273q0 -169 -39.5 -316t-98 -238t-122.5 -142t-117 -51q-60 0 -84 23.5t-24 82.5q0 33 6 86q-22 -29 -48.5 -57t-64.5 -61t-82 -53.5t-84 -20.5q-98 0 -156.5 80.5 t-58.5 218.5q0 105 39 207.5t101.5 177.5t143 121t159.5 46q56 0 111.5 -10t82.5 -20l27 -10q-15 -61 -36.5 -156t-58 -283.5t-36.5 -253.5q0 -46 14.5 -63t54.5 -17q34 0 75.5 30t85 91t79.5 142t59 196t23 240q0 105 -25.5 195.5t-74 160.5t-127 110t-177.5 40 q-113 0 -225 -49t-208.5 -142t-171.5 -215.5t-118 -280.5t-43 -327q0 -162 54.5 -295t155.5 -211t229 -78l-4 -45q-138 0 -249 79t-174 221.5t-63 320.5zM524 291q0 -121 51.5 -194.5t139.5 -73.5q35 0 76 20.5t78 53t61.5 57.5t44.5 49q9 64 27.5 157t31.5 153.5t34.5 154 t21.5 94.5q-99 29 -177 29q-91 0 -181.5 -69.5t-149 -186.5t-58.5 -244z" />
<glyph unicode="A" horiz-adv-x="1124" d="M68 0l626 1288l-166 -10v49q167 16 226 16q170 0 176 -206l33 -889q2 -100 11 -152.5t34 -52.5q11 0 43.5 9.5t58.5 18.5l27 9v-47q-133 -43 -166 -43q-40 0 -55 58.5t-17 172.5l-6 180h-563l-197 -403zM350 446h541l-19 670q-6 176 -124 176h-5z" />
<glyph unicode="B" horiz-adv-x="995" d="M197 0l256 1284l-170 -22v49q200 37 325 37q201 0 286 -66.5t85 -191.5q0 -192 -207 -418q78 -30 117 -90.5t39 -163.5q0 -128 -62 -229.5t-161 -155t-213 -53.5q-73 0 -146.5 5t-111.5 10zM264 43q102 -12 232 -12q97 0 180.5 45t137.5 134.5t54 205.5q0 66 -19.5 111.5 t-52.5 73t-91.5 42.5t-122.5 20t-160 5h-33zM397 711q241 0 334 -25q24 25 50.5 59t61.5 87.5t57 118t22 124.5q0 110 -71 165.5t-247 55.5q-42 0 -92 -6z" />
<glyph unicode="C" horiz-adv-x="1054" d="M190 496q0 171 57 331t147 272.5t204 180.5t227 68q89 0 162 -14.5t101 -29.5l28 -14q-40 -153 -84 -385h-43q26 164 66 350q-98 41 -236 41q-99 0 -200 -64t-180.5 -170t-130 -254.5t-50.5 -305.5q0 -221 98.5 -344t259.5 -123q59 0 121.5 17t109.5 41t85.5 48t59.5 41 l20 17l14 -41q-7 -7 -21 -19t-58 -43t-90.5 -54.5t-115 -42.5t-135.5 -19q-192 0 -304 136.5t-112 379.5z" />
<glyph unicode="D" horiz-adv-x="1193" d="M197 0l256 1280l-170 -18v49q256 37 430 37q130 0 226.5 -40t153 -112.5t83 -163t26.5 -201.5q0 -151 -40.5 -287.5t-109.5 -237.5t-157 -175.5t-185 -112.5t-192 -38q-75 0 -155 5t-123 10zM264 51q133 -18 256 -18q109 0 218 58.5t197.5 159.5t144 252.5t55.5 321.5 q0 81 -14.5 150t-47.5 129t-82.5 102t-123.5 66t-167 24q-80 0 -190 -10z" />
<glyph unicode="E" d="M139 285q0 91 31 169.5t82 132.5t114.5 88t131.5 44q-131 69 -131 256q0 86 29 158t76 118t105.5 71.5t120.5 25.5q55 0 107.5 -9t78.5 -19l25 -9v-49q-94 34 -209 34q-110 0 -195 -89t-85 -236q0 -58 15.5 -103.5t36.5 -69t45 -38.5t37 -19t17 -4l136 -2v-53 q-54 2 -144 2q-66 0 -129.5 -26.5t-115.5 -74.5t-83.5 -124t-31.5 -166q0 -107 68.5 -182.5t209.5 -75.5q49 0 97 10.5t82 25t60.5 29t39.5 24.5l14 11l12 -41q-5 -5 -14 -12.5t-40.5 -27t-65.5 -34.5t-88.5 -27.5t-110.5 -12.5q-161 0 -244.5 88.5t-83.5 216.5z" />
<glyph unicode="F" horiz-adv-x="860" d="M201 -2l252 1282h-172v51h749l-2 -49q-285 -2 -516 -2l-117 -590q138 16 219 19.5t240 3.5v-51q-293 -3 -465 -3l-129 -657z" />
<glyph unicode="G" horiz-adv-x="1114" d="M190 500q0 169 57 328.5t147.5 271.5t205 180t227.5 68q81 0 155.5 -14t109.5 -28l34 -14v-53q-14 6 -40 15.5t-103 25.5t-152 16q-84 0 -168.5 -41t-156.5 -116t-128.5 -172t-89 -217.5t-32.5 -243.5q0 -221 107 -346t272 -125q133 0 235 20q121 557 121 654 q0 21 -4.5 26.5t-17.5 5.5l-160 -18l2 45q151 23 182 23t43.5 -11.5t12.5 -44.5q0 -61 -53 -329.5t-83 -403.5h-49q-99 -22 -239 -22q-193 0 -314 139t-121 381z" />
<glyph unicode="H" horiz-adv-x="1230" d="M199 -2q22 103 69.5 333t110.5 552.5t63 365.5q0 20 -5.5 26.5t-18.5 6.5l-162 -20l2 47q164 22 195 22q30 0 42.5 -12t12.5 -45q0 -60 -111 -615l615 3q16 77 68 328t69 339l63 4q-23 -117 -91.5 -445t-111 -543t-42.5 -251q0 -51 37 -51q10 0 41.5 9.5t58.5 18.5l26 9 v-47q-122 -43 -165 -43q-33 0 -48.5 17t-15.5 56q0 67 100 547h-614q-91 -458 -127 -608z" />
<glyph unicode="I" horiz-adv-x="604" d="M152 0v43q12 0 47 1t57 1l244 1241h-158v41q137 4 221 4h113v-43q-10 0 -42 -1t-54 -1h-19l-244 -1241h99l-2 -41q-43 -4 -113 -4h-149z" />
<glyph unicode="J" horiz-adv-x="524" d="M-86 -324q93 0 194.5 143.5t143.5 342.5l221 1124h-160l2 41q134 4 222 4h112l-2 -43q-7 0 -39 -1t-55 -1h-18q-138 -721 -222 -1120q-45 -221 -161 -378t-238 -157v45z" />
<glyph unicode="K" horiz-adv-x="1056" d="M199 -2q22 103 69.5 333t110.5 552.5t63 365.5q0 20 -5.5 26.5t-18.5 6.5l-162 -20l2 47q164 22 195 22q30 0 42.5 -12t12.5 -45q0 -71 -152 -809q418 445 740 868l69 -4q-248 -312 -555 -651q236 -635 320 -635q9 0 40 9.5t58 18.5l27 9v-47q-119 -43 -164 -43 q-96 0 -328 639l-221 -234l-82 -393z" />
<glyph unicode="L" horiz-adv-x="907" d="M102 0v45q19 0 54.5 1t52.5 1q233 1103 233 1202q0 21 -4.5 27t-17.5 6l-162 -20v47q164 22 197 22q30 0 41.5 -12t11.5 -45q0 -100 -238 -1227q131 -1 281 -9.5t174 -8.5q79 0 112 39t33 116l2 115l35 2q2 -108 2 -135q0 -186 -180 -186q-19 0 -215.5 10t-411.5 10z" />
<glyph unicode="M" horiz-adv-x="1562" d="M147 0l463 1282q-45 -1 -98.5 -6t-83.5 -10l-31 -4v49q139 22 250 22q22 0 40 -95.5t33 -298t24.5 -375.5t23.5 -464q105 207 269 514t276 511l112 204l58 4q-14 -113 -55.5 -428t-63 -510.5t-21.5 -300.5q0 -51 31 -51q12 0 44 9.5t58 18.5l25 9v-47q-119 -43 -162 -43 q-32 0 -45.5 16.5t-13.5 59.5q0 65 7.5 160.5t23.5 230t29 233.5t37 274.5t34 249.5q-426 -785 -639 -1212l-51 -4q-60 1051 -88 1221l-426 -1221z" />
<glyph unicode="N" horiz-adv-x="1232" d="M203 -2l254 1282l-142 -18v49q138 22 187 22q24 0 57.5 -60t80 -188.5t90.5 -260t115.5 -346.5t127.5 -376l239 1227l56 4l-260 -1331l-60 -6q-79 221 -183.5 536.5t-165 487t-95.5 229.5l-248 -1247z" />
<glyph unicode="O" horiz-adv-x="1208" d="M188 477q0 178 56.5 343t145.5 278.5t199 181.5t216 68q193 0 303.5 -137t110.5 -369q0 -143 -37 -278t-99.5 -239t-141.5 -183t-167.5 -120.5t-173.5 -41.5q-190 0 -301 138.5t-111 358.5zM260 485q0 -199 93.5 -325.5t254.5 -126.5q73 0 150 39t146 112.5t124 170.5 t87 222.5t32 258.5q0 208 -93 334t-255 126q-92 0 -188 -64.5t-174 -171t-127.5 -259.5t-49.5 -316z" />
<glyph unicode="P" horiz-adv-x="913" d="M199 -2l258 1288l-174 -24v49q234 37 338 37q98 0 169.5 -27t111.5 -74.5t58.5 -104.5t18.5 -126q0 -98 -23.5 -180.5t-63.5 -137t-88.5 -95.5t-103 -63.5t-101.5 -33t-89 -10.5q-92 0 -150 20l-102 -514zM369 563q54 -18 133 -18q46 0 96 11.5t108 44t103.5 81.5 t75.5 132.5t30 189.5q0 130 -72 212t-233 82q-40 0 -96 -6z" />
<glyph unicode="Q" horiz-adv-x="1208" d="M188 477q0 178 56.5 343t145.5 278.5t199 181.5t216 68q193 0 303.5 -137t110.5 -369q0 -170 -52 -326.5t-134.5 -267.5t-185.5 -181.5t-206 -82.5q2 -89 19.5 -168.5t43 -131.5t55 -90t54.5 -55.5t41 -17.5q9 0 40 9.5t58 18.5l27 9v-47q-117 -43 -162 -43 q-26 0 -62.5 32.5t-74 91.5t-64 160.5t-26.5 220.5v7q-123 3 -215 68t-139.5 176t-47.5 253zM260 485q0 -199 93.5 -325.5t254.5 -126.5q73 0 150 39t146 112.5t124 170.5t87 222.5t32 258.5q0 208 -93 334t-255 126q-92 0 -188 -64.5t-174 -171t-127.5 -259.5t-49.5 -316z " />
<glyph unicode="R" horiz-adv-x="1040" d="M197 -2l256 1288l-170 -24v49q206 37 362 37q188 0 289.5 -84.5t101.5 -245.5q0 -78 -20.5 -143.5t-55 -113t-84 -85.5t-103.5 -62t-118 -41q93 -311 135.5 -420.5t79.5 -109.5q9 0 40 9.5t58 18.5l27 9v-47q-119 -43 -166 -43q-42 0 -86.5 114.5t-146.5 454.5 q-110 -22 -234 -22l-106 -535zM371 584q59 0 114.5 5.5t117 18.5t113.5 33.5t100 53.5t81.5 76t53.5 103.5t20 133.5q0 140 -87 215t-245 75q-41 0 -127 -8z" />
<glyph unicode="S" horiz-adv-x="944" d="M109 94l26 49q4 -4 12.5 -11.5t38.5 -26.5t64 -33.5t89.5 -26.5t115.5 -12q141 0 247.5 97t106.5 237q0 171 -215 292q-56 32 -94 60t-76.5 68t-58 90t-19.5 110q0 166 112.5 263.5t295.5 97.5q59 0 123 -16.5t99 -33.5l34 -16q-51 -196 -72 -295h-41q8 49 18 97 t21.5 97.5t15.5 67.5q-105 49 -200 49q-159 0 -252.5 -81.5t-93.5 -223.5q0 -52 18.5 -96t55 -79t71 -59t84.5 -52q111 -64 174 -144t63 -190q0 -108 -57 -199t-151 -142.5t-201 -51.5q-71 0 -133 11.5t-101 28.5t-67.5 34t-40.5 28z" />
<glyph unicode="T" horiz-adv-x="839" d="M211 1282v49h856v-49q-245 -4 -399 -4q-20 -101 -89.5 -433t-107 -524t-37.5 -227q0 -51 35 -51q11 0 43.5 9.5t59.5 18.5l26 9v-47q-123 -43 -166 -43q-33 0 -48 17t-15 56q0 40 41.5 254t108.5 536.5t87 424.5h-6z" />
<glyph unicode="U" horiz-adv-x="1236" d="M252 256q0 89 47.5 301.5t95 417t47.5 274.5q0 20 -5.5 26.5t-18.5 6.5l-160 -20v47q164 22 195 22q30 0 42.5 -12t12.5 -45q0 -67 -47 -274t-94.5 -421t-47.5 -296q0 -234 195 -234q50 0 100 18t90 44.5t80 64.5t67.5 70.5t54.5 71.5t38.5 58t22.5 38q23 114 94.5 457.5 t93.5 457.5l64 4q-24 -121 -92 -446t-111 -541t-43 -252q0 -51 37 -51q10 0 42 9.5t58 18.5l27 9v-47q-123 -43 -164 -43q-34 0 -50 17t-16 56q0 44 49 297q-17 -33 -38 -68.5t-68 -95.5t-97 -104t-122.5 -78t-147.5 -34q-231 0 -231 276z" />
<glyph unicode="V" horiz-adv-x="995" d="M133 1280v49q115 4 160 4q31 0 58.5 -74t47 -200.5t34.5 -262t25.5 -293t16 -255.5t8.5 -185q194 177 370.5 550t225.5 720l62 -4q-31 -224 -134.5 -487t-243 -486t-278.5 -356l-55 -4l-21 364q-61 868 -146 917q-4 3 -9 3h-121z" />
<glyph unicode="W" horiz-adv-x="1624" d="M133 1280v49q115 4 160 4q31 0 58.5 -74t47 -200.5t34.5 -262t25.5 -293t16 -255.5t8.5 -185q120 110 231.5 328t187 456.5t124.5 485.5l53 -4q9 -66 58 -1261q183 184 353 548.5t241 716.5l63 -4q-71 -342 -263 -728.5t-392 -600.5l-58 -4q-21 824 -41 1163 q-88 -347 -237 -670t-318 -489l-55 -4l-21 364q-61 868 -146 917q-4 3 -9 3h-121z" />
<glyph unicode="X" horiz-adv-x="1081" d="M55 0q59 88 131.5 182t126.5 157t145.5 168.5t141.5 164.5q-86 319 -139.5 465.5t-100.5 146.5q-22 0 -60.5 -5.5t-66.5 -10.5l-28 -6v47q123 24 182 24q63 0 115 -135t146 -478q2 -7 3 -11q54 64 167.5 190t198 229t152.5 205q25 -2 70 -2q-76 -111 -166.5 -219 t-214.5 -244.5t-180 -201.5q50 -164 74 -241.5t62 -186t64 -154t46 -45.5q17 0 54.5 9.5t65.5 19.5l29 10v-45q-119 -43 -176 -43q-58 0 -141 228q-38 108 -129 409q-35 -42 -125.5 -149t-136.5 -163t-115.5 -146t-124.5 -171q-25 2 -70 2z" />
<glyph unicode="Y" horiz-adv-x="970" d="M86 -90q96 0 224 57t251 180q-7 54 -10 72.5t-19 133t-29 188.5t-34 197t-41 205.5t-42.5 167t-45 127t-43.5 42.5h-121v49q115 4 160 4q46 0 93.5 -141t84 -357t58 -366.5t34.5 -273.5q179 192 320.5 497.5t193.5 640.5l64 -4q-56 -341 -206.5 -656.5t-350.5 -531.5 q-74 -80 -156 -139.5t-153.5 -89.5t-128.5 -43.5t-103 -13.5v55z" />
<glyph unicode="Z" horiz-adv-x="960" d="M78 0v37l926 1253q-39 -2 -115 -2q-78 0 -205 5t-178 5q-101 0 -139.5 -22.5t-40.5 -75.5l-7 -162h-34l4 193q2 60 46.5 87.5t158.5 27.5q70 0 239 -7.5t273 -7.5h67l-2 -37l-921 -1253q63 4 176 4q110 0 242 -8t151 -8q145 0 145 153v115l37 2v-133q0 -186 -180 -186 q-19 0 -223.5 10t-419.5 10z" />
<glyph unicode="[" horiz-adv-x="569" d="M205 -133l10 1554h358l-2 -43q-143 -4 -303 -4l-10 -1462l305 -2l-2 -43h-356z" />
<glyph unicode="\" horiz-adv-x="733" d="M45 1534l59 4l615 -2048l-60 -4z" />
<glyph unicode="]" horiz-adv-x="569" d="M66 -133l2 43q145 2 307 2l10 1462l-309 4l2 43h358l-10 -1554h-360z" />
<glyph unicode="^" horiz-adv-x="606" d="M250 1083l287 283l168 -285l-29 -28l-150 256l-256 -256z" />
<glyph unicode="_" horiz-adv-x="1095" d="M45 -211l2 43h934l-2 -43h-934z" />
<glyph unicode="`" horiz-adv-x="358" d="M334 1483l39 28q2 -51 43.5 -175.5t66.5 -149.5l-30 -27q-26 24 -72.5 149t-46.5 175z" />
<glyph unicode="a" horiz-adv-x="1017" d="M162 334q0 147 47.5 281t124 227.5t176 149t201.5 55.5q74 0 135 -13t86 -26l24 -13q-182 -825 -182 -886q0 -37 10 -54.5t35 -17.5q20 0 52.5 9.5t55.5 19.5l23 10l-2 -39q-91 -47 -157 -47q-78 0 -78 96q0 23 16 111q-8 -12 -22 -30t-48 -53.5t-70 -63t-87.5 -49 t-100.5 -21.5q-121 0 -180 96.5t-59 257.5zM225 352q0 -143 51.5 -228t157.5 -85q49 0 101 25t95 64t66.5 64t40.5 48q65 329 154 723q-88 36 -191 36q-85 0 -170 -50t-152.5 -134.5t-110 -206.5t-42.5 -256z" />
<glyph unicode="b" horiz-adv-x="970" d="M164 31q293 1437 293 1464q0 8 -8 8l-111 -16v39q122 20 147 20q20 0 27.5 -4.5t7.5 -17.5q0 -24 -135 -699q7 13 31 41.5t68 72t106.5 74.5t124.5 31q81 0 136 -49t78 -122.5t23 -165.5q0 -157 -47 -295t-124 -231.5t-176 -147t-202 -53.5q-73 0 -132.5 12.5t-82.5 25.5 zM229 63q74 -34 185 -34q86 0 171 48t152.5 132t109.5 208.5t42 266.5q0 81 -21 147t-69.5 110t-118.5 44q-50 0 -102.5 -25t-95 -63.5t-66 -64t-39.5 -46.5z" />
<glyph unicode="c" horiz-adv-x="794" d="M162 348q0 104 25.5 206.5t73.5 190t111.5 155t145.5 106t170 38.5q45 0 89 -7.5t65 -14.5l22 -8v-49q-82 30 -174 30q-135 0 -244 -95t-166 -239t-57 -301q0 -83 27.5 -156.5t88 -123t142.5 -49.5q73 0 141.5 26t101.5 52l32 26l8 -35q-5 -5 -13.5 -13t-38 -28.5 t-62 -36.5t-83.5 -29t-104 -13q-73 0 -131.5 31.5t-95 84.5t-55.5 117.5t-19 134.5z" />
<glyph unicode="d" horiz-adv-x="995" d="M162 334q0 147 47.5 280.5t124 226.5t176 148t201.5 55q104 0 184 -26l109 516l59 4q-289 -1368 -289 -1429q0 -37 10 -54.5t35 -17.5q20 0 52.5 9.5t55.5 19.5l23 10v-39q-91 -47 -157 -47q-80 0 -80 96q0 17 16 111q-8 -13 -21.5 -30.5t-47.5 -53t-69.5 -63t-87 -49 t-100.5 -21.5q-122 0 -181.5 96.5t-59.5 257.5zM225 352q0 -143 51.5 -228t157.5 -85q48 0 100.5 25t94.5 62t67.5 64.5t40.5 47.5q19 99 74 369t72 354q-74 36 -183 36q-85 0 -170 -49.5t-152.5 -133.5t-110 -206t-42.5 -256z" />
<glyph unicode="e" horiz-adv-x="827" d="M156 315q0 182 67 351.5t179 273.5t235 104h4q105 -1 168 -68.5t63 -162.5q0 -52 -17 -95.5t-44.5 -75.5t-68 -58t-82.5 -42.5t-94 -29t-95.5 -19t-93 -10.5t-81.5 -5t-67 -1q-14 -74 -14 -155q0 -122 61 -206.5t177 -84.5q49 0 96.5 9.5t79.5 23.5t57 28t37 24l12 9 l8 -37q-4 -4 -12.5 -11.5t-37.5 -26t-61.5 -33t-84.5 -26t-107 -11.5q-135 0 -209.5 95.5t-74.5 239.5zM236 510q38 0 72.5 1.5t86.5 5.5t96.5 13t95 23t89 37t71.5 52.5t50.5 72.5t17.5 94q0 79 -51 135.5t-137 56.5q-84 0 -165 -70t-139 -181t-87 -240z" />
<glyph unicode="f" horiz-adv-x="651" d="M115 -514l293 1489l-179 6v43h187l39 190q34 167 93.5 249.5t164.5 82.5q50 0 94.5 -11t64.5 -23l19 -11l-10 -49q-7 5 -21 12t-58 19t-89 12q-83 0 -126 -66t-73 -210l-39 -195h322v-43q-150 -6 -289 -6h-43l-291 -1485z" />
<glyph unicode="g" horiz-adv-x="931" d="M41 -471l20 43q7 -6 22 -15.5t67.5 -25.5t113.5 -16q184 0 287 136t151 404l29 144l-6 -9q-6 -8 -16 -20.5t-24.5 -29t-32.5 -34.5t-39 -36t-46 -34t-50.5 -28.5t-55 -20t-58.5 -7.5q-122 0 -181.5 96.5t-59.5 257.5q0 147 47.5 280.5t124.5 226.5t176.5 148t202.5 55 q73 0 131 -11.5t80 -22.5l22 -11l-188 -962q-27 -136 -67 -237t-98.5 -177.5t-141.5 -115.5t-189 -39q-44 0 -82.5 6.5t-63 15t-42.5 17.5t-26 15zM225 354q0 -144 51.5 -229.5t157.5 -85.5q40 0 83.5 18t76.5 41.5t65.5 55t49 50t28.5 34.5l144 727q-80 32 -181 32 q-85 0 -170 -49.5t-152.5 -133.5t-110 -205.5t-42.5 -254.5z" />
<glyph unicode="h" horiz-adv-x="1017" d="M160 -2q291 1470 291 1497q0 8 -9 8l-110 -16v39q122 20 147 20q20 0 27.5 -4.5t7.5 -17.5q0 -16 -149 -783q12 19 22.5 35t39.5 57t61 73t72 66t86.5 53t92.5 19q176 0 176 -206q0 -90 -69.5 -384.5t-69.5 -347.5q0 -69 45 -69q21 0 53.5 9.5t55.5 19.5l22 10v-39 q-91 -47 -157 -47q-78 0 -78 96q0 56 67.5 346t67.5 375q-5 178 -145 178q-48 0 -100.5 -28t-92 -65.5t-77 -83t-55.5 -72.5t-26 -42q-26 -132 -60.5 -306.5t-53.5 -270t-23 -115.5z" />
<glyph unicode="i" horiz-adv-x="499" d="M199 86q0 45 84.5 448.5t87.5 450.5q0 6 -9 6l-112 -16l2 39q122 20 147 20q20 0 27 -5t6 -19q-3 -51 -88.5 -457t-85.5 -444q0 -72 45 -72q19 0 52 9.5t56 19.5l23 10v-39q-92 -47 -158 -47q-77 0 -77 96zM426 1321q0 24 16 42.5t35 18.5q37 0 37 -43q0 -26 -16 -44.5 t-35 -18.5q-37 0 -37 45z" />
<glyph unicode="j" horiz-adv-x="434" d="M-211 -487q48 0 103.5 28t113 83.5t108 153t79.5 220.5q8 37 99.5 504t92.5 481q0 8 -8 8l-113 -16l2 39q123 20 148 20q20 0 27.5 -4.5t7.5 -17.5q0 -11 -90 -463.5t-109 -546.5q-30 -134 -83.5 -239.5t-117.5 -168t-130 -94.5t-130 -32v45zM426 1321q0 24 16 42.5 t35 18.5q37 0 37 -43q0 -26 -16 -44.5t-35 -18.5q-37 0 -37 45z" />
<glyph unicode="k" horiz-adv-x="890" d="M160 -2q289 1470 289 1497q0 8 -7 8l-112 -16v39q124 20 149 20q19 0 26 -4.5t7 -17.5q0 -18 -203 -1061q77 59 133 104t128.5 111t119 120t81.5 115.5t38 112.5l61 -2q-14 -191 -407 -494q67 -198 151 -345.5t136 -147.5q21 0 53.5 9.5t54.5 18.5l23 9v-37 q-94 -47 -160 -47q-65 0 -153 148t-156 354l-113 -86l-80 -404z" />
<glyph unicode="l" horiz-adv-x="464" d="M182 86q0 45 134 705t137 704q0 8 -7 8l-112 -16v39q124 20 149 20q31 0 31 -20q0 -47 -136 -712t-136 -705q0 -72 45 -72q18 0 51 9.5t56 18.5l24 9v-37q-92 -47 -158 -47q-78 0 -78 96z" />
<glyph unicode="m" horiz-adv-x="1411" d="M178 -2q191 958 191 985q0 8 -7 8l-112 -16v39q122 20 147 20q20 0 27.5 -4.5t7.5 -17.5q0 -26 -41 -228q12 27 26.5 53.5t43.5 66.5t59.5 69t75 50t90.5 21q168 0 168 -200q0 -29 -8 -70q10 24 23.5 49.5t42.5 68t60.5 73.5t78.5 55t96 24q170 0 170 -200v-6 q-2 -91 -71.5 -384.5t-69.5 -347.5q0 -69 45 -69q21 0 53.5 9.5t55.5 18.5l22 9v-37q-92 -47 -158 -47q-78 0 -78 96q0 54 68.5 347t68.5 378q0 174 -137 174q-44 0 -86.5 -21.5t-71 -49.5t-56 -68t-39 -62t-23.5 -47q-15 -92 -49.5 -268.5t-61 -311t-27.5 -155.5l-57 -4 q1 22 74.5 394t73.5 417q0 176 -138 176q-49 0 -95.5 -26t-81 -67.5t-56 -74.5t-37.5 -67l-147 -748z" />
<glyph unicode="n" horiz-adv-x="1036" d="M178 -2q191 958 191 985q0 8 -7 8l-112 -16v39q122 20 147 20q20 0 27.5 -4.5t7.5 -17.5q0 -26 -45 -258q13 22 31 48t57 72.5t79 81.5t95 61.5t107 26.5q178 0 178 -206q0 -90 -69.5 -385t-69.5 -347q0 -69 45 -69q21 0 53.5 9.5t54.5 19.5l23 10v-39q-92 -47 -158 -47 q-78 0 -78 96q0 55 67 342.5t68 374.5q0 182 -145 182q-45 0 -94.5 -24.5t-87 -56.5t-75 -75.5t-56 -69t-33.5 -48.5l-141 -709z" />
<glyph unicode="o" horiz-adv-x="976" d="M166 375q0 145 42.5 273t111.5 213t154.5 134t172.5 49q96 0 166.5 -55t104.5 -142t34 -192q0 -146 -41.5 -274t-109.5 -214.5t-154.5 -136.5t-175.5 -50q-143 0 -224 111.5t-81 283.5zM227 383q0 -153 66 -253.5t186 -100.5q76 0 150 45.5t133 124.5t95 197.5t36 252.5 q0 145 -68 246.5t-188 101.5q-75 0 -148 -45.5t-131.5 -124t-94.5 -195.5t-36 -249z" />
<glyph unicode="p" horiz-adv-x="985" d="M68 -514q301 1470 301 1497q0 8 -9 8l-110 -16v39q122 20 147 20q20 0 27.5 -4.5t7.5 -17.5q0 -12 -37 -191q13 20 37 48t69.5 72t105.5 73.5t120 29.5q81 0 137 -49t79.5 -123t23.5 -165q0 -157 -47.5 -295t-124.5 -231.5t-176.5 -147t-202.5 -53.5q-101 0 -180 34 l-107 -524zM248 74q74 -45 178 -45q86 0 171 48t152.5 132t109.5 209.5t42 267.5q0 80 -20 145.5t-69 109.5t-120 44q-40 0 -83.5 -18.5t-75.5 -42t-66 -57.5t-48.5 -51t-29.5 -36z" />
<glyph unicode="q" horiz-adv-x="968" d="M162 334q0 147 47.5 280.5t124 226.5t176 148t201.5 55q74 0 135 -12t86 -24l24 -13q-288 -1348 -288 -1411q0 -36 10 -52.5t37 -16.5q20 0 52.5 9.5t54.5 19.5l22 10v-39q-95 -47 -158 -47q-78 0 -78 96q0 43 127 653l-7 -9q-6 -9 -16 -22.5t-24.5 -31.5t-33.5 -37.5 t-40 -39t-46.5 -37t-51.5 -31t-56 -21.5t-59 -8q-121 0 -180 96.5t-59 257.5zM225 352q0 -143 51.5 -228t157.5 -85q41 0 86 20.5t79.5 48t68 61.5t49.5 54.5t26 34.5l148 703q-88 36 -191 36q-85 0 -170 -49.5t-152.5 -133.5t-110 -206t-42.5 -256z" />
<glyph unicode="r" horiz-adv-x="636" d="M178 -2q191 958 191 985q0 8 -7 8l-112 -16v39q122 20 147 20q27 0 27 -22q0 -20 -82 -441q19 50 41.5 100.5t61 121.5t76.5 123.5t86 90t93 37.5q18 0 34.5 -5t23.5 -10l8 -5v-66q-35 19 -72 19q-52 0 -110.5 -54t-107 -136.5t-82.5 -153t-56 -129.5q-99 -496 -100 -502 z" />
<glyph unicode="s" horiz-adv-x="765" d="M82 70l24 41q4 -3 10.5 -9t31.5 -20.5t53 -25.5t74 -20t96 -9q124 0 201 74t77 175q0 58 -22 99.5t-57 66t-77 44t-84.5 40.5t-77.5 48t-57 74t-22 112q0 128 90 206t238 78q49 0 103 -9.5t83 -18.5l29 -10l-2 -48q-113 39 -209 39q-123 0 -196 -63t-73 -170 q0 -56 22 -97.5t57 -66t77.5 -45t85 -42t77.5 -49t57 -74.5t22 -111q0 -121 -95 -210t-245 -89q-57 0 -108.5 9.5t-83 22.5t-55.5 26t-34 22z" />
<glyph unicode="t" horiz-adv-x="667" d="M197 981v43h192l76 305l61 17q-47 -194 -77 -322h325l-2 -43q-151 -6 -305 -6h-31q-162 -689 -162 -823q0 -55 17 -86t67 -31q52 0 113.5 15t96.5 30l36 16v-39q-15 -9 -40.5 -21.5t-96 -34t-131.5 -21.5q-68 0 -94.5 40.5t-26.5 112.5q0 162 162 842q-45 0 -90 1.5 t-67 3.5z" />
<glyph unicode="u" horiz-adv-x="1036" d="M219 193q0 77 37.5 261.5t75 346t37.5 182.5q0 8 -7 8l-112 -16v39q122 20 147 20q20 0 27.5 -4.5t7.5 -17.5q0 -23 -74.5 -361t-74.5 -426q0 -184 147 -184q46 0 96 27t86.5 61t75 81.5t54.5 72t32 49.5q24 124 61 296.5t62 283.5l25 110l59 4q-190 -856 -190 -917 q0 -72 45 -72q21 0 53.5 9.5t54.5 19.5l23 10v-39q-92 -47 -158 -47q-78 0 -78 96q0 31 33 199q-16 -27 -34.5 -56t-57 -77t-77.5 -83t-92 -62t-104 -27q-54 0 -91.5 19.5t-56 53.5t-25.5 67.5t-7 72.5z" />
<glyph unicode="v" horiz-adv-x="835" d="M121 975v39q114 20 149 20q31 0 55.5 -96t37.5 -241t19.5 -287.5t6.5 -262.5q0 -20 -1 -50.5t-1 -41.5q158 205 312.5 517.5t168.5 453.5l62 -2q-20 -156 -201 -493.5t-342 -528.5h-4l-45 -4v10q0 64 -6 209t-17 326.5t-33 314.5t-49 133z" />
<glyph unicode="w" horiz-adv-x="1308" d="M123 975v39q114 20 149 20q28 0 48.5 -76t30.5 -199t15 -248t6 -253q0 -105 -5 -199q151 200 291.5 505.5t158.5 461.5l47 -2q19 -686 19 -936v-35q155 205 301.5 513t161.5 460l57 -2q-12 -111 -97 -307.5t-201.5 -394.5t-219.5 -320h-4l-43 -4v18q0 168 -17 848 q-69 -208 -201 -462.5t-253 -399.5h-5l-45 -4q0 91 -1.5 193t-7.5 316t-24 349t-46 135z" />
<glyph unicode="x" horiz-adv-x="876" d="M43 0q133 221 432 520q-92 299 -127 379q-41 92 -72 92l-112 -16v39q120 20 151 20q17 0 32.5 -12.5t30.5 -41t27.5 -58t28.5 -79t27.5 -88t29.5 -102t31 -104.5q247 261 295 477l60 -2q-31 -131 -117 -254t-219 -260q141 -473 219 -473q21 0 53.5 11.5t54.5 23.5l23 12 v-39q-95 -55 -158 -55q-21 0 -42.5 17t-42 52.5t-38.5 75.5t-39 101.5t-38 114.5t-39 130q-262 -266 -390 -485z" />
<glyph unicode="y" horiz-adv-x="811" d="M-143 -483q56 2 211.5 143.5t293.5 331.5q15 38 15 139q0 143 -23 345.5t-59.5 358.5t-69.5 156l-112 -16v39q112 20 149 20q41 0 80 -146t60.5 -341.5t21.5 -358.5q0 -84 -6 -143q158 225 278 491t166 490l60 -2q-46 -224 -177.5 -499t-302.5 -515 q-159 -222 -334 -380.5t-251 -161.5v49z" />
<glyph unicode="z" d="M135 0l2 43l649 942q-333 -6 -401 -6q-59 0 -80.5 -21t-28.5 -65l-24 -137l-35 -2l29 161q6 31 12 46.5t20 33t39.5 24.5t65.5 7l463 -2l-2 -37l-647 -940q82 -1 214.5 -9.5t202.5 -8.5q23 0 43 11.5t32.5 26.5t24.5 38.5t17 38.5l12 36l33 -14q-7 -26 -17 -51.5 t-28.5 -59.5t-46.5 -54.5t-61 -20.5q-82 0 -231 10t-257 10z" />
<glyph unicode="{" horiz-adv-x="667" d="M201 573v50q67 0 126.5 67.5t59.5 165.5v385q0 147 60 218t212 71v-41q-127 0 -175 -61t-48 -187v-389q0 -86 -46 -155.5t-114 -98.5q68 -31 114 -99.5t46 -154.5v-389q0 -126 48 -187t175 -61v-41q-152 0 -212 71t-60 218v385q0 98 -59.5 165.5t-126.5 67.5z" />
<glyph unicode="|" horiz-adv-x="495" d="M254 -514v2048l59 4v-2048z" />
<glyph unicode="}" horiz-adv-x="667" d="M129 -293q125 0 174 61.5t49 186.5v389q0 85 45.5 154t112.5 100q-66 29 -112 98.5t-46 155.5v389q0 125 -49 186.5t-174 61.5v41q152 0 212 -71t60 -218v-385q0 -98 60 -165.5t125 -67.5v-50q-65 0 -125 -67.5t-60 -165.5v-385q0 -147 -60 -218t-212 -71v41z" />
<glyph unicode="~" horiz-adv-x="1036" d="M178 713q5 6 13.5 17t37 38t58.5 47.5t75.5 37.5t90.5 17q51 0 91 -20t64 -50.5t49.5 -65.5t47.5 -65.5t58 -50.5t81 -20q39 0 75.5 10.5t60 25t41.5 29t26 25.5l8 10l8 -34q-3 -5 -10 -13t-29.5 -29t-48 -37t-65.5 -29t-83 -13q-47 0 -85 20t-60.5 49.5t-48 64.5 t-48 64.5t-60.5 49.5t-85 20q-43 0 -84.5 -14.5t-71 -34.5t-52.5 -40.5t-34 -35.5l-12 -14z" />
<glyph unicode="&#xa2;" horiz-adv-x="794" d="M193 485q0 163 59.5 314.5t167.5 255t239 123.5l50 258h53l-49 -254h6q45 0 89 -8t66 -16l21 -7v-49q-82 31 -174 31q-135 0 -244 -95t-166 -239t-57 -301q0 -83 27.5 -156.5t88 -123.5t142.5 -50q46 0 91 10.5t76.5 26t56.5 31t38 26.5l12 10l9 -34q-4 -5 -12.5 -13 t-37.5 -28t-60.5 -36t-81 -29.5t-101.5 -14.5l-41 -221h-55l45 223q-83 12 -142.5 68t-87.5 133t-28 165z" />
<glyph unicode="&#xa3;" horiz-adv-x="1046" d="M106 0v39q144 8 207 8q12 37 21.5 76.5t17.5 88t13 80t10.5 92.5t7.5 83t7.5 94.5t6.5 85.5h-192v41h194q5 66 11 116t15.5 109.5t22 103.5t31.5 91.5t43 81.5t57 65.5t73 50.5t92.5 30.5t113.5 11.5q69 0 126 -11t79 -23l22 -11l-2 -50q-9 5 -25.5 12.5t-73.5 20 t-120 12.5q-70 0 -127 -17.5t-97 -45.5t-70.5 -74.5t-49.5 -94t-32.5 -115t-20 -126t-12.5 -137.5h374v-41h-378q-17 -282 -34 -394q-18 -118 -50 -206q119 -1 269.5 -9.5t170.5 -8.5q77 0 109.5 38.5t37.5 116.5l7 115l34 2q-4 -108 -4 -135q-3 -91 -44.5 -138.5 t-135.5 -47.5q-19 0 -249 10t-445 10h-11z" />
<glyph unicode="&#xa5;" horiz-adv-x="917" d="M182 311v41h295l49 244h-288l2 41h288q-7 84 -19 174t-33 210.5t-53 197t-69 77.5h-14l-57 -2l2 39q67 6 102 6q31 0 58.5 -38t46.5 -102.5t34 -137t25 -155t15.5 -142.5t8.5 -113q359 465 435 680l59 -2q-88 -220 -463 -692h258v-41h-278l-47 -244h268v-41h-277 l-61 -309l-61 -4l61 313h-287z" />
<glyph unicode="&#xa8;" horiz-adv-x="647" d="M352 1323q0 24 16 43.5t35 19.5q37 0 37 -45q0 -25 -16 -45t-35 -20q-37 0 -37 47zM590 1323q0 24 16 43.5t35 19.5q37 0 37 -45q0 -25 -16 -45t-35 -20q-37 0 -37 47z" />
<glyph unicode="&#xa9;" horiz-adv-x="1347" d="M211 662q0 163 43 293t118 212.5t172 126t208 43.5q112 0 209 -43.5t171.5 -126t117 -212.5t42.5 -293t-42.5 -292.5t-117 -211.5t-171.5 -125t-209 -43t-209 43t-171.5 125t-117.5 211.5t-43 292.5zM252 662q0 -155 39.5 -277.5t108.5 -199.5t159 -117.5t193 -40.5 t192.5 40.5t158.5 117.5t108.5 199.5t39.5 277.5t-39.5 278.5t-108 201.5t-158.5 119.5t-193 41.5t-192.5 -41.5t-158.5 -119.5t-109 -202t-40 -278zM481 641q0 179 80.5 278t216.5 99q37 0 74.5 -5t56.5 -9l19 -5v-34q-78 18 -146 18q-122 0 -192 -90t-70 -252 q0 -154 71.5 -242t174.5 -88q53 0 101 18.5t69 36.5l22 19l15 -18q-3 -4 -9 -10t-27 -21.5t-44 -27.5t-59 -22t-74 -10q-116 0 -197.5 96t-81.5 269z" />
<glyph unicode="&#xab;" horiz-adv-x="841" d="M207 512l313 322l27 -27l-289 -295l172 -307l-37 -33zM471 512l313 322l27 -27l-289 -295l172 -307l-37 -33z" />
<glyph unicode="&#xad;" horiz-adv-x="514" d="M129 551v47h352v-47h-352z" />
<glyph unicode="&#xae;" horiz-adv-x="1081" d="M162 971q0 137 35.5 246t97 178t142 105t173.5 36q92 0 172.5 -36t142.5 -105t98 -178t36 -246q0 -268 -127.5 -414.5t-321.5 -146.5q-94 0 -174.5 36t-142 104t-96.5 176.5t-35 244.5zM201 971q0 -255 115 -390t294 -135q85 0 158.5 32.5t130.5 95.5t90 165t33 232 q0 129 -33 232t-90 167.5t-130.5 98.5t-158.5 34q-177 0 -293 -139t-116 -393zM477 643v655q31 2 133 2q97 0 150 -54t53 -150q0 -137 -139 -201l129 -254h-37l-123 240q-59 -21 -133 -29v-209h-33zM510 877q17 1 42 5t67 18.5t75.5 36.5t58.5 62.5t25 92.5q0 85 -42 132.5 t-124 47.5t-102 -2v-393z" />
<glyph unicode="&#xb4;" horiz-adv-x="358" d="M279 1184q31 23 126 152.5t115 176.5l23 -24q-18 -50 -119 -178t-135 -150z" />
<glyph unicode="&#xb8;" horiz-adv-x="432" d="M16 -422l21 21q2 -3 5.5 -8.5t15.5 -19.5t26 -24.5t37.5 -19t48.5 -8.5q73 0 114.5 48t41.5 122q0 35 -17.5 61t-42.5 42.5t-50 31.5t-42.5 35t-17.5 45q0 18 10 40t20 35l9 13h32q-34 -47 -34 -82q0 -22 18 -40t43.5 -32.5t51 -31.5t43.5 -45.5t18 -67.5 q0 -88 -53 -146.5t-142 -58.5q-31 0 -58.5 9.5t-44.5 22.5t-29.5 26t-17.5 22z" />
<glyph unicode="&#xbb;" horiz-adv-x="841" d="M104 205l285 293l-168 309l35 33l186 -340l-311 -322zM369 205l284 293l-168 309l35 33l187 -340l-312 -322z" />
<glyph unicode="&#x2c6;" horiz-adv-x="606" d="M279 1274l294 237l199 -229l-31 -39l-182 211l-262 -211z" />
<glyph unicode="&#x2da;" horiz-adv-x="753" d="M389 1352q0 100 55.5 169.5t120.5 69.5q55 0 88 -40.5t33 -102.5q0 -104 -54.5 -172t-121.5 -68q-55 0 -88 43t-33 101zM422 1364q0 -52 25 -88.5t67 -36.5q54 0 96.5 59t42.5 148q0 50 -25 82.5t-67 32.5q-59 0 -99 -64.5t-40 -132.5z" />
<glyph unicode="&#x2dc;" horiz-adv-x="702" d="M313 1278q2 5 6.5 14t21 32t35 40.5t49.5 32t64 14.5q47 0 115 -21.5t109 -21.5q27 0 52 10t41.5 24t29 28t18.5 24l6 10l10 -26q-2 -4 -6 -11.5t-18 -26.5t-30.5 -33t-44 -26t-58.5 -12q-47 0 -114.5 20.5t-109.5 20.5q-30 0 -58 -12.5t-46.5 -30t-33 -34.5t-21.5 -29 l-6 -13z" />
<glyph unicode="&#x400;" d="M139 285q0 91 31 169.5t82 132.5t114.5 88t131.5 44q-131 69 -131 256q0 86 29 158t76 118t105.5 71.5t120.5 25.5q55 0 107.5 -9t78.5 -19l25 -9v-49q-94 34 -209 34q-110 0 -195 -89t-85 -236q0 -58 15.5 -103.5t36.5 -69t45 -38.5t37 -19t17 -4l136 -2v-53 q-54 2 -144 2q-66 0 -129.5 -26.5t-115.5 -74.5t-83.5 -124t-31.5 -166q0 -107 68.5 -182.5t209.5 -75.5q49 0 97 10.5t82 25t60.5 29t39.5 24.5l14 11l12 -41q-5 -5 -14 -12.5t-40.5 -27t-65.5 -34.5t-88.5 -27.5t-110.5 -12.5q-161 0 -244.5 88.5t-83.5 216.5zM659 1790 l39 29q2 -51 44 -176t67 -150l-31 -27q-26 24 -72.5 149t-46.5 175z" />
<glyph unicode="&#x401;" d="M139 285q0 91 31 169.5t82 132.5t114.5 88t131.5 44q-131 69 -131 256q0 86 29 158t76 118t105.5 71.5t120.5 25.5q55 0 107.5 -9t78.5 -19l25 -9v-49q-94 34 -209 34q-110 0 -195 -89t-85 -236q0 -58 15.5 -103.5t36.5 -69t45 -38.5t37 -19t17 -4l136 -2v-53 q-54 2 -144 2q-66 0 -129.5 -26.5t-115.5 -74.5t-83.5 -124t-31.5 -166q0 -107 68.5 -182.5t209.5 -75.5q49 0 97 10.5t82 25t60.5 29t39.5 24.5l14 11l12 -41q-5 -5 -14 -12.5t-40.5 -27t-65.5 -34.5t-88.5 -27.5t-110.5 -12.5q-161 0 -244.5 88.5t-83.5 216.5zM563 1630 q0 24 16 44t35 20q37 0 37 -45q0 -25 -16 -45.5t-35 -20.5q-37 0 -37 47zM801 1630q0 24 16 44t35 20q37 0 37 -45q0 -25 -16 -45.5t-35 -20.5q-37 0 -37 47z" />
<glyph unicode="&#x402;" horiz-adv-x="1249" d="M211 1282v49h856v-49q-249 -4 -403 -4l-136 -682q14 17 30 35t55.5 52.5t79 60t97 45.5t113.5 20q117 0 164 -71t47 -218q0 -90 -19.5 -203t-60 -232.5t-94.5 -219.5t-131.5 -165.5t-163.5 -68.5v45q74 2 141 63.5t114 155t81.5 205t51 215t16.5 183.5q0 133 -36.5 194.5 t-144.5 61.5q-58 0 -118 -24t-108 -62t-75 -64t-49 -51l-108 -551l-60 -4l254 1280h-4z" />
<glyph unicode="&#x403;" horiz-adv-x="858" d="M201 -2l250 1276l-168 -12v49q355 32 591 32q65 0 89 -24t24 -72q0 -38 -12.5 -101t-25.5 -107l-13 -44h-35q0 1 9.5 40t18.5 89.5t9 79.5q0 45 -19.5 65.5t-68.5 20.5q-132 0 -336 -12l-252 -1276zM614 1460q31 23 126.5 153t115.5 177l23 -25q-18 -50 -119 -177.5 t-135 -149.5z" />
<glyph unicode="&#x404;" horiz-adv-x="1028" d="M188 485q0 140 37 273.5t100.5 238.5t144 185t173 123t182.5 43q83 0 149 -13.5t91 -26.5l25 -14v-53q-11 6 -32.5 15t-92.5 24.5t-148 15.5q-180 0 -343 -181.5t-208 -452.5q199 24 639 24l-2 -53q-473 -2 -643 -2q-8 -60 -8 -139q0 -212 106 -334.5t265 -122.5 q59 0 119 17t104.5 41.5t81 49t54.5 41.5l19 17l13 -39q-7 -7 -20 -19.5t-56 -44t-88 -55.5t-112 -43.5t-132 -19.5q-184 0 -301 136.5t-117 368.5z" />
<glyph unicode="&#x405;" horiz-adv-x="944" d="M78 94l26 49q4 -4 12.5 -11.5t38.5 -26.5t64 -33.5t89.5 -26.5t115.5 -12q141 0 247.5 97t106.5 237q0 171 -215 292q-56 32 -94 60t-76.5 68t-58 90t-19.5 110q0 166 112.5 263.5t295.5 97.5q59 0 123 -16.5t98 -33.5l35 -16q-51 -196 -72 -295h-41q8 48 18.5 97t22 97 t15.5 68q-105 49 -201 49q-159 0 -252.5 -81.5t-93.5 -223.5q0 -52 18.5 -96t55 -79t71 -59t84.5 -52q111 -64 174.5 -144t63.5 -190q0 -108 -57 -199t-151 -142.5t-202 -51.5q-71 0 -133 11.5t-101 28.5t-67.5 34t-40.5 28z" />
<glyph unicode="&#x406;" horiz-adv-x="604" d="M121 0v43q12 0 47 1t57 1l244 1241h-158v41q137 4 221 4h113v-43q-9 0 -42 -1t-54 -1h-19l-243 -1241h98l-2 -41q-43 -4 -113 -4h-149z" />
<glyph unicode="&#x407;" horiz-adv-x="604" d="M121 0v43q12 0 47 1t57 1l244 1241h-158v41q137 4 221 4h113v-43q-9 0 -42 -1t-54 -1h-19l-243 -1241h98l-2 -41q-43 -4 -113 -4h-149zM406 1599q0 24 16 44t35 20q37 0 37 -45q0 -25 -16.5 -45.5t-35.5 -20.5q-36 0 -36 47zM643 1599q0 24 16 44t35 20q37 0 37 -45 q0 -25 -16 -45.5t-35 -20.5q-37 0 -37 47z" />
<glyph unicode="&#x408;" horiz-adv-x="524" d="M-117 -324q93 0 194.5 143.5t143.5 342.5l221 1124h-159l2 41q133 4 221 4h112l-2 -43q-7 0 -39 -1t-55 -1h-18q-149 -777 -221 -1120q-45 -221 -161.5 -378t-238.5 -157v45z" />
<glyph unicode="&#x409;" horiz-adv-x="1605" d="M66 2q174 248 337 610.5t246 665.5l-209 -16v49q8 0 67 5.5t138.5 11t136.5 5.5q166 0 219.5 -33t53.5 -137q0 -64 -66 -428q24 15 58.5 32t109 39.5t139.5 22.5q113 0 186.5 -77.5t73.5 -208.5q0 -97 -33.5 -197t-91 -181.5t-143 -133t-180.5 -51.5q-61 0 -107.5 21.5 t-72 52.5t-41.5 74.5t-20.5 79t-4.5 73.5q0 98 64.5 454.5t64.5 411.5q0 86 -40 110.5t-173 24.5q-11 0 -35 -1t-38 -1q-89 -316 -255.5 -692.5t-332.5 -607.5zM926 279q0 -40 8 -78t27 -78.5t59.5 -65t97.5 -24.5q105 0 193 77.5t135 190.5t47 227t-62.5 184t-160.5 70 q-118 0 -289 -88q-50 -283 -55 -387v-28z" />
<glyph unicode="&#x40a;" horiz-adv-x="1665" d="M193 -2q22 103 69.5 333t110.5 552.5t63 365.5q0 21 -4.5 27t-17.5 6l-164 -20l2 47q164 22 197 22q30 0 41.5 -12t11.5 -45q0 -60 -111 -615l613 3l141 667l61 4l-131 -628q17 15 37.5 30.5t58.5 39.5t87 39t98 15q115 0 187.5 -77.5t72.5 -208.5t-56 -259.5 t-161.5 -216t-231.5 -87.5q-229 0 -229 274q0 76 55 356h-612q-25 -128 -56 -277t-49.5 -235.5t-19.5 -95.5zM1001 260q0 -227 179 -227q104 0 192.5 77.5t135 190.5t46.5 227t-63.5 184t-161.5 70q-54 0 -114.5 -27t-92 -50t-55.5 -46q-66 -325 -66 -399z" />
<glyph unicode="&#x40b;" horiz-adv-x="1290" d="M211 1282v49h856v-49q-249 -4 -403 -4l-138 -684q51 57 79 82q149 132 302 133q120 0 167.5 -53.5t47.5 -161.5q0 -84 -44 -277t-44 -227q0 -27 7.5 -38t27.5 -11q11 0 43.5 6.5t59.5 13.5l26 7l-2 -43q-123 -35 -164 -35q-33 0 -48 17t-15 56q0 36 44 228t44 272 q0 97 -38 144t-151 47q-60 0 -121.5 -25.5t-110 -65.5t-74 -65t-44.5 -49l-108 -547l-60 -4l254 1280h-4z" />
<glyph unicode="&#x40c;" horiz-adv-x="1056" d="M199 -2q22 103 69.5 333t110.5 552.5t63 365.5q0 20 -5.5 26.5t-18.5 6.5l-162 -20l2 47q164 22 195 22q30 0 42.5 -12t12.5 -45q0 -71 -152 -809q418 445 740 868l69 -4q-248 -312 -555 -651q236 -635 320 -635q9 0 40 9.5t58 18.5l27 9v-47q-119 -43 -164 -43 q-96 0 -328 639l-221 -234l-82 -393zM719 1491q31 23 126.5 153t115.5 177l22 -25q-18 -50 -119 -178t-135 -150z" />
<glyph unicode="&#x40d;" horiz-adv-x="1241" d="M203 -2q2 14 62.5 310.5t118.5 597.5t58 343q0 20 -5.5 26.5t-18.5 6.5l-162 -20l2 47q164 22 195 22q30 0 42.5 -12t12.5 -45q0 -60 -89 -502.5t-140 -662.5l432 589l471 633l41 2q-24 -121 -92 -446t-111 -541t-43 -252q0 -27 7.5 -39t27.5 -12q11 0 43.5 9.5 t58.5 18.5l27 9v-47q-125 -43 -166 -43q-34 0 -49 17t-15 56q0 102 234 1158l-414 -562l-491 -659zM780 1759l39 29q2 -51 44 -176t67 -150l-31 -26q-26 24 -72.5 148.5t-46.5 174.5z" />
<glyph unicode="&#x40e;" horiz-adv-x="970" d="M55 -90q96 0 224 57t251 180q-7 54 -10 72.5t-19 133t-29 188.5t-34 197t-41 205.5t-42.5 167t-45 127t-43.5 42.5h-121v49q115 4 160 4q46 0 93.5 -141t84 -357t58 -366.5t34.5 -273.5q179 193 321 498.5t194 639.5l63 -4q-56 -341 -206.5 -656.5t-350.5 -531.5 q-74 -80 -156 -139.5t-153.5 -89.5t-128.5 -43.5t-103 -13.5v55zM569 1577l27 41q2 -4 5.5 -10t17.5 -22t30 -28t44 -22t59 -10q38 0 79.5 22t73.5 54t59 63.5t42 53.5l14 22l24 -19q-6 -10 -16.5 -26.5t-43.5 -58t-66.5 -73.5t-82.5 -58.5t-94 -26.5q-34 0 -64.5 10 t-49.5 24.5t-32.5 29t-19.5 24.5z" />
<glyph unicode="&#x40f;" horiz-adv-x="1187" d="M240 213q0 73 101 514.5t101 511.5q0 21 -5 27t-19 6l-162 -19v47q164 23 197 23q30 0 41.5 -12t11.5 -45q0 -70 -100.5 -520.5t-100.5 -518.5q0 -41 9 -71.5t33.5 -59.5t75 -44t126.5 -15q156 0 323 10l254 1282l60 4l-254 -1284l170 12v-49q-213 -22 -465 -28 q-34 -109 -56.5 -220t-28.5 -167l-5 -56l-53 -2q1 23 5 63t25.5 156.5t55.5 223.5h-48q-72 0 -125 12.5t-84.5 32.5t-50.5 51t-25.5 62.5t-6.5 72.5z" />
<glyph unicode="&#x410;" horiz-adv-x="1124" d="M68 0l626 1288l-166 -10v49q167 16 226 16q170 0 176 -206l33 -889q2 -100 11 -152.5t34 -52.5q11 0 43.5 9.5t58.5 18.5l27 9v-47q-133 -43 -166 -43q-40 0 -55 58.5t-17 172.5l-6 180h-563l-197 -403zM350 446h541l-19 670q-6 176 -124 176h-5z" />
<glyph unicode="&#x411;" horiz-adv-x="999" d="M197 0l256 1280h-170l2 51h745v-49q-291 -2 -522 -2l-102 -524q115 20 198 20q164 0 249 -92t85 -238q0 -192 -129.5 -329t-316.5 -137q-79 0 -153 5t-108 10zM264 43q102 -12 232 -12q104 0 192 55.5t138.5 148.5t50.5 201q0 129 -74.5 210t-218.5 81q-76 0 -189 -18z " />
<glyph unicode="&#x412;" horiz-adv-x="995" d="M166 0l256 1284l-170 -22v49q201 37 326 37q200 0 285 -66.5t85 -191.5q0 -192 -207 -418q78 -30 117 -90.5t39 -163.5q0 -128 -62 -229.5t-161 -155t-213 -53.5q-73 0 -146.5 5t-110.5 10zM233 43q102 -12 232 -12q72 0 138.5 27t119 75t84 122t31.5 161 q0 66 -19.5 111.5t-52.5 73t-92 42.5t-123 20t-160 5h-33zM367 711q240 0 333 -25q24 25 50.5 59t61.5 87.5t57 118t22 124.5q0 110 -71 165.5t-247 55.5q-43 0 -92 -6z" />
<glyph unicode="&#x413;" horiz-adv-x="858" d="M201 -2l250 1276l-168 -12v49q355 32 591 32q65 0 89 -24t24 -72q0 -38 -12.5 -101t-25.5 -107l-13 -44h-35q0 1 9.5 40t18.5 89.5t9 79.5q0 45 -19.5 65.5t-68.5 20.5q-132 0 -336 -12l-252 -1276z" />
<glyph unicode="&#x414;" horiz-adv-x="1159" d="M57 -416l4 467h109q142 295 261 621t187 604l-180 -14v49q213 22 340 22q166 0 219.5 -33t53.5 -137q0 -108 -25.5 -284.5t-70 -430.5t-64.5 -397l153 2q-42 -120 -70 -245.5t-35 -191.5l-7 -65l-53 -4q2 24 6 66t27 161.5t57 227.5q-59 0 -413 -1t-445 -1l-5 -406z M229 51h598q20 143 64.5 392.5t71 427t26.5 276.5q0 86 -40.5 110.5t-172.5 24.5q-24 0 -102 -4q-67 -273 -188.5 -606.5t-256.5 -620.5z" />
<glyph unicode="&#x415;" d="M139 285q0 91 31 169.5t82 132.5t114.5 88t131.5 44q-131 69 -131 256q0 86 29 158t76 118t105.5 71.5t120.5 25.5q55 0 107.5 -9t78.5 -19l25 -9v-49q-94 34 -209 34q-110 0 -195 -89t-85 -236q0 -58 15.5 -103.5t36.5 -69t45 -38.5t37 -19t17 -4l136 -2v-53 q-54 2 -144 2q-66 0 -129.5 -26.5t-115.5 -74.5t-83.5 -124t-31.5 -166q0 -107 68.5 -182.5t209.5 -75.5q49 0 97 10.5t82 25t60.5 29t39.5 24.5l14 11l12 -41q-5 -5 -14 -12.5t-40.5 -27t-65.5 -34.5t-88.5 -27.5t-110.5 -12.5q-161 0 -244.5 88.5t-83.5 216.5z" />
<glyph unicode="&#x416;" horiz-adv-x="1529" d="M61 0q224 300 545 621q-97 373 -147 518t-97 145q-22 0 -61 -5.5t-67 -10.5l-29 -6v47q122 24 192 24q51 0 111 -162t145 -503l195 186l94 475l59 4l-157 -786q197 177 386.5 385.5t323.5 400.5l70 -2q-207 -282 -539 -610q100 -355 162 -516.5t111 -161.5q12 0 43 7.5 t55 14.5l25 7v-47q-111 -35 -162 -35q-53 0 -121 171t-162 511q-99 -99 -205 -191l-94 -479l-57 -4l154 786q-479 -463 -703 -786z" />
<glyph unicode="&#x417;" horiz-adv-x="864" d="M76 102l26 43q4 -5 11.5 -12.5t34 -27t57 -34.5t80 -27.5t102.5 -12.5q74 0 140 33.5t110.5 87.5t70 122t25.5 136q0 107 -54 177t-147 70q-25 0 -49.5 -1t-43 -3t-32.5 -4t-22.5 -3t-9.5 -1v45q74 12 166 12q9 2 35 15t66.5 44t76 71t61 103t25.5 134q0 104 -69 165.5 t-183 61.5q-57 0 -116 -9t-89 -18l-31 -9v47q105 41 252 41q130 0 210.5 -70.5t80.5 -194.5q0 -63 -19 -121t-46 -98t-64.5 -76t-66.5 -56.5t-60 -37.5q89 -22 141 -99t52 -183q0 -108 -53.5 -207.5t-149.5 -162t-209 -62.5q-60 0 -114 12.5t-88 30.5t-59.5 36t-36.5 31z " />
<glyph unicode="&#x418;" horiz-adv-x="1241" d="M203 -2q2 14 62.5 310.5t118.5 597.5t58 343q0 20 -5.5 26.5t-18.5 6.5l-162 -20l2 47q164 22 195 22q30 0 42.5 -12t12.5 -45q0 -60 -89 -502.5t-140 -662.5l432 589l471 633l41 2q-24 -121 -92 -446t-111 -541t-43 -252q0 -27 7.5 -39t27.5 -12q11 0 43.5 9.5 t58.5 18.5l27 9v-47q-125 -43 -166 -43q-34 0 -49 17t-15 56q0 102 234 1158l-414 -562l-491 -659z" />
<glyph unicode="&#x419;" horiz-adv-x="1241" d="M203 -2q2 14 62.5 310.5t118.5 597.5t58 343q0 20 -5.5 26.5t-18.5 6.5l-162 -20l2 47q164 22 195 22q30 0 42.5 -12t12.5 -45q0 -60 -89 -502.5t-140 -662.5l432 589l471 633l41 2q-24 -121 -92 -446t-111 -541t-43 -252q0 -27 7.5 -39t27.5 -12q11 0 43.5 9.5 t58.5 18.5l27 9v-47q-125 -43 -166 -43q-34 0 -49 17t-15 56q0 102 234 1158l-414 -562l-491 -659zM668 1577l26 41q2 -4 5.5 -10t17.5 -22t30 -28t44 -22t59 -10q38 0 79.5 22t73.5 54t59 63.5t42 53.5l14 22l25 -19q-6 -10 -16.5 -26.5t-43.5 -58t-66.5 -73.5t-82.5 -58.5 t-94 -26.5q-34 0 -64.5 10t-49.5 24.5t-32.5 29t-19.5 24.5z" />
<glyph unicode="&#x41a;" horiz-adv-x="1056" d="M199 -2q22 103 69.5 333t110.5 552.5t63 365.5q0 20 -5.5 26.5t-18.5 6.5l-162 -20l2 47q164 22 195 22q30 0 42.5 -12t12.5 -45q0 -71 -152 -809q418 445 740 868l69 -4q-248 -312 -555 -651q236 -635 320 -635q9 0 40 9.5t58 18.5l27 9v-47q-119 -43 -164 -43 q-96 0 -328 639l-221 -234l-82 -393z" />
<glyph unicode="&#x41b;" horiz-adv-x="1148" d="M66 2q174 248 337 610.5t246 665.5l-209 -16v49q8 0 67 5.5t138.5 11t136.5 5.5q166 0 219.5 -33t53.5 -137q0 -59 -75 -500t-75 -538q0 -46 7.5 -64t25.5 -18q14 0 46 9.5t58 18.5l25 9v-47q-119 -43 -166 -43q-33 0 -47 22.5t-14 81.5q0 111 75.5 556.5t75.5 496.5 q0 86 -40 110.5t-173 24.5q-11 0 -35 -1t-38 -1q-89 -316 -255.5 -692.5t-332.5 -607.5z" />
<glyph unicode="&#x41c;" horiz-adv-x="1562" d="M147 0l463 1282q-45 -1 -98.5 -6t-83.5 -10l-31 -4v49q139 22 250 22q22 0 40 -95.5t33 -298t24.5 -375.5t23.5 -464q105 207 269 514t276 511l112 204l58 4q-14 -113 -55.5 -428t-63 -510.5t-21.5 -300.5q0 -51 31 -51q12 0 44 9.5t58 18.5l25 9v-47q-119 -43 -162 -43 q-32 0 -45.5 16.5t-13.5 59.5q0 65 7.5 160.5t23.5 230t29 233.5t37 274.5t34 249.5q-426 -785 -639 -1212l-51 -4q-60 1051 -88 1221l-426 -1221z" />
<glyph unicode="&#x41d;" horiz-adv-x="1230" d="M193 -2q22 103 69.5 333t110.5 552.5t63 365.5q0 20 -5.5 26.5t-18.5 6.5l-162 -20l2 47q163 22 194 22q30 0 43 -12t13 -45q0 -60 -111 -615l615 3q16 77 68 328t69 339l63 4q-23 -117 -91.5 -445t-111 -543t-42.5 -251q0 -27 8 -39t28 -12q10 0 42 9.5t59 18.5l26 9 v-47q-123 -43 -166 -43q-33 0 -48 17t-15 56q0 67 100 547h-614q-91 -458 -127 -608z" />
<glyph unicode="&#x41e;" horiz-adv-x="1210" d="M158 477q0 144 36.5 280t99 241t141 185t167 122.5t172.5 42.5q193 0 303.5 -137t110.5 -369q0 -143 -37 -278t-99.5 -239t-141.5 -183t-167.5 -120.5t-173.5 -41.5q-190 0 -300.5 138.5t-110.5 358.5zM229 485q0 -199 94 -325.5t255 -126.5q92 0 188 62.5t173.5 167 t127 256.5t49.5 317q0 208 -93 334t-255 126q-92 0 -188 -64.5t-174 -171t-127.5 -259.5t-49.5 -316z" />
<glyph unicode="&#x41f;" horiz-adv-x="1204" d="M201 -2l252 1276l-170 -12v49q277 32 569 32q94 0 154.5 -10.5t91.5 -35t42 -54t11 -76.5q0 -88 -102.5 -560t-102.5 -513q0 -51 35 -51q11 0 43.5 9.5t59.5 18.5l26 9v-47q-125 -43 -164 -43q-34 0 -49.5 17t-15.5 56q0 49 102 527t102 561q0 28 -5 47t-20.5 38 t-43.5 30t-75 17.5t-114 6.5q-119 0 -315 -12l-252 -1276z" />
<glyph unicode="&#x420;" horiz-adv-x="913" d="M199 -2l258 1288l-174 -24v49q234 37 338 37q98 0 169.5 -27t111.5 -74.5t58.5 -104.5t18.5 -126q0 -98 -23.5 -180.5t-63.5 -137t-88.5 -95.5t-103 -63.5t-101.5 -33t-89 -10.5q-92 0 -150 20l-102 -514zM369 563q54 -18 133 -18q46 0 96 11.5t108 44t103.5 81.5 t75.5 132.5t30 189.5q0 130 -72 212t-233 82q-40 0 -96 -6z" />
<glyph unicode="&#x421;" horiz-adv-x="1054" d="M160 496q0 171 57 331t147 272.5t204 180.5t227 68q89 0 161.5 -14.5t100.5 -29.5l28 -14q-40 -153 -84 -385h-43q26 164 66 350q-98 41 -236 41q-99 0 -200 -64t-180.5 -170t-130 -254.5t-50.5 -305.5q0 -221 99 -344t260 -123q59 0 121.5 17t109.5 41t85.5 48t58.5 41 l20 17l14 -41q-7 -7 -21 -19t-58 -43t-90.5 -54.5t-115 -42.5t-135.5 -19q-192 0 -303.5 136.5t-111.5 379.5z" />
<glyph unicode="&#x422;" horiz-adv-x="837" d="M180 1282v49h856v-49q-245 -4 -399 -4q-20 -101 -89.5 -433t-107 -524t-37.5 -227q0 -51 35 -51q11 0 43.5 9.5t58.5 18.5l27 9v-47q-123 -43 -166 -43q-33 0 -48 17t-15 56q0 40 41.5 254t108.5 536.5t87 424.5h-6z" />
<glyph unicode="&#x423;" horiz-adv-x="970" d="M55 -90q96 0 224 57t251 180q-7 54 -10 72.5t-19 133t-29 188.5t-34 197t-41 205.5t-42.5 167t-45 127t-43.5 42.5h-121v49q115 4 160 4q46 0 93.5 -141t84 -357t58 -366.5t34.5 -273.5q179 193 321 498.5t194 639.5l63 -4q-56 -341 -206.5 -656.5t-350.5 -531.5 q-74 -80 -156 -139.5t-153.5 -89.5t-128.5 -43.5t-103 -13.5v55z" />
<glyph unicode="&#x424;" horiz-adv-x="1314" d="M158 483q0 118 27 226t74 194t110.5 157t137 118.5t153.5 74t159 27.5l35 172l55 4l-35 -176q139 -1 234.5 -59t139.5 -156t44 -231q0 -175 -59 -327t-154 -252t-212.5 -158t-237.5 -60l-33 -168l-55 -4l32 172q-140 1 -234.5 59t-137.5 156t-43 231zM213 492 q0 -186 93 -296.5t278 -111.5l227 1151q-86 -2 -172 -36.5t-162.5 -100.5t-135.5 -154t-93.5 -205.5t-34.5 -246.5zM637 84q108 1 215 55.5t192.5 148.5t139 235t53.5 302q0 186 -93 295.5t-280 112.5z" />
<glyph unicode="&#x425;" horiz-adv-x="1081" d="M55 0q59 88 131.5 182t126.5 157t145.5 168.5t141.5 164.5q-86 319 -139.5 465.5t-100.5 146.5q-22 0 -60.5 -5.5t-66.5 -10.5l-28 -6v47q123 24 182 24q63 0 115 -135t146 -478q2 -7 3 -11q54 64 167.5 190t198 229t152.5 205q25 -2 70 -2q-76 -111 -166.5 -219 t-214.5 -244.5t-180 -201.5q50 -164 74 -241.5t62 -186t64 -154t46 -45.5q17 0 54.5 9.5t65.5 19.5l29 10v-45q-119 -43 -176 -43q-58 0 -141 228q-38 108 -129 409q-35 -42 -125.5 -149t-136.5 -163t-115.5 -146t-124.5 -171q-25 2 -70 2z" />
<glyph unicode="&#x426;" horiz-adv-x="1214" d="M238 217q0 61 102 513t102 519q0 21 -5 27t-19 6l-160 -20v47q164 22 197 22q30 0 41.5 -12t11.5 -45q0 -64 -102.5 -522t-102.5 -512q0 -28 2.5 -48t10.5 -44.5t25 -41.5t43 -32.5t68.5 -23t98.5 -7.5q125 0 321 8l254 1278l60 4l-254 -1278l147 8l13 3 q-42 -120 -74 -249t-44 -197l-11 -69l-54 -4q29 221 107 463q-214 -22 -484 -22q-76 0 -130.5 12.5t-85.5 32t-49 51t-23.5 62t-5.5 71.5z" />
<glyph unicode="&#x427;" horiz-adv-x="1124" d="M227 1262v47q166 22 197 22q30 0 42.5 -11.5t12.5 -41.5q0 -46 -45 -252.5t-45 -308.5q0 -96 39.5 -140.5t144.5 -44.5q60 0 121.5 25t109.5 64t73.5 64t44.5 48q22 108 66.5 316t58.5 280l61 4q-24 -121 -92 -446t-111 -541t-43 -252q0 -51 37 -51q10 0 42 9.5t59 18.5 l26 9v-47q-123 -43 -164 -43q-34 0 -49.5 17t-15.5 56q0 68 116 625q-11 -15 -26.5 -32t-54.5 -52t-79.5 -61.5t-99 -47t-116.5 -20.5q-116 0 -164.5 54t-48.5 167q0 103 45 307t45 246q0 20 -6 26.5t-19 6.5z" />
<glyph unicode="&#x428;" horiz-adv-x="1622" d="M238 205q1 68 102.5 523t101.5 521q0 20 -5.5 26.5t-18.5 6.5l-160 -20v47q164 22 197 22q30 0 41.5 -12t11.5 -45q0 -64 -102 -524.5t-103 -524.5q0 -31 2 -49t10.5 -40t26.5 -34t49 -25t78.5 -19t115 -10.5t158.5 -4.5l256 1286l60 4l-256 -1290q177 0 489 16l250 1270 l60 4l-252 -1270l86 9l-2 -52q-300 -32 -678 -32q-121 0 -206.5 5t-142.5 18t-91 28t-51 42.5t-22 54t-5 69.5z" />
<glyph unicode="&#x429;" horiz-adv-x="1634" d="M238 205q1 68 102.5 523t101.5 521q0 20 -5.5 26.5t-18.5 6.5l-160 -20v47q164 22 197 22q30 0 41.5 -12t11.5 -45q0 -64 -102 -524.5t-103 -524.5q0 -31 2 -49t10.5 -40t26.5 -34t49 -25t78.5 -19t115 -10.5t158.5 -4.5l256 1286l60 4l-256 -1290q179 0 489 14l250 1272 l60 4l-252 -1272l159 11q-42 -120 -74 -250t-43 -200l-12 -71l-53 -4q27 225 107 469q-357 -28 -678 -28q-121 0 -206.5 5t-142.5 18t-91 28t-51 42.5t-22 54t-5 69.5z" />
<glyph unicode="&#x42a;" horiz-adv-x="1091" d="M233 1036l7 195q0 59 44.5 85.5t157.5 26.5q70 0 235 -6t267 -6h74v-41q-2 0 -41 -31t-104.5 -90t-137.5 -131t-149 -168.5t-129 -187.5q28 20 62.5 39t107.5 43t141 24q127 0 199.5 -70.5t72.5 -197.5q0 -95 -34 -191t-92 -173.5t-144.5 -126.5t-183.5 -49 q-83 0 -142.5 30.5t-91 85t-45.5 116.5t-14 138q0 82 29.5 171.5t74 168t108 161t121.5 145t125.5 126t108 98t80.5 66.5q-39 -2 -111 -2q-74 0 -198 5t-176 5q-102 0 -140.5 -22t-40.5 -74l-6 -160zM356 358q0 -325 240 -325q82 0 155 43t121.5 111t76.5 151t28 164 q0 114 -66.5 176.5t-183.5 62.5q-82 0 -162.5 -32t-126.5 -62q-82 -154 -82 -289z" />
<glyph unicode="&#x42b;" horiz-adv-x="1421" d="M166 0q19 76 132.5 632.5t113.5 616.5q0 20 -6 26.5t-19 6.5l-160 -20v47q164 22 197 22q30 0 41.5 -12t11.5 -45q0 -58 -90 -510q107 37 197 37q162 0 243.5 -81t81.5 -239q0 -110 -40 -205.5t-106 -159t-149.5 -100t-171.5 -36.5q-79 0 -148 5t-98 10zM238 43 q94 -12 211 -12q73 0 144 31.5t128 87t92 139.5t35 180q0 281 -289 281q-79 0 -182 -33zM1098 63q0 41 47 279t113.5 556t87.5 431l63 4q-24 -121 -92 -446t-111 -541t-43 -252q0 -51 37 -51q10 0 42 9.5t58 18.5l27 9v-47q-123 -43 -164 -43q-34 0 -49.5 17t-15.5 56z" />
<glyph unicode="&#x42c;" horiz-adv-x="997" d="M197 0q19 75 132 632t113 617q0 20 -5.5 26.5t-18.5 6.5l-160 -20v47q164 22 197 22q30 0 41.5 -12t11.5 -45q0 -58 -90 -510q107 37 196 37q162 0 244 -81t82 -239q0 -110 -40 -205.5t-106 -159t-149.5 -100t-171.5 -36.5q-79 0 -148 5t-99 10zM268 43q94 -12 211 -12 q73 0 144 31.5t128 87t92.5 139.5t35.5 180q0 281 -289 281q-79 0 -182 -33z" />
<glyph unicode="&#x42d;" horiz-adv-x="1042" d="M45 125l29 39q4 -5 12 -14t38 -31.5t66.5 -40t98.5 -31.5t133 -14q91 0 180 41.5t164.5 118t131 196t75.5 264.5q-194 -16 -522 -16h-109v53q465 -2 635 -2q8 82 8 131q0 96 -22 179.5t-65.5 150.5t-117 106t-168.5 39q-56 0 -127 -11t-114 -23l-43 -11v54q164 45 303 45 q107 0 189.5 -43.5t131.5 -118.5t74 -167t25 -196q0 -151 -36.5 -286.5t-98 -235.5t-141.5 -173.5t-169 -110.5t-178 -37q-81 0 -150 15t-110 36t-70.5 42.5t-41.5 36.5z" />
<glyph unicode="&#x42e;" horiz-adv-x="1669" d="M199 -2q22 103 69.5 333t110.5 552.5t63 365.5q0 20 -5.5 26.5t-18.5 6.5l-162 -20l2 47q164 22 195 22q30 0 42.5 -12t12.5 -45q0 -60 -111 -615l297 3q30 189 118 347t209.5 248.5t246.5 90.5q192 0 301.5 -137t109.5 -371q0 -143 -37 -277.5t-99.5 -238.5t-142 -182.5 t-168 -120t-173.5 -41.5q-184 0 -281.5 138t-97.5 365q0 63 6 127h-299q-91 -458 -127 -608zM745 492q0 -208 84 -333.5t242 -125.5q91 0 186 62t173 166.5t128 256.5t50 318q0 208 -93 334t-255 126q-72 0 -146.5 -41t-139.5 -116.5t-117 -173.5t-82 -221.5t-30 -251.5z " />
<glyph unicode="&#x42f;" horiz-adv-x="1024" d="M86 0q49 86 98.5 164.5t79 121.5t92 133t93.5 134q-86 16 -137.5 90.5t-51.5 202.5q0 111 37.5 206.5t100.5 159.5t144.5 100t168.5 36q79 0 153 -4t108 -8l34 -5l-7 -16q-21 -103 -91 -439.5t-110 -541t-40 -240.5q0 -51 37 -51q10 0 42 9.5t59 18.5l26 9v-47 q-123 -43 -164 -43q-34 0 -50 17t-16 56q0 63 92 510q-75 -24 -284 -24q-89 -131 -128 -190.5t-97 -154t-121 -206.5q-25 2 -68 2zM322 858q0 -130 56.5 -196t145.5 -66q179 0 271 22l139 668q-102 12 -227 12q-153 0 -269 -123.5t-116 -316.5z" />
<glyph unicode="&#x430;" horiz-adv-x="1017" d="M162 334q0 147 47.5 281t124 227.5t176 149t201.5 55.5q74 0 135 -13t86 -26l24 -13q-182 -825 -182 -886q0 -37 10 -54.5t35 -17.5q20 0 52.5 9.5t55.5 19.5l23 10l-2 -39q-91 -47 -157 -47q-78 0 -78 96q0 23 16 111q-8 -12 -22 -30t-48 -53.5t-70 -63t-87.5 -49 t-100.5 -21.5q-121 0 -180 96.5t-59 257.5zM225 352q0 -143 51.5 -228t157.5 -85q49 0 101 25t95 64t66.5 64t40.5 48q65 329 154 723q-88 36 -191 36q-85 0 -170 -50t-152.5 -134.5t-110 -206.5t-42.5 -256z" />
<glyph unicode="&#x431;" horiz-adv-x="931" d="M164 340q0 7 1 21.5t1 21.5q6 138 34 273t80.5 259.5t123.5 220.5t171 155t216 63q65 2 116.5 22t79.5 47t46.5 53.5t24.5 45.5l5 18l31 -8q0 -6 -7 -27.5t-28.5 -57.5t-53.5 -68t-90.5 -56.5t-130.5 -26.5q-94 -4 -176.5 -51t-145.5 -127.5t-110 -181.5t-78 -221 q10 14 35 37t70.5 55.5t115.5 55t146 22.5q122 0 193 -89t71 -208q0 -113 -36.5 -223t-98.5 -195t-150.5 -137.5t-185.5 -52.5q-64 0 -113 22t-78 56.5t-47.5 83.5t-25 96.5t-6.5 101.5zM225 350q0 -46 5 -86.5t20 -84.5t39 -75.5t65 -52t95 -20.5q81 0 155.5 48.5 t125.5 125t81.5 172.5t30.5 190q0 105 -63 187t-171 82q-65 0 -128 -20t-107.5 -49.5t-69.5 -50t-37 -34.5q-41 -173 -41 -332z" />
<glyph unicode="&#x432;" horiz-adv-x="907" d="M162 295q0 188 68.5 360.5t188 280.5t255.5 108q119 0 182.5 -61.5t63.5 -155.5q0 -91 -55 -164.5t-156 -119.5q77 -77 77 -183q0 -73 -21 -139.5t-62.5 -121t-110.5 -87t-156 -32.5q-127 0 -200.5 89.5t-73.5 225.5zM223 299q0 -115 59.5 -193.5t161.5 -78.5 q73 0 130 28t91 75.5t51 105.5t17 122q0 84 -67 168q-51 -21 -154 -36t-207 -15q-19 0 -41 1t-24 1q-17 -100 -17 -178zM248 512l24 -1q23 -1 45 -1q127 0 225.5 20.5t157 52t96 74t51 81t13.5 79.5q0 79 -49.5 130.5t-146.5 51.5q-93 0 -179.5 -68t-146.5 -177.5 t-90 -241.5z" />
<glyph unicode="&#x433;" horiz-adv-x="712" d="M133 188q0 60 22.5 112t67 95.5t96 77.5t123.5 70q131 67 183.5 126.5t52.5 153.5q0 80 -64 128t-170 48q-49 0 -104.5 -8.5t-85.5 -16.5l-31 -9v41q109 38 242 38q125 0 198.5 -56.5t73.5 -153.5q0 -109 -58 -178t-200 -142q-66 -33 -112.5 -63t-88 -68.5t-62.5 -84 t-21 -97.5q0 -74 60 -124t161 -50q62 0 121.5 22t88.5 44l29 22l9 -33q-4 -4 -12.5 -11t-36 -24t-56.5 -30t-73.5 -24t-88.5 -11q-123 0 -193.5 57t-70.5 149z" />
<glyph unicode="&#x434;" horiz-adv-x="931" d="M41 -471l20 43q7 -6 22 -15.5t67.5 -25.5t113.5 -16q184 0 287 136t151 404l29 144l-6 -9q-6 -8 -16 -20.5t-24.5 -29t-32.5 -34.5t-39 -36t-46 -34t-50.5 -28.5t-55 -20t-58.5 -7.5q-122 0 -181.5 96.5t-59.5 257.5q0 147 47.5 280.5t124.5 226.5t176.5 148t202.5 55 q73 0 131 -11.5t80 -22.5l22 -11l-188 -962q-27 -136 -67 -237t-98.5 -177.5t-141.5 -115.5t-189 -39q-44 0 -82.5 6.5t-63 15t-42.5 17.5t-26 15zM225 354q0 -144 51.5 -229.5t157.5 -85.5q40 0 83.5 18t76.5 41.5t65.5 55t49 50t28.5 34.5l144 727q-80 32 -181 32 q-85 0 -170 -49.5t-152.5 -133.5t-110 -205.5t-42.5 -254.5z" />
<glyph unicode="&#x435;" horiz-adv-x="827" d="M156 315q0 182 67 351.5t179 273.5t235 104h4q105 -1 168 -68.5t63 -162.5q0 -52 -17 -95.5t-44.5 -75.5t-68 -58t-82.5 -42.5t-94 -29t-95.5 -19t-93 -10.5t-81.5 -5t-67 -1q-14 -74 -14 -155q0 -122 61 -206.5t177 -84.5q49 0 96.5 9.5t79.5 23.5t57 28t37 24l12 9 l8 -37q-4 -4 -12.5 -11.5t-37.5 -26t-61.5 -33t-84.5 -26t-107 -11.5q-135 0 -209.5 95.5t-74.5 239.5zM236 510q38 0 72.5 1.5t86.5 5.5t96.5 13t95 23t89 37t71.5 52.5t50.5 72.5t17.5 94q0 79 -51 135.5t-137 56.5q-84 0 -165 -70t-139 -181t-87 -240z" />
<glyph unicode="&#x436;" horiz-adv-x="1236" d="M57 0q63 96 179 222t247 243q-50 213 -109.5 369.5t-101.5 156.5l-112 -16v39q118 20 149 20q94 0 219 -530q68 60 142 114l84 404l57 4l-119 -573q154 122 295.5 289t171.5 286l58 -4q-29 -98 -125.5 -222t-225.5 -241q51 -213 117 -368.5t111 -155.5q21 0 53.5 7.5 t54.5 14.5l23 7v-39q-92 -37 -158 -37q-57 0 -126.5 156t-119.5 374q-41 -37 -137 -112l-84 -406l-59 -4l118 573q-149 -120 -308 -287t-232 -288z" />
<glyph unicode="&#x437;" horiz-adv-x="759" d="M68 72l22 39q4 -3 10.5 -8.5t30.5 -20t51 -25t70.5 -19.5t89.5 -9q73 0 133.5 27t97.5 69t57.5 90t20.5 94q0 92 -75.5 136t-184.5 44q-8 0 -15.5 -1t-25.5 -1v39q87 1 168 42t131.5 108.5t50.5 140.5q0 74 -61 126t-164 52q-49 0 -107 -9.5t-91 -18.5l-33 -9v46 q119 40 252 40q123 0 193.5 -61t70.5 -154q0 -96 -73.5 -183.5t-186.5 -129.5q92 -15 149.5 -64t57.5 -139q0 -58 -24.5 -116.5t-68.5 -107t-114 -79t-152 -30.5q-55 0 -103.5 9.5t-79.5 23t-54 27t-33 22.5z" />
<glyph unicode="&#x438;" horiz-adv-x="1042" d="M178 -2q191 956 191 985q0 8 -7 8l-112 -16v39q124 20 149 20q18 0 25.5 -4.5t7.5 -17.5q0 -33 -73.5 -399t-116.5 -529l344 426q69 89 154.5 212t143.5 210t62 92l41 2q-188 -851 -188 -917q0 -72 47 -72q20 0 53 9.5t55 18.5l23 9v-41q-94 -43 -160 -43q-76 0 -76 96 q0 43 64 346.5t110 485.5q-7 -10 -79.5 -116.5t-128 -185t-105.5 -143.5q-73 -94 -164.5 -207t-153 -185t-71.5 -81z" />
<glyph unicode="&#x439;" horiz-adv-x="1042" d="M178 -2q191 956 191 985q0 8 -7 8l-112 -16v39q124 20 149 20q18 0 25.5 -4.5t7.5 -17.5q0 -33 -73.5 -399t-116.5 -529l344 426q69 89 154.5 212t143.5 210t62 92l41 2q-188 -851 -188 -917q0 -72 47 -72q20 0 53 9.5t55 18.5l23 9v-41q-94 -43 -160 -43q-76 0 -76 96 q0 43 64 346.5t110 485.5q-7 -10 -79.5 -116.5t-128 -185t-105.5 -143.5q-73 -94 -164.5 -207t-153 -185t-71.5 -81zM530 1300l27 41q2 -4 5.5 -10t17.5 -22t30 -28t44 -22t59 -10q38 0 79.5 22t73.5 53.5t59 63.5t41 54l15 22l25 -18q-6 -10 -16.5 -26.5t-43.5 -58.5 t-67 -74t-83 -58.5t-94 -26.5q-34 0 -64.5 10t-49.5 24.5t-32.5 29t-19.5 24.5z" />
<glyph unicode="&#x43a;" horiz-adv-x="911" d="M178 -2q191 958 191 985q0 8 -7 8l-112 -16v39q122 20 147 20q20 0 27.5 -4.5t7.5 -17.5q0 -37 -102 -549q95 70 170.5 132.5t155 140t125 152.5t48.5 138l62 -2q-12 -197 -397 -494q61 -195 142.5 -344t133.5 -149q21 0 53.5 9.5t54.5 18.5l23 9v-41q-92 -43 -158 -43 q-44 0 -100 72t-108.5 186.5t-90.5 245.5l-125 -88l-81 -404z" />
<glyph unicode="&#x43b;" horiz-adv-x="970" d="M61 -20v51q69 3 163.5 150t178 363t134.5 435l-158 -10v45q184 20 297 20q94 0 136 -39t42 -116q0 -50 -48 -393t-48 -380q0 -69 45 -69q21 0 53.5 9.5t55.5 18.5l22 9v-37q-92 -47 -158 -47q-78 0 -78 96q0 50 50.5 393.5t50.5 380.5q0 62 -34 93.5t-108 31.5 q-9 0 -33 -1t-38 -1q-52 -227 -138 -453t-193 -387t-194 -163z" />
<glyph unicode="&#x43c;" horiz-adv-x="1294" d="M123 0q37 127 160 456t206 533q-37 -1 -89.5 -5.5t-86.5 -8.5l-34 -4v43q138 20 247 20q65 0 97 -956q154 315 306.5 589t219.5 355l41 4q-13 -78 -59 -478t-46 -439q0 -37 10 -54.5t35 -17.5q21 0 54 9.5t56 18.5l22 9v-41q-92 -43 -160 -43q-74 0 -74 94q0 54 40 372.5 t67 491.5q-86 -127 -230.5 -395t-279.5 -551l-50 -4q-25 811 -59 958q-81 -207 -195.5 -525t-146.5 -435z" />
<glyph unicode="&#x43d;" horiz-adv-x="1042" d="M178 -2q191 958 191 985q0 8 -7 8l-112 -16v39q122 20 147 20q20 0 27.5 -4.5t7.5 -17.5q0 -35 -84 -455l483 10l101 455l59 4q-190 -856 -190 -917q0 -37 10 -54.5t35 -17.5q20 0 53 9.5t55 18.5l23 9l-2 -41q-92 -43 -158 -43q-78 0 -78 96q0 43 82 430h-481 q-80 -410 -102 -514z" />
<glyph unicode="&#x43e;" horiz-adv-x="976" d="M166 375q0 145 42.5 273t111.5 213t154.5 134t172.5 49q96 0 166.5 -55t104.5 -142t34 -192q0 -146 -41.5 -274t-109.5 -214.5t-154.5 -136.5t-175.5 -50q-143 0 -224 111.5t-81 283.5zM227 383q0 -153 66 -253.5t186 -100.5q76 0 150 45.5t133 124.5t95 197.5t36 252.5 q0 145 -68 246.5t-188 101.5q-75 0 -148 -45.5t-131.5 -124t-94.5 -195.5t-36 -249z" />
<glyph unicode="&#x43f;" horiz-adv-x="1034" d="M193 -2l190 977l-150 -6v45q330 20 539 20q90 0 137 -46t47 -124q0 -47 -80.5 -385.5t-80.5 -369.5q0 -72 47 -72q20 0 53 9.5t55 18.5l23 9v-39q-94 -45 -160 -45q-78 0 -78 96q0 39 82 384t82 378q0 64 -39.5 100.5t-118.5 36.5q-97 0 -297 -8l-190 -975z" />
<glyph unicode="&#x440;" horiz-adv-x="985" d="M68 -514q301 1470 301 1497q0 8 -9 8l-110 -16v39q122 20 147 20q20 0 27.5 -4.5t7.5 -17.5q0 -12 -37 -191q13 20 37 48t69.5 72t105.5 73.5t120 29.5q81 0 137 -49t79.5 -123t23.5 -165q0 -157 -47.5 -295t-124.5 -231.5t-176.5 -147t-202.5 -53.5q-101 0 -180 34 l-107 -524zM248 74q74 -45 178 -45q86 0 171 48t152.5 132t109.5 209.5t42 267.5q0 80 -20 145.5t-69 109.5t-120 44q-40 0 -83.5 -18.5t-75.5 -42t-66 -57.5t-48.5 -51t-29.5 -36z" />
<glyph unicode="&#x441;" horiz-adv-x="794" d="M162 348q0 104 25.5 206.5t73.5 190t111.5 155t145.5 106t170 38.5q45 0 89 -7.5t65 -14.5l22 -8v-49q-82 30 -174 30q-135 0 -244 -95t-166 -239t-57 -301q0 -83 27.5 -156.5t88 -123t142.5 -49.5q73 0 141.5 26t101.5 52l32 26l8 -35q-5 -5 -13.5 -13t-38 -28.5 t-62 -36.5t-83.5 -29t-104 -13q-73 0 -131.5 31.5t-95 84.5t-55.5 117.5t-19 134.5z" />
<glyph unicode="&#x442;" horiz-adv-x="763" d="M197 981v43h669v-43q-167 -6 -329 -6q-48 -219 -111.5 -527t-63.5 -342q0 -35 10.5 -52t35.5 -17q20 0 53 9.5t55 18.5l23 9l-2 -39q-92 -45 -158 -45q-78 0 -78 96q0 52 178 889z" />
<glyph unicode="&#x443;" horiz-adv-x="811" d="M-143 -483q56 2 211.5 143.5t293.5 331.5q15 38 15 139q0 143 -23 345.5t-59.5 358.5t-69.5 156l-112 -16v39q112 20 149 20q41 0 80 -146t60.5 -341.5t21.5 -358.5q0 -84 -6 -143q158 225 278 491t166 490l60 -2q-46 -224 -177.5 -499t-302.5 -515 q-159 -222 -334 -380.5t-251 -161.5v49z" />
<glyph unicode="&#x444;" horiz-adv-x="1226" d="M152 346q0 149 46 282t120.5 222.5t168.5 141.5t189 52q32 0 86 -6q104 494 104 496l54 4q-2 -15 -115 -555q6 7 18.5 17t56 27t91.5 17q243 0 243 -356q0 -150 -47 -284.5t-122.5 -225.5t-170 -144.5t-188.5 -53.5q-46 0 -92 8q-74 -373 -74 -406q0 -69 45 -69 q19 0 52 9t56 18l23 9v-36q-91 -45 -157 -45q-74 0 -74 104q0 45 90 473q-65 -65 -162 -65q-117 0 -179 91.5t-62 274.5zM207 365q0 -166 55.5 -251t161.5 -85q84 0 135 45l195 917q-46 8 -95 8q-83 0 -164 -48t-145 -130t-103.5 -202t-39.5 -254zM604 33q40 -8 96 -8 q82 0 164.5 50t147 134t105 206t40.5 255q0 325 -221 325q-75 0 -139 -43z" />
<glyph unicode="&#x445;" horiz-adv-x="876" d="M31 0q133 221 432 520q-92 299 -127 379q-41 92 -72 92l-112 -16v39q120 20 151 20q17 0 32.5 -12.5t30.5 -41t27.5 -58t28.5 -79t27.5 -88t29.5 -102t31 -104.5q247 261 295 477l59 -2q-31 -131 -117 -254t-219 -260q141 -473 220 -473q21 0 53.5 11.5t54.5 23.5l23 12 v-39q-95 -55 -158 -55q-21 0 -42.5 17t-42 52t-39 75.5t-39.5 101.5t-38 115t-39 130q-260 -264 -389 -485z" />
<glyph unicode="&#x446;" horiz-adv-x="1007" d="M195 145q0 49 86.5 429.5t87.5 408.5q0 8 -7 8l-114 -16v39q124 20 149 20q20 0 27 -5.5t6 -24.5q-2 -39 -89 -420.5t-87 -423.5h-2q0 -59 39.5 -95t118.5 -36q133 0 315 14l201 981l59 2l-203 -979l133 10q-93 -363 -100 -481h-51q7 112 94 432q-315 -28 -479 -28 q-91 0 -137.5 45.5t-46.5 119.5z" />
<glyph unicode="&#x447;" horiz-adv-x="876" d="M168 975l2 39h2q120 20 145 20q20 0 27.5 -4.5t7.5 -17.5q0 -10 -38 -181t-38 -245q0 -131 136 -131q60 0 118.5 18t85 33.5t43.5 28.5l107 487l57 4q-188 -857 -188 -920q0 -35 9.5 -52t33.5 -17q21 0 54 7.5t56 14.5l23 7l-2 -39q-92 -37 -158 -37q-78 0 -78 96 q0 39 78 414q-12 -11 -28.5 -22.5t-51 -30t-84 -30t-104.5 -11.5q-168 0 -168 161q0 81 37 248t37 168q0 8 -8 8z" />
<glyph unicode="&#x448;" horiz-adv-x="1355" d="M203 150q1 39 80 419t79 414q0 8 -8 8l-114 -16v39q124 20 149 20q20 0 26.5 -5.5t6.5 -24.5q-1 -41 -81.5 -422.5t-80.5 -417.5q0 -135 166 -135h195l200 995l58 2l-201 -995q138 2 395 12l201 981l59 2l-200 -979l151 10l-2 -45q-313 -32 -881 -32q-101 0 -149.5 45 t-48.5 125z" />
<glyph unicode="&#x449;" horiz-adv-x="1355" d="M203 150q1 39 80 419t79 414q0 6 -1.5 7t-6.5 1l-114 -16v39q124 20 149 20q20 0 26.5 -5.5t6.5 -24.5q-1 -42 -81.5 -425t-80.5 -415q0 -135 166 -135h192l203 995l58 2l-203 -995q147 2 397 12l201 981l59 2l-200 -979l131 10q-94 -368 -101 -481h-51q7 112 94 432 q-343 -28 -805 -28q-101 0 -149.5 45t-48.5 125z" />
<glyph unicode="&#x44a;" d="M127 754q4 23 10 63q5 32 7 46.5t6.5 38.5t7.5 33.5t8.5 26t11 22.5t14 15.5t18 12.5t22 7.5t27.5 5.5t34 1l448 -2v-39q-7 0 -37.5 -21.5t-78 -63t-99.5 -94.5t-106.5 -125t-93.5 -144q145 86 280 86q96 0 146.5 -53t50.5 -150q0 -108 -47.5 -210t-128.5 -166t-170 -64 q-122 0 -195.5 63.5t-73.5 192.5v2q0 99 39 202.5t96 185t128.5 157.5t128.5 122.5t104 77.5q-218 -4 -389 -4q-60 0 -82 -21.5t-29 -64.5l-24 -137zM242 242q0 -110 62.5 -163.5t160.5 -53.5q73 0 137.5 57t101.5 145.5t37 180.5q0 81 -44 127.5t-126 46.5q-119 0 -262 -78 q-67 -137 -67 -262z" />
<glyph unicode="&#x44b;" horiz-adv-x="1263" d="M184 31q185 927 185 952q0 8 -7 8l-112 -16v39q122 20 147 20q20 0 27.5 -4.5t7.5 -17.5q0 -12 -80 -432q4 5 14 14.5t34 26t52.5 30t71 23.5t88.5 10q99 0 153 -75t54 -193q0 -112 -57 -213t-153 -162t-203 -61q-65 0 -120.5 12.5t-78.5 25.5zM250 55q75 -30 170 -30 q88 0 167.5 54.5t127 141.5t47.5 180q0 100 -46.5 170t-131.5 70q-137 0 -236 -88zM961 86q0 32 48 266t96 452l48 218l57 4q-188 -856 -188 -917q0 -37 10 -54.5t35 -17.5q20 0 52.5 9.5t54.5 18.5l22 9v-39q-92 -45 -158 -45q-77 0 -77 96z" />
<glyph unicode="&#x44c;" horiz-adv-x="833" d="M184 31q185 927 185 952q0 8 -7 8l-112 -16v39q122 20 147 20q20 0 27.5 -4.5t7.5 -17.5q0 -12 -80 -432q4 5 14 14.5t34 26t52.5 30t71 23.5t88.5 10q99 0 153 -75t54 -193q0 -112 -57 -213t-153 -162t-203 -61q-65 0 -120.5 12.5t-78.5 25.5zM250 55q75 -30 170 -30 q88 0 167.5 54.5t127 141.5t47.5 180q0 100 -46.5 170t-131.5 70q-137 0 -236 -88z" />
<glyph unicode="&#x44d;" horiz-adv-x="851" d="M57 90l23 37q3 -4 9.5 -10.5t30.5 -23.5t51 -30t72.5 -23.5t94.5 -10.5q156 0 272 133.5t152 347.5h-432v33q98 6 243 6q51 0 195 -4q8 82 8 131q0 150 -71.5 234.5t-198.5 84.5q-44 0 -99 -9.5t-89 -19.5l-33 -10v48q126 40 243 40q141 0 222 -94t81 -264 q0 -195 -64 -357t-176 -255.5t-247 -93.5q-58 0 -109 11.5t-82 27.5t-54 32t-33 27z" />
<glyph unicode="&#x44e;" horiz-adv-x="1325" d="M178 -2q191 958 191 985q0 8 -7 8l-112 -16v39q122 20 147 20q20 0 27.5 -4.5t7.5 -17.5q0 -16 -84 -459q82 4 195 4q42 216 171 351.5t281 135.5q141 0 222 -113t81 -276q0 -146 -41.5 -274t-109 -214.5t-153.5 -136.5t-175 -50q-141 0 -217 113.5t-76 285.5 q0 55 11 137h-197q-80 -410 -102 -514zM584 383q0 -155 62.5 -254.5t182.5 -99.5q75 0 148 45.5t131.5 124.5t94.5 196.5t36 251.5q0 147 -67 248.5t-187 101.5q-74 0 -146 -45.5t-128.5 -124t-91.5 -195.5t-35 -249z" />
<glyph unicode="&#x44f;" horiz-adv-x="903" d="M31 0q98 150 169.5 245.5t172.5 205.5q-78 14 -125 73t-47 150q0 153 121 261.5t284 108.5q67 0 127 -12t87 -24l26 -13q-182 -825 -182 -886q0 -37 10 -54.5t35 -17.5q20 0 52.5 9.5t55.5 18.5l23 9v-39q-95 -45 -158 -45q-80 0 -80 96q0 33 70 377q-108 -17 -252 -17 h-2q-99 -111 -166.5 -206.5t-159.5 -243.5zM254 676q0 -86 49.5 -139.5t126.5 -53.5q112 0 250 15l100 469q-79 34 -188 34q-136 0 -237 -96.5t-101 -228.5z" />
<glyph unicode="&#x450;" horiz-adv-x="827" d="M156 315q0 182 67 351.5t179 273.5t235 104h4q105 -1 168 -68.5t63 -162.5q0 -52 -17 -95.5t-44.5 -75.5t-68 -58t-82.5 -42.5t-94 -29t-95.5 -19t-93 -10.5t-81.5 -5t-67 -1q-14 -74 -14 -155q0 -122 61 -206.5t177 -84.5q49 0 96.5 9.5t79.5 23.5t57 28t37 24l12 9 l8 -37q-4 -4 -12.5 -11.5t-37.5 -26t-61.5 -33t-84.5 -26t-107 -11.5q-135 0 -209.5 95.5t-74.5 239.5zM236 510q38 0 72.5 1.5t86.5 5.5t96.5 13t95 23t89 37t71.5 52.5t50.5 72.5t17.5 94q0 79 -51 135.5t-137 56.5q-84 0 -165 -70t-139 -181t-87 -240zM580 1483l38 28 q2 -51 44 -175.5t67 -149.5l-31 -27q-25 24 -71.5 149t-46.5 175z" />
<glyph unicode="&#x451;" horiz-adv-x="827" d="M156 315q0 182 67 351.5t179 273.5t235 104h4q105 -1 168 -68.5t63 -162.5q0 -52 -17 -95.5t-44.5 -75.5t-68 -58t-82.5 -42.5t-94 -29t-95.5 -19t-93 -10.5t-81.5 -5t-67 -1q-14 -74 -14 -155q0 -122 61 -206.5t177 -84.5q49 0 96.5 9.5t79.5 23.5t57 28t37 24l12 9 l8 -37q-4 -4 -12.5 -11.5t-37.5 -26t-61.5 -33t-84.5 -26t-107 -11.5q-135 0 -209.5 95.5t-74.5 239.5zM236 510q38 0 72.5 1.5t86.5 5.5t96.5 13t95 23t89 37t71.5 52.5t50.5 72.5t17.5 94q0 79 -51 135.5t-137 56.5q-84 0 -165 -70t-139 -181t-87 -240zM539 1323 q0 24 16 43.5t35 19.5q37 0 37 -45q0 -24 -16.5 -44.5t-35.5 -20.5q-36 0 -36 47zM776 1323q0 24 16 43.5t35 19.5q37 0 37 -45q0 -25 -16 -45t-35 -20q-37 0 -37 47z" />
<glyph unicode="&#x452;" horiz-adv-x="968" d="M160 -2l252 1268l-191 4l2 45h197q43 212 43 219l59 4q0 -5 -43 -223l328 6l-2 -43q-180 -12 -334 -12l-131 -658q14 23 30 48t56.5 75.5t81 87.5t98 66.5t111.5 29.5q172 0 172 -208q0 -76 -129 -705q-24 -122 -77 -225.5t-117 -169.5t-133.5 -102.5t-131.5 -36.5v45 q47 0 105.5 33t116 92t106.5 154t73 206q1 8 22 112t42.5 213t40 216t18.5 137q0 25 -3 48t-12.5 48t-25 43t-42.5 29.5t-62 11.5q-157 0 -348 -289l-113 -565z" />
<glyph unicode="&#x453;" horiz-adv-x="712" d="M133 188q0 60 22.5 112t67 95.5t96 77.5t123.5 70q131 67 183.5 126.5t52.5 153.5q0 80 -64 128t-170 48q-49 0 -104.5 -8.5t-85.5 -16.5l-31 -9v41q109 38 242 38q125 0 198.5 -56.5t73.5 -153.5q0 -109 -58 -178t-200 -142q-66 -33 -112.5 -63t-88 -68.5t-62.5 -84 t-21 -97.5q0 -74 60 -124t161 -50q62 0 121.5 22t88.5 44l29 22l9 -33q-4 -4 -12.5 -11t-36 -24t-56.5 -30t-73.5 -24t-88.5 -11q-123 0 -193.5 57t-70.5 149zM506 1184q31 24 126.5 153t115.5 176l22 -24q-18 -50 -119 -178t-135 -150z" />
<glyph unicode="&#x454;" horiz-adv-x="806" d="M162 346q0 132 40.5 258.5t109 223.5t167.5 156.5t209 59.5q45 0 89.5 -8t66.5 -16l22 -8l-2 -49q-90 32 -182 32q-161 0 -283 -133t-163 -332h430l-4 -32q-93 -6 -234 -6q-51 0 -199 4q-12 -68 -12 -138q0 -85 28.5 -158t88 -120t139.5 -47q48 0 94.5 13.5t78.5 32.5 t57.5 37.5t38.5 31.5l12 14l8 -33q-4 -6 -13 -16t-38.5 -36t-62.5 -45.5t-85.5 -35.5t-107.5 -16q-93 0 -161.5 55.5t-100 136.5t-31.5 174z" />
<glyph unicode="&#x455;" horiz-adv-x="765" d="M82 70l24 41q4 -3 10.5 -9t31.5 -20.5t53 -25.5t74 -20t96 -9q124 0 201 74t77 175q0 58 -22 99.5t-57 66t-77 44t-84.5 40.5t-77.5 48t-57 74t-22 112q0 128 90 206t238 78q49 0 103 -9.5t83 -18.5l29 -10l-2 -48q-113 39 -209 39q-123 0 -196 -63t-73 -170 q0 -56 22 -97.5t57 -66t77.5 -45t85 -42t77.5 -49t57 -74.5t22 -111q0 -121 -95 -210t-245 -89q-57 0 -108.5 9.5t-83 22.5t-55.5 26t-34 22z" />
<glyph unicode="&#x456;" horiz-adv-x="499" d="M199 86q0 45 84.5 448.5t87.5 450.5q0 6 -9 6l-112 -16l2 39q122 20 147 20q20 0 27 -5t6 -19q-3 -51 -88.5 -457t-85.5 -444q0 -72 45 -72q19 0 52 9.5t56 19.5l23 10v-39q-92 -47 -158 -47q-77 0 -77 96zM426 1321q0 24 16 42.5t35 18.5q37 0 37 -43q0 -26 -16 -44.5 t-35 -18.5q-37 0 -37 45z" />
<glyph unicode="&#x457;" horiz-adv-x="499" d="M199 86q0 45 84.5 448.5t87.5 450.5q0 6 -9 6l-112 -16l2 39q122 20 147 20q20 0 27 -5t6 -19q-3 -51 -88.5 -457t-85.5 -444q0 -72 45 -72q19 0 52 9.5t56 19.5l23 10v-39q-92 -47 -158 -47q-77 0 -77 96zM311 1323q0 24 16 43.5t35 19.5q37 0 37 -45q0 -25 -16 -45 t-35 -20q-37 0 -37 47zM549 1323q0 24 16 43.5t35 19.5q37 0 37 -45q0 -25 -16 -45t-35 -20q-37 0 -37 47z" />
<glyph unicode="&#x458;" horiz-adv-x="434" d="M-211 -487q48 0 103.5 28t113 83.5t108 153t79.5 220.5q8 37 99.5 504t92.5 481q0 8 -8 8l-113 -16l2 39q123 20 148 20q20 0 27.5 -4.5t7.5 -17.5q0 -11 -90 -463.5t-109 -546.5q-30 -134 -83.5 -239.5t-117.5 -168t-130 -94.5t-130 -32v45zM453 1321q0 24 16 42.5 t35 18.5q37 0 37 -43q0 -25 -16.5 -44t-35.5 -19q-36 0 -36 45z" />
<glyph unicode="&#x459;" horiz-adv-x="1306" d="M61 -20v51q69 3 163.5 150t178 363t134.5 435l-158 -10v45q184 20 297 20q94 0 136 -39t42 -116q0 -55 -37 -304h2q4 4 10.5 11.5t31 26.5t52 33t72.5 26t94 12q99 0 157 -76t58 -192q0 -112 -57 -213.5t-152 -162t-200 -60.5q-56 0 -94 15.5t-55 43.5t-23 55.5t-6 63.5 q0 46 46 357.5t46 344.5q0 62 -34 93.5t-108 31.5q-9 0 -33 -1t-38 -1q-52 -227 -138 -453t-193 -387t-194 -163zM766 162q0 -26 4.5 -47t17 -43t41.5 -34.5t72 -12.5q86 0 164 55t124 142t46 179q0 101 -49 170.5t-137 69.5q-49 0 -93 -12t-75 -31.5t-44.5 -30t-23.5 -20.5 q-47 -339 -47 -371v-14z" />
<glyph unicode="&#x45a;" horiz-adv-x="1372" d="M178 -2q191 958 191 985q0 8 -7 8l-112 -16v39q122 20 147 20q20 0 27.5 -4.5t7.5 -17.5q0 -35 -84 -455l483 10l101 455l59 4l-98 -442q11 12 26.5 25t46.5 32t77.5 31t99.5 12q100 0 157.5 -76t57.5 -192q0 -112 -56 -212.5t-151.5 -162t-204.5 -61.5q-104 0 -153.5 40 t-49.5 84v2q0 49 78 410h-481q-80 -410 -102 -514zM801 123q0 -12 7.5 -27t24 -32t51 -28t81.5 -11q86 0 163.5 54t123.5 141t46 181q0 100 -49 170t-135 70q-134 0 -227 -86q-86 -388 -86 -432z" />
<glyph unicode="&#x45b;" horiz-adv-x="1015" d="M160 -2l252 1268l-191 4l2 45h197q43 212 43 219l59 4q0 -5 -43 -223l328 6l-2 -43q-180 -12 -334 -12l-129 -654q15 26 33 53t57.5 75.5t79 84t94.5 63t107 27.5q176 0 176 -204v-4q-1 -73 -57 -315t-56 -286q0 -36 10 -52.5t35 -16.5q21 0 53.5 9.5t55.5 19.5l22 10 v-41q-91 -45 -157 -45q-78 0 -78 96q0 49 54 288.5t54 301.5q0 25 -3 48t-12.5 48t-25 43t-42.5 29.5t-62 11.5q-47 0 -98.5 -27t-89 -61.5t-76 -81t-55 -71t-29.5 -46.5q-80 -413 -113 -567z" />
<glyph unicode="&#x45c;" horiz-adv-x="911" d="M178 -2q191 958 191 985q0 8 -7 8l-112 -16v39q122 20 147 20q20 0 27.5 -4.5t7.5 -17.5q0 -37 -102 -549q95 70 170.5 132.5t155 140t125 152.5t48.5 138l62 -2q-12 -197 -397 -494q61 -195 142.5 -344t133.5 -149q21 0 53.5 9.5t54.5 18.5l23 9v-41q-92 -43 -158 -43 q-44 0 -100 72t-108.5 186.5t-90.5 245.5l-125 -88l-81 -404zM584 1184q31 23 126 152.5t115 176.5l23 -24q-18 -50 -119 -178t-135 -150z" />
<glyph unicode="&#x45d;" horiz-adv-x="1042" d="M178 -2q191 956 191 985q0 8 -7 8l-112 -16v39q124 20 149 20q18 0 25.5 -4.5t7.5 -17.5q0 -33 -73.5 -399t-116.5 -529l344 426q69 89 154.5 212t143.5 210t62 92l41 2q-188 -851 -188 -917q0 -72 47 -72q20 0 53 9.5t55 18.5l23 9v-41q-94 -43 -160 -43q-76 0 -76 96 q0 43 64 346.5t110 485.5q-7 -10 -79.5 -116.5t-128 -185t-105.5 -143.5q-73 -94 -164.5 -207t-153 -185t-71.5 -81zM645 1483l39 28q2 -51 44 -175.5t67 -149.5l-31 -27q-26 24 -72.5 149t-46.5 175z" />
<glyph unicode="&#x45e;" horiz-adv-x="811" d="M-143 -483q56 2 211.5 143.5t293.5 331.5q15 38 15 139q0 143 -23 345.5t-59.5 358.5t-69.5 156l-112 -16v39q112 20 149 20q41 0 80 -146t60.5 -341.5t21.5 -358.5q0 -84 -6 -143q158 225 278 491t166 490l60 -2q-46 -224 -177.5 -499t-302.5 -515 q-159 -222 -334 -380.5t-251 -161.5v49zM420 1300l26 41q2 -4 5.5 -10t17.5 -22t30 -28t44 -22t59 -10q38 0 79.5 22t73.5 53.5t59 63.5t42 54l14 22l25 -18q-6 -10 -16.5 -26.5t-43.5 -58.5t-66.5 -74t-82.5 -58.5t-94 -26.5q-34 0 -64.5 10t-49.5 24.5t-32.5 29 t-19.5 24.5z" />
<glyph unicode="&#x45f;" horiz-adv-x="1007" d="M197 160q0 58 86.5 428.5t87.5 394.5q0 8 -6 8l-115 -16v39q122 20 147 20q20 0 27.5 -5.5t7.5 -24.5q-3 -35 -90.5 -408t-87.5 -422q0 -145 158 -145q131 0 313 14l201 981l61 2l-203 -979l129 10v-45q-184 -18 -364 -26q-85 -331 -88 -410h-51q5 89 90 406 q-41 -2 -119 -2q-92 0 -138 47.5t-46 132.5z" />
<glyph unicode="&#x462;" horiz-adv-x="997" d="M190 1282v49h287l47 203l64 4l-49 -207h438v-49q-289 -6 -445 -6h-8q-75 -305 -123 -524q18 11 52.5 26t105 33t135.5 18q113 0 186.5 -77.5t73.5 -208.5q0 -77 -21 -157.5t-61.5 -152.5t-94 -129t-125 -90.5t-148.5 -33.5q-60 0 -105.5 20.5t-71 51t-41.5 72.5t-21 77.5 t-5 72.5q0 39 6.5 94.5t20.5 130.5t27 140.5t36 164t37 158t40 166.5t36 148zM324 279q0 -40 8 -78t27 -78.5t59.5 -65t97.5 -24.5q105 0 193 77.5t135 190.5t47 227t-63 184t-160 70q-56 0 -120 -16t-98 -30t-59 -27q-67 -308 -67 -430z" />
<glyph unicode="&#x463;" horiz-adv-x="901" d="M197 997v43h200q47 183 54 220l57 2q-19 -96 -51 -222h323l-2 -43q-141 -4 -291 -4h-43q-79 -312 -108 -436q12 13 30.5 29.5t56 43.5t89 44.5t104.5 17.5q104 0 162 -61t58 -176t-49 -225t-132.5 -180t-175.5 -70q-76 0 -126 20.5t-75.5 61t-35 88t-9.5 114.5 q0 62 27.5 202t53 243t71.5 284zM291 268q0 -58 7.5 -98.5t27.5 -74t59.5 -50t99.5 -16.5q109 0 199 127t90 286q0 98 -48 148.5t-138 50.5q-47 0 -94 -15.5t-83 -40t-53 -38.5t-30 -27q-37 -167 -37 -252z" />
<glyph unicode="&#x490;" horiz-adv-x="759" d="M201 -2l252 1278l-170 -14v49q245 28 489 32q57 2 76 13t29 51l36 199h37q-8 -44 -19 -114q-5 -35 -8 -50.5t-7.5 -40t-7.5 -34t-9 -25t-11 -20t-14.5 -13.5t-18 -10.5t-23 -4.5t-29 -3.5t-35.5 -0.5q-178 -4 -256 -10l-252 -1278z" />
<glyph unicode="&#x491;" horiz-adv-x="649" d="M-219 -487q47 0 105 33t115.5 92t107 154t73.5 206q8 35 92.5 493t94.5 523q0 2 1 5t1 5h297q56 0 75 41.5t19 148.5l-2 132l45 4q4 -61 4 -129q0 -11 -1 -35t-1 -35q-3 -93 -33 -135.5t-92 -42.5q-46 0 -262 6l-180 -977q-24 -122 -77 -225.5t-117 -169.5t-133.5 -102.5 t-131.5 -36.5v45z" />
<glyph unicode="&#x2000;" horiz-adv-x="910" />
<glyph unicode="&#x2001;" horiz-adv-x="1821" />
<glyph unicode="&#x2002;" horiz-adv-x="910" />
<glyph unicode="&#x2003;" horiz-adv-x="1821" />
<glyph unicode="&#x2004;" horiz-adv-x="607" />
<glyph unicode="&#x2005;" horiz-adv-x="455" />
<glyph unicode="&#x2006;" horiz-adv-x="303" />
<glyph unicode="&#x2007;" horiz-adv-x="303" />
<glyph unicode="&#x2008;" horiz-adv-x="227" />
<glyph unicode="&#x2009;" horiz-adv-x="364" />
<glyph unicode="&#x200a;" horiz-adv-x="101" />
<glyph unicode="&#x2010;" horiz-adv-x="514" d="M129 551v47h352v-47h-352z" />
<glyph unicode="&#x2011;" horiz-adv-x="514" d="M129 551v47h352v-47h-352z" />
<glyph unicode="&#x2012;" horiz-adv-x="514" d="M129 551v47h352v-47h-352z" />
<glyph unicode="&#x2013;" horiz-adv-x="743" d="M127 608l2 43h582l-2 -43h-582z" />
<glyph unicode="&#x2014;" horiz-adv-x="1095" d="M127 608l2 43h934l-2 -43h-934z" />
<glyph unicode="&#x2018;" horiz-adv-x="385" d="M270 995q0 96 63.5 209.5t164.5 222.5l24 -16q-90 -104 -142 -208.5t-52 -192.5l20 -35q0 -2 -5 -6.5t-15.5 -9.5t-22.5 -5q-15 0 -25 12.5t-10 28.5z" />
<glyph unicode="&#x2019;" horiz-adv-x="385" d="M199 989q90 104 142 208t52 192l-20 34q0 2 5 6.5t15.5 9.5t22.5 5q15 0 25 -12.5t10 -28.5q0 -183 -228 -430z" />
<glyph unicode="&#x201a;" horiz-adv-x="385" d="M16 -133q192 226 195 399l-23 35q0 2 5.5 6.5t16.5 9.5t23 5q15 0 25 -12.5t10 -28.5q0 -96 -63 -209t-164 -222z" />
<glyph unicode="&#x201c;" horiz-adv-x="575" d="M240 995q0 97 63 210t164 222l25 -16q-90 -104 -142.5 -208.5t-52.5 -192.5l20 -35q0 -2 -5 -6.5t-15.5 -9.5t-22.5 -5q-14 0 -24 12.5t-10 28.5zM428 995q0 97 63 210t164 222l25 -16q-90 -104 -142.5 -208.5t-52.5 -192.5l21 -35q0 -2 -5 -6.5t-15.5 -9.5t-22.5 -5 q-15 0 -25 12.5t-10 28.5z" />
<glyph unicode="&#x201d;" horiz-adv-x="573" d="M166 989q90 104 142 208t52 192l-20 34q0 2 5 6.5t15.5 9.5t22.5 5q15 0 25 -12.5t10 -28.5q0 -183 -228 -430zM354 989q195 226 195 400l-21 34q0 2 5 6.5t15.5 9.5t22.5 5q15 0 25 -12.5t10 -28.5q0 -96 -63 -208t-164 -222z" />
<glyph unicode="&#x201e;" horiz-adv-x="575" d="M-14 -133q191 225 194 399l-22 35q0 2 5.5 6.5t16.5 9.5t23 5q15 0 25 -12.5t10 -28.5q0 -184 -228 -431zM174 -133q192 226 195 399l-23 35q0 2 5.5 6.5t16.5 9.5t23 5q15 0 25 -12.5t10 -28.5q0 -96 -63 -209t-164 -222z" />
<glyph unicode="&#x2026;" horiz-adv-x="1105" d="M106 70q0 27 17.5 44t36.5 17q39 0 39 -41q0 -28 -17 -45.5t-37 -17.5q-17 0 -28 12t-11 31zM459 70q0 27 17 44t36 17q39 0 39 -41q0 -28 -16.5 -45.5t-36.5 -17.5q-17 0 -28 12t-11 31zM813 70q0 27 17 44t36 17q39 0 39 -41q0 -28 -16.5 -45.5t-36.5 -17.5 q-17 0 -28 12t-11 31z" />
<glyph unicode="&#x202f;" horiz-adv-x="364" />
<glyph unicode="&#x2039;" horiz-adv-x="573" d="M238 512l313 322l27 -27l-289 -295l172 -307l-37 -33z" />
<glyph unicode="&#x203a;" horiz-adv-x="573" d="M135 205l285 293l-168 309l35 33l186 -340l-311 -322z" />
<glyph unicode="&#x205f;" horiz-adv-x="455" />
<glyph unicode="&#x20ac;" horiz-adv-x="1050" d="M168 500v41h119q9 123 45 243h-107v41h119q82 235 241 379t326 144q78 0 145 -13t94 -26l28 -13v-49q-12 6 -34 14.5t-94.5 22.5t-148.5 14q-146 0 -286 -129.5t-214 -343.5h451l-2 -41h-461q-36 -120 -45 -243h451v-41h-453v-47q0 -422 315 -422q56 0 113.5 16 t99.5 39.5t75.5 46.5t50.5 39l18 16l2 -36q-6 -7 -18 -18.5t-50.5 -41t-79 -52.5t-102 -41.5t-121.5 -18.5q-187 0 -274.5 122.5t-87.5 339.5v58h-115z" />
<glyph unicode="&#x2122;" horiz-adv-x="1335" d="M178 1499v37h494v-37h-248v-680h-37v680h-209zM696 819l90 717h39l185 -664l207 664h34l72 -717h-37l-63 639l-197 -639h-31l-188 651l-76 -651h-35z" />
<glyph unicode="&#x25fc;" horiz-adv-x="1034" d="M0 0v1034h1034v-1034h-1034z" />
</font>
</defs>
</svg>
