<?xml version="1.0" standalone="no"?>
<!DOCTYPE svg PUBLIC "-//W3C//DTD SVG 1.1//EN" "http://www.w3.org/Graphics/SVG/1.1/DTD/svg11.dtd" >
<svg xmlns="http://www.w3.org/2000/svg">
<metadata></metadata>
<defs>
<font id="oksana_text_narrowbold" horiz-adv-x="1017" >
<font-face units-per-em="2048" ascent="1638" descent="-410" />
<missing-glyph horiz-adv-x="591" />
<glyph horiz-adv-x="2048" />
<glyph horiz-adv-x="2048" />
<glyph unicode="&#xd;" horiz-adv-x="2048" />
<glyph unicode=" "  horiz-adv-x="591" />
<glyph unicode="&#x09;" horiz-adv-x="591" />
<glyph unicode="&#xa0;" horiz-adv-x="591" />
<glyph unicode="!" horiz-adv-x="618" d="M166 152q0 70 42.5 116.5t100.5 46.5q60 0 102 -46t42 -117q0 -69 -42.5 -115.5t-101.5 -46.5q-58 0 -100.5 46.5t-42.5 115.5zM178 1528l283 16l-47 -938l-213 -14z" />
<glyph unicode="&#x22;" horiz-adv-x="761" d="M39 1528l250 10l-25 -524l-201 -10zM426 1528l250 10l-25 -524l-200 -10z" />
<glyph unicode="#" horiz-adv-x="997" d="M68 389l6 186h172l37 181h-215l6 186h248l59 285l160 -37l-52 -248h125l54 254l159 -37l-45 -217h148l-6 -186h-181l-36 -181h223l-6 -186h-256l-58 -278l-159 36l49 242h-125l-51 -250l-160 39l43 211h-139zM414 575h125l36 181h-124z" />
<glyph unicode="$" horiz-adv-x="956" d="M100 209l74 168q15 -10 41.5 -24t97 -38t127.5 -24q69 0 105.5 29.5t36.5 76.5q0 33 -24 62t-62.5 51.5t-85 47t-93.5 55.5t-85.5 68t-62.5 94t-24 126q0 106 66.5 180t181.5 101l-10 260l252 -17l-10 -237q44 -5 87 -14t64 -15l21 -6l-13 -192q-143 40 -243 40 q-125 0 -125 -90q0 -80 186 -174q137 -77 193.5 -147t56.5 -178q0 -106 -58.5 -179.5t-168.5 -105.5l10 -238l-252 17l8 203q-56 4 -106.5 16t-82.5 26t-56.5 27.5t-35.5 21.5z" />
<glyph unicode="%" horiz-adv-x="1867" d="M47 942q0 183 101 301.5t255 118.5q153 0 251 -112t98 -294q0 -184 -101 -302.5t-260 -118.5q-161 0 -252.5 110.5t-91.5 296.5zM258 950q0 -103 40.5 -164t104.5 -61t102 62.5t38 162.5q0 98 -44 157.5t-108 59.5q-59 0 -96 -59t-37 -158zM463 -8l686 1331l260 16 l-686 -1331zM1116 375q0 184 101.5 302t255.5 118q151 0 248.5 -111.5t97.5 -292.5q0 -185 -100.5 -304.5t-258.5 -119.5q-161 0 -252.5 111.5t-91.5 296.5zM1327 385q0 -106 40.5 -165.5t105.5 -59.5q62 0 99.5 62t37.5 163t-43 159t-107 58q-59 0 -96 -59.5t-37 -157.5z " />
<glyph unicode="&#x26;" horiz-adv-x="1445" d="M47 393q0 142 69.5 231.5t184.5 127.5q-151 96 -151 256q0 163 105 257.5t280 94.5q80 0 153.5 -11t107.5 -23l33 -11l-10 -172q-114 31 -223 31q-81 0 -123.5 -46.5t-42.5 -126.5q0 -100 68 -172h293v164l276 107v-271h279v-155l-13 -4q-13 -5 -35.5 -11.5t-51 -13.5 t-68.5 -11.5t-80 -4.5h-31v-281q0 -143 109 -143q40 0 97 13.5t93 27.5l37 14v-149q-4 -6 -12 -15.5t-37.5 -34.5t-64.5 -44t-95 -34.5t-127 -15.5q-102 0 -163 37t-89 115q-119 -152 -344 -152q-184 0 -304 118t-120 308zM348 418q0 -99 58 -163.5t153 -64.5q47 0 88 15 t69.5 38.5t45.5 43t29 39.5v303h-273q-83 -3 -126.5 -58t-43.5 -153z" />
<glyph unicode="'" horiz-adv-x="374" d="M39 1528l250 10l-25 -524l-201 -10z" />
<glyph unicode="(" horiz-adv-x="677" d="M147 549q0 138 15 266.5t38.5 223t52 176t57.5 136t52.5 93.5t38.5 56l15 18l207 -84q-8 -13 -22 -37.5t-50 -109.5t-63 -178.5t-49.5 -241.5t-22.5 -302q0 -155 21.5 -300.5t52 -242t60.5 -171.5t52 -109l21 -35l-207 -115q-6 6 -15.5 17.5t-37.5 54t-53.5 92 t-56.5 132.5t-53 175t-37.5 220t-15.5 266z" />
<glyph unicode=")" horiz-adv-x="677" d="M55 -309q8 13 22 37.5t50 108.5t63 177.5t49.5 241.5t22.5 303t-21.5 300.5t-52 242t-60.5 171.5t-52 109l-21 35l207 115q6 -6 15.5 -17.5t37.5 -54t53 -92t56 -132.5t53.5 -175t37.5 -220t15 -266t-15 -266.5t-38.5 -222.5t-52 -176t-57 -136t-52 -93t-38.5 -57 l-15 -17z" />
<glyph unicode="*" horiz-adv-x="761" d="M-4 1022l80 231l235 -129l-53 316l225 12l-20 -319l242 129l69 -209l-260 -68l207 -240l-219 -120l-117 270l-141 -279l-178 125l206 232z" />
<glyph unicode="+" horiz-adv-x="907" d="M51 510l6 197h297v346l203 16v-362h297l-6 -197h-291v-334l-203 -14v348h-303z" />
<glyph unicode="," horiz-adv-x="491" d="M31 -371q178 181 178 353q0 31 -6 61l-78 10q0 85 43 131.5t100 46.5q55 0 89.5 -33.5t45.5 -75.5t11 -91q0 -118 -72 -243.5t-190 -227.5z" />
<glyph unicode="-" horiz-adv-x="626" d="M51 512l6 195h516l-6 -195h-516z" />
<glyph unicode="." horiz-adv-x="557" d="M135 152q0 70 42.5 116.5t101.5 46.5q60 0 101.5 -46t41.5 -117q0 -70 -42 -116t-101 -46q-58 0 -101 46.5t-43 115.5z" />
<glyph unicode="/" horiz-adv-x="874" d="M-37 -520q152 452 335 964t290 798l108 286l248 16q-392 -1036 -735 -2048z" />
<glyph unicode="0" horiz-adv-x="1126" d="M59 649q0 208 62.5 369t180 251.5t271.5 90.5q231 0 362.5 -186t131.5 -502q0 -207 -64.5 -367.5t-182.5 -249t-273 -88.5q-231 0 -359.5 182.5t-128.5 499.5zM342 668q0 -131 22.5 -233t75 -167t129.5 -65q55 0 97 34t67.5 96t38 142t12.5 178q0 131 -24 236t-78 173 t-131 68q-70 0 -118 -63.5t-69.5 -165.5t-21.5 -233z" />
<glyph unicode="1" horiz-adv-x="794" d="M-4 975q88 83 186 167t152 126l53 43l277 26v-1329l-277 -16v1069l-289 -248z" />
<glyph unicode="2" horiz-adv-x="1013" d="M82 0l6 256q11 8 30 22.5t74 60t104.5 91.5t110.5 111t105 125t74 128t30 124q0 103 -58.5 160t-166.5 57q-61 0 -128 -10.5t-103 -20.5l-37 -10l8 206q17 7 46.5 17t111 26.5t149.5 16.5q245 0 359 -106t114 -285q0 -77 -34 -162.5t-85.5 -160t-124 -152.5 t-137.5 -136.5t-137 -115.5q71 0 106.5 1t61 3t122.5 8t245 12l-6 -266h-840z" />
<glyph unicode="3" horiz-adv-x="968" d="M49 117l80 168q5 -4 14 -10.5t38 -24t59 -30.5t74 -23.5t87 -10.5q110 0 163.5 62t53.5 147q0 94 -69.5 154.5t-206.5 60.5l-59 146q135 132 284 334q-111 -15 -168 -15l-266 4l10 260q94 -8 217 -8l486 8l-6 -194q-125 -174 -293 -348q70 -14 132.5 -45.5t114.5 -78 t82.5 -114t30.5 -145.5q0 -191 -131 -319t-356 -128q-76 0 -142 15.5t-106 37.5t-69.5 44t-41.5 38z" />
<glyph unicode="4" horiz-adv-x="999" d="M6 303l6 217q117 186 270 386.5t247 308.5l94 108l198 16v-811q84 5 170 9l-6 -234q-2 0 -23 -0.5t-61.5 -1.5t-79.5 -2v-291l-268 -16v305h-158zM211 514q240 6 287 6h55v453q-214 -268 -342 -459z" />
<glyph unicode="5" horiz-adv-x="946" d="M18 131l74 154q5 -4 15 -10.5t41 -22.5t63 -28.5t79 -23t91 -10.5q104 0 160.5 63t56.5 163t-57.5 161.5t-173.5 61.5q-99 0 -224 -25h-2q6 210 20 389.5t25 253.5l11 74h329q72 0 145 2t109 4l37 2l-12 -247q-3 0 -33.5 -3t-79 -6.5t-96.5 -3.5q-72 0 -240 4 q-14 -126 -22 -258q72 21 123 21q211 0 320.5 -111t109.5 -295q0 -135 -66.5 -244t-179 -169t-246.5 -60q-76 0 -142.5 17t-107.5 41t-71.5 48t-43.5 41z" />
<glyph unicode="6" d="M59 487q0 152 35.5 283t94 226t140 172t166.5 125.5t181 82.5l72 -182q-168 -77 -256 -169t-123 -237q114 60 233 60q161 0 261 -103t100 -268q0 -224 -140 -367t-358 -143q-189 0 -297.5 144t-108.5 376zM342 498q0 -87 15.5 -153t54.5 -110.5t100 -44.5 q83 0 129.5 63.5t46.5 162.5q0 110 -45 171.5t-123 61.5q-83 0 -176 -39q-2 -35 -2 -112z" />
<glyph unicode="7" horiz-adv-x="868" d="M8 1079l8 252h844l-10 -198q-10 -22 -28.5 -61t-72 -164t-104.5 -252t-117.5 -310t-119.5 -354l-297 16q149 477 446 1077q-133 -18 -199 -18q-61 0 -148.5 3t-144.5 6z" />
<glyph unicode="8" horiz-adv-x="1052" d="M59 348q0 67 20.5 125.5t55.5 101.5t73 73.5t83 53.5q-172 104 -172 291q0 160 118 263.5t298 103.5q167 0 285 -93.5t118 -236.5q0 -213 -193 -328q248 -117 248 -317q0 -175 -133.5 -296.5t-349.5 -121.5q-207 0 -329 108.5t-122 272.5zM336 385q0 -90 50.5 -151.5 t141.5 -61.5q93 0 144 57.5t51 151.5q0 41 -17.5 77t-41.5 59t-57 43.5t-56 30t-47 17.5q-168 -70 -168 -223zM375 999q0 -50 17 -90.5t43.5 -65t47.5 -37.5t41 -20q152 75 152 211q0 79 -40.5 123.5t-113.5 44.5q-72 0 -109.5 -45.5t-37.5 -120.5z" />
<glyph unicode="9" d="M53 860q0 133 59.5 247.5t165 183.5t232.5 69q209 0 327.5 -136t118.5 -368q0 -165 -37.5 -302.5t-103.5 -237t-159 -174.5t-200 -119t-231 -66l-55 186q202 39 315 131.5t158 245.5q-124 -57 -240 -57q-168 0 -259 106t-91 291zM330 899q0 -99 41.5 -167t111.5 -68 q92 0 193 30q6 70 6 152q0 144 -40 220.5t-132 76.5q-85 0 -132.5 -72.5t-47.5 -171.5z" />
<glyph unicode=":" horiz-adv-x="557" d="M135 231q0 70 43 117t101 47q60 0 101.5 -46.5t41.5 -117.5q0 -69 -42 -115t-101 -46q-58 0 -101 46t-43 115zM135 856q0 70 43 117t101 47q60 0 101.5 -46.5t41.5 -117.5q0 -70 -42 -116t-101 -46q-58 0 -101 46.5t-43 115.5z" />
<glyph unicode=";" horiz-adv-x="557" d="M31 -371q178 181 178 353q0 31 -6 61l-78 10q0 85 43 131.5t100 46.5q55 0 89.5 -33.5t45.5 -75.5t11 -91q0 -118 -72 -243.5t-190 -227.5zM135 856q0 70 43 117t101 47q60 0 101.5 -46.5t41.5 -117.5q0 -70 -42 -116t-101 -46q-58 0 -101 46.5t-43 115.5z" />
<glyph unicode="&#x3c;" horiz-adv-x="712" d="M72 645l442 438l160 -102l-330 -317l330 -318l-160 -137z" />
<glyph unicode="=" horiz-adv-x="950" d="M51 309l6 195h840l-6 -195h-840zM51 760l6 194h840l-6 -194h-840z" />
<glyph unicode="&#x3e;" horiz-adv-x="712" d="M39 295l330 315l-330 320l168 139l434 -438l-434 -436z" />
<glyph unicode="?" horiz-adv-x="768" d="M33 1290v215q8 5 26 13.5t87.5 22t156.5 13.5q105 0 188.5 -31t134 -84t77 -118.5t26.5 -138.5q0 -76 -20.5 -136t-53.5 -98.5t-73 -71.5t-79.5 -65.5t-72.5 -69.5t-53.5 -94t-20.5 -129l-192 -8q0 96 15 172t38.5 124.5t52.5 87t58 67.5t52.5 57t38.5 64.5t15 82.5 q0 83 -55.5 126.5t-145.5 43.5q-52 0 -102 -11.5t-74 -22.5zM102 152q0 70 42.5 116.5t101.5 46.5q60 0 101.5 -46t41.5 -117q0 -70 -42 -116t-101 -46q-58 0 -101 46.5t-43 115.5z" />
<glyph unicode="@" horiz-adv-x="1691" d="M131 346q0 269 101.5 478t284.5 323.5t419 114.5q291 0 465 -190t174 -503q0 -133 -24 -238.5t-62.5 -170.5t-90 -108t-101.5 -60t-103 -17q-81 0 -126 29.5t-64 89.5q-70 -127 -211 -127q-125 0 -208 107.5t-83 287.5q0 93 26 176t75.5 148.5t128.5 104t177 38.5 q72 0 138.5 -19.5t97.5 -38.5l31 -19v-516q0 -99 55 -99q58 0 98.5 97t40.5 290q0 251 -131 399t-340 148q-93 0 -174.5 -25.5t-151 -80t-119.5 -135t-78 -196t-28 -257.5q0 -134 30 -246t81 -189t119 -130.5t142 -78t152 -24.5l-6 -184q-160 0 -293 51.5t-232.5 151.5 t-154.5 258t-55 360zM713 385q0 -101 40 -166t105 -65q60 0 129 65v422q-54 14 -72 14q-101 0 -151.5 -76t-50.5 -194z" />
<glyph unicode="A" horiz-adv-x="1306" d="M47 0l354 1112l-112 -2l24 209q205 20 338 20q247 0 318 -313l168 -719q25 -121 55 -121q14 0 37.5 4t40.5 8l16 5v-172q-156 -51 -260 -51q-69 0 -99.5 45.5t-56.5 167.5l-16 75h-461l-74 -276zM446 467h363l-98 455q-22 98 -42 143t-51 51z" />
<glyph unicode="B" horiz-adv-x="1120" d="M66 1092l6 217q24 6 66 14.5t163.5 22.5t233.5 14q223 0 333.5 -90.5t110.5 -251.5q0 -156 -105 -303q191 -101 191 -307q0 -88 -31 -166t-89.5 -140t-154 -98.5t-215.5 -36.5q-96 0 -195 8t-150 17l-52 8v1106zM434 199q86 -11 139 -11q106 0 162 58t56 153 q0 195 -254 195q-47 0 -103 -6v-389zM434 774q86 8 127 8q61 0 129 -10q49 78 49 162q0 201 -202 201q-15 0 -103 -5v-356z" />
<glyph unicode="C" horiz-adv-x="1130" d="M47 653q0 199 78 361t216.5 254t309.5 92q105 0 204 -15t145 -30l47 -15l-39 -489h-197q-8 155 -12 305q-59 12 -119 12q-106 0 -179.5 -63t-107 -163.5t-33.5 -229.5q0 -195 89 -328t237 -133q87 0 174.5 29.5t131.5 58.5l44 29l72 -144q-6 -9 -18.5 -23.5t-56 -52 t-93.5 -66t-132 -52t-171 -23.5q-266 0 -428 189t-162 497z" />
<glyph unicode="D" horiz-adv-x="1314" d="M66 1092l6 217q273 51 542 51q294 0 474 -188t180 -500q0 -208 -79 -367.5t-227.5 -248.5t-347.5 -89q-121 0 -230 8t-158 17l-48 8v1102zM459 217q71 -8 170 -8q160 0 242.5 119.5t82.5 324.5q0 216 -97 346.5t-261 130.5q-64 0 -137 -6v-907z" />
<glyph unicode="E" d="M72 1114l6 195q1 0 11 2.5t33 5.5t58.5 6t100 5.5t145.5 2.5h532v-201q-238 -20 -501 -22l-11 -299h412l-6 -195q-123 -47 -256 -47q-80 0 -154 27v-148q0 -139 47.5 -193t163.5 -54q59 0 137.5 16.5t127.5 32.5l49 16l32 -198q-7 -4 -19.5 -10.5t-56 -24t-91 -30.5 t-123 -23.5t-154.5 -10.5q-216 0 -304.5 112.5t-88.5 344.5q0 344 18 686z" />
<glyph unicode="F" horiz-adv-x="970" d="M78 1114l6 195l9 3q9 2 31.5 5t58.5 6t103 5.5t152 2.5h525v-201q-245 -22 -504 -22v-328h446v-194q-110 -35 -243 -35q-117 0 -203 35v-578l-281 -16v1118z" />
<glyph unicode="G" horiz-adv-x="1179" d="M47 645q0 200 82 363t233 257.5t343 94.5q93 0 182.5 -13t132.5 -25l43 -13l-19 -242q-163 49 -335 49q-176 0 -270.5 -124t-94.5 -328q0 -206 101 -335.5t276 -129.5q63 0 131 12v233q0 132 -10 142q-9 5 -38.5 10t-55.5 8l-25 2v201h285q29 0 44 -23.5t22 -93t7 -209.5 v-448q-20 -7 -56.5 -18t-147 -29.5t-218.5 -18.5q-276 0 -444 185.5t-168 492.5z" />
<glyph unicode="H" horiz-adv-x="1378" d="M84 1130v201h301q29 0 44 -23t22.5 -93t7.5 -209v-258l440 6v569l281 16v-995q0 -127 18 -127l84 8v-209q-215 -36 -297 -36q-45 0 -65.5 79t-20.5 285v193l-440 -5v-524l-281 -16v977q0 131 -10 141q-9 5 -30 10t-38 8z" />
<glyph unicode="I" horiz-adv-x="727" d="M113 1137l6 178q45 16 180 16h305l-6 -178q-1 0 -11 -2t-30.5 -5.5t-42.5 -6.5v-942h102l-6 -174q-26 -23 -145 -23h-336l6 186q1 0 12.5 1.5t34.5 3.5t49 4v942h-118z" />
<glyph unicode="J" horiz-adv-x="653" d="M-37 -174q89 20 142 79t78.5 172t25.5 296v764h-115l6 178q46 16 181 16h305l-6 -178q-1 0 -12 -2t-33 -5.5t-46 -6.5v-736q0 -195 -37.5 -344.5t-105 -242t-154.5 -143t-194 -60.5z" />
<glyph unicode="K" horiz-adv-x="1257" d="M84 1130v201h301q29 0 44 -23t22.5 -93t7.5 -209v-326l110 113l336 548l297 -16l-428 -625q250 -477 311 -477q14 0 41.5 4.5t48.5 9.5l21 5l25 -205q-13 -6 -36.5 -15.5t-90 -25.5t-127.5 -16q-71 0 -164 129.5t-230 398.5l-114 -92v-408l-281 -16v977q0 131 -10 141 q-9 5 -30 10t-38 8z" />
<glyph unicode="L" horiz-adv-x="1021" d="M84 1130v201h301q29 0 44 -23t22.5 -93t7.5 -209v-795h278q82 0 88 65l15 144l143 8q21 -237 21 -303q0 -125 -191 -125h-715v158q27 25 80 41v770q0 131 -10 141q-9 5 -30 10t-38 8z" />
<glyph unicode="M" horiz-adv-x="1740" d="M84 0l190 1110l-112 -8l24 217q185 20 328 20q23 0 46 -18.5t46 -60.5t43.5 -88t44.5 -123.5t43 -143t45 -171t44.5 -183t47.5 -201.5l338 973l261 16l98 -999q13 -147 31 -147l98 14l20 -176q-17 -6 -46.5 -14.5t-112.5 -22.5t-156 -14q-44 0 -71 80.5t-42 275.5 l-41 508l-299 -836l-237 -16q-171 675 -252 950l-113 -950z" />
<glyph unicode="N" horiz-adv-x="1363" d="M76 1104l6 217q161 18 274 18q24 0 51 -15t58.5 -49t61 -70.5t68.5 -98.5t70 -113t76.5 -133.5t77.5 -141t83.5 -154.5t84.5 -156l-6 210v705l238 16v-1331l-258 -24q-97 147 -200.5 321t-203 348t-141.5 244v-889l-238 -16v1106q-20 1 -44 2.5t-39.5 2.5t-18.5 1z" />
<glyph unicode="O" horiz-adv-x="1327" d="M47 645q0 156 45.5 289t126 226.5t195.5 146.5t250 53q275 0 445.5 -188t170.5 -500q0 -206 -79.5 -367t-221 -249.5t-322.5 -88.5q-276 0 -443 183.5t-167 494.5zM369 676q0 -133 37.5 -243t107 -175t156.5 -65q84 0 150 60.5t101 163t35 228.5q0 135 -36 244.5 t-104.5 175t-158.5 65.5q-127 0 -207.5 -130t-80.5 -324z" />
<glyph unicode="P" horiz-adv-x="1073" d="M66 1096l6 213q26 6 71 14.5t171 22.5t237 14q151 0 262 -65t166 -172.5t55 -243.5q0 -100 -27.5 -184.5t-72 -141.5t-102 -97t-117 -58.5t-117.5 -18.5q-92 0 -158 20v-391l-262 -16v1118zM440 594q58 -8 105 -8q85 0 149 69.5t64 202.5q0 122 -57 198.5t-175 76.5 q-14 0 -43 -1.5t-43 -1.5v-536z" />
<glyph unicode="Q" horiz-adv-x="1327" d="M47 649q0 315 167 513t439 198q134 0 245 -52t182 -140.5t110 -204t39 -244.5q0 -95 -17.5 -180.5t-43.5 -146t-61.5 -112t-67 -82.5t-64.5 -55q93 -13 170 -43t164 -84l-92 -233q-288 184 -584 184q-263 0 -424.5 185.5t-161.5 496.5zM362 672q0 -201 89 -340t219 -139 q24 0 56.5 17t70 56t68.5 93t52 136.5t21 178.5q0 195 -83.5 325.5t-207.5 130.5q-86 0 -152 -63.5t-99.5 -167t-33.5 -227.5z" />
<glyph unicode="R" horiz-adv-x="1177" d="M66 1096l6 213q278 51 499 51q247 0 377.5 -117.5t130.5 -316.5q0 -255 -256 -412q42 -84 82 -153t65.5 -103.5t33.5 -34.5q20 0 45 3.5t40 6.5l15 3l24 -199q-14 -6 -38.5 -15.5t-88.5 -25.5t-114 -16q-70 0 -141.5 103.5t-174.5 319.5q-68 -20 -131 -32v-363l-262 -16 v1116q-24 -2 -51 -5.5t-41 -5t-18 -1.5h-2zM440 571q37 9 72.5 21t87.5 39t89.5 60t65 85.5t27.5 114.5q0 113 -58 178.5t-175 65.5q-17 0 -109 -5v-559z" />
<glyph unicode="S" horiz-adv-x="1005" d="M47 106l90 216q7 -5 20.5 -13t53.5 -29t79 -37t91.5 -29t97.5 -13q94 0 141.5 38t47.5 101t-55.5 106t-172.5 84q-171 69 -252.5 171.5t-81.5 259.5q0 169 122.5 284t336.5 115q84 0 166 -13t122 -25l40 -13l-21 -381h-184q-10 96 -16 202q-70 9 -94 9 q-98 0 -144.5 -41.5t-46.5 -114.5q0 -75 47 -128.5t156 -90.5q90 -37 152 -72t113.5 -83t77 -109.5t25.5 -139.5q0 -183 -123.5 -288t-340.5 -105q-84 0 -160.5 14.5t-126.5 34.5t-88 40.5t-55 35.5z" />
<glyph unicode="T" horiz-adv-x="997" d="M-29 1122l6 209h1041v-209q-194 -18 -393 -18v-760q0 -39 1 -63.5t3 -39t4.5 -19.5t7.5 -5l83 8v-209q-195 -36 -286 -36q-35 0 -55.5 31.5t-30.5 111t-10 221.5v760q-84 0 -177 4.5t-143 9.5z" />
<glyph unicode="U" horiz-adv-x="1378" d="M84 1130v201h301q29 0 44 -23t22.5 -93t7.5 -209v-525q0 -207 166 -207q44 0 86.5 18.5t71.5 43t55.5 56.5t39 52t21.5 37v842l281 16v-995q0 -127 18 -127l84 8v-209q-195 -36 -285 -36q-52 0 -74.5 70.5t-23.5 258.5h-8q-1 -7 -3.5 -19.5t-14 -48t-28 -67.5t-47 -71.5 t-69 -68t-96.5 -48t-127 -19.5q-182 0 -255 124.5t-73 381.5v496q0 131 -10 141q-9 5 -30 10t-38 8z" />
<glyph unicode="V" horiz-adv-x="1202" d="M-8 1319q184 20 317 20q35 0 79 -109t89 -290t79 -341.5t67 -334.5q98 221 178 501.5t119 573.5l290 -8q-28 -179 -92 -386t-139.5 -385t-146 -319.5t-127.5 -232.5l-259 -16q-276 1126 -329 1126l-101 -8z" />
<glyph unicode="W" horiz-adv-x="1859" d="M-8 1319q156 20 303 20q48 0 95.5 -103t87 -275t67.5 -329.5t53 -330.5q81 237 159 544t107 494l209 -8q134 -334 273 -1057q83 223 150 516.5t93 555.5l281 -15q-44 -308 -187 -727t-253 -596l-261 -16q-81 486 -192 899q-67 -259 -152.5 -505.5t-154.5 -377.5l-260 -16 q-215 1126 -283 1126l-111 -8z" />
<glyph unicode="X" horiz-adv-x="1277" d="M41 0l428 668q-226 481 -305 481h-80l-25 170q119 20 246 20q44 0 96.5 -47.5t103.5 -127.5t90 -153.5t77 -154.5l270 483l313 -8l-417 -655q55 -117 116 -232t103 -183t51 -68l104 12l27 -172q-11 -6 -30.5 -15t-83 -23.5t-128.5 -14.5q-31 0 -59 13t-57 44t-54.5 67.5 t-59 101t-62 125t-72.5 156.5l-279 -495z" />
<glyph unicode="Y" horiz-adv-x="1138" d="M-8 1319q155 20 284 20q45 0 96.5 -93.5t97.5 -247t81 -293t65 -287.5q100 172 169.5 420.5t88.5 500.5l275 -16q-34 -271 -132 -558t-245 -513q-70 -108 -154 -194.5t-152.5 -134t-133 -79.5t-99.5 -42.5t-49 -10.5l-96 234q28 0 137.5 58.5t194.5 135.5 q-22 87 -56.5 213t-84 291t-95.5 277t-71 112l-97 -6z" />
<glyph unicode="Z" horiz-adv-x="1140" d="M76 0l6 156l625 979q-136 -5 -363 -5q-46 0 -64.5 -16.5t-21.5 -58.5l-14 -160l-146 8q-22 233 -22 301q0 69 40 102t152 33l793 -8l-6 -155l-621 -967l363 -6q43 0 63.5 16t24.5 57l14 160l143 -8q21 -237 21 -303t-41.5 -99.5t-149.5 -33.5z" />
<glyph unicode="[" horiz-adv-x="733" d="M147 -186v1644h594l-8 -188q-137 -19 -348 -25v-1218q96 -2 185 -7.5t130 -10.5l41 -5l-8 -190h-586z" />
<glyph unicode="\" horiz-adv-x="876" d="M-74 1528l258 16q153 -452 337 -964t291 -798l108 -286l-261 -16q-392 1034 -733 2048z" />
<glyph unicode="]" horiz-adv-x="733" d="M-12 -186l8 190q139 19 352 23v1218q-96 3 -186 9t-132 11l-42 5l8 188h590v-1644h-598z" />
<glyph unicode="^" horiz-adv-x="673" d="M39 1118l297 291l297 -291l-107 -112l-190 196l-189 -196z" />
<glyph unicode="_" horiz-adv-x="1351" d="M51 -307l6 194h1243l-6 -194h-1243z" />
<glyph unicode="`" horiz-adv-x="444" d="M23 1458l149 123q22 -58 103 -177t120 -157l-106 -112q-48 34 -145 148.5t-121 174.5z" />
<glyph unicode="a" horiz-adv-x="1050" d="M53 276q0 169 107.5 266t271.5 97q91 0 191 -14v43q0 97 -44 138.5t-155 41.5q-44 0 -104.5 -6t-99.5 -12l-38 -5l6 174q17 6 47 15.5t112.5 25t152.5 15.5q93 0 162.5 -19t112.5 -51.5t69 -82t35.5 -102t9.5 -120.5q0 -79 -6 -206t-6 -193q0 -61 9 -89t32 -28l59 10 v-137q-9 -6 -26 -15.5t-64.5 -25.5t-91.5 -16q-96 0 -135 51t-44 172h-4q-1 -5 -2.5 -13.5t-9 -33t-18.5 -47t-32.5 -49.5t-48.5 -46.5t-69 -33t-92 -13.5q-118 0 -202.5 82t-84.5 227zM307 336q0 -73 36 -113.5t95 -40.5q74 0 120 54.5t58 128.5l5 133q-110 12 -144 12 q-81 0 -125.5 -46.5t-44.5 -127.5z" />
<glyph unicode="b" horiz-adv-x="1077" d="M53 1370l6 168q184 16 260 16q32 0 52 -16t29.5 -49.5t12.5 -68.5t3 -91q0 -159 -4 -483h12q1 8 5 22.5t22.5 50.5t44.5 63.5t77 50t115 22.5q161 0 251.5 -142t90.5 -370q0 -121 -33 -223.5t-98.5 -182t-172.5 -125t-245 -45.5q-65 0 -124 8t-97.5 19.5t-67.5 23 t-42 19.5l-13 8q0 206 6.5 623.5t6.5 623.5q0 27 -0.5 39t-9 20t-14.5 9t-30 4t-43 6zM403 182q61 -18 121 -18q119 0 177.5 92t58.5 238q0 140 -48.5 219.5t-136.5 79.5q-36 0 -67.5 -13.5t-51.5 -34.5t-30 -35t-16 -26q-1 -43 -4 -224t-3 -278z" />
<glyph unicode="c" horiz-adv-x="878" d="M47 475q0 261 141 420.5t357 159.5q57 0 118.5 -11.5t94.5 -22.5l33 -11q0 -36 -4.5 -88t-9.5 -86l-5 -35q-92 41 -201 41q-126 0 -192 -81.5t-66 -228.5q0 -159 68.5 -250.5t175.5 -91.5q37 0 75.5 9.5t66.5 23t50.5 26.5t34.5 23l11 9l65 -148q-5 -7 -15 -18 t-44.5 -39.5t-73 -50.5t-101 -40t-128.5 -18q-202 0 -326.5 137t-124.5 371z" />
<glyph unicode="d" horiz-adv-x="1093" d="M47 461q0 96 21 183t65 162.5t108 130.5t155.5 86.5t201.5 31.5q32 0 86 -4q4 320 4 477l266 16q0 -209 -9 -630.5t-9 -630.5q0 -119 39 -119l61 10v-137q-9 -6 -26 -15.5t-64.5 -25.5t-91.5 -16q-91 0 -129.5 45t-46.5 151h-8q-2 -8 -6 -22.5t-23.5 -50.5t-46.5 -63.5 t-79.5 -50t-117.5 -22.5q-166 0 -258 134.5t-92 359.5zM319 516q0 -138 49 -213.5t138 -75.5q34 0 64 12t48.5 28.5t32 33.5t19.5 29l6 12q0 166 4 498q-70 18 -117 18q-120 0 -182 -98t-62 -244z" />
<glyph unicode="e" horiz-adv-x="923" d="M47 471q0 131 39 242t105 185t152.5 115.5t180.5 41.5q69 0 130 -18.5t110 -55t77.5 -97t28.5 -136.5q0 -161 -114.5 -259t-309.5 -98q-76 0 -133 25q3 -107 70 -170.5t168 -63.5q59 0 121.5 19t95.5 38l33 19l63 -152q-5 -6 -14.5 -15t-43 -33t-72.5 -42.5t-101.5 -33.5 t-130.5 -15q-205 0 -330 137t-125 367zM313 555q30 -10 68 -10q121 0 186.5 45.5t65.5 128.5q0 70 -33.5 107.5t-93.5 37.5q-81 0 -137 -84t-56 -225z" />
<glyph unicode="f" horiz-adv-x="774" d="M16 846l7 178h180v129q0 192 82.5 296.5t244.5 104.5q68 0 127 -11t84 -23l25 -11l-8 -200q-68 32 -154 32q-133 0 -133 -172v-145h23l272 2v-174q-92 -35 -272 -35h-21q10 -675 10 -809l-268 -16q0 151 -4.5 434.5t-5.5 396.5q-44 4 -91 9.5t-72 9.5z" />
<glyph unicode="g" horiz-adv-x="890" d="M29 -180q0 69 18 130t48.5 104.5t59.5 73t62 52.5q0 98 37 178q-81 45 -128.5 124t-47.5 186q0 179 109 281.5t292 105.5q71 1 130 8.5t93.5 17t58.5 19t33 16.5l9 6q47 -98 55 -170q-4 -4 -14 -10.5t-53 -20.5t-101 -22q103 -74 103 -221q0 -94 -41 -176t-122 -135.5 t-184 -53.5h-24v-20q0 -28 25.5 -50.5t66 -40.5t89.5 -37.5t98.5 -47t90 -61.5t66 -89t25.5 -123q0 -182 -114 -288.5t-329 -106.5q-201 0 -306 104t-105 267zM256 -119q0 -114 55.5 -170.5t143.5 -56.5q81 0 132.5 42t51.5 120q0 36 -20 65t-57.5 51t-75 38t-87.5 36.5 t-80 36.5q-63 -67 -63 -162zM315 692q0 -90 37 -145t99 -55q60 0 97.5 53.5t37.5 148.5q0 122 -54 195h-22q-93 0 -144 -52.5t-51 -144.5z" />
<glyph unicode="h" horiz-adv-x="1128" d="M53 1370l6 168q184 16 260 16q32 0 52 -16t29.5 -49.5t12.5 -68.5t3 -91q0 -180 -4 -532h10q2 10 6 27.5t23.5 62t47 78.5t80.5 62t119 28q143 0 206 -100t63 -302q0 -57 -6.5 -182t-6.5 -188q0 -62 9 -90.5t32 -28.5l60 10v-137q-10 -6 -26.5 -15.5t-64.5 -25.5t-92 -16 q-103 0 -140.5 60.5t-37.5 207.5q0 62 3 196t3 197q0 147 -106 147q-31 0 -61 -14t-50 -33t-37.5 -43t-25 -38t-12.5 -25q-5 -522 -5 -627l-266 -16q0 216 6.5 650t6.5 650q0 27 -0.5 39t-9 20t-14.5 9t-30 4t-43 6z" />
<glyph unicode="i" horiz-adv-x="587" d="M57 858l6 168q185 16 261 16q26 0 44 -11.5t28 -29.5t15.5 -49.5t7 -61t1.5 -73.5q0 -87 -6 -264t-6 -270q0 -119 41 -119l59 10v-137q-9 -6 -26 -15.5t-64 -25.5t-90 -16q-103 0 -142 61t-39 207q0 88 5.5 265.5t5.5 266.5q0 27 -0.5 39t-9.5 20t-15 9t-31 4t-45 6z M154 1382q0 72 42 122t101 50q57 0 99 -50.5t42 -121.5q0 -70 -42 -120t-99 -50q-59 0 -101 50t-42 120z" />
<glyph unicode="j" horiz-adv-x="585" d="M-72 -360q106 30 181 117.5t75 226.5q0 133 3 398t3 398q0 59 -10 62q-10 4 -31.5 8t-38.5 6l-16 2q6 165 6 168q184 16 260 16q26 0 44 -11.5t27.5 -29.5t15 -49.5t7 -60.5t1.5 -74q0 -136 -6.5 -397t-6.5 -397q0 -107 -26 -198t-69.5 -155t-102.5 -111.5t-122 -73.5 t-130 -34zM193 1382q0 72 42 122t101 50q57 0 99 -50.5t42 -121.5q0 -70 -42 -120t-99 -50q-59 0 -101 50t-42 120z" />
<glyph unicode="k" horiz-adv-x="1067" d="M53 1370l6 168q184 16 260 16q32 0 52 -16t29.5 -49.5t12.5 -68.5t3 -91q0 -245 -8 -733l88 82l262 360l278 -14l-368 -416q92 -225 165.5 -343t120.5 -118q12 0 30.5 2.5t31.5 5.5l12 3v-131q-9 -5 -25.5 -13t-71 -21t-112.5 -13q-87 0 -159 100t-187 360l-67 -47 q-3 -194 -3 -385l-266 -16q0 216 6.5 650t6.5 650q0 27 -0.5 39t-9 20t-14.5 9t-30 4t-43 6z" />
<glyph unicode="l" horiz-adv-x="561" d="M59 1370l7 168q177 16 253 16q32 0 52 -16t29.5 -49.5t12.5 -68.5t3 -91q0 -145 -9.5 -520t-9.5 -526q0 -119 41 -119l60 10v-137q-10 -6 -26.5 -15.5t-64 -25.5t-90.5 -16q-104 0 -142 60.5t-38 207.5t9.5 521t9.5 523q0 27 -0.5 39t-9 20t-14.5 9t-30 4t-43 6z" />
<glyph unicode="m" horiz-adv-x="1564" d="M57 858l6 168q185 16 261 16q31 0 51 -15.5t29.5 -48.5t12.5 -68t3 -89h8q1 5 2.5 13.5t9 32.5t17.5 46.5t29 49.5t42 46t58 32.5t76 13.5q109 0 165 -57t74 -177h8q1 5 3 13.5t10.5 32.5t19.5 46.5t31 49.5t44 46t59.5 32.5t76.5 13.5q136 0 193 -82.5t57 -241.5 q0 -109 -7 -264t-7 -217q0 -86 43 -86l59 10v-137q-9 -6 -26 -15.5t-64.5 -25.5t-91.5 -16q-103 0 -141 60.5t-38 207.5q0 70 3.5 207t3.5 207q0 60 -22 94.5t-66 34.5q-35 0 -68 -25t-47.5 -47.5t-22.5 -40.5v-8q0 -110 -3 -330.5t-3 -331.5l-266 -16q0 112 3 335t3 335 q0 60 -22.5 94.5t-67.5 34.5q-24 0 -48 -14t-42.5 -36.5t-28 -36t-16.5 -26.5q-6 -669 -6 -670l-267 -16q0 131 3.5 394t3.5 394q0 27 -0.5 39t-9 20t-14.5 9t-30 4t-43 6z" />
<glyph unicode="n" horiz-adv-x="1142" d="M55 858l6 168q185 16 261 16q26 0 44 -11.5t28 -29.5t15.5 -49.5t7 -61t1.5 -73.5v-20h8q1 5 3 14.5t12 36.5t22.5 51t36 54t51.5 51.5t70.5 36t91.5 14.5q143 0 205.5 -100t62.5 -302q0 -44 -6 -169t-6 -201q0 -119 41 -119l59 10v-137q-9 -6 -26 -15.5t-64 -25.5 t-90 -16q-103 0 -141.5 60.5t-38.5 207.5l6 393q0 147 -107 147q-39 0 -75 -20.5t-60 -50.5t-36.5 -49.5t-18.5 -32.5q-1 -70 -2.5 -197.5t-2.5 -232t-1 -197.5l-265 -16q0 131 3.5 394t3.5 394q0 27 -0.5 39t-9 20t-14.5 9t-31 4t-44 6z" />
<glyph unicode="o" horiz-adv-x="1028" d="M47 500q0 248 134.5 401.5t332.5 153.5q96 0 181 -36.5t148.5 -103t100.5 -168t37 -225.5q0 -248 -134 -401.5t-333 -153.5q-96 0 -181 36.5t-148.5 103t-100.5 168t-37 225.5zM313 524q0 -156 58 -251t149 -95q85 0 141 87t56 235q0 157 -58.5 252.5t-150.5 95.5 q-86 0 -140.5 -87t-54.5 -237z" />
<glyph unicode="p" horiz-adv-x="1087" d="M49 858l6 168q252 16 303 16q32 -1 43 -28.5t11 -87.5v-78h10q1 8 5 22t23 50t46.5 63t80 49.5t119.5 22.5q161 0 252.5 -142t91.5 -370q0 -121 -33.5 -223.5t-99 -182t-173 -125t-245.5 -45.5q-34 0 -88 4q-2 -158 -2 -475l-266 -16q0 216 6 650t6 650q0 53 -6 56 q-8 6 -30.5 11.5t-40.5 8.5zM406 182q64 -18 126 -18q119 0 176.5 92t57.5 238q0 140 -46.5 219.5t-133.5 79.5q-39 0 -72 -13.5t-54.5 -34t-32 -34t-17.5 -25.5q0 -168 -4 -504z" />
<glyph unicode="q" horiz-adv-x="1073" d="M47 461q0 96 21 183t65 162.5t108 130.5t155.5 86.5t201.5 31.5q93 0 177.5 -21t122.5 -42l38 -21q0 -199 -6 -607t-6 -612q0 -119 39 -119l61 11v-138q-9 -6 -26 -15.5t-64.5 -25.5t-91.5 -16q-103 0 -141.5 60.5t-38.5 207.5t4 459h-11q-1 -4 -2.5 -11.5t-9 -29.5 t-18.5 -41.5t-31.5 -44t-46 -41.5t-65 -29t-85.5 -12q-166 0 -258 134.5t-92 359.5zM319 516q0 -138 49 -213.5t138 -75.5q38 0 70 14t50.5 35t28.5 36.5t13 25.5q4 164 8 500q-65 20 -113 20q-120 0 -182 -98t-62 -244z" />
<glyph unicode="r" horiz-adv-x="753" d="M57 858l6 168q216 16 265 16q33 -17 43 -57.5t10 -122.5v-186h10q2 52 15 112t38 122.5t71.5 103.5t105.5 41q24 0 49.5 -7.5t39.5 -14.5l13 -7v-283q-98 13 -143 13q-54 0 -102 -94.5t-60 -190.5q0 -81 -2 -239.5t-2 -223.5l-267 -16q0 131 3.5 394t3.5 394q0 48 -4 56 q-9 5 -32 10.5t-42 8.5z" />
<glyph unicode="s" horiz-adv-x="851" d="M51 70l74 168q15 -10 41.5 -24t97 -38t127.5 -24q69 0 105 29.5t36 76.5q0 33 -24 62t-62.5 51.5t-85 47t-93 55.5t-85 68t-62.5 94t-24 126q0 133 101.5 213t265.5 80q68 0 139.5 -10.5t108.5 -20.5l37 -10l-13 -193q-143 41 -243 41q-125 0 -125 -90q0 -80 186 -174 q92 -52 143.5 -96t79 -100t27.5 -130q0 -142 -103 -223.5t-292 -81.5q-68 0 -130 10.5t-101.5 25.5t-69.5 30.5t-43 26.5z" />
<glyph unicode="t" horiz-adv-x="817" d="M37 829l6 179q51 10 166 14q0 42 1 126t1 126l266 61q0 -111 -4 -311l309 2v-180q-123 -29 -313 -29q-4 -282 -4 -434q0 -193 106 -193q46 0 99 15.5t82 30.5l30 16v-168q-4 -5 -11.5 -13t-33.5 -28t-55.5 -35.5t-77.5 -28t-100 -12.5q-164 0 -234.5 93.5t-70.5 281.5 q0 238 6 475z" />
<glyph unicode="u" horiz-adv-x="1150" d="M55 858l6 168q205 16 283 16q46 0 61 -34.5t15 -143.5q0 -70 -3 -221.5t-3 -255.5q0 -75 30 -114.5t84 -39.5q40 0 74 18t56 47.5t32.5 47.5t18.5 37q3 317 12 633l260 16q-2 -82 -7 -234t-8 -277t-3 -238q0 -60 12.5 -93.5t34.5 -33.5l59 12v-131q-9 -6 -26 -15.5 t-64 -25.5t-90 -16q-101 0 -139.5 56t-40.5 191h-4q-2 -11 -6.5 -28.5t-25.5 -62t-48.5 -79t-79 -62.5t-113.5 -28q-157 0 -218.5 94.5t-61.5 303.5q0 43 3 183t3 232q0 52 -13 56q-9 4 -31.5 9.5t-40.5 8.5z" />
<glyph unicode="v" horiz-adv-x="970" d="M-8 868v156q131 18 260 18q43 0 87.5 -92t78.5 -230.5t57.5 -257t36.5 -214.5h4q67 138 125.5 373.5t67.5 416.5l256 -14q-27 -213 -149 -535t-230 -481l-232 -16l-65 288q-137 568 -201 582q-23 6 -78 6h-18z" />
<glyph unicode="w" horiz-adv-x="1466" d="M-6 868v156q131 18 260 18q42 0 81 -70.5t68 -188t50 -240.5t36 -258q56 128 110 342.5t75 408.5h2l213 -12q59 -232 149 -743q51 130 102 346.5t70 410.5l258 -14q-31 -228 -135 -535t-211 -481l-225 -16q-90 482 -121 670q-46 -193 -110.5 -373t-126.5 -281l-217 -16 q-175 862 -232 870q-15 3 -39 4.5t-41 1.5h-16z" />
<glyph unicode="x" horiz-adv-x="1050" d="M37 0l325 487q-140 395 -208 400l-99 8v129q143 18 252 18q31 0 63.5 -34t64 -99t56 -126t54.5 -148l211 403l262 -14l-316 -469q21 -60 35 -98t34.5 -90t36.5 -85t35 -64.5t37 -46.5t35 -15q15 0 37.5 3t37.5 6l16 3v-141q-105 -47 -209 -47q-41 0 -77.5 30t-76 109.5 t-55 118t-57.5 153.5q-1 2 -2 3.5t-1.5 4t-1.5 4.5l-217 -419z" />
<glyph unicode="y" horiz-adv-x="980" d="M-8 868v156q131 18 260 18q43 0 92 -90.5t90 -226.5t70 -254.5t47 -212.5h2q58 145 109 377t57 403l264 -14q-31 -206 -136 -510.5t-224 -550.5q-73 -141 -152 -259.5t-121 -167.5l-43 -48l-221 98q9 9 24.5 25.5t58.5 66t81 98t82 115t71 123.5q-231 834 -315 848z" />
<glyph unicode="z" horiz-adv-x="917" d="M66 0l6 152l463 698q-204 -16 -234 -16q-68 0 -74 -84l-6 -103l-131 6q-10 125 -10 254q0 125 137 125l625 -8l-6 -143l-496 -709q218 16 254 16q57 0 75 18t21 62l6 101l144 -7q10 -147 10 -258q0 -57 -33.5 -84.5t-122.5 -27.5z" />
<glyph unicode="{" horiz-adv-x="770" d="M111 489l8 203q33 0 69 16.5t66.5 58.5t30.5 101v240q0 110 22.5 186.5t74.5 130t138.5 78.5t212.5 25l-8 -197q-112 0 -159.5 -48t-47.5 -146v-287q0 -77 -43.5 -146t-118.5 -114q76 -39 119 -101t43 -139v-301q0 -91 54.5 -142.5t160.5 -51.5l-8 -193 q-132 0 -218.5 24.5t-135 79.5t-67.5 129t-19 187v227q0 74 -61.5 127t-112.5 53z" />
<glyph unicode="|" horiz-adv-x="667" d="M193 -520v2048l282 16v-2048z" />
<glyph unicode="}" horiz-adv-x="770" d="M37 -338l8 197q112 0 159.5 48t47.5 146v287q0 77 43.5 146t118.5 114q-76 39 -119 101t-43 139v301q0 91 -54.5 142.5t-160.5 51.5l8 193q132 0 218.5 -24.5t135 -79.5t67.5 -129t19 -187v-227q0 -74 61.5 -127.5t112.5 -53.5l-8 -202q-33 0 -69 -16.5t-66.5 -58.5 t-30.5 -101v-240q0 -110 -22.5 -186.5t-74.5 -130t-138.5 -78.5t-212.5 -25z" />
<glyph unicode="~" horiz-adv-x="1161" d="M43 748q7 9 19.5 23t52 51t79.5 65t96.5 51t108.5 23q64 0 123 -23t102.5 -56t84 -66t85.5 -56t89 -23q53 0 102.5 19.5t72.5 39.5l23 19l31 -164q-5 -8 -14.5 -20.5t-42 -45t-68 -57t-91 -45t-112.5 -20.5t-109.5 21.5t-92.5 51.5t-78.5 60.5t-83 52t-88.5 21.5 q-57 0 -120 -28t-98 -56l-34 -27z" />
<glyph unicode="&#xa2;" horiz-adv-x="903" d="M78 618q0 197 82.5 339t222.5 202l-10 266l250 17l-11 -246q50 -3 102.5 -13.5t79.5 -20.5l27 -9q0 -36 -4.5 -88t-8.5 -87l-5 -34q-92 41 -201 41q-126 0 -192 -81t-66 -228q0 -159 68.5 -250.5t175.5 -91.5q59 0 118.5 22.5t89.5 45.5l29 22l66 -148q-4 -5 -12 -14 t-34.5 -32.5t-56.5 -43t-78 -40t-98 -29.5l11 -211l-250 -17l10 242q-142 45 -223.5 172t-81.5 315z" />
<glyph unicode="&#xa3;" horiz-adv-x="1171" d="M51 600l6 166h162q-8 60 -8 145q0 202 120 325.5t339 123.5q88 0 176.5 -15t133.5 -30l44 -15l-18 -210q-171 55 -308 55q-192 0 -192 -217q0 -82 6 -162h334l-6 -166h-308q32 -264 35 -389h260q64 0 87.5 16t23.5 49v144l158 10q24 -162 24 -305q0 -125 -231 -125h-787 v180q94 23 207 29q-12 142 -63 391h-195z" />
<glyph unicode="&#xa5;" horiz-adv-x="993" d="M-8 1331q137 19 237 19q51 0 98 -44.5t84.5 -121.5t66 -164t50.5 -186q151 298 185 507l264 -10q-72 -237 -324 -610h207l-6 -174h-240v-146h246l-6 -174h-240v-219l-280 -16v235h-268l6 174h262v146h-268l6 174h250q-59 170 -119 306.5t-90 141.5q-16 7 -76 7h-21z" />
<glyph unicode="&#xa8;" horiz-adv-x="804" d="M-18 1382q0 72 42 122t101 50t101 -50t42 -122q0 -70 -42 -120t-101 -50t-101 50t-42 120zM342 1382q0 71 42 121.5t99 50.5q59 0 102.5 -50.5t43.5 -121.5q0 -70 -43.5 -120t-102.5 -50q-57 0 -99 50t-42 120z" />
<glyph unicode="&#xa9;" horiz-adv-x="1415" d="M96 649q0 207 77.5 372.5t218.5 259t321 93.5q269 0 437.5 -194.5t168.5 -507.5q0 -155 -46 -289.5t-127 -230t-198 -150.5t-254 -55q-279 0 -438.5 192t-159.5 510zM281 670q0 -245 123 -405.5t313 -160.5q189 0 303.5 149t114.5 394q0 246 -125.5 408t-315.5 162 q-188 0 -300.5 -153t-112.5 -394zM412 631q0 167 99 273t234 106q58 0 106 -8.5t67 -17.5l18 -9v-148q-106 17 -172 17q-82 0 -126 -49t-44 -142q0 -87 46 -143.5t120 -56.5q44 0 88.5 21t67.5 42l22 21l49 -105q-4 -6 -11.5 -16t-35 -35t-58.5 -44.5t-82 -35.5t-106 -16 q-126 0 -204 92t-78 254z" />
<glyph unicode="&#xab;" horiz-adv-x="1034" d="M139 512l305 375l127 -123l-200 -244l196 -246l-123 -147zM508 512l305 375l127 -123l-201 -244l197 -246l-123 -147z" />
<glyph unicode="&#xad;" horiz-adv-x="626" d="M51 512l6 195h516l-6 -195h-516z" />
<glyph unicode="&#xae;" horiz-adv-x="1300" d="M86 897q0 296 160 483t409 187q161 0 288 -80t199 -229.5t72 -344.5q0 -197 -72.5 -353t-204.5 -244.5t-300 -88.5q-259 0 -405 180.5t-146 489.5zM260 911q0 -240 105.5 -376t289.5 -136t285.5 124t101.5 362q0 237 -110.5 373.5t-294.5 136.5q-183 0 -280 -125 t-97 -359zM449 569v641q56 19 208 19q117 0 179.5 -53t62.5 -150q0 -119 -111 -197l109 -245l-160 -15l-71 197q-37 -13 -74 -21v-159zM592 862q33 7 63 18.5t60 40t30 66.5q0 111 -104 111q-31 0 -49 -2v-234z" />
<glyph unicode="&#xb4;" horiz-adv-x="444" d="M23 1227q42 33 146 170t122 188l121 -96q-6 -43 -71 -122t-139 -142.5t-108 -71.5z" />
<glyph unicode="&#xb8;" horiz-adv-x="456" d="M33 -414l71 99q7 -7 18.5 -17.5t43.5 -28.5t59 -18q36 0 55 19t19 51q0 20 -14.5 37.5t-34.5 32.5t-40.5 32t-35 42t-14.5 56q0 30 11 57t23 38l11 12h141q-22 -32 -22 -55q0 -24 16.5 -45.5t40 -39t47.5 -38t40.5 -52.5t16.5 -73q0 -95 -65.5 -152t-167.5 -57 q-45 0 -84 10.5t-62.5 25t-41 29t-24.5 25.5z" />
<glyph unicode="&#xbb;" horiz-adv-x="1034" d="M92 248l201 241l-197 248l123 150l305 -385l-307 -375zM461 248l201 241l-197 248l123 150l305 -385l-307 -375z" />
<glyph unicode="&#x2c6;" horiz-adv-x="673" d="M43 1378l285 240l307 -201l-100 -166l-224 160l-176 -145z" />
<glyph unicode="&#x2da;" horiz-adv-x="798" d="M70 1425q0 108 59.5 180t149.5 72q88 0 146 -68t58 -175q0 -108 -59.5 -179t-151.5 -71q-95 0 -148.5 66.5t-53.5 174.5zM193 1436q0 -56 24.5 -90.5t61.5 -34.5t59 33.5t22 82.5q0 55 -25.5 89t-62.5 34q-34 0 -56.5 -33t-22.5 -81z" />
<glyph unicode="&#x2dc;" horiz-adv-x="815" d="M47 1440q5 5 13.5 12.5t35.5 27.5t55 35.5t68 28t78 12.5q60 0 111.5 -21.5t97 -43t90.5 -21.5q36 0 71 12t51 24l17 12l53 -156q-3 -5 -9 -12.5t-27 -27t-45.5 -34.5t-63.5 -27t-82 -12q-64 0 -151.5 41t-143.5 41q-40 0 -81 -16.5t-62 -32.5l-21 -16z" />
<glyph unicode="&#x400;" d="M72 1114l6 195q1 0 11 2.5t33 5.5t58.5 6t100 5.5t145.5 2.5h532v-201q-238 -20 -501 -22l-11 -299h412l-6 -195q-123 -47 -256 -47q-80 0 -154 27v-148q0 -139 47.5 -193t163.5 -54q59 0 137.5 16.5t127.5 32.5l49 16l32 -198q-7 -4 -19.5 -10.5t-56 -24t-91 -30.5 t-123 -23.5t-154.5 -10.5q-216 0 -304.5 112.5t-88.5 344.5q0 344 18 686zM279 1765l149 123q22 -58 103 -177t120 -157l-106 -112q-48 34 -145 148.5t-121 174.5z" />
<glyph unicode="&#x401;" d="M72 1114l6 195q1 0 11 2.5t33 5.5t58.5 6t100 5.5t145.5 2.5h532v-201q-238 -20 -501 -22l-11 -299h412l-6 -195q-123 -47 -256 -47q-80 0 -154 27v-148q0 -139 47.5 -193t163.5 -54q59 0 137.5 16.5t127.5 32.5l49 16l32 -198q-7 -4 -19.5 -10.5t-56 -24t-91 -30.5 t-123 -23.5t-154.5 -10.5q-216 0 -304.5 112.5t-88.5 344.5q0 344 18 686zM139 1690q0 72 42.5 122t101.5 50t101 -50t42 -122q0 -70 -42 -120t-101 -50t-101.5 50t-42.5 120zM500 1690q0 71 42 121.5t99 50.5q59 0 102 -50.5t43 -121.5q0 -70 -43 -120t-102 -50 q-57 0 -99 50t-42 120z" />
<glyph unicode="&#x402;" horiz-adv-x="1435" d="M-29 1126l11 205h1128v-203q-262 -26 -461 -26v-473h10q3 9 9 24t31.5 53.5t57.5 68t90 53.5t126 24q89 0 152.5 -26.5t98.5 -76.5t50.5 -111.5t15.5 -141.5v-359q0 -120 -30.5 -226.5t-83.5 -186t-122.5 -139.5t-149.5 -94t-163 -42l-32 244q136 31 218.5 138t82.5 278 v317q0 87 -29.5 125.5t-101.5 38.5q-45 0 -88 -17.5t-73 -43t-45.5 -41.5t-23.5 -27v-453l-280 -16v1110q-84 0 -183.5 6t-157.5 12z" />
<glyph unicode="&#x403;" horiz-adv-x="933" d="M66 1106l6 203q247 22 366 22q252 8 322 8q101 0 141.5 -32.5t40.5 -110.5q0 -54 -5.5 -141t-10.5 -147l-6 -60l-162 8v197q0 28 -20 40.5t-74 12.5h-205v-1098l-281 -16v1114h-112zM346 1503q41 33 145.5 170.5t122.5 188.5l121 -97q-6 -43 -70.5 -122t-138.5 -142 t-108 -71z" />
<glyph unicode="&#x404;" horiz-adv-x="1077" d="M47 645q0 202 73 363.5t214.5 256.5t329.5 95q79 0 152.5 -12t107.5 -24l34 -11q-1 -40 -5.5 -99.5t-8.5 -99.5l-4 -39q-16 6 -45 15t-111 23.5t-155 14.5q-124 0 -199.5 -85.5t-93.5 -260.5h565l-6 -194q-186 -47 -360 -47q-136 0 -203 34q16 -189 101 -276.5t220 -87.5 q78 0 164.5 29.5t134.5 58.5l47 29l64 -154q-6 -8 -18 -22t-54.5 -50t-91.5 -63t-129.5 -49.5t-167.5 -22.5q-261 0 -408 183.5t-147 494.5z" />
<glyph unicode="&#x405;" horiz-adv-x="1005" d="M47 106l90 216q7 -5 20.5 -13t53.5 -29t79 -37t91.5 -29t97.5 -13q94 0 141.5 38t47.5 101t-55.5 106t-172.5 84q-171 69 -252.5 171.5t-81.5 259.5q0 169 122.5 284t336.5 115q84 0 166 -13t122 -25l40 -13l-21 -381h-184q-10 96 -16 202q-70 9 -94 9 q-98 0 -144.5 -41.5t-46.5 -114.5q0 -75 47 -128.5t156 -90.5q90 -37 152 -72t113.5 -83t77 -109.5t25.5 -139.5q0 -183 -123.5 -288t-340.5 -105q-84 0 -160.5 14.5t-126.5 34.5t-88 40.5t-55 35.5z" />
<glyph unicode="&#x406;" horiz-adv-x="727" d="M113 1137l6 178q45 16 180 16h305l-6 -178q-1 0 -11 -2t-30.5 -5.5t-42.5 -6.5v-942h102l-6 -174q-26 -23 -145 -23h-336l6 186q1 0 12.5 1.5t34.5 3.5t49 4v942h-118z" />
<glyph unicode="&#x407;" horiz-adv-x="727" d="M55 1659q0 72 42.5 122t101.5 50t101 -50t42 -122q0 -70 -42 -120t-101 -50t-101.5 50t-42.5 120zM113 1137l6 178q45 16 180 16h305l-6 -178q-1 0 -11 -2t-30.5 -5.5t-42.5 -6.5v-942h102l-6 -174q-26 -23 -145 -23h-336l6 186q1 0 12.5 1.5t34.5 3.5t49 4v942h-118z M416 1659q0 71 42 121.5t99 50.5q59 0 102 -50.5t43 -121.5q0 -70 -43 -120t-102 -50q-57 0 -99 50t-42 120z" />
<glyph unicode="&#x408;" horiz-adv-x="653" d="M-37 -174q89 20 142 79t78.5 172t25.5 296v764h-115l6 178q46 16 181 16h305l-6 -178q-1 0 -12 -2t-33 -5.5t-46 -6.5v-736q0 -195 -37.5 -344.5t-105 -242t-154.5 -143t-194 -60.5z" />
<glyph unicode="&#x409;" horiz-adv-x="1802" d="M41 45q127 213 223.5 503.5t136.5 555.5l-114 -2l10 217l7 1q8 1 22.5 3t35 4t52 4t69 4t89 3t108.5 1q194 0 296 -43.5t107 -117.5l25 -394q125 66 238 66q79 0 150 -24.5t128 -71.5t91 -124t34 -175q0 -97 -29 -183t-86.5 -155t-152 -109.5t-215.5 -40.5 q-80 0 -147 24.5t-109.5 63t-75.5 85.5t-50 94.5t-28 86t-14 63.5l-2 24h2l-45 604q-3 52 -38 75t-124 23h-4q-34 -311 -121 -634t-207 -515zM1120 590l10 -170q0 -5 1 -13t5.5 -31.5t11 -45t19 -48t28.5 -45t40 -31.5t53 -13q95 0 140 63.5t45 163.5q0 101 -52 159t-133 58 q-76 0 -168 -47z" />
<glyph unicode="&#x40a;" horiz-adv-x="1853" d="M84 1130v201h301q29 0 44 -23t22.5 -93t7.5 -209v-258l459 6v569l280 16v-551q93 62 223 62q78 0 148.5 -24t128 -70.5t91.5 -123.5t34 -175q0 -101 -30.5 -189t-89 -155.5t-152 -106.5t-210.5 -39q-86 0 -156 26.5t-113 69t-74.5 94t-46 103t-23 94t-9.5 68.5l-1 27v88 l-459 -5v-524l-281 -16v977q0 131 -10 141q-9 5 -30 10t-38 8zM1198 436q1 -15 3 -32.5t8 -48t18 -56.5t29 -51.5t45 -40t63 -14.5q91 0 136.5 61.5t45.5 165.5q0 101 -51.5 159t-136.5 58q-53 0 -96.5 -16.5t-63.5 -30.5v-154z" />
<glyph unicode="&#x40b;" horiz-adv-x="1474" d="M-29 1126l11 205h1128v-203q-262 -26 -461 -26v-473h10q3 9 9 24t31.5 53.5t57.5 68t90 53.5t126 24q89 0 152.5 -26.5t98.5 -76.5t50.5 -111.5t15.5 -141.5v-152q0 -52 2 -79.5t5.5 -37.5t9.5 -10l84 10v-209q-214 -38 -308 -38q-25 0 -40 31t-24 112.5t-9 220.5v82 q0 87 -29.5 125.5t-101.5 38.5q-45 0 -88 -17.5t-73 -43t-45.5 -41.5t-23.5 -27v-453l-280 -16v1110q-84 0 -183.5 6t-157.5 12z" />
<glyph unicode="&#x40c;" horiz-adv-x="1257" d="M84 1130v201h301q29 0 44 -23t22.5 -93t7.5 -209v-326l110 113l336 548l297 -16l-428 -625q250 -477 311 -477q14 0 41.5 4.5t48.5 9.5l21 5l25 -205q-13 -6 -36.5 -15.5t-90 -25.5t-127.5 -16q-71 0 -164 129.5t-230 398.5l-114 -92v-408l-281 -16v977q0 131 -10 141 q-9 5 -30 10t-38 8zM418 1534q42 33 146 170t122 188l121 -96q-6 -43 -71 -122t-139 -142.5t-108 -71.5z" />
<glyph unicode="&#x40d;" horiz-adv-x="1398" d="M84 1130v201h301q29 0 44 -23t22.5 -93t7.5 -209v-514q104 165 174 260l411 567l5 8h2l147 12v-1005q0 -129 19 -129l83 12v-209q-215 -39 -266 -39q-67 0 -91.5 76.5t-24.5 288.5v471q-94 -152 -156 -232l-428 -563l-4 -8h-2l-150 -10v977q0 131 -10 141q-9 5 -30 10 t-38 8zM526 1735l150 123q22 -58 103 -177t120 -157l-106 -113q-48 34 -145.5 149t-121.5 175z" />
<glyph unicode="&#x40e;" horiz-adv-x="1138" d="M-8 1319q155 20 284 20q45 0 96.5 -93.5t97.5 -247t81 -293t65 -287.5q100 172 169.5 420.5t88.5 500.5l275 -16q-34 -271 -132 -558t-245 -513q-70 -108 -154 -194.5t-152.5 -134t-133 -79.5t-99.5 -42.5t-49 -10.5l-96 234q28 0 137.5 58.5t194.5 135.5 q-22 87 -56.5 213t-84 291t-95.5 277t-71 112l-97 -6zM338 1628l133 162q3 -5 9.5 -14.5t28.5 -32.5t46 -41t62 -32.5t77 -14.5t78.5 11.5t68 27.5t51.5 32t34 28l12 11l61 -135q-4 -7 -13 -19.5t-40 -43.5t-67 -54.5t-94.5 -43t-122.5 -19.5q-62 0 -118.5 18.5t-92.5 44.5 t-63 52t-38 45z" />
<glyph unicode="&#x40f;" horiz-adv-x="1349" d="M84 1130v201h301q29 0 44 -23t22.5 -93t7.5 -209v-687q0 -49 35.5 -70t136.5 -22h243v1096l281 16v-1110l105 7l-7 -203q-1 0 -46.5 -9.5t-125 -18.5t-163.5 -9h-99q-8 -106 -21.5 -212t-23.5 -159l-10 -53l-225 -12q22 217 32 436h-24q-205 2 -287 47t-82 160v766 q0 131 -10 141q-9 5 -30 10t-38 8z" />
<glyph unicode="&#x410;" horiz-adv-x="1306" d="M47 0l354 1112l-112 -2l24 209q205 20 338 20q247 0 318 -313l168 -719q25 -121 55 -121q14 0 37.5 4t40.5 8l16 5v-172q-156 -51 -260 -51q-69 0 -99.5 45.5t-56.5 167.5l-16 75h-461l-74 -276zM446 467h363l-98 455q-22 98 -42 143t-51 51z" />
<glyph unicode="&#x411;" horiz-adv-x="1136" d="M76 1106l6 203q54 22 356 22h504v-209q-204 -18 -502 -18v-297q96 41 213 41q186 0 307 -107t121 -286q0 -100 -30.5 -186.5t-91 -155t-161 -107.5t-231.5 -39q-80 0 -177.5 8t-154.5 17l-57 8v1104q-102 0 -102 2zM440 190q86 -6 152 -6q103 0 159 66t56 166 q0 109 -62 169t-180 60q-83 0 -125 -14v-441z" />
<glyph unicode="&#x412;" horiz-adv-x="1120" d="M66 1092l6 217q24 6 66 14.5t163.5 22.5t233.5 14q223 0 333.5 -90.5t110.5 -251.5q0 -156 -105 -303q191 -101 191 -307q0 -88 -31 -166t-89.5 -140t-154 -98.5t-215.5 -36.5q-96 0 -195 8t-150 17l-52 8v1106zM434 199q86 -11 139 -11q106 0 162 58t56 153 q0 195 -254 195q-47 0 -103 -6v-389zM434 774q86 8 127 8q61 0 129 -10q49 78 49 162q0 201 -202 201q-15 0 -103 -5v-356z" />
<glyph unicode="&#x413;" horiz-adv-x="933" d="M66 1106l6 203q247 22 366 22q252 8 322 8q101 0 141.5 -32.5t40.5 -110.5q0 -54 -5.5 -141t-10.5 -147l-6 -60l-162 8v197q0 28 -20 40.5t-74 12.5h-205v-1098l-281 -16v1114h-112z" />
<glyph unicode="&#x414;" horiz-adv-x="1396" d="M45 219h127q159 461 205 893l-115 -2l10 209q1 0 28.5 2t74 5t103.5 6t128.5 5t136.5 2q362 0 371 -206l47 -912l178 2q0 -151 -15.5 -314t-31.5 -250l-16 -87l-225 -12q22 223 34 444q-168 -3 -792 -8l16 -326q-56 -31 -136 -52t-114 -21zM424 219q303 0 453 2l-48 797 q-3 53 -37 76.5t-118 23.5h-66q-48 -463 -184 -899z" />
<glyph unicode="&#x415;" d="M72 1114l6 195q1 0 11 2.5t33 5.5t58.5 6t100 5.5t145.5 2.5h532v-201q-238 -20 -501 -22l-11 -299h412l-6 -195q-123 -47 -256 -47q-80 0 -154 27v-148q0 -139 47.5 -193t163.5 -54q59 0 137.5 16.5t127.5 32.5l49 16l32 -198q-7 -4 -19.5 -10.5t-56 -24t-91 -30.5 t-123 -23.5t-154.5 -10.5q-216 0 -304.5 112.5t-88.5 344.5q0 344 18 686z" />
<glyph unicode="&#x416;" horiz-adv-x="1771" d="M51 8l424 604q-38 89 -70.5 162t-58.5 127t-50.5 95.5t-41.5 69t-36.5 46.5t-30 28.5t-28.5 15t-26 6t-27.5 0.5t-27.5 1l-25 156q150 20 226 20q79 0 168 -136.5t210 -416.5l95 74v463l262 16v-628l94 94l311 534l291 -16l-410 -569q110 -254 193.5 -392.5t126.5 -138.5 q19 0 41 4.5t35 8.5l12 4l25 -201q-13 -6 -35 -15.5t-83 -25.5t-114 -16q-72 0 -174 157t-221 430l-92 -71v-490l-262 -16v647l-84 -84l-326 -563z" />
<glyph unicode="&#x417;" horiz-adv-x="985" d="M18 123l91 180q6 -5 16.5 -13t44.5 -28t68.5 -35.5t85 -28t98.5 -12.5q99 0 161 53t62 140q0 192 -182 192l-201 -6q0 39 3 93t6 88l3 34q116 4 220 4q4 3 11 8t24 23t30 38.5t24 53t11 66.5q0 83 -49 123.5t-150 40.5q-55 0 -113.5 -9.5t-89.5 -19.5l-32 -10l6 207 q12 6 35 15t104 24.5t174 15.5q193 0 291 -83t98 -220q0 -187 -202 -299q124 -41 198 -133t74 -219q0 -128 -69.5 -230.5t-179 -155.5t-234.5 -53q-89 0 -167 16t-125.5 39t-82 46t-48.5 39z" />
<glyph unicode="&#x418;" horiz-adv-x="1396" d="M84 1130v201h301q29 0 44 -23t22.5 -93t7.5 -209v-514q104 165 174 260l411 567l5 8h2l147 12v-1005q0 -129 19 -129l83 12v-209q-215 -39 -266 -39q-67 0 -91.5 76.5t-24.5 288.5v471q-94 -152 -156 -232l-428 -563l-4 -8h-2l-150 -10v977q0 131 -10 141q-9 5 -30 10 t-38 8z" />
<glyph unicode="&#x419;" horiz-adv-x="1398" d="M84 1130v201h301q29 0 44 -23t22.5 -93t7.5 -209v-514q104 165 174 260l411 567l5 8h2l147 12v-1005q0 -129 19 -129l83 12v-209q-215 -39 -266 -39q-67 0 -91.5 76.5t-24.5 288.5v471q-94 -152 -156 -232l-428 -563l-4 -8h-2l-150 -10v977q0 131 -10 141q-9 5 -30 10 t-38 8zM391 1628l133 162q3 -5 9.5 -14.5t28.5 -32.5t46 -41t62.5 -32.5t77.5 -14.5t78.5 11.5t67.5 27.5t51 32t35 28l11 11l62 -135q-5 -7 -13.5 -19.5t-40 -43.5t-67.5 -54.5t-94.5 -43t-122.5 -19.5q-62 0 -118.5 18.5t-92.5 44.5t-63 52t-39 45z" />
<glyph unicode="&#x41a;" horiz-adv-x="1257" d="M84 1130v201h301q29 0 44 -23t22.5 -93t7.5 -209v-326l110 113l336 548l297 -16l-428 -625q250 -477 311 -477q14 0 41.5 4.5t48.5 9.5l21 5l25 -205q-13 -6 -36.5 -15.5t-90 -25.5t-127.5 -16q-71 0 -164 129.5t-230 398.5l-114 -92v-408l-281 -16v977q0 131 -10 141 q-9 5 -30 10t-38 8z" />
<glyph unicode="&#x41b;" horiz-adv-x="1323" d="M41 37q128 214 225 510.5t135 566.5l-127 -4l11 209l33 2q34 2 88.5 5t118.5 6t139.5 5t136.5 2q130 0 209 -57t84 -149l39 -758q9 -176 47 -176q18 0 37.5 2.5t29.5 4.5l10 3l9 -176q-158 -53 -267 -53q-82 0 -109.5 47t-33.5 166l-51 825q-3 51 -31 75.5t-98 24.5h-45 q-33 -306 -123.5 -634t-212.5 -523z" />
<glyph unicode="&#x41c;" horiz-adv-x="1740" d="M84 0l190 1110l-112 -8l24 217q185 20 328 20q23 0 46 -18.5t46 -60.5t43.5 -88t44.5 -123.5t43 -143t45 -171t44.5 -183t47.5 -201.5l338 973l261 16l98 -999q13 -147 31 -147l98 14l20 -176q-17 -6 -46.5 -14.5t-112.5 -22.5t-156 -14q-44 0 -71 80.5t-42 275.5 l-41 508l-299 -836l-237 -16q-171 675 -252 950l-113 -950z" />
<glyph unicode="&#x41d;" horiz-adv-x="1378" d="M84 1130v201h301q29 0 44 -23t22.5 -93t7.5 -209v-258l440 6v569l281 16v-995q0 -127 18 -127l84 8v-209q-215 -36 -297 -36q-45 0 -65.5 79t-20.5 285v193l-440 -5v-524l-281 -16v977q0 131 -10 141q-9 5 -30 10t-38 8z" />
<glyph unicode="&#x41e;" horiz-adv-x="1327" d="M47 645q0 156 45.5 289t126 226.5t195.5 146.5t250 53q275 0 445.5 -188t170.5 -500q0 -206 -79.5 -367t-221 -249.5t-322.5 -88.5q-276 0 -443 183.5t-167 494.5zM369 676q0 -133 37.5 -243t107 -175t156.5 -65q84 0 150 60.5t101 163t35 228.5q0 135 -36 244.5 t-104.5 175t-158.5 65.5q-127 0 -207.5 -130t-80.5 -324z" />
<glyph unicode="&#x41f;" horiz-adv-x="1353" d="M59 1110v199q267 30 856 30q133 0 187.5 -47t54.5 -166v-782q0 -52 2 -79.5t5.5 -37.5t9.5 -10l83 8v-209q-190 -36 -290 -36q-33 0 -52.5 31t-30 111.5t-10.5 221.5v676q0 51 -21.5 70.5t-84.5 19.5h-309v-1102l-281 -16v1118h-119z" />
<glyph unicode="&#x420;" horiz-adv-x="1073" d="M66 1096l6 213q26 6 71 14.5t171 22.5t237 14q151 0 262 -65t166 -172.5t55 -243.5q0 -100 -27.5 -184.5t-72 -141.5t-102 -97t-117 -58.5t-117.5 -18.5q-92 0 -158 20v-391l-262 -16v1118zM440 594q58 -8 105 -8q85 0 149 69.5t64 202.5q0 122 -57 198.5t-175 76.5 q-14 0 -43 -1.5t-43 -1.5v-536z" />
<glyph unicode="&#x421;" horiz-adv-x="1130" d="M47 653q0 199 78 361t216.5 254t309.5 92q105 0 204 -15t145 -30l47 -15l-39 -489h-197q-8 155 -12 305q-59 12 -119 12q-106 0 -179.5 -63t-107 -163.5t-33.5 -229.5q0 -195 89 -328t237 -133q87 0 174.5 29.5t131.5 58.5l44 29l72 -144q-6 -9 -18.5 -23.5t-56 -52 t-93.5 -66t-132 -52t-171 -23.5q-266 0 -428 189t-162 497z" />
<glyph unicode="&#x422;" horiz-adv-x="997" d="M-29 1122l6 209h1041v-209q-194 -18 -393 -18v-760q0 -39 1 -63.5t3 -39t4.5 -19.5t7.5 -5l84 8v-209q-195 -36 -287 -36q-35 0 -55.5 31.5t-30.5 111t-10 221.5v760q-84 0 -177 4.5t-143 9.5z" />
<glyph unicode="&#x423;" horiz-adv-x="1138" d="M-8 1319q155 20 284 20q45 0 96.5 -93.5t97.5 -247t81 -293t65 -287.5q100 172 169.5 420.5t88.5 500.5l275 -16q-34 -271 -132 -558t-245 -513q-70 -108 -154 -194.5t-152.5 -134t-133 -79.5t-99.5 -42.5t-49 -10.5l-96 234q28 0 137.5 58.5t194.5 135.5 q-22 87 -56.5 213t-84 291t-95.5 277t-71 112l-97 -6z" />
<glyph unicode="&#x424;" horiz-adv-x="1421" d="M47 643q0 280 142.5 449t394.5 184v170l250 16v-180q249 -6 394.5 -165t145.5 -429q0 -281 -144.5 -450.5t-395.5 -184.5v-178l-250 -16v190q-248 6 -392.5 164.5t-144.5 429.5zM315 668q0 -118 28 -209t89.5 -149.5t151.5 -65.5v846q-136 -14 -202.5 -128t-66.5 -294z M834 248q139 12 205.5 122.5t66.5 293.5q0 182 -69.5 302.5t-202.5 129.5v-848z" />
<glyph unicode="&#x425;" horiz-adv-x="1277" d="M41 0l428 668q-226 481 -305 481h-80l-25 170q119 20 246 20q44 0 96.5 -47.5t103.5 -127.5t90 -153.5t77 -154.5l270 483l313 -8l-417 -655q55 -117 116 -232t103 -183t51 -68l104 12l27 -172q-11 -6 -30.5 -15t-83 -23.5t-128.5 -14.5q-31 0 -59 13t-57 44t-54.5 67.5 t-59 101t-62 125t-72.5 156.5l-279 -495z" />
<glyph unicode="&#x426;" horiz-adv-x="1409" d="M84 1130v201h301q29 0 44 -23t22.5 -93t7.5 -209v-695q0 -36 17 -55t62 -28t130 -9h206v1104l281 16v-1120q23 0 60.5 1t50.5 1l98 2q0 -151 -16 -314t-32 -250l-16 -87l-225 -12q23 221 35 440q-102 -4 -174 -4h-369q-218 0 -303.5 44.5t-85.5 162.5v766q0 131 -10 141 q-9 5 -30 10t-38 8z" />
<glyph unicode="&#x427;" horiz-adv-x="1273" d="M61 1130v201h301q29 0 44 -23t22.5 -93t7.5 -209v-197q0 -87 30.5 -124.5t106.5 -37.5q55 0 107.5 23.5t75.5 42.5t39 37v573l282 16v-995q0 -52 2 -79.5t5.5 -37.5t9.5 -10l84 8v-209q-213 -36 -293 -36q-48 0 -69 78.5t-21 285.5v242h-7l-11 -22t-35 -49t-61 -61.5 t-89 -48.5t-119 -22q-89 0 -152.5 27t-98.5 77.5t-50.5 112t-15.5 141.5v228q0 130 -11 141q-9 5 -30 10t-37 8z" />
<glyph unicode="&#x428;" horiz-adv-x="1812" d="M84 1130v201h295q29 0 44 -23t22.5 -93t7.5 -209v-695q0 -45 27.5 -67t86.5 -25h193v1104l274 16v-1120h305v1104l277 16v-1116l104 8l-6 -198q-2 0 -17 -3.5t-42 -9t-63 -10.5t-91.5 -9t-116.5 -5h-817q-97 0 -166 9t-112.5 24.5t-68 42.5t-33.5 57.5t-9 73.5v766 q0 131 -10 141q-9 5 -30 10t-38 8z" />
<glyph unicode="&#x429;" horiz-adv-x="1867" d="M84 1130v201h295q29 0 44 -23t22.5 -93t7.5 -209v-695q0 -45 27.5 -67t86.5 -25h193v1104l274 16v-1120h305v1104l277 16v-1120q23 0 60 1t50 1l99 2q0 -151 -16 -314t-32 -250l-16 -87l-225 -12q23 221 35 440q-102 -4 -174 -4h-830q-97 0 -166 9t-112.5 24.5t-68 42.5 t-33.5 57.5t-9 73.5v766q0 131 -10 141q-9 5 -30 10t-38 8z" />
<glyph unicode="&#x42a;" horiz-adv-x="1259" d="M-10 1200q0 63 49.5 97t144.5 34h750l-6 -155q-1 0 -21.5 -18t-55.5 -54t-74 -82t-83 -111t-76 -131q99 64 211 64q76 0 142 -22t119.5 -66t84.5 -118.5t31 -172.5q0 -104 -31 -193t-90.5 -158t-156.5 -108t-221 -39q-97 0 -174 23.5t-129 64.5t-86 99.5t-49 126 t-15 147.5q0 99 31 201.5t84 193.5t105 160t112 135h-326q-83 0 -90 -69l-12 -140l-146 -6q-22 231 -22 297zM537 451q0 -117 51 -187.5t155 -70.5q97 0 145 65.5t48 163.5q0 101 -58 159t-147 58q-74 0 -176 -33q-18 -76 -18 -155z" />
<glyph unicode="&#x42b;" horiz-adv-x="1728" d="M84 1130v201h301q29 0 44 -23t22.5 -93t7.5 -209v-177q108 37 233 37q101 0 188.5 -43t145 -132.5t57.5 -209.5q0 -108 -32 -200t-94.5 -163t-162 -111t-225.5 -40q-90 0 -188 8t-151 17l-52 8v969q0 131 -10 141q-9 5 -30 10t-38 8zM459 193q102 -5 106 -5 q113 0 177.5 66t64.5 176q0 102 -56.5 158.5t-152.5 56.5q-76 0 -139 -20v-432zM1249 344v979l281 16v-995q0 -127 16 -127l84 8v-209q-213 -36 -289 -36q-33 0 -52.5 31t-29.5 111.5t-10 221.5z" />
<glyph unicode="&#x42c;" horiz-adv-x="1136" d="M84 1130v201h301q29 0 44 -23t22.5 -93t7.5 -209v-177q108 37 233 37q101 0 188.5 -43t145 -132.5t57.5 -209.5q0 -108 -32 -200t-94.5 -163t-162 -111t-225.5 -40q-90 0 -188 8t-151 17l-52 8v969q0 131 -10 141q-9 5 -30 10t-38 8zM459 193q102 -5 106 -5 q113 0 177.5 66t64.5 176q0 102 -56.5 158.5t-152.5 56.5q-76 0 -139 -20v-432z" />
<glyph unicode="&#x42d;" horiz-adv-x="1095" d="M12 115l90 184q6 -4 16 -10.5t43 -23.5t67 -30t84.5 -23.5t99.5 -10.5q140 0 227 94.5t106 257.5h-559l7 195q186 47 358 47q121 0 192 -31q-41 360 -344 360q-60 0 -131.5 -8.5t-113.5 -17.5l-41 -8v227q15 5 42.5 12t115.5 19t178 12q282 0 440 -185t158 -493 q0 -157 -46 -291t-127 -226.5t-193.5 -145t-242.5 -52.5q-85 0 -160 15t-121.5 37t-81 44t-49.5 37z" />
<glyph unicode="&#x42e;" horiz-adv-x="1828" d="M84 1130v201h301q29 0 44 -23t22.5 -93t7.5 -209v-252l196 8q25 274 168 436t369 162q264 0 427 -188t163 -500q0 -206 -75.5 -367t-211.5 -249.5t-309 -88.5q-232 0 -370 151t-161 423l-196 -4v-529l-281 -16v977q0 131 -10 141q-9 5 -30 10t-38 8zM922 672 q0 -132 31.5 -239.5t96 -173.5t150.5 -66q131 0 204 127t73 329q0 133 -31.5 240.5t-97 174t-154.5 66.5q-129 0 -200.5 -128t-71.5 -330z" />
<glyph unicode="&#x42f;" horiz-adv-x="1179" d="M63 8l240 504q-102 40 -162.5 133.5t-60.5 233.5q0 103 32 190t94 152.5t160 102t222 36.5q81 0 177.5 -7t152.5 -15l57 -7v-987q0 -39 1 -63.5t3 -39t4.5 -19.5t7.5 -5l94 8v-209q-194 -36 -286 -36q-35 0 -55.5 31.5t-31 111t-10.5 221.5v156q-90 -16 -163 -19 l-170 -489zM348 909q0 -100 50.5 -165.5t123.5 -65.5q112 0 180 10v432q-92 10 -141 10q-110 0 -161.5 -61.5t-51.5 -159.5z" />
<glyph unicode="&#x430;" horiz-adv-x="1050" d="M53 276q0 169 107.5 266t271.5 97q91 0 191 -14v43q0 97 -44 138.5t-155 41.5q-44 0 -104.5 -6t-99.5 -12l-38 -5l6 174q17 6 47 15.5t112.5 25t152.5 15.5q93 0 162.5 -19t112.5 -51.5t69 -82t35.5 -102t9.5 -120.5q0 -79 -6 -206t-6 -193q0 -61 9 -89t32 -28l59 10 v-137q-9 -6 -26 -15.5t-64.5 -25.5t-91.5 -16q-96 0 -135 51t-44 172h-4q-1 -5 -2.5 -13.5t-9 -33t-18.5 -47t-32.5 -49.5t-48.5 -46.5t-69 -33t-92 -13.5q-118 0 -202.5 82t-84.5 227zM307 336q0 -73 36 -113.5t95 -40.5q74 0 120 54.5t58 128.5l5 133q-110 12 -144 12 q-81 0 -125.5 -46.5t-44.5 -127.5z" />
<glyph unicode="&#x431;" horiz-adv-x="1007" d="M47 565q0 377 150.5 614t382.5 255q56 5 101.5 17.5t70.5 26.5t42.5 27t23.5 22l5 9l174 -39q-1 -6 -3.5 -16.5t-14.5 -40.5t-28 -58t-47.5 -63t-70 -61t-98 -46.5t-129.5 -25.5q-133 -11 -206.5 -119.5t-86.5 -327.5h15q3 7 8.5 19t29 42.5t54 53.5t85.5 42t120 19 q146 0 241 -119.5t95 -312.5q0 -137 -57 -254t-167 -189.5t-252 -72.5q-135 0 -235 76t-151.5 211t-51.5 311zM311 633q1 -231 57 -337t146 -106q78 0 124 72t46 191q0 117 -51 180t-133 63q-91 0 -189 -63z" />
<glyph unicode="&#x432;" horiz-adv-x="1015" d="M78 842l6 174q197 39 418 39q202 0 304.5 -70t102.5 -197q0 -135 -133 -245q37 -9 68.5 -26.5t61 -46t46.5 -73.5t17 -102q0 -67 -24.5 -124.5t-75 -104t-136 -73t-198.5 -26.5q-101 0 -196 8t-140 17l-45 8q0 161 3.5 456t4.5 392zM412 154q61 -7 96 -7q117 0 167 45.5 t50 116.5q0 63 -40 97t-118 34q-20 0 -45.5 -1t-58 -2.5t-49.5 -2.5q-2 -94 -2 -280zM416 584q92 10 184 10q3 2 7.5 6t15.5 17t20 28t16 39t7 49q0 62 -35 99.5t-107 37.5q-12 0 -106 -4q0 -47 -1 -141t-1 -141z" />
<glyph unicode="&#x433;" horiz-adv-x="841" d="M61 860l7 164h176q358 8 450 8q60 0 90.5 -31t30.5 -114q0 -45 -5.5 -121.5t-11.5 -129.5l-5 -54l-164 -7l-4 189q0 23 -14 37t-42 14h-149q0 -133 -3 -403.5t-3 -403.5l-267 -16q0 136 3.5 414t3.5 415q-25 7 -48.5 17t-33.5 16z" />
<glyph unicode="&#x434;" horiz-adv-x="1142" d="M37 209h115q83 249 122 594q-24 4 -51 16t-42 23l-15 10l6 172l483 12q160 0 222.5 -47.5t68.5 -148.5l39 -631h145l-2 -2h2q0 -151 -11 -300.5t-23 -223.5l-11 -74l-217 8q21 182 33 383h-641v-332l-209 -33zM385 209h332l-37 557q-1 31 -18 42t-60 11q-20 0 -54 -1 t-48 -1q-38 -349 -115 -608z" />
<glyph unicode="&#x435;" horiz-adv-x="923" d="M47 471q0 131 39 242t105 185t152.5 115.5t180.5 41.5q69 0 130 -18.5t110 -55t77.5 -97t28.5 -136.5q0 -161 -114.5 -259t-309.5 -98q-76 0 -133 25q3 -107 70 -170.5t168 -63.5q59 0 121.5 19t95.5 38l33 19l63 -152q-5 -6 -14.5 -15t-43 -33t-72.5 -42.5t-101.5 -33.5 t-130.5 -15q-205 0 -330 137t-125 367zM313 555q30 -10 68 -10q121 0 186.5 45.5t65.5 128.5q0 70 -33.5 107.5t-93.5 37.5q-81 0 -137 -84t-56 -225z" />
<glyph unicode="&#x436;" horiz-adv-x="1441" d="M29 0l329 455q-29 79 -52 139.5t-44.5 105.5t-35.5 76t-32 52.5t-27.5 33t-27.5 18.5t-25.5 8.5t-30 3.5t-32.5 3v129q115 18 185 18q35 0 65.5 -17.5t55 -47.5t52 -88t51 -119.5t58.5 -161.5l66 43q2 121 2 365l254 16q0 -76 -1 -225.5t-1 -224.5l63 55l248 401l262 -14 l-346 -442q86 -204 150.5 -320.5t93.5 -116.5q15 0 38.5 4.5t39.5 9.5l16 5v-131q-100 -53 -168 -53q-52 0 -99.5 33.5t-89.5 98t-77 140.5t-72 178l-63 -41v-381l-254 -16q0 305 2 457l-56 -52l-235 -413z" />
<glyph unicode="&#x437;" horiz-adv-x="849" d="M25 68l71 176q4 -3 11.5 -8.5t33.5 -19.5t53.5 -24.5t70.5 -19t87 -8.5q90 0 135 42t45 105q0 56 -39 90.5t-110 34.5q-36 0 -79.5 -2t-69.5 -4l-25 -2q0 112 8 188q100 7 215 7h17q47 59 47 114q0 57 -43.5 88t-118.5 31q-44 0 -98.5 -8t-87.5 -16l-33 -9l-6 168 q5 3 14 7t40.5 15t66.5 19.5t90 15.5t112 7q148 0 230.5 -67t82.5 -177q0 -158 -165 -256q88 -17 154.5 -83.5t66.5 -168.5q0 -143 -116 -239.5t-312 -96.5q-68 0 -128.5 10.5t-99 25t-67 29.5t-40.5 26z" />
<glyph unicode="&#x438;" horiz-adv-x="1128" d="M51 858l6 168q207 16 285 16q33 0 48.5 -16t22.5 -63t7 -146l-17 -411l422 618l136 8q-19 -495 -19 -749q0 -119 47 -119l60 10v-137q-9 -6 -25.5 -15.5t-64 -25.5t-91.5 -16q-103 0 -141.5 60.5t-38.5 207.5q0 68 14 311l-86 -123l-331 -436l-138 -8q0 131 3.5 394 t3.5 394q0 52 -13 56q-9 4 -31.5 9.5t-40.5 8.5z" />
<glyph unicode="&#x439;" horiz-adv-x="1128" d="M51 858l6 168q207 16 285 16q33 0 48.5 -16t22.5 -63t7 -146l-17 -411l422 618l136 8q-19 -495 -19 -749q0 -119 47 -119l60 10v-137q-9 -6 -25.5 -15.5t-64 -25.5t-91.5 -16q-103 0 -141.5 60.5t-38.5 207.5q0 68 14 311l-86 -123l-331 -436l-138 -8q0 131 3.5 394 t3.5 394q0 52 -13 56q-9 4 -31.5 9.5t-40.5 8.5zM276 1352l134 161q3 -5 9.5 -14.5t28.5 -32.5t46 -41t62 -32.5t77 -14.5q62 0 123 28t91 56l30 27l61 -135q-5 -7 -13.5 -19.5t-40 -43.5t-67.5 -54.5t-94.5 -43t-122.5 -19.5q-62 0 -118.5 18.5t-92.5 44.5t-63 52t-38 45z " />
<glyph unicode="&#x43a;" horiz-adv-x="1083" d="M57 858l6 168q185 16 261 16q26 0 44 -11.5t28 -29.5t15.5 -49.5t7 -61t1.5 -73.5q0 -162 -2 -242l88 76l268 387l279 -14l-365 -436q196 -426 283 -426q12 0 30.5 3.5t30.5 6.5l12 4v-147q-9 -5 -25 -13.5t-70 -22t-111 -13.5q-36 0 -68.5 16.5t-62 46.5t-64.5 87 t-68.5 122t-82.5 168l-76 -51q-2 -121 -2 -361l-267 -16q0 131 3.5 394t3.5 394q0 27 -0.5 39t-9 20t-14.5 9t-30 4t-43 6z" />
<glyph unicode="&#x43b;" horiz-adv-x="1105" d="M31 186q108 19 177 175.5t109 465.5l-110 11l6 178q219 22 438 22q144 0 203.5 -50.5t65.5 -153.5l34 -545q1 -4 3 -21.5t4.5 -33t6.5 -32.5t10.5 -27.5t14.5 -10.5l60 10v-135q-10 -7 -26.5 -16.5t-64 -26t-90.5 -16.5q-33 0 -59.5 7t-44.5 17.5t-32 31t-22 39.5t-14 51 t-9 58t-7 68l-31 493q-3 76 -80 76h-41q-15 -125 -31.5 -223t-41.5 -196.5t-58.5 -170.5t-77.5 -130.5t-103 -92t-132 -41.5q-39 76 -57 219z" />
<glyph unicode="&#x43c;" horiz-adv-x="1421" d="M59 6q105 429 164 811q-24 7 -47 17.5t-34 17.5l-11 6v166h297q14 0 27 -7t26.5 -24.5t25.5 -37.5t26 -55t26 -68t27.5 -85t28 -97t30.5 -113.5t32.5 -125t35.5 -141.5q52 141 116.5 327.5t102.5 302.5l39 116l233 16l70 -727q14 -141 53 -141l59 10v-137 q-9 -6 -26 -15.5t-64.5 -25.5t-91.5 -16q-88 0 -125.5 68t-40.5 206l-16 401h-10q-136 -421 -234 -647l-213 -16q-145 568 -172 663h-12q-18 -154 -42 -320.5t-39 -256.5l-15 -90z" />
<glyph unicode="&#x43d;" horiz-adv-x="1142" d="M51 858l6 168q207 16 285 16q33 0 48.5 -16t22.5 -63t7 -146q0 -121 -2 -180q119 13 287 16q4 242 4 363l264 16q0 -123 -9.5 -372t-9.5 -377q0 -62 12 -86.5t35 -24.5l60 10v-145q-9 -6 -25.5 -15.5t-63.5 -25.5t-91 -16q-103 0 -142 61t-39 207v205q-108 -15 -284 -15 q-4 -286 -4 -430l-265 -16q0 131 3.5 394t3.5 394q0 52 -13 56q-9 4 -31.5 9.5t-40.5 8.5z" />
<glyph unicode="&#x43e;" horiz-adv-x="1028" d="M47 500q0 248 134.5 401.5t332.5 153.5q96 0 181 -36.5t148.5 -103t100.5 -168t37 -225.5q0 -248 -134 -401.5t-333 -153.5q-96 0 -181 36.5t-148.5 103t-100.5 168t-37 225.5zM313 524q0 -156 58 -251t149 -95q85 0 141 87t56 235q0 157 -58.5 252.5t-150.5 95.5 q-86 0 -140.5 -87t-54.5 -237z" />
<glyph unicode="&#x43f;" horiz-adv-x="1136" d="M61 860l7 164l712 8q105 0 146 -36.5t41 -135.5q0 -89 -8.5 -274.5t-8.5 -302.5q0 -63 11 -87t36 -24l60 10v-145q-10 -6 -26.5 -15.5t-64.5 -25.5t-92 -16q-103 0 -140.5 60.5t-37.5 207.5q0 75 3 242.5t3 242.5q0 46 -16.5 61t-60.5 15h-205q-1 -108 -5.5 -380.5 t-4.5 -420.5l-263 -16q0 152 5 432t6 395q-24 7 -48.5 17.5t-36.5 17.5z" />
<glyph unicode="&#x440;" horiz-adv-x="1087" d="M49 858l6 168q252 16 303 16q32 -1 43 -28.5t11 -87.5v-78h10q1 8 5 22t23 50t46.5 63t80 49.5t119.5 22.5q161 0 252.5 -142t91.5 -370q0 -121 -33.5 -223.5t-99 -182t-173 -125t-245.5 -45.5q-34 0 -88 4q-2 -158 -2 -475l-266 -16q0 216 6 650t6 650q0 53 -6 56 q-8 6 -30.5 11.5t-40.5 8.5zM406 182q64 -18 126 -18q119 0 176.5 92t57.5 238q0 140 -46.5 219.5t-133.5 79.5q-39 0 -72 -13.5t-54.5 -34t-32 -34t-17.5 -25.5q0 -168 -4 -504z" />
<glyph unicode="&#x441;" horiz-adv-x="878" d="M47 475q0 261 141 420.5t357 159.5q57 0 118.5 -11.5t94.5 -22.5l33 -11q0 -36 -4.5 -88t-9.5 -86l-5 -35q-92 41 -201 41q-126 0 -192 -81.5t-66 -228.5q0 -159 68.5 -250.5t175.5 -91.5q37 0 75.5 9.5t66.5 23t50.5 26.5t34.5 23l11 9l65 -148q-5 -7 -15 -18 t-44.5 -39.5t-73 -50.5t-101 -40t-128.5 -18q-202 0 -326.5 137t-124.5 371z" />
<glyph unicode="&#x442;" horiz-adv-x="833" d="M-2 846l6 178h799v-172q-88 -25 -285 -33q-10 -445 -10 -536q0 -60 9.5 -85.5t31.5 -25.5l59 10v-145q-9 -6 -25.5 -15.5t-63.5 -25.5t-91 -16q-103 0 -141.5 60.5t-38.5 207.5q0 187 4 573q-63 4 -126.5 10t-95.5 11z" />
<glyph unicode="&#x443;" horiz-adv-x="980" d="M-8 868v156q131 18 260 18q43 0 92 -90.5t90 -226.5t70 -254.5t47 -212.5h2q58 145 109 377t57 403l264 -14q-31 -206 -136 -510.5t-224 -550.5q-73 -141 -152 -259.5t-121 -167.5l-43 -48l-221 98q9 9 24.5 25.5t58.5 66t81 98t82 115t71 123.5q-231 834 -315 848z" />
<glyph unicode="&#x444;" horiz-adv-x="1347" d="M47 477q0 114 27.5 210t74 163t108 114t129 69t138.5 22h29q0 79 1 236.5t1 236.5l252 16q0 -101 -1 -300t-1 -298h10q1 4 3.5 11.5t13.5 26.5t27 33t46 26t68 12q138 0 232.5 -140.5t94.5 -373.5q0 -138 -43 -250.5t-113 -181t-154.5 -105.5t-172.5 -37h-22v-471 l-254 -16q0 393 2 590h-8q-1 -4 -4 -11t-15 -25t-28 -31.5t-46 -24.5t-67 -11q-139 0 -233.5 140t-94.5 370zM299 516q0 -140 58 -223.5t143 -83.5q27 0 45 6l6 641q-5 0 -14 1t-13 1q-97 0 -161 -91.5t-64 -250.5zM797 168h20q98 0 165 92t67 250q0 139 -56.5 221 t-142.5 82q-19 0 -47 -8z" />
<glyph unicode="&#x445;" horiz-adv-x="1050" d="M37 0l325 487q-140 395 -208 400l-99 8v129q143 18 252 18q31 0 63.5 -34t64 -99t56 -126t54.5 -148l211 403l262 -14l-316 -469q21 -60 35 -98t34.5 -90t36.5 -85t35 -64.5t37 -46.5t35 -15q15 0 37.5 3t37.5 6l16 3v-141q-105 -47 -209 -47q-41 0 -77.5 30t-76 109.5 t-55 118t-57.5 153.5q-1 2 -2 3.5t-1.5 4t-1.5 4.5l-217 -419z" />
<glyph unicode="&#x446;" horiz-adv-x="1161" d="M63 858l7 168q182 16 256 16q32 0 52.5 -16t30 -49.5t12.5 -69t3 -90.5q0 -49 -3 -257t-3 -251q0 -96 121 -96h43l88 2v-2h26l6 803l267 16q0 -137 -3 -410t-3 -409h163q0 -151 -12 -310t-24 -242l-13 -83l-225 -6q25 213 37 428h-508q-42 0 -73 4t-61.5 16.5t-49.5 34.5 t-31 58.5t-12 87.5q0 49 3 228t3 351q0 27 -0.5 39t-9 20t-14.5 9t-30 4t-43 6z" />
<glyph unicode="&#x447;" horiz-adv-x="1044" d="M27 858l6 168q164 16 252 16q57 0 74.5 -39.5t17.5 -121.5q0 -49 -1 -119.5t-1 -87.5q0 -65 16 -95t62 -30q88 0 153 49q4 278 4 418l267 16q-19 -495 -19 -749q0 -119 47 -119l60 10v-137q-10 -6 -26.5 -15.5t-64 -25.5t-90.5 -16q-103 0 -141.5 60.5t-38.5 207.5v223 h-10q-2 -6 -6 -15t-22 -33t-42 -42.5t-69.5 -33.5t-100.5 -15q-104 0 -170.5 72.5t-66.5 183.5q0 21 3 82t3 110q0 52 -10 62z" />
<glyph unicode="&#x448;" horiz-adv-x="1536" d="M57 858l6 168q193 16 271 16q32 0 47 -16t22 -63t7 -146q0 -77 -3.5 -261t-3.5 -267q0 -76 109 -76h121q0 133 3 401t3 402l252 16q0 -137 -3 -410t-3 -409h227q0 133 3 401t3 402l254 16q0 -137 -3 -410t-3 -409h94v-182q-100 -31 -225 -31h-854q-227 0 -227 254 q0 78 3 263t3 263q0 52 -13 56q-9 4 -31.5 9.5t-40.5 8.5z" />
<glyph unicode="&#x449;" horiz-adv-x="1558" d="M57 858l6 168q193 16 271 16q32 0 47 -16t22 -63t7 -146q0 -81 -3.5 -275t-3.5 -278q19 -51 109 -51h121q0 133 3 401t3 402l252 16q0 -137 -3 -410t-3 -409h227q0 133 3 401t3 402l254 16q0 -137 -3 -410t-3 -409h100v-4l58 4q0 -151 -13 -310t-25 -242l-13 -83l-224 -6 q25 213 37 428h-905q-227 0 -227 254q0 78 3 263t3 263q0 52 -13 56q-9 4 -31.5 9.5t-40.5 8.5z" />
<glyph unicode="&#x44a;" horiz-adv-x="1087" d="M31 885q0 74 46 106.5t142 32.5h514l-12 -164l-14.5 -14.5t-36.5 -40.5t-51 -63t-52.5 -79.5t-48.5 -93.5h10l10.5 10.5t29 24t47 30.5t62.5 23.5t77 10.5q124 0 200 -72t76 -225q0 -79 -32.5 -151.5t-90.5 -129t-147 -90t-195 -33.5q-160 0 -252 100.5t-92 254.5 q0 257 223 505q-68 -8 -137 -8q-79 0 -108.5 -20.5t-32.5 -73.5l-6 -119l-119 6q-10 169 -10 273zM475 373q0 -94 38.5 -153.5t104.5 -59.5q64 0 105 52t41 134q0 76 -33 117t-92 41q-79 0 -154 -39q-10 -39 -10 -92z" />
<glyph unicode="&#x44b;" horiz-adv-x="1511" d="M57 858l6 168q185 16 261 16q26 0 44 -11.5t28 -29.5t15.5 -49.5t7 -61t1.5 -73.5q0 -23 -1 -83.5t-1 -96.5h10q2 5 6.5 14t23.5 32t43 40.5t67 32t94 14.5q120 0 204 -103.5t84 -275.5q0 -192 -117 -308t-315 -116q-77 0 -170 8t-147 17l-54 8q0 99 3.5 390.5t3.5 389.5 q0 27 -0.5 39t-9 20t-14.5 9t-30 4t-43 6zM408 162q56 -6 96 -6q89 0 134.5 59.5t45.5 153.5q0 87 -39.5 134.5t-101.5 47.5q-33 0 -63 -7t-44 -13t-20 -11zM1071 248q0 128 3 384t3 384l266 16q-18 -495 -18 -749q0 -119 47 -119l60 10v-137q-10 -6 -26.5 -15.5 t-64.5 -25.5t-92 -16q-103 0 -140.5 60.5t-37.5 207.5z" />
<glyph unicode="&#x44c;" horiz-adv-x="1007" d="M57 858l6 168q185 16 261 16q26 0 44 -11.5t28 -29.5t15.5 -49.5t7 -61t1.5 -73.5q0 -23 -1 -83.5t-1 -96.5h10q2 5 6.5 14t23.5 32t43 40.5t67 32t94 14.5q120 0 204 -103.5t84 -275.5q0 -192 -117 -308t-315 -116q-77 0 -170 8t-147 17l-54 8q0 99 3.5 390.5t3.5 389.5 q0 27 -0.5 39t-9 20t-14.5 9t-30 4t-43 6zM408 162q56 -6 96 -6q89 0 134.5 59.5t45.5 153.5q0 87 -39.5 134.5t-101.5 47.5q-33 0 -63 -7t-44 -13t-20 -11z" />
<glyph unicode="&#x44d;" horiz-adv-x="907" d="M29 100l63 168q4 -4 12 -10t34 -21.5t53 -27.5t68 -21.5t81 -9.5q129 0 201 82.5t75 241.5q-91 -84 -278 -84q-33 0 -65.5 2.5t-52.5 5t-21 2.5q-6 127 -6 180q29 0 173 1t242 1q-23 115 -92.5 172.5t-171.5 57.5q-56 0 -110 -7t-80 -13l-25 -7l-6 186q10 6 30.5 15.5 t94 25t160.5 15.5q203 0 327.5 -137t124.5 -371q0 -266 -132 -423t-357 -157q-61 0 -119 13.5t-96.5 33t-68.5 39.5t-44 33z" />
<glyph unicode="&#x44e;" horiz-adv-x="1509" d="M57 858l6 168q185 16 261 16q26 0 44 -11.5t28 -29.5t15.5 -49.5t7 -61t1.5 -73.5v-182q74 15 151 18q32 188 146 295t276 107q208 0 338.5 -146t130.5 -397t-130.5 -398t-338.5 -147q-176 0 -295 127t-137 346h-145q-2 -143 -2 -432l-267 -16q0 131 3.5 394t3.5 394 q0 27 -0.5 39t-9 20t-14.5 9t-30 4t-43 6zM807 528q0 -156 54.5 -257t144.5 -101q87 0 137.5 87t50.5 239q0 157 -54 258.5t-147 101.5q-85 0 -135.5 -88t-50.5 -240z" />
<glyph unicode="&#x44f;" horiz-adv-x="1060" d="M78 8l223 414q-89 37 -140.5 107.5t-51.5 172.5q0 166 119.5 259.5t330.5 93.5q64 0 147.5 -7.5t135.5 -15.5l51 -8q-12 -489 -12 -741q0 -119 47 -119l59 10v-137q-9 -6 -26 -15.5t-64.5 -25.5t-91.5 -16q-103 0 -140.5 60.5t-37.5 207.5v151q-61 -12 -123 -12 l-156 -395zM356 711q0 -76 39.5 -124t108.5 -48q40 0 125 10q0 105 4 313q-47 8 -96 8q-89 0 -135 -42.5t-46 -116.5z" />
<glyph unicode="&#x450;" horiz-adv-x="923" d="M47 471q0 131 39 242t105 185t152.5 115.5t180.5 41.5q69 0 130 -18.5t110 -55t77.5 -97t28.5 -136.5q0 -161 -114.5 -259t-309.5 -98q-76 0 -133 25q3 -107 70 -170.5t168 -63.5q59 0 121.5 19t95.5 38l33 19l63 -152q-5 -6 -14.5 -15t-43 -33t-72.5 -42.5t-101.5 -33.5 t-130.5 -15q-205 0 -330 137t-125 367zM264 1458l150 123q22 -58 103 -177t120 -157l-107 -112q-48 34 -145 148.5t-121 174.5zM313 555q30 -10 68 -10q121 0 186.5 45.5t65.5 128.5q0 70 -33.5 107.5t-93.5 37.5q-81 0 -137 -84t-56 -225z" />
<glyph unicode="&#x451;" horiz-adv-x="923" d="M47 471q0 131 39 242t105 185t152.5 115.5t180.5 41.5q69 0 130 -18.5t110 -55t77.5 -97t28.5 -136.5q0 -161 -114.5 -259t-309.5 -98q-76 0 -133 25q3 -107 70 -170.5t168 -63.5q59 0 121.5 19t95.5 38l33 19l63 -152q-5 -6 -14.5 -15t-43 -33t-72.5 -42.5t-101.5 -33.5 t-130.5 -15q-205 0 -330 137t-125 367zM154 1382q0 72 42 122t101 50t101 -50t42 -122q0 -70 -42 -120t-101 -50t-101 50t-42 120zM313 555q30 -10 68 -10q121 0 186.5 45.5t65.5 128.5q0 70 -33.5 107.5t-93.5 37.5q-81 0 -137 -84t-56 -225zM514 1382q0 71 42 121.5 t99 50.5q59 0 102.5 -50.5t43.5 -121.5q0 -70 -43.5 -120t-102.5 -50q-57 0 -99 50t-42 120z" />
<glyph unicode="&#x452;" horiz-adv-x="1138" d="M-45 1182l10 188h211v158l266 16v-174h19l299 6v-190q-125 -25 -299 -25h-21l-6 -473h12q1 5 3 14t11.5 35.5t22 50t35.5 53t51 50t70.5 35t91.5 14.5q146 0 211.5 -103t65.5 -309l-7 -528q0 -133 -40.5 -236.5t-109.5 -167t-150 -99t-173 -46.5l-30 203 q106 30 171.5 112.5t65.5 233.5q6 504 6 518q0 75 -29 115.5t-85 40.5q-33 0 -65.5 -15t-53.5 -34t-40 -44t-25.5 -36t-10.5 -19q-2 -174 -2 -518l-266 -16q0 216 4.5 615t5.5 556q-47 2 -102 6.5t-86 8.5z" />
<glyph unicode="&#x453;" horiz-adv-x="841" d="M61 860l7 164h176q358 8 450 8q60 0 90.5 -31t30.5 -114q0 -45 -5.5 -121.5t-11.5 -129.5l-5 -54l-164 -7l-4 189q0 23 -14 37t-42 14h-149q0 -133 -3 -403.5t-3 -403.5l-267 -16q0 136 3.5 414t3.5 415q-25 7 -48.5 17t-33.5 16zM256 1227q42 33 146 170t122 188 l121 -96q-6 -43 -70.5 -122t-138.5 -142.5t-108 -71.5z" />
<glyph unicode="&#x454;" horiz-adv-x="880" d="M47 487q0 165 64.5 296t174.5 201.5t244 70.5q64 0 128 -12.5t96 -24.5l32 -12q0 -33 -4.5 -83t-9.5 -84l-4 -34q-117 47 -217 47q-121 0 -183 -58t-75 -192q117 0 219 3t145 6l43 3l9 -176q-93 -30 -197 -30q-147 0 -223 79q11 -309 252 -309q43 0 85 9.5t71.5 23t53 27 t35.5 22.5l11 10l63 -137q-4 -7 -13 -18t-41.5 -39.5t-71 -50.5t-102 -40t-134.5 -18q-220 0 -335.5 142t-115.5 378z" />
<glyph unicode="&#x455;" horiz-adv-x="851" d="M51 70l74 168q15 -10 41.5 -24t97 -38t127.5 -24q69 0 105 29.5t36 76.5q0 33 -24 62t-62.5 51.5t-85 47t-93 55.5t-85 68t-62.5 94t-24 126q0 133 101.5 213t265.5 80q68 0 139.5 -10.5t108.5 -20.5l37 -10l-13 -193q-143 41 -243 41q-125 0 -125 -90q0 -80 186 -174 q92 -52 143.5 -96t79 -100t27.5 -130q0 -142 -103 -223.5t-292 -81.5q-68 0 -130 10.5t-101.5 25.5t-69.5 30.5t-43 26.5z" />
<glyph unicode="&#x456;" horiz-adv-x="587" d="M57 858l6 168q185 16 261 16q26 0 44 -11.5t28 -29.5t15.5 -49.5t7 -61t1.5 -73.5q0 -87 -6 -264t-6 -270q0 -119 41 -119l59 10v-137q-9 -6 -26 -15.5t-64 -25.5t-90 -16q-103 0 -142 61t-39 207q0 88 5.5 265.5t5.5 266.5q0 27 -0.5 39t-9.5 20t-15 9t-31 4t-45 6z M154 1382q0 72 42 122t101 50q57 0 99 -50.5t42 -121.5q0 -70 -42 -120t-99 -50q-59 0 -101 50t-42 120z" />
<glyph unicode="&#x457;" horiz-adv-x="587" d="M-33 1382q0 72 42.5 122t101.5 50t101 -50t42 -122q0 -70 -42 -120t-101 -50t-101.5 50t-42.5 120zM57 858l6 168q185 16 261 16q26 0 44 -11.5t28 -29.5t15.5 -49.5t7 -61t1.5 -73.5q0 -87 -6 -264t-6 -270q0 -119 41 -119l59 10v-137q-9 -6 -26 -15.5t-64 -25.5 t-90 -16q-103 0 -142 61t-39 207q0 88 5.5 265.5t5.5 266.5q0 27 -0.5 39t-9.5 20t-15 9t-31 4t-45 6zM328 1382q0 71 42 121.5t99 50.5q59 0 102 -50.5t43 -121.5q0 -70 -43 -120t-102 -50q-57 0 -99 50t-42 120z" />
<glyph unicode="&#x458;" horiz-adv-x="585" d="M-72 -360q106 30 181 117.5t75 226.5q0 133 3 398t3 398q0 59 -10 62q-10 4 -31.5 8t-38.5 6l-16 2q6 165 6 168q184 16 260 16q26 0 44 -11.5t27.5 -29.5t15 -49.5t7 -60.5t1.5 -74q0 -136 -6.5 -397t-6.5 -397q0 -107 -26 -198t-69.5 -155t-102.5 -111.5t-122 -73.5 t-130 -34zM227 1382q0 72 42.5 122t101.5 50q57 0 99 -50.5t42 -121.5q0 -70 -42 -120t-99 -50q-59 0 -101.5 50t-42.5 120z" />
<glyph unicode="&#x459;" horiz-adv-x="1536" d="M31 186q108 19 177 176t109 469q-31 3 -58.5 6.5t-39.5 6.5l-12 2l6 170q213 20 438 20q140 0 201.5 -48t67.5 -148l12 -209h12q3 6 8 15t26 33t46.5 42.5t70 33.5t95.5 15q120 0 204.5 -103.5t84.5 -265.5q0 -194 -117.5 -314t-325.5 -120q-74 0 -134.5 21t-97.5 54 t-64.5 73t-39.5 80.5t-19.5 73.5t-8.5 54v21l-19 399q-3 76 -80 76h-41q-13 -107 -26.5 -192.5t-33.5 -173.5t-44 -155t-57.5 -128t-74 -102t-93 -67.5t-115.5 -33.5q-39 76 -57 219zM938 506l10 -144q0 -8 1 -20.5t7.5 -45.5t18.5 -58t38 -45.5t62 -20.5q59 0 92 53t33 133 q0 91 -35 142t-98 51q-64 0 -129 -45z" />
<glyph unicode="&#x45a;" horiz-adv-x="1579" d="M57 858l6 168q185 16 261 16q26 0 44 -11.5t28 -29.5t15.5 -49.5t7 -61t1.5 -73.5v-180q98 13 307 16q4 242 4 363l266 16q0 -133 -4 -395h17q2 5 6 14t21 32t39.5 40.5t64.5 32t92 14.5q120 0 204.5 -103.5t84.5 -265.5q0 -194 -117.5 -314t-325.5 -120 q-72 0 -130.5 21.5t-94.5 55.5t-62.5 75t-39 82.5t-19 75.5t-7.5 55l-1 22v101q-111 -17 -309 -17q-2 -143 -2 -430l-267 -16q0 131 3.5 394t3.5 394q0 27 -0.5 39t-9 20t-14.5 9t-30 4t-43 6zM991 373q0 -8 1 -21.5t8.5 -48.5t20 -61.5t39 -48t62.5 -21.5q62 0 96.5 50.5 t34.5 135.5q0 92 -38 142.5t-103 50.5q-72 0 -121 -43v-135z" />
<glyph unicode="&#x45b;" horiz-adv-x="1169" d="M-45 1182l10 188h211v158l266 16v-174h19l299 6v-190q-125 -25 -299 -25h-21l-6 -477h15q2 11 6 28.5t24.5 63t48.5 80.5t82 63.5t121 28.5q142 0 209.5 -96t67.5 -258q0 -66 -6.5 -171.5t-6.5 -139.5q0 -119 41 -119l62 10v-137q-10 -6 -26.5 -15.5t-64.5 -25.5t-92 -16 q-103 0 -141.5 60.5t-38.5 207.5q0 42 3 137t3 137q-2 74 -31 117t-83 43q-39 0 -75.5 -21t-61.5 -52.5t-38.5 -52.5t-19.5 -36q-2 -170 -2 -512l-266 -16q0 216 4.5 615t5.5 556q-47 2 -102 6.5t-86 8.5z" />
<glyph unicode="&#x45c;" horiz-adv-x="1083" d="M57 858l6 168q185 16 261 16q26 0 44 -11.5t28 -29.5t15.5 -49.5t7 -61t1.5 -73.5q0 -162 -2 -242l88 76l268 387l279 -14l-365 -436q196 -426 283 -426q12 0 30.5 3.5t30.5 6.5l12 4v-147q-9 -5 -25 -13.5t-70 -22t-111 -13.5q-36 0 -68.5 16.5t-62 46.5t-64.5 87 t-68.5 122t-82.5 168l-76 -51q-2 -121 -2 -361l-267 -16q0 131 3.5 394t3.5 394q0 27 -0.5 39t-9 20t-14.5 9t-30 4t-43 6zM389 1227q42 33 146 170t122 188l121 -96q-6 -43 -70.5 -122t-138.5 -142.5t-108 -71.5z" />
<glyph unicode="&#x45d;" horiz-adv-x="1128" d="M51 858l6 168q207 16 285 16q33 0 48.5 -16t22.5 -63t7 -146l-17 -411l422 618l136 8q-19 -495 -19 -749q0 -119 47 -119l60 10v-137q-9 -6 -25.5 -15.5t-64 -25.5t-91.5 -16q-103 0 -141.5 60.5t-38.5 207.5q0 68 14 311l-86 -123l-331 -436l-138 -8q0 131 3.5 394 t3.5 394q0 52 -13 56q-9 4 -31.5 9.5t-40.5 8.5zM432 1458l150 123q22 -58 103 -177t120 -157l-107 -112q-48 34 -145 148.5t-121 174.5z" />
<glyph unicode="&#x45e;" horiz-adv-x="980" d="M-8 868v156q131 18 260 18q43 0 92 -90.5t90 -226.5t70 -254.5t47 -212.5h2q58 145 109 377t57 403l264 -14q-31 -206 -136 -510.5t-224 -550.5q-73 -141 -152 -259.5t-121 -167.5l-43 -48l-221 98q9 9 24.5 25.5t58.5 66t81 98t82 115t71 123.5q-231 834 -315 848z M190 1352l134 161q3 -5 9.5 -14.5t28.5 -32.5t46 -41t62 -32.5t77 -14.5q62 0 123 28t91 56l30 27l61 -135q-5 -7 -13.5 -19.5t-40 -43.5t-67.5 -54.5t-94.5 -43t-122.5 -19.5q-62 0 -118.5 18.5t-92.5 44.5t-63 52t-38 45z" />
<glyph unicode="&#x45f;" horiz-adv-x="1185" d="M63 858l7 168q182 16 256 16q32 0 52.5 -16t30 -49.5t12.5 -69t3 -90.5q0 -87 -3 -259.5t-3 -248.5t84 -76h243q0 130 3.5 391t3.5 392q94 4 266 16q0 -133 -3 -399.5t-3 -399.5h100v-202q-6 -3 -20.5 -8.5t-72.5 -14t-134 -8.5h-180q-6 -101 -17 -198.5t-18 -145.5 l-8 -47l-218 -6q23 192 37 397h-100q-52 0 -90 6.5t-70.5 23.5t-49.5 50.5t-17 83.5q0 115 3 331t3 285q0 27 -0.5 39t-9 20t-14.5 9t-30 4t-43 6z" />
<glyph unicode="&#x462;" horiz-adv-x="1138" d="M-66 1118l7 213h237v197l281 16v-213h469l-6 -209q-264 -37 -463 -37v-309q6 5 15 10.5t34.5 18t54 21.5t73 16.5t91.5 7.5q68 0 130.5 -23.5t113.5 -68t81.5 -117.5t30.5 -164q0 -106 -30 -196.5t-88.5 -161.5t-153.5 -111.5t-217 -40.5q-85 0 -154 24.5t-111 63 t-73 85.5t-45.5 94.5t-22.5 86t-9 63.5l-1 24v677q-61 0 -122 8.5t-92 16.5zM459 434q0 -5 0.5 -13.5t5 -33.5t11 -48t20 -51t31 -48t46 -33.5t62.5 -13.5q47 0 82.5 19.5t56 53t31 74t10.5 86.5q0 100 -52 159.5t-140 59.5q-74 0 -164 -45v-166z" />
<glyph unicode="&#x463;" horiz-adv-x="1009" d="M-61 926l10 180h217l4 125l264 39q0 -111 -2 -164h6l305 4v-182q-131 -23 -305 -23h-8l-8 -274h12q1 6 4.5 15t20.5 33t39.5 42.5t66.5 33.5t99 15q119 0 202.5 -103.5t83.5 -265.5q0 -194 -117 -314t-325 -120q-72 0 -130 18t-94 44t-62.5 65.5t-39 72t-19.5 74t-8 60.5 t-1 43q0 308 6 563q-47 2 -102.5 6.5t-87.5 8.5zM420 362q0 -26 3.5 -50.5t14.5 -57.5t38.5 -53.5t68.5 -20.5q63 0 100 47.5t37 130.5q0 92 -37.5 142.5t-101.5 50.5q-67 0 -123 -45v-144z" />
<glyph unicode="&#x490;" horiz-adv-x="905" d="M66 1096q0 22 0.5 51.5t1.5 57t2 51t2 38.5v15l10 3q11 2 35 5.5t62 7t106 6t153 2.5h197q31 0 47 15t16 36v240l183 12q26 -272 26 -440q0 -62 -43 -83t-139 -21q-29 0 -134.5 2t-131.5 2v-1088l-281 -16v1106z" />
<glyph unicode="&#x491;" horiz-adv-x="739" d="M61 846l7 178h411q35 0 46.5 30t11.5 97l-9 182l185 8q39 -143 39 -297q0 -128 -23 -177.5t-84 -49.5h-225q0 -133 -3 -405t-3 -404l-267 -16q0 135 4.5 415t4.5 416q-25 4 -49 9.5t-35 9.5z" />
<glyph unicode="&#x2000;" horiz-adv-x="946" />
<glyph unicode="&#x2001;" horiz-adv-x="1892" />
<glyph unicode="&#x2002;" horiz-adv-x="946" />
<glyph unicode="&#x2003;" horiz-adv-x="1892" />
<glyph unicode="&#x2004;" horiz-adv-x="630" />
<glyph unicode="&#x2005;" horiz-adv-x="473" />
<glyph unicode="&#x2006;" horiz-adv-x="315" />
<glyph unicode="&#x2007;" horiz-adv-x="315" />
<glyph unicode="&#x2008;" horiz-adv-x="236" />
<glyph unicode="&#x2009;" horiz-adv-x="378" />
<glyph unicode="&#x200a;" horiz-adv-x="105" />
<glyph unicode="&#x2010;" horiz-adv-x="626" d="M51 512l6 195h516l-6 -195h-516z" />
<glyph unicode="&#x2011;" horiz-adv-x="626" d="M51 512l6 195h516l-6 -195h-516z" />
<glyph unicode="&#x2012;" horiz-adv-x="626" d="M51 512l6 195h516l-6 -195h-516z" />
<glyph unicode="&#x2013;" horiz-adv-x="950" d="M51 512l6 195h840l-6 -195h-840z" />
<glyph unicode="&#x2014;" horiz-adv-x="1351" d="M51 512l6 195h1243l-6 -195h-1243z" />
<glyph unicode="&#x2018;" horiz-adv-x="491" d="M72 938q0 220 233 545l123 -56q-133 -230 -133 -428l47 -137q-8 -6 -21 -15t-49.5 -23.5t-68.5 -14.5q-56 0 -93.5 31.5t-37.5 97.5z" />
<glyph unicode="&#x2019;" horiz-adv-x="491" d="M57 840q133 235 133 428l-47 135q0 2 19 15t54 26.5t67 13.5q56 0 93.5 -31.5t37.5 -97.5q0 -222 -236 -545z" />
<glyph unicode="&#x201a;" horiz-adv-x="491" d="M31 -180q131 232 131 428l-45 137q7 6 20 15t49 23.5t68 14.5q57 0 95 -31.5t38 -97.5q0 -122 -68 -265.5t-167 -279.5z" />
<glyph unicode="&#x201c;" horiz-adv-x="854" d="M72 938q0 220 233 545l123 -56q-133 -230 -133 -428l47 -137q-8 -6 -21 -15t-49.5 -23.5t-68.5 -14.5q-56 0 -93.5 31.5t-37.5 97.5zM434 938q0 219 234 545l123 -56q-134 -231 -134 -428l48 -137q-8 -6 -21 -15t-50 -23.5t-69 -14.5q-56 0 -93.5 31.5t-37.5 97.5z" />
<glyph unicode="&#x201d;" horiz-adv-x="854" d="M57 840q133 235 133 428l-47 135q0 2 19 15t54 26.5t67 13.5q56 0 93.5 -31.5t37.5 -97.5q0 -222 -236 -545zM420 840q133 235 133 428l-47 135q0 2 19 15t53.5 26.5t66.5 13.5q56 0 93.5 -31.5t37.5 -97.5q0 -122 -68 -265.5t-167 -279.5z" />
<glyph unicode="&#x201e;" horiz-adv-x="854" d="M31 -180q131 232 131 428l-45 137q7 6 20 15t49 23.5t68 14.5q57 0 95 -31.5t38 -97.5q0 -122 -68 -265.5t-167 -279.5zM393 -180q131 232 131 428l-45 137q7 6 20 15t49 23.5t68 14.5q57 0 95.5 -31.5t38.5 -97.5q0 -222 -236 -545z" />
<glyph unicode="&#x2026;" horiz-adv-x="1732" d="M135 152q0 70 42.5 116.5t101.5 46.5q60 0 101.5 -46t41.5 -117q0 -70 -42 -116t-101 -46q-58 0 -101 46.5t-43 115.5zM723 152q0 70 42.5 116.5t100.5 46.5q60 0 102 -46t42 -117q0 -69 -42.5 -115.5t-101.5 -46.5q-58 0 -100.5 46.5t-42.5 115.5zM1313 152 q0 70 42.5 116.5t100.5 46.5q60 0 101.5 -46t41.5 -117q0 -70 -42 -116t-101 -46q-58 0 -100.5 46.5t-42.5 115.5z" />
<glyph unicode="&#x202f;" horiz-adv-x="378" />
<glyph unicode="&#x2039;" horiz-adv-x="663" d="M139 512l305 375l127 -123l-200 -244l196 -246l-123 -147z" />
<glyph unicode="&#x203a;" horiz-adv-x="663" d="M92 248l201 241l-197 248l123 150l305 -385l-307 -375z" />
<glyph unicode="&#x205f;" horiz-adv-x="473" />
<glyph unicode="&#x20ac;" horiz-adv-x="1052" d="M53 420l6 174h97v45q0 63 2 94h-105l6 174h127q55 213 195.5 333t349.5 120q71 0 139.5 -12t101.5 -24l32 -11v-207q-129 37 -285 37q-118 0 -185 -59t-94 -177h408l-6 -174h-422v-53q0 -59 2 -86h426l-6 -174h-389q72 -223 280 -223q67 0 137 21.5t107 43.5l37 21 l43 -166q-5 -6 -15.5 -16t-47 -36t-77 -46t-105.5 -36t-134 -16q-195 0 -326 120t-176 333h-123z" />
<glyph unicode="&#x2122;" horiz-adv-x="1556" d="M66 1389l6 147h620l-6 -147q-118 -25 -231 -25v-537l-168 -16v553q-45 0 -100.5 6t-88.5 12zM709 819l79 567l-59 9l6 141h226q36 0 69 -115q20 -68 65 -287l21 -100q34 95 75 218.5t65 199.5l24 76l162 16l55 -717l-158 -16l-34 414q-81 -254 -142 -398l-141 -16 q-74 291 -117 494l-43 -494z" />
<glyph unicode="&#x25fc;" horiz-adv-x="1044" d="M0 0v1044h1044v-1044h-1044z" />
</font>
</defs>
</svg>
